version 1
nodes
  0 "v_weapon.Bip01_R_Forearm" -1
  1 "v_weapon.Bip01_R_Hand" 0
  2 "v_weapon.Bip01_L_Forearm" -1
  3 "v_weapon.Bip01_L_Hand" 2
  4 "v_weapon.Bip01_R_Finger0" 1
  5 "v_weapon.Bip01_R_Finger01" 4
  6 "v_weapon.Bip01_R_Finger02" 5
  7 "v_weapon.Bip01_R_Finger1" 1
  8 "v_weapon.Bip01_R_Finger11" 7
  9 "v_weapon.Bip01_R_Finger12" 8
  10 "v_weapon.Bip01_R_Finger2" 1
  11 "v_weapon.Bip01_R_Finger21" 10
  12 "v_weapon.Bip01_R_Finger22" 11
  13 "v_weapon.Bip01_R_Finger3" 1
  14 "v_weapon.Bip01_R_Finger31" 13
  15 "v_weapon.Bip01_R_Finger32" 14
  16 "v_weapon.Bip01_R_Finger4" 1
  17 "v_weapon.Bip01_R_Finger41" 16
  18 "v_weapon.Bip01_R_Finger42" 17
  19 "v_weapon.Bip01_L_Finger0" 3
  20 "v_weapon.Bip01_L_Finger01" 19
  21 "v_weapon.Bip01_L_Finger02" 20
  22 "v_weapon.Bip01_L_Finger1" 3
  23 "v_weapon.Bip01_L_Finger11" 22
  24 "v_weapon.Bip01_L_Finger12" 23
  25 "v_weapon.Bip01_L_Finger2" 3
  26 "v_weapon.Bip01_L_Finger21" 25
  27 "v_weapon.Bip01_L_Finger22" 26
  28 "v_weapon.Bip01_L_Finger3" 3
  29 "v_weapon.Bip01_L_Finger31" 28
  30 "v_weapon.Bip01_L_Finger32" 29
  31 "v_weapon.Bip01_L_Finger4" 3
  32 "v_weapon.Bip01_L_Finger41" 31
  33 "v_weapon.Bip01_L_Finger42" 32
  34 "v_weapon.Bip01_L_ForeTwist" -1
  35 "v_weapon.Bip01_R_ForeTwist" -1
  36 "v_weapon" -1
  37 "v_weapon.knife" 36
  38 "v_weapon.front" 37
  39 "v_weapon.blade1" 38
  40 "v_weapon.rear" 39
  41 "v_weapon.lock" 40
end
skeleton
  time 0
    0 -14.099445 9.668668 -0.697999 -1.578642 0.005462 -2.390729
    1 10.295578 0.000000 0.000002 1.563506 0.043612 -0.021680
    2 16.099459 9.668652 -0.698009 -1.562950 0.005462 -0.750866
    3 10.295582 0.000001 -0.000006 -1.563506 -0.043612 -0.021680
    4 1.149520 0.416502 1.414117 -1.407288 -0.320852 0.235478
    5 1.263885 0.000000 -0.000008 0.000000 0.000000 -0.008520
    6 1.188939 -0.000002 0.000010 0.000000 0.000000 -0.008520
    7 3.773755 0.133215 0.970575 -0.009201 -0.142462 0.005942
    8 1.433456 0.000000 0.000000 0.000000 0.000000 0.025279
    9 1.019165 -0.000006 0.000001 0.000000 0.000000 0.025279
    10 3.799514 0.014957 0.039959 0.008703 0.034651 0.022689
    11 1.774878 0.000000 0.000000 0.000000 0.000000 0.025279
    12 1.008844 -0.000004 0.000000 0.000000 0.000000 0.025279
    13 3.632766 0.059052 -0.757493 0.016389 0.163096 0.042929
    14 1.500137 0.000002 0.000000 0.000000 0.000000 0.025279
    15 0.905666 -0.000002 -0.000001 0.000000 0.000000 0.025279
    16 3.323331 0.233744 -1.479075 0.032424 0.324218 0.031462
    17 0.963100 0.000011 0.000000 0.000000 0.000000 0.025279
    18 0.682894 -0.000006 -0.000001 0.000000 0.000000 0.025279
    19 1.149529 0.416498 -1.414117 1.407288 0.320852 0.235478
    20 1.263884 0.000001 0.000000 0.000000 0.000000 0.000000
    21 1.188946 0.000000 0.000002 0.000000 0.000000 -0.008520
    22 3.773762 0.133217 -0.970574 0.009201 0.142462 0.005942
    23 1.433458 0.000004 0.000000 0.000000 0.000000 0.025279
    24 1.019165 0.000011 0.000000 0.000000 0.000000 0.025279
    25 3.799517 0.014957 -0.039958 -0.008703 -0.034651 0.022689
    26 1.774879 0.000004 0.000000 0.000000 0.000000 0.025279
    27 1.008841 0.000004 0.000000 0.000000 0.000000 0.025279
    28 3.632765 0.059053 0.757493 -0.016389 -0.163096 0.042929
    29 1.500135 0.000004 0.000000 0.000000 0.000000 0.025279
    30 0.905668 0.000002 -0.000001 0.000000 0.000000 0.025279
    31 3.323332 0.233744 1.479075 -0.032424 -0.324218 0.031462
    32 0.963099 0.000010 0.000000 0.000000 0.000000 0.025279
    33 0.682898 -0.000002 0.000000 0.000000 0.000000 0.025279
    34 16.099459 9.668652 -0.698009 -1.556120 0.005462 -0.750865
    35 -14.099445 9.668668 -0.697999 -1.585472 0.005462 -2.390729
    36 1.000000 0.000000 1.000000 1.570796 0.000000 0.000000
    37 0.000000 0.000000 0.000000 1.570796 0.000000 0.000000
    38 -0.021929 2.029111 -0.137266 -1.570805 0.000001 0.000000
    39 0.000000 0.000000 0.000000 0.000007 0.000000 0.000001
    40 0.021929 -0.669111 0.409449 1.570796 0.000000 0.000000
    41 -0.021934 -6.213634 0.929182 -1.570796 0.000000 0.000000
end
triangles
GLOVED_sleeve.bmp
  1 -23.091479 4.470483 0.648641 -0.672884 0.346452 0.653604 0.644860 0.000000
  1 -18.212459 14.399640 -0.586627 -0.862751 0.505231 -0.020043 0.504673 1.000000
  1 -23.288569 4.632627 -0.827355 -0.887150 0.461343 -0.011288 0.504673 0.000000
GLOVED_sleeve.bmp
  1 -23.288569 4.632627 -0.827355 -0.887150 0.461343 -0.011288 0.504673 0.000000
  1 -18.212459 14.399640 -0.586627 -0.862751 0.505231 -0.020043 0.504673 1.000000
  1 -23.015137 4.552268 -2.303728 -0.628704 0.372657 -0.682538 0.373832 0.000000
GLOVED_sleeve.bmp
  1 -18.212459 14.399640 -0.586627 -0.862751 0.505231 -0.020043 0.504673 1.000000
  1 -15.199601 12.662895 -3.543822 -0.010522 0.007921 -0.999913 0.224299 1.000000
  1 -23.015137 4.552268 -2.303728 -0.628704 0.372657 -0.682538 0.373832 0.000000
GLOVED_sleeve.bmp
  1 -23.015137 4.552268 -2.303728 -0.628704 0.372657 -0.682538 0.373832 0.000000
  1 -15.199601 12.662895 -3.543822 -0.010522 0.007921 -0.999913 0.224299 1.000000
  1 -21.322858 3.383080 -3.131311 -0.030801 -0.024398 -0.999228 0.252336 0.000000
GLOVED_sleeve.bmp
  1 -15.199601 12.662895 -3.543822 -0.010522 0.007921 -0.999913 0.224299 1.000000
  1 -19.503301 2.199323 -2.311294 0.579702 -0.428165 -0.693268 0.112150 0.000000
  1 -21.322858 3.383080 -3.131311 -0.030801 -0.024398 -0.999228 0.252336 0.000000
GLOVED_sleeve.bmp
  3 25.675278 4.093210 -2.299347 0.563305 0.467497 -0.681274 0.373832 0.000000
  3 19.396650 13.044882 -0.604829 0.773004 0.634072 -0.020424 0.504673 1.000000
  3 25.924365 4.221265 -0.853506 0.803802 0.594787 -0.011451 0.504673 0.000000
GLOVED_sleeve.bmp
  3 25.924365 4.221265 -0.853506 0.803802 0.594787 -0.011451 0.504673 0.000000
  3 19.396650 13.044882 -0.604829 0.773004 0.634072 -0.020424 0.504673 1.000000
  3 25.751174 4.025528 0.623008 0.610458 0.447784 0.653323 0.644860 0.000000
GLOVED_sleeve.bmp
  3 19.396650 13.044882 -0.604829 0.773004 0.634072 -0.020424 0.504673 1.000000
  3 16.809785 10.691462 2.818729 0.059279 -0.043272 0.997303 0.794393 1.000000
  3 25.751174 4.025528 0.623008 0.610458 0.447784 0.653323 0.644860 0.000000
GLOVED_sleeve.bmp
  3 25.751174 4.025528 0.623008 0.610458 0.447784 0.653323 0.644860 0.000000
  3 16.809785 10.691462 2.818729 0.059279 -0.043272 0.997303 0.794393 1.000000
  3 24.285700 2.564565 1.490747 0.096761 -0.073435 0.992595 0.775701 0.000000
GLOVED_sleeve.bmp
  3 16.809785 10.691462 2.818729 0.059279 -0.043272 0.997303 0.794393 1.000000
  3 22.648847 1.137305 0.674328 -0.489012 -0.561726 0.667331 0.915888 0.000000
  3 24.285700 2.564565 1.490747 0.096761 -0.073435 0.992595 0.775701 0.000000
GLOVED_sleeve.bmp
  1 -15.294072 12.474213 2.839749 -0.051453 -0.051861 0.997328 0.794393 1.000000
  1 -19.564230 2.116421 0.700751 0.571088 -0.477949 0.667401 0.915888 0.000000
  1 -12.387276 10.340718 -0.625326 0.801956 -0.597080 -0.019006 1.000000 1.000000
GLOVED_sleeve.bmp
  1 -15.294072 12.474213 2.839749 -0.051453 -0.051861 0.997328 0.794393 1.000000
  1 -21.414206 3.269552 1.511788 -0.083287 -0.087803 0.992650 0.775701 0.000000
  1 -19.564230 2.116421 0.700751 0.571088 -0.477949 0.667401 0.915888 0.000000
GLOVED_sleeve.bmp
  1 -15.294072 12.474213 2.839749 -0.051453 -0.051861 0.997328 0.794393 1.000000
  1 -23.091479 4.470483 0.648641 -0.672884 0.346452 0.653604 0.644860 0.000000
  1 -21.414206 3.269552 1.511788 -0.083287 -0.087803 0.992650 0.775701 0.000000
GLOVED_sleeve.bmp
  1 -15.294072 12.474213 2.839749 -0.051453 -0.051861 0.997328 0.794393 1.000000
  1 -18.212459 14.399640 -0.586627 -0.862751 0.505231 -0.020043 0.504673 1.000000
  1 -23.091479 4.470483 0.648641 -0.672884 0.346452 0.653604 0.644860 0.000000
GLOVED_sleeve.bmp
  3 16.673914 10.862736 -3.555752 0.008449 0.009371 -0.999920 0.224299 1.000000
  3 22.566888 1.211500 -2.318176 -0.507331 -0.514784 -0.691095 0.112150 0.000000
  3 14.277685 8.119187 -0.638216 -0.698472 -0.715400 -0.018425 0.000000 1.000000
GLOVED_sleeve.bmp
  3 16.673914 10.862736 -3.555752 0.008449 0.009371 -0.999920 0.224299 1.000000
  3 24.174866 2.655292 -3.152784 0.033830 -0.018309 -0.999260 0.252336 0.000000
  3 22.566888 1.211500 -2.318176 -0.507331 -0.514784 -0.691095 0.112150 0.000000
GLOVED_sleeve.bmp
  3 16.673914 10.862736 -3.555752 0.008449 0.009371 -0.999920 0.224299 1.000000
  3 25.675278 4.093210 -2.299347 0.563305 0.467497 -0.681274 0.373832 0.000000
  3 24.174866 2.655292 -3.152784 0.033830 -0.018309 -0.999260 0.252336 0.000000
GLOVED_sleeve.bmp
  3 16.673914 10.862736 -3.555752 0.008449 0.009371 -0.999920 0.224299 1.000000
  3 19.396650 13.044882 -0.604829 0.773004 0.634072 -0.020424 0.504673 1.000000
  3 25.675278 4.093210 -2.299347 0.563305 0.467497 -0.681274 0.373832 0.000000
GLOVED_sleeve.bmp
  1 -15.199601 12.662895 -3.543822 -0.010522 0.007921 -0.999913 0.224299 1.000000
  1 -12.387276 10.340718 -0.625326 0.801956 -0.597080 -0.019006 0.000000 1.000000
  1 -19.503301 2.199323 -2.311294 0.579702 -0.428165 -0.693268 0.112150 0.000000
GLOVED_sleeve.bmp
  1 -19.503301 2.199323 -2.311294 0.579702 -0.428165 -0.693268 0.112150 0.000000
  1 -12.387276 10.340718 -0.625326 0.801956 -0.597080 -0.019006 0.000000 1.000000
  1 -19.291895 2.036073 -0.825609 0.768669 -0.639634 -0.004010 0.000000 0.000000
GLOVED_sleeve.bmp
  3 16.809785 10.691462 2.818729 0.059279 -0.043272 0.997303 0.794393 1.000000
  3 14.277685 8.119187 -0.638216 -0.698472 -0.715400 -0.018425 1.000000 1.000000
  3 22.648847 1.137305 0.674328 -0.489012 -0.561726 0.667331 0.915888 0.000000
GLOVED_sleeve.bmp
  3 22.648847 1.137305 0.674328 -0.489012 -0.561726 0.667331 0.915888 0.000000
  3 14.277685 8.119187 -0.638216 -0.698472 -0.715400 -0.018425 1.000000 1.000000
  3 22.385879 1.022258 -0.831830 -0.659058 -0.752085 -0.003357 1.000000 0.000000
GLOVED_sleeve.bmp
  1 -19.564230 2.116421 0.700751 0.571088 -0.477949 0.667401 0.915888 0.000000
  1 -19.291895 2.036073 -0.825609 0.768669 -0.639634 -0.004010 1.000000 0.000000
  1 -12.387276 10.340718 -0.625326 0.801956 -0.597080 -0.019006 1.000000 1.000000
GLOVED_sleeve.bmp
  3 22.566888 1.211500 -2.318176 -0.507331 -0.514784 -0.691095 0.112150 0.000000
  3 22.385879 1.022258 -0.831830 -0.659058 -0.752085 -0.003357 0.000000 0.000000
  3 14.277685 8.119187 -0.638216 -0.698472 -0.715400 -0.018425 0.000000 1.000000
ld_hev_arm.bmp
  1 -11.240230 12.081117 -0.470092 0.732251 -0.635551 -0.244710 0.330709 0.827451
  1 -6.828890 19.600902 3.675691 0.487946 -0.217266 0.845402 0.283465 0.913725
  1 -12.106071 13.302004 2.269827 0.302994 -0.442716 0.843918 0.259843 0.827451
ld_hev_arm.bmp
  1 -12.106071 13.302004 2.269827 0.302994 -0.442716 0.843918 0.259843 0.827451
  1 -6.828890 19.600902 3.675691 0.487946 -0.217266 0.845402 0.283465 0.913725
  1 -15.585304 15.709139 2.276688 -0.390720 0.041782 0.919561 0.062992 0.827451
ld_hev_arm.bmp
  1 -6.828890 19.600902 3.675691 0.487946 -0.217266 0.845402 0.283465 0.913725
  1 -11.726324 22.494779 3.593755 -0.540765 0.480979 0.690096 0.070866 0.909804
  1 -15.585304 15.709139 2.276688 -0.390720 0.041782 0.919561 0.062992 0.827451
ld_hev_arm.bmp
  1 -15.585304 15.709139 2.276688 -0.390720 0.041782 0.919561 0.062992 0.827451
  1 -11.726324 22.494779 3.593755 -0.540765 0.480979 0.690096 0.070866 0.909804
  1 -16.834606 16.022600 -0.486496 -0.862219 0.441594 -0.248140 0.000000 0.827451
ld_hev_arm.bmp
  1 -11.726324 22.494779 3.593755 -0.540765 0.480979 0.690096 0.070866 0.909804
  1 -13.283473 23.305649 -0.422870 -0.720419 0.640731 -0.265444 0.000000 0.909804
  1 -16.834606 16.022600 -0.486496 -0.862219 0.441594 -0.248140 0.000000 0.827451
ld_hev_arm.bmp
  1 -16.834606 16.022600 -0.486496 -0.862219 0.441594 -0.248140 0.000000 0.827451
  1 -13.283473 23.305649 -0.422870 -0.720419 0.640731 -0.265444 0.000000 0.909804
  1 -8.705823 21.793568 -3.674428 0.056736 0.099719 -0.993397 0.181102 0.909804
ld_hev_arm.bmp
  1 -13.283473 23.305649 -0.422870 -0.720419 0.640731 -0.265444 0.000000 0.909804
  1 -9.780696 25.691540 -0.289201 -0.575879 0.782552 -0.236593 0.007874 0.996078
  1 -8.705823 21.793568 -3.674428 0.056736 0.099719 -0.993397 0.181102 0.909804
ld_hev_arm.bmp
  1 -8.705823 21.793568 -3.674428 0.056736 0.099719 -0.993397 0.181102 0.909804
  1 -9.780696 25.691540 -0.289201 -0.575879 0.782552 -0.236593 0.007874 0.996078
  1 -7.222847 24.359894 -2.796217 0.105787 0.265755 -0.958219 0.173228 0.996078
ld_hev_arm.bmp
  3 7.333215 16.419794 3.652178 -0.447867 -0.291048 0.845403 0.283465 0.913725
  3 12.874960 9.683536 -0.488631 -0.624011 -0.742210 -0.244408 0.330709 0.827451
  3 13.546308 11.031066 2.257048 -0.228970 -0.484000 0.844581 0.259843 0.827451
ld_hev_arm.bmp
  3 7.333215 16.419794 3.652178 -0.447867 -0.291048 0.845403 0.283465 0.913725
  3 5.808860 15.968355 -0.272315 -0.783403 -0.563967 -0.261193 0.330709 0.909804
  3 12.874960 9.683536 -0.488631 -0.624011 -0.742210 -0.244408 0.330709 0.827451
ld_hev_arm.bmp
  3 7.333215 16.419794 3.652178 -0.447867 -0.291048 0.845403 0.283465 0.913725
  3 4.422849 19.207480 -0.392074 -0.906954 -0.349073 -0.235758 0.330709 0.996078
  3 5.808860 15.968355 -0.272315 -0.783403 -0.563967 -0.261193 0.330709 0.909804
ld_hev_arm.bmp
  3 7.333215 16.419794 3.652178 -0.447867 -0.291048 0.845403 0.283465 0.913725
  3 5.716310 19.753124 2.727178 -0.578233 -0.053641 0.814106 0.275591 0.996078
  3 4.422849 19.207480 -0.392074 -0.906954 -0.349073 -0.235758 0.330709 0.996078
ld_hev_arm.bmp
  3 7.333215 16.419794 3.652178 -0.447867 -0.291048 0.845403 0.283465 0.913725
  3 8.727754 22.009971 2.603713 0.059199 0.485906 0.872004 0.078740 0.996078
  3 5.716310 19.753124 2.727178 -0.578233 -0.053641 0.814106 0.275591 0.996078
ld_hev_arm.bmp
  3 7.333215 16.419794 3.652178 -0.447867 -0.291048 0.845403 0.283465 0.913725
  3 11.719808 20.039700 3.569189 0.459829 0.559510 0.689569 0.070866 0.909804
  3 8.727754 22.009971 2.603713 0.059199 0.485906 0.872004 0.078740 0.996078
ld_hev_arm.bmp
  3 7.333215 16.419794 3.652178 -0.447867 -0.291048 0.845403 0.283465 0.913725
  3 16.596549 13.936564 2.254600 0.380465 0.104575 0.918864 0.062992 0.827451
  3 11.719808 20.039700 3.569189 0.459829 0.559510 0.689569 0.070866 0.909804
ld_hev_arm.bmp
  3 7.333215 16.419794 3.652178 -0.447867 -0.291048 0.845403 0.283465 0.913725
  3 13.546308 11.031066 2.257048 -0.228970 -0.484000 0.844581 0.259843 0.827451
  3 16.596549 13.936564 2.254600 0.380465 0.104575 0.918864 0.062992 0.827451
ld_hev_arm.bmp
  3 8.841980 18.874456 -3.695962 -0.072548 0.088594 -0.993422 0.181102 0.909804
  3 13.131127 21.080320 -0.440585 0.611891 0.745172 -0.265159 0.000000 0.909804
  3 17.767532 14.435395 -0.510263 0.782389 0.570576 -0.249621 0.000000 0.827451
ld_hev_arm.bmp
  3 8.841980 18.874456 -3.695962 -0.072548 0.088594 -0.993422 0.181102 0.909804
  3 9.303567 22.901767 -0.304163 0.446579 0.862979 -0.236291 0.007874 0.996078
  3 13.131127 21.080320 -0.440585 0.611891 0.745172 -0.265159 0.000000 0.909804
ld_hev_arm.bmp
  3 8.841980 18.874456 -3.695962 -0.072548 0.088594 -0.993422 0.181102 0.909804
  3 6.982866 21.170206 -2.816062 -0.147170 0.247022 -0.957769 0.173228 0.996078
  3 9.303567 22.901767 -0.304163 0.446579 0.862979 -0.236291 0.007874 0.996078
ld_hev_arm.bmp
  3 8.841980 18.874456 -3.695962 -0.072548 0.088594 -0.993422 0.181102 0.909804
  3 4.422849 19.207480 -0.392074 -0.906954 -0.349073 -0.235758 0.330709 0.996078
  3 6.982866 21.170206 -2.816062 -0.147170 0.247022 -0.957769 0.173228 0.996078
ld_hev_arm.bmp
  3 8.841980 18.874456 -3.695962 -0.072548 0.088594 -0.993422 0.181102 0.909804
  3 5.808860 15.968355 -0.272315 -0.783403 -0.563967 -0.261193 0.330709 0.909804
  3 4.422849 19.207480 -0.392074 -0.906954 -0.349073 -0.235758 0.330709 0.996078
ld_hev_arm.bmp
  3 8.841980 18.874456 -3.695962 -0.072548 0.088594 -0.993422 0.181102 0.909804
  3 12.874960 9.683536 -0.488631 -0.624011 -0.742210 -0.244408 0.330709 0.827451
  3 5.808860 15.968355 -0.272315 -0.783403 -0.563967 -0.261193 0.330709 0.909804
ld_hev_arm.bmp
  3 8.841980 18.874456 -3.695962 -0.072548 0.088594 -0.993422 0.181102 0.909804
  3 15.188059 12.442127 -3.227946 0.053255 -0.021046 -0.998359 0.157480 0.827451
  3 12.874960 9.683536 -0.488631 -0.624011 -0.742210 -0.244408 0.330709 0.827451
ld_hev_arm.bmp
  3 8.841980 18.874456 -3.695962 -0.072548 0.088594 -0.993422 0.181102 0.909804
  3 17.767532 14.435395 -0.510263 0.782389 0.570576 -0.249621 0.000000 0.827451
  3 15.188059 12.442127 -3.227946 0.053255 -0.021046 -0.998359 0.157480 0.827451
ld_hev_arm.bmp
  1 -5.747804 23.160550 2.742494 0.579975 0.035790 0.813848 0.275591 0.996078
  1 -6.828890 19.600902 3.675691 0.487946 -0.217266 0.845402 0.283465 0.913725
  1 -4.396612 22.808978 -0.377983 0.950760 -0.201560 -0.235432 0.330709 0.996078
ld_hev_arm.bmp
  1 -4.396612 22.808978 -0.377983 0.950760 -0.201560 -0.235432 0.330709 0.996078
  1 -6.828890 19.600902 3.675691 0.487946 -0.217266 0.845402 0.283465 0.913725
  1 -5.229618 19.384729 -0.260399 0.863040 -0.432665 -0.260695 0.330709 0.909804
ld_hev_arm.bmp
  1 -6.828890 19.600902 3.675691 0.487946 -0.217266 0.845402 0.283465 0.913725
  1 -11.240230 12.081117 -0.470092 0.732251 -0.635551 -0.244710 0.330709 0.827451
  1 -5.229618 19.384729 -0.260399 0.863040 -0.432665 -0.260695 0.330709 0.909804
ld_hev_arm.bmp
  1 -5.229618 19.384729 -0.260399 0.863040 -0.432665 -0.260695 0.330709 0.909804
  1 -11.240230 12.081117 -0.470092 0.732251 -0.635551 -0.244710 0.330709 0.827451
  1 -8.705823 21.793568 -3.674428 0.056736 0.099719 -0.993397 0.181102 0.909804
ld_hev_arm.bmp
  1 -11.240230 12.081117 -0.470092 0.732251 -0.635551 -0.244710 0.330709 0.827451
  1 -13.973715 14.454135 -3.210265 -0.050502 -0.027414 -0.998348 0.157480 0.827451
  1 -8.705823 21.793568 -3.674428 0.056736 0.099719 -0.993397 0.181102 0.909804
ld_hev_arm.bmp
  1 -8.705823 21.793568 -3.674428 0.056736 0.099719 -0.993397 0.181102 0.909804
  1 -13.973715 14.454135 -3.210265 -0.050502 -0.027414 -0.998348 0.157480 0.827451
  1 -16.834606 16.022600 -0.486496 -0.862219 0.441594 -0.248140 0.000000 0.827451
ld_hev_arm.bmp
  1 -21.322858 3.383080 -3.131311 -0.556737 -0.829982 0.034249 0.503937 0.439216
  1 -19.503301 2.199323 -2.311294 -0.553227 -0.832911 -0.014113 0.535433 0.411765
  1 -23.015137 4.552268 -2.303728 -0.553227 -0.832911 -0.014113 0.543307 0.470588
ld_hev_arm.bmp
  1 -23.015137 4.552268 -2.303728 -0.553227 -0.832911 -0.014113 0.543307 0.470588
  1 -19.503301 2.199323 -2.311294 -0.553227 -0.832911 -0.014113 0.535433 0.411765
  1 -23.288569 4.632627 -0.827355 -0.552044 -0.832181 -0.052179 0.590551 0.474510
ld_hev_arm.bmp
  1 -19.503301 2.199323 -2.311294 -0.553227 -0.832911 -0.014113 0.535433 0.411765
  1 -19.291895 2.036073 -0.825609 -0.552044 -0.832181 -0.052179 0.590551 0.407843
  1 -23.288569 4.632627 -0.827355 -0.552044 -0.832181 -0.052179 0.590551 0.474510
ld_hev_arm.bmp
  1 -23.288569 4.632627 -0.827355 -0.552044 -0.832181 -0.052179 0.590551 0.474510
  1 -19.291895 2.036073 -0.825609 -0.552044 -0.832181 -0.052179 0.590551 0.407843
  1 -23.091479 4.470483 0.648641 -0.552044 -0.832181 -0.052179 0.629921 0.470588
ld_hev_arm.bmp
  1 -19.291895 2.036073 -0.825609 -0.552044 -0.832181 -0.052179 0.590551 0.407843
  1 -19.564230 2.116421 0.700751 -0.552044 -0.832181 -0.052179 0.629921 0.411765
  1 -23.091479 4.470483 0.648641 -0.552044 -0.832181 -0.052179 0.629921 0.470588
ld_hev_arm.bmp
  1 -23.091479 4.470483 0.648641 -0.552044 -0.832181 -0.052179 0.629921 0.470588
  1 -19.564230 2.116421 0.700751 -0.552044 -0.832181 -0.052179 0.629921 0.411765
  1 -21.414206 3.269552 1.511788 -0.552044 -0.832181 -0.052179 0.661417 0.439216
ld_hev_arm.bmp
  3 25.675278 4.093210 -2.299347 0.679761 -0.733386 -0.008361 0.543307 0.470588
  3 25.924365 4.221265 -0.853506 0.679761 -0.733386 -0.008361 0.590551 0.474510
  3 22.566888 1.211500 -2.318176 0.679761 -0.733386 -0.008361 0.535433 0.411765
ld_hev_arm.bmp
  3 22.566888 1.211500 -2.318176 0.679761 -0.733386 -0.008361 0.535433 0.411765
  3 25.924365 4.221265 -0.853506 0.679761 -0.733386 -0.008361 0.590551 0.474510
  3 22.385879 1.022258 -0.831830 0.679761 -0.733386 -0.008361 0.590551 0.407843
ld_hev_arm.bmp
  3 25.924365 4.221265 -0.853506 0.679761 -0.733386 -0.008361 0.590551 0.474510
  3 25.751174 4.025528 0.623008 0.676794 -0.734115 -0.055004 0.629921 0.470588
  3 22.385879 1.022258 -0.831830 0.679761 -0.733386 -0.008361 0.590551 0.407843
ld_hev_arm.bmp
  3 22.385879 1.022258 -0.831830 0.679761 -0.733386 -0.008361 0.590551 0.407843
  3 25.751174 4.025528 0.623008 0.676794 -0.734115 -0.055004 0.629921 0.470588
  3 22.648847 1.137305 0.674328 0.676794 -0.734115 -0.055004 0.629921 0.411765
ld_hev_arm.bmp
  3 25.751174 4.025528 0.623008 0.676794 -0.734115 -0.055004 0.629921 0.470588
  3 24.285700 2.564565 1.490747 0.676794 -0.734115 -0.055004 0.661417 0.439216
  3 22.648847 1.137305 0.674328 0.676794 -0.734115 -0.055004 0.629921 0.411765
ld_hev_arm.bmp
  1 -5.747804 23.160550 2.742494 0.579975 0.035790 0.813848 0.275591 0.996078
  1 -9.075695 24.910208 2.615863 -0.133359 0.471227 0.871872 0.078740 0.996078
  1 -6.828890 19.600902 3.675691 0.487946 -0.217266 0.845402 0.283465 0.913725
ld_hev_arm.bmp
  1 -6.828890 19.600902 3.675691 0.487946 -0.217266 0.845402 0.283465 0.913725
  1 -9.075695 24.910208 2.615863 -0.133359 0.471227 0.871872 0.078740 0.996078
  1 -11.726324 22.494779 3.593755 -0.540765 0.480979 0.690096 0.070866 0.909804
ld_hev_arm.bmp
  1 -9.075695 24.910208 2.615863 -0.133359 0.471227 0.871872 0.078740 0.996078
  1 -9.780696 25.691540 -0.289201 -0.575879 0.782552 -0.236593 0.007874 0.996078
  1 -11.726324 22.494779 3.593755 -0.540765 0.480979 0.690096 0.070866 0.909804
ld_hev_arm.bmp
  1 -11.726324 22.494779 3.593755 -0.540765 0.480979 0.690096 0.070866 0.909804
  1 -9.780696 25.691540 -0.289201 -0.575879 0.782552 -0.236593 0.007874 0.996078
  1 -13.283473 23.305649 -0.422870 -0.720419 0.640731 -0.265444 0.000000 0.909804
ld_hev_arm.bmp
  3 11.719808 20.039700 3.569189 0.459829 0.559510 0.689569 0.070866 0.909804
  3 9.303567 22.901767 -0.304163 0.446579 0.862979 -0.236291 0.007874 0.996078
  3 8.727754 22.009971 2.603713 0.059199 0.485906 0.872004 0.078740 0.996078
ld_hev_arm.bmp
  3 11.719808 20.039700 3.569189 0.459829 0.559510 0.689569 0.070866 0.909804
  3 13.131127 21.080320 -0.440585 0.611891 0.745172 -0.265159 0.000000 0.909804
  3 9.303567 22.901767 -0.304163 0.446579 0.862979 -0.236291 0.007874 0.996078
ld_hev_arm.bmp
  3 11.719808 20.039700 3.569189 0.459829 0.559510 0.689569 0.070866 0.909804
  3 17.767532 14.435395 -0.510263 0.782389 0.570576 -0.249621 0.000000 0.827451
  3 13.131127 21.080320 -0.440585 0.611891 0.745172 -0.265159 0.000000 0.909804
ld_hev_arm.bmp
  3 11.719808 20.039700 3.569189 0.459829 0.559510 0.689569 0.070866 0.909804
  3 16.596549 13.936564 2.254600 0.380465 0.104575 0.918864 0.062992 0.827451
  3 17.767532 14.435395 -0.510263 0.782389 0.570576 -0.249621 0.000000 0.827451
ld_hev_arm.bmp
  1 -7.222847 24.359894 -2.796217 0.105787 0.265755 -0.958219 0.173228 0.996078
  1 -4.396612 22.808978 -0.377983 0.950760 -0.201560 -0.235432 0.330709 0.996078
  1 -8.705823 21.793568 -3.674428 0.056736 0.099719 -0.993397 0.181102 0.909804
ld_hev_arm.bmp
  1 -8.705823 21.793568 -3.674428 0.056736 0.099719 -0.993397 0.181102 0.909804
  1 -4.396612 22.808978 -0.377983 0.950760 -0.201560 -0.235432 0.330709 0.996078
  1 -5.229618 19.384729 -0.260399 0.863040 -0.432665 -0.260695 0.330709 0.909804
ld_hev_arm.bmp
  3 24.174866 2.655292 -3.152784 0.679105 -0.733045 0.038236 0.503937 0.439216
  3 25.675278 4.093210 -2.299347 0.679761 -0.733386 -0.008361 0.543307 0.470588
  3 22.566888 1.211500 -2.318176 0.679761 -0.733386 -0.008361 0.535433 0.411765
Chrome2.bmp
  1 -15.199601 12.662895 -3.543822 0.060050 0.121451 -0.990779 0.000000 0.000000
  1 -18.212459 14.399640 -0.586627 -0.864626 0.484252 0.133872 0.000000 0.000000
  1 -16.834606 16.022600 -0.486496 -0.664194 0.599154 -0.447057 0.000000 0.000000
Chrome2.bmp
  1 -16.834606 16.022600 -0.486496 -0.664194 0.599154 -0.447057 0.000000 0.000000
  1 -18.212459 14.399640 -0.586627 -0.864626 0.484252 0.133872 0.000000 0.000000
  1 -15.585304 15.709139 2.276688 -0.520409 0.318299 0.792376 0.000000 0.000000
Chrome2.bmp
  1 -18.212459 14.399640 -0.586627 -0.864626 0.484252 0.133872 0.000000 0.000000
  1 -15.294072 12.474213 2.839749 -0.135622 -0.189406 0.972488 0.000000 0.000000
  1 -15.585304 15.709139 2.276688 -0.520409 0.318299 0.792376 0.000000 0.000000
Chrome2.bmp
  1 -15.585304 15.709139 2.276688 -0.520409 0.318299 0.792376 0.000000 0.000000
  1 -15.294072 12.474213 2.839749 -0.135622 -0.189406 0.972488 0.000000 0.000000
  1 -12.106071 13.302004 2.269827 0.441593 -0.388685 0.808653 0.000000 0.000000
Chrome2.bmp
  1 -15.294072 12.474213 2.839749 -0.135622 -0.189406 0.972488 0.000000 0.000000
  1 -12.387276 10.340718 -0.625326 0.718526 -0.676472 0.161573 0.000000 0.000000
  1 -12.106071 13.302004 2.269827 0.441593 -0.388685 0.808653 0.000000 0.000000
Chrome2.bmp
  1 -12.106071 13.302004 2.269827 0.441593 -0.388685 0.808653 0.000000 0.000000
  1 -12.387276 10.340718 -0.625326 0.718526 -0.676472 0.161573 0.000000 0.000000
  1 -11.240230 12.081117 -0.470092 0.774056 -0.437989 -0.457169 0.000000 0.000000
Chrome2.bmp
  1 -12.387276 10.340718 -0.625326 0.718526 -0.676472 0.161573 0.000000 0.000000
  1 -15.199601 12.662895 -3.543822 0.060050 0.121451 -0.990779 0.000000 0.000000
  1 -11.240230 12.081117 -0.470092 0.774056 -0.437989 -0.457169 0.000000 0.000000
Chrome2.bmp
  1 -11.240230 12.081117 -0.470092 0.774056 -0.437989 -0.457169 0.000000 0.000000
  1 -15.199601 12.662895 -3.543822 0.060050 0.121451 -0.990779 0.000000 0.000000
  1 -13.973715 14.454135 -3.210265 0.060050 0.121451 -0.990779 0.000000 0.000000
Chrome2.bmp
  1 -15.199601 12.662895 -3.543822 0.060050 0.121451 -0.990779 0.000000 0.000000
  1 -16.834606 16.022600 -0.486496 -0.664194 0.599154 -0.447057 0.000000 0.000000
  1 -13.973715 14.454135 -3.210265 0.060050 0.121451 -0.990779 0.000000 0.000000
Chrome2.bmp
  3 17.767532 14.435395 -0.510263 0.561105 0.695166 -0.449339 0.000000 0.000000
  3 16.673914 10.862736 -3.555752 -0.078890 0.108552 -0.990956 0.000000 0.000000
  3 15.188059 12.442127 -3.227946 -0.078890 0.108552 -0.990956 0.000000 0.000000
Chrome2.bmp
  3 15.188059 12.442127 -3.227946 -0.078890 0.108552 -0.990956 0.000000 0.000000
  3 16.673914 10.862736 -3.555752 -0.078890 0.108552 -0.990956 0.000000 0.000000
  3 12.874960 9.683536 -0.488631 -0.696685 -0.553622 -0.456216 0.000000 0.000000
Chrome2.bmp
  3 16.673914 10.862736 -3.555752 -0.078890 0.108552 -0.990956 0.000000 0.000000
  3 14.277685 8.119187 -0.638216 -0.606185 -0.778673 0.161889 0.000000 0.000000
  3 12.874960 9.683536 -0.488631 -0.696685 -0.553622 -0.456216 0.000000 0.000000
Chrome2.bmp
  3 12.874960 9.683536 -0.488631 -0.696685 -0.553622 -0.456216 0.000000 0.000000
  3 14.277685 8.119187 -0.638216 -0.606185 -0.778673 0.161889 0.000000 0.000000
  3 13.546308 11.031066 2.257048 -0.376958 -0.451035 0.808993 0.000000 0.000000
Chrome2.bmp
  3 14.277685 8.119187 -0.638216 -0.606185 -0.778673 0.161889 0.000000 0.000000
  3 16.809785 10.691462 2.818729 0.163232 -0.165437 0.972618 0.000000 0.000000
  3 13.546308 11.031066 2.257048 -0.376958 -0.451035 0.808993 0.000000 0.000000
Chrome2.bmp
  3 13.546308 11.031066 2.257048 -0.376958 -0.451035 0.808993 0.000000 0.000000
  3 16.809785 10.691462 2.818729 0.163232 -0.165437 0.972618 0.000000 0.000000
  3 16.596549 13.936564 2.254600 0.465167 0.396812 0.791303 0.000000 0.000000
Chrome2.bmp
  3 16.809785 10.691462 2.818729 0.163232 -0.165437 0.972618 0.000000 0.000000
  3 19.396650 13.044882 -0.604829 0.778503 0.613660 0.131738 0.000000 0.000000
  3 16.596549 13.936564 2.254600 0.465167 0.396812 0.791303 0.000000 0.000000
Chrome2.bmp
  3 16.596549 13.936564 2.254600 0.465167 0.396812 0.791303 0.000000 0.000000
  3 19.396650 13.044882 -0.604829 0.778503 0.613660 0.131738 0.000000 0.000000
  3 17.767532 14.435395 -0.510263 0.561105 0.695166 -0.449339 0.000000 0.000000
Chrome2.bmp
  3 19.396650 13.044882 -0.604829 0.778503 0.613660 0.131738 0.000000 0.000000
  3 16.673914 10.862736 -3.555752 -0.078890 0.108552 -0.990956 0.000000 0.000000
  3 17.767532 14.435395 -0.510263 0.561105 0.695166 -0.449339 0.000000 0.000000
end
