version 1
nodes
  0 "v_weapon.Bip01_R_Forearm" -1
  1 "v_weapon.Bip01_R_Hand" 0
  2 "v_weapon.Bip01_L_Forearm" -1
  3 "v_weapon.Bip01_L_Hand" 2
  4 "v_weapon.Bip01_R_Finger0" 1
  5 "v_weapon.Bip01_R_Finger01" 4
  6 "v_weapon.Bip01_R_Finger02" 5
  7 "v_weapon.Bip01_R_Finger1" 1
  8 "v_weapon.Bip01_R_Finger11" 7
  9 "v_weapon.Bip01_R_Finger12" 8
  10 "v_weapon.Bip01_R_Finger2" 1
  11 "v_weapon.Bip01_R_Finger21" 10
  12 "v_weapon.Bip01_R_Finger22" 11
  13 "v_weapon.Bip01_R_Finger3" 1
  14 "v_weapon.Bip01_R_Finger31" 13
  15 "v_weapon.Bip01_R_Finger32" 14
  16 "v_weapon.Bip01_R_Finger4" 1
  17 "v_weapon.Bip01_R_Finger41" 16
  18 "v_weapon.Bip01_R_Finger42" 17
  19 "v_weapon.Bip01_L_Finger0" 3
  20 "v_weapon.Bip01_L_Finger01" 19
  21 "v_weapon.Bip01_L_Finger02" 20
  22 "v_weapon.Bip01_L_Finger1" 3
  23 "v_weapon.Bip01_L_Finger11" 22
  24 "v_weapon.Bip01_L_Finger12" 23
  25 "v_weapon.Bip01_L_Finger2" 3
  26 "v_weapon.Bip01_L_Finger21" 25
  27 "v_weapon.Bip01_L_Finger22" 26
  28 "v_weapon.Bip01_L_Finger3" 3
  29 "v_weapon.Bip01_L_Finger31" 28
  30 "v_weapon.Bip01_L_Finger32" 29
  31 "v_weapon.Bip01_L_Finger4" 3
  32 "v_weapon.Bip01_L_Finger41" 31
  33 "v_weapon.Bip01_L_Finger42" 32
  34 "v_weapon.Bip01_L_ForeTwist" -1
  35 "v_weapon.Bip01_R_ForeTwist" -1
  36 "v_weapon" -1
  37 "v_weapon.knife" 36
  38 "v_weapon.front" 37
  39 "v_weapon.blade1" 38
  40 "v_weapon.rear" 39
  41 "v_weapon.lock" 40
end
skeleton
  time 0
    0 -14.099445 9.668668 -0.697999 -1.578642 0.005462 -2.390729
    1 10.295578 0.000000 0.000002 1.563506 0.043612 -0.021680
    2 16.099459 9.668652 -0.698009 -1.562950 0.005462 -0.750866
    3 10.295582 0.000001 -0.000006 -1.563506 -0.043612 -0.021680
    4 1.149520 0.416502 1.414117 -1.407288 -0.320852 0.235478
    5 1.263885 0.000000 -0.000008 0.000000 0.000000 -0.008520
    6 1.188939 -0.000002 0.000010 0.000000 0.000000 -0.008520
    7 3.773755 0.133215 0.970575 -0.009201 -0.142462 0.005942
    8 1.433456 0.000000 0.000000 0.000000 0.000000 0.025279
    9 1.019165 -0.000006 0.000001 0.000000 0.000000 0.025279
    10 3.799514 0.014957 0.039959 0.008703 0.034651 0.022689
    11 1.774878 0.000000 0.000000 0.000000 0.000000 0.025279
    12 1.008844 -0.000004 0.000000 0.000000 0.000000 0.025279
    13 3.632766 0.059052 -0.757493 0.016389 0.163096 0.042929
    14 1.500137 0.000002 0.000000 0.000000 0.000000 0.025279
    15 0.905666 -0.000002 -0.000001 0.000000 0.000000 0.025279
    16 3.323331 0.233744 -1.479075 0.032424 0.324218 0.031462
    17 0.963100 0.000011 0.000000 0.000000 0.000000 0.025279
    18 0.682894 -0.000006 -0.000001 0.000000 0.000000 0.025279
    19 1.149529 0.416498 -1.414117 1.407288 0.320852 0.235478
    20 1.263884 0.000001 0.000000 0.000000 0.000000 0.000000
    21 1.188946 0.000000 0.000002 0.000000 0.000000 -0.008520
    22 3.773762 0.133217 -0.970574 0.009201 0.142462 0.005942
    23 1.433458 0.000004 0.000000 0.000000 0.000000 0.025279
    24 1.019165 0.000011 0.000000 0.000000 0.000000 0.025279
    25 3.799517 0.014957 -0.039958 -0.008703 -0.034651 0.022689
    26 1.774879 0.000004 0.000000 0.000000 0.000000 0.025279
    27 1.008841 0.000004 0.000000 0.000000 0.000000 0.025279
    28 3.632765 0.059053 0.757493 -0.016389 -0.163096 0.042929
    29 1.500135 0.000004 0.000000 0.000000 0.000000 0.025279
    30 0.905668 0.000002 -0.000001 0.000000 0.000000 0.025279
    31 3.323332 0.233744 1.479075 -0.032424 -0.324218 0.031462
    32 0.963099 0.000010 0.000000 0.000000 0.000000 0.025279
    33 0.682898 -0.000002 0.000000 0.000000 0.000000 0.025279
    34 16.099459 9.668652 -0.698009 -1.556120 0.005462 -0.750865
    35 -14.099445 9.668668 -0.697999 -1.585472 0.005462 -2.390729
    36 1.000000 0.000000 1.000000 1.570796 0.000000 0.000000
    37 0.000000 0.000000 0.000000 1.570796 0.000000 0.000000
    38 -0.021929 2.029111 -0.137266 -1.570805 0.000001 0.000000
    39 0.000000 0.000000 0.000000 0.000007 0.000000 0.000001
    40 0.021929 -0.669111 0.409449 1.570796 0.000000 0.000000
    41 -0.021934 -6.213634 0.929182 -1.570796 0.000000 0.000000
end
triangles
GLOVED_knuckle.bmp
  9 -26.171133 -1.191314 1.057673 0.245871 0.505917 0.826799 0.000000 1.000000
  9 -26.305721 -1.081603 0.671474 0.082121 0.651171 -0.754475 0.000000 1.000000
  9 -26.235641 -1.197493 1.056907 -0.196273 0.765857 0.612323 0.000000 1.000000
GLOVED_knuckle.bmp
  9 -26.235641 -1.197493 1.056907 -0.196273 0.765857 0.612323 0.000000 1.000000
  9 -26.305721 -1.081603 0.671474 0.082121 0.651171 -0.754475 0.000000 1.000000
  9 -26.377126 -1.080548 0.671023 -0.360507 0.582598 -0.728433 0.000000 1.000000
GLOVED_knuckle.bmp
  9 -26.305721 -1.081603 0.671474 0.082121 0.651171 -0.754475 0.000000 1.000000
  9 -26.899500 -1.740751 0.901147 -0.215798 -0.974637 0.059271 0.000000 1.000000
  9 -26.377126 -1.080548 0.671023 -0.360507 0.582598 -0.728433 0.000000 1.000000
GLOVED_knuckle.bmp
  9 -26.377126 -1.080548 0.671023 -0.360507 0.582598 -0.728433 0.000000 1.000000
  9 -26.899500 -1.740751 0.901147 -0.215798 -0.974637 0.059271 0.000000 1.000000
  9 -26.971121 -1.753781 0.901949 -0.396138 -0.113548 0.911143 0.000000 1.000000
GLOVED_knuckle.bmp
  9 -26.899500 -1.740751 0.901147 -0.215798 -0.974637 0.059271 0.000000 1.000000
  9 -26.171133 -1.191314 1.057673 0.245871 0.505917 0.826799 0.000000 1.000000
  9 -26.971121 -1.753781 0.901949 -0.396138 -0.113548 0.911143 0.000000 1.000000
GLOVED_knuckle.bmp
  9 -26.971121 -1.753781 0.901949 -0.396138 -0.113548 0.911143 0.000000 1.000000
  9 -26.171133 -1.191314 1.057673 0.245871 0.505917 0.826799 0.000000 1.000000
  9 -26.235641 -1.197493 1.056907 -0.196273 0.765857 0.612323 0.000000 1.000000
GLOVED_knuckle.bmp
  9 -26.037867 -1.271557 1.056536 0.164122 0.262468 0.950881 0.000000 1.000000
  9 -26.172455 -1.161846 0.670336 0.472115 0.755234 -0.454675 0.000000 1.000000
  9 -26.171133 -1.191314 1.057673 0.245871 0.505917 0.826799 0.000000 1.000000
GLOVED_knuckle.bmp
  9 -26.171133 -1.191314 1.057673 0.245871 0.505917 0.826799 0.000000 1.000000
  9 -26.172455 -1.161846 0.670336 0.472115 0.755234 -0.454675 0.000000 1.000000
  9 -26.305721 -1.081603 0.671474 0.082121 0.651171 -0.754475 0.000000 1.000000
GLOVED_knuckle.bmp
  9 -26.172455 -1.161846 0.670336 0.472115 0.755234 -0.454675 0.000000 1.000000
  9 -26.773347 -1.827845 0.901578 -0.314409 -0.503391 -0.804826 0.000000 1.000000
  9 -26.305721 -1.081603 0.671474 0.082121 0.651171 -0.754475 0.000000 1.000000
GLOVED_knuckle.bmp
  9 -26.305721 -1.081603 0.671474 0.082121 0.651171 -0.754475 0.000000 1.000000
  9 -26.773347 -1.827845 0.901578 -0.314409 -0.503391 -0.804826 0.000000 1.000000
  9 -26.899500 -1.740751 0.901147 -0.215798 -0.974637 0.059271 0.000000 1.000000
GLOVED_knuckle.bmp
  9 -26.773347 -1.827845 0.901578 -0.314409 -0.503391 -0.804826 0.000000 1.000000
  9 -26.037867 -1.271557 1.056536 0.164122 0.262468 0.950881 0.000000 1.000000
  9 -26.899500 -1.740751 0.901147 -0.215798 -0.974637 0.059271 0.000000 1.000000
GLOVED_knuckle.bmp
  9 -26.899500 -1.740751 0.901147 -0.215798 -0.974637 0.059271 0.000000 1.000000
  9 -26.037867 -1.271557 1.056536 0.164122 0.262468 0.950881 0.000000 1.000000
  9 -26.171133 -1.191314 1.057673 0.245871 0.505917 0.826799 0.000000 1.000000
GLOVED_knuckle.bmp
  12 -26.632519 -1.052641 -0.232653 0.061421 0.504073 0.861474 0.000000 1.000000
  12 -26.691667 -0.981440 -0.662109 0.046710 0.667693 -0.742970 0.000000 1.000000
  12 -26.703104 -1.066072 -0.253566 -0.509482 0.704412 0.494198 0.000000 1.000000
GLOVED_knuckle.bmp
  12 -26.703104 -1.066072 -0.253566 -0.509482 0.704412 0.494198 0.000000 1.000000
  12 -26.691667 -0.981440 -0.662109 0.046710 0.667693 -0.742970 0.000000 1.000000
  12 -26.755315 -1.002146 -0.673075 -0.277552 0.482845 -0.830557 0.000000 1.000000
GLOVED_knuckle.bmp
  12 -26.691667 -0.981440 -0.662109 0.046710 0.667693 -0.742970 0.000000 1.000000
  12 -27.163755 -1.759201 -0.529742 0.022510 -0.998487 0.050179 0.000000 1.000000
  12 -26.755315 -1.002146 -0.673075 -0.277552 0.482845 -0.830557 0.000000 1.000000
GLOVED_knuckle.bmp
  12 -26.755315 -1.002146 -0.673075 -0.277552 0.482845 -0.830557 0.000000 1.000000
  12 -27.163755 -1.759201 -0.529742 0.022510 -0.998487 0.050179 0.000000 1.000000
  12 -27.227306 -1.779739 -0.550707 -0.583742 -0.196315 0.787848 0.000000 1.000000
GLOVED_knuckle.bmp
  12 -27.163755 -1.759201 -0.529742 0.022510 -0.998487 0.050179 0.000000 1.000000
  12 -26.632519 -1.052641 -0.232653 0.061421 0.504073 0.861474 0.000000 1.000000
  12 -27.227306 -1.779739 -0.550707 -0.583742 -0.196315 0.787848 0.000000 1.000000
GLOVED_knuckle.bmp
  12 -27.227306 -1.779739 -0.550707 -0.583742 -0.196315 0.787848 0.000000 1.000000
  12 -26.632519 -1.052641 -0.232653 0.061421 0.504073 0.861474 0.000000 1.000000
  12 -26.703104 -1.066072 -0.253566 -0.509482 0.704412 0.494198 0.000000 1.000000
GLOVED_knuckle.bmp
  12 -26.505681 -1.138151 -0.232864 0.095817 0.153649 0.983469 0.000000 1.000000
  12 -26.557722 -1.059917 -0.662132 0.482741 0.772300 -0.412934 0.000000 1.000000
  12 -26.632519 -1.052641 -0.232653 0.061421 0.504073 0.861474 0.000000 1.000000
GLOVED_knuckle.bmp
  12 -26.632519 -1.052641 -0.232653 0.061421 0.504073 0.861474 0.000000 1.000000
  12 -26.557722 -1.059917 -0.662132 0.482741 0.772300 -0.412934 0.000000 1.000000
  12 -26.691667 -0.981440 -0.662109 0.046710 0.667693 -0.742970 0.000000 1.000000
GLOVED_knuckle.bmp
  12 -26.557722 -1.059917 -0.662132 0.482741 0.772300 -0.412934 0.000000 1.000000
  12 -27.036917 -1.844711 -0.529953 -0.259846 -0.415708 -0.871589 0.000000 1.000000
  12 -26.691667 -0.981440 -0.662109 0.046710 0.667693 -0.742970 0.000000 1.000000
GLOVED_knuckle.bmp
  12 -26.691667 -0.981440 -0.662109 0.046710 0.667693 -0.742970 0.000000 1.000000
  12 -27.036917 -1.844711 -0.529953 -0.259846 -0.415708 -0.871589 0.000000 1.000000
  12 -27.163755 -1.759201 -0.529742 0.022510 -0.998487 0.050179 0.000000 1.000000
GLOVED_knuckle.bmp
  12 -27.036917 -1.844711 -0.529953 -0.259846 -0.415708 -0.871589 0.000000 1.000000
  12 -26.505681 -1.138151 -0.232864 0.095817 0.153649 0.983469 0.000000 1.000000
  12 -27.163755 -1.759201 -0.529742 0.022510 -0.998487 0.050179 0.000000 1.000000
GLOVED_knuckle.bmp
  12 -27.163755 -1.759201 -0.529742 0.022510 -0.998487 0.050179 0.000000 1.000000
  12 -26.505681 -1.138151 -0.232864 0.095817 0.153649 0.983469 0.000000 1.000000
  12 -26.632519 -1.052641 -0.232653 0.061421 0.504073 0.861474 0.000000 1.000000
GLOVED_knuckle.bmp
  15 -26.357543 -0.989018 -1.510075 0.072222 0.535437 0.841481 0.000000 1.000000
  15 -26.404912 -0.928044 -1.923643 0.061780 0.647236 -0.759782 0.000000 1.000000
  15 -26.426485 -1.002631 -1.529090 -0.470804 0.747075 0.469278 0.000000 1.000000
GLOVED_knuckle.bmp
  15 -26.426485 -1.002631 -1.529090 -0.470804 0.747075 0.469278 0.000000 1.000000
  15 -26.404912 -0.928044 -1.923643 0.061780 0.647236 -0.759782 0.000000 1.000000
  15 -26.473855 -0.941657 -1.942658 -0.253357 0.467750 -0.846771 0.000000 1.000000
GLOVED_knuckle.bmp
  15 -26.404912 -0.928044 -1.923643 0.061780 0.647236 -0.759782 0.000000 1.000000
  15 -26.919861 -1.683242 -1.782563 -0.003108 -0.996641 0.081838 0.000000 1.000000
  15 -26.473855 -0.941657 -1.942658 -0.253357 0.467750 -0.846771 0.000000 1.000000
GLOVED_knuckle.bmp
  15 -26.473855 -0.941657 -1.942658 -0.253357 0.467750 -0.846771 0.000000 1.000000
  15 -26.919861 -1.683242 -1.782563 -0.003108 -0.996641 0.081838 0.000000 1.000000
  15 -26.988804 -1.696855 -1.801579 -0.592350 -0.137265 0.793902 0.000000 1.000000
GLOVED_knuckle.bmp
  15 -26.919861 -1.683242 -1.782563 -0.003108 -0.996641 0.081838 0.000000 1.000000
  15 -26.357543 -0.989018 -1.510075 0.072222 0.535437 0.841481 0.000000 1.000000
  15 -26.988804 -1.696855 -1.801579 -0.592350 -0.137265 0.793902 0.000000 1.000000
GLOVED_knuckle.bmp
  15 -26.988804 -1.696855 -1.801579 -0.592350 -0.137265 0.793902 0.000000 1.000000
  15 -26.357543 -0.989018 -1.510075 0.072222 0.535437 0.841481 0.000000 1.000000
  15 -26.426485 -1.002631 -1.529090 -0.470804 0.747075 0.469278 0.000000 1.000000
GLOVED_knuckle.bmp
  15 -26.228402 -1.071509 -1.514299 0.109448 0.175142 0.978441 0.000000 1.000000
  15 -26.275771 -1.010535 -1.927867 0.477840 0.764362 -0.432919 0.000000 1.000000
  15 -26.357543 -0.989018 -1.510075 0.072222 0.535437 0.841481 0.000000 1.000000
GLOVED_knuckle.bmp
  15 -26.357543 -0.989018 -1.510075 0.072222 0.535437 0.841481 0.000000 1.000000
  15 -26.275771 -1.010535 -1.927867 0.477840 0.764362 -0.432919 0.000000 1.000000
  15 -26.404912 -0.928044 -1.923643 0.061780 0.647236 -0.759782 0.000000 1.000000
GLOVED_knuckle.bmp
  15 -26.275771 -1.010535 -1.927867 0.477840 0.764362 -0.432919 0.000000 1.000000
  15 -26.790720 -1.765733 -1.786788 -0.274260 -0.438978 -0.855617 0.000000 1.000000
  15 -26.404912 -0.928044 -1.923643 0.061780 0.647236 -0.759782 0.000000 1.000000
GLOVED_knuckle.bmp
  15 -26.404912 -0.928044 -1.923643 0.061780 0.647236 -0.759782 0.000000 1.000000
  15 -26.790720 -1.765733 -1.786788 -0.274260 -0.438978 -0.855617 0.000000 1.000000
  15 -26.919861 -1.683242 -1.782563 -0.003108 -0.996641 0.081838 0.000000 1.000000
GLOVED_knuckle.bmp
  15 -26.790720 -1.765733 -1.786788 -0.274260 -0.438978 -0.855617 0.000000 1.000000
  15 -26.228402 -1.071509 -1.514299 0.109448 0.175142 0.978441 0.000000 1.000000
  15 -26.919861 -1.683242 -1.782563 -0.003108 -0.996641 0.081838 0.000000 1.000000
GLOVED_knuckle.bmp
  15 -26.919861 -1.683242 -1.782563 -0.003108 -0.996641 0.081838 0.000000 1.000000
  15 -26.228402 -1.071509 -1.514299 0.109448 0.175142 0.978441 0.000000 1.000000
  15 -26.357543 -0.989018 -1.510075 0.072222 0.535437 0.841481 0.000000 1.000000
GLOVED_knuckle.bmp
  18 -25.446790 -0.347158 -2.547749 -0.115169 0.634318 0.764445 0.000000 1.000000
  18 -25.347934 -0.366141 -2.957343 0.149999 0.603587 -0.783060 0.000000 1.000000
  18 -25.503469 -0.362471 -2.585866 -0.576795 0.803209 0.148873 0.000000 1.000000
GLOVED_knuckle.bmp
  18 -25.503469 -0.362471 -2.585866 -0.576795 0.803209 0.148873 0.000000 1.000000
  18 -25.347934 -0.366141 -2.957343 0.149999 0.603587 -0.783060 0.000000 1.000000
  18 -25.404614 -0.381455 -2.995460 0.064893 0.310895 -0.948226 0.000000 1.000000
GLOVED_knuckle.bmp
  18 -25.347934 -0.366141 -2.957343 0.149999 0.603587 -0.783060 0.000000 1.000000
  18 -25.909570 -1.083563 -2.883371 0.100391 -0.965308 0.241043 0.000000 1.000000
  18 -25.404614 -0.381455 -2.995460 0.064893 0.310895 -0.948226 0.000000 1.000000
GLOVED_knuckle.bmp
  18 -25.404614 -0.381455 -2.995460 0.064893 0.310895 -0.948226 0.000000 1.000000
  18 -25.909570 -1.083563 -2.883371 0.100391 -0.965308 0.241043 0.000000 1.000000
  18 -25.968613 -1.100783 -2.911960 -0.830707 -0.016326 0.556471 0.000000 1.000000
GLOVED_knuckle.bmp
  18 -25.909570 -1.083563 -2.883371 0.100391 -0.965308 0.241043 0.000000 1.000000
  18 -25.446790 -0.347158 -2.547749 -0.115169 0.634318 0.764445 0.000000 1.000000
  18 -25.968613 -1.100783 -2.911960 -0.830707 -0.016326 0.556471 0.000000 1.000000
GLOVED_knuckle.bmp
  18 -25.968613 -1.100783 -2.911960 -0.830707 -0.016326 0.556471 0.000000 1.000000
  18 -25.446790 -0.347158 -2.547749 -0.115169 0.634318 0.764445 0.000000 1.000000
  18 -25.503469 -0.362471 -2.585866 -0.576795 0.803209 0.148873 0.000000 1.000000
GLOVED_knuckle.bmp
  18 -25.310019 -0.423241 -2.550032 0.078514 0.125403 0.988994 0.000000 1.000000
  18 -25.217895 -0.448976 -2.962647 0.487293 0.779493 -0.393620 0.000000 1.000000
  18 -25.446790 -0.347158 -2.547749 -0.115169 0.634318 0.764445 0.000000 1.000000
GLOVED_knuckle.bmp
  18 -25.446790 -0.347158 -2.547749 -0.115169 0.634318 0.764445 0.000000 1.000000
  18 -25.217895 -0.448976 -2.962647 0.487293 0.779493 -0.393620 0.000000 1.000000
  18 -25.347934 -0.366141 -2.957343 0.149999 0.603587 -0.783060 0.000000 1.000000
GLOVED_knuckle.bmp
  18 -25.217895 -0.448976 -2.962647 0.487293 0.779493 -0.393620 0.000000 1.000000
  18 -25.781894 -1.168304 -2.879147 -0.241714 -0.386534 -0.890037 0.000000 1.000000
  18 -25.347934 -0.366141 -2.957343 0.149999 0.603587 -0.783060 0.000000 1.000000
GLOVED_knuckle.bmp
  18 -25.347934 -0.366141 -2.957343 0.149999 0.603587 -0.783060 0.000000 1.000000
  18 -25.781894 -1.168304 -2.879147 -0.241714 -0.386534 -0.890037 0.000000 1.000000
  18 -25.909570 -1.083563 -2.883371 0.100391 -0.965308 0.241043 0.000000 1.000000
GLOVED_knuckle.bmp
  18 -25.781894 -1.168304 -2.879147 -0.241714 -0.386534 -0.890037 0.000000 1.000000
  18 -25.310019 -0.423241 -2.550032 0.078514 0.125403 0.988994 0.000000 1.000000
  18 -25.909570 -1.083563 -2.883371 0.100391 -0.965308 0.241043 0.000000 1.000000
GLOVED_knuckle.bmp
  18 -25.909570 -1.083563 -2.883371 0.100391 -0.965308 0.241043 0.000000 1.000000
  18 -25.310019 -0.423241 -2.550032 0.078514 0.125403 0.988994 0.000000 1.000000
  18 -25.446790 -0.347158 -2.547749 -0.115169 0.634318 0.764445 0.000000 1.000000
GLOVED_knuckle.bmp
  7 -26.021739 -0.588020 0.539094 -0.708210 -0.580728 -0.401490 0.000000 1.000000
  7 -25.872043 -0.682194 0.921877 -0.180831 -0.165223 0.969537 0.000000 1.000000
  7 -25.902841 -0.616246 0.920364 -0.786838 -0.077438 0.612282 0.000000 1.000000
GLOVED_knuckle.bmp
  7 -25.902841 -0.616246 0.920364 -0.786838 -0.077438 0.612282 0.000000 1.000000
  7 -25.872043 -0.682194 0.921877 -0.180831 -0.165223 0.969537 0.000000 1.000000
  7 -25.623136 0.276774 0.774144 -0.028375 0.411255 0.911079 0.000000 1.000000
GLOVED_knuckle.bmp
  7 -25.872043 -0.682194 0.921877 -0.180831 -0.165223 0.969537 0.000000 1.000000
  7 -25.599791 0.204348 0.777239 0.519546 0.370623 -0.769877 0.000000 1.000000
  7 -25.623136 0.276774 0.774144 -0.028375 0.411255 0.911079 0.000000 1.000000
GLOVED_knuckle.bmp
  7 -25.623136 0.276774 0.774144 -0.028375 0.411255 0.911079 0.000000 1.000000
  7 -25.599791 0.204348 0.777239 0.519546 0.370623 -0.769877 0.000000 1.000000
  7 -26.043733 -0.514737 0.545871 -0.670918 0.139894 -0.728216 0.000000 1.000000
GLOVED_knuckle.bmp
  7 -25.599791 0.204348 0.777239 0.519546 0.370623 -0.769877 0.000000 1.000000
  7 -26.021739 -0.588020 0.539094 -0.708210 -0.580728 -0.401490 0.000000 1.000000
  7 -26.043733 -0.514737 0.545871 -0.670918 0.139894 -0.728216 0.000000 1.000000
GLOVED_knuckle.bmp
  7 -26.043733 -0.514737 0.545871 -0.670918 0.139894 -0.728216 0.000000 1.000000
  7 -26.021739 -0.588020 0.539094 -0.708210 -0.580728 -0.401490 0.000000 1.000000
  7 -25.902841 -0.616246 0.920364 -0.786838 -0.077438 0.612282 0.000000 1.000000
GLOVED_knuckle.bmp
  7 -25.892639 -0.674815 0.539096 -0.131753 -0.202846 -0.970307 0.000000 1.000000
  7 -25.742944 -0.768989 0.921879 -0.479485 -0.738376 0.474231 0.000000 1.000000
  7 -26.021739 -0.588020 0.539094 -0.708210 -0.580728 -0.401490 0.000000 1.000000
GLOVED_knuckle.bmp
  7 -26.021739 -0.588020 0.539094 -0.708210 -0.580728 -0.401490 0.000000 1.000000
  7 -25.742944 -0.768989 0.921879 -0.479485 -0.738376 0.474231 0.000000 1.000000
  7 -25.872043 -0.682194 0.921877 -0.180831 -0.165223 0.969537 0.000000 1.000000
GLOVED_knuckle.bmp
  7 -25.742944 -0.768989 0.921879 -0.479485 -0.738376 0.474231 0.000000 1.000000
  7 -25.470691 0.117554 0.777240 0.277283 0.426960 0.860709 0.000000 1.000000
  7 -25.872043 -0.682194 0.921877 -0.180831 -0.165223 0.969537 0.000000 1.000000
GLOVED_knuckle.bmp
  7 -25.872043 -0.682194 0.921877 -0.180831 -0.165223 0.969537 0.000000 1.000000
  7 -25.470691 0.117554 0.777240 0.277283 0.426960 0.860709 0.000000 1.000000
  7 -25.599791 0.204348 0.777239 0.519546 0.370623 -0.769877 0.000000 1.000000
GLOVED_knuckle.bmp
  7 -25.470691 0.117554 0.777240 0.277283 0.426960 0.860709 0.000000 1.000000
  7 -25.892639 -0.674815 0.539096 -0.131753 -0.202846 -0.970307 0.000000 1.000000
  7 -25.599791 0.204348 0.777239 0.519546 0.370623 -0.769877 0.000000 1.000000
GLOVED_knuckle.bmp
  7 -25.599791 0.204348 0.777239 0.519546 0.370623 -0.769877 0.000000 1.000000
  7 -25.892639 -0.674815 0.539096 -0.131753 -0.202846 -0.970307 0.000000 1.000000
  7 -26.021739 -0.588020 0.539094 -0.708210 -0.580728 -0.401490 0.000000 1.000000
GLOVED_knuckle.bmp
  10 -26.290388 -0.534216 -0.790722 -0.635374 -0.505828 -0.583470 0.000000 1.000000
  10 -26.257410 -0.642141 -0.392144 -0.441620 -0.141029 0.886049 0.000000 1.000000
  10 -26.281715 -0.569972 -0.391165 -0.922104 0.007401 0.386871 0.000000 1.000000
GLOVED_knuckle.bmp
  10 -26.281715 -0.569972 -0.391165 -0.922104 0.007401 0.386871 0.000000 1.000000
  10 -26.257410 -0.642141 -0.392144 -0.441620 -0.141029 0.886049 0.000000 1.000000
  10 -25.886623 0.280306 -0.453043 -0.221680 0.415940 0.881959 0.000000 1.000000
GLOVED_knuckle.bmp
  10 -26.257410 -0.642141 -0.392144 -0.441620 -0.141029 0.886049 0.000000 1.000000
  10 -25.869081 0.215423 -0.443964 0.735883 0.311249 -0.601332 0.000000 1.000000
  10 -25.886623 0.280306 -0.453043 -0.221680 0.415940 0.881959 0.000000 1.000000
GLOVED_knuckle.bmp
  10 -25.886623 0.280306 -0.453043 -0.221680 0.415940 0.881959 0.000000 1.000000
  10 -25.869081 0.215423 -0.443964 0.735883 0.311249 -0.601332 0.000000 1.000000
  10 -26.307930 -0.469333 -0.799802 -0.441663 0.205210 -0.873397 0.000000 1.000000
GLOVED_knuckle.bmp
  10 -25.869081 0.215423 -0.443964 0.735883 0.311249 -0.601332 0.000000 1.000000
  10 -26.290388 -0.534216 -0.790722 -0.635374 -0.505828 -0.583470 0.000000 1.000000
  10 -26.307930 -0.469333 -0.799802 -0.441663 0.205210 -0.873397 0.000000 1.000000
GLOVED_knuckle.bmp
  10 -26.307930 -0.469333 -0.799802 -0.441663 0.205210 -0.873397 0.000000 1.000000
  10 -26.290388 -0.534216 -0.790722 -0.635374 -0.505828 -0.583470 0.000000 1.000000
  10 -26.281715 -0.569972 -0.391165 -0.922104 0.007401 0.386871 0.000000 1.000000
GLOVED_knuckle.bmp
  10 -26.175777 -0.633195 -0.761273 0.103856 -0.192348 -0.975816 0.000000 1.000000
  10 -26.142895 -0.741288 -0.352697 -0.658407 -0.682291 0.317773 0.000000 1.000000
  10 -26.290388 -0.534216 -0.790722 -0.635374 -0.505828 -0.583470 0.000000 1.000000
GLOVED_knuckle.bmp
  10 -26.290388 -0.534216 -0.790722 -0.635374 -0.505828 -0.583470 0.000000 1.000000
  10 -26.142895 -0.741288 -0.352697 -0.658407 -0.682291 0.317773 0.000000 1.000000
  10 -26.257410 -0.642141 -0.392144 -0.441620 -0.141029 0.886049 0.000000 1.000000
GLOVED_knuckle.bmp
  10 -26.142895 -0.741288 -0.352697 -0.658407 -0.682291 0.317773 0.000000 1.000000
  10 -25.754469 0.116444 -0.414514 0.086955 0.399707 0.912509 0.000000 1.000000
  10 -26.257410 -0.642141 -0.392144 -0.441620 -0.141029 0.886049 0.000000 1.000000
GLOVED_knuckle.bmp
  10 -26.257410 -0.642141 -0.392144 -0.441620 -0.141029 0.886049 0.000000 1.000000
  10 -25.754469 0.116444 -0.414514 0.086955 0.399707 0.912509 0.000000 1.000000
  10 -25.869081 0.215423 -0.443964 0.735883 0.311249 -0.601332 0.000000 1.000000
GLOVED_knuckle.bmp
  10 -25.754469 0.116444 -0.414514 0.086955 0.399707 0.912509 0.000000 1.000000
  10 -26.175777 -0.633195 -0.761273 0.103856 -0.192348 -0.975816 0.000000 1.000000
  10 -25.869081 0.215423 -0.443964 0.735883 0.311249 -0.601332 0.000000 1.000000
GLOVED_knuckle.bmp
  10 -25.869081 0.215423 -0.443964 0.735883 0.311249 -0.601332 0.000000 1.000000
  10 -26.175777 -0.633195 -0.761273 0.103856 -0.192348 -0.975816 0.000000 1.000000
  10 -26.290388 -0.534216 -0.790722 -0.635374 -0.505828 -0.583470 0.000000 1.000000
GLOVED_knuckle.bmp
  13 -26.004655 -0.436004 -1.840745 -0.660308 -0.584091 -0.472049 0.000000 1.000000
  13 -25.957025 -0.459403 -1.423392 -0.270596 -0.007050 0.962667 0.000000 1.000000
  13 -25.973901 -0.393248 -1.438842 -0.898883 0.159017 0.408318 0.000000 1.000000
GLOVED_knuckle.bmp
  13 -25.973901 -0.393248 -1.438842 -0.898883 0.159017 0.408318 0.000000 1.000000
  13 -25.957025 -0.459403 -1.423392 -0.270596 -0.007050 0.962667 0.000000 1.000000
  13 -25.523386 0.406032 -1.673548 -0.147980 0.604018 0.783112 0.000000 1.000000
GLOVED_knuckle.bmp
  13 -25.957025 -0.459403 -1.423392 -0.270596 -0.007050 0.962667 0.000000 1.000000
  13 -25.513762 0.333150 -1.659564 0.612635 0.249828 -0.749843 0.000000 1.000000
  13 -25.523386 0.406032 -1.673548 -0.147980 0.604018 0.783112 0.000000 1.000000
GLOVED_knuckle.bmp
  13 -25.523386 0.406032 -1.673548 -0.147980 0.604018 0.783112 0.000000 1.000000
  13 -25.513762 0.333150 -1.659564 0.612635 0.249828 -0.749843 0.000000 1.000000
  13 -26.021530 -0.369849 -1.856196 -0.469387 0.056164 -0.881205 0.000000 1.000000
GLOVED_knuckle.bmp
  13 -25.513762 0.333150 -1.659564 0.612635 0.249828 -0.749843 0.000000 1.000000
  13 -26.004655 -0.436004 -1.840745 -0.660308 -0.584091 -0.472049 0.000000 1.000000
  13 -26.021530 -0.369849 -1.856196 -0.469387 0.056164 -0.881205 0.000000 1.000000
GLOVED_knuckle.bmp
  13 -26.021530 -0.369849 -1.856196 -0.469387 0.056164 -0.881205 0.000000 1.000000
  13 -26.004655 -0.436004 -1.840745 -0.660308 -0.584091 -0.472049 0.000000 1.000000
  13 -25.973901 -0.393248 -1.438842 -0.898883 0.159017 0.408318 0.000000 1.000000
GLOVED_knuckle.bmp
  13 -25.866400 -0.512356 -1.833249 -0.139301 -0.262072 -0.954942 0.000000 1.000000
  13 -25.825571 -0.528422 -1.415907 -0.410520 -0.772035 0.485217 0.000000 1.000000
  13 -26.004655 -0.436004 -1.840745 -0.660308 -0.584091 -0.472049 0.000000 1.000000
GLOVED_knuckle.bmp
  13 -26.004655 -0.436004 -1.840745 -0.660308 -0.584091 -0.472049 0.000000 1.000000
  13 -25.825571 -0.528422 -1.415907 -0.410520 -0.772035 0.485217 0.000000 1.000000
  13 -25.957025 -0.459403 -1.423392 -0.270596 -0.007050 0.962667 0.000000 1.000000
GLOVED_knuckle.bmp
  13 -25.825571 -0.528422 -1.415907 -0.410520 -0.772035 0.485217 0.000000 1.000000
  13 -25.374425 0.257787 -1.661960 0.283330 0.532402 0.797667 0.000000 1.000000
  13 -25.957025 -0.459403 -1.423392 -0.270596 -0.007050 0.962667 0.000000 1.000000
GLOVED_knuckle.bmp
  13 -25.957025 -0.459403 -1.423392 -0.270596 -0.007050 0.962667 0.000000 1.000000
  13 -25.374425 0.257787 -1.661960 0.283330 0.532402 0.797667 0.000000 1.000000
  13 -25.513762 0.333150 -1.659564 0.612635 0.249828 -0.749843 0.000000 1.000000
GLOVED_knuckle.bmp
  13 -25.374425 0.257787 -1.661960 0.283330 0.532402 0.797667 0.000000 1.000000
  13 -25.866400 -0.512356 -1.833249 -0.139301 -0.262072 -0.954942 0.000000 1.000000
  13 -25.513762 0.333150 -1.659564 0.612635 0.249828 -0.749843 0.000000 1.000000
GLOVED_knuckle.bmp
  13 -25.513762 0.333150 -1.659564 0.612635 0.249828 -0.749843 0.000000 1.000000
  13 -25.866400 -0.512356 -1.833249 -0.139301 -0.262072 -0.954942 0.000000 1.000000
  13 -26.004655 -0.436004 -1.840745 -0.660308 -0.584091 -0.472049 0.000000 1.000000
GLOVED_knuckle.bmp
  16 -24.977187 0.011648 -2.915722 -0.422968 -0.486247 -0.764632 0.000000 1.000000
  16 -25.158039 -0.034278 -2.528962 -0.581994 -0.176574 0.793791 0.000000 1.000000
  16 -25.155938 0.034263 -2.546214 -0.988911 0.118844 -0.089058 0.000000 1.000000
GLOVED_knuckle.bmp
  16 -25.155938 0.034263 -2.546214 -0.988911 0.118844 -0.089058 0.000000 1.000000
  16 -25.158039 -0.034278 -2.528962 -0.581994 -0.176574 0.793791 0.000000 1.000000
  16 -24.679061 0.849668 -2.506157 -0.544375 0.559065 0.625382 0.000000 1.000000
GLOVED_knuckle.bmp
  16 -25.158039 -0.034278 -2.528962 -0.581994 -0.176574 0.793791 0.000000 1.000000
  16 -24.681162 0.781126 -2.488905 0.811768 0.414199 -0.411670 0.000000 1.000000
  16 -24.679061 0.849668 -2.506157 -0.544375 0.559065 0.625382 0.000000 1.000000
GLOVED_knuckle.bmp
  16 -24.679061 0.849668 -2.506157 -0.544375 0.559065 0.625382 0.000000 1.000000
  16 -24.681162 0.781126 -2.488905 0.811768 0.414199 -0.411670 0.000000 1.000000
  16 -24.988821 0.081266 -2.936166 0.028725 0.092697 -0.995280 0.000000 1.000000
GLOVED_knuckle.bmp
  16 -24.681162 0.781126 -2.488905 0.811768 0.414199 -0.411670 0.000000 1.000000
  16 -24.977187 0.011648 -2.915722 -0.422968 -0.486247 -0.764632 0.000000 1.000000
  16 -24.988821 0.081266 -2.936166 0.028725 0.092697 -0.995280 0.000000 1.000000
GLOVED_knuckle.bmp
  16 -24.988821 0.081266 -2.936166 0.028725 0.092697 -0.995280 0.000000 1.000000
  16 -24.977187 0.011648 -2.915722 -0.422968 -0.486247 -0.764632 0.000000 1.000000
  16 -25.155938 0.034263 -2.546214 -0.988911 0.118844 -0.089058 0.000000 1.000000
GLOVED_knuckle.bmp
  16 -24.843853 -0.057051 -2.917380 -0.007482 -0.016118 -0.999842 0.000000 1.000000
  16 -25.017629 -0.096595 -2.527588 -0.412393 -0.884334 0.218827 0.000000 1.000000
  16 -24.977187 0.011648 -2.915722 -0.422968 -0.486247 -0.764632 0.000000 1.000000
GLOVED_knuckle.bmp
  16 -24.977187 0.011648 -2.915722 -0.422968 -0.486247 -0.764632 0.000000 1.000000
  16 -25.017629 -0.096595 -2.527588 -0.412393 -0.884334 0.218827 0.000000 1.000000
  16 -25.158039 -0.034278 -2.528962 -0.581994 -0.176574 0.793791 0.000000 1.000000
GLOVED_knuckle.bmp
  16 -25.017629 -0.096595 -2.527588 -0.412393 -0.884334 0.218827 0.000000 1.000000
  16 -24.540753 0.718809 -2.487531 0.136950 0.293569 0.946077 0.000000 1.000000
  16 -25.158039 -0.034278 -2.528962 -0.581994 -0.176574 0.793791 0.000000 1.000000
GLOVED_knuckle.bmp
  16 -25.158039 -0.034278 -2.528962 -0.581994 -0.176574 0.793791 0.000000 1.000000
  16 -24.540753 0.718809 -2.487531 0.136950 0.293569 0.946077 0.000000 1.000000
  16 -24.681162 0.781126 -2.488905 0.811768 0.414199 -0.411670 0.000000 1.000000
GLOVED_knuckle.bmp
  16 -24.540753 0.718809 -2.487531 0.136950 0.293569 0.946077 0.000000 1.000000
  16 -24.843853 -0.057051 -2.917380 -0.007482 -0.016118 -0.999842 0.000000 1.000000
  16 -24.681162 0.781126 -2.488905 0.811768 0.414199 -0.411670 0.000000 1.000000
GLOVED_knuckle.bmp
  16 -24.681162 0.781126 -2.488905 0.811768 0.414199 -0.411670 0.000000 1.000000
  16 -24.843853 -0.057051 -2.917380 -0.007482 -0.016118 -0.999842 0.000000 1.000000
  16 -24.977187 0.011648 -2.915722 -0.422968 -0.486247 -0.764632 0.000000 1.000000
GLOVED_knuckle.bmp
  6 -23.432465 -0.596130 2.031089 0.992016 -0.096624 0.081046 0.000000 1.000000
  6 -23.713027 -0.309704 2.159717 -0.190371 0.975491 0.110347 0.000000 1.000000
  6 -23.455875 -0.616213 2.094718 0.817623 0.116935 0.563754 0.000000 1.000000
GLOVED_knuckle.bmp
  6 -23.455875 -0.616213 2.094718 0.817623 0.116935 0.563754 0.000000 1.000000
  6 -23.713027 -0.309704 2.159717 -0.190371 0.975491 0.110347 0.000000 1.000000
  6 -23.736437 -0.329787 2.223346 -0.361317 0.796652 0.484557 0.000000 1.000000
GLOVED_knuckle.bmp
  6 -23.713027 -0.309704 2.159717 -0.190371 0.975491 0.110347 0.000000 1.000000
  6 -24.113410 -1.095062 2.456039 -0.562710 -0.801527 -0.202265 0.000000 1.000000
  6 -23.736437 -0.329787 2.223346 -0.361317 0.796652 0.484557 0.000000 1.000000
GLOVED_knuckle.bmp
  6 -23.736437 -0.329787 2.223346 -0.361317 0.796652 0.484557 0.000000 1.000000
  6 -24.113410 -1.095062 2.456039 -0.562710 -0.801527 -0.202265 0.000000 1.000000
  6 -24.136819 -1.115145 2.519667 0.495097 -0.764023 0.413700 0.000000 1.000000
GLOVED_knuckle.bmp
  6 -24.113410 -1.095062 2.456039 -0.562710 -0.801527 -0.202265 0.000000 1.000000
  6 -23.432465 -0.596130 2.031089 0.992016 -0.096624 0.081046 0.000000 1.000000
  6 -24.136819 -1.115145 2.519667 0.495097 -0.764023 0.413700 0.000000 1.000000
GLOVED_knuckle.bmp
  6 -24.136819 -1.115145 2.519667 0.495097 -0.764023 0.413700 0.000000 1.000000
  6 -23.432465 -0.596130 2.031089 0.992016 -0.096624 0.081046 0.000000 1.000000
  6 -23.455875 -0.616213 2.094718 0.817623 0.116935 0.563754 0.000000 1.000000
GLOVED_knuckle.bmp
  6 -23.436458 -0.621931 1.880032 0.925106 -0.373570 0.068007 0.000000 1.000000
  6 -23.717020 -0.335504 2.008659 0.230098 0.959114 -0.164791 0.000000 1.000000
  6 -23.432465 -0.596130 2.031089 0.992016 -0.096624 0.081046 0.000000 1.000000
GLOVED_knuckle.bmp
  6 -23.432465 -0.596130 2.031089 0.992016 -0.096624 0.081046 0.000000 1.000000
  6 -23.717020 -0.335504 2.008659 0.230098 0.959114 -0.164791 0.000000 1.000000
  6 -23.713027 -0.309704 2.159717 -0.190371 0.975491 0.110347 0.000000 1.000000
GLOVED_knuckle.bmp
  6 -23.717020 -0.335504 2.008659 0.230098 0.959114 -0.164791 0.000000 1.000000
  6 -24.117402 -1.120863 2.304981 -0.997629 0.067037 -0.015585 0.000000 1.000000
  6 -23.713027 -0.309704 2.159717 -0.190371 0.975491 0.110347 0.000000 1.000000
GLOVED_knuckle.bmp
  6 -23.713027 -0.309704 2.159717 -0.190371 0.975491 0.110347 0.000000 1.000000
  6 -24.117402 -1.120863 2.304981 -0.997629 0.067037 -0.015585 0.000000 1.000000
  6 -24.113410 -1.095062 2.456039 -0.562710 -0.801527 -0.202265 0.000000 1.000000
GLOVED_knuckle.bmp
  6 -24.117402 -1.120863 2.304981 -0.997629 0.067037 -0.015585 0.000000 1.000000
  6 -23.436458 -0.621931 1.880032 0.925106 -0.373570 0.068007 0.000000 1.000000
  6 -24.113410 -1.095062 2.456039 -0.562710 -0.801527 -0.202265 0.000000 1.000000
GLOVED_knuckle.bmp
  6 -24.113410 -1.095062 2.456039 -0.562710 -0.801527 -0.202265 0.000000 1.000000
  6 -23.436458 -0.621931 1.880032 0.925106 -0.373570 0.068007 0.000000 1.000000
  6 -23.432465 -0.596130 2.031089 0.992016 -0.096624 0.081046 0.000000 1.000000
GLOVED_knuckle.bmp
  5 -23.334897 -0.094060 2.097562 -0.535759 0.157048 0.829637 0.000000 1.000000
  5 -23.080516 -0.407426 1.948930 0.132275 -0.989529 -0.057748 0.000000 1.000000
  5 -23.269024 -0.079757 2.118922 -0.064389 -0.087603 0.994072 0.000000 1.000000
GLOVED_knuckle.bmp
  5 -23.269024 -0.079757 2.118922 -0.064389 -0.087603 0.994072 0.000000 1.000000
  5 -23.080516 -0.407426 1.948930 0.132275 -0.989529 -0.057748 0.000000 1.000000
  5 -23.014643 -0.393124 1.970290 0.544576 -0.838065 0.032916 0.000000 1.000000
GLOVED_knuckle.bmp
  5 -23.080516 -0.407426 1.948930 0.132275 -0.989529 -0.057748 0.000000 1.000000
  5 -22.558835 0.343463 1.803620 0.243664 0.771238 -0.588064 0.000000 1.000000
  5 -23.014643 -0.393124 1.970290 0.544576 -0.838065 0.032916 0.000000 1.000000
GLOVED_knuckle.bmp
  5 -23.014643 -0.393124 1.970290 0.544576 -0.838065 0.032916 0.000000 1.000000
  5 -22.558835 0.343463 1.803620 0.243664 0.771238 -0.588064 0.000000 1.000000
  5 -22.492962 0.357765 1.824980 0.078988 0.776265 0.625439 0.000000 1.000000
GLOVED_knuckle.bmp
  5 -22.558835 0.343463 1.803620 0.243664 0.771238 -0.588064 0.000000 1.000000
  5 -23.334897 -0.094060 2.097562 -0.535759 0.157048 0.829637 0.000000 1.000000
  5 -22.492962 0.357765 1.824980 0.078988 0.776265 0.625439 0.000000 1.000000
GLOVED_knuckle.bmp
  5 -22.492962 0.357765 1.824980 0.078988 0.776265 0.625439 0.000000 1.000000
  5 -23.334897 -0.094060 2.097562 -0.535759 0.157048 0.829637 0.000000 1.000000
  5 -23.269024 -0.079757 2.118922 -0.064389 -0.087603 0.994072 0.000000 1.000000
GLOVED_knuckle.bmp
  5 -23.455393 -0.063583 1.999318 -0.484973 0.429431 0.761834 0.000000 1.000000
  5 -23.200248 -0.373412 1.860008 -0.340638 -0.934405 0.104177 0.000000 1.000000
  5 -23.334897 -0.094060 2.097562 -0.535759 0.157048 0.829637 0.000000 1.000000
GLOVED_knuckle.bmp
  5 -23.334897 -0.094060 2.097562 -0.535759 0.157048 0.829637 0.000000 1.000000
  5 -23.200248 -0.373412 1.860008 -0.340638 -0.934405 0.104177 0.000000 1.000000
  5 -23.080516 -0.407426 1.948930 0.132275 -0.989529 -0.057748 0.000000 1.000000
GLOVED_knuckle.bmp
  5 -23.200248 -0.373412 1.860008 -0.340638 -0.934405 0.104177 0.000000 1.000000
  5 -22.679331 0.373939 1.705376 0.592892 -0.130630 -0.794616 0.000000 1.000000
  5 -23.080516 -0.407426 1.948930 0.132275 -0.989529 -0.057748 0.000000 1.000000
GLOVED_knuckle.bmp
  5 -23.080516 -0.407426 1.948930 0.132275 -0.989529 -0.057748 0.000000 1.000000
  5 -22.679331 0.373939 1.705376 0.592892 -0.130630 -0.794616 0.000000 1.000000
  5 -22.558835 0.343463 1.803620 0.243664 0.771238 -0.588064 0.000000 1.000000
GLOVED_knuckle.bmp
  5 -22.679331 0.373939 1.705376 0.592892 -0.130630 -0.794616 0.000000 1.000000
  5 -23.455393 -0.063583 1.999318 -0.484973 0.429431 0.761834 0.000000 1.000000
  5 -22.558835 0.343463 1.803620 0.243664 0.771238 -0.588064 0.000000 1.000000
GLOVED_knuckle.bmp
  5 -22.558835 0.343463 1.803620 0.243664 0.771238 -0.588064 0.000000 1.000000
  5 -23.455393 -0.063583 1.999318 -0.484973 0.429431 0.761834 0.000000 1.000000
  5 -23.334897 -0.094060 2.097562 -0.535759 0.157048 0.829637 0.000000 1.000000
GLOVED_knuckle.bmp
  24 28.253692 -0.976521 0.665342 -0.082121 0.651171 -0.754475 0.000000 1.000000
  24 28.110640 -1.078523 1.059844 -0.245870 0.505917 0.826799 0.000000 1.000000
  24 28.182045 -1.077468 1.059394 0.196273 0.765857 0.612323 0.000000 1.000000
GLOVED_knuckle.bmp
  24 28.182045 -1.077468 1.059394 0.196273 0.765857 0.612323 0.000000 1.000000
  24 28.110640 -1.078523 1.059844 -0.245870 0.505917 0.826799 0.000000 1.000000
  24 28.917524 -1.633759 0.904436 0.396137 -0.113549 0.911143 0.000000 1.000000
GLOVED_knuckle.bmp
  24 28.110640 -1.078523 1.059844 -0.245870 0.505917 0.826799 0.000000 1.000000
  24 28.846119 -1.634814 0.904886 0.215797 -0.974638 0.059271 0.000000 1.000000
  24 28.917524 -1.633759 0.904436 0.396137 -0.113549 0.911143 0.000000 1.000000
GLOVED_knuckle.bmp
  24 28.917524 -1.633759 0.904436 0.396137 -0.113549 0.911143 0.000000 1.000000
  24 28.846119 -1.634814 0.904886 0.215797 -0.974638 0.059271 0.000000 1.000000
  24 28.325097 -0.975466 0.664892 0.360506 0.582598 -0.728433 0.000000 1.000000
GLOVED_knuckle.bmp
  24 28.846119 -1.634814 0.904886 0.215797 -0.974638 0.059271 0.000000 1.000000
  24 28.253692 -0.976521 0.665342 -0.082121 0.651171 -0.754475 0.000000 1.000000
  24 28.325097 -0.975466 0.664892 0.360506 0.582598 -0.728433 0.000000 1.000000
GLOVED_knuckle.bmp
  24 28.325097 -0.975466 0.664892 0.360506 0.582598 -0.728433 0.000000 1.000000
  24 28.253692 -0.976521 0.665342 -0.082121 0.651171 -0.754475 0.000000 1.000000
  24 28.182045 -1.077468 1.059394 0.196273 0.765857 0.612323 0.000000 1.000000
GLOVED_knuckle.bmp
  24 28.120426 -1.056764 0.664205 -0.472112 0.755236 -0.454675 0.000000 1.000000
  24 27.984487 -1.165617 1.060275 -0.164120 0.262469 0.950881 0.000000 1.000000
  24 28.110640 -1.078523 1.059844 -0.245870 0.505917 0.826799 0.000000 1.000000
GLOVED_knuckle.bmp
  24 28.110640 -1.078523 1.059844 -0.245870 0.505917 0.826799 0.000000 1.000000
  24 27.984487 -1.165617 1.060275 -0.164120 0.262469 0.950881 0.000000 1.000000
  24 28.846119 -1.634814 0.904886 0.215797 -0.974638 0.059271 0.000000 1.000000
GLOVED_knuckle.bmp
  24 27.984487 -1.165617 1.060275 -0.164120 0.262469 0.950881 0.000000 1.000000
  24 28.719966 -1.721907 0.905317 0.314409 -0.503391 -0.804826 0.000000 1.000000
  24 28.846119 -1.634814 0.904886 0.215797 -0.974638 0.059271 0.000000 1.000000
GLOVED_knuckle.bmp
  24 28.846119 -1.634814 0.904886 0.215797 -0.974638 0.059271 0.000000 1.000000
  24 28.719966 -1.721907 0.905317 0.314409 -0.503391 -0.804826 0.000000 1.000000
  24 28.253692 -0.976521 0.665342 -0.082121 0.651171 -0.754475 0.000000 1.000000
GLOVED_knuckle.bmp
  24 28.719966 -1.721907 0.905317 0.314409 -0.503391 -0.804826 0.000000 1.000000
  24 28.120426 -1.056764 0.664205 -0.472112 0.755236 -0.454675 0.000000 1.000000
  24 28.253692 -0.976521 0.665342 -0.082121 0.651171 -0.754475 0.000000 1.000000
GLOVED_knuckle.bmp
  24 28.253692 -0.976521 0.665342 -0.082121 0.651171 -0.754475 0.000000 1.000000
  24 28.120426 -1.056764 0.664205 -0.472112 0.755236 -0.454675 0.000000 1.000000
  24 28.110640 -1.078523 1.059844 -0.245870 0.505917 0.826799 0.000000 1.000000
GLOVED_knuckle.bmp
  30 28.432802 -0.999661 -1.923752 -0.061781 0.647237 -0.759781 0.000000 1.000000
  30 28.378533 -1.053546 -1.508720 -0.072220 0.535438 0.841481 0.000000 1.000000
  30 28.447475 -1.067159 -1.527736 0.470800 0.747077 0.469280 0.000000 1.000000
GLOVED_knuckle.bmp
  30 28.447475 -1.067159 -1.527736 0.470800 0.747077 0.469280 0.000000 1.000000
  30 28.378533 -1.053546 -1.508720 -0.072220 0.535438 0.841481 0.000000 1.000000
  30 29.016950 -1.754402 -1.800310 0.592345 -0.137269 0.793905 0.000000 1.000000
GLOVED_knuckle.bmp
  30 28.378533 -1.053546 -1.508720 -0.072220 0.535438 0.841481 0.000000 1.000000
  30 28.948007 -1.740788 -1.781294 0.003105 -0.996641 0.081837 0.000000 1.000000
  30 29.016950 -1.754402 -1.800310 0.592345 -0.137269 0.793905 0.000000 1.000000
GLOVED_knuckle.bmp
  30 29.016950 -1.754402 -1.800310 0.592345 -0.137269 0.793905 0.000000 1.000000
  30 28.948007 -1.740788 -1.781294 0.003105 -0.996641 0.081837 0.000000 1.000000
  30 28.487946 -0.999096 -1.939840 0.253350 0.467752 -0.846771 0.000000 1.000000
GLOVED_knuckle.bmp
  30 28.948007 -1.740788 -1.781294 0.003105 -0.996641 0.081837 0.000000 1.000000
  30 28.432802 -0.999661 -1.923752 -0.061781 0.647237 -0.759781 0.000000 1.000000
  30 28.487946 -0.999096 -1.939840 0.253350 0.467752 -0.846771 0.000000 1.000000
GLOVED_knuckle.bmp
  30 28.487946 -0.999096 -1.939840 0.253350 0.467752 -0.846771 0.000000 1.000000
  30 28.432802 -0.999661 -1.923752 -0.061781 0.647237 -0.759781 0.000000 1.000000
  30 28.447475 -1.067159 -1.527736 0.470800 0.747077 0.469280 0.000000 1.000000
GLOVED_knuckle.bmp
  30 28.296761 -1.075063 -1.926512 -0.477836 0.764365 -0.432919 0.000000 1.000000
  30 28.249392 -1.136036 -1.512945 -0.109446 0.175143 0.978441 0.000000 1.000000
  30 28.378533 -1.053546 -1.508720 -0.072220 0.535438 0.841481 0.000000 1.000000
GLOVED_knuckle.bmp
  30 28.378533 -1.053546 -1.508720 -0.072220 0.535438 0.841481 0.000000 1.000000
  30 28.249392 -1.136036 -1.512945 -0.109446 0.175143 0.978441 0.000000 1.000000
  30 28.948007 -1.740788 -1.781294 0.003105 -0.996641 0.081837 0.000000 1.000000
GLOVED_knuckle.bmp
  30 28.249392 -1.136036 -1.512945 -0.109446 0.175143 0.978441 0.000000 1.000000
  30 28.818866 -1.823279 -1.785519 0.274260 -0.438978 -0.855617 0.000000 1.000000
  30 28.948007 -1.740788 -1.781294 0.003105 -0.996641 0.081837 0.000000 1.000000
GLOVED_knuckle.bmp
  30 28.948007 -1.740788 -1.781294 0.003105 -0.996641 0.081837 0.000000 1.000000
  30 28.818866 -1.823279 -1.785519 0.274260 -0.438978 -0.855617 0.000000 1.000000
  30 28.432802 -0.999661 -1.923752 -0.061781 0.647237 -0.759781 0.000000 1.000000
GLOVED_knuckle.bmp
  30 28.818866 -1.823279 -1.785519 0.274260 -0.438978 -0.855617 0.000000 1.000000
  30 28.296761 -1.075063 -1.926512 -0.477836 0.764365 -0.432919 0.000000 1.000000
  30 28.432802 -0.999661 -1.923752 -0.061781 0.647237 -0.759781 0.000000 1.000000
GLOVED_knuckle.bmp
  30 28.432802 -0.999661 -1.923752 -0.061781 0.647237 -0.759781 0.000000 1.000000
  30 28.296761 -1.075063 -1.926512 -0.477836 0.764365 -0.432919 0.000000 1.000000
  30 28.378533 -1.053546 -1.508720 -0.072220 0.535438 0.841481 0.000000 1.000000
GLOVED_knuckle.bmp
  33 27.296086 -0.315123 -2.955265 -0.149994 0.603586 -0.783062 0.000000 1.000000
  33 27.394941 -0.296140 -2.545671 0.115173 0.634318 0.764445 0.000000 1.000000
  33 27.458351 -0.318204 -2.586809 0.576798 0.803207 0.148871 0.000000 1.000000
GLOVED_knuckle.bmp
  33 27.458351 -0.318204 -2.586809 0.576798 0.803207 0.148871 0.000000 1.000000
  33 27.394941 -0.296140 -2.545671 0.115173 0.634318 0.764445 0.000000 1.000000
  33 27.923493 -1.056517 -2.912903 0.830707 -0.016326 0.556471 0.000000 1.000000
GLOVED_knuckle.bmp
  33 27.394941 -0.296140 -2.545671 0.115173 0.634318 0.764445 0.000000 1.000000
  33 27.857719 -1.032546 -2.881293 -0.100390 -0.965308 0.241043 0.000000 1.000000
  33 27.923493 -1.056517 -2.912903 0.830707 -0.016326 0.556471 0.000000 1.000000
GLOVED_knuckle.bmp
  33 27.923493 -1.056517 -2.912903 0.830707 -0.016326 0.556471 0.000000 1.000000
  33 27.857719 -1.032546 -2.881293 -0.100390 -0.965308 0.241043 0.000000 1.000000
  33 27.359496 -0.337187 -2.996403 -0.064893 0.310895 -0.948226 0.000000 1.000000
GLOVED_knuckle.bmp
  33 27.857719 -1.032546 -2.881293 -0.100390 -0.965308 0.241043 0.000000 1.000000
  33 27.296086 -0.315123 -2.955265 -0.149994 0.603586 -0.783062 0.000000 1.000000
  33 27.359496 -0.337187 -2.996403 -0.064893 0.310895 -0.948226 0.000000 1.000000
GLOVED_knuckle.bmp
  33 27.359496 -0.337187 -2.996403 -0.064893 0.310895 -0.948226 0.000000 1.000000
  33 27.296086 -0.315123 -2.955265 -0.149994 0.603586 -0.783062 0.000000 1.000000
  33 27.458351 -0.318204 -2.586809 0.576798 0.803207 0.148871 0.000000 1.000000
GLOVED_knuckle.bmp
  33 27.166046 -0.397957 -2.960569 -0.487293 0.779493 -0.393620 0.000000 1.000000
  33 27.264901 -0.378974 -2.550975 -0.078515 0.125402 0.988994 0.000000 1.000000
  33 27.394941 -0.296140 -2.545671 0.115173 0.634318 0.764445 0.000000 1.000000
GLOVED_knuckle.bmp
  33 27.394941 -0.296140 -2.545671 0.115173 0.634318 0.764445 0.000000 1.000000
  33 27.264901 -0.378974 -2.550975 -0.078515 0.125402 0.988994 0.000000 1.000000
  33 27.857719 -1.032546 -2.881293 -0.100390 -0.965308 0.241043 0.000000 1.000000
GLOVED_knuckle.bmp
  33 27.264901 -0.378974 -2.550975 -0.078515 0.125402 0.988994 0.000000 1.000000
  33 27.730043 -1.117286 -2.877070 0.241713 -0.386535 -0.890037 0.000000 1.000000
  33 27.857719 -1.032546 -2.881293 -0.100390 -0.965308 0.241043 0.000000 1.000000
GLOVED_knuckle.bmp
  33 27.857719 -1.032546 -2.881293 -0.100390 -0.965308 0.241043 0.000000 1.000000
  33 27.730043 -1.117286 -2.877070 0.241713 -0.386535 -0.890037 0.000000 1.000000
  33 27.296086 -0.315123 -2.955265 -0.149994 0.603586 -0.783062 0.000000 1.000000
GLOVED_knuckle.bmp
  33 27.730043 -1.117286 -2.877070 0.241713 -0.386535 -0.890037 0.000000 1.000000
  33 27.166046 -0.397957 -2.960569 -0.487293 0.779493 -0.393620 0.000000 1.000000
  33 27.296086 -0.315123 -2.955265 -0.149994 0.603586 -0.783062 0.000000 1.000000
GLOVED_knuckle.bmp
  33 27.296086 -0.315123 -2.955265 -0.149994 0.603586 -0.783062 0.000000 1.000000
  33 27.166046 -0.397957 -2.960569 -0.487293 0.779493 -0.393620 0.000000 1.000000
  33 27.394941 -0.296140 -2.545671 0.115173 0.634318 0.764445 0.000000 1.000000
GLOVED_knuckle.bmp
  22 27.832133 -0.542247 0.924507 0.180830 -0.165224 0.969537 0.000000 1.000000
  22 27.974376 -0.441596 0.540143 0.708209 -0.580728 -0.401490 0.000000 1.000000
  22 27.855478 -0.469822 0.921413 0.786839 -0.077439 0.612281 0.000000 1.000000
GLOVED_knuckle.bmp
  22 27.855478 -0.469822 0.921413 0.786839 -0.077439 0.612281 0.000000 1.000000
  22 27.974376 -0.441596 0.540143 0.708209 -0.580728 -0.401490 0.000000 1.000000
  22 28.005174 -0.375648 0.538630 0.670918 0.139892 -0.728217 0.000000 1.000000
GLOVED_knuckle.bmp
  22 27.974376 -0.441596 0.540143 0.708209 -0.580728 -0.401490 0.000000 1.000000
  22 27.553781 0.349916 0.768416 -0.519546 0.370623 -0.769877 0.000000 1.000000
  22 28.005174 -0.375648 0.538630 0.670918 0.139892 -0.728217 0.000000 1.000000
GLOVED_knuckle.bmp
  22 28.005174 -0.375648 0.538630 0.670918 0.139892 -0.728217 0.000000 1.000000
  22 27.553781 0.349916 0.768416 -0.519546 0.370623 -0.769877 0.000000 1.000000
  22 27.583228 0.416722 0.776774 0.028375 0.411255 0.911079 0.000000 1.000000
GLOVED_knuckle.bmp
  22 27.553781 0.349916 0.768416 -0.519546 0.370623 -0.769877 0.000000 1.000000
  22 27.832133 -0.542247 0.924507 0.180830 -0.165224 0.969537 0.000000 1.000000
  22 27.583228 0.416722 0.776774 0.028375 0.411255 0.911079 0.000000 1.000000
GLOVED_knuckle.bmp
  22 27.583228 0.416722 0.776774 0.028375 0.411255 0.911079 0.000000 1.000000
  22 27.832133 -0.542247 0.924507 0.180830 -0.165224 0.969537 0.000000 1.000000
  22 27.855478 -0.469822 0.921413 0.786839 -0.077439 0.612281 0.000000 1.000000
GLOVED_knuckle.bmp
  22 27.695581 -0.622565 0.922927 0.479486 -0.738376 0.474231 0.000000 1.000000
  22 27.846627 -0.529248 0.530273 0.131755 -0.202845 -0.970306 0.000000 1.000000
  22 27.974376 -0.441596 0.540143 0.708209 -0.580728 -0.401490 0.000000 1.000000
GLOVED_knuckle.bmp
  22 27.974376 -0.441596 0.540143 0.708209 -0.580728 -0.401490 0.000000 1.000000
  22 27.846627 -0.529248 0.530273 0.131755 -0.202845 -0.970306 0.000000 1.000000
  22 27.553781 0.349916 0.768416 -0.519546 0.370623 -0.769877 0.000000 1.000000
GLOVED_knuckle.bmp
  22 27.846627 -0.529248 0.530273 0.131755 -0.202845 -0.970306 0.000000 1.000000
  22 27.424681 0.263121 0.768417 -0.277283 0.426960 0.860709 0.000000 1.000000
  22 27.553781 0.349916 0.768416 -0.519546 0.370623 -0.769877 0.000000 1.000000
GLOVED_knuckle.bmp
  22 27.553781 0.349916 0.768416 -0.519546 0.370623 -0.769877 0.000000 1.000000
  22 27.424681 0.263121 0.768417 -0.277283 0.426960 0.860709 0.000000 1.000000
  22 27.832133 -0.542247 0.924507 0.180830 -0.165224 0.969537 0.000000 1.000000
GLOVED_knuckle.bmp
  22 27.424681 0.263121 0.768417 -0.277283 0.426960 0.860709 0.000000 1.000000
  22 27.695581 -0.622565 0.922927 0.479486 -0.738376 0.474231 0.000000 1.000000
  22 27.832133 -0.542247 0.924507 0.180830 -0.165224 0.969537 0.000000 1.000000
GLOVED_knuckle.bmp
  22 27.832133 -0.542247 0.924507 0.180830 -0.165224 0.969537 0.000000 1.000000
  22 27.695581 -0.622565 0.922927 0.479486 -0.738376 0.474231 0.000000 1.000000
  22 27.974376 -0.441596 0.540143 0.708209 -0.580728 -0.401490 0.000000 1.000000
GLOVED_knuckle.bmp
  25 28.209535 -0.545733 -0.390069 0.441620 -0.141029 0.886049 0.000000 1.000000
  25 28.242418 -0.437639 -0.798645 0.635373 -0.505829 -0.583471 0.000000 1.000000
  25 28.227174 -0.481018 -0.389150 0.922104 0.007401 0.386871 0.000000 1.000000
GLOVED_knuckle.bmp
  25 28.227174 -0.481018 -0.389150 0.922104 0.007401 0.386871 0.000000 1.000000
  25 28.242418 -0.437639 -0.798645 0.635373 -0.505829 -0.583471 0.000000 1.000000
  25 28.260057 -0.372924 -0.797726 0.441663 0.205210 -0.873397 0.000000 1.000000
GLOVED_knuckle.bmp
  25 28.242418 -0.437639 -0.798645 0.635373 -0.505829 -0.583471 0.000000 1.000000
  25 27.821209 0.311832 -0.441888 -0.735883 0.311249 -0.601332 0.000000 1.000000
  25 28.260057 -0.372924 -0.797726 0.441663 0.205210 -0.873397 0.000000 1.000000
GLOVED_knuckle.bmp
  25 28.260057 -0.372924 -0.797726 0.441663 0.205210 -0.873397 0.000000 1.000000
  25 27.821209 0.311832 -0.441888 -0.735883 0.311249 -0.601332 0.000000 1.000000
  25 27.838751 0.376715 -0.450968 0.221679 0.415939 0.881960 0.000000 1.000000
GLOVED_knuckle.bmp
  25 27.821209 0.311832 -0.441888 -0.735883 0.311249 -0.601332 0.000000 1.000000
  25 28.209535 -0.545733 -0.390069 0.441620 -0.141029 0.886049 0.000000 1.000000
  25 27.838751 0.376715 -0.450968 0.221679 0.415939 0.881960 0.000000 1.000000
GLOVED_knuckle.bmp
  25 27.838751 0.376715 -0.450968 0.221679 0.415939 0.881960 0.000000 1.000000
  25 28.209535 -0.545733 -0.390069 0.441620 -0.141029 0.886049 0.000000 1.000000
  25 28.227174 -0.481018 -0.389150 0.922104 0.007401 0.386871 0.000000 1.000000
GLOVED_knuckle.bmp
  25 28.094923 -0.644712 -0.360619 0.658405 -0.682293 0.317772 0.000000 1.000000
  25 28.127903 -0.536787 -0.759197 -0.103856 -0.192348 -0.975816 0.000000 1.000000
  25 28.242418 -0.437639 -0.798645 0.635373 -0.505829 -0.583471 0.000000 1.000000
GLOVED_knuckle.bmp
  25 28.242418 -0.437639 -0.798645 0.635373 -0.505829 -0.583471 0.000000 1.000000
  25 28.127903 -0.536787 -0.759197 -0.103856 -0.192348 -0.975816 0.000000 1.000000
  25 27.821209 0.311832 -0.441888 -0.735883 0.311249 -0.601332 0.000000 1.000000
GLOVED_knuckle.bmp
  25 28.127903 -0.536787 -0.759197 -0.103856 -0.192348 -0.975816 0.000000 1.000000
  25 27.706597 0.212853 -0.412439 -0.086954 0.399708 0.912509 0.000000 1.000000
  25 27.821209 0.311832 -0.441888 -0.735883 0.311249 -0.601332 0.000000 1.000000
GLOVED_knuckle.bmp
  25 27.821209 0.311832 -0.441888 -0.735883 0.311249 -0.601332 0.000000 1.000000
  25 27.706597 0.212853 -0.412439 -0.086954 0.399708 0.912509 0.000000 1.000000
  25 28.209535 -0.545733 -0.390069 0.441620 -0.141029 0.886049 0.000000 1.000000
GLOVED_knuckle.bmp
  25 27.706597 0.212853 -0.412439 -0.086954 0.399708 0.912509 0.000000 1.000000
  25 28.094923 -0.644712 -0.360619 0.658405 -0.682293 0.317772 0.000000 1.000000
  25 28.209535 -0.545733 -0.390069 0.441620 -0.141029 0.886049 0.000000 1.000000
GLOVED_knuckle.bmp
  25 28.209535 -0.545733 -0.390069 0.441620 -0.141029 0.886049 0.000000 1.000000
  25 28.094923 -0.644712 -0.360619 0.658405 -0.682293 0.317772 0.000000 1.000000
  25 28.242418 -0.437639 -0.798645 0.635373 -0.505829 -0.583471 0.000000 1.000000
GLOVED_knuckle.bmp
  28 28.003598 -0.529913 -1.415328 0.270598 -0.007049 0.962667 0.000000 1.000000
  28 28.051227 -0.506514 -1.832681 0.660309 -0.584091 -0.472048 0.000000 1.000000
  28 28.019391 -0.462769 -1.440670 0.898883 0.159017 0.408317 0.000000 1.000000
GLOVED_knuckle.bmp
  28 28.019391 -0.462769 -1.440670 0.898883 0.159017 0.408317 0.000000 1.000000
  28 28.051227 -0.506514 -1.832681 0.660309 -0.584091 -0.472048 0.000000 1.000000
  28 28.067021 -0.439370 -1.858023 0.469387 0.056164 -0.881205 0.000000 1.000000
GLOVED_knuckle.bmp
  28 28.051227 -0.506514 -1.832681 0.660309 -0.584091 -0.472048 0.000000 1.000000
  28 27.559254 0.263630 -1.661392 -0.612634 0.249829 -0.749843 0.000000 1.000000
  28 28.067021 -0.439370 -1.858023 0.469387 0.056164 -0.881205 0.000000 1.000000
GLOVED_knuckle.bmp
  28 28.067021 -0.439370 -1.858023 0.469387 0.056164 -0.881205 0.000000 1.000000
  28 27.559254 0.263630 -1.661392 -0.612634 0.249829 -0.749843 0.000000 1.000000
  28 27.576130 0.329785 -1.676842 0.147983 0.604019 0.783110 0.000000 1.000000
GLOVED_knuckle.bmp
  28 27.559254 0.263630 -1.661392 -0.612634 0.249829 -0.749843 0.000000 1.000000
  28 28.003598 -0.529913 -1.415328 0.270598 -0.007049 0.962667 0.000000 1.000000
  28 27.576130 0.329785 -1.676842 0.147983 0.604019 0.783110 0.000000 1.000000
GLOVED_knuckle.bmp
  28 27.576130 0.329785 -1.676842 0.147983 0.604019 0.783110 0.000000 1.000000
  28 28.003598 -0.529913 -1.415328 0.270598 -0.007049 0.962667 0.000000 1.000000
  28 28.019391 -0.462769 -1.440670 0.898883 0.159017 0.408317 0.000000 1.000000
GLOVED_knuckle.bmp
  28 27.871060 -0.597943 -1.417735 0.410522 -0.772033 0.485218 0.000000 1.000000
  28 27.911890 -0.581876 -1.835077 0.139301 -0.262072 -0.954942 0.000000 1.000000
  28 28.051227 -0.506514 -1.832681 0.660309 -0.584091 -0.472048 0.000000 1.000000
GLOVED_knuckle.bmp
  28 28.051227 -0.506514 -1.832681 0.660309 -0.584091 -0.472048 0.000000 1.000000
  28 27.911890 -0.581876 -1.835077 0.139301 -0.262072 -0.954942 0.000000 1.000000
  28 27.559254 0.263630 -1.661392 -0.612634 0.249829 -0.749843 0.000000 1.000000
GLOVED_knuckle.bmp
  28 27.911890 -0.581876 -1.835077 0.139301 -0.262072 -0.954942 0.000000 1.000000
  28 27.420999 0.187279 -1.653896 -0.283329 0.532403 0.797667 0.000000 1.000000
  28 27.559254 0.263630 -1.661392 -0.612634 0.249829 -0.749843 0.000000 1.000000
GLOVED_knuckle.bmp
  28 27.559254 0.263630 -1.661392 -0.612634 0.249829 -0.749843 0.000000 1.000000
  28 27.420999 0.187279 -1.653896 -0.283329 0.532403 0.797667 0.000000 1.000000
  28 28.003598 -0.529913 -1.415328 0.270598 -0.007049 0.962667 0.000000 1.000000
GLOVED_knuckle.bmp
  28 27.420999 0.187279 -1.653896 -0.283329 0.532403 0.797667 0.000000 1.000000
  28 27.871060 -0.597943 -1.417735 0.410522 -0.772033 0.485218 0.000000 1.000000
  28 28.003598 -0.529913 -1.415328 0.270598 -0.007049 0.962667 0.000000 1.000000
GLOVED_knuckle.bmp
  28 28.003598 -0.529913 -1.415328 0.270598 -0.007049 0.962667 0.000000 1.000000
  28 27.871060 -0.597943 -1.417735 0.410522 -0.772033 0.485218 0.000000 1.000000
  28 28.051227 -0.506514 -1.832681 0.660309 -0.584091 -0.472048 0.000000 1.000000
GLOVED_knuckle.bmp
  31 27.062829 0.077569 -2.524949 0.581995 -0.176574 0.793791 0.000000 1.000000
  31 26.895712 0.124572 -2.914901 0.422967 -0.486248 -0.764632 0.000000 1.000000
  31 27.074464 0.147187 -2.545392 0.988911 0.118843 -0.089058 0.000000 1.000000
GLOVED_knuckle.bmp
  31 27.074464 0.147187 -2.545392 0.988911 0.118843 -0.089058 0.000000 1.000000
  31 26.895712 0.124572 -2.914901 0.422967 -0.486248 -0.764632 0.000000 1.000000
  31 26.893612 0.193114 -2.932152 -0.028725 0.092697 -0.995280 0.000000 1.000000
GLOVED_knuckle.bmp
  31 26.895712 0.124572 -2.914901 0.422967 -0.486248 -0.764632 0.000000 1.000000
  31 26.585954 0.892974 -2.484891 -0.811768 0.414200 -0.411670 0.000000 1.000000
  31 26.893612 0.193114 -2.932152 -0.028725 0.092697 -0.995280 0.000000 1.000000
GLOVED_knuckle.bmp
  31 26.893612 0.193114 -2.932152 -0.028725 0.092697 -0.995280 0.000000 1.000000
  31 26.585954 0.892974 -2.484891 -0.811768 0.414200 -0.411670 0.000000 1.000000
  31 26.597589 0.962593 -2.505335 0.544377 0.559065 0.625380 0.000000 1.000000
GLOVED_knuckle.bmp
  31 26.585954 0.892974 -2.484891 -0.811768 0.414200 -0.411670 0.000000 1.000000
  31 27.062829 0.077569 -2.524949 0.581995 -0.176574 0.793791 0.000000 1.000000
  31 26.597589 0.962593 -2.505335 0.544377 0.559065 0.625380 0.000000 1.000000
GLOVED_knuckle.bmp
  31 26.597589 0.962593 -2.505335 0.544377 0.559065 0.625380 0.000000 1.000000
  31 27.062829 0.077569 -2.524949 0.581995 -0.176574 0.793791 0.000000 1.000000
  31 27.074464 0.147187 -2.545392 0.988911 0.118843 -0.089058 0.000000 1.000000
GLOVED_knuckle.bmp
  31 26.922420 0.015253 -2.523575 0.412390 -0.884335 0.218829 0.000000 1.000000
  31 26.748644 0.054797 -2.913367 0.007479 -0.016119 -0.999842 0.000000 1.000000
  31 26.895712 0.124572 -2.914901 0.422967 -0.486248 -0.764632 0.000000 1.000000
GLOVED_knuckle.bmp
  31 26.895712 0.124572 -2.914901 0.422967 -0.486248 -0.764632 0.000000 1.000000
  31 26.748644 0.054797 -2.913367 0.007479 -0.016119 -0.999842 0.000000 1.000000
  31 26.585954 0.892974 -2.484891 -0.811768 0.414200 -0.411670 0.000000 1.000000
GLOVED_knuckle.bmp
  31 26.748644 0.054797 -2.913367 0.007479 -0.016119 -0.999842 0.000000 1.000000
  31 26.452621 0.824276 -2.486550 -0.136952 0.293568 0.946077 0.000000 1.000000
  31 26.585954 0.892974 -2.484891 -0.811768 0.414200 -0.411670 0.000000 1.000000
GLOVED_knuckle.bmp
  31 26.585954 0.892974 -2.484891 -0.811768 0.414200 -0.411670 0.000000 1.000000
  31 26.452621 0.824276 -2.486550 -0.136952 0.293568 0.946077 0.000000 1.000000
  31 27.062829 0.077569 -2.524949 0.581995 -0.176574 0.793791 0.000000 1.000000
GLOVED_knuckle.bmp
  31 26.452621 0.824276 -2.486550 -0.136952 0.293568 0.946077 0.000000 1.000000
  31 26.922420 0.015253 -2.523575 0.412390 -0.884335 0.218829 0.000000 1.000000
  31 27.062829 0.077569 -2.524949 0.581995 -0.176574 0.793791 0.000000 1.000000
GLOVED_knuckle.bmp
  31 27.062829 0.077569 -2.524949 0.581995 -0.176574 0.793791 0.000000 1.000000
  31 26.922420 0.015253 -2.523575 0.412390 -0.884335 0.218829 0.000000 1.000000
  31 26.895712 0.124572 -2.914901 0.422967 -0.486248 -0.764632 0.000000 1.000000
GLOVED_knuckle.bmp
  21 25.716096 -0.314739 2.158715 0.190371 0.975491 0.110349 0.000000 1.000000
  21 25.433847 -0.596387 2.038673 -0.992016 -0.096623 0.081047 0.000000 1.000000
  21 25.457525 -0.616948 2.102050 -0.817623 0.116936 0.563754 0.000000 1.000000
GLOVED_knuckle.bmp
  21 25.457525 -0.616948 2.102050 -0.817623 0.116936 0.563754 0.000000 1.000000
  21 25.433847 -0.596387 2.038673 -0.992016 -0.096623 0.081047 0.000000 1.000000
  21 26.139820 -1.119660 2.520324 -0.495097 -0.764023 0.413700 0.000000 1.000000
GLOVED_knuckle.bmp
  21 25.433847 -0.596387 2.038673 -0.992016 -0.096623 0.081047 0.000000 1.000000
  21 26.116143 -1.099099 2.456947 0.562711 -0.801528 -0.202262 0.000000 1.000000
  21 26.139820 -1.119660 2.520324 -0.495097 -0.764023 0.413700 0.000000 1.000000
GLOVED_knuckle.bmp
  21 26.139820 -1.119660 2.520324 -0.495097 -0.764023 0.413700 0.000000 1.000000
  21 26.116143 -1.099099 2.456947 0.562711 -0.801528 -0.202262 0.000000 1.000000
  21 25.739010 -0.331762 2.231414 0.361316 0.796653 0.484556 0.000000 1.000000
GLOVED_knuckle.bmp
  21 26.116143 -1.099099 2.456947 0.562711 -0.801528 -0.202262 0.000000 1.000000
  21 25.716096 -0.314739 2.158715 0.190371 0.975491 0.110349 0.000000 1.000000
  21 25.739010 -0.331762 2.231414 0.361316 0.796653 0.484556 0.000000 1.000000
GLOVED_knuckle.bmp
  21 25.739010 -0.331762 2.231414 0.361316 0.796653 0.484556 0.000000 1.000000
  21 25.716096 -0.314739 2.158715 0.190371 0.975491 0.110349 0.000000 1.000000
  21 25.457525 -0.616948 2.102050 -0.817623 0.116936 0.563754 0.000000 1.000000
GLOVED_knuckle.bmp
  21 25.719367 -0.339473 2.007462 -0.230098 0.959114 -0.164789 0.000000 1.000000
  21 25.437881 -0.624659 1.878097 -0.925106 -0.373569 0.068007 0.000000 1.000000
  21 25.433847 -0.596387 2.038673 -0.992016 -0.096623 0.081047 0.000000 1.000000
GLOVED_knuckle.bmp
  21 25.433847 -0.596387 2.038673 -0.992016 -0.096623 0.081047 0.000000 1.000000
  21 25.437881 -0.624659 1.878097 -0.925106 -0.373569 0.068007 0.000000 1.000000
  21 26.116143 -1.099099 2.456947 0.562711 -0.801528 -0.202262 0.000000 1.000000
GLOVED_knuckle.bmp
  21 25.437881 -0.624659 1.878097 -0.925106 -0.373569 0.068007 0.000000 1.000000
  21 26.119413 -1.123833 2.305694 0.997629 0.067037 -0.015583 0.000000 1.000000
  21 26.116143 -1.099099 2.456947 0.562711 -0.801528 -0.202262 0.000000 1.000000
GLOVED_knuckle.bmp
  21 26.116143 -1.099099 2.456947 0.562711 -0.801528 -0.202262 0.000000 1.000000
  21 26.119413 -1.123833 2.305694 0.997629 0.067037 -0.015583 0.000000 1.000000
  21 25.716096 -0.314739 2.158715 0.190371 0.975491 0.110349 0.000000 1.000000
GLOVED_knuckle.bmp
  21 26.119413 -1.123833 2.305694 0.997629 0.067037 -0.015583 0.000000 1.000000
  21 25.719367 -0.339473 2.007462 -0.230098 0.959114 -0.164789 0.000000 1.000000
  21 25.716096 -0.314739 2.158715 0.190371 0.975491 0.110349 0.000000 1.000000
GLOVED_knuckle.bmp
  21 25.716096 -0.314739 2.158715 0.190371 0.975491 0.110349 0.000000 1.000000
  21 25.719367 -0.339473 2.007462 -0.230098 0.959114 -0.164789 0.000000 1.000000
  21 25.433847 -0.596387 2.038673 -0.992016 -0.096623 0.081047 0.000000 1.000000
GLOVED_knuckle.bmp
  20 24.980654 -0.197429 1.948872 -0.132274 -0.989529 -0.057749 0.000000 1.000000
  20 25.230578 0.122264 2.095278 0.535762 0.157050 0.829635 0.000000 1.000000
  20 25.164821 0.136490 2.117041 0.064389 -0.087603 0.994072 0.000000 1.000000
GLOVED_knuckle.bmp
  20 25.164821 0.136490 2.117041 0.064389 -0.087603 0.994072 0.000000 1.000000
  20 25.230578 0.122264 2.095278 0.535762 0.157050 0.829635 0.000000 1.000000
  20 24.385840 0.560441 1.825055 -0.078986 0.776270 0.625433 0.000000 1.000000
GLOVED_knuckle.bmp
  20 25.230578 0.122264 2.095278 0.535762 0.157050 0.829635 0.000000 1.000000
  20 24.446092 0.553894 1.800018 -0.243662 0.771235 -0.588069 0.000000 1.000000
  20 24.385840 0.560441 1.825055 -0.078986 0.776270 0.625433 0.000000 1.000000
GLOVED_knuckle.bmp
  20 24.385840 0.560441 1.825055 -0.078986 0.776270 0.625433 0.000000 1.000000
  20 24.446092 0.553894 1.800018 -0.243662 0.771235 -0.588069 0.000000 1.000000
  20 24.914897 -0.183203 1.970636 -0.544577 -0.838064 0.032918 0.000000 1.000000
GLOVED_knuckle.bmp
  20 24.446092 0.553894 1.800018 -0.243662 0.771235 -0.588069 0.000000 1.000000
  20 24.980654 -0.197429 1.948872 -0.132274 -0.989529 -0.057749 0.000000 1.000000
  20 24.914897 -0.183203 1.970636 -0.544577 -0.838064 0.032918 0.000000 1.000000
GLOVED_knuckle.bmp
  20 24.914897 -0.183203 1.970636 -0.544577 -0.838064 0.032918 0.000000 1.000000
  20 24.980654 -0.197429 1.948872 -0.132274 -0.989529 -0.057749 0.000000 1.000000
  20 25.164821 0.136490 2.117041 0.064389 -0.087603 0.994072 0.000000 1.000000
GLOVED_knuckle.bmp
  20 25.100018 -0.162922 1.859645 0.340638 -0.934405 0.104177 0.000000 1.000000
  20 25.342340 0.147916 1.998062 0.484971 0.429430 0.761835 0.000000 1.000000
  20 25.230578 0.122264 2.095278 0.535762 0.157050 0.829635 0.000000 1.000000
GLOVED_knuckle.bmp
  20 25.230578 0.122264 2.095278 0.535762 0.157050 0.829635 0.000000 1.000000
  20 25.342340 0.147916 1.998062 0.484971 0.429430 0.761835 0.000000 1.000000
  20 24.446092 0.553894 1.800018 -0.243662 0.771235 -0.588069 0.000000 1.000000
GLOVED_knuckle.bmp
  20 25.342340 0.147916 1.998062 0.484971 0.429430 0.761835 0.000000 1.000000
  20 24.565456 0.588401 1.710791 -0.592893 -0.130632 -0.794615 0.000000 1.000000
  20 24.446092 0.553894 1.800018 -0.243662 0.771235 -0.588069 0.000000 1.000000
GLOVED_knuckle.bmp
  20 24.446092 0.553894 1.800018 -0.243662 0.771235 -0.588069 0.000000 1.000000
  20 24.565456 0.588401 1.710791 -0.592893 -0.130632 -0.794615 0.000000 1.000000
  20 24.980654 -0.197429 1.948872 -0.132274 -0.989529 -0.057749 0.000000 1.000000
GLOVED_knuckle.bmp
  20 24.565456 0.588401 1.710791 -0.592893 -0.130632 -0.794615 0.000000 1.000000
  20 25.100018 -0.162922 1.859645 0.340638 -0.934405 0.104177 0.000000 1.000000
  20 24.980654 -0.197429 1.948872 -0.132274 -0.989529 -0.057749 0.000000 1.000000
GLOVED_knuckle.bmp
  20 24.980654 -0.197429 1.948872 -0.132274 -0.989529 -0.057749 0.000000 1.000000
  20 25.100018 -0.162922 1.859645 0.340638 -0.934405 0.104177 0.000000 1.000000
  20 25.230578 0.122264 2.095278 0.535762 0.157050 0.829635 0.000000 1.000000
GLOVED_knuckle.bmp
  27 28.826045 -1.198110 -0.777088 -0.035025 0.668378 -0.742996 0.000000 1.000000
  27 28.773738 -1.261867 -0.367577 -0.052688 0.505057 0.861476 0.000000 1.000000
  27 28.837288 -1.282405 -0.388542 0.521742 0.695410 0.494156 0.000000 1.000000
GLOVED_knuckle.bmp
  27 28.837288 -1.282405 -0.388542 0.521742 0.695410 0.494156 0.000000 1.000000
  27 28.773738 -1.261867 -0.367577 -0.052688 0.505057 0.861476 0.000000 1.000000
  27 29.361488 -1.996073 -0.685682 0.580067 -0.206629 0.787925 0.000000 1.000000
GLOVED_knuckle.bmp
  27 28.773738 -1.261867 -0.367577 -0.052688 0.505057 0.861476 0.000000 1.000000
  27 29.290903 -1.982643 -0.664769 -0.040197 -0.997923 0.050336 0.000000 1.000000
  27 29.361488 -1.996073 -0.685682 0.580067 -0.206629 0.787925 0.000000 1.000000
GLOVED_knuckle.bmp
  27 29.361488 -1.996073 -0.685682 0.580067 -0.206629 0.787925 0.000000 1.000000
  27 29.290903 -1.982643 -0.664769 -0.040197 -0.997923 0.050336 0.000000 1.000000
  27 28.896630 -1.211541 -0.798001 0.285861 0.477800 -0.830657 0.000000 1.000000
GLOVED_knuckle.bmp
  27 29.290903 -1.982643 -0.664769 -0.040197 -0.997923 0.050336 0.000000 1.000000
  27 28.826045 -1.198110 -0.777088 -0.035025 0.668378 -0.742996 0.000000 1.000000
  27 28.896630 -1.211541 -0.798001 0.285861 0.477800 -0.830657 0.000000 1.000000
GLOVED_knuckle.bmp
  27 28.896630 -1.211541 -0.798001 0.285861 0.477800 -0.830657 0.000000 1.000000
  27 28.826045 -1.198110 -0.777088 -0.035025 0.668378 -0.742996 0.000000 1.000000
  27 28.837288 -1.282405 -0.388542 0.521742 0.695410 0.494156 0.000000 1.000000
GLOVED_knuckle.bmp
  27 28.699135 -1.269480 -0.777060 -0.469187 0.780589 -0.412969 0.000000 1.000000
  27 28.646900 -1.347377 -0.367789 -0.093252 0.155220 0.983469 0.000000 1.000000
  27 28.773738 -1.261867 -0.367577 -0.052688 0.505057 0.861476 0.000000 1.000000
GLOVED_knuckle.bmp
  27 28.773738 -1.261867 -0.367577 -0.052688 0.505057 0.861476 0.000000 1.000000
  27 28.646900 -1.347377 -0.367789 -0.093252 0.155220 0.983469 0.000000 1.000000
  27 29.290903 -1.982643 -0.664769 -0.040197 -0.997923 0.050336 0.000000 1.000000
GLOVED_knuckle.bmp
  27 28.646900 -1.347377 -0.367789 -0.093252 0.155220 0.983469 0.000000 1.000000
  27 29.156958 -2.061120 -0.664793 0.252497 -0.420205 -0.871592 0.000000 1.000000
  27 29.290903 -1.982643 -0.664769 -0.040197 -0.997923 0.050336 0.000000 1.000000
GLOVED_knuckle.bmp
  27 29.290903 -1.982643 -0.664769 -0.040197 -0.997923 0.050336 0.000000 1.000000
  27 29.156958 -2.061120 -0.664793 0.252497 -0.420205 -0.871592 0.000000 1.000000
  27 28.826045 -1.198110 -0.777088 -0.035025 0.668378 -0.742996 0.000000 1.000000
GLOVED_knuckle.bmp
  27 29.156958 -2.061120 -0.664793 0.252497 -0.420205 -0.871592 0.000000 1.000000
  27 28.699135 -1.269480 -0.777060 -0.469187 0.780589 -0.412969 0.000000 1.000000
  27 28.826045 -1.198110 -0.777088 -0.035025 0.668378 -0.742996 0.000000 1.000000
GLOVED_knuckle.bmp
  27 28.826045 -1.198110 -0.777088 -0.035025 0.668378 -0.742996 0.000000 1.000000
  27 28.699135 -1.269480 -0.777060 -0.469187 0.780589 -0.412969 0.000000 1.000000
  27 28.773738 -1.261867 -0.367577 -0.052688 0.505057 0.861476 0.000000 1.000000
GLOVED_knuckle.bmp
  27 28.628789 -1.340552 -0.777576 -0.235543 0.260041 -0.936428 0.000000 1.000000
  27 28.576482 -1.404310 -0.368065 -0.574766 0.633832 0.517591 0.000000 1.000000
  27 28.699135 -1.269480 -0.777060 -0.471233 0.462135 -0.751246 0.000000 1.000000
GLOVED_knuckle.bmp
  27 28.699135 -1.269480 -0.777060 -0.471233 0.462135 -0.751246 0.000000 1.000000
  27 28.576482 -1.404310 -0.368065 -0.574766 0.633832 0.517591 0.000000 1.000000
  27 28.646900 -1.347377 -0.367789 -0.472998 0.333823 0.815374 0.000000 1.000000
GLOVED_knuckle.bmp
  27 28.576482 -1.404310 -0.368065 -0.574766 0.633832 0.517591 0.000000 1.000000
  27 29.093647 -2.125085 -0.665257 0.435596 -0.480196 0.761359 0.000000 1.000000
  27 28.646900 -1.347377 -0.367789 -0.472998 0.333823 0.815374 0.000000 1.000000
GLOVED_knuckle.bmp
  27 28.646900 -1.347377 -0.367789 -0.472998 0.333823 0.815374 0.000000 1.000000
  27 29.093647 -2.125085 -0.665257 0.435596 -0.480196 0.761359 0.000000 1.000000
  27 29.156958 -2.061120 -0.664793 0.786893 -0.608673 -0.101567 0.000000 1.000000
GLOVED_knuckle.bmp
  27 29.093647 -2.125085 -0.665257 0.435596 -0.480196 0.761359 0.000000 1.000000
  27 28.628789 -1.340552 -0.777576 -0.235543 0.260041 -0.936428 0.000000 1.000000
  27 29.156958 -2.061120 -0.664793 0.786893 -0.608673 -0.101567 0.000000 1.000000
GLOVED_knuckle.bmp
  27 29.156958 -2.061120 -0.664793 0.786893 -0.608673 -0.101567 0.000000 1.000000
  27 28.628789 -1.340552 -0.777576 -0.235543 0.260041 -0.936428 0.000000 1.000000
  27 28.699135 -1.269480 -0.777060 -0.471233 0.462135 -0.751246 0.000000 1.000000
GLOVED_knuckle.bmp
  27 28.699135 -1.269480 -0.777060 -0.471233 0.462135 -0.751246 0.000000 1.000000
  27 28.646900 -1.347377 -0.367789 -0.472998 0.333823 0.815374 0.000000 1.000000
  27 28.699135 -1.269480 -0.777060 -0.743504 0.456804 -0.488397 0.000000 1.000000
GLOVED_knuckle.bmp
  27 28.699135 -1.269480 -0.777060 -0.743504 0.456804 -0.488397 0.000000 1.000000
  27 28.646900 -1.347377 -0.367789 -0.472998 0.333823 0.815374 0.000000 1.000000
  27 28.646900 -1.347377 -0.367789 -0.152859 0.071490 0.985659 0.000000 1.000000
GLOVED_knuckle.bmp
  27 28.646900 -1.347377 -0.367789 -0.472998 0.333823 0.815374 0.000000 1.000000
  27 29.156958 -2.061120 -0.664793 0.786893 -0.608673 -0.101567 0.000000 1.000000
  27 28.646900 -1.347377 -0.367789 -0.152859 0.071490 0.985659 0.000000 1.000000
GLOVED_knuckle.bmp
  27 28.646900 -1.347377 -0.367789 -0.152859 0.071490 0.985659 0.000000 1.000000
  27 29.156958 -2.061120 -0.664793 0.786893 -0.608673 -0.101567 0.000000 1.000000
  27 29.156958 -2.061120 -0.664793 0.437596 -0.281074 -0.854112 0.000000 1.000000
GLOVED_knuckle.bmp
  27 29.156958 -2.061120 -0.664793 0.786893 -0.608673 -0.101567 0.000000 1.000000
  27 28.699135 -1.269480 -0.777060 -0.471233 0.462135 -0.751246 0.000000 1.000000
  27 29.156958 -2.061120 -0.664793 0.437596 -0.281074 -0.854112 0.000000 1.000000
GLOVED_knuckle.bmp
  27 29.156958 -2.061120 -0.664793 0.437596 -0.281074 -0.854112 0.000000 1.000000
  27 28.699135 -1.269480 -0.777060 -0.471233 0.462135 -0.751246 0.000000 1.000000
  27 28.699135 -1.269480 -0.777060 -0.743504 0.456804 -0.488397 0.000000 1.000000
GLOVED_knuckle.bmp
  9 -26.971121 -1.753781 0.901949 -0.396138 -0.113548 0.911143 0.142857 1.000000
  9 -26.235641 -1.197493 1.056907 -0.196273 0.765857 0.612323 0.000000 0.428571
  9 -26.377126 -1.080548 0.671023 -0.360507 0.582598 -0.728433 0.714286 0.571429
GLOVED_knuckle.bmp
  12 -27.227306 -1.779739 -0.550707 -0.583742 -0.196315 0.787848 0.142857 1.000000
  12 -26.703104 -1.066072 -0.253566 -0.509482 0.704412 0.494198 0.000000 0.428571
  12 -26.755315 -1.002146 -0.673075 -0.277552 0.482845 -0.830557 0.714286 0.571429
GLOVED_knuckle.bmp
  15 -26.988804 -1.696855 -1.801579 -0.592350 -0.137265 0.793902 0.142857 1.000000
  15 -26.426485 -1.002631 -1.529090 -0.470804 0.747075 0.469278 0.000000 0.428571
  15 -26.473855 -0.941657 -1.942658 -0.253357 0.467750 -0.846771 0.714286 0.571429
GLOVED_knuckle.bmp
  18 -25.968613 -1.100783 -2.911960 -0.830707 -0.016326 0.556471 0.142857 1.000000
  18 -25.503469 -0.362471 -2.585866 -0.576795 0.803209 0.148873 0.000000 0.428571
  18 -25.404614 -0.381455 -2.995460 0.064893 0.310895 -0.948226 0.714286 0.571429
GLOVED_knuckle.bmp
  7 -25.902841 -0.616246 0.920364 -0.786838 -0.077438 0.612282 0.000000 0.428571
  7 -25.623136 0.276774 0.774144 -0.028375 0.411255 0.911079 0.142857 1.000000
  7 -26.043733 -0.514737 0.545871 -0.670918 0.139894 -0.728216 0.714286 0.571429
GLOVED_knuckle.bmp
  10 -26.281715 -0.569972 -0.391165 -0.922104 0.007401 0.386871 0.000000 0.428571
  10 -25.886623 0.280306 -0.453043 -0.221680 0.415940 0.881959 0.142857 1.000000
  10 -26.307930 -0.469333 -0.799802 -0.441663 0.205210 -0.873397 0.714286 0.571429
GLOVED_knuckle.bmp
  13 -25.973901 -0.393248 -1.438842 -0.898883 0.159017 0.408318 0.000000 0.428571
  13 -25.523386 0.406032 -1.673548 -0.147980 0.604018 0.783112 0.142857 1.000000
  13 -26.021530 -0.369849 -1.856196 -0.469387 0.056164 -0.881205 0.714286 0.571429
GLOVED_knuckle.bmp
  16 -25.155938 0.034263 -2.546214 -0.988911 0.118844 -0.089058 0.000000 0.428571
  16 -24.679061 0.849668 -2.506157 -0.544375 0.559065 0.625382 0.142857 1.000000
  16 -24.988821 0.081266 -2.936166 0.028725 0.092697 -0.995280 0.714286 0.571429
GLOVED_knuckle.bmp
  6 -24.136819 -1.115145 2.519667 0.495097 -0.764023 0.413700 0.142857 1.000000
  6 -23.455875 -0.616213 2.094718 0.817623 0.116935 0.563754 0.000000 0.428571
  6 -23.736437 -0.329787 2.223346 -0.361317 0.796652 0.484557 0.714286 0.571429
GLOVED_knuckle.bmp
  5 -22.492962 0.357765 1.824980 0.078988 0.776265 0.625439 0.142857 1.000000
  5 -23.269024 -0.079757 2.118922 -0.064389 -0.087603 0.994072 0.000000 0.428571
  5 -23.014643 -0.393124 1.970290 0.544576 -0.838065 0.032916 0.714286 0.571429
GLOVED_knuckle.bmp
  24 28.182045 -1.077468 1.059394 0.196273 0.765857 0.612323 0.000000 0.428571
  24 28.917524 -1.633759 0.904436 0.396137 -0.113549 0.911143 0.142857 1.000000
  24 28.325097 -0.975466 0.664892 0.360506 0.582598 -0.728433 0.714286 0.571429
GLOVED_knuckle.bmp
  30 28.447475 -1.067159 -1.527736 0.470800 0.747077 0.469280 0.000000 0.428571
  30 29.016950 -1.754402 -1.800310 0.592345 -0.137269 0.793905 0.142857 1.000000
  30 28.487946 -0.999096 -1.939840 0.253350 0.467752 -0.846771 0.714286 0.571429
GLOVED_knuckle.bmp
  33 27.458351 -0.318204 -2.586809 0.576798 0.803207 0.148871 0.000000 0.428571
  33 27.923493 -1.056517 -2.912903 0.830707 -0.016326 0.556471 0.142857 1.000000
  33 27.359496 -0.337187 -2.996403 -0.064893 0.310895 -0.948226 0.714286 0.571429
GLOVED_knuckle.bmp
  22 27.583228 0.416722 0.776774 0.028375 0.411255 0.911079 0.142857 1.000000
  22 27.855478 -0.469822 0.921413 0.786839 -0.077439 0.612281 0.000000 0.428571
  22 28.005174 -0.375648 0.538630 0.670918 0.139892 -0.728217 0.714286 0.571429
GLOVED_knuckle.bmp
  25 27.838751 0.376715 -0.450968 0.221679 0.415939 0.881960 0.142857 1.000000
  25 28.227174 -0.481018 -0.389150 0.922104 0.007401 0.386871 0.000000 0.428571
  25 28.260057 -0.372924 -0.797726 0.441663 0.205210 -0.873397 0.714286 0.571429
GLOVED_knuckle.bmp
  28 27.576130 0.329785 -1.676842 0.147983 0.604019 0.783110 0.142857 1.000000
  28 28.019391 -0.462769 -1.440670 0.898883 0.159017 0.408317 0.000000 0.428571
  28 28.067021 -0.439370 -1.858023 0.469387 0.056164 -0.881205 0.714286 0.571429
GLOVED_knuckle.bmp
  31 26.597589 0.962593 -2.505335 0.544377 0.559065 0.625380 0.142857 1.000000
  31 27.074464 0.147187 -2.545392 0.988911 0.118843 -0.089058 0.000000 0.428571
  31 26.893612 0.193114 -2.932152 -0.028725 0.092697 -0.995280 0.714286 0.571429
GLOVED_knuckle.bmp
  21 25.457525 -0.616948 2.102050 -0.817623 0.116936 0.563754 0.000000 0.428571
  21 26.139820 -1.119660 2.520324 -0.495097 -0.764023 0.413700 0.142857 1.000000
  21 25.739010 -0.331762 2.231414 0.361316 0.796653 0.484556 0.714286 0.571429
GLOVED_knuckle.bmp
  20 25.164821 0.136490 2.117041 0.064389 -0.087603 0.994072 0.000000 0.428571
  20 24.385840 0.560441 1.825055 -0.078986 0.776270 0.625433 0.142857 1.000000
  20 24.914897 -0.183203 1.970636 -0.544577 -0.838064 0.032918 0.714286 0.571429
GLOVED_knuckle.bmp
  27 28.837288 -1.282405 -0.388542 0.521742 0.695410 0.494156 0.000000 0.428571
  27 29.361488 -1.996073 -0.685682 0.580067 -0.206629 0.787925 0.142857 1.000000
  27 28.896630 -1.211541 -0.798001 0.285861 0.477800 -0.830657 0.714286 0.571429
GLOVED_knuckle.bmp
  27 28.646900 -1.347377 -0.367789 -0.152859 0.071490 0.985659 0.000000 1.000000
  27 28.699135 -1.269480 -0.777060 0.000000 0.000000 0.000000 0.000000 1.000000
  27 28.699135 -1.269480 -0.777060 -0.743504 0.456804 -0.488397 0.000000 1.000000
GLOVED_knuckle.bmp
  27 28.646900 -1.347377 -0.367789 0.000000 0.000000 0.000000 0.000000 1.000000
  27 28.699135 -1.269480 -0.777060 0.000000 0.000000 0.000000 0.000000 1.000000
  27 28.646900 -1.347377 -0.367789 -0.152859 0.071490 0.985659 0.000000 1.000000
GLOVED_knuckle.bmp
  27 28.699135 -1.269480 -0.777060 -0.743504 0.456804 -0.488397 0.000000 1.000000
  27 29.156958 -2.061120 -0.664793 0.000000 0.000000 0.000000 0.000000 1.000000
  27 29.156958 -2.061120 -0.664793 0.437596 -0.281074 -0.854112 0.000000 1.000000
GLOVED_knuckle.bmp
  27 28.699135 -1.269480 -0.777060 0.000000 0.000000 0.000000 0.000000 1.000000
  27 29.156958 -2.061120 -0.664793 0.000000 0.000000 0.000000 0.000000 1.000000
  27 28.699135 -1.269480 -0.777060 -0.743504 0.456804 -0.488397 0.000000 1.000000
GLOVED_knuckle.bmp
  27 29.156958 -2.061120 -0.664793 0.437596 -0.281074 -0.854112 0.000000 1.000000
  27 28.646900 -1.347377 -0.367789 0.000000 0.000000 0.000000 0.000000 1.000000
  27 28.646900 -1.347377 -0.367789 -0.152859 0.071490 0.985659 0.000000 1.000000
GLOVED_knuckle.bmp
  27 29.156958 -2.061120 -0.664793 0.000000 0.000000 0.000000 0.000000 1.000000
  27 28.646900 -1.347377 -0.367789 0.000000 0.000000 0.000000 0.000000 1.000000
  27 29.156958 -2.061120 -0.664793 0.437596 -0.281074 -0.854112 0.000000 1.000000
end
