version 1
nodes
  0 "v_weapon.Bip01_R_Forearm" -1
  1 "v_weapon.Bip01_R_Hand" 0
  2 "v_weapon.Bip01_L_Forearm" -1
  3 "v_weapon.Bip01_L_Hand" 2
  4 "v_weapon.Bip01_R_Finger0" 1
  5 "v_weapon.Bip01_R_Finger01" 4
  6 "v_weapon.Bip01_R_Finger02" 5
  7 "v_weapon.Bip01_R_Finger1" 1
  8 "v_weapon.Bip01_R_Finger11" 7
  9 "v_weapon.Bip01_R_Finger12" 8
  10 "v_weapon.Bip01_R_Finger2" 1
  11 "v_weapon.Bip01_R_Finger21" 10
  12 "v_weapon.Bip01_R_Finger22" 11
  13 "v_weapon.Bip01_R_Finger3" 1
  14 "v_weapon.Bip01_R_Finger31" 13
  15 "v_weapon.Bip01_R_Finger32" 14
  16 "v_weapon.Bip01_R_Finger4" 1
  17 "v_weapon.Bip01_R_Finger41" 16
  18 "v_weapon.Bip01_R_Finger42" 17
  19 "v_weapon.Bip01_L_Finger0" 3
  20 "v_weapon.Bip01_L_Finger01" 19
  21 "v_weapon.Bip01_L_Finger02" 20
  22 "v_weapon.Bip01_L_Finger1" 3
  23 "v_weapon.Bip01_L_Finger11" 22
  24 "v_weapon.Bip01_L_Finger12" 23
  25 "v_weapon.Bip01_L_Finger2" 3
  26 "v_weapon.Bip01_L_Finger21" 25
  27 "v_weapon.Bip01_L_Finger22" 26
  28 "v_weapon.Bip01_L_Finger3" 3
  29 "v_weapon.Bip01_L_Finger31" 28
  30 "v_weapon.Bip01_L_Finger32" 29
  31 "v_weapon.Bip01_L_Finger4" 3
  32 "v_weapon.Bip01_L_Finger41" 31
  33 "v_weapon.Bip01_L_Finger42" 32
  34 "v_weapon.Bip01_L_ForeTwist" -1
  35 "v_weapon.Bip01_R_ForeTwist" -1
  36 "v_weapon" -1
  37 "v_weapon.knife" 36
  38 "v_weapon.front" 37
  39 "v_weapon.blade1" 38
  40 "v_weapon.rear" 39
  41 "v_weapon.lock" 40
end
skeleton
  time 0
    0 -13.300783 2.536592 -4.444207 -2.773828 -0.886912 -1.726391
    1 10.084634 -0.980499 0.000002 3.335141 0.421526 -0.142243
    2 19.543953 -2.087312 -7.952137 -0.465955 -0.071333 -1.504150
    3 10.295582 0.000001 -0.000006 -1.224444 -0.227673 -0.175084
    4 1.149520 0.416502 1.414117 -2.019612 -0.212521 0.859379
    5 1.263885 0.000000 -0.000008 0.010475 -0.004207 0.261017
    6 1.188939 -0.000002 0.000010 0.004290 -0.004302 0.883994
    7 3.773755 0.133215 0.970575 0.064315 0.064033 1.441404
    8 1.433456 0.000000 0.000000 0.082047 -0.025947 1.400638
    9 1.019165 -0.000006 0.000001 0.111253 -0.007179 1.169620
    10 3.799514 0.014957 0.039959 0.061612 0.037515 1.689009
    11 1.774878 0.000000 0.000000 0.019487 -0.092150 1.499632
    12 1.008844 -0.000004 0.000000 0.102121 -0.036158 0.427613
    13 3.632766 0.059052 -0.757493 -0.011391 -0.048828 1.869198
    14 1.500137 0.000002 0.000000 0.117785 -0.032119 0.854834
    15 0.905666 -0.000002 -0.000001 0.110474 -0.051989 1.029571
    16 3.323331 0.233744 -1.479075 0.059018 -0.114598 1.951023
    17 0.963100 0.000011 0.000000 0.060438 0.054818 0.140188
    18 0.682894 -0.000006 -0.000001 0.068025 -0.045158 1.459530
    19 1.149529 0.416498 -1.414117 1.695985 0.643333 0.384411
    20 1.263884 0.000001 0.000000 -0.009336 0.006472 0.475820
    21 1.188946 0.000000 0.000002 -0.011266 0.001906 0.214483
    22 3.773762 0.133217 -0.970574 0.072576 0.165377 0.282516
    23 1.433458 0.000004 0.000000 -0.031256 0.020602 0.681268
    24 1.019165 0.000011 0.000000 -0.031268 0.020602 0.681268
    25 3.799517 0.014957 -0.039958 -0.034554 -0.007829 0.401246
    26 1.774879 0.000004 0.000000 -0.021177 0.011397 0.579787
    27 1.008841 0.000004 0.000000 -0.021165 0.011397 0.579868
    28 3.632765 0.059053 0.757493 -0.281201 -0.185819 0.459243
    29 1.500135 0.000004 0.000000 -0.017006 0.006568 0.424929
    30 0.905668 0.000002 -0.000001 -0.016994 0.006556 0.424929
    31 3.323332 0.233744 1.479075 -0.399082 -0.449085 0.621478
    32 0.963099 0.000010 0.000000 -0.018001 0.008941 0.549273
    33 0.682898 -0.000002 0.000000 -0.017989 0.008941 0.549349
    34 19.543953 -2.087312 -7.952137 0.120722 -0.071397 -1.504196
    35 -13.320315 2.536592 -4.440301 -2.324766 -0.887632 -1.726100
    36 0.000000 3.992340 0.007782 1.570796 0.000000 -1.570796
    37 8.519791 5.968932 12.281625 -1.554989 -1.170557 -0.406680
    38 -0.021929 2.029111 -0.137266 -1.570805 0.000001 0.000000
    39 0.019532 0.000000 0.000000 0.000007 0.000000 0.000001
    40 0.002397 -0.669111 0.409449 1.570796 0.000000 0.000000
    41 -0.002402 -6.221447 0.929182 -0.816253 0.000000 0.000000
  time 1
    0 -11.925741 -1.830728 -5.955972 -2.500677 -0.971936 -1.694638
    1 10.295578 0.000000 0.000002 3.267077 0.382900 -0.000171
    2 18.543922 0.686210 -8.549811 -0.515407 -0.156398 -1.222488
    3 10.295582 0.000001 -0.000006 -1.215968 -0.127189 -0.138849
    4 1.149520 0.416502 1.414117 -2.019612 -0.212521 0.859379
    5 1.263885 0.000000 -0.000008 0.010475 -0.004207 0.261017
    6 1.188939 -0.000002 0.000010 0.004290 -0.004302 0.883994
    7 3.773755 0.133215 0.970575 0.064315 0.064033 1.441404
    8 1.433456 0.000000 0.000000 0.082047 -0.025947 1.400638
    9 1.019165 -0.000006 0.000001 0.111253 -0.007179 1.169620
    10 3.799514 0.014957 0.039959 0.061612 0.037515 1.689009
    11 1.774878 0.000000 0.000000 0.019487 -0.092150 1.499632
    12 1.008844 -0.000004 0.000000 0.102121 -0.036158 0.427613
    13 3.632766 0.059052 -0.757493 -0.011391 -0.048828 1.869198
    14 1.500137 0.000002 0.000000 0.117785 -0.032119 0.854834
    15 0.905666 -0.000002 -0.000001 0.110474 -0.051989 1.029571
    16 3.323331 0.233744 -1.479075 0.059018 -0.114598 1.951023
    17 0.963100 0.000011 0.000000 0.060438 0.054818 0.140188
    18 0.682894 -0.000006 -0.000001 0.068025 -0.045158 1.459530
    19 1.149529 0.416498 -1.414117 1.695985 0.643333 0.384411
    20 1.263884 0.000001 0.000000 -0.009336 0.006472 0.475820
    21 1.188946 0.000000 0.000002 -0.011266 0.001906 0.214483
    22 3.773762 0.133217 -0.970574 0.072576 0.165377 0.282516
    23 1.433458 0.000004 0.000000 -0.031256 0.020602 0.681268
    24 1.019165 0.000011 0.000000 -0.031268 0.020602 0.681268
    25 3.799517 0.014957 -0.039958 -0.034554 -0.007829 0.401246
    26 1.774879 0.000004 0.000000 -0.021177 0.011397 0.579787
    27 1.008841 0.000004 0.000000 -0.021165 0.011397 0.579868
    28 3.632765 0.059053 0.757493 -0.281201 -0.185819 0.459243
    29 1.500135 0.000004 0.000000 -0.017006 0.006568 0.424929
    30 0.905668 0.000002 -0.000001 -0.016994 0.006556 0.424929
    31 3.323332 0.233744 1.479075 -0.399082 -0.449085 0.621478
    32 0.963099 0.000010 0.000000 -0.018001 0.008941 0.549273
    33 0.682898 -0.000002 0.000000 -0.017989 0.008941 0.549349
    34 18.579080 0.686210 -8.549811 0.071596 -0.156325 -1.222668
    35 -11.925741 -1.830728 -5.955972 -2.053601 -0.972497 -1.694634
    36 0.000000 3.992340 0.007782 1.570796 0.000000 -1.570796
    37 12.344127 5.047029 12.117557 -1.280478 -0.945975 -0.647696
    38 -0.021929 2.029111 -0.137266 -1.570805 0.000001 0.000000
    39 0.019532 0.000000 0.007813 0.000007 0.000000 0.000001
    40 0.002397 -0.669111 0.409449 1.570796 0.000000 0.000000
    41 -0.014121 -6.221447 0.929182 -0.816253 0.000000 0.000000
  time 2
    0 -9.296755 -7.756690 -9.096693 -2.166660 -1.165309 -1.649304
    1 10.295578 0.000000 0.000002 2.965292 0.254551 -0.129756
    2 16.789963 1.139349 -10.545966 -0.923339 -0.364255 -0.524006
    3 10.295582 0.000001 -0.000006 -0.933468 0.263480 -0.191534
    4 1.149520 0.416502 1.414117 -2.019612 -0.212521 0.859379
    5 1.263885 0.000000 -0.000008 0.010475 -0.004207 0.261017
    6 1.188939 -0.000002 0.000010 0.004290 -0.004302 0.883994
    7 3.773755 0.133215 0.970575 0.064315 0.064033 1.441404
    8 1.433456 0.000000 0.000000 0.082047 -0.025947 1.400638
    9 1.019165 -0.000006 0.000001 0.111253 -0.007179 1.169620
    10 3.799514 0.014957 0.039959 0.061612 0.037515 1.689009
    11 1.774878 0.000000 0.000000 0.019487 -0.092150 1.499632
    12 1.008844 -0.000004 0.000000 0.102121 -0.036158 0.427613
    13 3.632766 0.059052 -0.757493 -0.011391 -0.048828 1.869198
    14 1.500137 0.000002 0.000000 0.117785 -0.032119 0.854834
    15 0.905666 -0.000002 -0.000001 0.110474 -0.051989 1.029571
    16 3.323331 0.233744 -1.479075 0.059018 -0.114598 1.951023
    17 0.963100 0.000011 0.000000 0.060438 0.054818 0.140188
    18 0.682894 -0.000006 -0.000001 0.068025 -0.045158 1.459530
    19 1.149529 0.416498 -1.414117 1.695985 0.643333 0.384411
    20 1.263884 0.000001 0.000000 -0.009336 0.006472 0.475820
    21 1.188946 0.000000 0.000002 -0.011266 0.001906 0.214483
    22 3.773762 0.133217 -0.970574 0.072576 0.165377 0.282516
    23 1.433458 0.000004 0.000000 -0.031256 0.020602 0.681268
    24 1.019165 0.000011 0.000000 -0.031268 0.020602 0.681268
    25 3.799517 0.014957 -0.039958 -0.034554 -0.007829 0.401246
    26 1.774879 0.000004 0.000000 -0.021177 0.011397 0.579787
    27 1.008841 0.000004 0.000000 -0.021165 0.011397 0.579868
    28 3.632765 0.059053 0.757493 -0.281201 -0.185819 0.459243
    29 1.500135 0.000004 0.000000 -0.017006 0.006568 0.424929
    30 0.905668 0.000002 -0.000001 -0.016994 0.006556 0.424929
    31 3.323332 0.233744 1.479075 -0.399082 -0.449085 0.621478
    32 0.963099 0.000010 0.000000 -0.018001 0.008941 0.549273
    33 0.682898 -0.000002 0.000000 -0.017989 0.008941 0.549349
    34 16.793869 1.139349 -10.549872 -0.336411 -0.364213 -0.524094
    35 -9.296755 -7.756690 -9.096693 -1.725122 -1.165790 -1.649395
    36 0.000000 3.992340 0.007782 1.570796 0.000000 -1.570796
    37 16.109867 2.875088 8.812769 -1.464635 -0.877703 -0.340888
    38 -0.021929 2.029111 -0.137266 -1.570805 0.000001 0.000000
    39 0.019532 0.000000 0.000000 0.000007 0.000000 0.000001
    40 0.014116 -0.669111 0.409449 1.570796 0.000000 0.000000
    41 -0.014121 -6.221447 0.929182 -0.816253 0.000000 0.000000
  time 3
    0 -4.581767 -10.526306 -10.038128 -1.733626 -1.076147 -1.532622
    1 10.295578 0.000000 0.000002 2.225934 -0.029346 -0.431287
    2 17.211851 -0.669300 -10.897539 -1.345805 -0.255124 -0.045816
    3 10.295582 0.000001 -0.000006 -0.471868 0.454231 -0.186940
    4 1.149520 0.416502 1.414117 -2.019612 -0.212521 0.859379
    5 1.263885 0.000000 -0.000008 0.010475 -0.004207 0.261017
    6 1.188939 -0.000002 0.000010 0.004290 -0.004302 0.883994
    7 3.773755 0.133215 0.970575 0.064315 0.064033 1.441404
    8 1.433456 0.000000 0.000000 0.082047 -0.025947 1.400638
    9 1.019165 -0.000006 0.000001 0.111253 -0.007179 1.169620
    10 3.799514 0.014957 0.039959 0.061612 0.037515 1.689009
    11 1.774878 0.000000 0.000000 0.019487 -0.092150 1.499632
    12 1.008844 -0.000004 0.000000 0.102121 -0.036158 0.427613
    13 3.632766 0.059052 -0.757493 -0.011391 -0.048828 1.869198
    14 1.500137 0.000002 0.000000 0.117785 -0.032119 0.854834
    15 0.905666 -0.000002 -0.000001 0.110474 -0.051989 1.029571
    16 3.323331 0.233744 -1.479075 0.059018 -0.114598 1.951023
    17 0.963100 0.000011 0.000000 0.060438 0.054818 0.140188
    18 0.682894 -0.000006 -0.000001 0.068025 -0.045158 1.459530
    19 1.149529 0.416498 -1.414117 1.695985 0.643333 0.384411
    20 1.263884 0.000001 0.000000 -0.009336 0.006472 0.475820
    21 1.188946 0.000000 0.000002 -0.011266 0.001906 0.214483
    22 3.773762 0.133217 -0.970574 0.072576 0.165377 0.282516
    23 1.433458 0.000004 0.000000 -0.031256 0.020602 0.681268
    24 1.019165 0.000011 0.000000 -0.031268 0.020602 0.681268
    25 3.799517 0.014957 -0.039958 -0.034554 -0.007829 0.401246
    26 1.774879 0.000004 0.000000 -0.021177 0.011397 0.579787
    27 1.008841 0.000004 0.000000 -0.021165 0.011397 0.579868
    28 3.632765 0.059053 0.757493 -0.281201 -0.185819 0.459243
    29 1.500135 0.000004 0.000000 -0.017006 0.006568 0.424929
    30 0.905668 0.000002 -0.000001 -0.016994 0.006556 0.424929
    31 3.323332 0.233744 1.479075 -0.399082 -0.449085 0.621478
    32 0.963099 0.000010 0.000000 -0.018001 0.008941 0.549273
    33 0.682898 -0.000002 0.000000 -0.017989 0.008941 0.549349
    34 17.211851 -0.669300 -10.897539 -0.758856 -0.255113 -0.045818
    35 -4.581767 -10.526306 -10.038128 -1.301180 -1.076902 -1.532904
    36 0.000000 3.992340 0.007782 1.570796 0.000000 -1.570796
    37 19.727165 1.296915 2.875088 4.347046 -1.056834 0.100913
    38 -0.021929 2.029111 -0.137266 -1.570805 0.000001 0.000000
    39 0.019532 0.000000 0.007813 0.000007 0.000000 0.000001
    40 0.014116 -0.669111 0.409449 1.570796 0.000000 0.000000
    41 -0.002402 -6.221447 0.929182 -0.816253 0.000000 0.000000
  time 4
    0 -3.612988 -10.264579 -10.534237 -1.649602 -0.972312 -1.520858
    1 10.295578 0.000000 0.000002 2.102901 -0.035921 -0.584722
    2 18.016563 -0.997435 -10.135797 -1.392116 -0.114345 0.016625
    3 10.295582 0.000001 -0.000006 -0.283587 0.341721 -0.251500
    4 1.149520 0.416502 1.414117 -2.019612 -0.212521 0.859379
    5 1.263885 0.000000 -0.000008 0.010475 -0.004207 0.261017
    6 1.188939 -0.000002 0.000010 0.004290 -0.004302 0.883994
    7 3.773755 0.133215 0.970575 0.064315 0.064033 1.441404
    8 1.433456 0.000000 0.000000 0.082047 -0.025947 1.400638
    9 1.019165 -0.000006 0.000001 0.111253 -0.007179 1.169620
    10 3.799514 0.014957 0.039959 0.061612 0.037515 1.689009
    11 1.774878 0.000000 0.000000 0.019487 -0.092150 1.499632
    12 1.008844 -0.000004 0.000000 0.102121 -0.036158 0.427613
    13 3.632766 0.059052 -0.757493 -0.011391 -0.048828 1.869198
    14 1.500137 0.000002 0.000000 0.117785 -0.032119 0.854834
    15 0.905666 -0.000002 -0.000001 0.110474 -0.051989 1.029571
    16 3.323331 0.233744 -1.479075 0.059018 -0.114598 1.951023
    17 0.963100 0.000011 0.000000 0.060438 0.054818 0.140188
    18 0.682894 -0.000006 -0.000001 0.068025 -0.045158 1.459530
    19 1.149529 0.416498 -1.414117 1.695985 0.643333 0.384411
    20 1.263884 0.000001 0.000000 -0.009336 0.006472 0.475820
    21 1.188946 0.000000 0.000002 -0.011266 0.001906 0.214483
    22 3.773762 0.133217 -0.970574 0.072576 0.165377 0.282516
    23 1.433458 0.000004 0.000000 -0.031256 0.020602 0.681268
    24 1.019165 0.000011 0.000000 -0.031268 0.020602 0.681268
    25 3.799517 0.014957 -0.039958 -0.034554 -0.007829 0.401246
    26 1.774879 0.000004 0.000000 -0.021177 0.011397 0.579787
    27 1.008841 0.000004 0.000000 -0.021165 0.011397 0.579868
    28 3.632765 0.059053 0.757493 -0.281201 -0.185819 0.459243
    29 1.500135 0.000004 0.000000 -0.017006 0.006568 0.424929
    30 0.905668 0.000002 -0.000001 -0.016994 0.006556 0.424929
    31 3.323332 0.233744 1.479075 -0.399082 -0.449085 0.621478
    32 0.963099 0.000010 0.000000 -0.018001 0.008941 0.549273
    33 0.682898 -0.000002 0.000000 -0.017989 0.008941 0.549349
    34 18.016563 -0.997435 -10.143610 -0.805544 -0.114259 0.016696
    35 -3.612988 -10.268486 -10.538143 -1.227719 -0.972689 -1.520949
    36 0.000000 3.992340 0.007782 1.570796 0.000000 -1.570796
    37 20.289682 0.304697 1.902402 4.386426 -1.090731 0.122307
    38 -0.021929 2.029111 -0.137266 -1.570805 0.000001 0.000000
    39 0.019532 0.000000 0.007813 0.000007 0.000000 0.000001
    40 0.014116 -0.669111 0.409449 1.570796 0.000000 0.000000
    41 -0.002402 -6.221447 0.929182 -0.816253 0.000000 0.000000
  time 5
    0 -3.581737 -9.557527 -10.784244 -1.634757 -0.907133 -1.534439
    1 10.295578 0.000000 0.000002 2.105629 -0.008310 -0.706533
    2 18.106409 -0.891963 -9.987355 -1.346236 -0.096612 -0.009493
    3 10.295582 0.000001 -0.000006 -0.311829 0.306841 -0.259601
    4 1.149520 0.416502 1.414117 -2.019612 -0.212521 0.859379
    5 1.263885 0.000000 -0.000008 0.010475 -0.004207 0.261017
    6 1.188939 -0.000002 0.000010 0.004290 -0.004302 0.883994
    7 3.773755 0.133215 0.970575 0.064315 0.064033 1.441404
    8 1.433456 0.000000 0.000000 0.082047 -0.025947 1.400638
    9 1.019165 -0.000006 0.000001 0.111253 -0.007179 1.169620
    10 3.799514 0.014957 0.039959 0.061612 0.037515 1.689009
    11 1.774878 0.000000 0.000000 0.019487 -0.092150 1.499632
    12 1.008844 -0.000004 0.000000 0.102121 -0.036158 0.427613
    13 3.632766 0.059052 -0.757493 -0.011391 -0.048828 1.869198
    14 1.500137 0.000002 0.000000 0.117785 -0.032119 0.854834
    15 0.905666 -0.000002 -0.000001 0.110474 -0.051989 1.029571
    16 3.323331 0.233744 -1.479075 0.059018 -0.114598 1.951023
    17 0.963100 0.000011 0.000000 0.060438 0.054818 0.140188
    18 0.682894 -0.000006 -0.000001 0.068025 -0.045158 1.459530
    19 1.149529 0.416498 -1.414117 1.695985 0.643333 0.384411
    20 1.263884 0.000001 0.000000 -0.009336 0.006472 0.475820
    21 1.188946 0.000000 0.000002 -0.011266 0.001906 0.214483
    22 3.773762 0.133217 -0.970574 0.072576 0.165377 0.282516
    23 1.433458 0.000004 0.000000 -0.031256 0.020602 0.681268
    24 1.019165 0.000011 0.000000 -0.031268 0.020602 0.681268
    25 3.799517 0.014957 -0.039958 -0.034554 -0.007829 0.401246
    26 1.774879 0.000004 0.000000 -0.021177 0.011397 0.579787
    27 1.008841 0.000004 0.000000 -0.021165 0.011397 0.579868
    28 3.632765 0.059053 0.757493 -0.281201 -0.185819 0.459243
    29 1.500135 0.000004 0.000000 -0.017006 0.006568 0.424929
    30 0.905668 0.000002 -0.000001 -0.016994 0.006556 0.424929
    31 3.323332 0.233744 1.479075 -0.399082 -0.449085 0.621478
    32 0.963099 0.000010 0.000000 -0.018001 0.008941 0.549273
    33 0.682898 -0.000002 0.000000 -0.017989 0.008941 0.549349
    34 18.106409 -0.891963 -9.987355 -0.759512 -0.096456 -0.009280
    35 -3.581737 -9.557527 -10.784244 -1.225069 -0.907364 -1.534626
    36 0.000000 3.992340 0.007782 1.570796 0.000000 -1.570796
    37 20.000610 -0.261727 1.996155 4.456276 -1.087771 0.116627
    38 -0.021929 2.029111 -0.137266 -1.570805 0.000001 0.000000
    39 0.007813 0.000000 0.000000 0.000007 0.000000 0.000001
    40 0.002397 -0.669111 0.409449 1.570796 0.000000 0.000000
    41 -0.002402 -6.221447 0.929182 -0.816253 0.000000 0.000000
  time 6
    0 -3.589549 -9.643467 -10.100630 -1.636390 -0.903559 -1.535778
    1 10.295578 0.000000 0.000002 2.113472 -0.043661 -0.647719
    2 18.168911 -0.829461 -9.889696 -1.316922 -0.088342 -0.025906
    3 10.295582 0.000001 -0.000006 -0.320696 0.295939 -0.231429
    4 1.149520 0.416502 1.414117 -2.019612 -0.212521 0.859379
    5 1.263885 0.000000 -0.000008 0.010475 -0.004207 0.261017
    6 1.188939 -0.000002 0.000010 0.004290 -0.004302 0.883994
    7 3.773755 0.133215 0.970575 0.064315 0.064033 1.441404
    8 1.433456 0.000000 0.000000 0.082047 -0.025947 1.400638
    9 1.019165 -0.000006 0.000001 0.111253 -0.007179 1.169620
    10 3.799514 0.014957 0.039959 0.061612 0.037515 1.689009
    11 1.774878 0.000000 0.000000 0.019487 -0.092150 1.499632
    12 1.008844 -0.000004 0.000000 0.102121 -0.036158 0.427613
    13 3.632766 0.059052 -0.757493 -0.011391 -0.048828 1.869198
    14 1.500137 0.000002 0.000000 0.117785 -0.032119 0.854834
    15 0.905666 -0.000002 -0.000001 0.110474 -0.051989 1.029571
    16 3.323331 0.233744 -1.479075 0.059018 -0.114598 1.951023
    17 0.963100 0.000011 0.000000 0.060438 0.054818 0.140188
    18 0.682894 -0.000006 -0.000001 0.068025 -0.045158 1.459530
    19 1.149529 0.416498 -1.414117 1.695985 0.643333 0.384411
    20 1.263884 0.000001 0.000000 -0.009336 0.006472 0.475820
    21 1.188946 0.000000 0.000002 -0.011266 0.001906 0.214483
    22 3.773762 0.133217 -0.970574 0.072576 0.165377 0.282516
    23 1.433458 0.000004 0.000000 -0.031256 0.020602 0.681268
    24 1.019165 0.000011 0.000000 -0.031268 0.020602 0.681268
    25 3.799517 0.014957 -0.039958 -0.034554 -0.007829 0.401246
    26 1.774879 0.000004 0.000000 -0.021177 0.011397 0.579787
    27 1.008841 0.000004 0.000000 -0.021165 0.011397 0.579868
    28 3.632765 0.059053 0.757493 -0.281201 -0.185819 0.459243
    29 1.500135 0.000004 0.000000 -0.017006 0.006568 0.424929
    30 0.905668 0.000002 -0.000001 -0.016994 0.006556 0.424929
    31 3.323332 0.233744 1.479075 -0.399082 -0.449085 0.621478
    32 0.963099 0.000010 0.000000 -0.018001 0.008941 0.549273
    33 0.682898 -0.000002 0.000000 -0.017989 0.008941 0.549349
    34 18.168911 -0.829461 -9.889696 -0.730449 -0.088296 -0.025979
    35 -3.589549 -9.643467 -10.096723 -1.240168 -0.903820 -1.535869
    36 0.000000 3.992340 0.007782 1.570796 0.000000 -1.570796
    37 20.250618 0.312510 1.925840 4.381252 -1.081087 0.119562
    38 -0.021929 2.029111 -0.137266 -1.570805 0.000001 0.000000
    39 0.007813 0.000000 0.007813 0.000007 0.000000 0.000001
    40 0.002397 -0.669111 0.409449 1.570796 0.000000 0.000000
    41 -0.002402 -6.221447 0.929182 -0.816253 0.000000 0.000000
  time 7
    0 -3.612988 -9.510650 -9.475611 -1.639730 -0.900832 -1.537691
    1 10.295578 0.000000 0.000002 2.120292 -0.077119 -0.592183
    2 18.168911 -0.731802 -9.838913 -1.276523 -0.082190 -0.050240
    3 10.295582 0.000001 -0.000006 -0.341790 0.291289 -0.180383
    4 1.149520 0.416502 1.414117 -2.019612 -0.212521 0.859379
    5 1.263885 0.000000 -0.000008 0.010475 -0.004207 0.261017
    6 1.188939 -0.000002 0.000010 0.004290 -0.004302 0.883994
    7 3.773755 0.133215 0.970575 0.064315 0.064033 1.441404
    8 1.433456 0.000000 0.000000 0.082047 -0.025947 1.400638
    9 1.019165 -0.000006 0.000001 0.111253 -0.007179 1.169620
    10 3.799514 0.014957 0.039959 0.061612 0.037515 1.689009
    11 1.774878 0.000000 0.000000 0.019487 -0.092150 1.499632
    12 1.008844 -0.000004 0.000000 0.102121 -0.036158 0.427613
    13 3.632766 0.059052 -0.757493 -0.011391 -0.048828 1.869198
    14 1.500137 0.000002 0.000000 0.117785 -0.032119 0.854834
    15 0.905666 -0.000002 -0.000001 0.110474 -0.051989 1.029571
    16 3.323331 0.233744 -1.479075 0.059018 -0.114598 1.951023
    17 0.963100 0.000011 0.000000 0.060438 0.054818 0.140188
    18 0.682894 -0.000006 -0.000001 0.068025 -0.045158 1.459530
    19 1.149529 0.416498 -1.414117 1.695985 0.643333 0.384411
    20 1.263884 0.000001 0.000000 -0.009336 0.006472 0.475820
    21 1.188946 0.000000 0.000002 -0.011266 0.001906 0.214483
    22 3.773762 0.133217 -0.970574 0.072576 0.165377 0.282516
    23 1.433458 0.000004 0.000000 -0.031256 0.020602 0.681268
    24 1.019165 0.000011 0.000000 -0.031268 0.020602 0.681268
    25 3.799517 0.014957 -0.039958 -0.034554 -0.007829 0.401246
    26 1.774879 0.000004 0.000000 -0.021177 0.011397 0.579787
    27 1.008841 0.000004 0.000000 -0.021165 0.011397 0.579868
    28 3.632765 0.059053 0.757493 -0.281201 -0.185819 0.459243
    29 1.500135 0.000004 0.000000 -0.017006 0.006568 0.424929
    30 0.905668 0.000002 -0.000001 -0.016994 0.006556 0.424929
    31 3.323332 0.233744 1.479075 -0.399082 -0.449085 0.621478
    32 0.963099 0.000010 0.000000 -0.018001 0.008941 0.549273
    33 0.682898 -0.000002 0.000000 -0.017989 0.008941 0.549349
    34 18.168911 -0.731802 -9.838913 -0.690042 -0.082090 -0.050171
    35 -3.612988 -9.514557 -9.467798 -1.257609 -0.900946 -1.537973
    36 0.000000 3.992340 0.007782 1.570796 0.000000 -1.570796
    37 20.293588 0.843776 1.890683 4.309774 -1.076122 0.122875
    38 -0.021929 2.029111 -0.137266 -1.570805 0.000001 0.000000
    39 0.019532 0.000000 0.007813 0.000007 0.000000 0.000001
    40 0.002397 -0.669111 0.409449 1.570796 0.000000 0.000000
    41 -0.014121 -6.221447 0.929182 -0.816253 0.000000 0.000000
  time 8
    0 -4.671614 -9.245017 -8.877936 -1.805551 -0.961496 -1.432581
    1 10.295578 0.000000 0.000002 2.141093 0.169632 -0.539300
    2 18.168911 -0.520858 -9.776411 -1.194678 -0.067425 -0.099265
    3 10.295582 0.000001 -0.000006 -0.412415 0.281244 -0.123581
    4 1.149520 0.416502 1.414117 -2.019612 -0.212521 0.859379
    5 1.263885 0.000000 -0.000008 0.010475 -0.004207 0.261017
    6 1.188939 -0.000002 0.000010 0.004290 -0.004302 0.883994
    7 3.773755 0.133215 0.970575 0.063992 0.063937 1.436673
    8 1.433456 0.000000 0.000000 0.082130 -0.025347 1.395800
    9 1.019165 -0.000006 0.000001 0.111289 -0.006604 1.165732
    10 3.799514 0.014957 0.039959 0.061291 0.038007 1.684534
    11 1.774878 0.000000 0.000000 0.019823 -0.092066 1.494134
    12 1.008844 -0.000004 0.000000 0.102205 -0.036098 0.425401
    13 3.632766 0.059052 -0.757493 -0.011158 -0.048696 1.864461
    14 1.500137 0.000002 0.000000 0.117821 -0.031496 0.851827
    15 0.905666 -0.000002 -0.000001 0.110678 -0.051654 1.025770
    16 3.323331 0.233744 -1.479075 0.059689 -0.113741 1.945457
    17 0.963100 0.000011 0.000000 0.060402 0.054818 0.139795
    18 0.682894 -0.000006 -0.000001 0.068132 -0.044703 1.454452
    19 1.149529 0.416498 -1.414117 1.695985 0.643333 0.384411
    20 1.263884 0.000001 0.000000 -0.009336 0.006472 0.475820
    21 1.188946 0.000000 0.000002 -0.011266 0.001906 0.214483
    22 3.773762 0.133217 -0.970574 0.072576 0.165377 0.282516
    23 1.433458 0.000004 0.000000 -0.031256 0.020602 0.681268
    24 1.019165 0.000011 0.000000 -0.031268 0.020602 0.681268
    25 3.799517 0.014957 -0.039958 -0.034554 -0.007829 0.401246
    26 1.774879 0.000004 0.000000 -0.021177 0.011397 0.579787
    27 1.008841 0.000004 0.000000 -0.021165 0.011397 0.579868
    28 3.632765 0.059053 0.757493 -0.281201 -0.185819 0.459243
    29 1.500135 0.000004 0.000000 -0.017006 0.006568 0.424929
    30 0.905668 0.000002 -0.000001 -0.016994 0.006556 0.424929
    31 3.323332 0.233744 1.479075 -0.399082 -0.449085 0.621478
    32 0.963099 0.000010 0.000000 -0.018001 0.008941 0.549273
    33 0.682898 -0.000002 0.000000 -0.017989 0.008941 0.549349
    34 18.168911 -0.520858 -9.776411 -0.608103 -0.067398 -0.099483
    35 -4.671614 -9.245017 -8.874030 -1.437502 -0.961961 -1.432863
    36 0.000000 3.992340 0.007782 1.570796 0.000000 -1.570796
    37 19.438093 2.039125 2.726646 4.649248 -1.100757 -0.151369
    38 -0.021929 2.029111 -0.137266 -1.570805 0.000001 0.000000
    39 0.007813 0.000000 0.007813 0.000007 0.000000 0.000001
    40 0.002397 -0.669111 0.409449 1.570796 0.000000 0.000000
    41 -0.002402 -6.221447 0.929182 -0.816253 0.000000 0.000000
  time 9
    0 -6.863087 -8.823129 -8.096662 -2.171188 -0.994321 -1.196156
    1 10.295578 0.000000 0.000002 2.187742 0.694747 -0.583723
    2 18.157192 -0.024749 -9.651407 -1.027662 -0.031235 -0.202810
    3 10.295582 0.000001 -0.000006 -0.590110 0.256562 -0.077491
    4 1.149520 0.416502 1.414117 -2.019612 -0.212521 0.859379
    5 1.263885 0.000000 -0.000008 0.010475 -0.004207 0.261017
    6 1.188939 -0.000002 0.000010 0.004290 -0.004302 0.883994
    7 3.773755 0.133215 0.970575 0.049361 0.051545 1.242121
    8 1.433456 0.000000 0.000000 0.085654 -0.010127 1.213311
    9 1.019165 -0.000006 0.000001 0.110822 0.009959 1.015055
    10 3.799514 0.014957 0.039959 0.052203 0.048158 1.479588
    11 1.774878 0.000000 0.000000 0.038530 -0.085846 1.283824
    12 1.008844 -0.000004 0.000000 0.104877 -0.026917 0.339088
    13 3.632766 0.059052 -0.757493 -0.001916 -0.038029 1.659851
    14 1.500137 0.000002 0.000000 0.120984 -0.014945 0.712448
    15 0.905666 -0.000002 -0.000001 0.117030 -0.034635 0.878858
    16 3.323331 0.233744 -1.479075 0.083850 -0.079174 1.727212
    17 0.963100 0.000011 0.000000 0.059492 0.055632 0.123847
    18 0.682894 -0.000006 -0.000001 0.075695 -0.030717 1.262016
    19 1.149529 0.416498 -1.414117 1.695985 0.643333 0.384411
    20 1.263884 0.000001 0.000000 -0.009336 0.006472 0.475820
    21 1.188946 0.000000 0.000002 -0.011266 0.001906 0.214483
    22 3.773762 0.133217 -0.970574 0.072576 0.165377 0.282516
    23 1.433458 0.000004 0.000000 -0.031256 0.020602 0.681268
    24 1.019165 0.000011 0.000000 -0.031268 0.020602 0.681268
    25 3.799517 0.014957 -0.039958 -0.034554 -0.007829 0.401246
    26 1.774879 0.000004 0.000000 -0.021177 0.011397 0.579787
    27 1.008841 0.000004 0.000000 -0.021165 0.011397 0.579868
    28 3.632765 0.059053 0.757493 -0.281201 -0.185819 0.459243
    29 1.500135 0.000004 0.000000 -0.017006 0.006568 0.424929
    30 0.905668 0.000002 -0.000001 -0.016994 0.006556 0.424929
    31 3.323332 0.233744 1.479075 -0.399082 -0.449085 0.621478
    32 0.963099 0.000010 0.000000 -0.018001 0.008941 0.549273
    33 0.682898 -0.000002 0.000000 -0.017989 0.008941 0.549349
    34 18.161098 -0.036469 -9.651407 -0.440944 -0.031249 -0.202888
    35 -6.863087 -8.823129 -8.096662 -1.815654 -0.994432 -1.196438
    36 0.000000 3.992340 0.007782 1.570796 0.000000 -1.570796
    37 17.934141 3.257912 4.535295 -0.975880 -0.987034 -0.551517
    38 -0.021929 2.029111 -0.137266 -1.570805 0.000001 0.000000
    39 0.019532 0.000000 0.007813 0.000007 0.000000 0.000001
    40 0.002397 -0.669111 0.409449 1.570796 0.000000 0.000000
    41 -0.014121 -6.221447 0.929182 -0.816253 0.000000 0.000000
  time 10
    0 -7.917806 -8.373897 -7.815404 -2.312514 -0.973723 -1.132459
    1 10.295578 0.000000 0.000002 2.296112 0.838624 -0.550757
    2 17.907184 1.221382 -9.338898 -0.745238 0.037906 -0.420461
    3 10.295582 0.000001 -0.000006 -0.914367 0.191243 -0.010834
    4 1.149520 0.416502 1.414117 -2.025313 -0.263869 0.857450
    5 1.263885 0.000000 -0.000008 0.010403 -0.004267 0.273883
    6 1.188939 -0.000002 0.000010 0.004231 -0.004698 0.935873
    7 3.773755 0.133215 0.970575 0.014750 0.016262 0.840444
    8 1.433456 0.000000 0.000000 0.083329 0.022160 0.834181
    9 1.019165 -0.000006 0.000001 0.102265 0.043912 0.701327
    10 3.799514 0.014957 0.039959 0.027047 0.062216 1.055049
    11 1.774878 0.000000 0.000000 0.071200 -0.061193 0.847087
    12 1.008844 -0.000004 0.000000 0.108161 -0.007934 0.159684
    13 3.632766 0.059052 -0.757493 0.016415 -0.009890 1.233688
    14 1.500137 0.000002 0.000000 0.120181 0.020266 0.423962
    15 0.905666 -0.000002 -0.000001 0.122135 0.001918 0.574245
    16 3.323331 0.233744 -1.479075 0.119912 0.007464 1.270098
    17 0.963100 0.000011 0.000000 0.057814 0.057766 0.090817
    18 0.682894 -0.000006 -0.000001 0.081735 0.000995 0.862436
    19 1.149529 0.416498 -1.414117 1.695985 0.643333 0.384411
    20 1.263884 0.000001 0.000000 -0.009336 0.006472 0.475820
    21 1.188946 0.000000 0.000002 -0.011266 0.001906 0.214483
    22 3.773762 0.133217 -0.970574 0.072576 0.165377 0.282516
    23 1.433458 0.000004 0.000000 -0.031256 0.020602 0.681268
    24 1.019165 0.000011 0.000000 -0.031268 0.020602 0.681268
    25 3.799517 0.014957 -0.039958 -0.034554 -0.007829 0.401246
    26 1.774879 0.000004 0.000000 -0.021177 0.011397 0.579787
    27 1.008841 0.000004 0.000000 -0.021165 0.011397 0.579868
    28 3.632765 0.059053 0.757493 -0.281201 -0.185819 0.459243
    29 1.500135 0.000004 0.000000 -0.017006 0.006568 0.424929
    30 0.905668 0.000002 -0.000001 -0.016994 0.006556 0.424929
    31 3.323332 0.233744 1.479075 -0.399082 -0.449085 0.621478
    32 0.963099 0.000010 0.000000 -0.018001 0.008941 0.549273
    33 0.682898 -0.000002 0.000000 -0.017989 0.008941 0.549349
    34 17.907184 1.221382 -9.358430 -0.158564 0.037939 -0.420760
    35 -7.917806 -8.373897 -7.807591 -1.969540 -0.974030 -1.132645
    36 0.000000 3.992340 0.007782 1.570796 0.000000 -1.570796
    37 17.367718 3.554796 5.265786 -0.800538 -0.892026 -0.708755
    38 -0.021929 2.029111 -0.137266 -1.570805 0.000001 0.000000
    39 0.019532 0.000000 0.007813 0.000007 0.000000 0.000001
    40 0.002397 -0.669111 0.409449 1.570796 0.000000 0.000000
    41 -0.002402 -6.221447 0.929182 -0.816253 0.000000 0.000000
  time 11
    0 -8.136563 -7.823099 -8.065411 -2.306873 -0.954160 -1.165360
    1 10.295578 0.000000 0.000002 2.367722 0.737425 -0.520944
    2 18.040001 2.725335 -7.952137 -0.427157 0.235811 -0.749150
    3 10.295582 0.000001 -0.000006 -1.343194 0.059616 0.069718
    4 1.149520 0.416502 1.414117 -2.036543 -0.471105 0.847482
    5 1.263885 0.000000 -0.000008 0.010139 -0.004902 0.326016
    6 1.188939 -0.000002 0.000010 0.003152 -0.005465 1.145906
    7 3.773755 0.133215 0.970575 -0.025905 -0.042007 0.381159
    8 1.433456 0.000000 0.000000 0.065712 0.055597 0.395909
    9 1.019165 -0.000006 0.000001 0.080201 0.077373 0.338820
    10 3.799514 0.014957 0.039959 -0.007184 0.063666 0.565212
    11 1.774878 0.000000 0.000000 0.092150 -0.019223 0.345603
    12 1.008844 -0.000004 0.000000 0.107502 0.014358 -0.046740
    13 3.632766 0.059052 -0.757493 0.032092 0.033111 0.737910
    14 1.500137 0.000002 0.000000 0.106939 0.058689 0.090645
    15 0.905666 -0.000002 -0.000001 0.113902 0.043936 0.223011
    16 3.323331 0.233744 -1.479075 0.129775 0.122321 0.726800
    17 0.963100 0.000011 0.000000 0.055573 0.059935 0.052601
    18 0.682894 -0.000006 -0.000001 0.072675 0.037104 0.401352
    19 1.149529 0.416498 -1.414117 1.695985 0.643333 0.384411
    20 1.263884 0.000001 0.000000 -0.009336 0.006472 0.475820
    21 1.188946 0.000000 0.000002 -0.011266 0.001906 0.214483
    22 3.773762 0.133217 -0.970574 0.072576 0.165377 0.282516
    23 1.433458 0.000004 0.000000 -0.031256 0.020602 0.681268
    24 1.019165 0.000011 0.000000 -0.031268 0.020602 0.681268
    25 3.799517 0.014957 -0.039958 -0.034554 -0.007829 0.401246
    26 1.774879 0.000004 0.000000 -0.021177 0.011397 0.579787
    27 1.008841 0.000004 0.000000 -0.021165 0.011397 0.579868
    28 3.632765 0.059053 0.757493 -0.281201 -0.185819 0.459243
    29 1.500135 0.000004 0.000000 -0.017006 0.006568 0.424929
    30 0.905668 0.000002 -0.000001 -0.016994 0.006556 0.424929
    31 3.323332 0.233744 1.479075 -0.399082 -0.449085 0.621478
    32 0.963099 0.000010 0.000000 -0.018001 0.008941 0.549273
    33 0.682898 -0.000002 0.000000 -0.017989 0.008941 0.549349
    34 18.040001 2.725335 -7.952137 0.159535 0.235948 -0.749459
    35 -8.136563 -7.823099 -8.061505 -1.974840 -0.954011 -1.165450
    36 0.000000 3.992340 0.007782 1.570796 0.000000 -1.570796
    37 17.125523 3.265725 5.203284 -0.821330 -0.916279 -0.789504
    38 -0.021929 2.029111 -0.137266 -1.570805 0.000001 0.000000
    39 0.007813 0.000000 0.007813 0.000007 0.000000 0.000001
    40 0.002397 -0.669111 0.409449 1.570796 0.000000 0.000000
    41 -0.002402 -6.221447 0.929182 -0.816253 0.000000 0.000000
  time 12
    0 -8.238129 -7.174641 -8.381827 -2.300638 -0.924345 -1.176837
    1 10.295578 0.000000 0.000002 2.407892 0.584983 -0.465158
    2 18.770492 2.936278 -6.241147 -0.305221 0.487910 -1.116160
    3 10.295582 0.000001 -0.000006 -1.667139 -0.080436 0.162317
    4 1.149520 0.416502 1.414117 -2.019145 -0.720776 0.823091
    5 1.263885 0.000000 -0.000008 0.009720 -0.005597 0.389559
    6 1.188939 -0.000002 0.000010 0.001630 -0.005932 1.401951
    7 3.773755 0.133215 0.970575 -0.054435 -0.100863 0.022458
    8 1.433456 0.000000 0.000000 0.043121 0.074676 0.049831
    9 1.019165 -0.000006 0.000001 0.054830 0.096824 0.052118
    10 3.799514 0.014957 0.039959 -0.033652 0.052904 0.179679
    11 1.774878 0.000000 0.000000 0.092557 0.017462 -0.048095
    12 1.008844 -0.000004 0.000000 0.103691 0.031507 -0.209733
    13 3.632766 0.059052 -0.757493 0.037050 0.073248 0.335547
    14 1.500137 0.000002 0.000000 0.088111 0.084419 -0.172136
    15 0.905666 -0.000002 -0.000001 0.097519 0.073490 -0.054047
    16 3.323331 0.233744 -1.479075 0.107196 0.214504 0.255156
    17 0.963100 0.000011 0.000000 0.053691 0.061565 0.023100
    18 0.682894 -0.000006 -0.000001 0.054698 0.060738 0.037974
    19 1.149529 0.416498 -1.414117 1.695985 0.643333 0.384411
    20 1.263884 0.000001 0.000000 -0.009336 0.006472 0.475820
    21 1.188946 0.000000 0.000002 -0.011266 0.001906 0.214483
    22 3.773762 0.133217 -0.970574 0.072576 0.165377 0.282516
    23 1.433458 0.000004 0.000000 -0.031256 0.020602 0.681268
    24 1.019165 0.000011 0.000000 -0.031268 0.020602 0.681268
    25 3.799517 0.014957 -0.039958 -0.034554 -0.007829 0.401246
    26 1.774879 0.000004 0.000000 -0.021177 0.011397 0.579787
    27 1.008841 0.000004 0.000000 -0.021165 0.011397 0.579868
    28 3.632765 0.059053 0.757493 -0.281201 -0.185819 0.459243
    29 1.500135 0.000004 0.000000 -0.017006 0.006568 0.424929
    30 0.905668 0.000002 -0.000001 -0.016994 0.006556 0.424929
    31 3.323332 0.233744 1.479075 -0.399082 -0.449085 0.621478
    32 0.963099 0.000010 0.000000 -0.018001 0.008941 0.549273
    33 0.682898 -0.000002 0.000000 -0.017989 0.008941 0.549349
    34 18.774398 2.924559 -6.241147 0.281225 0.487947 -1.116194
    35 -8.238129 -7.174641 -8.385734 -1.977058 -0.925563 -1.176927
    36 0.000000 3.992340 0.007782 1.570796 0.000000 -1.570796
    37 16.938017 2.718833 4.886868 -1.098428 -0.998206 -0.602257
    38 -0.021929 2.029111 -0.137266 -1.570805 0.000001 0.000000
    39 0.019532 0.000000 0.007813 -0.011858 0.000000 0.000001
    40 0.014116 -0.669111 0.409449 1.564611 0.000000 0.000000
    41 -0.014121 -6.221447 0.929182 -0.816253 0.000000 0.000000
  time 13
    0 -9.699111 -6.041794 -7.913063 -2.448125 -0.717993 -1.029549
    1 10.295578 0.000000 0.000002 2.305319 0.493562 -0.273232
    2 19.411136 1.819057 -5.944263 -0.439597 0.598362 -1.524345
    3 10.295582 0.000001 -0.000006 -1.770224 -0.159991 0.249598
    4 1.149520 0.416502 1.414117 -2.000076 -0.807632 0.806794
    5 1.263885 0.000000 -0.000008 0.009708 -0.005765 0.412163
    6 1.188939 -0.000002 0.000010 0.001067 -0.006268 1.493150
    7 3.773755 0.133215 0.970575 -0.062166 -0.120302 -0.083208
    8 1.433456 0.000000 0.000000 0.035211 0.078751 -0.052582
    9 1.019165 -0.000006 0.000001 0.046284 0.101318 -0.032921
    10 3.799514 0.014957 0.039959 -0.040744 0.047582 0.064797
    11 1.774878 0.000000 0.000000 0.089813 0.028248 -0.165835
    12 1.008844 -0.000004 0.000000 0.101977 0.036769 -0.258348
    13 3.632766 0.059052 -0.757493 0.036105 0.087162 0.187956
    14 1.500137 0.000002 0.000000 0.081220 0.091335 -0.250519
    15 0.905666 -0.000002 -0.000001 0.091059 0.081268 -0.136959
    16 3.323331 0.233744 -1.479075 0.086954 0.247343 0.024724
    17 0.963100 0.000011 0.000000 0.053164 0.061852 0.014037
    18 0.682894 -0.000006 -0.000001 0.047759 0.066287 -0.069976
    19 1.149529 0.416498 -1.414117 1.695985 0.643333 0.384411
    20 1.263884 0.000001 0.000000 -0.009336 0.006472 0.475820
    21 1.188946 0.000000 0.000002 -0.011266 0.001906 0.214483
    22 3.773762 0.133217 -0.970574 0.072576 0.165377 0.282516
    23 1.433458 0.000004 0.000000 -0.031256 0.020602 0.681268
    24 1.019165 0.000011 0.000000 -0.031268 0.020602 0.681268
    25 3.799517 0.014957 -0.039958 -0.034554 -0.007829 0.401246
    26 1.774879 0.000004 0.000000 -0.021177 0.011397 0.579787
    27 1.008841 0.000004 0.000000 -0.021165 0.011397 0.579868
    28 3.632765 0.059053 0.757493 -0.281201 -0.185819 0.459243
    29 1.500135 0.000004 0.000000 -0.017006 0.006568 0.424929
    30 0.905668 0.000002 -0.000001 -0.016994 0.006556 0.424929
    31 3.323332 0.233744 1.479075 -0.399082 -0.449085 0.621478
    32 0.963099 0.000010 0.000000 -0.018001 0.008941 0.549273
    33 0.682898 -0.000002 0.000000 -0.017989 0.008941 0.549349
    34 19.411136 1.819057 -5.944263 0.146785 0.598296 -1.524677
    35 -9.699111 -6.041794 -7.913063 -2.130082 -0.718477 -1.029448
    36 0.000000 3.992340 0.007782 1.570796 0.000000 -1.570796
    37 17.719291 1.140660 4.105594 -1.409637 -1.257640 -0.659340
    38 -0.021929 2.029111 -0.137266 -1.570805 0.000001 0.000000
    39 0.019532 0.000000 0.000000 -0.469607 0.000000 0.000001
    40 0.002397 -0.669111 0.409449 1.263551 0.000000 0.000000
    41 -0.002402 -6.221447 0.929182 -0.816253 0.000000 0.000000
  time 14
    0 -11.769486 -5.381618 -6.147384 -2.599620 -0.358805 -0.861221
    1 10.295578 0.000000 0.000002 2.181263 0.460225 -0.080182
    2 19.657238 0.178382 -6.854447 -0.637651 0.553848 -1.897849
    3 10.295582 0.000001 -0.000006 -1.743935 -0.187952 0.321592
    4 1.149520 0.416502 1.414117 -2.000076 -0.807632 0.806794
    5 1.263885 0.000000 -0.000008 0.009708 -0.005765 0.412163
    6 1.188939 -0.000002 0.000010 0.001067 -0.006268 1.493150
    7 3.773755 0.133215 0.970575 -0.062166 -0.120302 -0.083208
    8 1.433456 0.000000 0.000000 0.035211 0.078751 -0.052582
    9 1.019165 -0.000006 0.000001 0.046284 0.101318 -0.032921
    10 3.799514 0.014957 0.039959 -0.040744 0.047582 0.064797
    11 1.774878 0.000000 0.000000 0.089813 0.028248 -0.165835
    12 1.008844 -0.000004 0.000000 0.101977 0.036769 -0.258348
    13 3.632766 0.059052 -0.757493 0.034448 0.088804 0.155852
    14 1.500137 0.000002 0.000000 0.081220 0.091335 -0.250519
    15 0.905666 -0.000002 -0.000001 0.091059 0.081268 -0.136959
    16 3.323331 0.233744 -1.479075 0.073124 0.255486 -0.079565
    17 0.963100 0.000011 0.000000 0.053164 0.061852 0.014037
    18 0.682894 -0.000006 -0.000001 0.047759 0.066287 -0.069976
    19 1.149529 0.416498 -1.414117 1.695985 0.643333 0.384411
    20 1.263884 0.000001 0.000000 -0.009336 0.006472 0.475820
    21 1.188946 0.000000 0.000002 -0.011266 0.001906 0.214483
    22 3.773762 0.133217 -0.970574 0.072576 0.165377 0.282516
    23 1.433458 0.000004 0.000000 -0.031256 0.020602 0.681268
    24 1.019165 0.000011 0.000000 -0.031268 0.020602 0.681268
    25 3.799517 0.014957 -0.039958 -0.034554 -0.007829 0.401246
    26 1.774879 0.000004 0.000000 -0.021177 0.011397 0.579787
    27 1.008841 0.000004 0.000000 -0.021165 0.011397 0.579868
    28 3.632765 0.059053 0.757493 -0.281201 -0.185819 0.459243
    29 1.500135 0.000004 0.000000 -0.017006 0.006568 0.424929
    30 0.905668 0.000002 -0.000001 -0.016994 0.006556 0.424929
    31 3.323332 0.233744 1.479075 -0.399082 -0.449085 0.621478
    32 0.963099 0.000010 0.000000 -0.018001 0.008941 0.549273
    33 0.682898 -0.000002 0.000000 -0.017989 0.008941 0.549349
    34 19.661144 0.178382 -6.854447 -0.050937 0.553769 -1.898049
    35 -11.769486 -5.381618 -6.147384 -2.283598 -0.359094 -0.861406
    36 0.000000 3.992340 0.007782 1.570796 0.000000 -1.570796
    37 18.551347 -1.531297 3.359478 3.099147 -1.385686 0.713772
    38 -0.021929 2.029111 -0.137266 -1.570805 0.000001 0.000000
    39 0.019532 0.000000 0.007813 -1.363864 0.000000 0.000001
    40 0.002397 -0.669111 0.409449 0.743261 0.000000 0.000000
    41 -0.002402 -6.221447 0.929182 -0.816253 0.000000 0.000000
  time 15
    0 -12.832019 -5.510528 -4.506709 -2.661673 -0.079656 -7.041267
    1 10.295578 0.000000 0.000002 2.176557 0.306861 -0.027549
    2 19.329103 -1.727926 -8.307616 -0.768332 0.429065 -2.152465
    3 10.295582 0.000001 -0.000006 -1.650342 -0.182673 0.362802
    4 1.149520 0.416502 1.414117 -2.000076 -0.807632 0.806794
    5 1.263885 0.000000 -0.000008 0.009708 -0.005765 0.412163
    6 1.188939 -0.000002 0.000010 0.001067 -0.006268 1.493150
    7 3.773755 0.133215 0.970575 -0.062166 -0.120302 -0.083208
    8 1.433456 0.000000 0.000000 0.035211 0.078751 -0.052582
    9 1.019165 -0.000006 0.000001 0.046284 0.101318 -0.032921
    10 3.799514 0.014957 0.039959 -0.040744 0.047582 0.064797
    11 1.774878 0.000000 0.000000 0.089813 0.028248 -0.165835
    12 1.008844 -0.000004 0.000000 0.101977 0.036769 -0.258348
    13 3.632766 0.059052 -0.757493 0.032985 0.089702 0.132609
    14 1.500137 0.000002 0.000000 0.081220 0.091335 -0.250519
    15 0.905666 -0.000002 -0.000001 0.091059 0.081268 -0.136959
    16 3.323331 0.233744 -1.479075 0.058299 0.260307 -0.155145
    17 0.963100 0.000011 0.000000 0.053164 0.061852 0.014037
    18 0.682894 -0.000006 -0.000001 0.047759 0.066287 -0.069976
    19 1.149529 0.416498 -1.414117 1.695985 0.643333 0.384411
    20 1.263884 0.000001 0.000000 -0.009336 0.006472 0.475820
    21 1.188946 0.000000 0.000002 -0.011266 0.001906 0.214483
    22 3.773762 0.133217 -0.970574 0.072576 0.165377 0.282516
    23 1.433458 0.000004 0.000000 -0.031256 0.020602 0.681268
    24 1.019165 0.000011 0.000000 -0.031268 0.020602 0.681268
    25 3.799517 0.014957 -0.039958 -0.034554 -0.007829 0.401246
    26 1.774879 0.000004 0.000000 -0.021177 0.011397 0.579787
    27 1.008841 0.000004 0.000000 -0.021165 0.011397 0.579868
    28 3.632765 0.059053 0.757493 -0.281201 -0.185819 0.459243
    29 1.500135 0.000004 0.000000 -0.017006 0.006568 0.424929
    30 0.905668 0.000002 -0.000001 -0.016994 0.006556 0.424929
    31 3.323332 0.233744 1.479075 -0.399082 -0.449085 0.621478
    32 0.963099 0.000010 0.000000 -0.018001 0.008941 0.549273
    33 0.682898 -0.000002 0.000000 -0.017989 0.008941 0.549349
    34 19.333009 -1.727926 -8.307616 -0.181627 0.429036 -2.152602
    35 -12.832019 -5.518341 -4.502803 -2.345473 -0.079978 -7.041177
    36 0.000000 3.992340 0.007782 1.570796 0.000000 -1.570796
    37 18.356029 -4.007935 2.898526 2.551370 -1.085575 0.963687
    38 -0.021929 2.029111 -0.137266 -1.570805 0.000001 0.000000
    39 0.007813 0.000000 0.007813 -2.245108 0.000000 0.000001
    40 0.002397 -0.669111 0.409449 -0.366209 0.000000 0.000000
    41 -0.002402 -6.221447 0.929182 -0.816253 0.000000 0.000000
  time 16
    0 -12.988274 -5.662876 -4.104353 -2.662193 0.000477 -7.000237
    1 10.295578 0.000000 0.000002 2.185014 0.185063 -0.077029
    2 18.543922 -3.560014 -9.577186 -0.816060 0.304681 -2.285268
    3 10.295582 0.000001 -0.000006 -1.530655 -0.163136 0.359066
    4 1.149520 0.416502 1.414117 -2.000076 -0.807632 0.806794
    5 1.263885 0.000000 -0.000008 0.009708 -0.005765 0.412163
    6 1.188939 -0.000002 0.000010 0.001067 -0.006268 1.493150
    7 3.773755 0.133215 0.970575 -0.062166 -0.120302 -0.083208
    8 1.433456 0.000000 0.000000 0.035211 0.078751 -0.052582
    9 1.019165 -0.000006 0.000001 0.046284 0.101318 -0.032921
    10 3.799514 0.014957 0.039959 -0.040744 0.047582 0.064797
    11 1.774878 0.000000 0.000000 0.089813 0.028248 -0.165835
    12 1.008844 -0.000004 0.000000 0.101977 0.036769 -0.258348
    13 3.632766 0.059052 -0.757493 0.031380 0.090433 0.116892
    14 1.500137 0.000002 0.000000 0.081220 0.091335 -0.250519
    15 0.905666 -0.000002 -0.000001 0.091059 0.081268 -0.136959
    16 3.323331 0.233744 -1.479075 0.043690 0.262865 -0.206235
    17 0.963100 0.000011 0.000000 0.053164 0.061852 0.014037
    18 0.682894 -0.000006 -0.000001 0.047759 0.066287 -0.069976
    19 1.149529 0.416498 -1.414117 1.695985 0.643333 0.384411
    20 1.263884 0.000001 0.000000 -0.009336 0.006472 0.475820
    21 1.188946 0.000000 0.000002 -0.011266 0.001906 0.214483
    22 3.773762 0.133217 -0.970574 0.072576 0.165377 0.282516
    23 1.433458 0.000004 0.000000 -0.031256 0.020602 0.681268
    24 1.019165 0.000011 0.000000 -0.031268 0.020602 0.681268
    25 3.799517 0.014957 -0.039958 -0.034554 -0.007829 0.401246
    26 1.774879 0.000004 0.000000 -0.021177 0.011397 0.579787
    27 1.008841 0.000004 0.000000 -0.021165 0.011397 0.579868
    28 3.632765 0.059053 0.757493 -0.281201 -0.185819 0.459243
    29 1.500135 0.000004 0.000000 -0.017006 0.006568 0.424929
    30 0.905668 0.000002 -0.000001 -0.016994 0.006556 0.424929
    31 3.323332 0.233744 1.479075 -0.399082 -0.449085 0.621478
    32 0.963099 0.000010 0.000000 -0.018001 0.008941 0.549273
    33 0.682898 -0.000002 0.000000 -0.017989 0.008941 0.549349
    34 18.543922 -3.560014 -9.573280 -0.229534 0.304502 -2.285480
    35 -12.988274 -5.662876 -4.104353 -2.349294 0.000002 -7.000147
    36 0.000000 3.992340 0.007782 1.570796 0.000000 -1.570796
    37 17.852107 -4.898587 2.589923 2.388963 -0.975480 0.975804
    38 -0.021929 2.029111 -0.137266 -1.570805 0.000001 0.000000
    39 0.019532 0.000000 0.007813 -2.650040 0.000000 0.000001
    40 0.002397 -0.669111 0.409449 -1.501275 0.000000 0.000000
    41 -0.002402 -6.221447 0.929182 -0.816253 0.000000 0.000000
  time 17
    0 -12.980461 -5.791787 -4.049664 -2.659372 0.012328 -6.980726
    1 10.295578 0.000000 0.000002 2.161144 0.172398 -0.075593
    2 17.832963 -4.954587 -10.170954 -0.802142 0.216956 -2.320663
    3 10.295582 0.000001 -0.000006 -1.409952 -0.149852 0.312881
    4 1.149520 0.416502 1.414117 -2.000076 -0.807632 0.806794
    5 1.263885 0.000000 -0.000008 0.009708 -0.005765 0.412163
    6 1.188939 -0.000002 0.000010 0.001067 -0.006268 1.493150
    7 3.773755 0.133215 0.970575 -0.062166 -0.120302 -0.083208
    8 1.433456 0.000000 0.000000 0.035211 0.078751 -0.052582
    9 1.019165 -0.000006 0.000001 0.046284 0.101318 -0.032921
    10 3.799514 0.014957 0.039959 -0.040744 0.047582 0.064797
    11 1.774878 0.000000 0.000000 0.089813 0.028248 -0.165835
    12 1.008844 -0.000004 0.000000 0.101977 0.036769 -0.258348
    13 3.632766 0.059052 -0.757493 0.029969 0.090685 0.107862
    14 1.500137 0.000002 0.000000 0.081220 0.091335 -0.250519
    15 0.905666 -0.000002 -0.000001 0.091059 0.081268 -0.136959
    16 3.323331 0.233744 -1.479075 0.031369 0.263615 -0.235764
    17 0.963100 0.000011 0.000000 0.053164 0.061852 0.014037
    18 0.682894 -0.000006 -0.000001 0.047759 0.066287 -0.069976
    19 1.149529 0.416498 -1.414117 1.695985 0.643333 0.384411
    20 1.263884 0.000001 0.000000 -0.009336 0.006472 0.475820
    21 1.188946 0.000000 0.000002 -0.011266 0.001906 0.214483
    22 3.773762 0.133217 -0.970574 0.072576 0.165377 0.282516
    23 1.433458 0.000004 0.000000 -0.031256 0.020602 0.681268
    24 1.019165 0.000011 0.000000 -0.031268 0.020602 0.681268
    25 3.799517 0.014957 -0.039958 -0.034554 -0.007829 0.401246
    26 1.774879 0.000004 0.000000 -0.021177 0.011397 0.579787
    27 1.008841 0.000004 0.000000 -0.021165 0.011397 0.579868
    28 3.632765 0.059053 0.757493 -0.281201 -0.185819 0.459243
    29 1.500135 0.000004 0.000000 -0.017006 0.006568 0.424929
    30 0.905668 0.000002 -0.000001 -0.016994 0.006556 0.424929
    31 3.323332 0.233744 1.479075 -0.399082 -0.449085 0.621478
    32 0.963099 0.000010 0.000000 -0.018001 0.008941 0.549273
    33 0.682898 -0.000002 0.000000 -0.017989 0.008941 0.549349
    34 17.832963 -4.954587 -10.170954 -0.211440 0.216806 -2.320662
    35 -12.976555 -5.791787 -4.049664 -2.364886 0.011880 -6.980923
    36 0.000000 3.992340 0.007782 1.570796 0.000000 -1.570796
    37 17.750542 -5.023591 2.461013 2.406019 -0.905967 0.967095
    38 -0.021929 2.029111 -0.137266 -1.570805 0.000001 0.000000
    39 0.019532 0.000000 0.007813 -2.437622 0.000000 0.000001
    40 0.002397 -0.669111 0.409449 -1.207256 0.000000 0.000000
    41 -0.002402 -6.221447 0.929182 -0.816253 0.000000 0.000000
  time 18
    0 -12.734360 -5.573030 -4.643432 -2.621888 -0.031407 -7.015922
    1 10.295578 0.000000 0.000002 2.154392 0.258336 -0.043595
    2 17.293884 -6.032745 -10.327209 -0.768948 0.150909 -2.321662
    3 10.295582 0.000001 -0.000006 -1.278936 -0.138054 0.251809
    4 1.149520 0.416502 1.414117 -2.000076 -0.807738 0.806767
    5 1.263885 0.000000 -0.000008 0.009696 -0.005765 0.411868
    6 1.188939 -0.000002 0.000010 0.001067 -0.006328 1.492463
    7 3.773755 0.133215 0.970575 -0.062166 -0.120302 -0.083208
    8 1.433456 0.000000 0.000000 0.035211 0.078751 -0.052582
    9 1.019165 -0.000006 0.000001 0.046284 0.101318 -0.032921
    10 3.799514 0.014957 0.039959 -0.040744 0.047582 0.064797
    11 1.774878 0.000000 0.000000 0.089813 0.028248 -0.165835
    12 1.008844 -0.000004 0.000000 0.101977 0.036769 -0.258348
    13 3.632766 0.059052 -0.757493 0.029024 0.090601 0.103069
    14 1.500137 0.000002 0.000000 0.081220 0.091335 -0.250519
    15 0.905666 -0.000002 -0.000001 0.091059 0.081268 -0.136959
    16 3.323331 0.233744 -1.479075 0.021230 0.263200 -0.251466
    17 0.963100 0.000011 0.000000 0.053164 0.061852 0.014037
    18 0.682894 -0.000006 -0.000001 0.047759 0.066287 -0.069976
    19 1.149529 0.416498 -1.414117 1.695985 0.643333 0.384411
    20 1.263884 0.000001 0.000000 -0.009336 0.006472 0.475820
    21 1.188946 0.000000 0.000002 -0.011266 0.001906 0.214483
    22 3.773762 0.133217 -0.970574 0.072576 0.165377 0.282516
    23 1.433458 0.000004 0.000000 -0.031256 0.020602 0.681268
    24 1.019165 0.000011 0.000000 -0.031268 0.020602 0.681268
    25 3.799517 0.014957 -0.039958 -0.034554 -0.007829 0.401246
    26 1.774879 0.000004 0.000000 -0.021177 0.011397 0.579787
    27 1.008841 0.000004 0.000000 -0.021165 0.011397 0.579868
    28 3.632765 0.059053 0.757493 -0.281201 -0.185819 0.459243
    29 1.500135 0.000004 0.000000 -0.017006 0.006568 0.424929
    30 0.905668 0.000002 -0.000001 -0.016994 0.006556 0.424929
    31 3.323332 0.233744 1.479075 -0.399082 -0.449085 0.621478
    32 0.963099 0.000010 0.000000 -0.018001 0.008941 0.549273
    33 0.682898 -0.000002 0.000000 -0.017989 0.008941 0.549349
    34 17.293884 -6.032745 -10.331115 -0.146845 0.150857 -2.321661
    35 -12.734360 -5.573030 -4.643432 -2.346644 -0.031128 -7.015832
    36 0.000000 3.992340 0.007782 1.570796 0.000000 -1.570796
    37 18.125553 -4.800928 2.589923 2.458717 -0.934135 0.944754
    38 -0.021929 2.029111 -0.137266 -1.570805 0.000001 0.000000
    39 0.019532 0.000000 0.007813 -1.696268 0.000000 0.000001
    40 0.002397 -0.669111 0.409449 -0.733400 0.000000 0.000000
    41 -0.002402 -6.221447 0.929182 -0.816253 0.000000 0.000000
  time 19
    0 -11.546823 -4.709722 -6.538021 -2.471729 -0.198351 -0.901964
    1 10.295578 0.000000 0.000002 2.246053 0.463549 -0.143679
    2 16.918873 -6.888240 -10.276426 -0.732983 0.096588 -2.315525
    3 10.295582 0.000001 -0.000006 -1.135265 -0.122958 0.188431
    4 1.149520 0.416502 1.414117 -2.000592 -0.814117 0.801796
    5 1.263885 0.000000 -0.000008 0.010487 -0.028380 0.282775
    6 1.188939 -0.000002 0.000010 0.011170 -0.031148 1.212495
    7 3.773755 0.133215 0.970575 -0.062166 -0.120302 -0.083208
    8 1.433456 0.000000 0.000000 0.035211 0.078751 -0.052582
    9 1.019165 -0.000006 0.000001 0.046284 0.101318 -0.032921
    10 3.799514 0.014957 0.039959 -0.040744 0.047582 0.064797
    11 1.774878 0.000000 0.000000 0.089813 0.028248 -0.165835
    12 1.008844 -0.000004 0.000000 0.101977 0.036769 -0.258348
    13 3.632766 0.059052 -0.757493 0.028312 0.090385 0.101174
    14 1.500137 0.000002 0.000000 0.081220 0.091335 -0.250519
    15 0.905666 -0.000002 -0.000001 0.091059 0.081268 -0.136959
    16 3.323331 0.233744 -1.479075 0.014507 0.262075 -0.257618
    17 0.963100 0.000011 0.000000 0.053164 0.061852 0.014037
    18 0.682894 -0.000006 -0.000001 0.047759 0.066287 -0.069976
    19 1.149529 0.416498 -1.414117 1.695985 0.643333 0.384411
    20 1.263884 0.000001 0.000000 -0.009336 0.006472 0.475820
    21 1.188946 0.000000 0.000002 -0.011266 0.001906 0.214483
    22 3.773762 0.133217 -0.970574 0.072576 0.165377 0.282516
    23 1.433458 0.000004 0.000000 -0.031256 0.020602 0.681268
    24 1.019165 0.000011 0.000000 -0.031268 0.020602 0.681268
    25 3.799517 0.014957 -0.039958 -0.034554 -0.007829 0.401246
    26 1.774879 0.000004 0.000000 -0.021177 0.011397 0.579787
    27 1.008841 0.000004 0.000000 -0.021165 0.011397 0.579868
    28 3.632765 0.059053 0.757493 -0.281201 -0.185819 0.459243
    29 1.500135 0.000004 0.000000 -0.017006 0.006568 0.424929
    30 0.905668 0.000002 -0.000001 -0.016994 0.006556 0.424929
    31 3.323332 0.233744 1.479075 -0.399082 -0.449085 0.621478
    32 0.963099 0.000010 0.000000 -0.018001 0.008941 0.549273
    33 0.682898 -0.000002 0.000000 -0.017989 0.008941 0.549349
    34 16.918873 -6.888240 -10.272520 -0.049437 0.096433 -2.315524
    35 -11.546823 -4.709722 -6.538021 -2.059456 -0.200858 -0.899854
    36 0.000000 3.992340 0.007782 1.570796 0.000000 -1.570796
    37 18.559160 -3.671987 3.226661 3.082762 -1.360860 0.509391
    38 -0.021929 2.029111 -0.137266 -1.570805 0.000001 0.000000
    39 0.019532 0.000000 0.007813 -0.516205 0.000000 0.000001
    40 0.002397 -0.669111 0.409449 -0.357836 0.000000 0.000000
    41 -0.002402 -6.221447 0.929182 -0.816253 0.000000 0.000000
  time 20
    0 -9.722549 -3.862040 -7.909157 -2.262486 -0.321466 -1.133224
    1 10.295578 0.000000 0.000002 2.303955 0.580252 -0.380496
    2 16.668865 -7.603106 -10.112359 -0.696710 0.050157 -2.304678
    3 10.295582 0.000001 -0.000006 -0.988156 -0.109044 0.123585
    4 1.149520 0.416502 1.414117 -2.001353 -0.831109 0.788215
    5 1.263885 0.000000 -0.000008 0.012847 -0.088243 -0.059571
    6 1.188939 -0.000002 0.000010 0.040017 -0.083557 0.565806
    7 3.773755 0.133215 0.970575 -0.061794 -0.119631 -0.081324
    8 1.433456 0.000000 0.000000 0.035343 0.078679 -0.050683
    9 1.019165 -0.000006 0.000001 0.046680 0.101246 -0.031351
    10 3.799514 0.014957 0.039959 -0.040422 0.047906 0.067136
    11 1.774878 0.000000 0.000000 0.089813 0.028032 -0.163370
    12 1.008844 -0.000004 0.000000 0.101989 0.036745 -0.258134
    13 3.632766 0.059052 -0.757493 0.028312 0.089427 0.105243
    14 1.500137 0.000002 0.000000 0.081232 0.091239 -0.249156
    15 0.905666 -0.000002 -0.000001 0.091167 0.081244 -0.135825
    16 3.323331 0.233744 -1.479075 0.013464 0.259865 -0.250997
    17 0.963100 0.000011 0.000000 0.053104 0.061912 0.012947
    18 0.682894 -0.000006 -0.000001 0.047807 0.066191 -0.067875
    19 1.149529 0.416498 -1.414117 1.695985 0.643333 0.384411
    20 1.263884 0.000001 0.000000 -0.009336 0.006472 0.475820
    21 1.188946 0.000000 0.000002 -0.011266 0.001906 0.214483
    22 3.773762 0.133217 -0.970574 0.072576 0.165377 0.282516
    23 1.433458 0.000004 0.000000 -0.031256 0.020602 0.681268
    24 1.019165 0.000011 0.000000 -0.031268 0.020602 0.681268
    25 3.799517 0.014957 -0.039958 -0.034554 -0.007829 0.401246
    26 1.774879 0.000004 0.000000 -0.021177 0.011397 0.579787
    27 1.008841 0.000004 0.000000 -0.021165 0.011397 0.579868
    28 3.632765 0.059053 0.757493 -0.281201 -0.185819 0.459243
    29 1.500135 0.000004 0.000000 -0.017006 0.006568 0.424929
    30 0.905668 0.000002 -0.000001 -0.016994 0.006556 0.424929
    31 3.323332 0.233744 1.479075 -0.399082 -0.449085 0.621478
    32 0.963099 0.000010 0.000000 -0.018001 0.008941 0.549273
    33 0.682898 -0.000002 0.000000 -0.017989 0.008941 0.549349
    34 16.668865 -7.603106 -10.112359 0.065971 0.050152 -2.304748
    35 -9.722549 -3.862040 -7.901344 -1.473000 -0.322025 -1.133410
    36 0.000000 3.992340 0.007782 1.570796 0.000000 -1.570796
    37 18.438063 -2.726646 4.136845 -1.168278 -1.357327 -1.044625
    38 -0.021929 2.029111 -0.137266 -1.570805 0.000001 0.000000
    39 0.019532 0.000000 0.007813 0.130041 0.000000 0.000001
    40 0.002397 -0.669111 0.409449 0.502717 0.000000 0.000000
    41 -0.014121 -6.221447 0.929182 -0.816253 0.000000 0.000000
  time 21
    0 -8.757676 -3.459684 -7.807591 -2.160722 -0.326545 -1.257558
    1 10.295578 0.000000 0.000002 2.277084 0.586366 -0.452390
    2 16.418858 -8.263282 -9.870164 -0.663578 0.011813 -2.292547
    3 10.295582 0.000001 -0.000006 -0.847648 -0.103079 0.054412
    4 1.149520 0.416502 1.414117 -2.019538 -0.827955 0.804811
    5 1.263885 0.000000 -0.000008 0.002721 -0.099101 -0.190533
    6 1.188939 -0.000002 0.000010 0.036122 -0.095949 0.423416
    7 3.773755 0.133215 0.970575 -0.050898 -0.103884 -0.022928
    8 1.433456 0.000000 0.000000 0.039669 0.076594 0.004887
    9 1.019165 -0.000006 0.000001 0.050599 0.099161 0.007673
    10 3.799514 0.014957 0.039959 -0.036193 0.051202 0.133401
    11 1.774878 0.000000 0.000000 0.091383 0.021788 -0.094404
    12 1.008844 -0.000004 0.000000 0.102229 0.036134 -0.252735
    13 3.632766 0.059052 -0.757493 0.030668 0.077202 0.234385
    14 1.500137 0.000002 0.000000 0.084276 0.088267 -0.216449
    15 0.905666 -0.000002 -0.000001 0.094115 0.077936 -0.098890
    16 3.323331 0.233744 -1.479075 0.060588 0.237017 -0.000704
    17 0.963100 0.000011 0.000000 0.050946 0.063674 -0.018209
    18 0.682894 -0.000006 -0.000001 0.051702 0.063183 -0.007509
    19 1.149529 0.416498 -1.414117 1.695985 0.643333 0.384411
    20 1.263884 0.000001 0.000000 -0.009336 0.006472 0.475820
    21 1.188946 0.000000 0.000002 -0.011266 0.001906 0.214483
    22 3.773762 0.133217 -0.970574 0.072576 0.165377 0.282516
    23 1.433458 0.000004 0.000000 -0.031256 0.020602 0.681268
    24 1.019165 0.000011 0.000000 -0.031268 0.020602 0.681268
    25 3.799517 0.014957 -0.039958 -0.034554 -0.007829 0.401246
    26 1.774879 0.000004 0.000000 -0.021177 0.011397 0.579787
    27 1.008841 0.000004 0.000000 -0.021165 0.011397 0.579868
    28 3.632765 0.059053 0.757493 -0.281201 -0.185819 0.459243
    29 1.500135 0.000004 0.000000 -0.017006 0.006568 0.424929
    30 0.905668 0.000002 -0.000001 -0.016994 0.006556 0.424929
    31 3.323332 0.233744 1.479075 -0.399082 -0.449085 0.621478
    32 0.963099 0.000010 0.000000 -0.018001 0.008941 0.549273
    33 0.682898 -0.000002 0.000000 -0.017989 0.008941 0.549349
    34 16.418858 -8.255469 -9.885789 0.181848 0.011921 -2.292545
    35 -8.757676 -3.447965 -7.807591 -1.202020 -0.326144 -1.257648
    36 0.000000 3.992340 0.007782 1.570796 0.000000 -1.570796
    37 18.313059 -2.355541 4.433729 -0.095433 -1.217727 -1.408611
    38 -0.021929 2.029111 -0.137266 -1.570805 0.000001 0.000000
    39 0.019532 0.000000 0.000000 0.130041 0.000000 0.000001
    40 0.002397 -0.669111 0.409449 1.267262 0.000000 0.000000
    41 -0.014121 -6.221447 0.929182 -0.816253 0.000000 0.000000
  time 22
    0 -8.363132 -3.229208 -7.409141 -2.133778 -0.287701 -1.303370
    1 10.295578 0.000000 0.000002 2.236505 0.619242 -0.509050
    2 16.153224 -8.880488 -9.635782 -0.636173 -0.017736 -2.281129
    3 10.295582 0.000001 -0.000006 -0.722336 -0.107405 -0.021127
    4 1.149520 0.416502 1.414117 -2.117611 -0.749356 0.937740
    5 1.263885 0.000000 -0.000008 -0.017378 -0.043971 -0.113868
    6 1.188939 -0.000002 0.000010 -0.023658 -0.049317 0.813052
    7 3.773755 0.133215 0.970575 -0.044631 -0.094955 0.009228
    8 1.433456 0.000000 0.000000 0.041910 0.075131 0.035136
    9 1.019165 -0.000006 0.000001 0.052516 0.098214 0.028980
    10 3.799514 0.014957 0.039959 -0.033414 0.052916 0.170474
    11 1.774878 0.000000 0.000000 0.092185 0.018193 -0.055821
    12 1.008844 -0.000004 0.000000 0.102265 0.035834 -0.249643
    13 3.632766 0.059052 -0.757493 0.031613 0.070491 0.306564
    14 1.500137 0.000002 0.000000 0.085894 0.086709 -0.197699
    15 0.905666 -0.000002 -0.000001 0.095685 0.075827 -0.078139
    16 3.323331 0.233744 -1.479075 0.104511 0.210901 0.241212
    17 0.963100 0.000011 0.000000 0.050024 0.064633 -0.035770
    18 0.682894 -0.000006 -0.000001 0.053883 0.061181 0.025761
    19 1.149529 0.416498 -1.414117 1.695985 0.643333 0.384411
    20 1.263884 0.000001 0.000000 -0.009336 0.006472 0.475820
    21 1.188946 0.000000 0.000002 -0.011266 0.001906 0.214483
    22 3.773762 0.133217 -0.970574 0.072576 0.165377 0.282516
    23 1.433458 0.000004 0.000000 -0.031256 0.020602 0.681268
    24 1.019165 0.000011 0.000000 -0.031268 0.020602 0.681268
    25 3.799517 0.014957 -0.039958 -0.034554 -0.007829 0.401246
    26 1.774879 0.000004 0.000000 -0.021177 0.011397 0.579787
    27 1.008841 0.000004 0.000000 -0.021165 0.011397 0.579868
    28 3.632765 0.059053 0.757493 -0.281201 -0.185819 0.459243
    29 1.500135 0.000004 0.000000 -0.017006 0.006568 0.424929
    30 0.905668 0.000002 -0.000001 -0.016994 0.006556 0.424929
    31 3.323332 0.233744 1.479075 -0.399082 -0.449085 0.621478
    32 0.963099 0.000010 0.000000 -0.018001 0.008941 0.549273
    33 0.682898 -0.000002 0.000000 -0.017989 0.008941 0.549349
    34 16.157131 -8.880488 -9.635782 0.280100 -0.017679 -2.281127
    35 -8.363132 -3.229208 -7.409141 -1.207197 -0.287543 -1.303269
    36 0.000000 3.992340 0.007782 1.570796 0.000000 -1.570796
    37 18.309152 -2.199286 4.640767 0.662754 -1.339471 -1.403310
    38 -0.021929 2.029111 -0.137266 -1.570805 0.000001 0.000000
    39 0.019532 0.000000 0.007813 0.130041 0.000000 0.000001
    40 0.002397 -0.669111 0.409449 1.436061 0.000000 0.000000
    41 -0.002402 -6.221447 0.929182 -0.816253 0.000000 0.000000
  time 23
    0 -8.113125 -3.127643 -7.291950 -2.135040 -0.253184 -1.317812
    1 10.295578 0.000000 0.000002 2.146549 0.641151 -0.544170
    2 15.793839 -9.478163 -9.393587 -0.615296 -0.039233 -2.271281
    3 10.295582 0.000001 -0.000006 -0.616985 -0.137577 -0.108561
    4 1.149520 0.416502 1.414117 -2.208312 -0.608317 1.086340
    5 1.263885 0.000000 -0.000008 -0.000407 -0.014022 -0.076726
    6 1.188939 -0.000002 0.000010 -0.006580 -0.018277 0.724694
    7 3.773755 0.133215 0.970575 -0.027630 -0.059672 0.020662
    8 1.433456 0.000000 0.000000 0.052493 0.068084 0.183216
    9 1.019165 -0.000006 0.000001 0.070362 0.082802 0.183507
    10 3.799514 0.014957 0.039959 -0.013354 0.064589 0.452771
    11 1.774878 0.000000 0.000000 0.093708 -0.007383 0.218858
    12 1.008844 -0.000004 0.000000 0.108353 -0.003380 0.118228
    13 3.632766 0.059052 -0.757493 0.024273 0.013552 0.834669
    14 1.500137 0.000002 0.000000 0.100838 0.068636 -0.003386
    15 0.905666 -0.000002 -0.000001 0.109132 0.054806 0.126674
    16 3.323331 0.233744 -1.479075 0.135527 0.061397 1.010782
    17 0.963100 0.000011 0.000000 0.054446 0.060954 0.033951
    18 0.682894 -0.000006 -0.000001 0.078619 0.022160 0.598559
    19 1.149529 0.416498 -1.414117 1.695985 0.643333 0.384411
    20 1.263884 0.000001 0.000000 -0.009336 0.006472 0.475820
    21 1.188946 0.000000 0.000002 -0.011266 0.001906 0.214483
    22 3.773762 0.133217 -0.970574 0.072576 0.165377 0.282516
    23 1.433458 0.000004 0.000000 -0.031256 0.020602 0.681268
    24 1.019165 0.000011 0.000000 -0.031268 0.020602 0.681268
    25 3.799517 0.014957 -0.039958 -0.034554 -0.007829 0.401246
    26 1.774879 0.000004 0.000000 -0.021177 0.011397 0.579787
    27 1.008841 0.000004 0.000000 -0.021165 0.011397 0.579868
    28 3.632765 0.059053 0.757493 -0.281201 -0.185819 0.459243
    29 1.500135 0.000004 0.000000 -0.017006 0.006568 0.424929
    30 0.905668 0.000002 -0.000001 -0.016994 0.006556 0.424929
    31 3.323332 0.233744 1.479075 -0.399082 -0.449085 0.621478
    32 0.963099 0.000010 0.000000 -0.018001 0.008941 0.549273
    33 0.682898 -0.000002 0.000000 -0.017989 0.008941 0.549349
    34 15.793839 -9.478163 -9.393587 0.356976 -0.039264 -2.271493
    35 -8.113125 -3.127643 -7.291950 -1.338157 -0.253156 -1.317711
    36 0.000000 3.992340 0.007782 1.570796 0.000000 -1.570796
    37 18.313059 -2.390698 4.547014 1.955878 -1.369549 -1.888845
    38 -0.021929 2.029111 -0.137266 -1.570805 0.000001 0.000000
    39 0.019532 0.000000 0.007813 0.130041 0.000000 0.000001
    40 0.002397 -0.669111 0.409449 1.437203 0.000000 0.000000
    41 -0.014121 -6.221447 0.929182 -0.816253 0.000000 0.000000
  time 24
    0 -7.956870 -3.162800 -7.666962 -2.144912 -0.255629 -1.324698
    1 10.295578 0.000000 0.000002 1.918897 0.634576 -0.525970
    2 15.414921 -10.040680 -9.151392 -0.600085 -0.054867 -2.263717
    3 10.295582 0.000001 -0.000006 -0.531321 -0.207527 -0.204724
    4 1.149520 0.416502 1.414117 -2.212514 -0.493395 1.125453
    5 1.263885 0.000000 -0.000008 0.011266 -0.001007 -0.031026
    6 1.188939 -0.000002 0.000010 0.005153 -0.003368 0.662596
    7 3.773755 0.133215 0.970575 0.006088 0.013661 0.149808
    8 1.433456 0.000000 0.000000 0.072711 0.046213 0.531555
    9 1.019165 -0.000006 0.000001 0.100335 0.046273 0.519587
    10 3.799514 0.014957 0.039959 0.026349 0.065391 1.016246
    11 1.774878 0.000000 0.000000 0.074269 -0.057634 0.795943
    12 1.008844 -0.000004 0.000000 0.104602 -0.027900 0.346913
    13 3.632766 0.059052 -0.757493 -0.001204 -0.037598 1.562702
    14 1.500137 0.000002 0.000000 0.121775 0.004710 0.551828
    15 0.905666 -0.000002 -0.000001 0.121032 -0.014489 0.710521
    16 3.323331 0.233744 -1.479075 0.058982 -0.114638 1.951023
    17 0.963100 0.000011 0.000000 0.060474 0.054818 0.140231
    18 0.682894 -0.000006 -0.000001 0.068049 -0.045158 1.459661
    19 1.149529 0.416498 -1.414117 1.695985 0.643333 0.384411
    20 1.263884 0.000001 0.000000 -0.009336 0.006472 0.475820
    21 1.188946 0.000000 0.000002 -0.011266 0.001906 0.214483
    22 3.773762 0.133217 -0.970574 0.072312 0.165401 0.280914
    23 1.433458 0.000004 0.000000 -0.031292 0.020602 0.679374
    24 1.019165 0.000011 0.000000 -0.031292 0.020602 0.679677
    25 3.799517 0.014957 -0.039958 -0.034554 -0.007829 0.401246
    26 1.774879 0.000004 0.000000 -0.021261 0.011421 0.579787
    27 1.008841 0.000004 0.000000 -0.021165 0.011397 0.579868
    28 3.632765 0.059053 0.757493 -0.281201 -0.185819 0.459243
    29 1.500135 0.000004 0.000000 -0.017006 0.006568 0.424929
    30 0.905668 0.000002 -0.000001 -0.016994 0.006556 0.424929
    31 3.323332 0.233744 1.479075 -0.399082 -0.449085 0.621478
    32 0.963099 0.000010 0.000000 -0.018001 0.008941 0.549273
    33 0.682898 -0.000002 0.000000 -0.017989 0.008941 0.549349
    34 15.414921 -10.040680 -9.170924 0.421571 -0.054932 -2.263714
    35 -7.956870 -3.162800 -7.666962 -1.668239 -0.255551 -1.325171
    36 0.000000 3.992340 0.007782 1.570796 0.000000 -1.570796
    37 18.438063 -2.675863 4.875149 2.819845 -0.910932 -2.631679
    38 -0.021929 2.029111 -0.137266 -1.570805 0.000001 0.000000
    39 0.007813 0.000000 0.007813 0.130041 0.000000 0.000001
    40 0.002397 -0.669111 0.409449 1.431684 0.000000 0.000000
    41 -0.002402 -6.221447 0.929182 -0.816253 0.000000 0.000000
  time 25
    0 -7.628735 -3.342493 -8.627928 -2.107131 -0.309051 -1.346791
    1 10.295578 0.000000 0.000002 1.453772 0.555674 -0.469279
    2 15.098505 -10.446942 -8.987324 -0.590293 -0.063389 -2.256795
    3 10.295582 0.000001 -0.000006 -0.460735 -0.288493 -0.290823
    4 1.149520 0.416502 1.414117 -2.150171 -0.412758 1.052606
    5 1.263885 0.000000 -0.000008 0.011146 -0.001906 0.050774
    6 1.188939 -0.000002 0.000010 0.005046 -0.003488 0.700863
    7 3.773755 0.133215 0.970575 0.029828 0.055428 0.578909
    8 1.433456 0.000000 0.000000 0.084084 0.019115 0.870489
    9 1.019165 -0.000006 0.000001 0.111241 0.023706 0.783675
    10 3.799514 0.014957 0.039959 0.055344 0.046012 1.535427
    11 1.774878 0.000000 0.000000 0.033832 -0.087607 1.338333
    12 1.008844 -0.000004 0.000000 0.102408 -0.035043 0.414936
    13 3.632766 0.059052 -0.757493 -0.011391 -0.048828 1.869198
    14 1.500137 0.000002 0.000000 0.117785 -0.032119 0.854834
    15 0.905666 -0.000002 -0.000001 0.110474 -0.051989 1.029571
    16 3.323331 0.233744 -1.479075 0.058982 -0.114638 1.951023
    17 0.963100 0.000011 0.000000 0.060474 0.054818 0.140231
    18 0.682894 -0.000006 -0.000001 0.068049 -0.045158 1.459661
    19 1.149529 0.416498 -1.414117 1.695985 0.643333 0.384411
    20 1.263884 0.000001 0.000000 -0.009336 0.006472 0.475820
    21 1.188946 0.000000 0.000002 -0.011266 0.001906 0.214483
    22 3.773762 0.133217 -0.970574 0.062473 0.169272 0.222739
    23 1.433458 0.000004 0.000000 -0.032275 0.018876 0.622302
    24 1.019165 0.000011 0.000000 -0.032275 0.018864 0.622153
    25 3.799517 0.014957 -0.039958 -0.034530 -0.007853 0.395449
    26 1.774879 0.000004 0.000000 -0.021321 0.011289 0.574047
    27 1.008841 0.000004 0.000000 -0.021249 0.011277 0.574128
    28 3.632765 0.059053 0.757493 -0.281201 -0.185819 0.459243
    29 1.500135 0.000004 0.000000 -0.017006 0.006568 0.424929
    30 0.905668 0.000002 -0.000001 -0.016994 0.006556 0.424929
    31 3.323332 0.233744 1.479075 -0.399082 -0.449085 0.621478
    32 0.963099 0.000010 0.000000 -0.018001 0.008941 0.549273
    33 0.682898 -0.000002 0.000000 -0.017989 0.008941 0.549349
    34 15.098505 -10.446942 -8.983418 0.469197 -0.063436 -2.256935
    35 -7.628735 -3.342493 -8.627928 -2.140189 -0.308424 -1.349751
    36 0.000000 3.992340 0.007782 1.570796 0.000000 -1.570796
    37 18.555254 -3.000092 4.726707 3.333032 -0.414121 -3.062025
    38 -0.021929 2.029111 -0.137266 -1.570805 0.000001 0.000000
    39 0.019532 0.000000 0.007813 0.130041 0.000000 0.000001
    40 0.002397 -0.669111 0.409449 1.455757 0.000000 0.000000
    41 -0.002402 -6.221447 0.929182 -0.816253 0.000000 0.000000
  time 26
    0 -7.062312 -3.584688 -9.788120 -2.016130 -0.387209 -1.394707
    1 10.295578 0.000000 0.000002 0.905170 0.429193 -0.407187
    2 14.887561 -10.665699 -8.889665 -0.586475 -0.064493 -2.249944
    3 10.295582 0.000001 -0.000006 -0.397337 -0.339535 -0.345986
    4 1.149520 0.416502 1.414117 -2.084363 -0.321809 0.964249
    5 1.263885 0.000000 -0.000008 0.010630 -0.002828 0.146364
    6 1.188939 -0.000002 0.000010 0.004950 -0.003967 0.775610
    7 3.773755 0.133215 0.970575 0.054176 0.069474 1.098255
    8 1.433456 0.000000 0.000000 0.085774 -0.008905 1.200380
    9 1.019165 -0.000006 0.000001 0.113159 0.003919 1.026306
    10 3.799514 0.014957 0.039959 0.061612 0.037515 1.689009
    11 1.774878 0.000000 0.000000 0.019487 -0.092150 1.499632
    12 1.008844 -0.000004 0.000000 0.102121 -0.036158 0.427613
    13 3.632766 0.059052 -0.757493 -0.011391 -0.048828 1.869198
    14 1.500137 0.000002 0.000000 0.117785 -0.032119 0.854834
    15 0.905666 -0.000002 -0.000001 0.110474 -0.051989 1.029571
    16 3.323331 0.233744 -1.479075 0.058982 -0.114638 1.951023
    17 0.963100 0.000011 0.000000 0.060474 0.054818 0.140231
    18 0.682894 -0.000006 -0.000001 0.068049 -0.045158 1.459661
    19 1.149529 0.416498 -1.414117 1.695985 0.643333 0.384411
    20 1.263884 0.000001 0.000000 -0.009336 0.006472 0.475820
    21 1.188946 0.000000 0.000002 -0.011266 0.001906 0.214483
    22 3.773762 0.133217 -0.970574 0.045347 0.174677 0.122795
    23 1.433458 0.000004 0.000000 -0.033988 0.015580 0.523867
    24 1.019165 0.000011 0.000000 -0.034144 0.015580 0.523698
    25 3.799517 0.014957 -0.039958 -0.034026 -0.009328 0.358518
    26 1.774879 0.000004 0.000000 -0.021476 0.010499 0.536879
    27 1.008841 0.000004 0.000000 -0.021488 0.010499 0.536919
    28 3.632765 0.059053 0.757493 -0.281201 -0.185819 0.459243
    29 1.500135 0.000004 0.000000 -0.017006 0.006568 0.424929
    30 0.905668 0.000002 -0.000001 -0.016994 0.006556 0.424929
    31 3.323332 0.233744 1.479075 -0.399082 -0.449085 0.621478
    32 0.963099 0.000010 0.000000 -0.018001 0.008941 0.549273
    33 0.682898 -0.000002 0.000000 -0.017989 0.008941 0.549349
    34 14.887561 -10.665699 -8.889665 0.494041 -0.064467 -2.250084
    35 -7.062312 -3.584688 -9.788120 -2.584899 -0.385722 -1.397954
    36 0.000000 3.992340 0.007782 1.570796 0.000000 -1.570796
    37 19.094333 -3.742302 4.718894 4.021466 0.610248 -2.715552
    38 -0.021929 2.029111 -0.137266 -1.570805 0.000001 0.000000
    39 0.007813 0.000000 0.007813 0.111861 0.000000 0.000001
    40 0.002397 -0.669111 0.409449 1.502762 0.000000 0.000000
    41 -0.014121 -6.221447 0.929182 -0.816253 0.000000 0.000000
  time 27
    0 -6.437292 -3.819070 -10.686585 -1.916519 -0.449472 -1.451518
    1 10.295578 0.000000 0.000002 0.441477 0.314237 -0.354804
    2 14.825059 -10.704763 -8.893572 -0.589123 -0.057328 -2.244164
    3 10.295582 0.000001 -0.000006 -0.338079 -0.346111 -0.365314
    4 1.149520 0.416502 1.414117 -2.037452 -0.245619 0.891049
    5 1.263885 0.000000 -0.000008 0.010499 -0.003799 0.226275
    6 1.188939 -0.000002 0.000010 0.004566 -0.004243 0.849440
    7 3.773755 0.133215 0.970575 0.063657 0.065219 1.406795
    8 1.433456 0.000000 0.000000 0.082706 -0.024329 1.381015
    9 1.019165 -0.000006 0.000001 0.111577 -0.005908 1.155602
    10 3.799514 0.014957 0.039959 0.061612 0.037515 1.689009
    11 1.774878 0.000000 0.000000 0.019487 -0.092150 1.499632
    12 1.008844 -0.000004 0.000000 0.102121 -0.036158 0.427613
    13 3.632766 0.059052 -0.757493 -0.011391 -0.048828 1.869198
    14 1.500137 0.000002 0.000000 0.117785 -0.032119 0.854834
    15 0.905666 -0.000002 -0.000001 0.110474 -0.051989 1.029571
    16 3.323331 0.233744 -1.479075 0.058982 -0.114638 1.951023
    17 0.963100 0.000011 0.000000 0.060474 0.054818 0.140231
    18 0.682894 -0.000006 -0.000001 0.068049 -0.045158 1.459661
    19 1.149529 0.416498 -1.414117 1.695985 0.643333 0.384411
    20 1.263884 0.000001 0.000000 -0.009336 0.006472 0.475820
    21 1.188946 0.000000 0.000002 -0.011266 0.001906 0.214483
    22 3.773762 0.133217 -0.970574 0.033817 0.177062 0.057611
    23 1.433458 0.000004 0.000000 -0.035127 0.013387 0.459219
    24 1.019165 0.000011 0.000000 -0.035139 0.013387 0.459424
    25 3.799517 0.014957 -0.039958 -0.033691 -0.010957 0.304095
    26 1.774879 0.000004 0.000000 -0.022148 0.009480 0.483101
    27 1.008841 0.000004 0.000000 -0.022136 0.009492 0.483101
    28 3.632765 0.059053 0.757493 -0.281201 -0.185819 0.459243
    29 1.500135 0.000004 0.000000 -0.017006 0.006568 0.424929
    30 0.905668 0.000002 -0.000001 -0.016994 0.006556 0.424929
    31 3.323332 0.233744 1.479075 -0.399082 -0.449085 0.621478
    32 0.963099 0.000010 0.000000 -0.018001 0.008941 0.549273
    33 0.682898 -0.000002 0.000000 -0.017989 0.008941 0.549349
    34 14.825059 -10.704763 -8.893572 0.494510 -0.057339 -2.244232
    35 -6.437292 -3.819070 -10.686585 -2.912885 -0.449227 -1.452661
    36 0.000000 3.992340 0.007782 1.570796 0.000000 -1.570796
    37 19.438093 -4.328257 4.875149 -1.329343 0.492801 -1.265478
    38 -0.021929 2.029111 -0.137266 -1.570805 0.000001 0.000000
    39 0.019532 0.000000 0.007813 0.046318 0.000000 0.000001
    40 0.002397 -0.669111 0.409449 1.549672 0.000000 0.000000
    41 -0.014121 -6.221447 0.929182 -0.816253 0.000000 0.000000
  time 28
    0 -6.156034 -3.881572 -11.065503 -1.867233 -0.474302 -1.482219
    1 10.295578 0.000000 0.000002 0.239605 0.262412 -0.332608
    2 14.825059 -10.665699 -8.959980 -0.593434 -0.050669 -2.242594
    3 10.295582 0.000001 -0.000006 -0.305149 -0.340031 -0.371547
    4 1.149520 0.416502 1.414117 -2.019538 -0.212592 0.859514
    5 1.263885 0.000000 -0.000008 0.010499 -0.004219 0.261076
    6 1.188939 -0.000002 0.000010 0.004326 -0.004386 0.883994
    7 3.773755 0.133215 0.970575 0.064352 0.064068 1.441404
    8 1.433456 0.000000 0.000000 0.082047 -0.025959 1.400638
    9 1.019165 -0.000006 0.000001 0.111253 -0.007191 1.169694
    10 3.799514 0.014957 0.039959 0.061640 0.037503 1.689009
    11 1.774878 0.000000 0.000000 0.019487 -0.092150 1.499775
    12 1.008844 -0.000004 0.000000 0.102193 -0.036229 0.427732
    13 3.632766 0.059052 -0.757493 -0.011599 -0.048840 1.869198
    14 1.500137 0.000002 0.000000 0.117797 -0.032107 0.854928
    15 0.905666 -0.000002 -0.000001 0.110558 -0.051989 1.029632
    16 3.323331 0.233744 -1.479075 0.058982 -0.114638 1.951257
    17 0.963100 0.000011 0.000000 0.060570 0.054818 0.140405
    18 0.682894 -0.000006 -0.000001 0.068049 -0.045158 1.459661
    19 1.149529 0.416498 -1.414117 1.695985 0.643369 0.384411
    20 1.263884 0.000001 0.000000 -0.009336 0.006472 0.475871
    21 1.188946 0.000000 0.000002 -0.011266 0.001930 0.214506
    22 3.773762 0.133217 -0.970574 0.032751 0.177553 0.050162
    23 1.433458 0.000004 0.000000 -0.035247 0.012967 0.451988
    24 1.019165 0.000011 0.000000 -0.035247 0.012979 0.452158
    25 3.799517 0.014957 -0.039958 -0.033223 -0.011916 0.276310
    26 1.774879 0.000004 0.000000 -0.022483 0.008929 0.454808
    27 1.008841 0.000004 0.000000 -0.022447 0.008929 0.454767
    28 3.632765 0.059053 0.757493 -0.281213 -0.185831 0.459280
    29 1.500135 0.000004 0.000000 -0.017030 0.006580 0.424967
    30 0.905668 0.000002 -0.000001 -0.017030 0.006568 0.424967
    31 3.323332 0.233744 1.479075 -0.399082 -0.449109 0.621478
    32 0.963099 0.000010 0.000000 -0.018001 0.008941 0.549273
    33 0.682898 -0.000002 0.000000 -0.018001 0.008941 0.549349
    34 14.825059 -10.665699 -8.959980 0.490666 -0.050554 -2.242448
    35 -6.156034 -3.881572 -11.065503 -3.043722 -0.474610 -1.482214
    36 0.000000 3.992340 0.007782 1.570796 0.000000 -1.570796
    37 19.563097 -4.601703 4.984527 -1.174985 0.212742 -0.943618
    38 -0.021929 2.029111 -0.137266 -1.570805 0.000001 0.000000
    39 0.019532 0.000000 0.007813 0.000007 0.000000 0.000001
    40 0.002397 -0.669111 0.409449 1.570796 0.000000 0.000000
    41 -0.002402 -6.221447 0.929182 -0.816043 0.000000 0.000000
  time 29
    0 -6.156034 -3.881572 -11.065503 -1.867307 -0.474302 -1.482123
    1 10.295578 0.000000 0.000002 0.239946 0.262315 -0.331890
    2 14.825059 -10.665699 -8.959980 -0.593434 -0.050759 -2.242594
    3 10.295582 0.000001 -0.000006 -0.305149 -0.340107 -0.371547
    4 1.149520 0.416502 1.414117 -2.019538 -0.212592 0.859514
    5 1.263885 0.000000 -0.000008 0.010499 -0.004219 0.261076
    6 1.188939 -0.000002 0.000010 0.004326 -0.004386 0.883994
    7 3.773755 0.133215 0.970575 0.064352 0.064068 1.441404
    8 1.433456 0.000000 0.000000 0.082047 -0.025959 1.400638
    9 1.019165 -0.000006 0.000001 0.111253 -0.007191 1.169694
    10 3.799514 0.014957 0.039959 0.061640 0.037503 1.689009
    11 1.774878 0.000000 0.000000 0.019487 -0.092150 1.499775
    12 1.008844 -0.000004 0.000000 0.102193 -0.036229 0.427732
    13 3.632766 0.059052 -0.757493 -0.011599 -0.048840 1.869198
    14 1.500137 0.000002 0.000000 0.117797 -0.032107 0.854928
    15 0.905666 -0.000002 -0.000001 0.110558 -0.051989 1.029632
    16 3.323331 0.233744 -1.479075 0.058982 -0.114638 1.951257
    17 0.963100 0.000011 0.000000 0.060570 0.054818 0.140405
    18 0.682894 -0.000006 -0.000001 0.068049 -0.045158 1.459661
    19 1.149529 0.416498 -1.414117 1.695985 0.643369 0.384411
    20 1.263884 0.000001 0.000000 -0.009336 0.006472 0.475871
    21 1.188946 0.000000 0.000002 -0.011266 0.001930 0.214506
    22 3.773762 0.133217 -0.970574 0.032751 0.177553 0.050162
    23 1.433458 0.000004 0.000000 -0.035247 0.012967 0.451988
    24 1.019165 0.000011 0.000000 -0.035247 0.012979 0.452158
    25 3.799517 0.014957 -0.039958 -0.033223 -0.011916 0.276310
    26 1.774879 0.000004 0.000000 -0.022483 0.008929 0.454808
    27 1.008841 0.000004 0.000000 -0.022447 0.008929 0.454767
    28 3.632765 0.059053 0.757493 -0.281213 -0.185831 0.459280
    29 1.500135 0.000004 0.000000 -0.017030 0.006580 0.424967
    30 0.905668 0.000002 -0.000001 -0.017030 0.006568 0.424967
    31 3.323332 0.233744 1.479075 -0.399082 -0.449109 0.621478
    32 0.963099 0.000010 0.000000 -0.018001 0.008941 0.549273
    33 0.682898 -0.000002 0.000000 -0.018001 0.008941 0.549349
    34 14.825059 -10.665699 -8.959980 0.491041 -0.050680 -2.242448
    35 -6.156034 -3.881572 -11.065503 -3.043907 -0.474993 -1.482214
    36 0.000000 3.992340 0.007782 1.570796 0.000000 -1.570796
    37 19.594348 -4.593890 4.984527 -1.174985 0.212742 -0.943618
    38 -0.021929 2.029111 -0.137266 -1.570805 0.000001 0.000000
    39 0.019532 0.000000 0.007813 0.000007 0.000000 0.000001
    40 0.002397 -0.669111 0.409449 1.570796 0.000000 0.000000
    41 -0.002402 -6.221447 0.929182 -0.816043 0.000000 0.000000
end
