version 1
nodes
  0 "v_weapon.Bip01_R_Forearm" -1
  1 "v_weapon.Bip01_R_Hand" 0
  2 "v_weapon.Bip01_L_Forearm" -1
  3 "v_weapon.Bip01_L_Hand" 2
  4 "v_weapon.Bip01_R_Finger0" 1
  5 "v_weapon.Bip01_R_Finger01" 4
  6 "v_weapon.Bip01_R_Finger02" 5
  7 "v_weapon.Bip01_R_Finger1" 1
  8 "v_weapon.Bip01_R_Finger11" 7
  9 "v_weapon.Bip01_R_Finger12" 8
  10 "v_weapon.Bip01_R_Finger2" 1
  11 "v_weapon.Bip01_R_Finger21" 10
  12 "v_weapon.Bip01_R_Finger22" 11
  13 "v_weapon.Bip01_R_Finger3" 1
  14 "v_weapon.Bip01_R_Finger31" 13
  15 "v_weapon.Bip01_R_Finger32" 14
  16 "v_weapon.Bip01_R_Finger4" 1
  17 "v_weapon.Bip01_R_Finger41" 16
  18 "v_weapon.Bip01_R_Finger42" 17
  19 "v_weapon.Bip01_L_Finger0" 3
  20 "v_weapon.Bip01_L_Finger01" 19
  21 "v_weapon.Bip01_L_Finger02" 20
  22 "v_weapon.Bip01_L_Finger1" 3
  23 "v_weapon.Bip01_L_Finger11" 22
  24 "v_weapon.Bip01_L_Finger12" 23
  25 "v_weapon.Bip01_L_Finger2" 3
  26 "v_weapon.Bip01_L_Finger21" 25
  27 "v_weapon.Bip01_L_Finger22" 26
  28 "v_weapon.Bip01_L_Finger3" 3
  29 "v_weapon.Bip01_L_Finger31" 28
  30 "v_weapon.Bip01_L_Finger32" 29
  31 "v_weapon.Bip01_L_Finger4" 3
  32 "v_weapon.Bip01_L_Finger41" 31
  33 "v_weapon.Bip01_L_Finger42" 32
  34 "v_weapon.Bip01_L_ForeTwist" -1
  35 "v_weapon.Bip01_R_ForeTwist" -1
  36 "v_weapon" -1
  37 "v_weapon.knife" 36
  38 "v_weapon.front" 37
  39 "v_weapon.blade1" 38
  40 "v_weapon.rear" 39
  41 "v_weapon.lock" 40
end
skeleton
  time 0
    0 -7.460761 5.509339 -12.374137 -1.895216 0.117291 -1.419765
    1 10.295578 0.000000 0.000002 2.999119 -0.184432 -0.878230
    2 16.762618 -6.817925 -10.522528 -0.718634 0.309856 -2.129344
    3 10.295582 0.000001 -0.000006 -0.696672 -0.011534 -0.008280
    4 1.149520 0.416502 1.414117 -2.122870 -0.515082 0.242486
    5 1.263885 0.000000 -0.000008 0.022939 0.003404 0.152679
    6 1.188939 -0.000002 0.000010 0.005813 0.002337 -0.297058
    7 3.773755 0.133215 0.970575 -0.415845 -0.226666 0.575054
    8 1.433456 0.000000 0.000000 0.078942 -0.034492 1.506849
    9 1.019165 -0.000006 0.000001 0.106064 0.034480 0.791861
    10 3.799514 0.014957 0.039959 -0.448740 -0.092997 0.899279
    11 1.774878 0.000000 0.000000 0.012045 -0.093396 1.578363
    12 1.008844 -0.000004 0.000000 0.081435 -0.071260 0.804616
    13 3.632766 0.059052 -0.757493 -0.407799 0.008303 0.963644
    14 1.500137 0.000002 0.000000 0.070565 -0.099652 1.543318
    15 0.905666 -0.000002 -0.000001 0.121883 -0.004758 0.629632
    16 3.323331 0.233744 -1.479075 -0.143510 0.210834 1.251408
    17 0.963100 0.000011 0.000000 0.077588 -0.025216 1.188134
    18 0.682894 -0.000006 -0.000001 0.068552 0.044439 0.300669
    19 1.149529 0.416498 -1.414117 1.695985 0.643381 0.384422
    20 1.263884 0.000001 0.000000 -0.009336 0.006472 0.475888
    21 1.188946 0.000000 0.000002 -0.011266 0.001942 0.214506
    22 3.773762 0.133217 -0.970574 0.032715 0.177469 0.050131
    23 1.433458 0.000004 0.000000 -0.035223 0.012943 0.451902
    24 1.019165 0.000011 0.000000 -0.035247 0.012991 0.452158
    25 3.799517 0.014957 -0.039958 -0.033200 -0.011856 0.276310
    26 1.774879 0.000004 0.000000 -0.022399 0.008929 0.454686
    27 1.008841 0.000004 0.000000 -0.022447 0.008929 0.454767
    28 3.632765 0.059053 0.757493 -0.281201 -0.185819 0.459243
    29 1.500135 0.000004 0.000000 -0.017030 0.006580 0.424967
    30 0.905668 0.000002 -0.000001 -0.017030 0.006568 0.424967
    31 3.323332 0.233744 1.479075 -0.398980 -0.449085 0.621398
    32 0.963099 0.000010 0.000000 -0.017941 0.008941 0.549223
    33 0.682898 -0.000002 0.000000 -0.018001 0.008941 0.549349
    34 16.762618 -6.817925 -10.522528 0.365414 0.309786 -2.129480
    35 -7.460761 5.509339 -12.374137 -3.308046 0.117626 -1.419856
    36 0.000000 3.992340 0.007782 1.570796 0.000000 -1.570796
    37 10.019837 -9.902646 4.894681 1.358757 1.065141 0.578591
    38 -0.021929 2.029111 -0.137266 -1.570805 0.000001 0.000000
    39 0.019532 0.000000 0.007813 3.044652 0.000000 0.000001
    40 0.002397 -0.669111 0.409449 -1.494424 0.000000 0.000000
    41 -0.002402 -6.221447 0.929182 -2.265664 0.000000 0.000000
  time 1
    0 -7.702956 4.653845 -12.471796 -1.931958 -0.026234 -1.406280
    1 10.295578 0.000000 0.000002 3.064932 -0.178876 -0.793724
    2 16.704023 -6.825738 -10.557685 -0.728549 0.302871 -2.150110
    3 10.295582 0.000001 -0.000006 -0.744641 0.034247 -0.009538
    4 1.149520 0.416502 1.414117 -2.122870 -0.515082 0.242486
    5 1.263885 0.000000 -0.000008 0.022939 0.003404 0.152679
    6 1.188939 -0.000002 0.000010 0.005813 0.002337 -0.297058
    7 3.773755 0.133215 0.970575 -0.415845 -0.226666 0.575054
    8 1.433456 0.000000 0.000000 0.078942 -0.034492 1.506849
    9 1.019165 -0.000006 0.000001 0.106064 0.034480 0.791861
    10 3.799514 0.014957 0.039959 -0.448559 -0.092997 0.899279
    11 1.774878 0.000000 0.000000 0.012045 -0.093396 1.578363
    12 1.008844 -0.000004 0.000000 0.081435 -0.071260 0.804545
    13 3.632766 0.059052 -0.757493 -0.407683 0.008303 0.963644
    14 1.500137 0.000002 0.000000 0.070565 -0.099652 1.543318
    15 0.905666 -0.000002 -0.000001 0.121883 -0.004758 0.629632
    16 3.323331 0.233744 -1.479075 -0.143510 0.210834 1.251408
    17 0.963100 0.000011 0.000000 0.077588 -0.025216 1.188134
    18 0.682894 -0.000006 -0.000001 0.068552 0.044439 0.300669
    19 1.149529 0.416498 -1.414117 1.695985 0.643381 0.384422
    20 1.263884 0.000001 0.000000 -0.009336 0.006472 0.475888
    21 1.188946 0.000000 0.000002 -0.011266 0.001942 0.214506
    22 3.773762 0.133217 -0.970574 0.032715 0.177469 0.050131
    23 1.433458 0.000004 0.000000 -0.035223 0.012943 0.451902
    24 1.019165 0.000011 0.000000 -0.035247 0.012991 0.452158
    25 3.799517 0.014957 -0.039958 -0.033200 -0.011856 0.276310
    26 1.774879 0.000004 0.000000 -0.022399 0.008929 0.454686
    27 1.008841 0.000004 0.000000 -0.022447 0.008929 0.454767
    28 3.632765 0.059053 0.757493 -0.281201 -0.185819 0.459243
    29 1.500135 0.000004 0.000000 -0.017030 0.006580 0.424967
    30 0.905668 0.000002 -0.000001 -0.017030 0.006568 0.424967
    31 3.323332 0.233744 1.479075 -0.398980 -0.449085 0.621398
    32 0.963099 0.000010 0.000000 -0.017941 0.008941 0.549223
    33 0.682898 -0.000002 0.000000 -0.018001 0.008941 0.549349
    34 16.704023 -6.825738 -10.557685 0.355851 0.302820 -2.150318
    35 -7.702956 4.653845 -12.471796 -3.326781 -0.026530 -1.406466
    36 0.000000 3.992340 0.007782 1.570796 0.000000 -1.570796
    37 10.750328 -8.433851 5.023591 1.414521 1.073162 0.664452
    38 -0.021929 2.029111 -0.137266 -1.570805 0.000001 0.000000
    39 0.019532 0.000000 0.007813 3.044652 0.000000 0.000001
    40 0.002397 -0.669111 0.409449 -1.494424 0.000000 0.000000
    41 -0.002402 -6.221447 0.929182 -2.265664 0.000000 0.000000
  time 2
    0 -7.964683 3.294428 -12.526485 -1.973005 -0.161858 -1.335888
    1 10.295578 0.000000 0.000002 3.107830 -0.142191 -0.760571
    2 16.657146 -6.864802 -10.585029 -0.738156 0.276850 -2.182294
    3 10.295582 0.000001 -0.000006 -0.786555 0.082011 0.008799
    4 1.149520 0.416502 1.414117 -2.122870 -0.515082 0.242486
    5 1.263885 0.000000 -0.000008 0.022939 0.003404 0.152679
    6 1.188939 -0.000002 0.000010 0.005813 0.002337 -0.297058
    7 3.773755 0.133215 0.970575 -0.415845 -0.226666 0.575054
    8 1.433456 0.000000 0.000000 0.078942 -0.034492 1.506849
    9 1.019165 -0.000006 0.000001 0.106064 0.034480 0.791861
    10 3.799514 0.014957 0.039959 -0.448559 -0.092997 0.899279
    11 1.774878 0.000000 0.000000 0.012045 -0.093396 1.578363
    12 1.008844 -0.000004 0.000000 0.081435 -0.071260 0.804545
    13 3.632766 0.059052 -0.757493 -0.407683 0.008315 0.963644
    14 1.500137 0.000002 0.000000 0.070565 -0.099652 1.543318
    15 0.905666 -0.000002 -0.000001 0.121883 -0.004758 0.629632
    16 3.323331 0.233744 -1.479075 -0.143510 0.210834 1.251408
    17 0.963100 0.000011 0.000000 0.077588 -0.025216 1.188134
    18 0.682894 -0.000006 -0.000001 0.068552 0.044439 0.300669
    19 1.149529 0.416498 -1.414117 1.695985 0.643381 0.384422
    20 1.263884 0.000001 0.000000 -0.009336 0.006472 0.475888
    21 1.188946 0.000000 0.000002 -0.011266 0.001942 0.214506
    22 3.773762 0.133217 -0.970574 0.032715 0.177469 0.050131
    23 1.433458 0.000004 0.000000 -0.035223 0.012943 0.451902
    24 1.019165 0.000011 0.000000 -0.035247 0.012991 0.452158
    25 3.799517 0.014957 -0.039958 -0.033200 -0.011856 0.276310
    26 1.774879 0.000004 0.000000 -0.022399 0.008929 0.454686
    27 1.008841 0.000004 0.000000 -0.022447 0.008929 0.454767
    28 3.632765 0.059053 0.757493 -0.281201 -0.185819 0.459243
    29 1.500135 0.000004 0.000000 -0.017030 0.006580 0.424967
    30 0.905668 0.000002 -0.000001 -0.017030 0.006568 0.424967
    31 3.323332 0.233744 1.479075 -0.398980 -0.449085 0.621398
    32 0.963099 0.000010 0.000000 -0.017941 0.008941 0.549223
    33 0.682898 -0.000002 0.000000 -0.018001 0.008941 0.549349
    34 16.657146 -6.864802 -10.585029 0.346007 0.276820 -2.182289
    35 -7.964683 3.294428 -12.526485 -3.322097 -0.162257 -1.335309
    36 0.000000 3.992340 0.007782 1.570796 0.000000 -1.570796
    37 11.433943 -6.980682 4.679830 1.558532 1.092450 0.884074
    38 -0.021929 2.029111 -0.137266 -1.570805 0.000001 0.000000
    39 0.019532 0.000000 0.007813 3.044652 0.000000 0.000001
    40 0.002397 -0.669111 0.409449 -1.494424 0.000000 0.000000
    41 -0.002402 -6.221447 0.929182 -2.265664 0.000000 0.000000
  time 3
    0 -8.359226 1.618596 -12.292103 -2.059181 -0.349870 -1.252489
    1 10.295578 0.000000 0.000002 3.192398 -0.113246 -0.719582
    2 16.606363 -6.942929 -10.585029 -0.745731 0.237132 -2.220686
    3 10.295582 0.000001 -0.000006 -0.822140 0.128594 0.038496
    4 1.149520 0.416502 1.414117 -2.122796 -0.515082 0.242459
    5 1.263885 0.000000 -0.000008 0.022939 0.003404 0.152679
    6 1.188939 -0.000002 0.000010 0.005813 0.002337 -0.297058
    7 3.773755 0.133215 0.970575 -0.415845 -0.226666 0.575054
    8 1.433456 0.000000 0.000000 0.078942 -0.034492 1.506849
    9 1.019165 -0.000006 0.000001 0.106064 0.034480 0.791861
    10 3.799514 0.014957 0.039959 -0.448559 -0.092985 0.899279
    11 1.774878 0.000000 0.000000 0.012045 -0.093396 1.578363
    12 1.008844 -0.000004 0.000000 0.081435 -0.071260 0.804545
    13 3.632766 0.059052 -0.757493 -0.407683 0.008399 0.963644
    14 1.500137 0.000002 0.000000 0.070565 -0.099652 1.543318
    15 0.905666 -0.000002 -0.000001 0.121883 -0.004758 0.629540
    16 3.323331 0.233744 -1.479075 -0.143510 0.210834 1.251408
    17 0.963100 0.000011 0.000000 0.077588 -0.025216 1.188134
    18 0.682894 -0.000006 -0.000001 0.068552 0.044439 0.300669
    19 1.149529 0.416498 -1.414117 1.695985 0.643381 0.384422
    20 1.263884 0.000001 0.000000 -0.009336 0.006472 0.475888
    21 1.188946 0.000000 0.000002 -0.011266 0.001942 0.214506
    22 3.773762 0.133217 -0.970574 0.032715 0.177469 0.050131
    23 1.433458 0.000004 0.000000 -0.035223 0.012943 0.451902
    24 1.019165 0.000011 0.000000 -0.035247 0.012991 0.452158
    25 3.799517 0.014957 -0.039958 -0.033200 -0.011856 0.276310
    26 1.774879 0.000004 0.000000 -0.022399 0.008929 0.454686
    27 1.008841 0.000004 0.000000 -0.022447 0.008929 0.454767
    28 3.632765 0.059053 0.757493 -0.281201 -0.185819 0.459243
    29 1.500135 0.000004 0.000000 -0.017030 0.006580 0.424967
    30 0.905668 0.000002 -0.000001 -0.017030 0.006568 0.424967
    31 3.323332 0.233744 1.479075 -0.398980 -0.449085 0.621398
    32 0.963099 0.000010 0.000000 -0.017941 0.008941 0.549223
    33 0.682898 -0.000002 0.000000 -0.018001 0.008941 0.549349
    34 16.606363 -6.942929 -10.585029 0.338226 0.237088 -2.220825
    35 -8.359226 1.618596 -12.292103 -3.343852 -0.350186 -1.251814
    36 0.000000 3.992340 0.007782 1.570796 0.000000 -1.570796
    37 11.832392 -4.808740 4.472793 1.762714 1.115271 1.190693
    38 -0.021929 2.029111 -0.137266 -1.570805 0.000001 0.000000
    39 0.019532 0.000000 0.007813 3.044652 0.000000 0.000001
    40 0.002397 -0.669111 0.409449 -1.494424 0.000000 0.000000
    41 -0.002402 -6.221447 0.929182 -2.265664 0.000000 0.000000
  time 4
    0 -8.609234 -1.627597 -11.198319 -2.200804 -0.534778 -1.159430
    1 10.295578 0.000000 0.000002 3.310657 -0.088425 -0.696200
    2 16.543861 -7.087465 -10.557685 -0.749426 0.188511 -2.262147
    3 10.295582 0.000001 -0.000006 -0.850969 0.171802 0.072711
    4 1.149520 0.416502 1.414117 -2.122796 -0.515082 0.242459
    5 1.263885 0.000000 -0.000008 0.022939 0.003404 0.152679
    6 1.188939 -0.000002 0.000010 0.005813 0.002337 -0.297058
    7 3.773755 0.133215 0.970575 -0.415845 -0.226666 0.575054
    8 1.433456 0.000000 0.000000 0.078942 -0.034492 1.506849
    9 1.019165 -0.000006 0.000001 0.106064 0.034480 0.791861
    10 3.799514 0.014957 0.039959 -0.448559 -0.092973 0.899330
    11 1.774878 0.000000 0.000000 0.012045 -0.093396 1.578363
    12 1.008844 -0.000004 0.000000 0.081435 -0.071260 0.804545
    13 3.632766 0.059052 -0.757493 -0.407683 0.008459 0.963644
    14 1.500137 0.000002 0.000000 0.070565 -0.099652 1.543318
    15 0.905666 -0.000002 -0.000001 0.121883 -0.004758 0.629540
    16 3.323331 0.233744 -1.479075 -0.143510 0.210834 1.251408
    17 0.963100 0.000011 0.000000 0.077588 -0.025216 1.188134
    18 0.682894 -0.000006 -0.000001 0.068552 0.044439 0.300713
    19 1.149529 0.416498 -1.414117 1.695985 0.643381 0.384422
    20 1.263884 0.000001 0.000000 -0.009336 0.006472 0.475888
    21 1.188946 0.000000 0.000002 -0.011266 0.001942 0.214506
    22 3.773762 0.133217 -0.970574 0.032715 0.177469 0.050131
    23 1.433458 0.000004 0.000000 -0.035223 0.012943 0.451902
    24 1.019165 0.000011 0.000000 -0.035247 0.012991 0.452158
    25 3.799517 0.014957 -0.039958 -0.033200 -0.011856 0.276310
    26 1.774879 0.000004 0.000000 -0.022399 0.008929 0.454686
    27 1.008841 0.000004 0.000000 -0.022447 0.008929 0.454767
    28 3.632765 0.059053 0.757493 -0.281201 -0.185819 0.459243
    29 1.500135 0.000004 0.000000 -0.017030 0.006580 0.424967
    30 0.905668 0.000002 -0.000001 -0.017030 0.006568 0.424967
    31 3.323332 0.233744 1.479075 -0.398980 -0.449085 0.621398
    32 0.963099 0.000010 0.000000 -0.017941 0.008941 0.549223
    33 0.682898 -0.000002 0.000000 -0.018001 0.008941 0.549349
    34 16.543861 -7.087465 -10.557685 0.335038 0.188472 -2.262287
    35 -8.609234 -1.627597 -11.198319 -3.410657 -0.534571 -1.158277
    36 0.000000 3.992340 0.007782 1.570796 0.000000 -1.570796
    37 13.375408 -2.015687 4.207160 2.002636 1.135514 1.539627
    38 -0.021929 2.029111 -0.137266 -1.570805 0.000001 0.000000
    39 0.019532 0.000000 0.007813 3.044652 0.000000 0.000001
    40 0.002397 -0.669111 0.409449 -1.494424 0.000000 0.000000
    41 -0.002402 -6.221447 0.929182 -2.265664 0.000000 0.000000
  time 5
    0 -8.515481 -3.830789 -9.963907 -2.286535 -0.591586 -1.109505
    1 10.295578 0.000000 0.000002 3.370537 -0.087406 -0.781955
    2 16.418858 -7.306222 -10.526434 -0.748379 0.136307 -2.303108
    3 10.295582 0.000001 -0.000006 -0.872922 0.209045 0.104219
    4 1.149520 0.416502 1.414117 -2.122796 -0.515082 0.242431
    5 1.263885 0.000000 -0.000008 0.022939 0.003404 0.152679
    6 1.188939 -0.000002 0.000010 0.005813 0.002337 -0.297058
    7 3.773755 0.133215 0.970575 -0.415845 -0.226666 0.575054
    8 1.433456 0.000000 0.000000 0.078942 -0.034492 1.506849
    9 1.019165 -0.000006 0.000001 0.106064 0.034480 0.791861
    10 3.799514 0.014957 0.039959 -0.448559 -0.092949 0.899330
    11 1.774878 0.000000 0.000000 0.012045 -0.093396 1.578315
    12 1.008844 -0.000004 0.000000 0.081435 -0.071260 0.804521
    13 3.632766 0.059052 -0.757493 -0.407683 0.008579 0.963644
    14 1.500137 0.000002 0.000000 0.070565 -0.099652 1.543318
    15 0.905666 -0.000002 -0.000001 0.121883 -0.004758 0.629540
    16 3.323331 0.233744 -1.479075 -0.143510 0.210834 1.251408
    17 0.963100 0.000011 0.000000 0.077588 -0.025216 1.188134
    18 0.682894 -0.000006 -0.000001 0.068552 0.044439 0.300713
    19 1.149529 0.416498 -1.414117 1.695985 0.643381 0.384422
    20 1.263884 0.000001 0.000000 -0.009336 0.006472 0.475888
    21 1.188946 0.000000 0.000002 -0.011266 0.001942 0.214506
    22 3.773762 0.133217 -0.970574 0.032715 0.177469 0.050131
    23 1.433458 0.000004 0.000000 -0.035223 0.012943 0.451902
    24 1.019165 0.000011 0.000000 -0.035247 0.012991 0.452158
    25 3.799517 0.014957 -0.039958 -0.033200 -0.011856 0.276310
    26 1.774879 0.000004 0.000000 -0.022399 0.008929 0.454686
    27 1.008841 0.000004 0.000000 -0.022447 0.008929 0.454767
    28 3.632765 0.059053 0.757493 -0.281201 -0.185819 0.459243
    29 1.500135 0.000004 0.000000 -0.017030 0.006580 0.424967
    30 0.905668 0.000002 -0.000001 -0.017030 0.006568 0.424967
    31 3.323332 0.233744 1.479075 -0.398980 -0.449085 0.621398
    32 0.963099 0.000010 0.000000 -0.017941 0.008941 0.549223
    33 0.682898 -0.000002 0.000000 -0.018001 0.008941 0.549349
    34 16.418858 -7.306222 -10.526434 0.335601 0.136310 -2.303178
    35 -8.515481 -3.830789 -9.963907 -3.419778 -0.591467 -1.109213
    36 0.000000 3.992340 0.007782 1.570796 0.000000 -1.570796
    37 14.594195 -0.355480 3.796991 2.243228 1.151651 1.877864
    38 -0.021929 2.029111 -0.137266 -1.570805 0.000001 0.000000
    39 0.019532 0.000000 0.007813 3.044652 0.000000 0.000001
    40 0.002397 -0.669111 0.409449 -1.493187 0.000000 0.000000
    41 -0.002402 -6.221447 0.929182 -2.265832 0.000000 0.000000
  time 6
    0 -8.077968 -5.088640 -9.104506 -2.289504 -0.547193 -1.123660
    1 10.295578 0.000000 0.000002 3.369514 -0.118414 -0.931737
    2 16.293854 -7.583574 -10.491277 -0.742590 0.086202 -2.339360
    3 10.295582 0.000001 -0.000006 -0.886750 0.237425 0.125415
    4 1.149520 0.416502 1.414117 -2.116063 -0.516110 0.228253
    5 1.263885 0.000000 -0.000008 0.022939 0.003404 0.152679
    6 1.188939 -0.000002 0.000010 0.005813 0.002337 -0.297058
    7 3.773755 0.133215 0.970575 -0.415845 -0.226666 0.575054
    8 1.433456 0.000000 0.000000 0.078942 -0.034492 1.506849
    9 1.019165 -0.000006 0.000001 0.106064 0.034480 0.791861
    10 3.799514 0.014957 0.039959 -0.419061 -0.076027 0.899178
    11 1.774878 0.000000 0.000000 0.014549 -0.092929 1.550918
    12 1.008844 -0.000004 0.000000 0.084384 -0.067977 0.762637
    13 3.632766 0.059052 -0.757493 -0.384472 0.063828 0.940903
    14 1.500137 0.000002 0.000000 0.070206 -0.099928 1.548253
    15 0.905666 -0.000002 -0.000001 0.121907 -0.002205 0.609494
    16 3.323331 0.233744 -1.479075 -0.143510 0.210834 1.251408
    17 0.963100 0.000011 0.000000 0.077588 -0.025755 1.191315
    18 0.682894 -0.000006 -0.000001 0.069607 0.042497 0.327153
    19 1.149529 0.416498 -1.414117 1.695985 0.643381 0.384422
    20 1.263884 0.000001 0.000000 -0.009336 0.006472 0.475888
    21 1.188946 0.000000 0.000002 -0.011266 0.001942 0.214506
    22 3.773762 0.133217 -0.970574 0.032715 0.177469 0.050131
    23 1.433458 0.000004 0.000000 -0.035223 0.012943 0.451902
    24 1.019165 0.000011 0.000000 -0.035247 0.012991 0.452158
    25 3.799517 0.014957 -0.039958 -0.033200 -0.011856 0.276310
    26 1.774879 0.000004 0.000000 -0.022399 0.008929 0.454686
    27 1.008841 0.000004 0.000000 -0.022447 0.008929 0.454767
    28 3.632765 0.059053 0.757493 -0.281201 -0.185819 0.459243
    29 1.500135 0.000004 0.000000 -0.017030 0.006580 0.424967
    30 0.905668 0.000002 -0.000001 -0.017030 0.006568 0.424967
    31 3.323332 0.233744 1.479075 -0.398980 -0.449085 0.621398
    32 0.963099 0.000010 0.000000 -0.017941 0.008941 0.549223
    33 0.682898 -0.000002 0.000000 -0.018001 0.008941 0.549349
    34 16.293854 -7.583574 -10.491277 0.341226 0.086211 -2.339217
    35 -8.077968 -5.088640 -9.104506 -3.353774 -0.548172 -1.124324
    36 0.000000 3.992340 0.007782 1.570796 0.000000 -1.570796
    37 15.719230 -0.019532 3.246193 2.448369 1.167979 2.153717
    38 -0.021929 2.029111 -0.137266 -1.570805 0.000001 0.000000
    39 0.019532 0.000000 0.007813 3.020157 -0.005213 -0.004014
    40 0.002397 -0.669111 0.409449 -1.098497 0.000000 0.000000
    41 -0.002402 -6.221447 0.929182 -2.310441 0.000000 0.000000
  time 7
    0 -7.527169 -5.893352 -8.506831 -2.265826 -0.484554 -1.158856
    1 10.295578 0.000000 0.000002 3.353555 -0.168128 -1.044620
    2 16.106348 -7.899990 -10.448307 -0.733722 0.043280 -2.368975
    3 10.295582 0.000001 -0.000006 -0.892023 0.254312 0.129551
    4 1.149520 0.416502 1.414117 -2.102523 -0.512566 0.192726
    5 1.263885 0.000000 -0.000008 0.022939 0.003404 0.152679
    6 1.188939 -0.000002 0.000010 0.005813 0.002337 -0.297058
    7 3.773755 0.133215 0.970575 -0.364928 -0.204362 0.542680
    8 1.433456 0.000000 0.000000 0.082610 -0.024544 1.385898
    9 1.019165 -0.000006 0.000001 0.103667 0.040915 0.728988
    10 3.799514 0.014957 0.039959 -0.346524 -0.035735 0.897499
    11 1.774878 0.000000 0.000000 0.021788 -0.091442 1.474985
    12 1.008844 -0.000004 0.000000 0.091383 -0.058101 0.652564
    13 3.632766 0.059052 -0.757493 -0.322658 0.179024 0.886950
    14 1.500137 0.000002 0.000000 0.069007 -0.100695 1.557604
    15 0.905666 -0.000002 -0.000001 0.121847 0.004231 0.555609
    16 3.323331 0.233744 -1.479075 -0.143510 0.210834 1.251408
    17 0.963100 0.000011 0.000000 0.077840 -0.026833 1.199159
    18 0.682894 -0.000006 -0.000001 0.072099 0.038111 0.390452
    19 1.149529 0.416498 -1.414117 1.695985 0.643381 0.384422
    20 1.263884 0.000001 0.000000 -0.009336 0.006472 0.475888
    21 1.188946 0.000000 0.000002 -0.011266 0.001942 0.214506
    22 3.773762 0.133217 -0.970574 0.032715 0.177469 0.050131
    23 1.433458 0.000004 0.000000 -0.035223 0.012943 0.451902
    24 1.019165 0.000011 0.000000 -0.035247 0.012991 0.452158
    25 3.799517 0.014957 -0.039958 -0.033200 -0.011856 0.276310
    26 1.774879 0.000004 0.000000 -0.022399 0.008929 0.454686
    27 1.008841 0.000004 0.000000 -0.022447 0.008929 0.454767
    28 3.632765 0.059053 0.757493 -0.281201 -0.185819 0.459243
    29 1.500135 0.000004 0.000000 -0.017030 0.006580 0.424967
    30 0.905668 0.000002 -0.000001 -0.017030 0.006568 0.424967
    31 3.323332 0.233744 1.479075 -0.398980 -0.449085 0.621398
    32 0.963099 0.000010 0.000000 -0.017941 0.008941 0.549223
    33 0.682898 -0.000002 0.000000 -0.018001 0.008941 0.549349
    34 16.106348 -7.899990 -10.448307 0.350320 0.043294 -2.368904
    35 -7.527169 -5.893352 -8.506831 -3.278218 -0.484763 -1.159329
    36 0.000000 3.992340 0.007782 1.570796 0.000000 -1.570796
    37 16.750511 -0.113285 2.695395 2.588738 1.193951 2.324492
    38 -0.021929 2.029111 -0.137266 -1.570805 0.000001 0.000000
    39 0.019532 0.000000 0.007813 3.019009 -0.018360 -0.017269
    40 0.002397 -0.669111 0.409449 -0.466404 0.000000 0.000000
    41 -0.002402 -6.221447 0.929182 -2.367683 0.000000 0.000000
  time 8
    0 -7.093562 -6.381648 -8.112288 -2.243781 -0.442324 -1.188218
    1 10.295578 0.000000 0.000002 3.100532 -0.317755 -0.869333
    2 15.907123 -8.239844 -10.397524 -0.723807 0.012429 -2.387743
    3 10.295582 0.000001 -0.000006 -0.886906 0.256752 0.109594
    4 1.149520 0.416502 1.414117 -2.093701 -0.493696 0.151006
    5 1.263885 0.000000 -0.000008 0.022939 0.003404 0.152679
    6 1.188939 -0.000002 0.000010 0.005813 0.002337 -0.297058
    7 3.773755 0.133215 0.970575 -0.246712 -0.157623 0.460276
    8 1.433456 0.000000 0.000000 0.086109 0.000204 1.093174
    9 1.019165 -0.000006 0.000001 0.096033 0.056447 0.574386
    10 3.799514 0.014957 0.039959 -0.259149 0.009375 0.892363
    11 1.774878 0.000000 0.000000 0.032095 -0.088386 1.360421
    12 1.008844 -0.000004 0.000000 0.099137 -0.043840 0.501677
    13 3.632766 0.059052 -0.757493 -0.237855 0.269148 0.826587
    14 1.500137 0.000002 0.000000 0.068492 -0.101198 1.565076
    15 0.905666 -0.000002 -0.000001 0.121236 0.013579 0.478950
    16 3.323331 0.233744 -1.479075 -0.143510 0.210834 1.251408
    17 0.963100 0.000011 0.000000 0.077996 -0.028380 1.208136
    18 0.682894 -0.000006 -0.000001 0.074916 0.032478 0.464257
    19 1.149529 0.416498 -1.414117 1.695985 0.643381 0.384422
    20 1.263884 0.000001 0.000000 -0.009336 0.006472 0.475888
    21 1.188946 0.000000 0.000002 -0.011266 0.001942 0.214506
    22 3.773762 0.133217 -0.970574 0.032715 0.177469 0.050131
    23 1.433458 0.000004 0.000000 -0.035223 0.012943 0.451902
    24 1.019165 0.000011 0.000000 -0.035247 0.012991 0.452158
    25 3.799517 0.014957 -0.039958 -0.033200 -0.011856 0.276310
    26 1.774879 0.000004 0.000000 -0.022399 0.008929 0.454686
    27 1.008841 0.000004 0.000000 -0.022447 0.008929 0.454767
    28 3.632765 0.059053 0.757493 -0.281201 -0.185819 0.459243
    29 1.500135 0.000004 0.000000 -0.017030 0.006580 0.424967
    30 0.905668 0.000002 -0.000001 -0.017030 0.006568 0.424967
    31 3.323332 0.233744 1.479075 -0.398980 -0.449085 0.621398
    32 0.963099 0.000010 0.000000 -0.017941 0.008941 0.549223
    33 0.682898 -0.000002 0.000000 -0.018001 0.008941 0.549349
    34 15.907123 -8.239844 -10.397524 0.360726 0.012410 -2.387530
    35 -7.093562 -6.381648 -8.112288 -3.229470 -0.443001 -1.188308
    36 0.000000 3.992340 0.007782 1.570796 0.000000 -1.570796
    37 18.125553 -0.390637 1.531297 2.848398 1.288768 2.572419
    38 -0.021929 2.029111 -0.137266 -1.570805 0.000001 0.000000
    39 0.019532 0.000000 0.007813 3.027429 -0.033832 -0.042257
    40 0.002397 -0.669111 0.409449 0.108218 0.000000 0.000000
    41 -0.002402 -6.221447 0.929182 -2.378888 0.000000 0.000000
  time 9
    0 -6.781053 -6.647282 -7.913063 -2.220474 -0.415707 -1.211937
    1 10.295578 0.000000 0.000002 2.480798 -0.304605 -0.354086
    2 15.700086 -8.599230 -10.303771 -0.709766 -0.009267 -2.392524
    3 10.295582 0.000001 -0.000006 -0.863351 0.236358 0.055041
    4 1.149520 0.416502 1.414117 -2.064655 -0.401312 0.105483
    5 1.263885 0.000000 -0.000008 0.022939 0.003404 0.152679
    6 1.188939 -0.000002 0.000010 0.005813 0.002337 -0.297058
    7 3.773755 0.133215 0.970575 -0.128509 -0.119811 0.359561
    8 1.433456 0.000000 0.000000 0.081375 0.028200 0.763419
    9 1.019165 -0.000006 0.000001 0.084348 0.072818 0.393618
    10 3.799514 0.014957 0.039959 -0.171340 0.039409 0.838609
    11 1.774878 0.000000 0.000000 0.051390 -0.078931 1.130629
    12 1.008844 -0.000004 0.000000 0.104578 -0.028439 0.353002
    13 3.632766 0.059052 -0.757493 -0.095483 0.292422 0.786513
    14 1.500137 0.000002 0.000000 0.101222 -0.068240 1.182747
    15 0.905666 -0.000002 -0.000001 0.119846 0.023430 0.398245
    16 3.323331 0.233744 -1.479075 -0.143510 0.210834 1.251408
    17 0.963100 0.000011 0.000000 0.078164 -0.029302 1.213931
    18 0.682894 -0.000006 -0.000001 0.076378 0.029063 0.511797
    19 1.149529 0.416498 -1.414117 1.695985 0.643381 0.384422
    20 1.263884 0.000001 0.000000 -0.009336 0.006472 0.475888
    21 1.188946 0.000000 0.000002 -0.011266 0.001942 0.214506
    22 3.773762 0.133217 -0.970574 0.032715 0.177469 0.050131
    23 1.433458 0.000004 0.000000 -0.035223 0.012943 0.451902
    24 1.019165 0.000011 0.000000 -0.035247 0.012991 0.452158
    25 3.799517 0.014957 -0.039958 -0.033200 -0.011856 0.276310
    26 1.774879 0.000004 0.000000 -0.022399 0.008929 0.454686
    27 1.008841 0.000004 0.000000 -0.022447 0.008929 0.454767
    28 3.632765 0.059053 0.757493 -0.281201 -0.185819 0.459243
    29 1.500135 0.000004 0.000000 -0.017030 0.006580 0.424967
    30 0.905668 0.000002 -0.000001 -0.017030 0.006568 0.424967
    31 3.323332 0.233744 1.479075 -0.398980 -0.449085 0.621398
    32 0.963099 0.000010 0.000000 -0.017941 0.008941 0.549223
    33 0.682898 -0.000002 0.000000 -0.018001 0.008941 0.549349
    34 15.700086 -8.599230 -10.303771 0.374039 -0.009320 -2.392311
    35 -6.781053 -6.647282 -7.913063 -3.205126 -0.416373 -1.211836
    36 0.000000 3.992340 0.007782 1.570796 0.000000 -1.570796
    37 20.285775 -1.015656 0.726585 -0.923853 1.436198 -1.213318
    38 -0.021929 2.029111 -0.137266 -1.570805 0.000001 0.000000
    39 0.019532 0.000000 0.007813 -2.955557 -0.046129 -0.079709
    40 0.002397 -0.669111 0.409449 1.021580 0.000000 0.000000
    41 -0.002402 -6.221447 0.929182 -2.337971 0.000000 0.000000
  time 10
    0 -6.519326 -6.756660 -7.881812 -2.193901 -0.394357 -1.230874
    1 10.295578 0.000000 0.000002 1.910372 -0.132389 0.085865
    2 15.528205 -9.009399 -10.116265 -0.687288 -0.029678 -2.384175
    3 10.295582 0.000001 -0.000006 -0.815617 0.184572 -0.036643
    4 1.149520 0.416502 1.414117 -2.029048 -0.505514 0.118548
    5 1.263885 0.000000 -0.000008 0.022939 0.003404 0.152679
    6 1.188939 -0.000002 0.000010 0.005813 0.002337 -0.297058
    7 3.773755 0.133215 0.970575 -0.079242 -0.113208 0.251311
    8 1.433456 0.000000 0.000000 0.074436 0.043157 0.570440
    9 1.019165 -0.000006 0.000001 0.073478 0.083712 0.255687
    10 3.799514 0.014957 0.039959 -0.140404 0.040224 0.740357
    11 1.774878 0.000000 0.000000 0.064729 -0.068468 0.950891
    12 1.008844 -0.000004 0.000000 0.107238 -0.015280 0.229514
    13 3.632766 0.059052 -0.757493 -0.055522 0.253220 0.694826
    14 1.500137 0.000002 0.000000 0.116778 -0.035822 0.886883
    15 0.905666 -0.000002 -0.000001 0.116946 0.035223 0.299149
    16 3.323331 0.233744 -1.479075 -0.157592 0.200562 1.182507
    17 0.963100 0.000011 0.000000 0.080177 -0.024305 1.147522
    18 0.682894 -0.000006 -0.000001 0.074556 0.033077 0.456859
    19 1.149529 0.416498 -1.414117 1.695985 0.643381 0.384422
    20 1.263884 0.000001 0.000000 -0.009336 0.006472 0.475888
    21 1.188946 0.000000 0.000002 -0.011266 0.001942 0.214506
    22 3.773762 0.133217 -0.970574 0.033338 0.177181 0.053714
    23 1.433458 0.000004 0.000000 -0.034611 0.014202 0.482074
    24 1.019165 0.000011 0.000000 -0.035247 0.012991 0.452158
    25 3.799517 0.014957 -0.039958 -0.033259 -0.011724 0.284156
    26 1.774879 0.000004 0.000000 -0.022171 0.009132 0.472761
    27 1.008841 0.000004 0.000000 -0.022447 0.008929 0.454767
    28 3.632765 0.059053 0.757493 -0.283454 -0.182259 0.471244
    29 1.500135 0.000004 0.000000 -0.017030 0.006580 0.424967
    30 0.905668 0.000002 -0.000001 -0.017030 0.006568 0.424967
    31 3.323332 0.233744 1.479075 -0.402240 -0.445250 0.628377
    32 0.963099 0.000010 0.000000 -0.017929 0.008941 0.551644
    33 0.682898 -0.000002 0.000000 -0.018001 0.008941 0.549349
    34 15.528205 -9.009399 -10.116265 0.397008 -0.029656 -2.384175
    35 -6.519326 -6.756660 -7.881812 -3.192616 -0.395013 -1.231060
    36 0.000000 3.992340 0.007782 1.570796 0.000000 -1.570796
    37 22.164739 -2.273507 0.578143 -0.864447 1.139047 -1.201958
    38 -0.021929 2.029111 -0.137266 -1.570805 0.000001 0.000000
    39 0.019532 0.000000 0.007813 -2.340217 -0.003979 -0.201820
    40 0.002397 -0.669111 0.409449 1.390198 0.000000 0.000000
    41 -0.002402 -6.221447 0.929182 -2.220467 0.000000 0.000000
  time 11
    0 -6.320101 -6.760566 -7.979471 -2.166289 -0.381942 -1.245316
    1 10.295578 0.000000 0.000002 1.692950 -0.009232 0.292557
    2 15.379763 -9.446912 -9.835007 -0.658836 -0.049746 -2.365621
    3 10.295582 0.000001 -0.000006 -0.749055 0.113536 -0.161684
    4 1.149520 0.416502 1.414117 -1.906131 -0.720723 0.157552
    5 1.263885 0.000000 -0.000008 0.022939 0.003404 0.152207
    6 1.188939 -0.000002 0.000010 0.005813 0.002337 -0.296554
    7 3.773755 0.133215 0.970575 -0.076549 -0.114885 0.228400
    8 1.433456 0.000000 0.000000 0.072411 0.046932 0.521788
    9 1.019165 -0.000006 0.000001 0.069283 0.087380 0.206757
    10 3.799514 0.014957 0.039959 -0.142080 0.033488 0.692502
    11 1.774878 0.000000 0.000000 0.068025 -0.065028 0.901786
    12 1.008844 -0.000004 0.000000 0.107801 -0.010223 0.181066
    13 3.632766 0.059052 -0.757493 -0.069606 0.203616 0.639981
    14 1.500137 0.000002 0.000000 0.118396 -0.029938 0.838246
    15 0.905666 -0.000002 -0.000001 0.114992 0.040808 0.250628
    16 3.323331 0.233744 -1.479075 -0.166424 0.192419 1.134757
    17 0.963100 0.000011 0.000000 0.081244 -0.020122 1.096626
    18 0.682894 -0.000006 -0.000001 0.072782 0.036829 0.407612
    19 1.149529 0.416498 -1.414117 1.695985 0.643381 0.384422
    20 1.263884 0.000001 0.000000 -0.009336 0.006472 0.475888
    21 1.188946 0.000000 0.000002 -0.011266 0.001942 0.214506
    22 3.773762 0.133217 -0.970574 0.035196 0.177014 0.064337
    23 1.433458 0.000004 0.000000 -0.033221 0.017186 0.570351
    24 1.019165 0.000011 0.000000 -0.035247 0.012991 0.452158
    25 3.799517 0.014957 -0.039958 -0.033727 -0.010933 0.309443
    26 1.774879 0.000004 0.000000 -0.021824 0.010463 0.525887
    27 1.008841 0.000004 0.000000 -0.022447 0.008929 0.454767
    28 3.632765 0.059053 0.757493 -0.289674 -0.172048 0.506391
    29 1.500135 0.000004 0.000000 -0.017030 0.006580 0.424967
    30 0.905668 0.000002 -0.000001 -0.017030 0.006568 0.424967
    31 3.323332 0.233744 1.479075 -0.411612 -0.434045 0.648615
    32 0.963099 0.000010 0.000000 -0.017893 0.009036 0.558732
    33 0.682898 -0.000002 0.000000 -0.018001 0.008941 0.549349
    34 15.379763 -9.446912 -9.835007 0.425696 -0.049740 -2.365621
    35 -6.320101 -6.760566 -7.979471 -3.185159 -0.382178 -1.245406
    36 0.000000 3.992340 0.007782 1.570796 0.000000 -1.570796
    37 22.735069 -2.781335 0.726585 -0.884473 1.079464 -1.149798
    38 -0.021929 2.029111 -0.137266 -1.570805 0.000001 0.000000
    39 0.019532 0.000000 0.007813 -1.588624 0.050156 -0.113781
    40 0.002397 -0.669111 0.409449 1.467937 0.000000 0.000000
    41 -0.002402 -6.221447 0.929182 -1.778149 0.000000 0.000000
  time 12
    0 -6.245880 -6.678532 -8.135726 -2.143130 -0.388902 -1.254784
    1 10.295578 0.000000 0.000002 1.638663 0.069937 0.434691
    2 15.250853 -9.864893 -9.518591 -0.629399 -0.067207 -2.340502
    3 10.295582 0.000001 -0.000006 -0.680383 0.039737 -0.294750
    4 1.149520 0.416502 1.414117 -1.689245 -0.745263 0.131205
    5 1.263885 0.000000 -0.000008 0.022747 0.007251 -0.007851
    6 1.188939 -0.000002 0.000010 0.005813 0.002253 -0.293071
    7 3.773755 0.133215 0.970575 -0.061372 -0.097795 0.399076
    8 1.433456 0.000000 0.000000 0.071308 0.048406 0.501758
    9 1.019165 -0.000006 0.000001 0.064825 0.090604 0.156183
    10 3.799514 0.014957 0.039959 -0.119004 0.007230 0.771735
    11 1.774878 0.000000 0.000000 0.074292 -0.057658 0.796038
    12 1.008844 -0.000004 0.000000 0.107706 -0.011230 0.190437
    13 3.632766 0.059052 -0.757493 -0.058149 0.102035 0.680947
    14 1.500137 0.000002 0.000000 0.118372 -0.029985 0.838716
    15 0.905666 -0.000002 -0.000001 0.113961 0.043336 0.227946
    16 3.323331 0.233744 -1.479075 -0.019985 0.063674 1.488226
    17 0.963100 0.000011 0.000000 0.074772 0.034600 0.425694
    18 0.682894 -0.000006 -0.000001 0.066491 0.047207 0.257638
    19 1.149529 0.416498 -1.414117 1.695985 0.643381 0.384422
    20 1.263884 0.000001 0.000000 -0.009336 0.006472 0.475888
    21 1.188946 0.000000 0.000002 -0.011266 0.001942 0.214506
    22 3.773762 0.133217 -0.970574 0.037772 0.176295 0.079926
    23 1.433458 0.000004 0.000000 -0.030717 0.021381 0.700206
    24 1.019165 0.000011 0.000000 -0.035247 0.012991 0.452158
    25 3.799517 0.014957 -0.039958 -0.033979 -0.009543 0.345174
    26 1.774879 0.000004 0.000000 -0.020745 0.012033 0.603765
    27 1.008841 0.000004 0.000000 -0.022447 0.008929 0.454767
    28 3.632765 0.059053 0.757493 -0.298087 -0.156996 0.557750
    29 1.500135 0.000004 0.000000 -0.017030 0.006580 0.424967
    30 0.905668 0.000002 -0.000001 -0.017030 0.006568 0.424967
    31 3.323332 0.233744 1.479075 -0.424884 -0.417087 0.677853
    32 0.963099 0.000010 0.000000 -0.017617 0.009408 0.569225
    33 0.682898 -0.000002 0.000000 -0.018001 0.008941 0.549349
    34 15.250853 -9.864893 -9.518591 0.455134 -0.067181 -2.340430
    35 -6.245880 -6.678532 -8.135726 -3.185159 -0.388787 -1.255066
    36 0.000000 3.992340 0.007782 1.570796 0.000000 -1.570796
    37 22.809290 -2.800867 1.078158 -0.689872 0.971279 -0.851320
    38 -0.021929 2.029111 -0.137266 -1.570805 0.000001 0.000000
    39 0.019532 0.000000 0.007813 -0.608731 0.000000 0.000001
    40 0.002397 -0.669111 0.409449 1.570796 0.000000 0.000000
    41 -0.002402 -6.221447 0.929182 -1.176151 0.000000 0.000000
  time 13
    0 -6.320101 -6.526184 -8.323232 -2.126207 -0.415707 -1.264157
    1 10.295578 0.000000 0.000002 1.588331 0.163712 0.605483
    2 15.137568 -10.255530 -9.182643 -0.603164 -0.080525 -2.312956
    3 10.295582 0.000001 -0.000006 -0.628664 -0.023999 -0.387444
    4 1.149520 0.416502 1.414117 -1.562494 -0.734614 0.124686
    5 1.263885 0.000000 -0.000008 0.021333 0.011014 -0.177057
    6 1.188939 -0.000002 0.000010 0.005825 0.002097 -0.282118
    7 3.773755 0.133215 0.970575 -0.011981 -0.068026 0.695176
    8 1.433456 0.000000 0.000000 0.068720 0.052205 0.447545
    9 1.019165 -0.000006 0.000001 0.051714 0.098525 0.020494
    10 3.799514 0.014957 0.039959 -0.056812 -0.008290 0.997023
    11 1.774878 0.000000 0.000000 0.087499 -0.034336 0.510742
    12 1.008844 -0.000004 0.000000 0.107490 -0.014298 0.218716
    13 3.632766 0.059052 -0.757493 -0.046784 0.005007 0.815105
    14 1.500137 0.000002 0.000000 0.118288 -0.030381 0.840549
    15 0.905666 -0.000002 -0.000001 0.114369 0.042881 0.233310
    16 3.323331 0.233744 -1.479075 0.070691 -0.107714 1.845445
    17 0.963100 0.000011 0.000000 0.036277 0.073166 -0.232078
    18 0.682894 -0.000006 -0.000001 0.061133 0.054027 0.153672
    19 1.149529 0.416498 -1.414117 1.695985 0.643381 0.384422
    20 1.263884 0.000001 0.000000 -0.009336 0.006472 0.475888
    21 1.188946 0.000000 0.000002 -0.011266 0.001942 0.214506
    22 3.773762 0.133217 -0.970574 0.040685 0.175695 0.095514
    23 1.433458 0.000004 0.000000 -0.027696 0.025216 0.829932
    24 1.019165 0.000011 0.000000 -0.035247 0.012991 0.452158
    25 3.799517 0.014957 -0.039958 -0.034398 -0.008477 0.381606
    26 1.774879 0.000004 0.000000 -0.019811 0.013603 0.681724
    27 1.008841 0.000004 0.000000 -0.022447 0.008929 0.454767
    28 3.632765 0.059053 0.757493 -0.305505 -0.141164 0.608885
    29 1.500135 0.000004 0.000000 -0.017030 0.006580 0.424967
    30 0.905668 0.000002 -0.000001 -0.017030 0.006568 0.424967
    31 3.323332 0.233744 1.479075 -0.437647 -0.399817 0.706633
    32 0.963099 0.000010 0.000000 -0.017509 0.009612 0.579743
    33 0.682898 -0.000002 0.000000 -0.018001 0.008941 0.549349
    34 15.137568 -10.255530 -9.182643 0.481197 -0.080498 -2.312955
    35 -6.320101 -6.526184 -8.323232 -3.194773 -0.416373 -1.264343
    36 0.000000 3.992340 0.007782 1.570796 0.000000 -1.570796
    37 22.875698 -2.961028 1.851619 -0.551514 0.804179 -0.715003
    38 -0.021929 2.029111 -0.137266 -1.570805 0.000001 0.000000
    39 0.019532 0.000000 0.007813 0.000007 0.000000 0.000001
    40 0.002397 -0.669111 0.409449 1.570796 0.000000 0.000000
    41 -0.002402 -6.221447 0.929182 -0.890280 0.000000 0.000000
  time 14
    0 -6.468543 -6.350397 -8.506831 -2.110768 -0.451165 -1.280416
    1 10.295578 0.000000 0.000002 1.563779 0.229973 0.696326
    2 15.028190 -10.552414 -8.901384 -0.584258 -0.086931 -2.284269
    3 10.295582 0.000001 -0.000006 -0.591164 -0.074832 -0.432028
    4 1.149520 0.416502 1.414117 -1.547259 -0.794024 0.149702
    5 1.263885 0.000000 -0.000008 0.019990 0.010930 -0.193228
    6 1.188939 -0.000002 0.000010 0.005836 0.001942 -0.258562
    7 3.773755 0.133215 0.970575 0.037063 -0.043301 1.050548
    8 1.433456 0.000000 0.000000 0.065604 0.056028 0.390709
    9 1.019165 -0.000006 0.000001 0.037044 0.105069 -0.122931
    10 3.799514 0.014957 0.039959 0.017931 0.009567 1.282575
    11 1.774878 0.000000 0.000000 0.093743 -0.006651 0.210894
    12 1.008844 -0.000004 0.000000 0.106831 -0.018420 0.258626
    13 3.632766 0.059052 -0.757493 -0.037101 -0.018507 1.030249
    14 1.500137 0.000002 0.000000 0.118024 -0.030693 0.842710
    15 0.905666 -0.000002 -0.000001 0.117821 0.031484 0.330260
    16 3.323331 0.233744 -1.479075 0.065645 -0.110781 1.890676
    17 0.963100 0.000011 0.000000 0.039753 0.071272 -0.186498
    18 0.682894 -0.000006 -0.000001 0.068935 0.043612 0.312751
    19 1.149529 0.416498 -1.414117 1.695985 0.643381 0.384422
    20 1.263884 0.000001 0.000000 -0.009336 0.006472 0.475888
    21 1.188946 0.000000 0.000002 -0.011266 0.001942 0.214506
    22 3.773762 0.133217 -0.970574 0.042350 0.175420 0.106106
    23 1.433458 0.000004 0.000000 -0.025359 0.027577 0.918123
    24 1.019165 0.000011 0.000000 -0.035247 0.012991 0.452158
    25 3.799517 0.014957 -0.039958 -0.034590 -0.007566 0.406193
    26 1.774879 0.000004 0.000000 -0.019044 0.014561 0.734647
    27 1.008841 0.000004 0.000000 -0.022447 0.008929 0.454767
    28 3.632765 0.059053 0.757493 -0.310203 -0.130246 0.643472
    29 1.500135 0.000004 0.000000 -0.017030 0.006580 0.424967
    30 0.905668 0.000002 -0.000001 -0.017030 0.006568 0.424967
    31 3.323332 0.233744 1.479075 -0.446044 -0.387700 0.726116
    32 0.963099 0.000010 0.000000 -0.017498 0.009684 0.586831
    33 0.682898 -0.000002 0.000000 -0.018001 0.008941 0.549349
    34 15.028190 -10.552414 -8.901384 0.500135 -0.086884 -2.284267
    35 -6.468543 -6.350397 -8.506831 -3.209194 -0.451430 -1.280411
    36 0.000000 3.992340 0.007782 1.570796 0.000000 -1.570796
    37 22.735069 -2.949309 2.695395 -0.467005 0.772096 -0.664641
    38 -0.021929 2.029111 -0.137266 -1.570805 0.000001 0.000000
    39 0.019532 0.000000 0.007813 0.000007 0.000000 0.000001
    40 0.002397 -0.669111 0.409449 1.570796 0.000000 0.000000
    41 -0.002402 -6.221447 0.929182 -0.890280 0.000000 0.000000
  time 15
    0 -6.636517 -6.158985 -8.690430 -2.094067 -0.485024 -1.303370
    1 10.295578 0.000000 0.000002 1.493737 0.258530 0.674630
    2 14.907093 -10.786797 -8.741223 -0.574589 -0.084868 -2.259007
    3 10.295582 0.000001 -0.000006 -0.549563 -0.118784 -0.460429
    4 1.149520 0.416502 1.414117 -1.605744 -0.777599 0.205410
    5 1.263885 0.000000 -0.000008 0.019044 0.010499 -0.201235
    6 1.188939 -0.000002 0.000010 0.005932 0.001870 -0.218416
    7 3.773755 0.133215 0.970575 0.057080 -0.022340 1.333943
    8 1.433456 0.000000 0.000000 0.067473 0.053355 0.427967
    9 1.019165 -0.000006 0.000001 0.039262 0.104278 -0.102447
    10 3.799514 0.014957 0.039959 0.055693 0.023589 1.483198
    11 1.774878 0.000000 0.000000 0.094151 -0.002828 0.170321
    12 1.008844 -0.000004 0.000000 0.105992 -0.022879 0.299107
    13 3.632766 0.059052 -0.757493 -0.028570 -0.035153 1.268970
    14 1.500137 0.000002 0.000000 0.117928 -0.030908 0.846517
    15 0.905666 -0.000002 -0.000001 0.121512 0.011805 0.493693
    16 3.323331 0.233744 -1.479075 0.062362 -0.112723 1.920615
    17 0.963100 0.000011 0.000000 0.045026 0.068049 -0.109892
    18 0.682894 -0.000006 -0.000001 0.078140 0.023694 0.580699
    19 1.149529 0.416498 -1.414117 1.695985 0.643381 0.384422
    20 1.263884 0.000001 0.000000 -0.009336 0.006472 0.475888
    21 1.188946 0.000000 0.000002 -0.011266 0.001942 0.214506
    22 3.773762 0.133217 -0.970574 0.042446 0.175420 0.106609
    23 1.433458 0.000004 0.000000 -0.024892 0.028104 0.940203
    24 1.019165 0.000011 0.000000 -0.035247 0.012991 0.452158
    25 3.799517 0.014957 -0.039958 -0.034650 -0.007266 0.412590
    26 1.774879 0.000004 0.000000 -0.018960 0.015005 0.747959
    27 1.008841 0.000004 0.000000 -0.022447 0.008929 0.454767
    28 3.632765 0.059053 0.757493 -0.311557 -0.126998 0.653125
    29 1.500135 0.000004 0.000000 -0.017030 0.006580 0.424967
    30 0.905668 0.000002 -0.000001 -0.017030 0.006568 0.424967
    31 3.323332 0.233744 1.479075 -0.448125 -0.384668 0.730805
    32 0.963099 0.000010 0.000000 -0.017498 0.009684 0.588647
    33 0.682898 -0.000002 0.000000 -0.018001 0.008941 0.549349
    34 14.907093 -10.786797 -8.741223 0.509604 -0.084858 -2.258933
    35 -6.636517 -6.158985 -8.690430 -3.220965 -0.485529 -1.303556
    36 0.000000 3.992340 0.007782 1.570796 0.000000 -1.570796
    37 22.438185 -2.992279 3.183691 -0.462406 0.717383 -0.690390
    38 -0.021929 2.029111 -0.137266 -1.570805 0.000001 0.000000
    39 0.019532 0.000000 0.007813 0.000007 0.000000 0.000001
    40 0.002397 -0.669111 0.409449 1.570796 0.000000 0.000000
    41 -0.002402 -6.221447 0.929182 -0.890280 0.000000 0.000000
  time 16
    0 -6.796678 -5.928510 -8.885749 -2.075659 -0.518789 -1.329193
    1 10.295578 0.000000 0.000002 1.381889 0.278280 0.612101
    2 14.778183 -10.927426 -8.647470 -0.571818 -0.078227 -2.240025
    3 10.295582 0.000001 -0.000006 -0.502297 -0.157609 -0.479738
    4 1.149520 0.416502 1.414117 -1.732593 -0.753130 0.308760
    5 1.263885 0.000000 -0.000008 0.018037 0.009731 -0.203989
    6 1.188939 -0.000002 0.000010 0.006100 0.001318 -0.151506
    7 3.773755 0.133215 0.970575 0.061287 0.005692 1.395362
    8 1.433456 0.000000 0.000000 0.077516 0.037476 0.647306
    9 1.019165 -0.000006 0.000001 0.067258 0.088878 0.184778
    10 3.799514 0.014957 0.039959 0.059853 0.029737 1.582366
    11 1.774878 0.000000 0.000000 0.089034 -0.030609 0.468462
    12 1.008844 -0.000004 0.000000 0.104745 -0.027373 0.341419
    13 3.632766 0.059052 -0.757493 -0.021515 -0.044813 1.500556
    14 1.500137 0.000002 0.000000 0.117832 -0.031484 0.849336
    15 0.905666 -0.000002 -0.000001 0.121584 -0.011266 0.683425
    16 3.323331 0.233744 -1.479075 0.060432 -0.113808 1.938602
    17 0.963100 0.000011 0.000000 0.050911 0.063902 -0.020998
    18 0.682894 -0.000006 -0.000001 0.081699 -0.001198 0.892028
    19 1.149529 0.416498 -1.414117 1.695985 0.643381 0.384422
    20 1.263884 0.000001 0.000000 -0.009336 0.006472 0.475888
    21 1.188946 0.000000 0.000002 -0.011266 0.001942 0.214506
    22 3.773762 0.133217 -0.970574 0.040481 0.175935 0.094257
    23 1.433458 0.000004 0.000000 -0.025791 0.027301 0.908224
    24 1.019165 0.000011 0.000000 -0.035247 0.012991 0.452158
    25 3.799517 0.014957 -0.039958 -0.034614 -0.007746 0.403445
    26 1.774879 0.000004 0.000000 -0.019067 0.014489 0.728744
    27 1.008841 0.000004 0.000000 -0.022447 0.008929 0.454767
    28 3.632765 0.059053 0.757493 -0.310850 -0.129108 0.644553
    29 1.500135 0.000004 0.000000 -0.017030 0.006580 0.424967
    30 0.905668 0.000002 -0.000001 -0.017030 0.006568 0.424967
    31 3.323332 0.233744 1.479075 -0.445098 -0.389139 0.723960
    32 0.963099 0.000010 0.000000 -0.017498 0.009684 0.586049
    33 0.682898 -0.000002 0.000000 -0.018001 0.008941 0.549349
    34 14.778183 -10.927426 -8.647470 0.512604 -0.078236 -2.240093
    35 -6.796678 -5.928510 -8.885749 -3.226820 -0.518862 -1.329188
    36 0.000000 3.992340 0.007782 1.570796 0.000000 -1.570796
    37 22.051454 -3.000092 3.629017 -0.515296 0.585995 -0.736397
    38 -0.021929 2.029111 -0.137266 -1.570805 0.000001 0.000000
    39 0.019532 0.000000 0.007813 0.000007 0.000000 0.000001
    40 0.002397 -0.669111 0.409449 1.570796 0.000000 0.000000
    41 -0.002402 -6.221447 0.929182 -0.890280 0.000000 0.000000
  time 17
    0 -6.909963 -5.662876 -9.159195 -2.055098 -0.550767 -1.353486
    1 10.295578 0.000000 0.000002 1.237100 0.290654 0.520040
    2 14.668804 -11.036804 -8.588875 -0.570894 -0.071134 -2.225039
    3 10.295582 0.000001 -0.000006 -0.454173 -0.192069 -0.493157
    4 1.149520 0.416502 1.414117 -1.850251 -0.709631 0.416211
    5 1.263885 0.000000 -0.000008 0.016862 0.008881 -0.196848
    6 1.188939 -0.000002 0.000010 0.006340 0.000815 -0.043671
    7 3.773755 0.133215 0.970575 0.063446 0.034574 1.427517
    8 1.433456 0.000000 0.000000 0.085750 0.009132 0.987868
    9 1.019165 -0.000006 0.000001 0.099125 0.050935 0.630680
    10 3.799514 0.014957 0.039959 0.061291 0.034267 1.646291
    11 1.774878 0.000000 0.000000 0.065712 -0.067270 0.933259
    12 1.008844 -0.000004 0.000000 0.103619 -0.031783 0.384302
    13 3.632766 0.059052 -0.757493 -0.016311 -0.048732 1.695801
    14 1.500137 0.000002 0.000000 0.117809 -0.031651 0.852767
    15 0.905666 -0.000002 -0.000001 0.117701 -0.032586 0.860161
    16 3.323331 0.233744 -1.479075 0.059269 -0.114330 1.947566
    17 0.963100 0.000011 0.000000 0.056100 0.059468 0.061185
    18 0.682894 -0.000006 -0.000001 0.077912 -0.024568 1.181776
    19 1.149529 0.416498 -1.414117 1.695985 0.643381 0.384422
    20 1.263884 0.000001 0.000000 -0.009336 0.006472 0.475888
    21 1.188946 0.000000 0.000002 -0.011266 0.001942 0.214506
    22 3.773762 0.133217 -0.970574 0.036178 0.176786 0.070780
    23 1.433458 0.000004 0.000000 -0.027397 0.025455 0.847622
    24 1.019165 0.000011 0.000000 -0.035247 0.012991 0.452158
    25 3.799517 0.014957 -0.039958 -0.034494 -0.008141 0.386503
    26 1.774879 0.000004 0.000000 -0.019775 0.013758 0.692268
    27 1.008841 0.000004 0.000000 -0.022447 0.008929 0.454767
    28 3.632765 0.059053 0.757493 -0.309388 -0.133003 0.627930
    29 1.500135 0.000004 0.000000 -0.017030 0.006580 0.424967
    30 0.905668 0.000002 -0.000001 -0.017030 0.006568 0.424967
    31 3.323332 0.233744 1.479075 -0.439335 -0.397456 0.710648
    32 0.963099 0.000010 0.000000 -0.017498 0.009636 0.581080
    33 0.682898 -0.000002 0.000000 -0.018001 0.008941 0.549349
    34 14.668804 -11.036804 -8.588875 0.513354 -0.071144 -2.224964
    35 -6.909963 -5.662876 -9.159195 -3.222013 -0.551716 -1.353768
    36 0.000000 3.992340 0.007782 1.570796 0.000000 -1.570796
    37 21.563158 -2.906339 4.023560 -0.668313 0.609580 -0.801905
    38 -0.021929 2.029111 -0.137266 -1.570805 0.000001 0.000000
    39 0.019532 0.000000 0.007813 0.000007 0.000000 0.000001
    40 0.002397 -0.669111 0.409449 1.570796 0.000000 0.000000
    41 -0.002402 -6.221447 0.929182 -0.890280 0.000000 0.000000
  time 18
    0 -6.925589 -5.334741 -9.506862 -2.029268 -0.575597 -1.376057
    1 10.295578 0.000000 0.000002 1.067691 0.299170 0.401819
    2 14.633647 -11.068055 -8.588875 -0.572680 -0.064312 -2.216690
    3 10.295582 0.000001 -0.000006 -0.403899 -0.223480 -0.498151
    4 1.149520 0.416502 1.414117 -1.929255 -0.642921 0.516084
    5 1.263885 0.000000 -0.000008 0.015940 0.007275 -0.161830
    6 1.188939 -0.000002 0.000010 0.006364 -0.000060 0.102615
    7 3.773755 0.133215 0.970575 0.064228 0.056075 1.439433
    8 1.433456 0.000000 0.000000 0.084779 -0.015796 1.280004
    9 1.019165 -0.000006 0.000001 0.110822 0.010355 1.012476
    10 3.799514 0.014957 0.039959 0.061640 0.036593 1.679703
    11 1.774878 0.000000 0.000000 0.034396 -0.087511 1.334020
    12 1.008844 -0.000004 0.000000 0.102444 -0.035103 0.415697
    13 3.632766 0.059052 -0.757493 -0.012777 -0.049271 1.823773
    14 1.500137 0.000002 0.000000 0.117797 -0.032083 0.854223
    15 0.905666 -0.000002 -0.000001 0.112547 -0.046968 0.983747
    16 3.323331 0.233744 -1.479075 0.059042 -0.114558 1.950730
    17 0.963100 0.000011 0.000000 0.059432 0.056112 0.119010
    18 0.682894 -0.000006 -0.000001 0.071165 -0.039921 1.384543
    19 1.149529 0.416498 -1.414117 1.695985 0.643381 0.384422
    20 1.263884 0.000001 0.000000 -0.009336 0.006472 0.475888
    21 1.188946 0.000000 0.000002 -0.011266 0.001942 0.214506
    22 3.773762 0.133217 -0.970574 0.031349 0.177781 0.042431
    23 1.433458 0.000004 0.000000 -0.029182 0.023454 0.768211
    24 1.019165 0.000011 0.000000 -0.035247 0.012991 0.452158
    25 3.799517 0.014957 -0.039958 -0.034122 -0.008908 0.364465
    26 1.774879 0.000004 0.000000 -0.020422 0.012824 0.644597
    27 1.008841 0.000004 0.000000 -0.022447 0.008929 0.454767
    28 3.632765 0.059053 0.757493 -0.307099 -0.138468 0.605307
    29 1.500135 0.000004 0.000000 -0.017030 0.006580 0.424967
    30 0.905668 0.000002 -0.000001 -0.017030 0.006568 0.424967
    31 3.323332 0.233744 1.479075 -0.431622 -0.407894 0.693159
    32 0.963099 0.000010 0.000000 -0.017593 0.009516 0.574774
    33 0.682898 -0.000002 0.000000 -0.018001 0.008941 0.549349
    34 14.633647 -11.068055 -8.588875 0.511479 -0.064286 -2.216686
    35 -6.925589 -5.334741 -9.506862 -3.202230 -0.575854 -1.376052
    36 0.000000 3.992340 0.007782 1.570796 0.000000 -1.570796
    37 21.063143 -2.937590 4.324351 -0.837427 0.606238 -0.888239
    38 -0.021929 2.029111 -0.137266 -1.570805 0.000001 0.000000
    39 0.019532 0.000000 0.007813 0.000007 0.000000 0.000001
    40 0.002397 -0.669111 0.409449 1.570796 0.000000 0.000000
    41 -0.002402 -6.221447 0.929182 -0.890280 0.000000 0.000000
  time 19
    0 -6.820117 -4.944105 -9.936562 -1.995347 -0.580958 -1.396907
    1 10.295578 0.000000 0.000002 0.880959 0.305891 0.257562
    2 14.668804 -10.989928 -8.651377 -0.576806 -0.059083 -2.217475
    3 10.295582 0.000001 -0.000006 -0.355071 -0.253061 -0.492547
    4 1.149520 0.416502 1.414117 -1.987912 -0.558138 0.611312
    5 1.263885 0.000000 -0.000008 0.015005 0.005010 -0.093074
    6 1.188939 -0.000002 0.000010 0.006268 -0.001043 0.271494
    7 3.773755 0.133215 0.970575 0.064352 0.064080 1.441404
    8 1.433456 0.000000 0.000000 0.082058 -0.025959 1.400638
    9 1.019165 -0.000006 0.000001 0.111253 -0.007191 1.169694
    10 3.799514 0.014957 0.039959 0.061612 0.037551 1.689009
    11 1.774878 0.000000 0.000000 0.019487 -0.092150 1.499727
    12 1.008844 -0.000004 0.000000 0.102121 -0.036169 0.427732
    13 3.632766 0.059052 -0.757493 -0.011547 -0.048840 1.869198
    14 1.500137 0.000002 0.000000 0.117797 -0.032119 0.854928
    15 0.905666 -0.000002 -0.000001 0.110474 -0.051989 1.029571
    16 3.323331 0.233744 -1.479075 0.059018 -0.114598 1.951257
    17 0.963100 0.000011 0.000000 0.060474 0.054818 0.140231
    18 0.682894 -0.000006 -0.000001 0.068037 -0.045170 1.459530
    19 1.149529 0.416498 -1.414117 1.695985 0.643381 0.384422
    20 1.263884 0.000001 0.000000 -0.009336 0.006472 0.475888
    21 1.188946 0.000000 0.000002 -0.011266 0.001942 0.214506
    22 3.773762 0.133217 -0.970574 0.027454 0.178404 0.020651
    23 1.433458 0.000004 0.000000 -0.031268 0.020602 0.681225
    24 1.019165 0.000011 0.000000 -0.035247 0.012991 0.452158
    25 3.799517 0.014957 -0.039958 -0.033955 -0.009759 0.340077
    26 1.774879 0.000004 0.000000 -0.021093 0.011889 0.592285
    27 1.008841 0.000004 0.000000 -0.022447 0.008929 0.454767
    28 3.632765 0.059053 0.757493 -0.303744 -0.145850 0.577839
    29 1.500135 0.000004 0.000000 -0.017030 0.006580 0.424967
    30 0.905668 0.000002 -0.000001 -0.017030 0.006568 0.424967
    31 3.323332 0.233744 1.479075 -0.422963 -0.419484 0.673649
    32 0.963099 0.000010 0.000000 -0.017653 0.009384 0.567661
    33 0.682898 -0.000002 0.000000 -0.018001 0.008941 0.549349
    34 14.668804 -10.989928 -8.651377 0.507166 -0.059003 -2.217471
    35 -6.820117 -4.944105 -9.936562 -3.168889 -0.581697 -1.396902
    36 0.000000 3.992340 0.007782 1.570796 0.000000 -1.570796
    37 20.563128 -3.183691 4.492325 -0.959592 0.536056 -0.922224
    38 -0.021929 2.029111 -0.137266 -1.570805 0.000001 0.000000
    39 0.019532 0.000000 0.007813 0.000007 0.000000 0.000001
    40 0.002397 -0.669111 0.409449 1.570796 0.000000 0.000000
    41 -0.002402 -6.221447 0.929182 -0.890280 0.000000 0.000000
  time 20
    0 -6.613079 -4.580812 -10.354544 -1.953335 -0.557821 -1.421678
    1 10.295578 0.000000 0.000002 0.688089 0.306303 0.085303
    2 14.700055 -10.888362 -8.764661 -0.582472 -0.055301 -2.224825
    3 10.295582 0.000001 -0.000006 -0.318587 -0.281555 -0.478194
    4 1.149520 0.416502 1.414117 -2.022192 -0.463362 0.694589
    5 1.263885 0.000000 -0.000008 0.013638 0.002433 -0.004782
    6 1.188939 -0.000002 0.000010 0.005848 -0.002001 0.446972
    7 3.773755 0.133215 0.970575 0.064352 0.064080 1.441404
    8 1.433456 0.000000 0.000000 0.082058 -0.025959 1.400638
    9 1.019165 -0.000006 0.000001 0.111253 -0.007191 1.169694
    10 3.799514 0.014957 0.039959 0.061612 0.037551 1.689009
    11 1.774878 0.000000 0.000000 0.019487 -0.092150 1.499727
    12 1.008844 -0.000004 0.000000 0.102121 -0.036169 0.427732
    13 3.632766 0.059052 -0.757493 -0.011547 -0.048840 1.869198
    14 1.500137 0.000002 0.000000 0.117797 -0.032119 0.854928
    15 0.905666 -0.000002 -0.000001 0.110474 -0.051989 1.029571
    16 3.323331 0.233744 -1.479075 0.059018 -0.114598 1.951257
    17 0.963100 0.000011 0.000000 0.060474 0.054818 0.140231
    18 0.682894 -0.000006 -0.000001 0.068037 -0.045170 1.459530
    19 1.149529 0.416498 -1.414117 1.695985 0.643381 0.384422
    20 1.263884 0.000001 0.000000 -0.009336 0.006472 0.475888
    21 1.188946 0.000000 0.000002 -0.011266 0.001942 0.214506
    22 3.773762 0.133217 -0.970574 0.025788 0.178608 0.011191
    23 1.433458 0.000004 0.000000 -0.032970 0.018001 0.595918
    24 1.019165 0.000011 0.000000 -0.035247 0.012991 0.452158
    25 3.799517 0.014957 -0.039958 -0.033787 -0.010514 0.315939
    26 1.774879 0.000004 0.000000 -0.021440 0.010630 0.541072
    27 1.008841 0.000004 0.000000 -0.022447 0.008929 0.454767
    28 3.632765 0.059053 0.757493 -0.299010 -0.155306 0.547277
    29 1.500135 0.000004 0.000000 -0.017030 0.006580 0.424967
    30 0.905668 0.000002 -0.000001 -0.017030 0.006568 0.424967
    31 3.323332 0.233744 1.479075 -0.414217 -0.430785 0.654300
    32 0.963099 0.000010 0.000000 -0.017773 0.009084 0.560775
    33 0.682898 -0.000002 0.000000 -0.018001 0.008941 0.549349
    34 14.700055 -10.888362 -8.768568 0.501635 -0.055276 -2.224750
    35 -6.613079 -4.580812 -10.354544 -3.127845 -0.558134 -1.421673
    36 0.000000 3.992340 0.007782 1.570796 0.000000 -1.570796
    37 20.227180 -3.660268 4.593890 -1.051670 0.451074 -0.942766
    38 -0.021929 2.029111 -0.137266 -1.570805 0.000001 0.000000
    39 0.019532 0.000000 0.007813 0.000007 0.000000 0.000001
    40 0.002397 -0.669111 0.409449 1.570796 0.000000 0.000000
    41 -0.002402 -6.221447 0.929182 -0.890280 0.000000 0.000000
  time 21
    0 -6.406042 -4.276115 -10.686585 -1.913921 -0.516908 -1.448362
    1 10.295578 0.000000 0.000002 0.509950 0.295555 -0.089797
    2 14.758651 -10.790703 -8.866227 -0.588384 -0.051935 -2.233103
    3 10.295582 0.000001 -0.000006 -0.293626 -0.308773 -0.458866
    4 1.149520 0.416502 1.414117 -2.034528 -0.369897 0.762466
    5 1.263885 0.000000 -0.000008 0.012656 0.000012 0.089254
    6 1.188939 -0.000002 0.000010 0.005549 -0.003152 0.612597
    7 3.773755 0.133215 0.970575 0.064352 0.064080 1.441404
    8 1.433456 0.000000 0.000000 0.082058 -0.025959 1.400638
    9 1.019165 -0.000006 0.000001 0.111253 -0.007191 1.169694
    10 3.799514 0.014957 0.039959 0.061612 0.037551 1.689009
    11 1.774878 0.000000 0.000000 0.019487 -0.092150 1.499727
    12 1.008844 -0.000004 0.000000 0.102121 -0.036169 0.427732
    13 3.632766 0.059052 -0.757493 -0.011547 -0.048840 1.869198
    14 1.500137 0.000002 0.000000 0.117797 -0.032119 0.854928
    15 0.905666 -0.000002 -0.000001 0.110474 -0.051989 1.029571
    16 3.323331 0.233744 -1.479075 0.059018 -0.114598 1.951257
    17 0.963100 0.000011 0.000000 0.060474 0.054818 0.140231
    18 0.682894 -0.000006 -0.000001 0.068037 -0.045170 1.459530
    19 1.149529 0.416498 -1.414117 1.695985 0.643381 0.384422
    20 1.263884 0.000001 0.000000 -0.009336 0.006472 0.475888
    21 1.188946 0.000000 0.000002 -0.011266 0.001942 0.214506
    22 3.773762 0.133217 -0.970574 0.025908 0.178584 0.012008
    23 1.433458 0.000004 0.000000 -0.034000 0.015328 0.522576
    24 1.019165 0.000011 0.000000 -0.035247 0.012991 0.452158
    25 3.799517 0.014957 -0.039958 -0.033463 -0.011197 0.295900
    26 1.774879 0.000004 0.000000 -0.022136 0.009720 0.497024
    27 1.008841 0.000004 0.000000 -0.022447 0.008929 0.454767
    28 3.632765 0.059053 0.757493 -0.293569 -0.165026 0.516975
    29 1.500135 0.000004 0.000000 -0.017030 0.006580 0.424967
    30 0.905668 0.000002 -0.000001 -0.017030 0.006568 0.424967
    31 3.323332 0.233744 1.479075 -0.406431 -0.440241 0.637647
    32 0.963099 0.000010 0.000000 -0.017917 0.008964 0.554898
    33 0.682898 -0.000002 0.000000 -0.018001 0.008941 0.549349
    34 14.758651 -10.790703 -8.866227 0.495635 -0.051911 -2.233171
    35 -6.406042 -4.276115 -10.686585 -3.089327 -0.516755 -1.448357
    36 0.000000 3.992340 0.007782 1.570796 0.000000 -1.570796
    37 20.000610 -4.175909 4.714988 -1.108872 0.362845 -0.948730
    38 -0.021929 2.029111 -0.137266 -1.570805 0.000001 0.000000
    39 0.019532 0.000000 0.007813 0.000007 0.000000 0.000001
    40 0.002397 -0.669111 0.409449 1.570796 0.000000 0.000000
    41 -0.002402 -6.221447 0.929182 -0.890280 0.000000 0.000000
  time 22
    0 -6.249787 -4.061265 -10.913154 -1.886383 -0.485024 -1.467586
    1 10.295578 0.000000 0.000002 0.367207 0.278547 -0.227030
    2 14.793808 -10.704763 -8.928729 -0.592695 -0.049800 -2.239597
    3 10.295582 0.000001 -0.000006 -0.286868 -0.330329 -0.432714
    4 1.149520 0.416502 1.414117 -2.032046 -0.290057 0.813666
    5 1.263885 0.000000 -0.000008 0.011337 -0.001965 0.174142
    6 1.188939 -0.000002 0.000010 0.005010 -0.003691 0.751137
    7 3.773755 0.133215 0.970575 0.064352 0.064080 1.441404
    8 1.433456 0.000000 0.000000 0.082058 -0.025959 1.400638
    9 1.019165 -0.000006 0.000001 0.111253 -0.007191 1.169694
    10 3.799514 0.014957 0.039959 0.061612 0.037551 1.689009
    11 1.774878 0.000000 0.000000 0.019487 -0.092150 1.499727
    12 1.008844 -0.000004 0.000000 0.102121 -0.036169 0.427732
    13 3.632766 0.059052 -0.757493 -0.011547 -0.048840 1.869198
    14 1.500137 0.000002 0.000000 0.117797 -0.032119 0.854928
    15 0.905666 -0.000002 -0.000001 0.110474 -0.051989 1.029571
    16 3.323331 0.233744 -1.479075 0.059018 -0.114598 1.951257
    17 0.963100 0.000011 0.000000 0.060474 0.054818 0.140231
    18 0.682894 -0.000006 -0.000001 0.068037 -0.045170 1.459530
    19 1.149529 0.416498 -1.414117 1.695985 0.643381 0.384422
    20 1.263884 0.000001 0.000000 -0.009336 0.006472 0.475888
    21 1.188946 0.000000 0.000002 -0.011266 0.001942 0.214506
    22 3.773762 0.133217 -0.970574 0.027478 0.178368 0.021028
    23 1.433458 0.000004 0.000000 -0.034755 0.013603 0.471572
    24 1.019165 0.000011 0.000000 -0.035247 0.012991 0.452158
    25 3.799517 0.014957 -0.039958 -0.033271 -0.011736 0.281857
    26 1.774879 0.000004 0.000000 -0.022195 0.008941 0.466451
    27 1.008841 0.000004 0.000000 -0.022447 0.008929 0.454767
    28 3.632765 0.059053 0.757493 -0.288200 -0.174110 0.490550
    29 1.500135 0.000004 0.000000 -0.017030 0.006580 0.424967
    30 0.905668 0.000002 -0.000001 -0.017030 0.006568 0.424967
    31 3.323332 0.233744 1.479075 -0.401134 -0.446677 0.625898
    32 0.963099 0.000010 0.000000 -0.017941 0.008941 0.550736
    33 0.682898 -0.000002 0.000000 -0.018001 0.008941 0.549349
    34 14.793808 -10.704763 -8.928729 0.491416 -0.049866 -2.239665
    35 -6.249787 -4.061265 -10.913154 -3.062334 -0.485721 -1.467868
    36 0.000000 3.992340 0.007782 1.570796 0.000000 -1.570796
    37 19.813105 -4.515763 4.832179 -1.136180 0.285502 -0.945322
    38 -0.021929 2.029111 -0.137266 -1.570805 0.000001 0.000000
    39 0.019532 0.000000 0.007813 0.000007 0.000000 0.000001
    40 0.002397 -0.669111 0.409449 1.570796 0.000000 0.000000
    41 -0.002402 -6.221447 0.929182 -0.890280 0.000000 0.000000
  time 23
    0 -6.156034 -3.944074 -11.010814 -1.871835 -0.476089 -1.478202
    1 10.295578 0.000000 0.000002 0.273364 0.264353 -0.306073
    2 14.821153 -10.669605 -8.959980 -0.593865 -0.049818 -2.242023
    3 10.295582 0.000001 -0.000006 -0.294564 -0.341613 -0.402426
    4 1.149520 0.416502 1.414117 -2.024035 -0.234102 0.847020
    5 1.263885 0.000000 -0.000008 0.010546 -0.003535 0.236249
    6 1.188939 -0.000002 0.000010 0.004458 -0.004267 0.847194
    7 3.773755 0.133215 0.970575 0.064352 0.064080 1.441404
    8 1.433456 0.000000 0.000000 0.082058 -0.025959 1.400638
    9 1.019165 -0.000006 0.000001 0.111253 -0.007191 1.169694
    10 3.799514 0.014957 0.039959 0.061612 0.037551 1.689009
    11 1.774878 0.000000 0.000000 0.019487 -0.092150 1.499727
    12 1.008844 -0.000004 0.000000 0.102121 -0.036169 0.427732
    13 3.632766 0.059052 -0.757493 -0.011547 -0.048840 1.869198
    14 1.500137 0.000002 0.000000 0.117797 -0.032119 0.854928
    15 0.905666 -0.000002 -0.000001 0.110474 -0.051989 1.029571
    16 3.323331 0.233744 -1.479075 0.059018 -0.114598 1.951257
    17 0.963100 0.000011 0.000000 0.060474 0.054818 0.140231
    18 0.682894 -0.000006 -0.000001 0.068037 -0.045170 1.459530
    19 1.149529 0.416498 -1.414117 1.695985 0.643381 0.384422
    20 1.263884 0.000001 0.000000 -0.009336 0.006472 0.475888
    21 1.188946 0.000000 0.000002 -0.011266 0.001942 0.214506
    22 3.773762 0.133217 -0.970574 0.030582 0.177817 0.039005
    23 1.433458 0.000004 0.000000 -0.035223 0.012943 0.451902
    24 1.019165 0.000011 0.000000 -0.035247 0.012991 0.452158
    25 3.799517 0.014957 -0.039958 -0.033200 -0.011856 0.276310
    26 1.774879 0.000004 0.000000 -0.022399 0.008929 0.454686
    27 1.008841 0.000004 0.000000 -0.022447 0.008929 0.454767
    28 3.632765 0.059053 0.757493 -0.284101 -0.181145 0.471207
    29 1.500135 0.000004 0.000000 -0.017030 0.006580 0.424967
    30 0.905668 0.000002 -0.000001 -0.017030 0.006568 0.424967
    31 3.323332 0.233744 1.479075 -0.398980 -0.449085 0.621398
    32 0.963099 0.000010 0.000000 -0.017941 0.008941 0.549223
    33 0.682898 -0.000002 0.000000 -0.018001 0.008941 0.549349
    34 14.821153 -10.669605 -8.959980 0.490291 -0.049848 -2.241877
    35 -6.156034 -3.944074 -11.010814 -3.048221 -0.476334 -1.478197
    36 0.000000 3.992340 0.007782 1.570796 0.000000 -1.570796
    37 19.625599 -4.593890 4.922025 -1.142982 0.231457 -0.939074
    38 -0.021929 2.029111 -0.137266 -1.570805 0.000001 0.000000
    39 0.019532 0.000000 0.007813 0.000007 0.000000 0.000001
    40 0.002397 -0.669111 0.409449 1.570796 0.000000 0.000000
    41 -0.002402 -6.221447 0.929182 -0.890280 0.000000 0.000000
  time 24
    0 -6.156034 -3.881572 -11.065503 -1.867233 -0.474302 -1.482219
    1 10.295578 0.000000 0.000002 0.239605 0.262412 -0.332608
    2 14.825059 -10.665699 -8.959980 -0.593434 -0.050669 -2.242594
    3 10.295582 0.000001 -0.000006 -0.305149 -0.340031 -0.371547
    4 1.149520 0.416502 1.414117 -2.019538 -0.212592 0.859541
    5 1.263885 0.000000 -0.000008 0.010499 -0.004231 0.261076
    6 1.188939 -0.000002 0.000010 0.004338 -0.004398 0.883994
    7 3.773755 0.133215 0.970575 0.064352 0.064080 1.441404
    8 1.433456 0.000000 0.000000 0.082058 -0.025959 1.400638
    9 1.019165 -0.000006 0.000001 0.111253 -0.007191 1.169694
    10 3.799514 0.014957 0.039959 0.061640 0.037515 1.689009
    11 1.774878 0.000000 0.000000 0.019487 -0.092150 1.499822
    12 1.008844 -0.000004 0.000000 0.102193 -0.036241 0.427732
    13 3.632766 0.059052 -0.757493 -0.011599 -0.048851 1.869198
    14 1.500137 0.000002 0.000000 0.117809 -0.032107 0.854975
    15 0.905666 -0.000002 -0.000001 0.110558 -0.051989 1.029632
    16 3.323331 0.233744 -1.479075 0.058982 -0.114638 1.951257
    17 0.963100 0.000011 0.000000 0.060570 0.054818 0.140405
    18 0.682894 -0.000006 -0.000001 0.068049 -0.045158 1.459661
    19 1.149529 0.416498 -1.414117 1.695985 0.643381 0.384422
    20 1.263884 0.000001 0.000000 -0.009336 0.006472 0.475888
    21 1.188946 0.000000 0.000002 -0.011266 0.001942 0.214506
    22 3.773762 0.133217 -0.970574 0.032751 0.177553 0.050162
    23 1.433458 0.000004 0.000000 -0.035247 0.012979 0.451988
    24 1.019165 0.000011 0.000000 -0.035247 0.012991 0.452158
    25 3.799517 0.014957 -0.039958 -0.033235 -0.011916 0.276310
    26 1.774879 0.000004 0.000000 -0.022483 0.008929 0.454808
    27 1.008841 0.000004 0.000000 -0.022447 0.008929 0.454767
    28 3.632765 0.059053 0.757493 -0.281213 -0.185831 0.459280
    29 1.500135 0.000004 0.000000 -0.017030 0.006580 0.424967
    30 0.905668 0.000002 -0.000001 -0.017030 0.006568 0.424967
    31 3.323332 0.233744 1.479075 -0.399082 -0.449121 0.621478
    32 0.963099 0.000010 0.000000 -0.018001 0.008941 0.549273
    33 0.682898 -0.000002 0.000000 -0.018001 0.008941 0.549349
    34 14.825059 -10.665699 -8.959980 0.490666 -0.050554 -2.242448
    35 -6.156034 -3.881572 -11.065503 -3.043722 -0.474610 -1.482214
    36 0.000000 3.992340 0.007782 1.570796 0.000000 -1.570796
    37 19.563097 -4.601703 4.984527 -1.174985 0.212742 -0.943618
    38 -0.021929 2.029111 -0.137266 -1.570805 0.000001 0.000000
    39 0.019532 0.000000 0.007813 0.000007 0.000000 0.000001
    40 0.002397 -0.669111 0.409449 1.570796 0.000000 0.000000
    41 -0.002402 -6.221447 0.929182 -0.816043 0.000000 0.000000
  time 25
    0 -6.156034 -3.893291 -11.065503 -1.867307 -0.474302 -1.482123
    1 10.295578 0.000000 0.000002 0.239946 0.262315 -0.331890
    2 14.825059 -10.665699 -8.959980 -0.593434 -0.050759 -2.242594
    3 10.295582 0.000001 -0.000006 -0.305149 -0.340107 -0.371547
    4 1.149520 0.416502 1.414117 -2.019538 -0.212592 0.859541
    5 1.263885 0.000000 -0.000008 0.010499 -0.004231 0.261076
    6 1.188939 -0.000002 0.000010 0.004338 -0.004398 0.883994
    7 3.773755 0.133215 0.970575 0.064352 0.064080 1.441404
    8 1.433456 0.000000 0.000000 0.082058 -0.025959 1.400638
    9 1.019165 -0.000006 0.000001 0.111253 -0.007191 1.169694
    10 3.799514 0.014957 0.039959 0.061640 0.037515 1.689009
    11 1.774878 0.000000 0.000000 0.019487 -0.092150 1.499822
    12 1.008844 -0.000004 0.000000 0.102193 -0.036241 0.427732
    13 3.632766 0.059052 -0.757493 -0.011599 -0.048851 1.869198
    14 1.500137 0.000002 0.000000 0.117809 -0.032107 0.854975
    15 0.905666 -0.000002 -0.000001 0.110558 -0.051989 1.029632
    16 3.323331 0.233744 -1.479075 0.058982 -0.114638 1.951257
    17 0.963100 0.000011 0.000000 0.060570 0.054818 0.140405
    18 0.682894 -0.000006 -0.000001 0.068049 -0.045158 1.459661
    19 1.149529 0.416498 -1.414117 1.695985 0.643381 0.384422
    20 1.263884 0.000001 0.000000 -0.009336 0.006472 0.475888
    21 1.188946 0.000000 0.000002 -0.011266 0.001942 0.214506
    22 3.773762 0.133217 -0.970574 0.032751 0.177553 0.050162
    23 1.433458 0.000004 0.000000 -0.035247 0.012979 0.451988
    24 1.019165 0.000011 0.000000 -0.035247 0.012991 0.452158
    25 3.799517 0.014957 -0.039958 -0.033235 -0.011916 0.276310
    26 1.774879 0.000004 0.000000 -0.022483 0.008929 0.454808
    27 1.008841 0.000004 0.000000 -0.022447 0.008929 0.454767
    28 3.632765 0.059053 0.757493 -0.281213 -0.185831 0.459280
    29 1.500135 0.000004 0.000000 -0.017030 0.006580 0.424967
    30 0.905668 0.000002 -0.000001 -0.017030 0.006568 0.424967
    31 3.323332 0.233744 1.479075 -0.399082 -0.449121 0.621478
    32 0.963099 0.000010 0.000000 -0.018001 0.008941 0.549273
    33 0.682898 -0.000002 0.000000 -0.018001 0.008941 0.549349
    34 14.825059 -10.665699 -8.959980 0.491041 -0.050680 -2.242448
    35 -6.156034 -3.893291 -11.065503 -3.043907 -0.474993 -1.482214
    36 0.000000 3.992340 0.007782 1.570796 0.000000 -1.570796
    37 19.594348 -4.593890 4.984527 -1.174985 0.212742 -0.943618
    38 -0.021929 2.029111 -0.137266 -1.570805 0.000001 0.000000
    39 0.019532 0.000000 0.007813 0.000007 0.000000 0.000001
    40 0.002397 -0.669111 0.409449 1.570796 0.000000 0.000000
    41 -0.002402 -6.221447 0.929182 -0.816043 0.000000 0.000000
  time 26
    0 -6.156034 -3.881572 -11.065503 -1.867233 -0.474302 -1.482219
    1 10.295578 0.000000 0.000002 0.239605 0.262412 -0.332608
    2 14.825059 -10.665699 -8.959980 -0.593434 -0.050669 -2.242594
    3 10.295582 0.000001 -0.000006 -0.305149 -0.340031 -0.371547
    4 1.149520 0.416502 1.414117 -2.019538 -0.212592 0.859541
    5 1.263885 0.000000 -0.000008 0.010499 -0.004231 0.261076
    6 1.188939 -0.000002 0.000010 0.004338 -0.004398 0.883994
    7 3.773755 0.133215 0.970575 0.064352 0.064080 1.441404
    8 1.433456 0.000000 0.000000 0.082058 -0.025959 1.400638
    9 1.019165 -0.000006 0.000001 0.111253 -0.007191 1.169694
    10 3.799514 0.014957 0.039959 0.061640 0.037515 1.689009
    11 1.774878 0.000000 0.000000 0.019487 -0.092150 1.499822
    12 1.008844 -0.000004 0.000000 0.102193 -0.036241 0.427732
    13 3.632766 0.059052 -0.757493 -0.011599 -0.048851 1.869198
    14 1.500137 0.000002 0.000000 0.117809 -0.032107 0.854975
    15 0.905666 -0.000002 -0.000001 0.110558 -0.051989 1.029632
    16 3.323331 0.233744 -1.479075 0.058982 -0.114638 1.951257
    17 0.963100 0.000011 0.000000 0.060570 0.054818 0.140405
    18 0.682894 -0.000006 -0.000001 0.068049 -0.045158 1.459661
    19 1.149529 0.416498 -1.414117 1.695985 0.643381 0.384422
    20 1.263884 0.000001 0.000000 -0.009336 0.006472 0.475888
    21 1.188946 0.000000 0.000002 -0.011266 0.001942 0.214506
    22 3.773762 0.133217 -0.970574 0.032751 0.177553 0.050162
    23 1.433458 0.000004 0.000000 -0.035247 0.012979 0.451988
    24 1.019165 0.000011 0.000000 -0.035247 0.012991 0.452158
    25 3.799517 0.014957 -0.039958 -0.033235 -0.011916 0.276310
    26 1.774879 0.000004 0.000000 -0.022483 0.008929 0.454808
    27 1.008841 0.000004 0.000000 -0.022447 0.008929 0.454767
    28 3.632765 0.059053 0.757493 -0.281213 -0.185831 0.459280
    29 1.500135 0.000004 0.000000 -0.017030 0.006580 0.424967
    30 0.905668 0.000002 -0.000001 -0.017030 0.006568 0.424967
    31 3.323332 0.233744 1.479075 -0.399082 -0.449121 0.621478
    32 0.963099 0.000010 0.000000 -0.018001 0.008941 0.549273
    33 0.682898 -0.000002 0.000000 -0.018001 0.008941 0.549349
    34 14.825059 -10.665699 -8.959980 0.490666 -0.050554 -2.242448
    35 -6.156034 -3.881572 -11.065503 -3.043722 -0.474610 -1.482214
    36 0.000000 3.992340 0.007782 1.570796 0.000000 -1.570796
    37 19.563097 -4.601703 4.984527 -1.174985 0.212742 -0.943618
    38 -0.021929 2.029111 -0.137266 -1.570805 0.000001 0.000000
    39 0.019532 0.000000 0.007813 0.000007 0.000000 0.000001
    40 0.002397 -0.669111 0.409449 1.570796 0.000000 0.000000
    41 -0.002402 -6.221447 0.929182 -0.816043 0.000000 0.000000
  time 27
    0 -6.156034 -3.893291 -11.065503 -1.867307 -0.474302 -1.482123
    1 10.295578 0.000000 0.000002 0.239946 0.262315 -0.331890
    2 14.825059 -10.665699 -8.959980 -0.593434 -0.050759 -2.242594
    3 10.295582 0.000001 -0.000006 -0.305149 -0.340107 -0.371547
    4 1.149520 0.416502 1.414117 -2.019538 -0.212592 0.859541
    5 1.263885 0.000000 -0.000008 0.010499 -0.004231 0.261076
    6 1.188939 -0.000002 0.000010 0.004338 -0.004398 0.883994
    7 3.773755 0.133215 0.970575 0.064352 0.064080 1.441404
    8 1.433456 0.000000 0.000000 0.082058 -0.025959 1.400638
    9 1.019165 -0.000006 0.000001 0.111253 -0.007191 1.169694
    10 3.799514 0.014957 0.039959 0.061640 0.037515 1.689009
    11 1.774878 0.000000 0.000000 0.019487 -0.092150 1.499822
    12 1.008844 -0.000004 0.000000 0.102193 -0.036241 0.427732
    13 3.632766 0.059052 -0.757493 -0.011599 -0.048851 1.869198
    14 1.500137 0.000002 0.000000 0.117809 -0.032107 0.854975
    15 0.905666 -0.000002 -0.000001 0.110558 -0.051989 1.029632
    16 3.323331 0.233744 -1.479075 0.058982 -0.114638 1.951257
    17 0.963100 0.000011 0.000000 0.060570 0.054818 0.140405
    18 0.682894 -0.000006 -0.000001 0.068049 -0.045158 1.459661
    19 1.149529 0.416498 -1.414117 1.695985 0.643381 0.384422
    20 1.263884 0.000001 0.000000 -0.009336 0.006472 0.475888
    21 1.188946 0.000000 0.000002 -0.011266 0.001942 0.214506
    22 3.773762 0.133217 -0.970574 0.032751 0.177553 0.050162
    23 1.433458 0.000004 0.000000 -0.035247 0.012979 0.451988
    24 1.019165 0.000011 0.000000 -0.035247 0.012991 0.452158
    25 3.799517 0.014957 -0.039958 -0.033235 -0.011916 0.276310
    26 1.774879 0.000004 0.000000 -0.022483 0.008929 0.454808
    27 1.008841 0.000004 0.000000 -0.022447 0.008929 0.454767
    28 3.632765 0.059053 0.757493 -0.281213 -0.185831 0.459280
    29 1.500135 0.000004 0.000000 -0.017030 0.006580 0.424967
    30 0.905668 0.000002 -0.000001 -0.017030 0.006568 0.424967
    31 3.323332 0.233744 1.479075 -0.399082 -0.449121 0.621478
    32 0.963099 0.000010 0.000000 -0.018001 0.008941 0.549273
    33 0.682898 -0.000002 0.000000 -0.018001 0.008941 0.549349
    34 14.825059 -10.665699 -8.959980 0.491041 -0.050680 -2.242448
    35 -6.156034 -3.893291 -11.065503 -3.043907 -0.474993 -1.482214
    36 0.000000 3.992340 0.007782 1.570796 0.000000 -1.570796
    37 19.594348 -4.593890 4.984527 -1.174985 0.212742 -0.943618
    38 -0.021929 2.029111 -0.137266 -1.570805 0.000001 0.000000
    39 0.019532 0.000000 0.007813 0.000007 0.000000 0.000001
    40 0.002397 -0.669111 0.409449 1.570796 0.000000 0.000000
    41 -0.002402 -6.221447 0.929182 -0.816043 0.000000 0.000000
end
