version 1
nodes
  0 "v_weapon.Bip01_R_Forearm" -1
  1 "v_weapon.Bip01_R_Hand" 0
  2 "v_weapon.Bip01_L_Forearm" -1
  3 "v_weapon.Bip01_L_Hand" 2
  4 "v_weapon.Bip01_R_Finger0" 1
  5 "v_weapon.Bip01_R_Finger01" 4
  6 "v_weapon.Bip01_R_Finger02" 5
  7 "v_weapon.Bip01_R_Finger1" 1
  8 "v_weapon.Bip01_R_Finger11" 7
  9 "v_weapon.Bip01_R_Finger12" 8
  10 "v_weapon.Bip01_R_Finger2" 1
  11 "v_weapon.Bip01_R_Finger21" 10
  12 "v_weapon.Bip01_R_Finger22" 11
  13 "v_weapon.Bip01_R_Finger3" 1
  14 "v_weapon.Bip01_R_Finger31" 13
  15 "v_weapon.Bip01_R_Finger32" 14
  16 "v_weapon.Bip01_R_Finger4" 1
  17 "v_weapon.Bip01_R_Finger41" 16
  18 "v_weapon.Bip01_R_Finger42" 17
  19 "v_weapon.Bip01_L_Finger0" 3
  20 "v_weapon.Bip01_L_Finger01" 19
  21 "v_weapon.Bip01_L_Finger02" 20
  22 "v_weapon.Bip01_L_Finger1" 3
  23 "v_weapon.Bip01_L_Finger11" 22
  24 "v_weapon.Bip01_L_Finger12" 23
  25 "v_weapon.Bip01_L_Finger2" 3
  26 "v_weapon.Bip01_L_Finger21" 25
  27 "v_weapon.Bip01_L_Finger22" 26
  28 "v_weapon.Bip01_L_Finger3" 3
  29 "v_weapon.Bip01_L_Finger31" 28
  30 "v_weapon.Bip01_L_Finger32" 29
  31 "v_weapon.Bip01_L_Finger4" 3
  32 "v_weapon.Bip01_L_Finger41" 31
  33 "v_weapon.Bip01_L_Finger42" 32
  34 "v_weapon.Bip01_L_ForeTwist" -1
  35 "v_weapon.Bip01_R_ForeTwist" -1
  36 "v_weapon" -1
  37 "v_weapon.knife" 36
  38 "v_weapon.front" 37
  39 "v_weapon.blade1" 38
  40 "v_weapon.rear" 39
  41 "v_weapon.lock" 40
end
skeleton
  time 0
    0 -10.144437 -5.807412 -5.963785 -1.426330 -0.419281 -2.350832
    1 10.295578 0.000000 0.000002 2.902616 -0.195035 -0.744962
    2 19.418949 -0.458356 -7.834946 -0.458565 0.175030 -1.433003
    3 10.295582 0.000001 -0.000006 -0.787414 -0.042754 -0.197538
    4 1.149520 0.416502 1.414117 -2.019538 -0.212592 0.859487
    5 1.263885 0.000000 -0.000008 0.010499 -0.004207 0.261076
    6 1.188939 -0.000002 0.000010 0.004290 -0.004350 0.883994
    7 3.773755 0.133215 0.970575 0.064315 0.064033 1.441404
    8 1.433456 0.000000 0.000000 0.082047 -0.025947 1.400638
    9 1.019165 -0.000006 0.000001 0.111253 -0.007179 1.169620
    10 3.799514 0.014957 0.039959 0.061640 0.037479 1.689009
    11 1.774878 0.000000 0.000000 0.019487 -0.092150 1.499632
    12 1.008844 -0.000004 0.000000 0.102193 -0.036193 0.427732
    13 3.632766 0.059052 -0.757493 -0.011599 -0.048840 1.869198
    14 1.500137 0.000002 0.000000 0.117785 -0.032095 0.854928
    15 0.905666 -0.000002 -0.000001 0.110558 -0.051989 1.029632
    16 3.323331 0.233744 -1.479075 0.058982 -0.114638 1.951023
    17 0.963100 0.000011 0.000000 0.060474 0.054818 0.140231
    18 0.682894 -0.000006 -0.000001 0.068049 -0.045158 1.459661
    19 1.149529 0.416498 -1.414117 1.695985 0.643333 0.384411
    20 1.263884 0.000001 0.000000 -0.009336 0.006472 0.475820
    21 1.188946 0.000000 0.000002 -0.011266 0.001906 0.214483
    22 3.773762 0.133217 -0.970574 0.032751 0.177541 0.050162
    23 1.433458 0.000004 0.000000 -0.035235 0.012931 0.451902
    24 1.019165 0.000011 0.000000 -0.035247 0.012955 0.452115
    25 3.799517 0.014957 -0.039958 -0.034038 -0.009280 0.359017
    26 1.774879 0.000004 0.000000 -0.021500 0.010499 0.537856
    27 1.008841 0.000004 0.000000 -0.021512 0.010499 0.537815
    28 3.632765 0.059053 0.757493 -0.300316 -0.158877 0.565763
    29 1.500135 0.000004 0.000000 -0.017246 0.004159 0.533594
    30 0.905668 0.000002 -0.000001 -0.017246 0.004159 0.533556
    31 3.323332 0.233744 1.479075 -0.399082 -0.449085 0.621478
    32 0.963099 0.000010 0.000000 -0.018001 0.008941 0.549273
    33 0.682898 -0.000002 0.000000 -0.017989 0.008941 0.549349
    34 19.418949 -0.458356 -7.834946 0.625856 0.175029 -1.433118
    35 -10.144437 -5.807412 -5.963785 -0.305759 -0.420204 -2.351116
    36 0.000000 3.992340 0.007782 1.570796 0.000000 -1.570796
    37 16.543474 1.128941 17.063021 -1.279711 2.417980 -0.202204
    38 -0.021929 2.029111 -0.137266 -1.570805 0.000001 0.000000
    39 0.019532 0.000000 0.007813 0.000007 0.000000 0.000001
    40 0.002397 -0.669111 0.409449 1.570796 0.000000 0.000000
    41 -0.002402 -6.221447 0.929182 -0.816253 0.000000 0.000000
  time 1
    0 -10.050684 -6.205862 -7.346639 -2.280597 -0.476089 -1.527553
    1 10.295578 0.000000 0.000002 3.073730 -0.273282 0.281225
    2 20.215848 1.553424 -6.104424 -0.340139 0.267948 -1.455339
    3 10.295582 0.000001 -0.000006 -0.916828 -0.202095 -0.136390
    4 1.149520 0.416502 1.414117 -2.019538 -0.212592 0.859487
    5 1.263885 0.000000 -0.000008 0.010499 -0.004207 0.261076
    6 1.188939 -0.000002 0.000010 0.004290 -0.004350 0.883994
    7 3.773755 0.133215 0.970575 0.064315 0.064033 1.441404
    8 1.433456 0.000000 0.000000 0.082047 -0.025947 1.400638
    9 1.019165 -0.000006 0.000001 0.111253 -0.007179 1.169620
    10 3.799514 0.014957 0.039959 0.061640 0.037479 1.689009
    11 1.774878 0.000000 0.000000 0.019487 -0.092150 1.499632
    12 1.008844 -0.000004 0.000000 0.102193 -0.036193 0.427732
    13 3.632766 0.059052 -0.757493 -0.011599 -0.048840 1.869198
    14 1.500137 0.000002 0.000000 0.117785 -0.032095 0.854928
    15 0.905666 -0.000002 -0.000001 0.110558 -0.051989 1.029632
    16 3.323331 0.233744 -1.479075 0.058982 -0.114638 1.951023
    17 0.963100 0.000011 0.000000 0.060474 0.054818 0.140231
    18 0.682894 -0.000006 -0.000001 0.068049 -0.045158 1.459661
    19 1.149529 0.416498 -1.414117 1.695985 0.643333 0.384411
    20 1.263884 0.000001 0.000000 -0.009336 0.006472 0.475820
    21 1.188946 0.000000 0.000002 -0.011266 0.001906 0.214483
    22 3.773762 0.133217 -0.970574 0.032751 0.177541 0.050162
    23 1.433458 0.000004 0.000000 -0.035235 0.012931 0.451902
    24 1.019165 0.000011 0.000000 -0.035247 0.012955 0.452115
    25 3.799517 0.014957 -0.039958 -0.034038 -0.009280 0.359017
    26 1.774879 0.000004 0.000000 -0.021500 0.010499 0.537856
    27 1.008841 0.000004 0.000000 -0.021512 0.010499 0.537815
    28 3.632765 0.059053 0.757493 -0.300316 -0.158877 0.565763
    29 1.500135 0.000004 0.000000 -0.017246 0.004159 0.533594
    30 0.905668 0.000002 -0.000001 -0.017246 0.004159 0.533556
    31 3.323332 0.233744 1.479075 -0.399082 -0.449085 0.621478
    32 0.963099 0.000010 0.000000 -0.018001 0.008941 0.549273
    33 0.682898 -0.000002 0.000000 -0.017989 0.008941 0.549349
    34 20.215848 1.553424 -6.104424 0.742483 0.267900 -1.455455
    35 -10.050684 -6.205862 -7.346639 -1.176691 -0.476813 -1.527261
    36 0.000000 3.992340 0.007782 1.570796 0.000000 -1.570796
    37 21.938169 -1.500046 9.429975 2.148275 0.539780 2.001496
    38 -0.021929 2.029111 -0.137266 -1.570805 0.000001 0.000000
    39 0.019532 0.000000 0.007813 0.000007 0.000000 0.000001
    40 0.002397 -0.669111 0.409449 1.570796 0.000000 0.000000
    41 -0.002402 -6.221447 0.929182 -0.816253 0.000000 0.000000
  time 2
    0 -7.956870 -8.686406 -9.104506 -2.502310 -0.451165 -0.922527
    1 10.295578 0.000000 0.000002 3.104079 -0.269497 0.609385
    2 20.340852 5.795741 -3.244962 -0.151754 0.382941 -1.334382
    3 10.295582 0.000001 -0.000006 -1.130304 -0.387528 -0.078425
    4 1.149520 0.416502 1.414117 -2.019538 -0.212592 0.859487
    5 1.263885 0.000000 -0.000008 0.010499 -0.004207 0.261076
    6 1.188939 -0.000002 0.000010 0.004290 -0.004350 0.883994
    7 3.773755 0.133215 0.970575 0.064315 0.064033 1.441404
    8 1.433456 0.000000 0.000000 0.082047 -0.025947 1.400638
    9 1.019165 -0.000006 0.000001 0.111253 -0.007179 1.169620
    10 3.799514 0.014957 0.039959 0.061640 0.037479 1.689009
    11 1.774878 0.000000 0.000000 0.019487 -0.092150 1.499632
    12 1.008844 -0.000004 0.000000 0.102193 -0.036193 0.427732
    13 3.632766 0.059052 -0.757493 -0.011599 -0.048840 1.869198
    14 1.500137 0.000002 0.000000 0.117785 -0.032095 0.854928
    15 0.905666 -0.000002 -0.000001 0.110558 -0.051989 1.029632
    16 3.323331 0.233744 -1.479075 0.058982 -0.114638 1.951023
    17 0.963100 0.000011 0.000000 0.060474 0.054818 0.140231
    18 0.682894 -0.000006 -0.000001 0.068049 -0.045158 1.459661
    19 1.149529 0.416498 -1.414117 1.695985 0.643333 0.384411
    20 1.263884 0.000001 0.000000 -0.009336 0.006472 0.475820
    21 1.188946 0.000000 0.000002 -0.011266 0.001906 0.214483
    22 3.773762 0.133217 -0.970574 0.032751 0.177541 0.050162
    23 1.433458 0.000004 0.000000 -0.035235 0.012931 0.451902
    24 1.019165 0.000011 0.000000 -0.035247 0.012955 0.452115
    25 3.799517 0.014957 -0.039958 -0.034038 -0.009280 0.359017
    26 1.774879 0.000004 0.000000 -0.021500 0.010499 0.537856
    27 1.008841 0.000004 0.000000 -0.021512 0.010499 0.537815
    28 3.632765 0.059053 0.757493 -0.300316 -0.158877 0.565763
    29 1.500135 0.000004 0.000000 -0.017246 0.004159 0.533594
    30 0.905668 0.000002 -0.000001 -0.017246 0.004159 0.533556
    31 3.323332 0.233744 1.479075 -0.399082 -0.449085 0.621478
    32 0.963099 0.000010 0.000000 -0.018001 0.008941 0.549273
    33 0.682898 -0.000002 0.000000 -0.017989 0.008941 0.549349
    34 20.340852 5.795741 -3.244962 0.927361 0.383153 -1.334851
    35 -7.956870 -8.686406 -9.104506 -1.430045 -0.453537 -0.922521
    36 0.000000 3.992340 0.007782 1.570796 0.000000 -1.570796
    37 22.610065 -4.039186 1.277383 -0.617818 2.592623 -1.174600
    38 -0.021929 2.029111 -0.137266 -1.570805 0.000001 0.000000
    39 0.019532 0.000000 0.007813 0.000007 0.000000 0.000001
    40 0.002397 -0.669111 0.409449 1.570796 0.000000 0.000000
    41 -0.002402 -6.221447 0.929182 -0.816253 0.000000 0.000000
  time 3
    0 -5.284914 -9.455961 -9.979532 -2.539349 -0.277355 -6.811154
    1 10.295578 0.000000 0.000002 3.320887 -0.445449 0.135595
    2 18.387668 10.772455 -3.034018 -0.078346 0.180875 -0.970512
    3 10.295582 0.000001 -0.000006 -1.210108 -0.243950 -0.205658
    4 1.149520 0.416502 1.414117 -2.019538 -0.212592 0.859487
    5 1.263885 0.000000 -0.000008 0.010499 -0.004207 0.261076
    6 1.188939 -0.000002 0.000010 0.004290 -0.004350 0.883994
    7 3.773755 0.133215 0.970575 0.064315 0.064033 1.441404
    8 1.433456 0.000000 0.000000 0.082047 -0.025947 1.400638
    9 1.019165 -0.000006 0.000001 0.111253 -0.007179 1.169620
    10 3.799514 0.014957 0.039959 0.061640 0.037479 1.689009
    11 1.774878 0.000000 0.000000 0.019487 -0.092150 1.499632
    12 1.008844 -0.000004 0.000000 0.102193 -0.036193 0.427732
    13 3.632766 0.059052 -0.757493 -0.011599 -0.048840 1.869198
    14 1.500137 0.000002 0.000000 0.117785 -0.032095 0.854928
    15 0.905666 -0.000002 -0.000001 0.110558 -0.051989 1.029632
    16 3.323331 0.233744 -1.479075 0.058982 -0.114638 1.951023
    17 0.963100 0.000011 0.000000 0.060474 0.054818 0.140231
    18 0.682894 -0.000006 -0.000001 0.068049 -0.045158 1.459661
    19 1.149529 0.416498 -1.414117 1.695985 0.643333 0.384411
    20 1.263884 0.000001 0.000000 -0.009336 0.006472 0.475820
    21 1.188946 0.000000 0.000002 -0.011266 0.001906 0.214483
    22 3.773762 0.133217 -0.970574 0.032751 0.177541 0.050162
    23 1.433458 0.000004 0.000000 -0.035235 0.012931 0.451902
    24 1.019165 0.000011 0.000000 -0.035247 0.012955 0.452115
    25 3.799517 0.014957 -0.039958 -0.034038 -0.009280 0.359017
    26 1.774879 0.000004 0.000000 -0.021500 0.010499 0.537856
    27 1.008841 0.000004 0.000000 -0.021512 0.010499 0.537815
    28 3.632765 0.059053 0.757493 -0.300316 -0.158877 0.565763
    29 1.500135 0.000004 0.000000 -0.017246 0.004159 0.533594
    30 0.905668 0.000002 -0.000001 -0.017246 0.004159 0.533556
    31 3.323332 0.233744 1.479075 -0.399082 -0.449085 0.621478
    32 0.963099 0.000010 0.000000 -0.018001 0.008941 0.549273
    33 0.682898 -0.000002 0.000000 -0.017989 0.008941 0.549349
    34 18.387668 10.772455 -3.034018 0.995331 0.180765 -0.970542
    35 -5.284914 -9.455961 -9.979532 -1.547139 -0.279497 -6.809629
    36 0.000000 3.992340 0.007782 1.570796 0.000000 -1.570796
    37 19.375591 -6.683798 -5.965026 0.116798 3.044174 -1.002121
    38 -0.021929 2.029111 -0.137266 -1.570805 0.000001 0.000000
    39 0.019532 0.000000 0.007813 0.000007 0.000000 0.000001
    40 0.002397 -0.669111 0.409449 1.570796 0.000000 0.000000
    41 -0.002402 -6.221447 0.929182 -0.816253 0.000000 0.000000
  time 4
    0 -1.155881 -10.932569 -12.686646 -2.991385 -0.246882 -6.301291
    1 10.295578 0.000000 0.000002 3.699057 -0.720441 0.295585
    2 16.649333 13.549884 -2.959797 0.201122 -0.014497 -0.537636
    3 10.295582 0.000001 -0.000006 -1.545498 -0.228740 -0.396060
    4 1.149520 0.416502 1.414117 -2.019538 -0.212592 0.859487
    5 1.263885 0.000000 -0.000008 0.010499 -0.004207 0.261076
    6 1.188939 -0.000002 0.000010 0.004290 -0.004350 0.883994
    7 3.773755 0.133215 0.970575 0.064315 0.064033 1.441404
    8 1.433456 0.000000 0.000000 0.082047 -0.025947 1.400638
    9 1.019165 -0.000006 0.000001 0.111253 -0.007179 1.169620
    10 3.799514 0.014957 0.039959 0.061640 0.037479 1.689009
    11 1.774878 0.000000 0.000000 0.019487 -0.092150 1.499632
    12 1.008844 -0.000004 0.000000 0.102193 -0.036193 0.427732
    13 3.632766 0.059052 -0.757493 -0.011599 -0.048840 1.869198
    14 1.500137 0.000002 0.000000 0.117785 -0.032095 0.854928
    15 0.905666 -0.000002 -0.000001 0.110558 -0.051989 1.029632
    16 3.323331 0.233744 -1.479075 0.058982 -0.114638 1.951023
    17 0.963100 0.000011 0.000000 0.060474 0.054818 0.140231
    18 0.682894 -0.000006 -0.000001 0.068049 -0.045158 1.459661
    19 1.149529 0.416498 -1.414117 1.695985 0.643333 0.384411
    20 1.263884 0.000001 0.000000 -0.009336 0.006472 0.475820
    21 1.188946 0.000000 0.000002 -0.011266 0.001906 0.214483
    22 3.773762 0.133217 -0.970574 0.032751 0.177541 0.050162
    23 1.433458 0.000004 0.000000 -0.035235 0.012931 0.451902
    24 1.019165 0.000011 0.000000 -0.035247 0.012955 0.452115
    25 3.799517 0.014957 -0.039958 -0.034038 -0.009280 0.359017
    26 1.774879 0.000004 0.000000 -0.021500 0.010499 0.537856
    27 1.008841 0.000004 0.000000 -0.021512 0.010499 0.537815
    28 3.632765 0.059053 0.757493 -0.300316 -0.158877 0.565763
    29 1.500135 0.000004 0.000000 -0.017246 0.004159 0.533594
    30 0.905668 0.000002 -0.000001 -0.017246 0.004159 0.533556
    31 3.323332 0.233744 1.479075 -0.399082 -0.449085 0.621478
    32 0.963099 0.000010 0.000000 -0.018001 0.008941 0.549273
    33 0.682898 -0.000002 0.000000 -0.017989 0.008941 0.549349
    34 16.649333 13.549884 -2.959797 1.268242 -0.014621 -0.537867
    35 -1.155881 -10.932569 -12.686646 -2.142839 -0.247122 -6.301487
    36 0.000000 3.992340 0.007782 1.570796 0.000000 -1.570796
    37 15.496567 -10.719077 -11.844111 0.496418 2.878029 -1.010830
    38 -0.021929 2.029111 -0.137266 -1.570805 0.000001 0.000000
    39 0.019532 0.000000 0.000000 0.000007 0.000000 0.000001
    40 0.002397 -0.669111 0.409449 1.570796 0.000000 0.000000
    41 -0.014121 -6.221447 0.929182 -0.816253 0.000000 0.000000
  time 5
    0 4.504448 -10.463804 -14.479670 -2.775981 -0.298329 -6.265808
    1 10.295578 0.000000 0.000002 3.186192 -0.547061 0.622871
    2 16.207914 13.456131 -2.010549 0.454971 -0.048371 -0.157781
    3 10.295582 0.000001 -0.000006 -1.785381 -0.455781 -0.574872
    4 1.149520 0.416502 1.414117 -2.019538 -0.212592 0.859487
    5 1.263885 0.000000 -0.000008 0.010499 -0.004207 0.261076
    6 1.188939 -0.000002 0.000010 0.004290 -0.004350 0.883994
    7 3.773755 0.133215 0.970575 0.064315 0.064033 1.441404
    8 1.433456 0.000000 0.000000 0.082047 -0.025947 1.400638
    9 1.019165 -0.000006 0.000001 0.111253 -0.007179 1.169620
    10 3.799514 0.014957 0.039959 0.061640 0.037479 1.689009
    11 1.774878 0.000000 0.000000 0.019487 -0.092150 1.499632
    12 1.008844 -0.000004 0.000000 0.102193 -0.036193 0.427732
    13 3.632766 0.059052 -0.757493 -0.011599 -0.048840 1.869198
    14 1.500137 0.000002 0.000000 0.117785 -0.032095 0.854928
    15 0.905666 -0.000002 -0.000001 0.110558 -0.051989 1.029632
    16 3.323331 0.233744 -1.479075 0.058982 -0.114638 1.951023
    17 0.963100 0.000011 0.000000 0.060474 0.054818 0.140231
    18 0.682894 -0.000006 -0.000001 0.068049 -0.045158 1.459661
    19 1.149529 0.416498 -1.414117 1.695985 0.643333 0.384411
    20 1.263884 0.000001 0.000000 -0.009336 0.006472 0.475820
    21 1.188946 0.000000 0.000002 -0.011266 0.001906 0.214483
    22 3.773762 0.133217 -0.970574 0.032751 0.177541 0.050162
    23 1.433458 0.000004 0.000000 -0.035235 0.012931 0.451902
    24 1.019165 0.000011 0.000000 -0.035247 0.012955 0.452115
    25 3.799517 0.014957 -0.039958 -0.034038 -0.009280 0.359017
    26 1.774879 0.000004 0.000000 -0.021500 0.010499 0.537856
    27 1.008841 0.000004 0.000000 -0.021512 0.010499 0.537815
    28 3.632765 0.059053 0.757493 -0.300316 -0.158877 0.565763
    29 1.500135 0.000004 0.000000 -0.017246 0.004159 0.533594
    30 0.905668 0.000002 -0.000001 -0.017246 0.004159 0.533556
    31 3.323332 0.233744 1.479075 -0.399082 -0.449085 0.621478
    32 0.963099 0.000010 0.000000 -0.018001 0.008941 0.549273
    33 0.682898 -0.000002 0.000000 -0.017989 0.008941 0.549349
    34 16.207914 13.456131 -2.010549 1.512934 -0.048437 -0.157858
    35 4.504448 -10.463804 -14.479670 -2.114120 -0.304401 -6.264665
    36 0.000000 3.992340 0.007782 1.570796 0.000000 -1.570796
    37 14.875454 -11.801141 -17.246620 0.454164 2.876692 -0.801053
    38 -0.021929 2.029111 -0.137266 -1.570805 0.000001 0.000000
    39 0.019532 0.000000 0.000000 0.000007 0.000000 0.000001
    40 0.002397 -0.669111 0.409449 1.570796 0.000000 0.000000
    41 -0.002402 -6.221447 0.929182 -0.816253 0.000000 0.000000
  time 6
    0 3.316911 -9.424710 -17.788364 -2.513147 -0.197034 -6.029957
    1 10.295578 0.000000 0.000002 2.822890 -0.199766 0.894402
    2 16.293854 13.608479 -1.510534 0.449367 -0.022024 -0.095840
    3 10.295582 0.000001 -0.000006 -1.763115 -0.499123 -0.605446
    4 1.149520 0.416502 1.414117 -2.019538 -0.212592 0.859487
    5 1.263885 0.000000 -0.000008 0.010499 -0.004207 0.261076
    6 1.188939 -0.000002 0.000010 0.004290 -0.004350 0.883994
    7 3.773755 0.133215 0.970575 0.064315 0.064033 1.441404
    8 1.433456 0.000000 0.000000 0.082047 -0.025947 1.400638
    9 1.019165 -0.000006 0.000001 0.111253 -0.007179 1.169620
    10 3.799514 0.014957 0.039959 0.061640 0.037479 1.689009
    11 1.774878 0.000000 0.000000 0.019487 -0.092150 1.499632
    12 1.008844 -0.000004 0.000000 0.102193 -0.036193 0.427732
    13 3.632766 0.059052 -0.757493 -0.011599 -0.048840 1.869198
    14 1.500137 0.000002 0.000000 0.117785 -0.032095 0.854928
    15 0.905666 -0.000002 -0.000001 0.110558 -0.051989 1.029632
    16 3.323331 0.233744 -1.479075 0.058982 -0.114638 1.951023
    17 0.963100 0.000011 0.000000 0.060474 0.054818 0.140231
    18 0.682894 -0.000006 -0.000001 0.068049 -0.045158 1.459661
    19 1.149529 0.416498 -1.414117 1.695985 0.643333 0.384411
    20 1.263884 0.000001 0.000000 -0.009336 0.006472 0.475820
    21 1.188946 0.000000 0.000002 -0.011266 0.001906 0.214483
    22 3.773762 0.133217 -0.970574 0.032751 0.177541 0.050162
    23 1.433458 0.000004 0.000000 -0.035235 0.012931 0.451902
    24 1.019165 0.000011 0.000000 -0.035247 0.012955 0.452115
    25 3.799517 0.014957 -0.039958 -0.034038 -0.009280 0.359017
    26 1.774879 0.000004 0.000000 -0.021500 0.010499 0.537856
    27 1.008841 0.000004 0.000000 -0.021512 0.010499 0.537815
    28 3.632765 0.059053 0.757493 -0.300316 -0.158877 0.565763
    29 1.500135 0.000004 0.000000 -0.017246 0.004159 0.533594
    30 0.905668 0.000002 -0.000001 -0.017246 0.004159 0.533556
    31 3.323332 0.233744 1.479075 -0.399082 -0.449085 0.621478
    32 0.963099 0.000010 0.000000 -0.018001 0.008941 0.549273
    33 0.682898 -0.000002 0.000000 -0.017989 0.008941 0.549349
    34 16.293854 13.608479 -1.510534 1.497465 -0.021913 -0.095986
    35 3.316911 -9.424710 -17.788364 -2.064879 -0.198942 -6.027092
    36 0.000000 3.992340 0.007782 1.570796 0.000000 -1.570796
    37 11.375347 -16.438002 -16.043458 0.598941 2.846137 -0.559942
    38 -0.021929 2.029111 -0.137266 -1.570805 0.000001 0.000000
    39 0.019532 0.000000 0.000000 0.000007 0.000000 0.000001
    40 0.014116 -0.669111 0.409449 1.570796 0.000000 0.000000
    41 -0.002402 -6.221447 0.929182 -0.816253 0.000000 0.000000
  time 7
    0 0.566828 -8.307488 -18.339162 -2.180392 0.000007 -6.004038
    1 10.295578 0.000000 0.000002 2.517626 0.152333 0.891655
    2 16.418858 14.147558 -1.807418 0.254700 -0.001704 -0.220436
    3 10.295582 0.000001 -0.000006 -1.592842 -0.362731 -0.570812
    4 1.149520 0.416502 1.414117 -2.019538 -0.212592 0.859487
    5 1.263885 0.000000 -0.000008 0.010499 -0.004207 0.261076
    6 1.188939 -0.000002 0.000010 0.004290 -0.004350 0.883994
    7 3.773755 0.133215 0.970575 0.064315 0.064033 1.441404
    8 1.433456 0.000000 0.000000 0.082047 -0.025947 1.400638
    9 1.019165 -0.000006 0.000001 0.111253 -0.007179 1.169620
    10 3.799514 0.014957 0.039959 0.061640 0.037479 1.689009
    11 1.774878 0.000000 0.000000 0.019487 -0.092150 1.499632
    12 1.008844 -0.000004 0.000000 0.102193 -0.036193 0.427732
    13 3.632766 0.059052 -0.757493 -0.011599 -0.048840 1.869198
    14 1.500137 0.000002 0.000000 0.117785 -0.032095 0.854928
    15 0.905666 -0.000002 -0.000001 0.110558 -0.051989 1.029632
    16 3.323331 0.233744 -1.479075 0.058982 -0.114638 1.951023
    17 0.963100 0.000011 0.000000 0.060474 0.054818 0.140231
    18 0.682894 -0.000006 -0.000001 0.068049 -0.045158 1.459661
    19 1.149529 0.416498 -1.414117 1.695985 0.643333 0.384411
    20 1.263884 0.000001 0.000000 -0.009336 0.006472 0.475820
    21 1.188946 0.000000 0.000002 -0.011266 0.001906 0.214483
    22 3.773762 0.133217 -0.970574 0.032751 0.177541 0.050162
    23 1.433458 0.000004 0.000000 -0.035235 0.012931 0.451902
    24 1.019165 0.000011 0.000000 -0.035247 0.012955 0.452115
    25 3.799517 0.014957 -0.039958 -0.034038 -0.009280 0.359017
    26 1.774879 0.000004 0.000000 -0.021500 0.010499 0.537856
    27 1.008841 0.000004 0.000000 -0.021512 0.010499 0.537815
    28 3.632765 0.059053 0.757493 -0.300316 -0.158877 0.565763
    29 1.500135 0.000004 0.000000 -0.017246 0.004159 0.533594
    30 0.905668 0.000002 -0.000001 -0.017246 0.004159 0.533556
    31 3.323332 0.233744 1.479075 -0.399082 -0.449085 0.621478
    32 0.963099 0.000010 0.000000 -0.018001 0.008941 0.549273
    33 0.682898 -0.000002 0.000000 -0.017989 0.008941 0.549349
    34 16.418858 14.147558 -1.807418 1.291680 -0.001576 -0.220372
    35 0.566828 -8.307488 -18.339162 -1.963069 -0.000764 -6.000982
    36 0.000000 3.992340 0.007782 1.570796 0.000000 -1.570796
    37 10.000305 -19.375591 -13.281655 0.767576 2.805078 -0.324511
    38 -0.021929 2.029111 -0.137266 -1.570805 0.000001 0.000000
    39 0.019532 0.000000 0.000000 0.000007 0.000000 0.000001
    40 0.002397 -0.669111 0.409449 1.570796 0.000000 0.000000
    41 -0.002402 -6.221447 0.929182 -0.816253 0.000000 0.000000
  time 8
    0 -1.265260 -6.869945 -17.393821 -2.047008 0.188489 -6.187669
    1 10.295578 0.000000 0.000002 2.209907 0.245404 0.746649
    2 16.723554 14.245217 -3.213711 -0.053712 -0.050252 -0.368653
    3 10.295582 0.000001 -0.000006 -1.349913 -0.124483 -0.520319
    4 1.149520 0.416502 1.414117 -2.019538 -0.212592 0.859487
    5 1.263885 0.000000 -0.000008 0.010499 -0.004207 0.261076
    6 1.188939 -0.000002 0.000010 0.004290 -0.004350 0.883994
    7 3.773755 0.133215 0.970575 0.064315 0.064033 1.441404
    8 1.433456 0.000000 0.000000 0.082047 -0.025947 1.400638
    9 1.019165 -0.000006 0.000001 0.111253 -0.007179 1.169620
    10 3.799514 0.014957 0.039959 0.061640 0.037479 1.689009
    11 1.774878 0.000000 0.000000 0.019487 -0.092150 1.499632
    12 1.008844 -0.000004 0.000000 0.102193 -0.036193 0.427732
    13 3.632766 0.059052 -0.757493 -0.011599 -0.048840 1.869198
    14 1.500137 0.000002 0.000000 0.117785 -0.032095 0.854928
    15 0.905666 -0.000002 -0.000001 0.110558 -0.051989 1.029632
    16 3.323331 0.233744 -1.479075 0.058982 -0.114638 1.951023
    17 0.963100 0.000011 0.000000 0.060474 0.054818 0.140231
    18 0.682894 -0.000006 -0.000001 0.068049 -0.045158 1.459661
    19 1.149529 0.416498 -1.414117 1.695985 0.643333 0.384411
    20 1.263884 0.000001 0.000000 -0.009336 0.006472 0.475820
    21 1.188946 0.000000 0.000002 -0.011266 0.001906 0.214483
    22 3.773762 0.133217 -0.970574 0.032751 0.177541 0.050162
    23 1.433458 0.000004 0.000000 -0.035235 0.012931 0.451902
    24 1.019165 0.000011 0.000000 -0.035247 0.012955 0.452115
    25 3.799517 0.014957 -0.039958 -0.034038 -0.009280 0.359017
    26 1.774879 0.000004 0.000000 -0.021500 0.010499 0.537856
    27 1.008841 0.000004 0.000000 -0.021512 0.010499 0.537815
    28 3.632765 0.059053 0.757493 -0.300316 -0.158877 0.565763
    29 1.500135 0.000004 0.000000 -0.017246 0.004159 0.533594
    30 0.905668 0.000002 -0.000001 -0.017246 0.004159 0.533556
    31 3.323332 0.233744 1.479075 -0.399082 -0.449085 0.621478
    32 0.963099 0.000010 0.000000 -0.018001 0.008941 0.549273
    33 0.682898 -0.000002 0.000000 -0.017989 0.008941 0.549349
    34 16.723554 14.245217 -3.213711 0.970487 -0.050228 -0.368879
    35 -1.265260 -6.869945 -17.393821 -2.068823 0.189560 -6.187100
    36 0.000000 3.992340 0.007782 1.570796 0.000000 -1.570796
    37 10.656575 -20.750633 -11.433943 0.948859 2.770608 -0.102806
    38 -0.021929 2.029111 -0.137266 -1.570805 0.000001 0.000000
    39 0.019532 0.000000 0.000000 0.000007 0.000000 0.000001
    40 0.002397 -0.669111 0.409449 1.570796 0.000000 0.000000
    41 -0.002402 -6.221447 0.929182 -0.816253 0.000000 0.000000
  time 9
    0 -1.909811 -5.783974 -16.659424 -1.999949 0.346310 -6.391098
    1 10.295578 0.000000 0.000002 1.952315 0.289538 0.613256
    2 16.918873 13.272531 -5.170802 -0.345620 -0.117367 -0.470842
    3 10.295582 0.000001 -0.000006 -1.114171 0.098441 -0.450441
    4 1.149520 0.416502 1.414117 -2.019538 -0.212592 0.859487
    5 1.263885 0.000000 -0.000008 0.010499 -0.004207 0.261076
    6 1.188939 -0.000002 0.000010 0.004290 -0.004350 0.883994
    7 3.773755 0.133215 0.970575 0.064315 0.064033 1.441404
    8 1.433456 0.000000 0.000000 0.082047 -0.025947 1.400638
    9 1.019165 -0.000006 0.000001 0.111253 -0.007179 1.169620
    10 3.799514 0.014957 0.039959 0.061640 0.037479 1.689009
    11 1.774878 0.000000 0.000000 0.019487 -0.092150 1.499632
    12 1.008844 -0.000004 0.000000 0.102193 -0.036193 0.427732
    13 3.632766 0.059052 -0.757493 -0.011599 -0.048840 1.869198
    14 1.500137 0.000002 0.000000 0.117785 -0.032095 0.854928
    15 0.905666 -0.000002 -0.000001 0.110558 -0.051989 1.029632
    16 3.323331 0.233744 -1.479075 0.058982 -0.114638 1.951023
    17 0.963100 0.000011 0.000000 0.060474 0.054818 0.140231
    18 0.682894 -0.000006 -0.000001 0.068049 -0.045158 1.459661
    19 1.149529 0.416498 -1.414117 1.695985 0.643333 0.384411
    20 1.263884 0.000001 0.000000 -0.009336 0.006472 0.475820
    21 1.188946 0.000000 0.000002 -0.011266 0.001906 0.214483
    22 3.773762 0.133217 -0.970574 0.032751 0.177541 0.050162
    23 1.433458 0.000004 0.000000 -0.035235 0.012931 0.451902
    24 1.019165 0.000011 0.000000 -0.035247 0.012955 0.452115
    25 3.799517 0.014957 -0.039958 -0.034038 -0.009280 0.359017
    26 1.774879 0.000004 0.000000 -0.021500 0.010499 0.537856
    27 1.008841 0.000004 0.000000 -0.021512 0.010499 0.537815
    28 3.632765 0.059053 0.757493 -0.300316 -0.158877 0.565763
    29 1.500135 0.000004 0.000000 -0.017246 0.004159 0.533594
    30 0.905668 0.000002 -0.000001 -0.017246 0.004159 0.533556
    31 3.323332 0.233744 1.479075 -0.399082 -0.449085 0.621478
    32 0.963099 0.000010 0.000000 -0.018001 0.008941 0.549273
    33 0.682898 -0.000002 0.000000 -0.017989 0.008941 0.549349
    34 16.918873 13.272531 -5.170802 0.665513 -0.117190 -0.471000
    35 -1.909811 -5.783974 -16.659424 -2.261227 0.347796 -6.389190
    36 0.000000 3.992340 0.007782 1.570796 0.000000 -1.570796
    37 11.808954 -21.875668 -10.086245 1.113948 2.747405 0.088228
    38 -0.021929 2.029111 -0.137266 -1.570805 0.000001 0.000000
    39 0.019532 0.000000 0.007813 0.000007 0.000000 0.000001
    40 0.002397 -0.669111 0.409449 1.570796 0.000000 0.000000
    41 -0.002402 -6.221447 0.929182 -0.816253 0.000000 0.000000
  time 10
    0 -2.441077 -5.518341 -15.979715 -1.945170 0.455035 -6.498503
    1 10.295578 0.000000 0.000002 1.764901 0.397288 0.535898
    2 17.168880 12.206093 -6.354432 -0.464908 -0.097951 -0.597722
    3 10.295582 0.000001 -0.000006 -0.979445 0.146853 -0.366248
    4 1.149520 0.416502 1.414117 -2.019538 -0.212592 0.859487
    5 1.263885 0.000000 -0.000008 0.010499 -0.004207 0.261076
    6 1.188939 -0.000002 0.000010 0.004290 -0.004350 0.883994
    7 3.773755 0.133215 0.970575 0.064315 0.064033 1.441404
    8 1.433456 0.000000 0.000000 0.082047 -0.025947 1.400638
    9 1.019165 -0.000006 0.000001 0.111253 -0.007179 1.169620
    10 3.799514 0.014957 0.039959 0.061640 0.037479 1.689009
    11 1.774878 0.000000 0.000000 0.019487 -0.092150 1.499632
    12 1.008844 -0.000004 0.000000 0.102193 -0.036193 0.427732
    13 3.632766 0.059052 -0.757493 -0.011599 -0.048840 1.869198
    14 1.500137 0.000002 0.000000 0.117785 -0.032095 0.854928
    15 0.905666 -0.000002 -0.000001 0.110558 -0.051989 1.029632
    16 3.323331 0.233744 -1.479075 0.058982 -0.114638 1.951023
    17 0.963100 0.000011 0.000000 0.060474 0.054818 0.140231
    18 0.682894 -0.000006 -0.000001 0.068049 -0.045158 1.459661
    19 1.149529 0.416498 -1.414117 1.695985 0.643333 0.384411
    20 1.263884 0.000001 0.000000 -0.009336 0.006472 0.475820
    21 1.188946 0.000000 0.000002 -0.011266 0.001906 0.214483
    22 3.773762 0.133217 -0.970574 0.032751 0.177541 0.050162
    23 1.433458 0.000004 0.000000 -0.035235 0.012931 0.451902
    24 1.019165 0.000011 0.000000 -0.035247 0.012955 0.452115
    25 3.799517 0.014957 -0.039958 -0.034038 -0.009280 0.359017
    26 1.774879 0.000004 0.000000 -0.021500 0.010499 0.537856
    27 1.008841 0.000004 0.000000 -0.021512 0.010499 0.537815
    28 3.632765 0.059053 0.757493 -0.300316 -0.158877 0.565763
    29 1.500135 0.000004 0.000000 -0.017246 0.004159 0.533594
    30 0.905668 0.000002 -0.000001 -0.017246 0.004159 0.533556
    31 3.323332 0.233744 1.479075 -0.399082 -0.449085 0.621478
    32 0.963099 0.000010 0.000000 -0.018001 0.008941 0.549273
    33 0.682898 -0.000002 0.000000 -0.017989 0.008941 0.549349
    34 17.168880 12.206093 -6.354432 0.532198 -0.097795 -0.597812
    35 -2.441077 -5.518341 -15.979715 -2.435820 0.457086 -6.496021
    36 0.000000 3.992340 0.007782 1.570796 0.000000 -1.570796
    37 12.781640 -22.375683 -8.687765 1.248186 2.730886 0.259855
    38 -0.021929 2.029111 -0.137266 -1.570805 0.000001 0.000000
    39 0.019532 0.000000 0.007813 0.000007 0.000000 0.000001
    40 0.002397 -0.669111 0.409449 1.570796 0.000000 0.000000
    41 -0.002402 -6.221447 0.929182 -0.816253 0.000000 0.000000
  time 11
    0 -3.253602 -5.010513 -15.604704 -1.943091 0.467074 -6.657363
    1 10.295578 0.000000 0.000002 1.560437 0.473715 0.486918
    2 17.899372 11.338879 -6.354432 -0.424201 0.039951 -0.791253
    3 10.295582 0.000001 -0.000006 -0.960890 0.008021 -0.293301
    4 1.149520 0.416502 1.414117 -2.019538 -0.212592 0.859487
    5 1.263885 0.000000 -0.000008 0.010499 -0.004207 0.261076
    6 1.188939 -0.000002 0.000010 0.004290 -0.004350 0.883994
    7 3.773755 0.133215 0.970575 0.064315 0.064033 1.441404
    8 1.433456 0.000000 0.000000 0.082047 -0.025947 1.400638
    9 1.019165 -0.000006 0.000001 0.111253 -0.007179 1.169620
    10 3.799514 0.014957 0.039959 0.061640 0.037479 1.689009
    11 1.774878 0.000000 0.000000 0.019487 -0.092150 1.499632
    12 1.008844 -0.000004 0.000000 0.102193 -0.036193 0.427732
    13 3.632766 0.059052 -0.757493 -0.011599 -0.048840 1.869198
    14 1.500137 0.000002 0.000000 0.117785 -0.032095 0.854928
    15 0.905666 -0.000002 -0.000001 0.110558 -0.051989 1.029632
    16 3.323331 0.233744 -1.479075 0.058982 -0.114638 1.951023
    17 0.963100 0.000011 0.000000 0.060474 0.054818 0.140231
    18 0.682894 -0.000006 -0.000001 0.068049 -0.045158 1.459661
    19 1.149529 0.416498 -1.414117 1.695985 0.643333 0.384411
    20 1.263884 0.000001 0.000000 -0.009336 0.006472 0.475820
    21 1.188946 0.000000 0.000002 -0.011266 0.001906 0.214483
    22 3.773762 0.133217 -0.970574 0.032751 0.177541 0.050162
    23 1.433458 0.000004 0.000000 -0.035235 0.012931 0.451902
    24 1.019165 0.000011 0.000000 -0.035247 0.012955 0.452115
    25 3.799517 0.014957 -0.039958 -0.034038 -0.009280 0.359017
    26 1.774879 0.000004 0.000000 -0.021500 0.010499 0.537856
    27 1.008841 0.000004 0.000000 -0.021512 0.010499 0.537815
    28 3.632765 0.059053 0.757493 -0.300316 -0.158877 0.565763
    29 1.500135 0.000004 0.000000 -0.017246 0.004159 0.533594
    30 0.905668 0.000002 -0.000001 -0.017246 0.004159 0.533556
    31 3.323332 0.233744 1.479075 -0.399082 -0.449085 0.621478
    32 0.963099 0.000010 0.000000 -0.018001 0.008941 0.549273
    33 0.682898 -0.000002 0.000000 -0.017989 0.008941 0.549349
    34 17.899372 11.338879 -6.354432 0.559386 0.040074 -0.791135
    35 -3.253602 -5.010513 -15.604704 -2.647082 0.468580 -6.657751
    36 0.000000 3.992340 0.007782 1.570796 0.000000 -1.570796
    37 14.082461 -22.098331 -7.129124 1.378878 2.707492 0.461964
    38 -0.021929 2.029111 -0.137266 -1.570805 0.000001 0.000000
    39 0.019532 0.000000 0.007813 0.000007 0.000000 0.000001
    40 0.002397 -0.669111 0.409449 1.570796 0.000000 0.000000
    41 -0.002402 -6.221447 0.929182 -0.816253 0.000000 0.000000
  time 12
    0 -3.964561 -4.416745 -15.417198 -1.978275 0.403306 -6.865574
    1 10.295578 0.000000 0.000002 1.339673 0.516126 0.429540
    2 18.731428 10.081028 -6.409121 -0.412377 0.165259 -0.977434
    3 10.295582 0.000001 -0.000006 -0.952765 -0.108358 -0.226416
    4 1.149520 0.416502 1.414117 -2.019538 -0.212592 0.859487
    5 1.263885 0.000000 -0.000008 0.010499 -0.004207 0.261076
    6 1.188939 -0.000002 0.000010 0.004290 -0.004350 0.883994
    7 3.773755 0.133215 0.970575 0.064315 0.064033 1.441404
    8 1.433456 0.000000 0.000000 0.082047 -0.025947 1.400638
    9 1.019165 -0.000006 0.000001 0.111253 -0.007179 1.169620
    10 3.799514 0.014957 0.039959 0.061640 0.037479 1.689009
    11 1.774878 0.000000 0.000000 0.019487 -0.092150 1.499632
    12 1.008844 -0.000004 0.000000 0.102193 -0.036193 0.427732
    13 3.632766 0.059052 -0.757493 -0.011599 -0.048840 1.869198
    14 1.500137 0.000002 0.000000 0.117785 -0.032095 0.854928
    15 0.905666 -0.000002 -0.000001 0.110558 -0.051989 1.029632
    16 3.323331 0.233744 -1.479075 0.058982 -0.114638 1.951023
    17 0.963100 0.000011 0.000000 0.060474 0.054818 0.140231
    18 0.682894 -0.000006 -0.000001 0.068049 -0.045158 1.459661
    19 1.149529 0.416498 -1.414117 1.695985 0.643333 0.384411
    20 1.263884 0.000001 0.000000 -0.009336 0.006472 0.475820
    21 1.188946 0.000000 0.000002 -0.011266 0.001906 0.214483
    22 3.773762 0.133217 -0.970574 0.032751 0.177541 0.050162
    23 1.433458 0.000004 0.000000 -0.035235 0.012931 0.451902
    24 1.019165 0.000011 0.000000 -0.035247 0.012955 0.452115
    25 3.799517 0.014957 -0.039958 -0.034038 -0.009280 0.359017
    26 1.774879 0.000004 0.000000 -0.021500 0.010499 0.537856
    27 1.008841 0.000004 0.000000 -0.021512 0.010499 0.537815
    28 3.632765 0.059053 0.757493 -0.300316 -0.158877 0.565763
    29 1.500135 0.000004 0.000000 -0.017246 0.004159 0.533594
    30 0.905668 0.000002 -0.000001 -0.017246 0.004159 0.533556
    31 3.323332 0.233744 1.479075 -0.399082 -0.449085 0.621478
    32 0.963099 0.000010 0.000000 -0.018001 0.008941 0.549273
    33 0.682898 -0.000002 0.000000 -0.017989 0.008941 0.549349
    34 18.731428 10.081028 -6.409121 0.556386 0.165277 -0.977464
    35 -3.964561 -4.416745 -15.417198 -2.865986 0.403350 -6.865771
    36 0.000000 3.992340 0.007782 1.570796 0.000000 -1.570796
    37 15.797357 -21.125645 -5.457198 4.653847 0.457949 -2.446136
    38 -0.021929 2.029111 -0.137266 -1.570805 0.000001 0.000000
    39 0.019532 0.000000 0.007813 0.000007 0.000000 0.000001
    40 0.002397 -0.669111 0.409449 1.570796 0.000000 0.000000
    41 -0.002402 -6.221447 0.929182 -0.816253 0.000000 0.000000
  time 13
    0 -4.323947 -4.440183 -14.655456 -2.016798 0.367942 -7.048918
    1 10.295578 0.000000 0.000002 1.163103 0.567223 0.309914
    2 19.270507 8.483323 -6.948200 -0.462383 0.217445 -1.130218
    3 10.295582 0.000001 -0.000006 -0.916984 -0.134699 -0.174779
    4 1.149520 0.416502 1.414117 -2.019538 -0.212592 0.859487
    5 1.263885 0.000000 -0.000008 0.010499 -0.004207 0.261076
    6 1.188939 -0.000002 0.000010 0.004290 -0.004350 0.883994
    7 3.773755 0.133215 0.970575 0.064315 0.064033 1.441404
    8 1.433456 0.000000 0.000000 0.082047 -0.025947 1.400638
    9 1.019165 -0.000006 0.000001 0.111253 -0.007179 1.169620
    10 3.799514 0.014957 0.039959 0.061640 0.037479 1.689009
    11 1.774878 0.000000 0.000000 0.019487 -0.092150 1.499632
    12 1.008844 -0.000004 0.000000 0.102193 -0.036193 0.427732
    13 3.632766 0.059052 -0.757493 -0.011599 -0.048840 1.869198
    14 1.500137 0.000002 0.000000 0.117785 -0.032095 0.854928
    15 0.905666 -0.000002 -0.000001 0.110558 -0.051989 1.029632
    16 3.323331 0.233744 -1.479075 0.058982 -0.114638 1.951023
    17 0.963100 0.000011 0.000000 0.060474 0.054818 0.140231
    18 0.682894 -0.000006 -0.000001 0.068049 -0.045158 1.459661
    19 1.149529 0.416498 -1.414117 1.695985 0.643333 0.384411
    20 1.263884 0.000001 0.000000 -0.009336 0.006472 0.475820
    21 1.188946 0.000000 0.000002 -0.011266 0.001906 0.214483
    22 3.773762 0.133217 -0.970574 0.032751 0.177541 0.050162
    23 1.433458 0.000004 0.000000 -0.035235 0.012931 0.451902
    24 1.019165 0.000011 0.000000 -0.035247 0.012955 0.452115
    25 3.799517 0.014957 -0.039958 -0.034038 -0.009280 0.359017
    26 1.774879 0.000004 0.000000 -0.021500 0.010499 0.537856
    27 1.008841 0.000004 0.000000 -0.021512 0.010499 0.537815
    28 3.632765 0.059053 0.757493 -0.300316 -0.158877 0.565763
    29 1.500135 0.000004 0.000000 -0.017246 0.004159 0.533594
    30 0.905668 0.000002 -0.000001 -0.017246 0.004159 0.533556
    31 3.323332 0.233744 1.479075 -0.399082 -0.449085 0.621478
    32 0.963099 0.000010 0.000000 -0.018001 0.008941 0.549273
    33 0.682898 -0.000002 0.000000 -0.017989 0.008941 0.549349
    34 19.270507 8.483323 -6.948200 0.491791 0.217421 -1.130467
    35 -4.323947 -4.440183 -14.655456 -3.047666 0.368677 -7.048350
    36 0.000000 3.992340 0.007782 1.570796 0.000000 -1.570796
    37 17.625538 -19.684194 -3.808710 -1.504015 0.472749 -2.215817
    38 -0.021929 2.029111 -0.137266 -1.570805 0.000001 0.000000
    39 0.007813 0.000000 0.007813 0.000007 0.000000 0.000001
    40 0.002397 -0.669111 0.409449 1.570796 0.000000 0.000000
    41 -0.002402 -6.221447 0.929182 -0.816253 0.000000 0.000000
  time 14
    0 -4.480201 -5.041764 -13.089002 -2.042628 0.400014 -0.909711
    1 10.295578 0.000000 0.000002 1.022065 0.626084 0.129757
    2 19.731459 6.803584 -7.139612 -0.496008 0.268816 -1.304553
    3 10.295582 0.000001 -0.000006 -0.911672 -0.180214 -0.111744
    4 1.149520 0.416502 1.414117 -2.019538 -0.212592 0.859487
    5 1.263885 0.000000 -0.000008 0.010499 -0.004207 0.261076
    6 1.188939 -0.000002 0.000010 0.004290 -0.004350 0.883994
    7 3.773755 0.133215 0.970575 0.064315 0.064033 1.441404
    8 1.433456 0.000000 0.000000 0.082047 -0.025947 1.400638
    9 1.019165 -0.000006 0.000001 0.111253 -0.007179 1.169620
    10 3.799514 0.014957 0.039959 0.061640 0.037479 1.689009
    11 1.774878 0.000000 0.000000 0.019487 -0.092150 1.499632
    12 1.008844 -0.000004 0.000000 0.102193 -0.036193 0.427732
    13 3.632766 0.059052 -0.757493 -0.011599 -0.048840 1.869198
    14 1.500137 0.000002 0.000000 0.117785 -0.032095 0.854928
    15 0.905666 -0.000002 -0.000001 0.110558 -0.051989 1.029632
    16 3.323331 0.233744 -1.479075 0.058982 -0.114638 1.951023
    17 0.963100 0.000011 0.000000 0.060474 0.054818 0.140231
    18 0.682894 -0.000006 -0.000001 0.068049 -0.045158 1.459661
    19 1.149529 0.416498 -1.414117 1.695985 0.643333 0.384411
    20 1.263884 0.000001 0.000000 -0.009336 0.006472 0.475820
    21 1.188946 0.000000 0.000002 -0.011266 0.001906 0.214483
    22 3.773762 0.133217 -0.970574 0.032751 0.177541 0.050162
    23 1.433458 0.000004 0.000000 -0.035235 0.012931 0.451902
    24 1.019165 0.000011 0.000000 -0.035247 0.012955 0.452115
    25 3.799517 0.014957 -0.039958 -0.034038 -0.009280 0.359017
    26 1.774879 0.000004 0.000000 -0.021500 0.010499 0.537856
    27 1.008841 0.000004 0.000000 -0.021512 0.010499 0.537815
    28 3.632765 0.059053 0.757493 -0.300316 -0.158877 0.565763
    29 1.500135 0.000004 0.000000 -0.017246 0.004159 0.533594
    30 0.905668 0.000002 -0.000001 -0.017246 0.004159 0.533556
    31 3.323332 0.233744 1.479075 -0.399082 -0.449085 0.621478
    32 0.963099 0.000010 0.000000 -0.018001 0.008941 0.549273
    33 0.682898 -0.000002 0.000000 -0.017989 0.008941 0.549349
    34 19.731459 6.803584 -7.139612 0.445384 0.268932 -1.304379
    35 -4.480201 -5.041764 -13.089002 -3.171046 0.401052 -0.909705
    36 0.000000 3.992340 0.007782 1.570796 0.000000 -1.570796
    37 19.293558 -18.098209 -2.304758 -1.405996 0.465492 -2.027245
    38 -0.021929 2.029111 -0.137266 -1.570805 0.000001 0.000000
    39 0.019532 0.000000 0.000000 0.000007 0.000000 0.000001
    40 0.002397 -0.669111 0.409449 1.570796 0.000000 0.000000
    41 -0.002402 -6.221447 0.929182 -0.816253 0.000000 0.000000
  time 15
    0 -4.566142 -5.518341 -11.971781 -2.089391 0.389292 -1.043226
    1 10.295578 0.000000 0.000002 0.927676 0.595974 0.021151
    2 20.012717 4.768366 -7.424777 -0.554944 0.273973 -1.533622
    3 10.295582 0.000001 -0.000006 -0.907297 -0.220697 0.008551
    4 1.149520 0.416502 1.414117 -2.019538 -0.212592 0.859487
    5 1.263885 0.000000 -0.000008 0.010499 -0.004207 0.261076
    6 1.188939 -0.000002 0.000010 0.004290 -0.004350 0.883994
    7 3.773755 0.133215 0.970575 0.064315 0.064033 1.441404
    8 1.433456 0.000000 0.000000 0.082047 -0.025947 1.400638
    9 1.019165 -0.000006 0.000001 0.111253 -0.007179 1.169620
    10 3.799514 0.014957 0.039959 0.061640 0.037479 1.689009
    11 1.774878 0.000000 0.000000 0.019487 -0.092150 1.499632
    12 1.008844 -0.000004 0.000000 0.102193 -0.036193 0.427732
    13 3.632766 0.059052 -0.757493 -0.011599 -0.048840 1.869198
    14 1.500137 0.000002 0.000000 0.117785 -0.032095 0.854928
    15 0.905666 -0.000002 -0.000001 0.110558 -0.051989 1.029632
    16 3.323331 0.233744 -1.479075 0.058982 -0.114638 1.951023
    17 0.963100 0.000011 0.000000 0.060474 0.054818 0.140231
    18 0.682894 -0.000006 -0.000001 0.068049 -0.045158 1.459661
    19 1.149529 0.416498 -1.414117 1.695985 0.643333 0.384411
    20 1.263884 0.000001 0.000000 -0.009336 0.006472 0.475820
    21 1.188946 0.000000 0.000002 -0.011266 0.001906 0.214483
    22 3.773762 0.133217 -0.970574 0.032751 0.177541 0.050162
    23 1.433458 0.000004 0.000000 -0.035235 0.012931 0.451902
    24 1.019165 0.000011 0.000000 -0.035247 0.012955 0.452115
    25 3.799517 0.014957 -0.039958 -0.034038 -0.009280 0.359017
    26 1.774879 0.000004 0.000000 -0.021500 0.010499 0.537856
    27 1.008841 0.000004 0.000000 -0.021512 0.010499 0.537815
    28 3.632765 0.059053 0.757493 -0.300316 -0.158877 0.565763
    29 1.500135 0.000004 0.000000 -0.017246 0.004159 0.533594
    30 0.905668 0.000002 -0.000001 -0.017246 0.004159 0.533556
    31 3.323332 0.233744 1.479075 -0.399082 -0.449085 0.621478
    32 0.963099 0.000010 0.000000 -0.018001 0.008941 0.549273
    33 0.682898 -0.000002 0.000000 -0.017989 0.008941 0.549349
    34 20.012717 4.768366 -7.424777 0.372445 0.274124 -1.533669
    35 -4.566142 -5.518341 -11.971781 -3.261948 0.389558 -1.043316
    36 0.000000 3.992340 0.007782 1.570796 0.000000 -1.570796
    37 20.625629 -16.684103 -1.058626 -1.349465 0.432454 -1.917339
    38 -0.021929 2.029111 -0.137266 -1.570805 0.000001 0.000000
    39 0.019532 0.000000 0.000000 0.000007 0.000000 0.000001
    40 0.014116 -0.669111 0.409449 1.570796 0.000000 0.000000
    41 -0.002402 -6.221447 0.929182 -0.816253 0.000000 0.000000
  time 16
    0 -4.968498 -5.448026 -11.292072 -2.112920 0.284423 -1.124999
    1 10.295578 0.000000 0.000002 0.815555 0.511613 0.013596
    2 19.918964 2.190162 -8.143549 -0.632355 0.206823 -1.775536
    3 10.295582 0.000001 -0.000006 -0.887648 -0.229312 0.165729
    4 1.149520 0.416502 1.414117 -2.019538 -0.212592 0.859487
    5 1.263885 0.000000 -0.000008 0.010499 -0.004207 0.261076
    6 1.188939 -0.000002 0.000010 0.004290 -0.004350 0.883994
    7 3.773755 0.133215 0.970575 0.064315 0.064033 1.441404
    8 1.433456 0.000000 0.000000 0.082047 -0.025947 1.400638
    9 1.019165 -0.000006 0.000001 0.111253 -0.007179 1.169620
    10 3.799514 0.014957 0.039959 0.061640 0.037479 1.689009
    11 1.774878 0.000000 0.000000 0.019487 -0.092150 1.499632
    12 1.008844 -0.000004 0.000000 0.102193 -0.036193 0.427732
    13 3.632766 0.059052 -0.757493 -0.011599 -0.048840 1.869198
    14 1.500137 0.000002 0.000000 0.117785 -0.032095 0.854928
    15 0.905666 -0.000002 -0.000001 0.110558 -0.051989 1.029632
    16 3.323331 0.233744 -1.479075 0.058982 -0.114638 1.951023
    17 0.963100 0.000011 0.000000 0.060474 0.054818 0.140231
    18 0.682894 -0.000006 -0.000001 0.068049 -0.045158 1.459661
    19 1.149529 0.416498 -1.414117 1.695985 0.643333 0.384411
    20 1.263884 0.000001 0.000000 -0.009336 0.006472 0.475820
    21 1.188946 0.000000 0.000002 -0.011266 0.001906 0.214483
    22 3.773762 0.133217 -0.970574 0.032751 0.177541 0.050162
    23 1.433458 0.000004 0.000000 -0.035235 0.012931 0.451902
    24 1.019165 0.000011 0.000000 -0.035247 0.012955 0.452115
    25 3.799517 0.014957 -0.039958 -0.034038 -0.009280 0.359017
    26 1.774879 0.000004 0.000000 -0.021500 0.010499 0.537856
    27 1.008841 0.000004 0.000000 -0.021512 0.010499 0.537815
    28 3.632765 0.059053 0.757493 -0.300316 -0.158877 0.565763
    29 1.500135 0.000004 0.000000 -0.017246 0.004159 0.533594
    30 0.905668 0.000002 -0.000001 -0.017246 0.004159 0.533556
    31 3.323332 0.233744 1.479075 -0.399082 -0.449085 0.621478
    32 0.963099 0.000010 0.000000 -0.018001 0.008941 0.549273
    33 0.682898 -0.000002 0.000000 -0.017989 0.008941 0.549349
    34 19.918964 2.190162 -8.143549 0.281975 0.206782 -1.775733
    35 -4.968498 -5.448026 -11.292072 -3.289742 0.284195 -1.125185
    36 0.000000 3.992340 0.007782 1.570796 0.000000 -1.570796
    37 21.309244 -14.898892 -0.062502 -1.326373 0.359885 -1.848802
    38 -0.021929 2.029111 -0.137266 -1.570805 0.000001 0.000000
    39 0.007813 0.000000 0.007813 0.000007 0.000000 0.000001
    40 0.002397 -0.669111 0.409449 1.570796 0.000000 0.000000
    41 -0.002402 -6.221447 0.929182 -0.816253 0.000000 0.000000
  time 17
    0 -5.718521 -4.854258 -11.034252 -2.088129 0.053335 -1.150344
    1 10.295578 0.000000 0.000002 0.622003 0.416601 0.080995
    2 19.391605 -0.606798 -9.014669 -0.683839 0.108332 -1.968282
    3 10.295582 0.000001 -0.000006 -0.866203 -0.212635 0.299157
    4 1.149520 0.416502 1.414117 -2.019538 -0.212592 0.859487
    5 1.263885 0.000000 -0.000008 0.010499 -0.004207 0.261076
    6 1.188939 -0.000002 0.000010 0.004290 -0.004350 0.883994
    7 3.773755 0.133215 0.970575 0.064315 0.064033 1.441404
    8 1.433456 0.000000 0.000000 0.082047 -0.025947 1.400638
    9 1.019165 -0.000006 0.000001 0.111253 -0.007179 1.169620
    10 3.799514 0.014957 0.039959 0.061640 0.037479 1.689009
    11 1.774878 0.000000 0.000000 0.019487 -0.092150 1.499632
    12 1.008844 -0.000004 0.000000 0.102193 -0.036193 0.427732
    13 3.632766 0.059052 -0.757493 -0.011599 -0.048840 1.869198
    14 1.500137 0.000002 0.000000 0.117785 -0.032095 0.854928
    15 0.905666 -0.000002 -0.000001 0.110558 -0.051989 1.029632
    16 3.323331 0.233744 -1.479075 0.058982 -0.114638 1.951023
    17 0.963100 0.000011 0.000000 0.060474 0.054818 0.140231
    18 0.682894 -0.000006 -0.000001 0.068049 -0.045158 1.459661
    19 1.149529 0.416498 -1.414117 1.695985 0.643333 0.384411
    20 1.263884 0.000001 0.000000 -0.009336 0.006472 0.475820
    21 1.188946 0.000000 0.000002 -0.011266 0.001906 0.214483
    22 3.773762 0.133217 -0.970574 0.032751 0.177541 0.050162
    23 1.433458 0.000004 0.000000 -0.035235 0.012931 0.451902
    24 1.019165 0.000011 0.000000 -0.035247 0.012955 0.452115
    25 3.799517 0.014957 -0.039958 -0.034038 -0.009280 0.359017
    26 1.774879 0.000004 0.000000 -0.021500 0.010499 0.537856
    27 1.008841 0.000004 0.000000 -0.021512 0.010499 0.537815
    28 3.632765 0.059053 0.757493 -0.300316 -0.158877 0.565763
    29 1.500135 0.000004 0.000000 -0.017246 0.004159 0.533594
    30 0.905668 0.000002 -0.000001 -0.017246 0.004159 0.533556
    31 3.323332 0.233744 1.479075 -0.399082 -0.449085 0.621478
    32 0.963099 0.000010 0.000000 -0.018001 0.008941 0.549273
    33 0.682898 -0.000002 0.000000 -0.017989 0.008941 0.549349
    34 19.391605 -0.606798 -9.014669 0.218036 0.108429 -1.968556
    35 -5.718521 -4.854258 -11.034252 -3.265584 0.053642 -1.150243
    36 0.000000 3.992340 0.007782 1.570796 0.000000 -1.570796
    37 21.188147 -12.086306 0.789087 -1.308647 0.252846 -1.743819
    38 -0.021929 2.029111 -0.137266 -1.570805 0.000001 0.000000
    39 0.019532 0.000000 0.007813 0.000007 0.000000 0.000001
    40 0.002397 -0.669111 0.409449 1.570796 0.000000 0.000000
    41 -0.002402 -6.221447 0.929182 -0.816253 0.000000 0.000000
  time 18
    0 -6.124783 -4.416745 -10.846746 -2.063338 -0.182362 -1.175498
    1 10.295578 0.000000 0.000002 0.440113 0.318944 0.156729
    2 18.668926 -2.954526 -9.620156 -0.699666 0.030940 -2.088454
    3 10.295582 0.000001 -0.000006 -0.851672 -0.183264 0.363431
    4 1.149520 0.416502 1.414117 -2.019538 -0.212592 0.859487
    5 1.263885 0.000000 -0.000008 0.010499 -0.004207 0.261076
    6 1.188939 -0.000002 0.000010 0.004290 -0.004350 0.883994
    7 3.773755 0.133215 0.970575 0.064315 0.064033 1.441404
    8 1.433456 0.000000 0.000000 0.082047 -0.025947 1.400638
    9 1.019165 -0.000006 0.000001 0.111253 -0.007179 1.169620
    10 3.799514 0.014957 0.039959 0.061640 0.037479 1.689009
    11 1.774878 0.000000 0.000000 0.019487 -0.092150 1.499632
    12 1.008844 -0.000004 0.000000 0.102193 -0.036193 0.427732
    13 3.632766 0.059052 -0.757493 -0.011599 -0.048840 1.869198
    14 1.500137 0.000002 0.000000 0.117785 -0.032095 0.854928
    15 0.905666 -0.000002 -0.000001 0.110558 -0.051989 1.029632
    16 3.323331 0.233744 -1.479075 0.058982 -0.114638 1.951023
    17 0.963100 0.000011 0.000000 0.060474 0.054818 0.140231
    18 0.682894 -0.000006 -0.000001 0.068049 -0.045158 1.459661
    19 1.149529 0.416498 -1.414117 1.695985 0.643333 0.384411
    20 1.263884 0.000001 0.000000 -0.009336 0.006472 0.475820
    21 1.188946 0.000000 0.000002 -0.011266 0.001906 0.214483
    22 3.773762 0.133217 -0.970574 0.032751 0.177541 0.050162
    23 1.433458 0.000004 0.000000 -0.035235 0.012931 0.451902
    24 1.019165 0.000011 0.000000 -0.035247 0.012955 0.452115
    25 3.799517 0.014957 -0.039958 -0.034038 -0.009280 0.359017
    26 1.774879 0.000004 0.000000 -0.021500 0.010499 0.537856
    27 1.008841 0.000004 0.000000 -0.021512 0.010499 0.537815
    28 3.632765 0.059053 0.757493 -0.300316 -0.158877 0.565763
    29 1.500135 0.000004 0.000000 -0.017246 0.004159 0.533594
    30 0.905668 0.000002 -0.000001 -0.017246 0.004159 0.533556
    31 3.323332 0.233744 1.479075 -0.399082 -0.449085 0.621478
    32 0.963099 0.000010 0.000000 -0.018001 0.008941 0.549273
    33 0.682898 -0.000002 0.000000 -0.017989 0.008941 0.549349
    34 18.668926 -2.954526 -9.620156 0.190942 0.030991 -2.088661
    35 -6.124783 -4.416745 -10.846746 -3.240994 -0.182180 -1.175588
    36 0.000000 3.992340 0.007782 1.570796 0.000000 -1.570796
    37 20.750633 -9.246376 1.531297 -1.296766 0.152968 -1.636469
    38 -0.021929 2.029111 -0.137266 -1.570805 0.000001 0.000000
    39 0.019532 0.000000 0.007813 0.000007 0.000000 0.000001
    40 0.014116 -0.669111 0.409449 1.570796 0.000000 0.000000
    41 -0.014121 -6.221447 0.929182 -0.816253 0.000000 0.000000
  time 19
    0 -6.269319 -4.287835 -10.721742 -2.046340 -0.342534 -1.206677
    1 10.295578 0.000000 0.000002 0.335017 0.244021 0.207489
    2 18.153286 -4.595201 -9.893602 -0.694616 -0.011439 -2.148326
    3 10.295582 0.000001 -0.000006 -0.844601 -0.155074 0.345647
    4 1.149520 0.416502 1.414117 -2.019538 -0.212592 0.859487
    5 1.263885 0.000000 -0.000008 0.010499 -0.004207 0.261076
    6 1.188939 -0.000002 0.000010 0.004290 -0.004350 0.883994
    7 3.773755 0.133215 0.970575 0.064315 0.064033 1.441404
    8 1.433456 0.000000 0.000000 0.082047 -0.025947 1.400638
    9 1.019165 -0.000006 0.000001 0.111253 -0.007179 1.169620
    10 3.799514 0.014957 0.039959 0.061640 0.037479 1.689009
    11 1.774878 0.000000 0.000000 0.019487 -0.092150 1.499632
    12 1.008844 -0.000004 0.000000 0.102193 -0.036193 0.427732
    13 3.632766 0.059052 -0.757493 -0.011599 -0.048840 1.869198
    14 1.500137 0.000002 0.000000 0.117785 -0.032095 0.854928
    15 0.905666 -0.000002 -0.000001 0.110558 -0.051989 1.029632
    16 3.323331 0.233744 -1.479075 0.058982 -0.114638 1.951023
    17 0.963100 0.000011 0.000000 0.060474 0.054818 0.140231
    18 0.682894 -0.000006 -0.000001 0.068049 -0.045158 1.459661
    19 1.149529 0.416498 -1.414117 1.695985 0.643333 0.384411
    20 1.263884 0.000001 0.000000 -0.009336 0.006472 0.475820
    21 1.188946 0.000000 0.000002 -0.011266 0.001906 0.214483
    22 3.773762 0.133217 -0.970574 0.032751 0.177541 0.050162
    23 1.433458 0.000004 0.000000 -0.035235 0.012931 0.451902
    24 1.019165 0.000011 0.000000 -0.035247 0.012955 0.452115
    25 3.799517 0.014957 -0.039958 -0.034038 -0.009280 0.359017
    26 1.774879 0.000004 0.000000 -0.021500 0.010499 0.537856
    27 1.008841 0.000004 0.000000 -0.021512 0.010499 0.537815
    28 3.632765 0.059053 0.757493 -0.300316 -0.158877 0.565763
    29 1.500135 0.000004 0.000000 -0.017246 0.004159 0.533594
    30 0.905668 0.000002 -0.000001 -0.017246 0.004159 0.533556
    31 3.323332 0.233744 1.479075 -0.399082 -0.449085 0.621478
    32 0.963099 0.000010 0.000000 -0.018001 0.008941 0.549273
    33 0.682898 -0.000002 0.000000 -0.017989 0.008941 0.549349
    34 18.153286 -4.595201 -9.893602 0.186067 -0.011437 -2.148534
    35 -6.269319 -4.287835 -10.721742 -3.223800 -0.342140 -1.206767
    36 0.000000 3.992340 0.007782 1.570796 0.000000 -1.570796
    37 20.375622 -7.336161 2.136784 -1.290826 0.098255 -1.563388
    38 -0.021929 2.029111 -0.137266 -1.570805 0.000001 0.000000
    39 0.019532 0.000000 0.000000 0.000007 0.000000 0.000001
    40 0.014116 -0.669111 0.409449 1.570796 0.000000 0.000000
    41 -0.002402 -6.221447 0.929182 -0.816253 0.000000 0.000000
  time 20
    0 -6.374791 -4.307366 -10.659240 -2.032608 -0.413920 -1.240725
    1 10.295578 0.000000 0.000002 0.321104 0.206220 0.201152
    2 17.664989 -5.931180 -9.995168 -0.683839 -0.037857 -2.189002
    3 10.295582 0.000001 -0.000006 -0.834328 -0.146326 0.263189
    4 1.149520 0.416502 1.414117 -2.019538 -0.212592 0.859487
    5 1.263885 0.000000 -0.000008 0.010499 -0.004207 0.261076
    6 1.188939 -0.000002 0.000010 0.004290 -0.004350 0.883994
    7 3.773755 0.133215 0.970575 0.064315 0.064033 1.441404
    8 1.433456 0.000000 0.000000 0.082047 -0.025947 1.400638
    9 1.019165 -0.000006 0.000001 0.111253 -0.007179 1.169620
    10 3.799514 0.014957 0.039959 0.061640 0.037479 1.689009
    11 1.774878 0.000000 0.000000 0.019487 -0.092150 1.499632
    12 1.008844 -0.000004 0.000000 0.102193 -0.036193 0.427732
    13 3.632766 0.059052 -0.757493 -0.011599 -0.048840 1.869198
    14 1.500137 0.000002 0.000000 0.117785 -0.032095 0.854928
    15 0.905666 -0.000002 -0.000001 0.110558 -0.051989 1.029632
    16 3.323331 0.233744 -1.479075 0.058982 -0.114638 1.951023
    17 0.963100 0.000011 0.000000 0.060474 0.054818 0.140231
    18 0.682894 -0.000006 -0.000001 0.068049 -0.045158 1.459661
    19 1.149529 0.416498 -1.414117 1.695985 0.643333 0.384411
    20 1.263884 0.000001 0.000000 -0.009336 0.006472 0.475820
    21 1.188946 0.000000 0.000002 -0.011266 0.001906 0.214483
    22 3.773762 0.133217 -0.970574 0.032751 0.177541 0.050162
    23 1.433458 0.000004 0.000000 -0.035235 0.012931 0.451902
    24 1.019165 0.000011 0.000000 -0.035247 0.012955 0.452115
    25 3.799517 0.014957 -0.039958 -0.034038 -0.009280 0.359017
    26 1.774879 0.000004 0.000000 -0.021500 0.010499 0.537856
    27 1.008841 0.000004 0.000000 -0.021512 0.010499 0.537815
    28 3.632765 0.059053 0.757493 -0.300316 -0.158877 0.565763
    29 1.500135 0.000004 0.000000 -0.017246 0.004159 0.533594
    30 0.905668 0.000002 -0.000001 -0.017246 0.004159 0.533556
    31 3.323332 0.233744 1.479075 -0.399082 -0.449085 0.621478
    32 0.963099 0.000010 0.000000 -0.018001 0.008941 0.549273
    33 0.682898 -0.000002 0.000000 -0.017989 0.008941 0.549349
    34 17.664989 -5.931180 -9.995168 0.188317 -0.037834 -2.189354
    35 -6.374791 -4.307366 -10.659240 -0.069661 -2.727268 -4.381582
    36 0.000000 3.992340 0.007782 1.570796 0.000000 -1.570796
    37 20.250618 -6.410352 2.609455 -1.293796 0.111050 -1.508293
    38 -0.021929 2.029111 -0.137266 -1.570805 0.000001 0.000000
    39 0.007813 0.000000 0.007813 0.000007 0.000000 0.000001
    40 0.014116 -0.669111 0.409449 1.570796 0.000000 0.000000
    41 -0.002402 -6.221447 0.929182 -0.816253 0.000000 0.000000
  time 21
    0 -6.437292 -4.338617 -10.604551 -2.017317 -0.465461 -1.277738
    1 10.295578 0.000000 0.000002 0.349748 0.187465 0.137312
    2 17.137630 -7.079652 -9.960010 -0.669921 -0.052496 -2.216119
    3 10.295582 0.000001 -0.000006 -0.807297 -0.156980 0.131972
    4 1.149520 0.416502 1.414117 -2.019538 -0.212592 0.859487
    5 1.263885 0.000000 -0.000008 0.010499 -0.004207 0.261076
    6 1.188939 -0.000002 0.000010 0.004290 -0.004350 0.883994
    7 3.773755 0.133215 0.970575 0.064315 0.064033 1.441404
    8 1.433456 0.000000 0.000000 0.082047 -0.025947 1.400638
    9 1.019165 -0.000006 0.000001 0.111253 -0.007179 1.169620
    10 3.799514 0.014957 0.039959 0.061640 0.037479 1.689009
    11 1.774878 0.000000 0.000000 0.019487 -0.092150 1.499632
    12 1.008844 -0.000004 0.000000 0.102193 -0.036193 0.427732
    13 3.632766 0.059052 -0.757493 -0.011599 -0.048840 1.869198
    14 1.500137 0.000002 0.000000 0.117785 -0.032095 0.854928
    15 0.905666 -0.000002 -0.000001 0.110558 -0.051989 1.029632
    16 3.323331 0.233744 -1.479075 0.058982 -0.114638 1.951023
    17 0.963100 0.000011 0.000000 0.060474 0.054818 0.140231
    18 0.682894 -0.000006 -0.000001 0.068049 -0.045158 1.459661
    19 1.149529 0.416498 -1.414117 1.695985 0.643333 0.384411
    20 1.263884 0.000001 0.000000 -0.009336 0.006472 0.475820
    21 1.188946 0.000000 0.000002 -0.011266 0.001906 0.214483
    22 3.773762 0.133217 -0.970574 0.032751 0.177541 0.050162
    23 1.433458 0.000004 0.000000 -0.035235 0.012931 0.451902
    24 1.019165 0.000011 0.000000 -0.035247 0.012955 0.452115
    25 3.799517 0.014957 -0.039958 -0.034038 -0.009280 0.359017
    26 1.774879 0.000004 0.000000 -0.021500 0.010499 0.537856
    27 1.008841 0.000004 0.000000 -0.021512 0.010499 0.537815
    28 3.632765 0.059053 0.757493 -0.300316 -0.158877 0.565763
    29 1.500135 0.000004 0.000000 -0.017246 0.004159 0.533594
    30 0.905668 0.000002 -0.000001 -0.017246 0.004159 0.533556
    31 3.323332 0.233744 1.479075 -0.399082 -0.449085 0.621478
    32 0.963099 0.000010 0.000000 -0.018001 0.008941 0.549273
    33 0.682898 -0.000002 0.000000 -0.017989 0.008941 0.549349
    34 17.137630 -7.079652 -9.960010 0.195161 -0.052472 -2.216329
    35 -6.437292 -4.338617 -10.604551 -0.054069 -2.674778 -4.418691
    36 0.000000 3.992340 0.007782 1.570796 0.000000 -1.570796
    37 20.125614 -5.550951 3.031343 -1.309414 0.168914 -1.414575
    38 -0.021929 2.029111 -0.137266 -1.570805 0.000001 0.000000
    39 0.019532 0.000000 0.007813 0.000007 0.000000 0.000001
    40 0.014116 -0.669111 0.409449 1.570796 0.000000 0.000000
    41 -0.002402 -6.221447 0.929182 -0.816253 0.000000 0.000000
  time 22
    0 -6.468543 -4.369868 -10.588926 -1.998316 -0.506280 -1.316473
    1 10.295578 0.000000 0.000002 0.391691 0.176280 0.048560
    2 16.606363 -8.071870 -9.831100 -0.654833 -0.059445 -2.233103
    3 10.295582 0.000001 -0.000006 -0.755578 -0.177889 -0.017315
    4 1.149520 0.416502 1.414117 -2.019538 -0.212592 0.859487
    5 1.263885 0.000000 -0.000008 0.010499 -0.004207 0.261076
    6 1.188939 -0.000002 0.000010 0.004290 -0.004350 0.883994
    7 3.773755 0.133215 0.970575 0.064315 0.064033 1.441404
    8 1.433456 0.000000 0.000000 0.082047 -0.025947 1.400638
    9 1.019165 -0.000006 0.000001 0.111253 -0.007179 1.169620
    10 3.799514 0.014957 0.039959 0.061640 0.037479 1.689009
    11 1.774878 0.000000 0.000000 0.019487 -0.092150 1.499632
    12 1.008844 -0.000004 0.000000 0.102193 -0.036193 0.427732
    13 3.632766 0.059052 -0.757493 -0.011599 -0.048840 1.869198
    14 1.500137 0.000002 0.000000 0.117785 -0.032095 0.854928
    15 0.905666 -0.000002 -0.000001 0.110558 -0.051989 1.029632
    16 3.323331 0.233744 -1.479075 0.058982 -0.114638 1.951023
    17 0.963100 0.000011 0.000000 0.060474 0.054818 0.140231
    18 0.682894 -0.000006 -0.000001 0.068049 -0.045158 1.459661
    19 1.149529 0.416498 -1.414117 1.695985 0.643333 0.384411
    20 1.263884 0.000001 0.000000 -0.009336 0.006472 0.475820
    21 1.188946 0.000000 0.000002 -0.011266 0.001906 0.214483
    22 3.773762 0.133217 -0.970574 0.032751 0.177541 0.050162
    23 1.433458 0.000004 0.000000 -0.035235 0.012931 0.451902
    24 1.019165 0.000011 0.000000 -0.035247 0.012955 0.452115
    25 3.799517 0.014957 -0.039958 -0.034038 -0.009280 0.359017
    26 1.774879 0.000004 0.000000 -0.021500 0.010499 0.537856
    27 1.008841 0.000004 0.000000 -0.021512 0.010499 0.537815
    28 3.632765 0.059053 0.757493 -0.300316 -0.158877 0.565763
    29 1.500135 0.000004 0.000000 -0.017246 0.004159 0.533594
    30 0.905668 0.000002 -0.000001 -0.017246 0.004159 0.533556
    31 3.323332 0.233744 1.479075 -0.399082 -0.449085 0.621478
    32 0.963099 0.000010 0.000000 -0.018001 0.008941 0.549273
    33 0.682898 -0.000002 0.000000 -0.017989 0.008941 0.549349
    34 16.606363 -8.071870 -9.831100 0.204911 -0.059456 -2.233385
    35 -6.468543 -4.369868 -10.588926 -0.034841 -2.633878 -4.457330
    36 0.000000 3.992340 0.007782 1.570796 0.000000 -1.570796
    37 19.977172 -4.761864 3.406354 -1.327235 0.238714 -1.306184
    38 -0.021929 2.029111 -0.137266 -1.570805 0.000001 0.000000
    39 0.019532 0.000000 0.007813 0.000007 0.000000 0.000001
    40 0.002397 -0.669111 0.409449 1.570796 0.000000 0.000000
    41 -0.002402 -6.221447 0.929182 -0.816253 0.000000 0.000000
  time 23
    0 -6.468543 -4.381587 -10.573300 -1.975380 -0.534778 -1.355590
    1 10.295578 0.000000 0.000002 0.426814 0.168904 -0.041441
    2 16.137599 -8.884395 -9.643595 -0.639437 -0.061091 -2.242594
    3 10.295582 0.000001 -0.000006 -0.675031 -0.203086 -0.163247
    4 1.149520 0.416502 1.414117 -2.019538 -0.212592 0.859487
    5 1.263885 0.000000 -0.000008 0.010499 -0.004207 0.261076
    6 1.188939 -0.000002 0.000010 0.004290 -0.004350 0.883994
    7 3.773755 0.133215 0.970575 0.064315 0.064033 1.441404
    8 1.433456 0.000000 0.000000 0.082047 -0.025947 1.400638
    9 1.019165 -0.000006 0.000001 0.111253 -0.007179 1.169620
    10 3.799514 0.014957 0.039959 0.061640 0.037479 1.689009
    11 1.774878 0.000000 0.000000 0.019487 -0.092150 1.499632
    12 1.008844 -0.000004 0.000000 0.102193 -0.036193 0.427732
    13 3.632766 0.059052 -0.757493 -0.011599 -0.048840 1.869198
    14 1.500137 0.000002 0.000000 0.117785 -0.032095 0.854928
    15 0.905666 -0.000002 -0.000001 0.110558 -0.051989 1.029632
    16 3.323331 0.233744 -1.479075 0.058982 -0.114638 1.951023
    17 0.963100 0.000011 0.000000 0.060474 0.054818 0.140231
    18 0.682894 -0.000006 -0.000001 0.068049 -0.045158 1.459661
    19 1.149529 0.416498 -1.414117 1.695985 0.643333 0.384411
    20 1.263884 0.000001 0.000000 -0.009336 0.006472 0.475820
    21 1.188946 0.000000 0.000002 -0.011266 0.001906 0.214483
    22 3.773762 0.133217 -0.970574 0.032751 0.177541 0.050162
    23 1.433458 0.000004 0.000000 -0.035235 0.012931 0.451902
    24 1.019165 0.000011 0.000000 -0.035247 0.012955 0.452115
    25 3.799517 0.014957 -0.039958 -0.033979 -0.009375 0.355119
    26 1.774879 0.000004 0.000000 -0.021632 0.010487 0.534192
    27 1.008841 0.000004 0.000000 -0.021572 0.010499 0.534151
    28 3.632765 0.059053 0.757493 -0.300316 -0.158877 0.565763
    29 1.500135 0.000004 0.000000 -0.017246 0.004159 0.533518
    30 0.905668 0.000002 -0.000001 -0.017246 0.004159 0.533480
    31 3.323332 0.233744 1.479075 -0.399082 -0.449085 0.621478
    32 0.963099 0.000010 0.000000 -0.018001 0.008941 0.549273
    33 0.682898 -0.000002 0.000000 -0.017989 0.008941 0.549349
    34 16.137599 -8.884395 -9.643595 0.216911 -0.061066 -2.242805
    35 -6.468543 -4.381587 -10.573300 -0.011792 -2.605142 -4.496543
    36 0.000000 3.992340 0.007782 1.570796 0.000000 -1.570796
    37 19.793573 -4.168096 3.742302 -1.339596 0.298106 -1.205366
    38 -0.021929 2.029111 -0.137266 -1.570805 0.000001 0.000000
    39 0.019532 0.000000 0.007813 0.000007 0.000000 0.000001
    40 0.002397 -0.669111 0.409449 1.570796 0.000000 0.000000
    41 -0.002402 -6.221447 0.929182 -0.816253 0.000000 0.000000
  time 24
    0 -6.417761 -4.338617 -10.604551 -1.949104 -0.548322 -1.392125
    1 10.295578 0.000000 0.000002 0.432270 0.164100 -0.108309
    2 15.692273 -9.544571 -9.452182 -0.624965 -0.059463 -2.246162
    3 10.295582 0.000001 -0.000006 -0.566555 -0.227749 -0.282360
    4 1.149520 0.416502 1.414117 -2.019538 -0.212592 0.859487
    5 1.263885 0.000000 -0.000008 0.010499 -0.004207 0.261076
    6 1.188939 -0.000002 0.000010 0.004290 -0.004350 0.883994
    7 3.773755 0.133215 0.970575 0.064315 0.064033 1.441404
    8 1.433456 0.000000 0.000000 0.082047 -0.025947 1.400638
    9 1.019165 -0.000006 0.000001 0.111253 -0.007179 1.169620
    10 3.799514 0.014957 0.039959 0.061640 0.037479 1.689009
    11 1.774878 0.000000 0.000000 0.019487 -0.092150 1.499632
    12 1.008844 -0.000004 0.000000 0.102193 -0.036193 0.427732
    13 3.632766 0.059052 -0.757493 -0.011599 -0.048840 1.869198
    14 1.500137 0.000002 0.000000 0.117785 -0.032095 0.854928
    15 0.905666 -0.000002 -0.000001 0.110558 -0.051989 1.029632
    16 3.323331 0.233744 -1.479075 0.058982 -0.114638 1.951023
    17 0.963100 0.000011 0.000000 0.060474 0.054818 0.140231
    18 0.682894 -0.000006 -0.000001 0.068049 -0.045158 1.459661
    19 1.149529 0.416498 -1.414117 1.695985 0.643333 0.384411
    20 1.263884 0.000001 0.000000 -0.009336 0.006472 0.475820
    21 1.188946 0.000000 0.000002 -0.011266 0.001906 0.214483
    22 3.773762 0.133217 -0.970574 0.032751 0.177541 0.050162
    23 1.433458 0.000004 0.000000 -0.035235 0.012931 0.451902
    24 1.019165 0.000011 0.000000 -0.035247 0.012955 0.452115
    25 3.799517 0.014957 -0.039958 -0.033955 -0.009651 0.342026
    26 1.774879 0.000004 0.000000 -0.021872 0.010355 0.520717
    27 1.008841 0.000004 0.000000 -0.021860 0.010367 0.520676
    28 3.632765 0.059053 0.757493 -0.298914 -0.161214 0.557041
    29 1.500135 0.000004 0.000000 -0.017198 0.004267 0.524443
    30 0.905668 0.000002 -0.000001 -0.017198 0.004243 0.524443
    31 3.323332 0.233744 1.479075 -0.399082 -0.449085 0.621478
    32 0.963099 0.000010 0.000000 -0.018001 0.008941 0.549273
    33 0.682898 -0.000002 0.000000 -0.017989 0.008941 0.549349
    34 15.692273 -9.544571 -9.452182 0.231349 -0.059528 -2.246373
    35 -6.417761 -4.338617 -10.604551 0.014708 -2.592595 -4.533078
    36 0.000000 3.992340 0.007782 1.570796 0.000000 -1.570796
    37 19.684194 -3.879025 4.039186 -1.334709 0.323696 -1.133894
    38 -0.021929 2.029111 -0.137266 -1.570805 0.000001 0.000000
    39 0.019532 0.000000 0.007813 0.000007 0.000000 0.000001
    40 0.014116 -0.669111 0.409449 1.570796 0.000000 0.000000
    41 -0.002402 -6.221447 0.929182 -0.816253 0.000000 0.000000
  time 25
    0 -6.343540 -4.244864 -10.721742 -1.920156 -0.538258 -1.425982
    1 10.295578 0.000000 0.000002 0.389577 0.179798 -0.169402
    2 15.321168 -10.040680 -9.260770 -0.612525 -0.056405 -2.245948
    3 10.295582 0.000001 -0.000006 -0.457884 -0.252184 -0.347530
    4 1.149520 0.416502 1.414117 -2.019538 -0.212592 0.859487
    5 1.263885 0.000000 -0.000008 0.010499 -0.004207 0.261076
    6 1.188939 -0.000002 0.000010 0.004290 -0.004350 0.883994
    7 3.773755 0.133215 0.970575 0.064315 0.064033 1.441404
    8 1.433456 0.000000 0.000000 0.082047 -0.025947 1.400638
    9 1.019165 -0.000006 0.000001 0.111253 -0.007179 1.169620
    10 3.799514 0.014957 0.039959 0.061640 0.037479 1.689009
    11 1.774878 0.000000 0.000000 0.019487 -0.092150 1.499632
    12 1.008844 -0.000004 0.000000 0.102193 -0.036193 0.427732
    13 3.632766 0.059052 -0.757493 -0.011599 -0.048840 1.869198
    14 1.500137 0.000002 0.000000 0.117785 -0.032095 0.854928
    15 0.905666 -0.000002 -0.000001 0.110558 -0.051989 1.029632
    16 3.323331 0.233744 -1.479075 0.058982 -0.114638 1.951023
    17 0.963100 0.000011 0.000000 0.060474 0.054818 0.140231
    18 0.682894 -0.000006 -0.000001 0.068049 -0.045158 1.459661
    19 1.149529 0.416498 -1.414117 1.695985 0.643333 0.384411
    20 1.263884 0.000001 0.000000 -0.009336 0.006472 0.475820
    21 1.188946 0.000000 0.000002 -0.011266 0.001906 0.214483
    22 3.773762 0.133217 -0.970574 0.032751 0.177541 0.050162
    23 1.433458 0.000004 0.000000 -0.035235 0.012931 0.451902
    24 1.019165 0.000011 0.000000 -0.035247 0.012955 0.452115
    25 3.799517 0.014957 -0.039958 -0.033871 -0.010346 0.321337
    26 1.774879 0.000004 0.000000 -0.022112 0.009720 0.499833
    27 1.008841 0.000004 0.000000 -0.022100 0.009720 0.499914
    28 3.632765 0.059053 0.757493 -0.294420 -0.167902 0.530691
    29 1.500135 0.000004 0.000000 -0.017258 0.004902 0.497714
    30 0.905668 0.000002 -0.000001 -0.017258 0.004890 0.497790
    31 3.323332 0.233744 1.479075 -0.399082 -0.449085 0.621478
    32 0.963099 0.000010 0.000000 -0.018001 0.008941 0.549273
    33 0.682898 -0.000002 0.000000 -0.017989 0.008941 0.549349
    34 15.321168 -10.040680 -9.260770 0.283475 -0.056452 -2.246159
    35 -6.343540 -4.244864 -10.721742 0.043920 -2.602844 -4.566266
    36 0.000000 3.992340 0.007782 1.570796 0.000000 -1.570796
    37 19.625599 -3.945433 4.343883 -1.297916 0.305172 -1.074066
    38 -0.021929 2.029111 -0.137266 -1.570805 0.000001 0.000000
    39 0.019532 0.000000 0.007813 0.000007 0.000000 0.000001
    40 0.002397 -0.669111 0.409449 1.570796 0.000000 0.000000
    41 -0.002402 -6.221447 0.929182 -0.816253 0.000000 0.000000
  time 26
    0 -6.238068 -4.104235 -10.854559 -1.893286 -0.513240 -1.454674
    1 10.295578 0.000000 0.000002 0.325537 0.213523 -0.242389
    2 15.043816 -10.384441 -9.088890 -0.602610 -0.053383 -2.244378
    3 10.295582 0.000001 -0.000006 -0.375931 -0.286415 -0.371242
    4 1.149520 0.416502 1.414117 -2.019538 -0.212592 0.859487
    5 1.263885 0.000000 -0.000008 0.010499 -0.004207 0.261076
    6 1.188939 -0.000002 0.000010 0.004290 -0.004350 0.883994
    7 3.773755 0.133215 0.970575 0.064315 0.064033 1.441404
    8 1.433456 0.000000 0.000000 0.082047 -0.025947 1.400638
    9 1.019165 -0.000006 0.000001 0.111253 -0.007179 1.169620
    10 3.799514 0.014957 0.039959 0.061640 0.037479 1.689009
    11 1.774878 0.000000 0.000000 0.019487 -0.092150 1.499632
    12 1.008844 -0.000004 0.000000 0.102193 -0.036193 0.427732
    13 3.632766 0.059052 -0.757493 -0.011599 -0.048840 1.869198
    14 1.500137 0.000002 0.000000 0.117785 -0.032095 0.854928
    15 0.905666 -0.000002 -0.000001 0.110558 -0.051989 1.029632
    16 3.323331 0.233744 -1.479075 0.058982 -0.114638 1.951023
    17 0.963100 0.000011 0.000000 0.060474 0.054818 0.140231
    18 0.682894 -0.000006 -0.000001 0.068049 -0.045158 1.459661
    19 1.149529 0.416498 -1.414117 1.695985 0.643333 0.384411
    20 1.263884 0.000001 0.000000 -0.009336 0.006472 0.475820
    21 1.188946 0.000000 0.000002 -0.011266 0.001906 0.214483
    22 3.773762 0.133217 -0.970574 0.032751 0.177541 0.050162
    23 1.433458 0.000004 0.000000 -0.035235 0.012931 0.451902
    24 1.019165 0.000011 0.000000 -0.035247 0.012955 0.452115
    25 3.799517 0.014957 -0.039958 -0.033631 -0.011053 0.299798
    26 1.774879 0.000004 0.000000 -0.022148 0.009408 0.478542
    27 1.008841 0.000004 0.000000 -0.022160 0.009420 0.478623
    28 3.632765 0.059053 0.757493 -0.288703 -0.175920 0.498601
    29 1.500135 0.000004 0.000000 -0.017150 0.005633 0.464986
    30 0.905668 0.000002 -0.000001 -0.017162 0.005633 0.464986
    31 3.323332 0.233744 1.479075 -0.399082 -0.449085 0.621478
    32 0.963099 0.000010 0.000000 -0.018001 0.008941 0.549273
    33 0.682898 -0.000002 0.000000 -0.017989 0.008941 0.549349
    34 15.043816 -10.384441 -9.088890 0.370570 -0.053340 -2.244446
    35 -6.238068 -4.104235 -10.854559 0.070790 -2.627652 -4.595245
    36 0.000000 3.992340 0.007782 1.570796 0.000000 -1.570796
    37 19.613880 -4.187628 4.640767 -1.244068 0.267837 -1.010830
    38 -0.021929 2.029111 -0.137266 -1.570805 0.000001 0.000000
    39 0.019532 0.000000 0.007813 0.000007 0.000000 0.000001
    40 0.002397 -0.669111 0.409449 1.570796 0.000000 0.000000
    41 -0.014121 -6.221447 0.929182 -0.816253 0.000000 0.000000
  time 27
    0 -6.156034 -3.979231 -10.979563 -1.874507 -0.486811 -1.474663
    1 10.295578 0.000000 0.000002 0.266203 0.246884 -0.304949
    2 14.883654 -10.603197 -8.987324 -0.595959 -0.051248 -2.242808
    3 10.295582 0.000001 -0.000006 -0.323743 -0.322648 -0.374349
    4 1.149520 0.416502 1.414117 -2.019538 -0.212592 0.859487
    5 1.263885 0.000000 -0.000008 0.010499 -0.004207 0.261076
    6 1.188939 -0.000002 0.000010 0.004290 -0.004350 0.883994
    7 3.773755 0.133215 0.970575 0.064315 0.064033 1.441404
    8 1.433456 0.000000 0.000000 0.082047 -0.025947 1.400638
    9 1.019165 -0.000006 0.000001 0.111253 -0.007179 1.169620
    10 3.799514 0.014957 0.039959 0.061640 0.037479 1.689009
    11 1.774878 0.000000 0.000000 0.019487 -0.092150 1.499632
    12 1.008844 -0.000004 0.000000 0.102193 -0.036193 0.427732
    13 3.632766 0.059052 -0.757493 -0.011599 -0.048840 1.869198
    14 1.500137 0.000002 0.000000 0.117785 -0.032095 0.854928
    15 0.905666 -0.000002 -0.000001 0.110558 -0.051989 1.029632
    16 3.323331 0.233744 -1.479075 0.058982 -0.114638 1.951023
    17 0.963100 0.000011 0.000000 0.060474 0.054818 0.140231
    18 0.682894 -0.000006 -0.000001 0.068049 -0.045158 1.459661
    19 1.149529 0.416498 -1.414117 1.695985 0.643333 0.384411
    20 1.263884 0.000001 0.000000 -0.009336 0.006472 0.475820
    21 1.188946 0.000000 0.000002 -0.011266 0.001906 0.214483
    22 3.773762 0.133217 -0.970574 0.032751 0.177541 0.050162
    23 1.433458 0.000004 0.000000 -0.035235 0.012931 0.451902
    24 1.019165 0.000011 0.000000 -0.035247 0.012955 0.452115
    25 3.799517 0.014957 -0.039958 -0.033200 -0.011724 0.283406
    26 1.774879 0.000004 0.000000 -0.022243 0.008929 0.461688
    27 1.008841 0.000004 0.000000 -0.022267 0.008941 0.461769
    28 3.632765 0.059053 0.757493 -0.283526 -0.182883 0.471207
    29 1.500135 0.000004 0.000000 -0.017114 0.006232 0.437269
    30 0.905668 0.000002 -0.000001 -0.017114 0.006136 0.437269
    31 3.323332 0.233744 1.479075 -0.399082 -0.449085 0.621478
    32 0.963099 0.000010 0.000000 -0.018001 0.008941 0.549273
    33 0.682898 -0.000002 0.000000 -0.017989 0.008941 0.549349
    34 14.883654 -10.603197 -8.987324 0.452603 -0.051205 -2.243019
    35 -6.156034 -3.979231 -10.979563 0.089525 -2.653897 -4.615234
    36 0.000000 3.992340 0.007782 1.570796 0.000000 -1.570796
    37 19.606067 -4.461074 4.875149 -1.196256 0.230407 -0.962551
    38 -0.021929 2.029111 -0.137266 -1.570805 0.000001 0.000000
    39 0.019532 0.000000 0.007813 0.000007 0.000000 0.000001
    40 0.002397 -0.669111 0.409449 1.570796 0.000000 0.000000
    41 -0.014121 -6.221447 0.929182 -0.816253 0.000000 0.000000
end
