version 1
nodes
  0 "v_weapon.Bip01_R_Forearm" -1
  1 "v_weapon.Bip01_R_Hand" 0
  2 "v_weapon.Bip01_L_Forearm" -1
  3 "v_weapon.Bip01_L_Hand" 2
  4 "v_weapon.Bip01_R_Finger0" 1
  5 "v_weapon.Bip01_R_Finger01" 4
  6 "v_weapon.Bip01_R_Finger02" 5
  7 "v_weapon.Bip01_R_Finger1" 1
  8 "v_weapon.Bip01_R_Finger11" 7
  9 "v_weapon.Bip01_R_Finger12" 8
  10 "v_weapon.Bip01_R_Finger2" 1
  11 "v_weapon.Bip01_R_Finger21" 10
  12 "v_weapon.Bip01_R_Finger22" 11
  13 "v_weapon.Bip01_R_Finger3" 1
  14 "v_weapon.Bip01_R_Finger31" 13
  15 "v_weapon.Bip01_R_Finger32" 14
  16 "v_weapon.Bip01_R_Finger4" 1
  17 "v_weapon.Bip01_R_Finger41" 16
  18 "v_weapon.Bip01_R_Finger42" 17
  19 "v_weapon.Bip01_L_Finger0" 3
  20 "v_weapon.Bip01_L_Finger01" 19
  21 "v_weapon.Bip01_L_Finger02" 20
  22 "v_weapon.Bip01_L_Finger1" 3
  23 "v_weapon.Bip01_L_Finger11" 22
  24 "v_weapon.Bip01_L_Finger12" 23
  25 "v_weapon.Bip01_L_Finger2" 3
  26 "v_weapon.Bip01_L_Finger21" 25
  27 "v_weapon.Bip01_L_Finger22" 26
  28 "v_weapon.Bip01_L_Finger3" 3
  29 "v_weapon.Bip01_L_Finger31" 28
  30 "v_weapon.Bip01_L_Finger32" 29
  31 "v_weapon.Bip01_L_Finger4" 3
  32 "v_weapon.Bip01_L_Finger41" 31
  33 "v_weapon.Bip01_L_Finger42" 32
  34 "v_weapon.Bip01_L_ForeTwist" -1
  35 "v_weapon.Bip01_R_ForeTwist" -1
  36 "v_weapon" -1
  37 "v_weapon.knife" 36
  38 "v_weapon.front" 37
  39 "v_weapon.blade1" 38
  40 "v_weapon.rear" 39
  41 "v_weapon.lock" 40
end
skeleton
  time 0
    0 -14.099445 9.668668 -0.697999 -1.578642 0.005462 -2.390729
    1 10.295578 0.000000 0.000002 1.563506 0.043612 -0.021680
    2 16.099459 9.668652 -0.698009 -1.562950 0.005462 -0.750866
    3 10.295582 0.000001 -0.000006 -1.563506 -0.043612 -0.021680
    4 1.149520 0.416502 1.414117 -1.407288 -0.320852 0.235478
    5 1.263885 0.000000 -0.000008 0.000000 0.000000 -0.008520
    6 1.188939 -0.000002 0.000010 0.000000 0.000000 -0.008520
    7 3.773755 0.133215 0.970575 -0.009201 -0.142462 0.005942
    8 1.433456 0.000000 0.000000 0.000000 0.000000 0.025279
    9 1.019165 -0.000006 0.000001 0.000000 0.000000 0.025279
    10 3.799514 0.014957 0.039959 0.008703 0.034651 0.022689
    11 1.774878 0.000000 0.000000 0.000000 0.000000 0.025279
    12 1.008844 -0.000004 0.000000 0.000000 0.000000 0.025279
    13 3.632766 0.059052 -0.757493 0.016389 0.163096 0.042929
    14 1.500137 0.000002 0.000000 0.000000 0.000000 0.025279
    15 0.905666 -0.000002 -0.000001 0.000000 0.000000 0.025279
    16 3.323331 0.233744 -1.479075 0.032424 0.324218 0.031462
    17 0.963100 0.000011 0.000000 0.000000 0.000000 0.025279
    18 0.682894 -0.000006 -0.000001 0.000000 0.000000 0.025279
    19 1.149529 0.416498 -1.414117 1.407288 0.320852 0.235478
    20 1.263884 0.000001 0.000000 0.000000 0.000000 0.000000
    21 1.188946 0.000000 0.000002 0.000000 0.000000 -0.008520
    22 3.773762 0.133217 -0.970574 0.009201 0.142462 0.005942
    23 1.433458 0.000004 0.000000 0.000000 0.000000 0.025279
    24 1.019165 0.000011 0.000000 0.000000 0.000000 0.025279
    25 3.799517 0.014957 -0.039958 -0.008703 -0.034651 0.022689
    26 1.774879 0.000004 0.000000 0.000000 0.000000 0.025279
    27 1.008841 0.000004 0.000000 0.000000 0.000000 0.025279
    28 3.632765 0.059053 0.757493 -0.016389 -0.163096 0.042929
    29 1.500135 0.000004 0.000000 0.000000 0.000000 0.025279
    30 0.905668 0.000002 -0.000001 0.000000 0.000000 0.025279
    31 3.323332 0.233744 1.479075 -0.032424 -0.324218 0.031462
    32 0.963099 0.000010 0.000000 0.000000 0.000000 0.025279
    33 0.682898 -0.000002 0.000000 0.000000 0.000000 0.025279
    34 16.099459 9.668652 -0.698009 -1.556120 0.005462 -0.750865
    35 -14.099445 9.668668 -0.697999 -1.585472 0.005462 -2.390729
    36 1.000000 0.000000 1.000000 1.570796 0.000000 0.000000
    37 0.000000 0.000000 0.000000 1.570796 0.000000 0.000000
    38 -0.021929 2.029111 -0.137266 -1.570805 0.000001 0.000000
    39 0.000000 0.000000 0.000000 0.000007 0.000000 0.000001
    40 0.021929 -0.669111 0.409449 1.570796 0.000000 0.000000
    41 -0.021934 -6.213634 0.929182 -1.570796 0.000000 0.000000
end
triangles
GLOVE_handpak.bmp.bmp
  1 -23.214982 3.132223 0.441018 0.006187 0.624489 0.781009 0.063492 0.015873
  1 -22.792850 3.068007 -1.428709 0.516456 0.794291 -0.319961 0.936508 0.000000
  1 -23.471750 3.336505 0.296661 0.114413 0.930451 0.348095 0.111111 0.047619
GLOVE_handpak.bmp.bmp
  1 -23.471750 3.336505 0.296661 0.114413 0.930451 0.348095 0.111111 0.047619
  1 -22.792850 3.068007 -1.428709 0.516456 0.794291 -0.319961 0.936508 0.000000
  1 -23.153361 3.337468 -1.360725 -0.182525 0.838727 -0.513051 0.888889 0.031746
GLOVE_handpak.bmp.bmp
  1 -22.792850 3.068007 -1.428709 0.516456 0.794291 -0.319961 0.936508 0.000000
  1 -25.084992 1.721821 -1.828790 -0.444300 0.402300 -0.800470 0.984127 1.000000
  1 -23.153361 3.337468 -1.360725 -0.182525 0.838727 -0.513051 0.888889 0.031746
GLOVE_handpak.bmp.bmp
  1 -23.153361 3.337468 -1.360725 -0.182525 0.838727 -0.513051 0.888889 0.031746
  1 -25.084992 1.721821 -1.828790 -0.444300 0.402300 -0.800470 0.984127 1.000000
  1 -24.997520 2.069849 -1.670598 -0.771957 0.535743 -0.342143 0.904762 0.888889
GLOVE_handpak.bmp.bmp
  1 -25.084992 1.721821 -1.828790 -0.444300 0.402300 -0.800470 0.984127 1.000000
  1 -25.345393 1.681639 0.347440 -0.888785 0.377096 0.260500 0.000000 0.984127
  1 -24.997520 2.069849 -1.670598 -0.771957 0.535743 -0.342143 0.904762 0.888889
GLOVE_handpak.bmp.bmp
  1 -24.997520 2.069849 -1.670598 -0.771957 0.535743 -0.342143 0.904762 0.888889
  1 -25.345393 1.681639 0.347440 -0.888785 0.377096 0.260500 0.000000 0.984127
  1 -25.235654 2.027517 0.235078 -0.665704 0.646317 0.372979 0.031746 0.873016
GLOVE_handpak.bmp.bmp
  1 -25.345393 1.681639 0.347440 -0.888785 0.377096 0.260500 0.000000 0.984127
  1 -23.214982 3.132223 0.441018 0.006187 0.624489 0.781009 0.063492 0.015873
  1 -25.235654 2.027517 0.235078 -0.665704 0.646317 0.372979 0.031746 0.873016
GLOVE_handpak.bmp.bmp
  1 -25.235654 2.027517 0.235078 -0.665704 0.646317 0.372979 0.031746 0.873016
  1 -23.214982 3.132223 0.441018 0.006187 0.624489 0.781009 0.063492 0.015873
  1 -23.471750 3.336505 0.296661 0.114413 0.930451 0.348095 0.111111 0.047619
GLOVE_handpak.bmp.bmp
  1 -22.833568 2.747748 0.442567 -0.504642 0.809295 -0.300631 0.000000 1.000000
  1 -22.411436 2.683532 -1.427160 -0.874411 0.464846 0.139007 0.000000 1.000000
  1 -22.833568 2.747748 0.442567 -0.837337 0.513297 -0.188128 0.000000 1.000000
GLOVE_handpak.bmp.bmp
  1 -22.833568 2.747748 0.442567 -0.837337 0.513297 -0.188128 0.000000 1.000000
  1 -22.411436 2.683532 -1.427160 -0.874411 0.464846 0.139007 0.000000 1.000000
  1 -22.411436 2.683532 -1.427160 -0.725481 -0.612390 0.314096 0.000000 1.000000
GLOVE_handpak.bmp.bmp
  1 -22.411436 2.683532 -1.427160 -0.874411 0.464846 0.139007 0.000000 1.000000
  1 -24.703578 1.337346 -1.827241 -0.687670 0.526840 0.499549 0.000000 1.000000
  1 -22.411436 2.683532 -1.427160 -0.725481 -0.612390 0.314096 0.000000 1.000000
GLOVE_handpak.bmp.bmp
  1 -22.411436 2.683532 -1.427160 -0.725481 -0.612390 0.314096 0.000000 1.000000
  1 -24.703578 1.337346 -1.827241 -0.687670 0.526840 0.499549 0.000000 1.000000
  1 -24.703578 1.337346 -1.827241 -0.471471 0.863584 -0.178710 0.000000 1.000000
GLOVE_handpak.bmp.bmp
  1 -24.703578 1.337346 -1.827241 -0.687670 0.526840 0.499549 0.000000 1.000000
  1 -24.963979 1.297164 0.348989 -0.422644 0.895049 -0.142335 0.000000 1.000000
  1 -24.703578 1.337346 -1.827241 -0.471471 0.863584 -0.178710 0.000000 1.000000
GLOVE_handpak.bmp.bmp
  1 -24.703578 1.337346 -1.827241 -0.471471 0.863584 -0.178710 0.000000 1.000000
  1 -24.963979 1.297164 0.348989 -0.422644 0.895049 -0.142335 0.000000 1.000000
  1 -24.963979 1.297164 0.348989 -0.270150 0.946476 -0.176643 0.000000 1.000000
GLOVE_handpak.bmp.bmp
  1 -24.963979 1.297164 0.348989 -0.422644 0.895049 -0.142335 0.000000 1.000000
  1 -22.833568 2.747748 0.442567 -0.504642 0.809295 -0.300631 0.000000 1.000000
  1 -24.963979 1.297164 0.348989 -0.270150 0.946476 -0.176643 0.000000 1.000000
GLOVE_handpak.bmp.bmp
  1 -24.963979 1.297164 0.348989 -0.270150 0.946476 -0.176643 0.000000 1.000000
  1 -22.833568 2.747748 0.442567 -0.504642 0.809295 -0.300631 0.000000 1.000000
  1 -22.833568 2.747748 0.442567 -0.837337 0.513297 -0.188128 0.000000 1.000000
GLOVE_handpak.bmp.bmp
  1 -22.833568 2.747748 0.442567 0.311620 0.233716 0.921016 0.000000 1.000000
  1 -22.411436 2.683532 -1.427160 0.762654 0.571993 -0.301965 0.000000 1.000000
  1 -23.065226 3.049588 0.447716 0.446781 0.451389 0.772421 0.000000 1.000000
GLOVE_handpak.bmp.bmp
  1 -23.065226 3.049588 0.447716 0.446781 0.451389 0.772421 0.000000 1.000000
  1 -22.411436 2.683532 -1.427160 0.762654 0.571993 -0.301965 0.000000 1.000000
  1 -22.635714 2.991873 -1.432175 0.465465 0.631688 -0.619929 0.000000 1.000000
GLOVE_handpak.bmp.bmp
  1 -22.411436 2.683532 -1.427160 0.762654 0.571993 -0.301965 0.000000 1.000000
  1 -24.703578 1.337346 -1.827241 -0.253422 -0.190067 -0.948500 0.000000 1.000000
  1 -22.635714 2.991873 -1.432175 0.465465 0.631688 -0.619929 0.000000 1.000000
GLOVE_handpak.bmp.bmp
  1 -22.635714 2.991873 -1.432175 0.465465 0.631688 -0.619929 0.000000 1.000000
  1 -24.703578 1.337346 -1.827241 -0.253422 -0.190067 -0.948500 0.000000 1.000000
  1 -24.934353 1.653288 -1.832111 -0.434455 -0.414863 -0.799461 0.000000 1.000000
GLOVE_handpak.bmp.bmp
  1 -24.703578 1.337346 -1.827241 -0.253422 -0.190067 -0.948500 0.000000 1.000000
  1 -24.963979 1.297164 0.348989 -0.745654 -0.559242 0.362282 0.000000 1.000000
  1 -24.934353 1.653288 -1.832111 -0.434455 -0.414863 -0.799461 0.000000 1.000000
GLOVE_handpak.bmp.bmp
  1 -24.934353 1.653288 -1.832111 -0.434455 -0.414863 -0.799461 0.000000 1.000000
  1 -24.963979 1.297164 0.348989 -0.745654 -0.559242 0.362282 0.000000 1.000000
  1 -25.194753 1.613106 0.344119 -0.431444 -0.601818 0.672065 0.000000 1.000000
GLOVE_handpak.bmp.bmp
  1 -24.963979 1.297164 0.348989 -0.745654 -0.559242 0.362282 0.000000 1.000000
  1 -22.833568 2.747748 0.442567 0.311620 0.233716 0.921016 0.000000 1.000000
  1 -25.194753 1.613106 0.344119 -0.431444 -0.601818 0.672065 0.000000 1.000000
GLOVE_handpak.bmp.bmp
  1 -25.194753 1.613106 0.344119 -0.431444 -0.601818 0.672065 0.000000 1.000000
  1 -22.833568 2.747748 0.442567 0.311620 0.233716 0.921016 0.000000 1.000000
  1 -23.065226 3.049588 0.447716 0.446781 0.451389 0.772421 0.000000 1.000000
GLOVE_handpak.bmp.bmp
  1 -23.065226 3.049588 0.447716 0.446781 0.451389 0.772421 0.000000 1.000000
  1 -22.635714 2.991873 -1.432175 0.465465 0.631688 -0.619929 0.000000 1.000000
  1 -23.214982 3.132223 0.441018 0.386128 0.772429 0.504241 0.000000 1.000000
GLOVE_handpak.bmp.bmp
  1 -23.214982 3.132223 0.441018 0.386128 0.772429 0.504241 0.000000 1.000000
  1 -22.635714 2.991873 -1.432175 0.465465 0.631688 -0.619929 0.000000 1.000000
  1 -22.792850 3.068007 -1.428709 0.259147 0.518411 -0.814919 0.000000 1.000000
GLOVE_handpak.bmp.bmp
  1 -22.635714 2.991873 -1.432175 0.465465 0.631688 -0.619929 0.000000 1.000000
  1 -24.934353 1.653288 -1.832111 -0.434455 -0.414863 -0.799461 0.000000 1.000000
  1 -22.792850 3.068007 -1.428709 0.259147 0.518411 -0.814919 0.000000 1.000000
GLOVE_handpak.bmp.bmp
  1 -22.792850 3.068007 -1.428709 0.259147 0.518411 -0.814919 0.000000 1.000000
  1 -24.934353 1.653288 -1.832111 -0.434455 -0.414863 -0.799461 0.000000 1.000000
  1 -25.084992 1.721821 -1.828790 -0.380424 -0.761018 -0.525481 0.000000 1.000000
GLOVE_handpak.bmp.bmp
  1 -24.934353 1.653288 -1.832111 -0.434455 -0.414863 -0.799461 0.000000 1.000000
  1 -25.194753 1.613106 0.344119 -0.431444 -0.601818 0.672065 0.000000 1.000000
  1 -25.084992 1.721821 -1.828790 -0.380424 -0.761018 -0.525481 0.000000 1.000000
GLOVE_handpak.bmp.bmp
  1 -25.084992 1.721821 -1.828790 -0.380424 -0.761018 -0.525481 0.000000 1.000000
  1 -25.194753 1.613106 0.344119 -0.431444 -0.601818 0.672065 0.000000 1.000000
  1 -25.345393 1.681639 0.347440 -0.219064 -0.438226 0.871762 0.000000 1.000000
GLOVE_handpak.bmp.bmp
  1 -25.194753 1.613106 0.344119 -0.431444 -0.601818 0.672065 0.000000 1.000000
  1 -23.065226 3.049588 0.447716 0.446781 0.451389 0.772421 0.000000 1.000000
  1 -25.345393 1.681639 0.347440 -0.219064 -0.438226 0.871762 0.000000 1.000000
GLOVE_handpak.bmp.bmp
  1 -25.345393 1.681639 0.347440 -0.219064 -0.438226 0.871762 0.000000 1.000000
  1 -23.065226 3.049588 0.447716 0.446781 0.451389 0.772421 0.000000 1.000000
  1 -23.214982 3.132223 0.441018 0.386128 0.772429 0.504241 0.000000 1.000000
GLOVE_handpak.bmp.bmp
  3 25.019464 3.113849 -1.573772 -0.134028 0.697268 -0.704169 0.063492 0.015873
  3 24.905012 2.859537 0.344125 -0.484297 0.736581 0.472128 0.936508 0.000000
  3 25.291782 3.312677 -1.437721 -0.186754 0.954086 -0.234185 0.111111 0.047619
GLOVE_handpak.bmp.bmp
  3 25.291782 3.312677 -1.437721 -0.186754 0.954086 -0.234185 0.111111 0.047619
  3 24.905012 2.859537 0.344125 -0.484297 0.736581 0.472128 0.936508 0.000000
  3 25.238638 3.155023 0.251486 0.244565 0.794116 0.556388 0.888889 0.031746
GLOVE_handpak.bmp.bmp
  3 24.905012 2.859537 0.344125 -0.484297 0.736581 0.472128 0.936508 0.000000
  3 27.250138 1.567594 0.245291 0.563042 0.334035 0.755913 0.984127 1.000000
  3 25.238638 3.155023 0.251486 0.244565 0.794116 0.556388 0.888889 0.031746
GLOVE_handpak.bmp.bmp
  3 25.238638 3.155023 0.251486 0.244565 0.794116 0.556388 0.888889 0.031746
  3 27.250138 1.567594 0.245291 0.563042 0.334035 0.755913 0.984127 1.000000
  3 27.146896 1.921074 0.133073 0.807909 0.527062 0.263605 0.904762 0.888889
GLOVE_handpak.bmp.bmp
  3 27.250138 1.567594 0.245291 0.563042 0.334035 0.755913 0.984127 1.000000
  3 27.171756 1.728415 -1.926918 0.829887 0.425088 -0.361369 0.000000 0.984127
  3 27.146896 1.921074 0.133073 0.807909 0.527062 0.263605 0.904762 0.888889
GLOVE_handpak.bmp.bmp
  3 27.146896 1.921074 0.133073 0.807909 0.527062 0.263605 0.904762 0.888889
  3 27.171756 1.728415 -1.926918 0.829887 0.425088 -0.361369 0.000000 0.984127
  3 27.071292 2.061242 -1.769014 0.586256 0.700432 -0.407060 0.031746 0.873016
GLOVE_handpak.bmp.bmp
  3 27.171756 1.728415 -1.926918 0.829887 0.425088 -0.361369 0.000000 0.984127
  3 25.019464 3.113849 -1.573772 -0.134028 0.697268 -0.704169 0.063492 0.015873
  3 27.071292 2.061242 -1.769014 0.586256 0.700432 -0.407060 0.031746 0.873016
GLOVE_handpak.bmp.bmp
  3 27.071292 2.061242 -1.769014 0.586256 0.700432 -0.407060 0.031746 0.873016
  3 25.019464 3.113849 -1.573772 -0.134028 0.697268 -0.704169 0.063492 0.015873
  3 25.291782 3.312677 -1.437721 -0.186754 0.954086 -0.234185 0.111111 0.047619
GLOVE_handpak.bmp.bmp
  3 24.647179 2.737001 -1.692050 0.222346 -0.213118 -0.951390 0.000000 1.000000
  3 24.532946 2.482692 0.215849 0.600814 0.280549 -0.748542 0.000000 1.000000
  3 24.532946 2.482692 0.215849 0.698496 0.601785 -0.387244 0.000000 1.000000
GLOVE_handpak.bmp.bmp
  3 24.532946 2.482692 0.215849 0.698496 0.601785 -0.387244 0.000000 1.000000
  3 24.532946 2.482692 0.215849 0.600814 0.280549 -0.748542 0.000000 1.000000
  3 26.878072 1.190749 0.117015 -0.115319 0.652922 -0.748595 0.000000 1.000000
GLOVE_handpak.bmp.bmp
  3 24.532946 2.482692 0.215849 0.600814 0.280549 -0.748542 0.000000 1.000000
  3 26.878072 1.190749 0.117015 0.083985 0.851350 -0.517831 0.000000 1.000000
  3 26.878072 1.190749 0.117015 -0.115319 0.652922 -0.748595 0.000000 1.000000
GLOVE_handpak.bmp.bmp
  3 26.878072 1.190749 0.117015 -0.115319 0.652922 -0.748595 0.000000 1.000000
  3 26.878072 1.190749 0.117015 0.083985 0.851350 -0.517831 0.000000 1.000000
  3 26.807290 1.345072 -2.055028 0.196181 0.955761 -0.219168 0.000000 1.000000
GLOVE_handpak.bmp.bmp
  3 26.878072 1.190749 0.117015 0.083985 0.851350 -0.517831 0.000000 1.000000
  3 26.807290 1.345072 -2.055028 0.428059 0.674170 -0.601880 0.000000 1.000000
  3 26.807290 1.345072 -2.055028 0.196181 0.955761 -0.219168 0.000000 1.000000
GLOVE_handpak.bmp.bmp
  3 26.807290 1.345072 -2.055028 0.196181 0.955761 -0.219168 0.000000 1.000000
  3 26.807290 1.345072 -2.055028 0.428059 0.674170 -0.601880 0.000000 1.000000
  3 24.647179 2.737001 -1.692050 0.199647 0.806178 -0.556972 0.000000 1.000000
GLOVE_handpak.bmp.bmp
  3 26.807290 1.345072 -2.055028 0.428059 0.674170 -0.601880 0.000000 1.000000
  3 24.647179 2.737001 -1.692050 0.222346 -0.213118 -0.951390 0.000000 1.000000
  3 24.647179 2.737001 -1.692050 0.199647 0.806178 -0.556972 0.000000 1.000000
GLOVE_handpak.bmp.bmp
  3 24.647179 2.737001 -1.692050 0.199647 0.806178 -0.556972 0.000000 1.000000
  3 24.647179 2.737001 -1.692050 0.222346 -0.213118 -0.951390 0.000000 1.000000
  3 24.532946 2.482692 0.215849 0.698496 0.601785 -0.387244 0.000000 1.000000
GLOVE_handpak.bmp.bmp
  3 24.647179 2.737001 -1.692050 -0.690727 0.610530 -0.387491 0.000000 1.000000
  3 24.532946 2.482692 0.215849 -0.438543 0.067696 0.896157 0.000000 1.000000
  3 24.756354 2.776914 0.300834 -0.592308 0.308308 0.744391 0.000000 1.000000
GLOVE_handpak.bmp.bmp
  3 24.756354 2.776914 0.300834 -0.592308 0.308308 0.744391 0.000000 1.000000
  3 24.532946 2.482692 0.215849 -0.438543 0.067696 0.896157 0.000000 1.000000
  3 27.107976 1.492572 0.202145 0.341782 -0.708368 0.617576 0.000000 1.000000
GLOVE_handpak.bmp.bmp
  3 24.532946 2.482692 0.215849 -0.438543 0.067696 0.896157 0.000000 1.000000
  3 26.878072 1.190749 0.117015 0.697842 -0.611584 0.372802 0.000000 1.000000
  3 27.107976 1.492572 0.202145 0.341782 -0.708368 0.617576 0.000000 1.000000
GLOVE_handpak.bmp.bmp
  3 27.107976 1.492572 0.202145 0.341782 -0.708368 0.617576 0.000000 1.000000
  3 26.878072 1.190749 0.117015 0.697842 -0.611584 0.372802 0.000000 1.000000
  3 27.023098 1.645792 -1.970208 0.574045 -0.265573 -0.774560 0.000000 1.000000
GLOVE_handpak.bmp.bmp
  3 26.878072 1.190749 0.117015 0.697842 -0.611584 0.372802 0.000000 1.000000
  3 26.807290 1.345072 -2.055028 0.384344 -0.020799 -0.922956 0.000000 1.000000
  3 27.023098 1.645792 -1.970208 0.574045 -0.265573 -0.774560 0.000000 1.000000
GLOVE_handpak.bmp.bmp
  3 27.023098 1.645792 -1.970208 0.574045 -0.265573 -0.774560 0.000000 1.000000
  3 26.807290 1.345072 -2.055028 0.384344 -0.020799 -0.922956 0.000000 1.000000
  3 24.877082 3.038825 -1.606920 -0.368076 0.718674 -0.589939 0.000000 1.000000
GLOVE_handpak.bmp.bmp
  3 26.807290 1.345072 -2.055028 0.384344 -0.020799 -0.922956 0.000000 1.000000
  3 24.647179 2.737001 -1.692050 -0.690727 0.610530 -0.387491 0.000000 1.000000
  3 24.877082 3.038825 -1.606920 -0.368076 0.718674 -0.589939 0.000000 1.000000
GLOVE_handpak.bmp.bmp
  3 24.877082 3.038825 -1.606920 -0.368076 0.718674 -0.589939 0.000000 1.000000
  3 24.647179 2.737001 -1.692050 -0.690727 0.610530 -0.387491 0.000000 1.000000
  3 24.756354 2.776914 0.300834 -0.592308 0.308308 0.744391 0.000000 1.000000
GLOVE_handpak.bmp.bmp
  3 24.877082 3.038825 -1.606920 -0.368076 0.718674 -0.589939 0.000000 1.000000
  3 24.756354 2.776914 0.300834 -0.592308 0.308308 0.744391 0.000000 1.000000
  3 24.905012 2.859537 0.344125 -0.493239 0.690020 0.529705 0.000000 1.000000
GLOVE_handpak.bmp.bmp
  3 24.905012 2.859537 0.344125 -0.493239 0.690020 0.529705 0.000000 1.000000
  3 24.756354 2.776914 0.300834 -0.592308 0.308308 0.744391 0.000000 1.000000
  3 27.250138 1.567594 0.245291 0.098379 -0.622067 0.776759 0.000000 1.000000
GLOVE_handpak.bmp.bmp
  3 24.756354 2.776914 0.300834 -0.592308 0.308308 0.744391 0.000000 1.000000
  3 27.107976 1.492572 0.202145 0.341782 -0.708368 0.617576 0.000000 1.000000
  3 27.250138 1.567594 0.245291 0.098379 -0.622067 0.776759 0.000000 1.000000
GLOVE_handpak.bmp.bmp
  3 27.250138 1.567594 0.245291 0.098379 -0.622067 0.776759 0.000000 1.000000
  3 27.107976 1.492572 0.202145 0.341782 -0.708368 0.617576 0.000000 1.000000
  3 27.171756 1.728415 -1.926918 0.492909 -0.687227 -0.533628 0.000000 1.000000
GLOVE_handpak.bmp.bmp
  3 27.107976 1.492572 0.202145 0.341782 -0.708368 0.617576 0.000000 1.000000
  3 27.023098 1.645792 -1.970208 0.574045 -0.265573 -0.774560 0.000000 1.000000
  3 27.171756 1.728415 -1.926918 0.492909 -0.687227 -0.533628 0.000000 1.000000
GLOVE_handpak.bmp.bmp
  3 27.171756 1.728415 -1.926918 0.492909 -0.687227 -0.533628 0.000000 1.000000
  3 27.023098 1.645792 -1.970208 0.574045 -0.265573 -0.774560 0.000000 1.000000
  3 25.019464 3.113849 -1.573772 -0.115319 0.652922 -0.748595 0.000000 1.000000
GLOVE_handpak.bmp.bmp
  3 27.023098 1.645792 -1.970208 0.574045 -0.265573 -0.774560 0.000000 1.000000
  3 24.877082 3.038825 -1.606920 -0.368076 0.718674 -0.589939 0.000000 1.000000
  3 25.019464 3.113849 -1.573772 -0.115319 0.652922 -0.748595 0.000000 1.000000
GLOVE_handpak.bmp.bmp
  3 25.019464 3.113849 -1.573772 -0.115319 0.652922 -0.748595 0.000000 1.000000
  3 24.877082 3.038825 -1.606920 -0.368076 0.718674 -0.589939 0.000000 1.000000
  3 24.905012 2.859537 0.344125 -0.493239 0.690020 0.529705 0.000000 1.000000
GLOVE_handpak.bmp.bmp
  1 -24.997520 2.069849 -1.670598 -0.771957 0.535743 -0.342143 0.904762 0.888889
  1 -25.235654 2.027517 0.235078 -0.665704 0.646317 0.372979 0.031746 0.873016
  1 -23.153361 3.337468 -1.360725 -0.182525 0.838727 -0.513051 0.888889 0.031746
GLOVE_handpak.bmp.bmp
  1 -23.153361 3.337468 -1.360725 -0.182525 0.838727 -0.513051 0.888889 0.031746
  1 -25.235654 2.027517 0.235078 -0.665704 0.646317 0.372979 0.031746 0.873016
  1 -23.471750 3.336505 0.296661 0.114413 0.930451 0.348095 0.111111 0.047619
GLOVE_handpak.bmp.bmp
  3 27.146896 1.921074 0.133073 0.807909 0.527062 0.263605 0.904762 0.888889
  3 27.071292 2.061242 -1.769014 0.586256 0.700432 -0.407060 0.031746 0.873016
  3 25.238638 3.155023 0.251486 0.244565 0.794116 0.556388 0.888889 0.031746
GLOVE_handpak.bmp.bmp
  3 25.238638 3.155023 0.251486 0.244565 0.794116 0.556388 0.888889 0.031746
  3 27.071292 2.061242 -1.769014 0.586256 0.700432 -0.407060 0.031746 0.873016
  3 25.291782 3.312677 -1.437721 -0.186754 0.954086 -0.234185 0.111111 0.047619
GLOVE_handpak.bmp.bmp
  1 -22.411436 2.683532 -1.427160 -0.725481 -0.612390 0.314096 0.000000 1.000000
  1 -22.833568 2.747748 0.442567 0.000000 0.000000 0.000000 0.000000 1.000000
  1 -22.833568 2.747748 0.442567 -0.837337 0.513297 -0.188128 0.000000 1.000000
GLOVE_handpak.bmp.bmp
  1 -22.411436 2.683532 -1.427160 0.000000 0.000000 0.000000 0.000000 1.000000
  1 -22.833568 2.747748 0.442567 0.000000 0.000000 0.000000 0.000000 1.000000
  1 -22.411436 2.683532 -1.427160 -0.725481 -0.612390 0.314096 0.000000 1.000000
GLOVE_handpak.bmp.bmp
  1 -24.703578 1.337346 -1.827241 -0.471471 0.863584 -0.178710 0.000000 1.000000
  1 -22.411436 2.683532 -1.427160 0.000000 0.000000 0.000000 0.000000 1.000000
  1 -22.411436 2.683532 -1.427160 -0.725481 -0.612390 0.314096 0.000000 1.000000
GLOVE_handpak.bmp.bmp
  1 -24.703578 1.337346 -1.827241 0.000000 0.000000 0.000000 0.000000 1.000000
  1 -22.411436 2.683532 -1.427160 0.000000 0.000000 0.000000 0.000000 1.000000
  1 -24.703578 1.337346 -1.827241 -0.471471 0.863584 -0.178710 0.000000 1.000000
GLOVE_handpak.bmp.bmp
  1 -24.963979 1.297164 0.348989 -0.270150 0.946476 -0.176643 0.000000 1.000000
  1 -24.703578 1.337346 -1.827241 0.000000 0.000000 0.000000 0.000000 1.000000
  1 -24.703578 1.337346 -1.827241 -0.471471 0.863584 -0.178710 0.000000 1.000000
GLOVE_handpak.bmp.bmp
  1 -24.963979 1.297164 0.348989 0.000000 0.000000 0.000000 0.000000 1.000000
  1 -24.703578 1.337346 -1.827241 0.000000 0.000000 0.000000 0.000000 1.000000
  1 -24.963979 1.297164 0.348989 -0.270150 0.946476 -0.176643 0.000000 1.000000
GLOVE_handpak.bmp.bmp
  1 -22.833568 2.747748 0.442567 -0.837337 0.513297 -0.188128 0.000000 1.000000
  1 -24.963979 1.297164 0.348989 0.000000 0.000000 0.000000 0.000000 1.000000
  1 -24.963979 1.297164 0.348989 -0.270150 0.946476 -0.176643 0.000000 1.000000
GLOVE_handpak.bmp.bmp
  1 -22.833568 2.747748 0.442567 0.000000 0.000000 0.000000 0.000000 1.000000
  1 -24.963979 1.297164 0.348989 0.000000 0.000000 0.000000 0.000000 1.000000
  1 -22.833568 2.747748 0.442567 -0.837337 0.513297 -0.188128 0.000000 1.000000
GLOVE_handpak.bmp.bmp
  1 -22.411436 2.683532 -1.427160 0.000000 0.000000 0.000000 0.000000 1.000000
  1 -22.833568 2.747748 0.442567 0.000000 0.000000 0.000000 0.000000 1.000000
  1 -22.833568 2.747748 0.442567 0.000000 0.000000 0.000000 0.000000 1.000000
GLOVE_handpak.bmp.bmp
  1 -22.411436 2.683532 -1.427160 0.000000 0.000000 0.000000 0.000000 1.000000
  1 -22.833568 2.747748 0.442567 0.000000 0.000000 0.000000 0.000000 1.000000
  1 -22.411436 2.683532 -1.427160 0.000000 0.000000 0.000000 0.000000 1.000000
GLOVE_handpak.bmp.bmp
  1 -24.703578 1.337346 -1.827241 0.000000 0.000000 0.000000 0.000000 1.000000
  1 -22.411436 2.683532 -1.427160 0.000000 0.000000 0.000000 0.000000 1.000000
  1 -22.411436 2.683532 -1.427160 0.000000 0.000000 0.000000 0.000000 1.000000
GLOVE_handpak.bmp.bmp
  1 -24.703578 1.337346 -1.827241 0.000000 0.000000 0.000000 0.000000 1.000000
  1 -22.411436 2.683532 -1.427160 0.000000 0.000000 0.000000 0.000000 1.000000
  1 -24.703578 1.337346 -1.827241 0.000000 0.000000 0.000000 0.000000 1.000000
GLOVE_handpak.bmp.bmp
  1 -24.963979 1.297164 0.348989 0.000000 0.000000 0.000000 0.000000 1.000000
  1 -24.703578 1.337346 -1.827241 0.000000 0.000000 0.000000 0.000000 1.000000
  1 -24.703578 1.337346 -1.827241 0.000000 0.000000 0.000000 0.000000 1.000000
GLOVE_handpak.bmp.bmp
  1 -24.963979 1.297164 0.348989 0.000000 0.000000 0.000000 0.000000 1.000000
  1 -24.703578 1.337346 -1.827241 0.000000 0.000000 0.000000 0.000000 1.000000
  1 -24.963979 1.297164 0.348989 0.000000 0.000000 0.000000 0.000000 1.000000
GLOVE_handpak.bmp.bmp
  1 -22.833568 2.747748 0.442567 0.000000 0.000000 0.000000 0.000000 1.000000
  1 -24.963979 1.297164 0.348989 0.000000 0.000000 0.000000 0.000000 1.000000
  1 -24.963979 1.297164 0.348989 0.000000 0.000000 0.000000 0.000000 1.000000
GLOVE_handpak.bmp.bmp
  1 -22.833568 2.747748 0.442567 0.000000 0.000000 0.000000 0.000000 1.000000
  1 -24.963979 1.297164 0.348989 0.000000 0.000000 0.000000 0.000000 1.000000
  1 -22.833568 2.747748 0.442567 0.000000 0.000000 0.000000 0.000000 1.000000
GLOVE_handpak.bmp.bmp
  1 -22.411436 2.683532 -1.427160 0.000000 0.000000 0.000000 0.000000 1.000000
  1 -22.833568 2.747748 0.442567 0.000000 0.000000 0.000000 0.000000 1.000000
  1 -22.833568 2.747748 0.442567 0.000000 0.000000 0.000000 0.000000 1.000000
GLOVE_handpak.bmp.bmp
  1 -22.411436 2.683532 -1.427160 0.000000 0.000000 0.000000 0.000000 1.000000
  1 -22.833568 2.747748 0.442567 0.000000 0.000000 0.000000 0.000000 1.000000
  1 -22.411436 2.683532 -1.427160 0.000000 0.000000 0.000000 0.000000 1.000000
GLOVE_handpak.bmp.bmp
  1 -24.703578 1.337346 -1.827241 0.000000 0.000000 0.000000 0.000000 1.000000
  1 -22.411436 2.683532 -1.427160 0.000000 0.000000 0.000000 0.000000 1.000000
  1 -22.411436 2.683532 -1.427160 0.000000 0.000000 0.000000 0.000000 1.000000
GLOVE_handpak.bmp.bmp
  1 -24.703578 1.337346 -1.827241 0.000000 0.000000 0.000000 0.000000 1.000000
  1 -22.411436 2.683532 -1.427160 0.000000 0.000000 0.000000 0.000000 1.000000
  1 -24.703578 1.337346 -1.827241 0.000000 0.000000 0.000000 0.000000 1.000000
GLOVE_handpak.bmp.bmp
  1 -24.963979 1.297164 0.348989 0.000000 0.000000 0.000000 0.000000 1.000000
  1 -24.703578 1.337346 -1.827241 0.000000 0.000000 0.000000 0.000000 1.000000
  1 -24.703578 1.337346 -1.827241 0.000000 0.000000 0.000000 0.000000 1.000000
GLOVE_handpak.bmp.bmp
  1 -24.963979 1.297164 0.348989 0.000000 0.000000 0.000000 0.000000 1.000000
  1 -24.703578 1.337346 -1.827241 0.000000 0.000000 0.000000 0.000000 1.000000
  1 -24.963979 1.297164 0.348989 0.000000 0.000000 0.000000 0.000000 1.000000
GLOVE_handpak.bmp.bmp
  1 -22.833568 2.747748 0.442567 0.000000 0.000000 0.000000 0.000000 1.000000
  1 -24.963979 1.297164 0.348989 0.000000 0.000000 0.000000 0.000000 1.000000
  1 -24.963979 1.297164 0.348989 0.000000 0.000000 0.000000 0.000000 1.000000
GLOVE_handpak.bmp.bmp
  1 -22.833568 2.747748 0.442567 0.000000 0.000000 0.000000 0.000000 1.000000
  1 -24.963979 1.297164 0.348989 0.000000 0.000000 0.000000 0.000000 1.000000
  1 -22.833568 2.747748 0.442567 0.000000 0.000000 0.000000 0.000000 1.000000
GLOVE_handpak.bmp.bmp
  1 -22.411436 2.683532 -1.427160 0.000000 0.000000 0.000000 0.000000 1.000000
  1 -22.833568 2.747748 0.442567 0.000000 0.000000 0.000000 0.000000 1.000000
  1 -22.833568 2.747748 0.442567 0.000000 0.000000 0.000000 0.000000 1.000000
GLOVE_handpak.bmp.bmp
  1 -22.411436 2.683532 -1.427160 0.000000 0.000000 0.000000 0.000000 1.000000
  1 -22.833568 2.747748 0.442567 0.000000 0.000000 0.000000 0.000000 1.000000
  1 -22.411436 2.683532 -1.427160 0.000000 0.000000 0.000000 0.000000 1.000000
GLOVE_handpak.bmp.bmp
  1 -24.703578 1.337346 -1.827241 0.000000 0.000000 0.000000 0.000000 1.000000
  1 -22.411436 2.683532 -1.427160 0.000000 0.000000 0.000000 0.000000 1.000000
  1 -22.411436 2.683532 -1.427160 0.000000 0.000000 0.000000 0.000000 1.000000
GLOVE_handpak.bmp.bmp
  1 -24.703578 1.337346 -1.827241 0.000000 0.000000 0.000000 0.000000 1.000000
  1 -22.411436 2.683532 -1.427160 0.000000 0.000000 0.000000 0.000000 1.000000
  1 -24.703578 1.337346 -1.827241 0.000000 0.000000 0.000000 0.000000 1.000000
GLOVE_handpak.bmp.bmp
  1 -24.963979 1.297164 0.348989 0.000000 0.000000 0.000000 0.000000 1.000000
  1 -24.703578 1.337346 -1.827241 0.000000 0.000000 0.000000 0.000000 1.000000
  1 -24.703578 1.337346 -1.827241 0.000000 0.000000 0.000000 0.000000 1.000000
GLOVE_handpak.bmp.bmp
  1 -24.963979 1.297164 0.348989 0.000000 0.000000 0.000000 0.000000 1.000000
  1 -24.703578 1.337346 -1.827241 0.000000 0.000000 0.000000 0.000000 1.000000
  1 -24.963979 1.297164 0.348989 0.000000 0.000000 0.000000 0.000000 1.000000
GLOVE_handpak.bmp.bmp
  1 -22.833568 2.747748 0.442567 0.000000 0.000000 0.000000 0.000000 1.000000
  1 -24.963979 1.297164 0.348989 0.000000 0.000000 0.000000 0.000000 1.000000
  1 -24.963979 1.297164 0.348989 0.000000 0.000000 0.000000 0.000000 1.000000
GLOVE_handpak.bmp.bmp
  1 -22.833568 2.747748 0.442567 0.000000 0.000000 0.000000 0.000000 1.000000
  1 -24.963979 1.297164 0.348989 0.000000 0.000000 0.000000 0.000000 1.000000
  1 -22.833568 2.747748 0.442567 0.000000 0.000000 0.000000 0.000000 1.000000
GLOVE_handpak.bmp.bmp
  1 -22.411436 2.683532 -1.427160 0.000000 0.000000 0.000000 0.000000 1.000000
  1 -22.833568 2.747748 0.442567 0.000000 0.000000 0.000000 0.000000 1.000000
  1 -22.833568 2.747748 0.442567 0.000000 0.000000 0.000000 0.000000 1.000000
GLOVE_handpak.bmp.bmp
  1 -22.411436 2.683532 -1.427160 0.000000 0.000000 0.000000 0.000000 1.000000
  1 -22.833568 2.747748 0.442567 0.000000 0.000000 0.000000 0.000000 1.000000
  1 -22.411436 2.683532 -1.427160 0.000000 0.000000 0.000000 0.000000 1.000000
GLOVE_handpak.bmp.bmp
  1 -24.703578 1.337346 -1.827241 0.000000 0.000000 0.000000 0.000000 1.000000
  1 -22.411436 2.683532 -1.427160 0.000000 0.000000 0.000000 0.000000 1.000000
  1 -22.411436 2.683532 -1.427160 0.000000 0.000000 0.000000 0.000000 1.000000
GLOVE_handpak.bmp.bmp
  1 -24.703578 1.337346 -1.827241 0.000000 0.000000 0.000000 0.000000 1.000000
  1 -22.411436 2.683532 -1.427160 0.000000 0.000000 0.000000 0.000000 1.000000
  1 -24.703578 1.337346 -1.827241 0.000000 0.000000 0.000000 0.000000 1.000000
GLOVE_handpak.bmp.bmp
  1 -24.963979 1.297164 0.348989 0.000000 0.000000 0.000000 0.000000 1.000000
  1 -24.703578 1.337346 -1.827241 0.000000 0.000000 0.000000 0.000000 1.000000
  1 -24.703578 1.337346 -1.827241 0.000000 0.000000 0.000000 0.000000 1.000000
GLOVE_handpak.bmp.bmp
  1 -24.963979 1.297164 0.348989 0.000000 0.000000 0.000000 0.000000 1.000000
  1 -24.703578 1.337346 -1.827241 0.000000 0.000000 0.000000 0.000000 1.000000
  1 -24.963979 1.297164 0.348989 0.000000 0.000000 0.000000 0.000000 1.000000
GLOVE_handpak.bmp.bmp
  1 -22.833568 2.747748 0.442567 0.000000 0.000000 0.000000 0.000000 1.000000
  1 -24.963979 1.297164 0.348989 0.000000 0.000000 0.000000 0.000000 1.000000
  1 -24.963979 1.297164 0.348989 0.000000 0.000000 0.000000 0.000000 1.000000
GLOVE_handpak.bmp.bmp
  1 -22.833568 2.747748 0.442567 0.000000 0.000000 0.000000 0.000000 1.000000
  1 -24.963979 1.297164 0.348989 0.000000 0.000000 0.000000 0.000000 1.000000
  1 -22.833568 2.747748 0.442567 0.000000 0.000000 0.000000 0.000000 1.000000
GLOVE_handpak.bmp.bmp
  1 -22.411436 2.683532 -1.427160 0.000000 0.000000 0.000000 0.000000 1.000000
  1 -22.833568 2.747748 0.442567 0.000000 0.000000 0.000000 0.000000 1.000000
  1 -22.833568 2.747748 0.442567 0.000000 0.000000 0.000000 0.000000 1.000000
GLOVE_handpak.bmp.bmp
  1 -22.411436 2.683532 -1.427160 0.000000 0.000000 0.000000 0.000000 1.000000
  1 -22.833568 2.747748 0.442567 0.000000 0.000000 0.000000 0.000000 1.000000
  1 -22.411436 2.683532 -1.427160 0.000000 0.000000 0.000000 0.000000 1.000000
GLOVE_handpak.bmp.bmp
  1 -24.703578 1.337346 -1.827241 0.000000 0.000000 0.000000 0.000000 1.000000
  1 -22.411436 2.683532 -1.427160 0.000000 0.000000 0.000000 0.000000 1.000000
  1 -22.411436 2.683532 -1.427160 0.000000 0.000000 0.000000 0.000000 1.000000
GLOVE_handpak.bmp.bmp
  1 -24.703578 1.337346 -1.827241 0.000000 0.000000 0.000000 0.000000 1.000000
  1 -22.411436 2.683532 -1.427160 0.000000 0.000000 0.000000 0.000000 1.000000
  1 -24.703578 1.337346 -1.827241 0.000000 0.000000 0.000000 0.000000 1.000000
GLOVE_handpak.bmp.bmp
  1 -24.963979 1.297164 0.348989 0.000000 0.000000 0.000000 0.000000 1.000000
  1 -24.703578 1.337346 -1.827241 0.000000 0.000000 0.000000 0.000000 1.000000
  1 -24.703578 1.337346 -1.827241 0.000000 0.000000 0.000000 0.000000 1.000000
GLOVE_handpak.bmp.bmp
  1 -24.963979 1.297164 0.348989 0.000000 0.000000 0.000000 0.000000 1.000000
  1 -24.703578 1.337346 -1.827241 0.000000 0.000000 0.000000 0.000000 1.000000
  1 -24.963979 1.297164 0.348989 0.000000 0.000000 0.000000 0.000000 1.000000
GLOVE_handpak.bmp.bmp
  1 -22.833568 2.747748 0.442567 0.000000 0.000000 0.000000 0.000000 1.000000
  1 -24.963979 1.297164 0.348989 0.000000 0.000000 0.000000 0.000000 1.000000
  1 -24.963979 1.297164 0.348989 0.000000 0.000000 0.000000 0.000000 1.000000
GLOVE_handpak.bmp.bmp
  1 -22.833568 2.747748 0.442567 0.000000 0.000000 0.000000 0.000000 1.000000
  1 -24.963979 1.297164 0.348989 0.000000 0.000000 0.000000 0.000000 1.000000
  1 -22.833568 2.747748 0.442567 0.000000 0.000000 0.000000 0.000000 1.000000
GLOVE_handpak.bmp.bmp
  1 -22.411436 2.683532 -1.427160 0.000000 0.000000 0.000000 0.000000 1.000000
  1 -22.833568 2.747748 0.442567 0.000000 0.000000 0.000000 0.000000 1.000000
  1 -22.833568 2.747748 0.442567 0.000000 0.000000 0.000000 0.000000 1.000000
GLOVE_handpak.bmp.bmp
  1 -22.411436 2.683532 -1.427160 0.000000 0.000000 0.000000 0.000000 1.000000
  1 -22.833568 2.747748 0.442567 0.000000 0.000000 0.000000 0.000000 1.000000
  1 -22.411436 2.683532 -1.427160 0.000000 0.000000 0.000000 0.000000 1.000000
GLOVE_handpak.bmp.bmp
  1 -24.703578 1.337346 -1.827241 0.000000 0.000000 0.000000 0.000000 1.000000
  1 -22.411436 2.683532 -1.427160 0.000000 0.000000 0.000000 0.000000 1.000000
  1 -22.411436 2.683532 -1.427160 0.000000 0.000000 0.000000 0.000000 1.000000
GLOVE_handpak.bmp.bmp
  1 -24.703578 1.337346 -1.827241 0.000000 0.000000 0.000000 0.000000 1.000000
  1 -22.411436 2.683532 -1.427160 0.000000 0.000000 0.000000 0.000000 1.000000
  1 -24.703578 1.337346 -1.827241 0.000000 0.000000 0.000000 0.000000 1.000000
GLOVE_handpak.bmp.bmp
  1 -24.963979 1.297164 0.348989 0.000000 0.000000 0.000000 0.000000 1.000000
  1 -24.703578 1.337346 -1.827241 0.000000 0.000000 0.000000 0.000000 1.000000
  1 -24.703578 1.337346 -1.827241 0.000000 0.000000 0.000000 0.000000 1.000000
GLOVE_handpak.bmp.bmp
  1 -24.963979 1.297164 0.348989 0.000000 0.000000 0.000000 0.000000 1.000000
  1 -24.703578 1.337346 -1.827241 0.000000 0.000000 0.000000 0.000000 1.000000
  1 -24.963979 1.297164 0.348989 0.000000 0.000000 0.000000 0.000000 1.000000
GLOVE_handpak.bmp.bmp
  1 -22.833568 2.747748 0.442567 0.000000 0.000000 0.000000 0.000000 1.000000
  1 -24.963979 1.297164 0.348989 0.000000 0.000000 0.000000 0.000000 1.000000
  1 -24.963979 1.297164 0.348989 0.000000 0.000000 0.000000 0.000000 1.000000
GLOVE_handpak.bmp.bmp
  1 -22.833568 2.747748 0.442567 0.000000 0.000000 0.000000 0.000000 1.000000
  1 -24.963979 1.297164 0.348989 0.000000 0.000000 0.000000 0.000000 1.000000
  1 -22.833568 2.747748 0.442567 0.000000 0.000000 0.000000 0.000000 1.000000
GLOVE_handpak.bmp.bmp
  1 -22.411436 2.683532 -1.427160 0.000000 0.000000 0.000000 0.000000 1.000000
  1 -22.833568 2.747748 0.442567 0.000000 0.000000 0.000000 0.000000 1.000000
  1 -22.833568 2.747748 0.442567 0.000000 0.000000 0.000000 0.000000 1.000000
GLOVE_handpak.bmp.bmp
  1 -22.411436 2.683532 -1.427160 0.000000 0.000000 0.000000 0.000000 1.000000
  1 -22.833568 2.747748 0.442567 0.000000 0.000000 0.000000 0.000000 1.000000
  1 -22.411436 2.683532 -1.427160 0.000000 0.000000 0.000000 0.000000 1.000000
GLOVE_handpak.bmp.bmp
  1 -24.703578 1.337346 -1.827241 0.000000 0.000000 0.000000 0.000000 1.000000
  1 -22.411436 2.683532 -1.427160 0.000000 0.000000 0.000000 0.000000 1.000000
  1 -22.411436 2.683532 -1.427160 0.000000 0.000000 0.000000 0.000000 1.000000
GLOVE_handpak.bmp.bmp
  1 -24.703578 1.337346 -1.827241 0.000000 0.000000 0.000000 0.000000 1.000000
  1 -22.411436 2.683532 -1.427160 0.000000 0.000000 0.000000 0.000000 1.000000
  1 -24.703578 1.337346 -1.827241 0.000000 0.000000 0.000000 0.000000 1.000000
GLOVE_handpak.bmp.bmp
  1 -24.963979 1.297164 0.348989 0.000000 0.000000 0.000000 0.000000 1.000000
  1 -24.703578 1.337346 -1.827241 0.000000 0.000000 0.000000 0.000000 1.000000
  1 -24.703578 1.337346 -1.827241 0.000000 0.000000 0.000000 0.000000 1.000000
GLOVE_handpak.bmp.bmp
  1 -24.963979 1.297164 0.348989 0.000000 0.000000 0.000000 0.000000 1.000000
  1 -24.703578 1.337346 -1.827241 0.000000 0.000000 0.000000 0.000000 1.000000
  1 -24.963979 1.297164 0.348989 0.000000 0.000000 0.000000 0.000000 1.000000
GLOVE_handpak.bmp.bmp
  1 -22.833568 2.747748 0.442567 0.000000 0.000000 0.000000 0.000000 1.000000
  1 -24.963979 1.297164 0.348989 0.000000 0.000000 0.000000 0.000000 1.000000
  1 -24.963979 1.297164 0.348989 0.000000 0.000000 0.000000 0.000000 1.000000
GLOVE_handpak.bmp.bmp
  1 -22.833568 2.747748 0.442567 0.000000 0.000000 0.000000 0.000000 1.000000
  1 -24.963979 1.297164 0.348989 0.000000 0.000000 0.000000 0.000000 1.000000
  1 -22.833568 2.747748 0.442567 0.000000 0.000000 0.000000 0.000000 1.000000
GLOVE_handpak.bmp.bmp
  1 -22.411436 2.683532 -1.427160 0.000000 0.000000 0.000000 0.000000 1.000000
  1 -22.833568 2.747748 0.442567 0.000000 0.000000 0.000000 0.000000 1.000000
  1 -22.833568 2.747748 0.442567 0.000000 0.000000 0.000000 0.000000 1.000000
GLOVE_handpak.bmp.bmp
  1 -22.411436 2.683532 -1.427160 0.000000 0.000000 0.000000 0.000000 1.000000
  1 -22.833568 2.747748 0.442567 0.000000 0.000000 0.000000 0.000000 1.000000
  1 -22.411436 2.683532 -1.427160 0.000000 0.000000 0.000000 0.000000 1.000000
GLOVE_handpak.bmp.bmp
  1 -24.703578 1.337346 -1.827241 0.000000 0.000000 0.000000 0.000000 1.000000
  1 -22.411436 2.683532 -1.427160 0.000000 0.000000 0.000000 0.000000 1.000000
  1 -22.411436 2.683532 -1.427160 0.000000 0.000000 0.000000 0.000000 1.000000
GLOVE_handpak.bmp.bmp
  1 -24.703578 1.337346 -1.827241 0.000000 0.000000 0.000000 0.000000 1.000000
  1 -22.411436 2.683532 -1.427160 0.000000 0.000000 0.000000 0.000000 1.000000
  1 -24.703578 1.337346 -1.827241 0.000000 0.000000 0.000000 0.000000 1.000000
GLOVE_handpak.bmp.bmp
  1 -24.963979 1.297164 0.348989 0.000000 0.000000 0.000000 0.000000 1.000000
  1 -24.703578 1.337346 -1.827241 0.000000 0.000000 0.000000 0.000000 1.000000
  1 -24.703578 1.337346 -1.827241 0.000000 0.000000 0.000000 0.000000 1.000000
GLOVE_handpak.bmp.bmp
  1 -24.963979 1.297164 0.348989 0.000000 0.000000 0.000000 0.000000 1.000000
  1 -24.703578 1.337346 -1.827241 0.000000 0.000000 0.000000 0.000000 1.000000
  1 -24.963979 1.297164 0.348989 0.000000 0.000000 0.000000 0.000000 1.000000
GLOVE_handpak.bmp.bmp
  1 -22.833568 2.747748 0.442567 0.000000 0.000000 0.000000 0.000000 1.000000
  1 -24.963979 1.297164 0.348989 0.000000 0.000000 0.000000 0.000000 1.000000
  1 -24.963979 1.297164 0.348989 0.000000 0.000000 0.000000 0.000000 1.000000
GLOVE_handpak.bmp.bmp
  1 -22.833568 2.747748 0.442567 0.000000 0.000000 0.000000 0.000000 1.000000
  1 -24.963979 1.297164 0.348989 0.000000 0.000000 0.000000 0.000000 1.000000
  1 -22.833568 2.747748 0.442567 0.000000 0.000000 0.000000 0.000000 1.000000
GLOVE_handpak.bmp.bmp
  1 -22.411436 2.683532 -1.427160 0.000000 0.000000 0.000000 0.000000 1.000000
  1 -22.833568 2.747748 0.442567 0.000000 0.000000 0.000000 0.000000 1.000000
  1 -22.833568 2.747748 0.442567 0.000000 0.000000 0.000000 0.000000 1.000000
GLOVE_handpak.bmp.bmp
  1 -22.411436 2.683532 -1.427160 0.000000 0.000000 0.000000 0.000000 1.000000
  1 -22.833568 2.747748 0.442567 0.000000 0.000000 0.000000 0.000000 1.000000
  1 -22.411436 2.683532 -1.427160 0.000000 0.000000 0.000000 0.000000 1.000000
GLOVE_handpak.bmp.bmp
  1 -24.703578 1.337346 -1.827241 0.000000 0.000000 0.000000 0.000000 1.000000
  1 -22.411436 2.683532 -1.427160 0.000000 0.000000 0.000000 0.000000 1.000000
  1 -22.411436 2.683532 -1.427160 0.000000 0.000000 0.000000 0.000000 1.000000
GLOVE_handpak.bmp.bmp
  1 -24.703578 1.337346 -1.827241 0.000000 0.000000 0.000000 0.000000 1.000000
  1 -22.411436 2.683532 -1.427160 0.000000 0.000000 0.000000 0.000000 1.000000
  1 -24.703578 1.337346 -1.827241 0.000000 0.000000 0.000000 0.000000 1.000000
GLOVE_handpak.bmp.bmp
  1 -24.963979 1.297164 0.348989 0.000000 0.000000 0.000000 0.000000 1.000000
  1 -24.703578 1.337346 -1.827241 0.000000 0.000000 0.000000 0.000000 1.000000
  1 -24.703578 1.337346 -1.827241 0.000000 0.000000 0.000000 0.000000 1.000000
GLOVE_handpak.bmp.bmp
  1 -24.963979 1.297164 0.348989 0.000000 0.000000 0.000000 0.000000 1.000000
  1 -24.703578 1.337346 -1.827241 0.000000 0.000000 0.000000 0.000000 1.000000
  1 -24.963979 1.297164 0.348989 0.000000 0.000000 0.000000 0.000000 1.000000
GLOVE_handpak.bmp.bmp
  1 -22.833568 2.747748 0.442567 0.000000 0.000000 0.000000 0.000000 1.000000
  1 -24.963979 1.297164 0.348989 0.000000 0.000000 0.000000 0.000000 1.000000
  1 -24.963979 1.297164 0.348989 0.000000 0.000000 0.000000 0.000000 1.000000
GLOVE_handpak.bmp.bmp
  1 -22.833568 2.747748 0.442567 0.000000 0.000000 0.000000 0.000000 1.000000
  1 -24.963979 1.297164 0.348989 0.000000 0.000000 0.000000 0.000000 1.000000
  1 -22.833568 2.747748 0.442567 0.000000 0.000000 0.000000 0.000000 1.000000
GLOVE_handpak.bmp.bmp
  1 -22.411436 2.683532 -1.427160 0.000000 0.000000 0.000000 0.000000 1.000000
  1 -22.833568 2.747748 0.442567 0.000000 0.000000 0.000000 0.000000 1.000000
  1 -22.833568 2.747748 0.442567 0.000000 0.000000 0.000000 0.000000 1.000000
GLOVE_handpak.bmp.bmp
  1 -22.411436 2.683532 -1.427160 0.000000 0.000000 0.000000 0.000000 1.000000
  1 -22.833568 2.747748 0.442567 0.000000 0.000000 0.000000 0.000000 1.000000
  1 -22.411436 2.683532 -1.427160 0.000000 0.000000 0.000000 0.000000 1.000000
GLOVE_handpak.bmp.bmp
  1 -24.703578 1.337346 -1.827241 0.000000 0.000000 0.000000 0.000000 1.000000
  1 -22.411436 2.683532 -1.427160 0.000000 0.000000 0.000000 0.000000 1.000000
  1 -22.411436 2.683532 -1.427160 0.000000 0.000000 0.000000 0.000000 1.000000
GLOVE_handpak.bmp.bmp
  1 -24.703578 1.337346 -1.827241 0.000000 0.000000 0.000000 0.000000 1.000000
  1 -22.411436 2.683532 -1.427160 0.000000 0.000000 0.000000 0.000000 1.000000
  1 -24.703578 1.337346 -1.827241 0.000000 0.000000 0.000000 0.000000 1.000000
GLOVE_handpak.bmp.bmp
  1 -24.963979 1.297164 0.348989 0.000000 0.000000 0.000000 0.000000 1.000000
  1 -24.703578 1.337346 -1.827241 0.000000 0.000000 0.000000 0.000000 1.000000
  1 -24.703578 1.337346 -1.827241 0.000000 0.000000 0.000000 0.000000 1.000000
GLOVE_handpak.bmp.bmp
  1 -24.963979 1.297164 0.348989 0.000000 0.000000 0.000000 0.000000 1.000000
  1 -24.703578 1.337346 -1.827241 0.000000 0.000000 0.000000 0.000000 1.000000
  1 -24.963979 1.297164 0.348989 0.000000 0.000000 0.000000 0.000000 1.000000
GLOVE_handpak.bmp.bmp
  1 -22.833568 2.747748 0.442567 0.000000 0.000000 0.000000 0.000000 1.000000
  1 -24.963979 1.297164 0.348989 0.000000 0.000000 0.000000 0.000000 1.000000
  1 -24.963979 1.297164 0.348989 0.000000 0.000000 0.000000 0.000000 1.000000
GLOVE_handpak.bmp.bmp
  1 -22.833568 2.747748 0.442567 0.000000 0.000000 0.000000 0.000000 1.000000
  1 -24.963979 1.297164 0.348989 0.000000 0.000000 0.000000 0.000000 1.000000
  1 -22.833568 2.747748 0.442567 0.000000 0.000000 0.000000 0.000000 1.000000
GLOVE_handpak.bmp.bmp
  1 -22.411436 2.683532 -1.427160 0.000000 0.000000 0.000000 0.000000 1.000000
  1 -22.833568 2.747748 0.442567 0.000000 0.000000 0.000000 0.000000 1.000000
  1 -22.833568 2.747748 0.442567 0.000000 0.000000 0.000000 0.000000 1.000000
GLOVE_handpak.bmp.bmp
  1 -22.411436 2.683532 -1.427160 0.000000 0.000000 0.000000 0.000000 1.000000
  1 -22.833568 2.747748 0.442567 0.000000 0.000000 0.000000 0.000000 1.000000
  1 -22.411436 2.683532 -1.427160 0.000000 0.000000 0.000000 0.000000 1.000000
GLOVE_handpak.bmp.bmp
  1 -24.703578 1.337346 -1.827241 0.000000 0.000000 0.000000 0.000000 1.000000
  1 -22.411436 2.683532 -1.427160 0.000000 0.000000 0.000000 0.000000 1.000000
  1 -22.411436 2.683532 -1.427160 0.000000 0.000000 0.000000 0.000000 1.000000
GLOVE_handpak.bmp.bmp
  1 -24.703578 1.337346 -1.827241 0.000000 0.000000 0.000000 0.000000 1.000000
  1 -22.411436 2.683532 -1.427160 0.000000 0.000000 0.000000 0.000000 1.000000
  1 -24.703578 1.337346 -1.827241 0.000000 0.000000 0.000000 0.000000 1.000000
GLOVE_handpak.bmp.bmp
  1 -24.963979 1.297164 0.348989 0.000000 0.000000 0.000000 0.000000 1.000000
  1 -24.703578 1.337346 -1.827241 0.000000 0.000000 0.000000 0.000000 1.000000
  1 -24.703578 1.337346 -1.827241 0.000000 0.000000 0.000000 0.000000 1.000000
GLOVE_handpak.bmp.bmp
  1 -24.963979 1.297164 0.348989 0.000000 0.000000 0.000000 0.000000 1.000000
  1 -24.703578 1.337346 -1.827241 0.000000 0.000000 0.000000 0.000000 1.000000
  1 -24.963979 1.297164 0.348989 0.000000 0.000000 0.000000 0.000000 1.000000
GLOVE_handpak.bmp.bmp
  1 -22.833568 2.747748 0.442567 0.000000 0.000000 0.000000 0.000000 1.000000
  1 -24.963979 1.297164 0.348989 0.000000 0.000000 0.000000 0.000000 1.000000
  1 -24.963979 1.297164 0.348989 0.000000 0.000000 0.000000 0.000000 1.000000
GLOVE_handpak.bmp.bmp
  1 -22.833568 2.747748 0.442567 0.000000 0.000000 0.000000 0.000000 1.000000
  1 -24.963979 1.297164 0.348989 0.000000 0.000000 0.000000 0.000000 1.000000
  1 -22.833568 2.747748 0.442567 0.000000 0.000000 0.000000 0.000000 1.000000
GLOVE_handpak.bmp.bmp
  1 -22.411436 2.683532 -1.427160 0.000000 0.000000 0.000000 0.000000 1.000000
  1 -22.833568 2.747748 0.442567 0.000000 0.000000 0.000000 0.000000 1.000000
  1 -22.833568 2.747748 0.442567 0.000000 0.000000 0.000000 0.000000 1.000000
GLOVE_handpak.bmp.bmp
  1 -22.411436 2.683532 -1.427160 0.000000 0.000000 0.000000 0.000000 1.000000
  1 -22.833568 2.747748 0.442567 0.000000 0.000000 0.000000 0.000000 1.000000
  1 -22.411436 2.683532 -1.427160 0.000000 0.000000 0.000000 0.000000 1.000000
GLOVE_handpak.bmp.bmp
  1 -24.703578 1.337346 -1.827241 0.000000 0.000000 0.000000 0.000000 1.000000
  1 -22.411436 2.683532 -1.427160 0.000000 0.000000 0.000000 0.000000 1.000000
  1 -22.411436 2.683532 -1.427160 0.000000 0.000000 0.000000 0.000000 1.000000
GLOVE_handpak.bmp.bmp
  1 -24.703578 1.337346 -1.827241 0.000000 0.000000 0.000000 0.000000 1.000000
  1 -22.411436 2.683532 -1.427160 0.000000 0.000000 0.000000 0.000000 1.000000
  1 -24.703578 1.337346 -1.827241 0.000000 0.000000 0.000000 0.000000 1.000000
GLOVE_handpak.bmp.bmp
  1 -24.963979 1.297164 0.348989 0.000000 0.000000 0.000000 0.000000 1.000000
  1 -24.703578 1.337346 -1.827241 0.000000 0.000000 0.000000 0.000000 1.000000
  1 -24.703578 1.337346 -1.827241 0.000000 0.000000 0.000000 0.000000 1.000000
GLOVE_handpak.bmp.bmp
  1 -24.963979 1.297164 0.348989 0.000000 0.000000 0.000000 0.000000 1.000000
  1 -24.703578 1.337346 -1.827241 0.000000 0.000000 0.000000 0.000000 1.000000
  1 -24.963979 1.297164 0.348989 0.000000 0.000000 0.000000 0.000000 1.000000
GLOVE_handpak.bmp.bmp
  1 -22.833568 2.747748 0.442567 0.000000 0.000000 0.000000 0.000000 1.000000
  1 -24.963979 1.297164 0.348989 0.000000 0.000000 0.000000 0.000000 1.000000
  1 -24.963979 1.297164 0.348989 0.000000 0.000000 0.000000 0.000000 1.000000
GLOVE_handpak.bmp.bmp
  1 -22.833568 2.747748 0.442567 0.000000 0.000000 0.000000 0.000000 1.000000
  1 -24.963979 1.297164 0.348989 0.000000 0.000000 0.000000 0.000000 1.000000
  1 -22.833568 2.747748 0.442567 0.000000 0.000000 0.000000 0.000000 1.000000
GLOVE_handpak.bmp.bmp
  1 -22.411436 2.683532 -1.427160 0.000000 0.000000 0.000000 0.000000 1.000000
  1 -22.833568 2.747748 0.442567 0.311620 0.233716 0.921016 0.000000 1.000000
  1 -22.833568 2.747748 0.442567 0.000000 0.000000 0.000000 0.000000 1.000000
GLOVE_handpak.bmp.bmp
  1 -22.411436 2.683532 -1.427160 0.762654 0.571993 -0.301965 0.000000 1.000000
  1 -22.833568 2.747748 0.442567 0.311620 0.233716 0.921016 0.000000 1.000000
  1 -22.411436 2.683532 -1.427160 0.000000 0.000000 0.000000 0.000000 1.000000
GLOVE_handpak.bmp.bmp
  1 -24.703578 1.337346 -1.827241 0.000000 0.000000 0.000000 0.000000 1.000000
  1 -22.411436 2.683532 -1.427160 0.762654 0.571993 -0.301965 0.000000 1.000000
  1 -22.411436 2.683532 -1.427160 0.000000 0.000000 0.000000 0.000000 1.000000
GLOVE_handpak.bmp.bmp
  1 -24.703578 1.337346 -1.827241 -0.253422 -0.190067 -0.948500 0.000000 1.000000
  1 -22.411436 2.683532 -1.427160 0.762654 0.571993 -0.301965 0.000000 1.000000
  1 -24.703578 1.337346 -1.827241 0.000000 0.000000 0.000000 0.000000 1.000000
GLOVE_handpak.bmp.bmp
  1 -24.963979 1.297164 0.348989 0.000000 0.000000 0.000000 0.000000 1.000000
  1 -24.703578 1.337346 -1.827241 -0.253422 -0.190067 -0.948500 0.000000 1.000000
  1 -24.703578 1.337346 -1.827241 0.000000 0.000000 0.000000 0.000000 1.000000
GLOVE_handpak.bmp.bmp
  1 -24.963979 1.297164 0.348989 -0.745654 -0.559242 0.362282 0.000000 1.000000
  1 -24.703578 1.337346 -1.827241 -0.253422 -0.190067 -0.948500 0.000000 1.000000
  1 -24.963979 1.297164 0.348989 0.000000 0.000000 0.000000 0.000000 1.000000
GLOVE_handpak.bmp.bmp
  1 -22.833568 2.747748 0.442567 0.000000 0.000000 0.000000 0.000000 1.000000
  1 -24.963979 1.297164 0.348989 -0.745654 -0.559242 0.362282 0.000000 1.000000
  1 -24.963979 1.297164 0.348989 0.000000 0.000000 0.000000 0.000000 1.000000
GLOVE_handpak.bmp.bmp
  1 -22.833568 2.747748 0.442567 0.311620 0.233716 0.921016 0.000000 1.000000
  1 -24.963979 1.297164 0.348989 -0.745654 -0.559242 0.362282 0.000000 1.000000
  1 -22.833568 2.747748 0.442567 0.000000 0.000000 0.000000 0.000000 1.000000
GLOVE_handpak.bmp.bmp
  3 24.532946 2.482692 0.215849 0.000000 0.000000 0.000000 0.000000 1.000000
  3 24.647179 2.737001 -1.692050 0.199647 0.806178 -0.556972 0.000000 1.000000
  3 24.532946 2.482692 0.215849 0.698496 0.601785 -0.387244 0.000000 1.000000
GLOVE_handpak.bmp.bmp
  3 24.532946 2.482692 0.215849 0.000000 0.000000 0.000000 0.000000 1.000000
  3 24.647179 2.737001 -1.692050 0.000000 0.000000 0.000000 0.000000 1.000000
  3 24.647179 2.737001 -1.692050 0.199647 0.806178 -0.556972 0.000000 1.000000
GLOVE_handpak.bmp.bmp
  3 24.647179 2.737001 -1.692050 0.000000 0.000000 0.000000 0.000000 1.000000
  3 26.807290 1.345072 -2.055028 0.196181 0.955761 -0.219168 0.000000 1.000000
  3 24.647179 2.737001 -1.692050 0.199647 0.806178 -0.556972 0.000000 1.000000
GLOVE_handpak.bmp.bmp
  3 24.647179 2.737001 -1.692050 0.000000 0.000000 0.000000 0.000000 1.000000
  3 26.807290 1.345072 -2.055028 0.000000 0.000000 0.000000 0.000000 1.000000
  3 26.807290 1.345072 -2.055028 0.196181 0.955761 -0.219168 0.000000 1.000000
GLOVE_handpak.bmp.bmp
  3 26.807290 1.345072 -2.055028 0.000000 0.000000 0.000000 0.000000 1.000000
  3 26.878072 1.190749 0.117015 -0.115319 0.652922 -0.748595 0.000000 1.000000
  3 26.807290 1.345072 -2.055028 0.196181 0.955761 -0.219168 0.000000 1.000000
GLOVE_handpak.bmp.bmp
  3 26.807290 1.345072 -2.055028 0.000000 0.000000 0.000000 0.000000 1.000000
  3 26.878072 1.190749 0.117015 0.000000 0.000000 0.000000 0.000000 1.000000
  3 26.878072 1.190749 0.117015 -0.115319 0.652922 -0.748595 0.000000 1.000000
GLOVE_handpak.bmp.bmp
  3 26.878072 1.190749 0.117015 0.000000 0.000000 0.000000 0.000000 1.000000
  3 24.532946 2.482692 0.215849 0.698496 0.601785 -0.387244 0.000000 1.000000
  3 26.878072 1.190749 0.117015 -0.115319 0.652922 -0.748595 0.000000 1.000000
GLOVE_handpak.bmp.bmp
  3 26.878072 1.190749 0.117015 0.000000 0.000000 0.000000 0.000000 1.000000
  3 24.532946 2.482692 0.215849 0.000000 0.000000 0.000000 0.000000 1.000000
  3 24.532946 2.482692 0.215849 0.698496 0.601785 -0.387244 0.000000 1.000000
GLOVE_handpak.bmp.bmp
  3 24.532946 2.482692 0.215849 0.000000 0.000000 0.000000 0.000000 1.000000
  3 24.647179 2.737001 -1.692050 0.000000 0.000000 0.000000 0.000000 1.000000
  3 24.532946 2.482692 0.215849 0.000000 0.000000 0.000000 0.000000 1.000000
GLOVE_handpak.bmp.bmp
  3 24.532946 2.482692 0.215849 0.000000 0.000000 0.000000 0.000000 1.000000
  3 24.647179 2.737001 -1.692050 0.000000 0.000000 0.000000 0.000000 1.000000
  3 24.647179 2.737001 -1.692050 0.000000 0.000000 0.000000 0.000000 1.000000
GLOVE_handpak.bmp.bmp
  3 24.647179 2.737001 -1.692050 0.000000 0.000000 0.000000 0.000000 1.000000
  3 26.807290 1.345072 -2.055028 0.000000 0.000000 0.000000 0.000000 1.000000
  3 24.647179 2.737001 -1.692050 0.000000 0.000000 0.000000 0.000000 1.000000
GLOVE_handpak.bmp.bmp
  3 24.647179 2.737001 -1.692050 0.000000 0.000000 0.000000 0.000000 1.000000
  3 26.807290 1.345072 -2.055028 0.000000 0.000000 0.000000 0.000000 1.000000
  3 26.807290 1.345072 -2.055028 0.000000 0.000000 0.000000 0.000000 1.000000
GLOVE_handpak.bmp.bmp
  3 26.807290 1.345072 -2.055028 0.000000 0.000000 0.000000 0.000000 1.000000
  3 26.878072 1.190749 0.117015 0.000000 0.000000 0.000000 0.000000 1.000000
  3 26.807290 1.345072 -2.055028 0.000000 0.000000 0.000000 0.000000 1.000000
GLOVE_handpak.bmp.bmp
  3 26.807290 1.345072 -2.055028 0.000000 0.000000 0.000000 0.000000 1.000000
  3 26.878072 1.190749 0.117015 0.000000 0.000000 0.000000 0.000000 1.000000
  3 26.878072 1.190749 0.117015 0.000000 0.000000 0.000000 0.000000 1.000000
GLOVE_handpak.bmp.bmp
  3 26.878072 1.190749 0.117015 0.000000 0.000000 0.000000 0.000000 1.000000
  3 24.532946 2.482692 0.215849 0.000000 0.000000 0.000000 0.000000 1.000000
  3 26.878072 1.190749 0.117015 0.000000 0.000000 0.000000 0.000000 1.000000
GLOVE_handpak.bmp.bmp
  3 26.878072 1.190749 0.117015 0.000000 0.000000 0.000000 0.000000 1.000000
  3 24.532946 2.482692 0.215849 0.000000 0.000000 0.000000 0.000000 1.000000
  3 24.532946 2.482692 0.215849 0.000000 0.000000 0.000000 0.000000 1.000000
GLOVE_handpak.bmp.bmp
  3 24.532946 2.482692 0.215849 0.000000 0.000000 0.000000 0.000000 1.000000
  3 24.647179 2.737001 -1.692050 0.000000 0.000000 0.000000 0.000000 1.000000
  3 24.532946 2.482692 0.215849 0.000000 0.000000 0.000000 0.000000 1.000000
GLOVE_handpak.bmp.bmp
  3 24.532946 2.482692 0.215849 0.000000 0.000000 0.000000 0.000000 1.000000
  3 24.647179 2.737001 -1.692050 0.000000 0.000000 0.000000 0.000000 1.000000
  3 24.647179 2.737001 -1.692050 0.000000 0.000000 0.000000 0.000000 1.000000
GLOVE_handpak.bmp.bmp
  3 24.647179 2.737001 -1.692050 0.000000 0.000000 0.000000 0.000000 1.000000
  3 26.807290 1.345072 -2.055028 0.000000 0.000000 0.000000 0.000000 1.000000
  3 24.647179 2.737001 -1.692050 0.000000 0.000000 0.000000 0.000000 1.000000
GLOVE_handpak.bmp.bmp
  3 24.647179 2.737001 -1.692050 0.000000 0.000000 0.000000 0.000000 1.000000
  3 26.807290 1.345072 -2.055028 0.000000 0.000000 0.000000 0.000000 1.000000
  3 26.807290 1.345072 -2.055028 0.000000 0.000000 0.000000 0.000000 1.000000
GLOVE_handpak.bmp.bmp
  3 26.807290 1.345072 -2.055028 0.000000 0.000000 0.000000 0.000000 1.000000
  3 26.878072 1.190749 0.117015 0.000000 0.000000 0.000000 0.000000 1.000000
  3 26.807290 1.345072 -2.055028 0.000000 0.000000 0.000000 0.000000 1.000000
GLOVE_handpak.bmp.bmp
  3 26.807290 1.345072 -2.055028 0.000000 0.000000 0.000000 0.000000 1.000000
  3 26.878072 1.190749 0.117015 0.000000 0.000000 0.000000 0.000000 1.000000
  3 26.878072 1.190749 0.117015 0.000000 0.000000 0.000000 0.000000 1.000000
GLOVE_handpak.bmp.bmp
  3 26.878072 1.190749 0.117015 0.000000 0.000000 0.000000 0.000000 1.000000
  3 24.532946 2.482692 0.215849 0.000000 0.000000 0.000000 0.000000 1.000000
  3 26.878072 1.190749 0.117015 0.000000 0.000000 0.000000 0.000000 1.000000
GLOVE_handpak.bmp.bmp
  3 26.878072 1.190749 0.117015 0.000000 0.000000 0.000000 0.000000 1.000000
  3 24.532946 2.482692 0.215849 0.000000 0.000000 0.000000 0.000000 1.000000
  3 24.532946 2.482692 0.215849 0.000000 0.000000 0.000000 0.000000 1.000000
GLOVE_handpak.bmp.bmp
  3 24.532946 2.482692 0.215849 0.000000 0.000000 0.000000 0.000000 1.000000
  3 24.647179 2.737001 -1.692050 0.000000 0.000000 0.000000 0.000000 1.000000
  3 24.532946 2.482692 0.215849 0.000000 0.000000 0.000000 0.000000 1.000000
GLOVE_handpak.bmp.bmp
  3 24.532946 2.482692 0.215849 0.000000 0.000000 0.000000 0.000000 1.000000
  3 24.647179 2.737001 -1.692050 0.000000 0.000000 0.000000 0.000000 1.000000
  3 24.647179 2.737001 -1.692050 0.000000 0.000000 0.000000 0.000000 1.000000
GLOVE_handpak.bmp.bmp
  3 24.647179 2.737001 -1.692050 0.000000 0.000000 0.000000 0.000000 1.000000
  3 26.807290 1.345072 -2.055028 0.000000 0.000000 0.000000 0.000000 1.000000
  3 24.647179 2.737001 -1.692050 0.000000 0.000000 0.000000 0.000000 1.000000
GLOVE_handpak.bmp.bmp
  3 24.647179 2.737001 -1.692050 0.000000 0.000000 0.000000 0.000000 1.000000
  3 26.807290 1.345072 -2.055028 0.000000 0.000000 0.000000 0.000000 1.000000
  3 26.807290 1.345072 -2.055028 0.000000 0.000000 0.000000 0.000000 1.000000
GLOVE_handpak.bmp.bmp
  3 26.807290 1.345072 -2.055028 0.000000 0.000000 0.000000 0.000000 1.000000
  3 26.878072 1.190749 0.117015 0.000000 0.000000 0.000000 0.000000 1.000000
  3 26.807290 1.345072 -2.055028 0.000000 0.000000 0.000000 0.000000 1.000000
GLOVE_handpak.bmp.bmp
  3 26.807290 1.345072 -2.055028 0.000000 0.000000 0.000000 0.000000 1.000000
  3 26.878072 1.190749 0.117015 0.000000 0.000000 0.000000 0.000000 1.000000
  3 26.878072 1.190749 0.117015 0.000000 0.000000 0.000000 0.000000 1.000000
GLOVE_handpak.bmp.bmp
  3 26.878072 1.190749 0.117015 0.000000 0.000000 0.000000 0.000000 1.000000
  3 24.532946 2.482692 0.215849 0.000000 0.000000 0.000000 0.000000 1.000000
  3 26.878072 1.190749 0.117015 0.000000 0.000000 0.000000 0.000000 1.000000
GLOVE_handpak.bmp.bmp
  3 26.878072 1.190749 0.117015 0.000000 0.000000 0.000000 0.000000 1.000000
  3 24.532946 2.482692 0.215849 0.000000 0.000000 0.000000 0.000000 1.000000
  3 24.532946 2.482692 0.215849 0.000000 0.000000 0.000000 0.000000 1.000000
GLOVE_handpak.bmp.bmp
  3 24.532946 2.482692 0.215849 0.000000 0.000000 0.000000 0.000000 1.000000
  3 24.647179 2.737001 -1.692050 0.000000 0.000000 0.000000 0.000000 1.000000
  3 24.532946 2.482692 0.215849 0.000000 0.000000 0.000000 0.000000 1.000000
GLOVE_handpak.bmp.bmp
  3 24.532946 2.482692 0.215849 0.000000 0.000000 0.000000 0.000000 1.000000
  3 24.647179 2.737001 -1.692050 0.000000 0.000000 0.000000 0.000000 1.000000
  3 24.647179 2.737001 -1.692050 0.000000 0.000000 0.000000 0.000000 1.000000
GLOVE_handpak.bmp.bmp
  3 24.647179 2.737001 -1.692050 0.000000 0.000000 0.000000 0.000000 1.000000
  3 26.807290 1.345072 -2.055028 0.000000 0.000000 0.000000 0.000000 1.000000
  3 24.647179 2.737001 -1.692050 0.000000 0.000000 0.000000 0.000000 1.000000
GLOVE_handpak.bmp.bmp
  3 24.647179 2.737001 -1.692050 0.000000 0.000000 0.000000 0.000000 1.000000
  3 26.807290 1.345072 -2.055028 0.000000 0.000000 0.000000 0.000000 1.000000
  3 26.807290 1.345072 -2.055028 0.000000 0.000000 0.000000 0.000000 1.000000
GLOVE_handpak.bmp.bmp
  3 26.807290 1.345072 -2.055028 0.000000 0.000000 0.000000 0.000000 1.000000
  3 26.878072 1.190749 0.117015 0.000000 0.000000 0.000000 0.000000 1.000000
  3 26.807290 1.345072 -2.055028 0.000000 0.000000 0.000000 0.000000 1.000000
GLOVE_handpak.bmp.bmp
  3 26.807290 1.345072 -2.055028 0.000000 0.000000 0.000000 0.000000 1.000000
  3 26.878072 1.190749 0.117015 0.000000 0.000000 0.000000 0.000000 1.000000
  3 26.878072 1.190749 0.117015 0.000000 0.000000 0.000000 0.000000 1.000000
GLOVE_handpak.bmp.bmp
  3 26.878072 1.190749 0.117015 0.000000 0.000000 0.000000 0.000000 1.000000
  3 24.532946 2.482692 0.215849 0.000000 0.000000 0.000000 0.000000 1.000000
  3 26.878072 1.190749 0.117015 0.000000 0.000000 0.000000 0.000000 1.000000
GLOVE_handpak.bmp.bmp
  3 26.878072 1.190749 0.117015 0.000000 0.000000 0.000000 0.000000 1.000000
  3 24.532946 2.482692 0.215849 0.000000 0.000000 0.000000 0.000000 1.000000
  3 24.532946 2.482692 0.215849 0.000000 0.000000 0.000000 0.000000 1.000000
GLOVE_handpak.bmp.bmp
  3 24.532946 2.482692 0.215849 0.000000 0.000000 0.000000 0.000000 1.000000
  3 24.647179 2.737001 -1.692050 0.000000 0.000000 0.000000 0.000000 1.000000
  3 24.532946 2.482692 0.215849 0.000000 0.000000 0.000000 0.000000 1.000000
GLOVE_handpak.bmp.bmp
  3 24.532946 2.482692 0.215849 0.000000 0.000000 0.000000 0.000000 1.000000
  3 24.647179 2.737001 -1.692050 0.000000 0.000000 0.000000 0.000000 1.000000
  3 24.647179 2.737001 -1.692050 0.000000 0.000000 0.000000 0.000000 1.000000
GLOVE_handpak.bmp.bmp
  3 24.647179 2.737001 -1.692050 0.000000 0.000000 0.000000 0.000000 1.000000
  3 26.807290 1.345072 -2.055028 0.000000 0.000000 0.000000 0.000000 1.000000
  3 24.647179 2.737001 -1.692050 0.000000 0.000000 0.000000 0.000000 1.000000
GLOVE_handpak.bmp.bmp
  3 24.647179 2.737001 -1.692050 0.000000 0.000000 0.000000 0.000000 1.000000
  3 26.807290 1.345072 -2.055028 0.000000 0.000000 0.000000 0.000000 1.000000
  3 26.807290 1.345072 -2.055028 0.000000 0.000000 0.000000 0.000000 1.000000
GLOVE_handpak.bmp.bmp
  3 26.807290 1.345072 -2.055028 0.000000 0.000000 0.000000 0.000000 1.000000
  3 26.878072 1.190749 0.117015 0.000000 0.000000 0.000000 0.000000 1.000000
  3 26.807290 1.345072 -2.055028 0.000000 0.000000 0.000000 0.000000 1.000000
GLOVE_handpak.bmp.bmp
  3 26.807290 1.345072 -2.055028 0.000000 0.000000 0.000000 0.000000 1.000000
  3 26.878072 1.190749 0.117015 0.000000 0.000000 0.000000 0.000000 1.000000
  3 26.878072 1.190749 0.117015 0.000000 0.000000 0.000000 0.000000 1.000000
GLOVE_handpak.bmp.bmp
  3 26.878072 1.190749 0.117015 0.000000 0.000000 0.000000 0.000000 1.000000
  3 24.532946 2.482692 0.215849 0.000000 0.000000 0.000000 0.000000 1.000000
  3 26.878072 1.190749 0.117015 0.000000 0.000000 0.000000 0.000000 1.000000
GLOVE_handpak.bmp.bmp
  3 26.878072 1.190749 0.117015 0.000000 0.000000 0.000000 0.000000 1.000000
  3 24.532946 2.482692 0.215849 0.000000 0.000000 0.000000 0.000000 1.000000
  3 24.532946 2.482692 0.215849 0.000000 0.000000 0.000000 0.000000 1.000000
GLOVE_handpak.bmp.bmp
  3 24.532946 2.482692 0.215849 0.000000 0.000000 0.000000 0.000000 1.000000
  3 24.647179 2.737001 -1.692050 0.000000 0.000000 0.000000 0.000000 1.000000
  3 24.532946 2.482692 0.215849 0.000000 0.000000 0.000000 0.000000 1.000000
GLOVE_handpak.bmp.bmp
  3 24.532946 2.482692 0.215849 0.000000 0.000000 0.000000 0.000000 1.000000
  3 24.647179 2.737001 -1.692050 0.000000 0.000000 0.000000 0.000000 1.000000
  3 24.647179 2.737001 -1.692050 0.000000 0.000000 0.000000 0.000000 1.000000
GLOVE_handpak.bmp.bmp
  3 24.647179 2.737001 -1.692050 0.000000 0.000000 0.000000 0.000000 1.000000
  3 26.807290 1.345072 -2.055028 0.000000 0.000000 0.000000 0.000000 1.000000
  3 24.647179 2.737001 -1.692050 0.000000 0.000000 0.000000 0.000000 1.000000
GLOVE_handpak.bmp.bmp
  3 24.647179 2.737001 -1.692050 0.000000 0.000000 0.000000 0.000000 1.000000
  3 26.807290 1.345072 -2.055028 0.000000 0.000000 0.000000 0.000000 1.000000
  3 26.807290 1.345072 -2.055028 0.000000 0.000000 0.000000 0.000000 1.000000
GLOVE_handpak.bmp.bmp
  3 26.807290 1.345072 -2.055028 0.000000 0.000000 0.000000 0.000000 1.000000
  3 26.878072 1.190749 0.117015 0.000000 0.000000 0.000000 0.000000 1.000000
  3 26.807290 1.345072 -2.055028 0.000000 0.000000 0.000000 0.000000 1.000000
GLOVE_handpak.bmp.bmp
  3 26.807290 1.345072 -2.055028 0.000000 0.000000 0.000000 0.000000 1.000000
  3 26.878072 1.190749 0.117015 0.000000 0.000000 0.000000 0.000000 1.000000
  3 26.878072 1.190749 0.117015 0.000000 0.000000 0.000000 0.000000 1.000000
GLOVE_handpak.bmp.bmp
  3 26.878072 1.190749 0.117015 0.000000 0.000000 0.000000 0.000000 1.000000
  3 24.532946 2.482692 0.215849 0.000000 0.000000 0.000000 0.000000 1.000000
  3 26.878072 1.190749 0.117015 0.000000 0.000000 0.000000 0.000000 1.000000
GLOVE_handpak.bmp.bmp
  3 26.878072 1.190749 0.117015 0.000000 0.000000 0.000000 0.000000 1.000000
  3 24.532946 2.482692 0.215849 0.000000 0.000000 0.000000 0.000000 1.000000
  3 24.532946 2.482692 0.215849 0.000000 0.000000 0.000000 0.000000 1.000000
GLOVE_handpak.bmp.bmp
  3 24.532946 2.482692 0.215849 0.000000 0.000000 0.000000 0.000000 1.000000
  3 24.647179 2.737001 -1.692050 0.000000 0.000000 0.000000 0.000000 1.000000
  3 24.532946 2.482692 0.215849 0.000000 0.000000 0.000000 0.000000 1.000000
GLOVE_handpak.bmp.bmp
  3 24.532946 2.482692 0.215849 0.000000 0.000000 0.000000 0.000000 1.000000
  3 24.647179 2.737001 -1.692050 0.000000 0.000000 0.000000 0.000000 1.000000
  3 24.647179 2.737001 -1.692050 0.000000 0.000000 0.000000 0.000000 1.000000
GLOVE_handpak.bmp.bmp
  3 24.647179 2.737001 -1.692050 0.000000 0.000000 0.000000 0.000000 1.000000
  3 26.807290 1.345072 -2.055028 0.000000 0.000000 0.000000 0.000000 1.000000
  3 24.647179 2.737001 -1.692050 0.000000 0.000000 0.000000 0.000000 1.000000
GLOVE_handpak.bmp.bmp
  3 24.647179 2.737001 -1.692050 0.000000 0.000000 0.000000 0.000000 1.000000
  3 26.807290 1.345072 -2.055028 0.000000 0.000000 0.000000 0.000000 1.000000
  3 26.807290 1.345072 -2.055028 0.000000 0.000000 0.000000 0.000000 1.000000
GLOVE_handpak.bmp.bmp
  3 26.807290 1.345072 -2.055028 0.000000 0.000000 0.000000 0.000000 1.000000
  3 26.878072 1.190749 0.117015 0.000000 0.000000 0.000000 0.000000 1.000000
  3 26.807290 1.345072 -2.055028 0.000000 0.000000 0.000000 0.000000 1.000000
GLOVE_handpak.bmp.bmp
  3 26.807290 1.345072 -2.055028 0.000000 0.000000 0.000000 0.000000 1.000000
  3 26.878072 1.190749 0.117015 0.000000 0.000000 0.000000 0.000000 1.000000
  3 26.878072 1.190749 0.117015 0.000000 0.000000 0.000000 0.000000 1.000000
GLOVE_handpak.bmp.bmp
  3 26.878072 1.190749 0.117015 0.000000 0.000000 0.000000 0.000000 1.000000
  3 24.532946 2.482692 0.215849 0.000000 0.000000 0.000000 0.000000 1.000000
  3 26.878072 1.190749 0.117015 0.000000 0.000000 0.000000 0.000000 1.000000
GLOVE_handpak.bmp.bmp
  3 26.878072 1.190749 0.117015 0.000000 0.000000 0.000000 0.000000 1.000000
  3 24.532946 2.482692 0.215849 0.000000 0.000000 0.000000 0.000000 1.000000
  3 24.532946 2.482692 0.215849 0.000000 0.000000 0.000000 0.000000 1.000000
GLOVE_handpak.bmp.bmp
  3 24.532946 2.482692 0.215849 0.000000 0.000000 0.000000 0.000000 1.000000
  3 24.647179 2.737001 -1.692050 0.000000 0.000000 0.000000 0.000000 1.000000
  3 24.532946 2.482692 0.215849 0.000000 0.000000 0.000000 0.000000 1.000000
GLOVE_handpak.bmp.bmp
  3 24.532946 2.482692 0.215849 0.000000 0.000000 0.000000 0.000000 1.000000
  3 24.647179 2.737001 -1.692050 0.000000 0.000000 0.000000 0.000000 1.000000
  3 24.647179 2.737001 -1.692050 0.000000 0.000000 0.000000 0.000000 1.000000
GLOVE_handpak.bmp.bmp
  3 24.647179 2.737001 -1.692050 0.000000 0.000000 0.000000 0.000000 1.000000
  3 26.807290 1.345072 -2.055028 0.000000 0.000000 0.000000 0.000000 1.000000
  3 24.647179 2.737001 -1.692050 0.000000 0.000000 0.000000 0.000000 1.000000
GLOVE_handpak.bmp.bmp
  3 24.647179 2.737001 -1.692050 0.000000 0.000000 0.000000 0.000000 1.000000
  3 26.807290 1.345072 -2.055028 0.000000 0.000000 0.000000 0.000000 1.000000
  3 26.807290 1.345072 -2.055028 0.000000 0.000000 0.000000 0.000000 1.000000
GLOVE_handpak.bmp.bmp
  3 26.807290 1.345072 -2.055028 0.000000 0.000000 0.000000 0.000000 1.000000
  3 26.878072 1.190749 0.117015 0.000000 0.000000 0.000000 0.000000 1.000000
  3 26.807290 1.345072 -2.055028 0.000000 0.000000 0.000000 0.000000 1.000000
GLOVE_handpak.bmp.bmp
  3 26.807290 1.345072 -2.055028 0.000000 0.000000 0.000000 0.000000 1.000000
  3 26.878072 1.190749 0.117015 0.000000 0.000000 0.000000 0.000000 1.000000
  3 26.878072 1.190749 0.117015 0.000000 0.000000 0.000000 0.000000 1.000000
GLOVE_handpak.bmp.bmp
  3 26.878072 1.190749 0.117015 0.000000 0.000000 0.000000 0.000000 1.000000
  3 24.532946 2.482692 0.215849 0.000000 0.000000 0.000000 0.000000 1.000000
  3 26.878072 1.190749 0.117015 0.000000 0.000000 0.000000 0.000000 1.000000
GLOVE_handpak.bmp.bmp
  3 26.878072 1.190749 0.117015 0.000000 0.000000 0.000000 0.000000 1.000000
  3 24.532946 2.482692 0.215849 0.000000 0.000000 0.000000 0.000000 1.000000
  3 24.532946 2.482692 0.215849 0.000000 0.000000 0.000000 0.000000 1.000000
GLOVE_handpak.bmp.bmp
  3 24.532946 2.482692 0.215849 0.000000 0.000000 0.000000 0.000000 1.000000
  3 24.647179 2.737001 -1.692050 0.000000 0.000000 0.000000 0.000000 1.000000
  3 24.532946 2.482692 0.215849 0.000000 0.000000 0.000000 0.000000 1.000000
GLOVE_handpak.bmp.bmp
  3 24.532946 2.482692 0.215849 0.000000 0.000000 0.000000 0.000000 1.000000
  3 24.647179 2.737001 -1.692050 0.000000 0.000000 0.000000 0.000000 1.000000
  3 24.647179 2.737001 -1.692050 0.000000 0.000000 0.000000 0.000000 1.000000
GLOVE_handpak.bmp.bmp
  3 24.647179 2.737001 -1.692050 0.000000 0.000000 0.000000 0.000000 1.000000
  3 26.807290 1.345072 -2.055028 0.000000 0.000000 0.000000 0.000000 1.000000
  3 24.647179 2.737001 -1.692050 0.000000 0.000000 0.000000 0.000000 1.000000
GLOVE_handpak.bmp.bmp
  3 24.647179 2.737001 -1.692050 0.000000 0.000000 0.000000 0.000000 1.000000
  3 26.807290 1.345072 -2.055028 0.000000 0.000000 0.000000 0.000000 1.000000
  3 26.807290 1.345072 -2.055028 0.000000 0.000000 0.000000 0.000000 1.000000
GLOVE_handpak.bmp.bmp
  3 26.807290 1.345072 -2.055028 0.000000 0.000000 0.000000 0.000000 1.000000
  3 26.878072 1.190749 0.117015 0.000000 0.000000 0.000000 0.000000 1.000000
  3 26.807290 1.345072 -2.055028 0.000000 0.000000 0.000000 0.000000 1.000000
GLOVE_handpak.bmp.bmp
  3 26.807290 1.345072 -2.055028 0.000000 0.000000 0.000000 0.000000 1.000000
  3 26.878072 1.190749 0.117015 0.000000 0.000000 0.000000 0.000000 1.000000
  3 26.878072 1.190749 0.117015 0.000000 0.000000 0.000000 0.000000 1.000000
GLOVE_handpak.bmp.bmp
  3 26.878072 1.190749 0.117015 0.000000 0.000000 0.000000 0.000000 1.000000
  3 24.532946 2.482692 0.215849 0.000000 0.000000 0.000000 0.000000 1.000000
  3 26.878072 1.190749 0.117015 0.000000 0.000000 0.000000 0.000000 1.000000
GLOVE_handpak.bmp.bmp
  3 26.878072 1.190749 0.117015 0.000000 0.000000 0.000000 0.000000 1.000000
  3 24.532946 2.482692 0.215849 0.000000 0.000000 0.000000 0.000000 1.000000
  3 24.532946 2.482692 0.215849 0.000000 0.000000 0.000000 0.000000 1.000000
GLOVE_handpak.bmp.bmp
  3 24.532946 2.482692 0.215849 0.000000 0.000000 0.000000 0.000000 1.000000
  3 24.647179 2.737001 -1.692050 0.000000 0.000000 0.000000 0.000000 1.000000
  3 24.532946 2.482692 0.215849 0.000000 0.000000 0.000000 0.000000 1.000000
GLOVE_handpak.bmp.bmp
  3 24.532946 2.482692 0.215849 0.000000 0.000000 0.000000 0.000000 1.000000
  3 24.647179 2.737001 -1.692050 0.000000 0.000000 0.000000 0.000000 1.000000
  3 24.647179 2.737001 -1.692050 0.000000 0.000000 0.000000 0.000000 1.000000
GLOVE_handpak.bmp.bmp
  3 24.647179 2.737001 -1.692050 0.000000 0.000000 0.000000 0.000000 1.000000
  3 26.807290 1.345072 -2.055028 0.000000 0.000000 0.000000 0.000000 1.000000
  3 24.647179 2.737001 -1.692050 0.000000 0.000000 0.000000 0.000000 1.000000
GLOVE_handpak.bmp.bmp
  3 24.647179 2.737001 -1.692050 0.000000 0.000000 0.000000 0.000000 1.000000
  3 26.807290 1.345072 -2.055028 0.000000 0.000000 0.000000 0.000000 1.000000
  3 26.807290 1.345072 -2.055028 0.000000 0.000000 0.000000 0.000000 1.000000
GLOVE_handpak.bmp.bmp
  3 26.807290 1.345072 -2.055028 0.000000 0.000000 0.000000 0.000000 1.000000
  3 26.878072 1.190749 0.117015 0.000000 0.000000 0.000000 0.000000 1.000000
  3 26.807290 1.345072 -2.055028 0.000000 0.000000 0.000000 0.000000 1.000000
GLOVE_handpak.bmp.bmp
  3 26.807290 1.345072 -2.055028 0.000000 0.000000 0.000000 0.000000 1.000000
  3 26.878072 1.190749 0.117015 0.000000 0.000000 0.000000 0.000000 1.000000
  3 26.878072 1.190749 0.117015 0.000000 0.000000 0.000000 0.000000 1.000000
GLOVE_handpak.bmp.bmp
  3 26.878072 1.190749 0.117015 0.000000 0.000000 0.000000 0.000000 1.000000
  3 24.532946 2.482692 0.215849 0.000000 0.000000 0.000000 0.000000 1.000000
  3 26.878072 1.190749 0.117015 0.000000 0.000000 0.000000 0.000000 1.000000
GLOVE_handpak.bmp.bmp
  3 26.878072 1.190749 0.117015 0.000000 0.000000 0.000000 0.000000 1.000000
  3 24.532946 2.482692 0.215849 0.000000 0.000000 0.000000 0.000000 1.000000
  3 24.532946 2.482692 0.215849 0.000000 0.000000 0.000000 0.000000 1.000000
GLOVE_handpak.bmp.bmp
  3 24.532946 2.482692 0.215849 0.000000 0.000000 0.000000 0.000000 1.000000
  3 24.647179 2.737001 -1.692050 0.000000 0.000000 0.000000 0.000000 1.000000
  3 24.532946 2.482692 0.215849 0.000000 0.000000 0.000000 0.000000 1.000000
GLOVE_handpak.bmp.bmp
  3 24.532946 2.482692 0.215849 0.000000 0.000000 0.000000 0.000000 1.000000
  3 24.647179 2.737001 -1.692050 0.000000 0.000000 0.000000 0.000000 1.000000
  3 24.647179 2.737001 -1.692050 0.000000 0.000000 0.000000 0.000000 1.000000
GLOVE_handpak.bmp.bmp
  3 24.647179 2.737001 -1.692050 0.000000 0.000000 0.000000 0.000000 1.000000
  3 26.807290 1.345072 -2.055028 0.000000 0.000000 0.000000 0.000000 1.000000
  3 24.647179 2.737001 -1.692050 0.000000 0.000000 0.000000 0.000000 1.000000
GLOVE_handpak.bmp.bmp
  3 24.647179 2.737001 -1.692050 0.000000 0.000000 0.000000 0.000000 1.000000
  3 26.807290 1.345072 -2.055028 0.000000 0.000000 0.000000 0.000000 1.000000
  3 26.807290 1.345072 -2.055028 0.000000 0.000000 0.000000 0.000000 1.000000
GLOVE_handpak.bmp.bmp
  3 26.807290 1.345072 -2.055028 0.000000 0.000000 0.000000 0.000000 1.000000
  3 26.878072 1.190749 0.117015 0.000000 0.000000 0.000000 0.000000 1.000000
  3 26.807290 1.345072 -2.055028 0.000000 0.000000 0.000000 0.000000 1.000000
GLOVE_handpak.bmp.bmp
  3 26.807290 1.345072 -2.055028 0.000000 0.000000 0.000000 0.000000 1.000000
  3 26.878072 1.190749 0.117015 0.000000 0.000000 0.000000 0.000000 1.000000
  3 26.878072 1.190749 0.117015 0.000000 0.000000 0.000000 0.000000 1.000000
GLOVE_handpak.bmp.bmp
  3 26.878072 1.190749 0.117015 0.000000 0.000000 0.000000 0.000000 1.000000
  3 24.532946 2.482692 0.215849 0.000000 0.000000 0.000000 0.000000 1.000000
  3 26.878072 1.190749 0.117015 0.000000 0.000000 0.000000 0.000000 1.000000
GLOVE_handpak.bmp.bmp
  3 26.878072 1.190749 0.117015 0.000000 0.000000 0.000000 0.000000 1.000000
  3 24.532946 2.482692 0.215849 0.000000 0.000000 0.000000 0.000000 1.000000
  3 24.532946 2.482692 0.215849 0.000000 0.000000 0.000000 0.000000 1.000000
GLOVE_handpak.bmp.bmp
  3 24.532946 2.482692 0.215849 0.000000 0.000000 0.000000 0.000000 1.000000
  3 24.647179 2.737001 -1.692050 0.000000 0.000000 0.000000 0.000000 1.000000
  3 24.532946 2.482692 0.215849 0.000000 0.000000 0.000000 0.000000 1.000000
GLOVE_handpak.bmp.bmp
  3 24.532946 2.482692 0.215849 0.000000 0.000000 0.000000 0.000000 1.000000
  3 24.647179 2.737001 -1.692050 0.000000 0.000000 0.000000 0.000000 1.000000
  3 24.647179 2.737001 -1.692050 0.000000 0.000000 0.000000 0.000000 1.000000
GLOVE_handpak.bmp.bmp
  3 24.647179 2.737001 -1.692050 0.000000 0.000000 0.000000 0.000000 1.000000
  3 26.807290 1.345072 -2.055028 0.000000 0.000000 0.000000 0.000000 1.000000
  3 24.647179 2.737001 -1.692050 0.000000 0.000000 0.000000 0.000000 1.000000
GLOVE_handpak.bmp.bmp
  3 24.647179 2.737001 -1.692050 0.000000 0.000000 0.000000 0.000000 1.000000
  3 26.807290 1.345072 -2.055028 0.000000 0.000000 0.000000 0.000000 1.000000
  3 26.807290 1.345072 -2.055028 0.000000 0.000000 0.000000 0.000000 1.000000
GLOVE_handpak.bmp.bmp
  3 26.807290 1.345072 -2.055028 0.000000 0.000000 0.000000 0.000000 1.000000
  3 26.878072 1.190749 0.117015 0.000000 0.000000 0.000000 0.000000 1.000000
  3 26.807290 1.345072 -2.055028 0.000000 0.000000 0.000000 0.000000 1.000000
GLOVE_handpak.bmp.bmp
  3 26.807290 1.345072 -2.055028 0.000000 0.000000 0.000000 0.000000 1.000000
  3 26.878072 1.190749 0.117015 0.000000 0.000000 0.000000 0.000000 1.000000
  3 26.878072 1.190749 0.117015 0.000000 0.000000 0.000000 0.000000 1.000000
GLOVE_handpak.bmp.bmp
  3 26.878072 1.190749 0.117015 0.000000 0.000000 0.000000 0.000000 1.000000
  3 24.532946 2.482692 0.215849 0.000000 0.000000 0.000000 0.000000 1.000000
  3 26.878072 1.190749 0.117015 0.000000 0.000000 0.000000 0.000000 1.000000
GLOVE_handpak.bmp.bmp
  3 26.878072 1.190749 0.117015 0.000000 0.000000 0.000000 0.000000 1.000000
  3 24.532946 2.482692 0.215849 0.000000 0.000000 0.000000 0.000000 1.000000
  3 24.532946 2.482692 0.215849 0.000000 0.000000 0.000000 0.000000 1.000000
GLOVE_handpak.bmp.bmp
  3 24.532946 2.482692 0.215849 -0.438543 0.067696 0.896157 0.000000 1.000000
  3 24.647179 2.737001 -1.692050 0.000000 0.000000 0.000000 0.000000 1.000000
  3 24.532946 2.482692 0.215849 0.000000 0.000000 0.000000 0.000000 1.000000
GLOVE_handpak.bmp.bmp
  3 24.532946 2.482692 0.215849 -0.438543 0.067696 0.896157 0.000000 1.000000
  3 24.647179 2.737001 -1.692050 -0.690727 0.610530 -0.387491 0.000000 1.000000
  3 24.647179 2.737001 -1.692050 0.000000 0.000000 0.000000 0.000000 1.000000
GLOVE_handpak.bmp.bmp
  3 24.647179 2.737001 -1.692050 -0.690727 0.610530 -0.387491 0.000000 1.000000
  3 26.807290 1.345072 -2.055028 0.000000 0.000000 0.000000 0.000000 1.000000
  3 24.647179 2.737001 -1.692050 0.000000 0.000000 0.000000 0.000000 1.000000
GLOVE_handpak.bmp.bmp
  3 24.647179 2.737001 -1.692050 -0.690727 0.610530 -0.387491 0.000000 1.000000
  3 26.807290 1.345072 -2.055028 0.384344 -0.020799 -0.922956 0.000000 1.000000
  3 26.807290 1.345072 -2.055028 0.000000 0.000000 0.000000 0.000000 1.000000
GLOVE_handpak.bmp.bmp
  3 26.807290 1.345072 -2.055028 0.384344 -0.020799 -0.922956 0.000000 1.000000
  3 26.878072 1.190749 0.117015 0.000000 0.000000 0.000000 0.000000 1.000000
  3 26.807290 1.345072 -2.055028 0.000000 0.000000 0.000000 0.000000 1.000000
GLOVE_handpak.bmp.bmp
  3 26.807290 1.345072 -2.055028 0.384344 -0.020799 -0.922956 0.000000 1.000000
  3 26.878072 1.190749 0.117015 0.697842 -0.611584 0.372802 0.000000 1.000000
  3 26.878072 1.190749 0.117015 0.000000 0.000000 0.000000 0.000000 1.000000
GLOVE_handpak.bmp.bmp
  3 26.878072 1.190749 0.117015 0.697842 -0.611584 0.372802 0.000000 1.000000
  3 24.532946 2.482692 0.215849 0.000000 0.000000 0.000000 0.000000 1.000000
  3 26.878072 1.190749 0.117015 0.000000 0.000000 0.000000 0.000000 1.000000
GLOVE_handpak.bmp.bmp
  3 26.878072 1.190749 0.117015 0.697842 -0.611584 0.372802 0.000000 1.000000
  3 24.532946 2.482692 0.215849 -0.438543 0.067696 0.896157 0.000000 1.000000
  3 24.532946 2.482692 0.215849 0.000000 0.000000 0.000000 0.000000 1.000000
end
