version 1
nodes
  0 "v_weapon.Bip01_R_Forearm" -1
  1 "v_weapon.Bip01_R_Hand" 0
  2 "v_weapon.Bip01_L_Forearm" -1
  3 "v_weapon.Bip01_L_Hand" 2
  4 "v_weapon.Bip01_R_Finger0" 1
  5 "v_weapon.Bip01_R_Finger01" 4
  6 "v_weapon.Bip01_R_Finger02" 5
  7 "v_weapon.Bip01_R_Finger1" 1
  8 "v_weapon.Bip01_R_Finger11" 7
  9 "v_weapon.Bip01_R_Finger12" 8
  10 "v_weapon.Bip01_R_Finger2" 1
  11 "v_weapon.Bip01_R_Finger21" 10
  12 "v_weapon.Bip01_R_Finger22" 11
  13 "v_weapon.Bip01_R_Finger3" 1
  14 "v_weapon.Bip01_R_Finger31" 13
  15 "v_weapon.Bip01_R_Finger32" 14
  16 "v_weapon.Bip01_R_Finger4" 1
  17 "v_weapon.Bip01_R_Finger41" 16
  18 "v_weapon.Bip01_R_Finger42" 17
  19 "v_weapon.Bip01_L_Finger0" 3
  20 "v_weapon.Bip01_L_Finger01" 19
  21 "v_weapon.Bip01_L_Finger02" 20
  22 "v_weapon.Bip01_L_Finger1" 3
  23 "v_weapon.Bip01_L_Finger11" 22
  24 "v_weapon.Bip01_L_Finger12" 23
  25 "v_weapon.Bip01_L_Finger2" 3
  26 "v_weapon.Bip01_L_Finger21" 25
  27 "v_weapon.Bip01_L_Finger22" 26
  28 "v_weapon.Bip01_L_Finger3" 3
  29 "v_weapon.Bip01_L_Finger31" 28
  30 "v_weapon.Bip01_L_Finger32" 29
  31 "v_weapon.Bip01_L_Finger4" 3
  32 "v_weapon.Bip01_L_Finger41" 31
  33 "v_weapon.Bip01_L_Finger42" 32
  34 "v_weapon.Bip01_L_ForeTwist" -1
  35 "v_weapon.Bip01_R_ForeTwist" -1
  36 "v_weapon" -1
  37 "v_weapon.knife" 36
  38 "v_weapon.front" 37
  39 "v_weapon.blade1" 38
  40 "v_weapon.rear" 39
  41 "v_weapon.lock" 40
end
skeleton
  time 0
    0 -6.199004 3.759286 -13.096815 -1.819654 0.002546 -1.573078
    1 10.295578 0.000000 0.000002 0.501084 0.063556 0.405284
    2 16.762618 -6.825738 -10.518621 -0.718634 0.309819 -2.129344
    3 10.295582 0.000001 -0.000006 -0.696633 -0.011611 -0.008280
    4 1.149520 0.416502 1.414117 -1.755176 -0.288409 0.446632
    5 1.263885 0.000000 -0.000008 0.114717 0.081327 0.516055
    6 1.188939 -0.000002 0.000010 0.005825 0.002001 -0.264978
    7 3.773755 0.133215 0.970575 0.083240 -0.128296 0.205094
    8 1.433456 0.000000 0.000000 0.096164 -0.027565 0.659514
    9 1.019165 -0.000006 0.000001 0.111421 0.004267 1.065891
    10 3.799514 0.014957 0.039959 -0.022568 0.068472 0.346535
    11 1.774878 0.000000 0.000000 0.094139 -0.004027 0.180891
    12 1.008844 -0.000004 0.000000 0.107502 -0.013662 0.214459
    13 3.632766 0.059052 -0.757493 0.035380 0.111718 0.370605
    14 1.500137 0.000002 0.000000 0.107622 0.057766 0.099809
    15 0.905666 -0.000002 -0.000001 0.111876 0.048681 0.180927
    16 3.323331 0.233744 -1.479075 0.080111 0.271249 -0.167683
    17 0.963100 0.000011 0.000000 0.072447 0.037716 0.395322
    18 0.682894 -0.000006 -0.000001 0.052996 0.062128 0.011183
    19 1.149529 0.416498 -1.414117 1.695985 0.643381 0.384422
    20 1.263884 0.000001 0.000000 -0.009336 0.006472 0.475888
    21 1.188946 0.000000 0.000002 -0.011266 0.001942 0.214483
    22 3.773762 0.133217 -0.970574 0.032715 0.177469 0.050100
    23 1.433458 0.000004 0.000000 -0.035223 0.012955 0.451859
    24 1.019165 0.000011 0.000000 -0.035247 0.013003 0.452158
    25 3.799517 0.014957 -0.039958 -0.033200 -0.011856 0.276310
    26 1.774879 0.000004 0.000000 -0.022399 0.008917 0.454686
    27 1.008841 0.000004 0.000000 -0.022387 0.008929 0.454767
    28 3.632765 0.059053 0.757493 -0.281201 -0.185819 0.459243
    29 1.500135 0.000004 0.000000 -0.017006 0.006568 0.424967
    30 0.905668 0.000002 -0.000001 -0.016994 0.006556 0.425005
    31 3.323332 0.233744 1.479075 -0.398980 -0.449085 0.621371
    32 0.963099 0.000010 0.000000 -0.017941 0.008941 0.549223
    33 0.682898 -0.000002 0.000000 -0.017989 0.008941 0.549349
    34 16.762618 -6.825738 -10.518621 0.365414 0.309767 -2.129623
    35 -6.199004 3.759286 -13.096815 -2.996145 0.002780 -1.573169
    36 0.000000 3.992340 0.007782 1.570796 0.000000 -1.570796
    37 13.969176 -16.043458 5.488449 4.076559 -0.362177 0.940589
    38 -0.021929 2.029111 -0.137266 -1.570805 0.000001 0.000000
    39 0.019532 0.000000 0.007813 2.963130 0.000000 0.000001
    40 0.002397 -0.669111 0.409449 -1.421252 0.000000 0.000000
    41 -0.002402 -6.221447 0.929182 -0.890280 0.000000 0.000000
  time 1
    0 -6.636517 -1.151020 -12.315541 -1.867307 -0.390783 -1.542377
    1 10.295578 0.000000 0.000002 1.102132 -0.243099 0.654963
    2 16.704023 -6.833551 -10.557685 -0.728549 0.302871 -2.150110
    3 10.295582 0.000001 -0.000006 -0.744641 0.034209 -0.009538
    4 1.149520 0.416502 1.414117 -1.769920 -0.269344 0.467492
    5 1.263885 0.000000 -0.000008 0.115340 0.080992 0.521170
    6 1.188939 -0.000002 0.000010 0.005825 0.002001 -0.265253
    7 3.773755 0.133215 0.970575 0.083029 -0.136578 0.206452
    8 1.433456 0.000000 0.000000 0.096164 -0.027565 0.659514
    9 1.019165 -0.000006 0.000001 0.111421 0.004267 1.065891
    10 3.799514 0.014957 0.039959 -0.022568 0.068472 0.345975
    11 1.774878 0.000000 0.000000 0.094139 -0.003991 0.180417
    12 1.008844 -0.000004 0.000000 0.107502 -0.013662 0.214459
    13 3.632766 0.059052 -0.757493 0.035367 0.111946 0.370326
    14 1.500137 0.000002 0.000000 0.107622 0.057778 0.099668
    15 0.905666 -0.000002 -0.000001 0.111804 0.048693 0.180743
    16 3.323331 0.233744 -1.479075 0.080123 0.271383 -0.168269
    17 0.963100 0.000011 0.000000 0.072447 0.037716 0.395496
    18 0.682894 -0.000006 -0.000001 0.052984 0.062224 0.010789
    19 1.149529 0.416498 -1.414117 1.695985 0.643381 0.384422
    20 1.263884 0.000001 0.000000 -0.009336 0.006472 0.475888
    21 1.188946 0.000000 0.000002 -0.011266 0.001942 0.214483
    22 3.773762 0.133217 -0.970574 0.032715 0.177469 0.050100
    23 1.433458 0.000004 0.000000 -0.035223 0.012955 0.451859
    24 1.019165 0.000011 0.000000 -0.035247 0.013003 0.452158
    25 3.799517 0.014957 -0.039958 -0.033200 -0.011856 0.276310
    26 1.774879 0.000004 0.000000 -0.022399 0.008917 0.454686
    27 1.008841 0.000004 0.000000 -0.022387 0.008929 0.454767
    28 3.632765 0.059053 0.757493 -0.281201 -0.185819 0.459243
    29 1.500135 0.000004 0.000000 -0.017006 0.006568 0.424967
    30 0.905668 0.000002 -0.000001 -0.016994 0.006556 0.425005
    31 3.323332 0.233744 1.479075 -0.398980 -0.449085 0.621371
    32 0.963099 0.000010 0.000000 -0.017941 0.008941 0.549223
    33 0.682898 -0.000002 0.000000 -0.017989 0.008941 0.549349
    34 16.704023 -6.833551 -10.557685 0.355851 0.302838 -2.150318
    35 -6.636517 -1.151020 -12.315541 0.100433 -2.750256 -4.683235
    36 0.000000 3.992340 0.007782 1.570796 0.000000 -1.570796
    37 18.246651 -9.933897 4.058718 4.612934 -0.826905 0.740089
    38 -0.021929 2.029111 -0.137266 -1.570805 0.000001 0.000000
    39 0.019532 0.000000 0.007813 3.042547 0.000000 0.000001
    40 0.002397 -0.669111 0.409449 -1.353409 0.000000 0.000000
    41 -0.002402 -6.221447 0.929182 -0.890280 0.000000 0.000000
  time 2
    0 -6.706832 -2.557313 -11.698335 -1.881113 -0.456526 -1.535778
    1 10.295578 0.000000 0.000002 1.183563 -0.409783 0.745369
    2 16.657146 -6.868708 -10.585029 -0.738156 0.276887 -2.182080
    3 10.295582 0.000001 -0.000006 -0.786555 0.081973 0.008780
    4 1.149520 0.416502 1.414117 -1.799138 -0.227050 0.513585
    5 1.263885 0.000000 -0.000008 0.116275 0.079901 0.531144
    6 1.188939 -0.000002 0.000010 0.005825 0.002013 -0.265528
    7 3.773755 0.133215 0.970575 0.082483 -0.149761 0.208599
    8 1.433456 0.000000 0.000000 0.096164 -0.027565 0.659288
    9 1.019165 -0.000006 0.000001 0.111421 0.004267 1.065891
    10 3.799514 0.014957 0.039959 -0.022568 0.068472 0.345823
    11 1.774878 0.000000 0.000000 0.094139 -0.003991 0.180180
    12 1.008844 -0.000004 0.000000 0.107502 -0.013650 0.214340
    13 3.632766 0.059052 -0.757493 0.035354 0.111946 0.370104
    14 1.500137 0.000002 0.000000 0.107634 0.057670 0.100091
    15 0.905666 -0.000002 -0.000001 0.111876 0.048669 0.181080
    16 3.323331 0.233744 -1.479075 0.096530 0.264191 -0.104817
    17 0.963100 0.000011 0.000000 0.074676 0.033077 0.457112
    18 0.682894 -0.000006 -0.000001 0.057945 0.057346 0.095845
    19 1.149529 0.416498 -1.414117 1.695985 0.643381 0.384422
    20 1.263884 0.000001 0.000000 -0.009336 0.006472 0.475888
    21 1.188946 0.000000 0.000002 -0.011266 0.001942 0.214483
    22 3.773762 0.133217 -0.970574 0.032715 0.177469 0.050100
    23 1.433458 0.000004 0.000000 -0.035223 0.012955 0.451859
    24 1.019165 0.000011 0.000000 -0.035247 0.013003 0.452158
    25 3.799517 0.014957 -0.039958 -0.033200 -0.011856 0.276310
    26 1.774879 0.000004 0.000000 -0.022399 0.008917 0.454686
    27 1.008841 0.000004 0.000000 -0.022387 0.008929 0.454767
    28 3.632765 0.059053 0.757493 -0.281201 -0.185819 0.459243
    29 1.500135 0.000004 0.000000 -0.017006 0.006568 0.424967
    30 0.905668 0.000002 -0.000001 -0.016994 0.006556 0.425005
    31 3.323332 0.233744 1.479075 -0.398980 -0.449085 0.621371
    32 0.963099 0.000010 0.000000 -0.017941 0.008941 0.549223
    33 0.682898 -0.000002 0.000000 -0.017989 0.008941 0.549349
    34 16.657146 -6.868708 -10.585029 0.346007 0.276856 -2.182289
    35 -6.706832 -2.557313 -11.698335 0.126502 -2.684548 -4.676540
    36 0.000000 3.992340 0.007782 1.570796 0.000000 -1.570796
    37 19.035737 -8.652608 3.539171 -1.442310 -0.820412 0.506267
    38 -0.021929 2.029111 -0.137266 -1.570805 0.000001 0.000000
    39 0.019532 0.000000 0.007813 3.122347 0.000000 0.000001
    40 0.002397 -0.669111 0.409449 -1.285566 0.000000 0.000000
    41 -0.002402 -6.221447 0.929182 -0.890280 0.000000 0.000000
  time 3
    0 -6.749802 -3.596407 -11.061597 -1.895513 -0.517002 -1.524014
    1 10.295578 0.000000 0.000002 1.171287 -0.505111 0.809740
    2 16.606363 -6.946836 -10.581123 -0.745731 0.237186 -2.220686
    3 10.295582 0.000001 -0.000006 -0.822140 0.128556 0.038496
    4 1.149520 0.416502 1.414117 -1.824842 -0.182559 0.563915
    5 1.263885 0.000000 -0.000008 0.117233 0.079398 0.538974
    6 1.188939 -0.000002 0.000010 0.005825 0.002013 -0.265757
    7 3.773755 0.133215 0.970575 0.082334 -0.153464 0.209037
    8 1.433456 0.000000 0.000000 0.096164 -0.027553 0.659243
    9 1.019165 -0.000006 0.000001 0.111421 0.004267 1.065891
    10 3.799514 0.014957 0.039959 -0.022568 0.068472 0.345467
    11 1.774878 0.000000 0.000000 0.094139 -0.003979 0.179990
    12 1.008844 -0.000004 0.000000 0.107502 -0.013650 0.214340
    13 3.632766 0.059052 -0.757493 0.039406 0.110196 0.406778
    14 1.500137 0.000002 0.000000 0.116382 0.036265 0.288483
    15 0.905666 -0.000002 -0.000001 0.119031 0.027409 0.365019
    16 3.323331 0.233744 -1.479075 0.131105 0.247209 0.031638
    17 0.963100 0.000011 0.000000 0.078307 0.022867 0.591237
    18 0.682894 -0.000006 -0.000001 0.067689 0.045625 0.281583
    19 1.149529 0.416498 -1.414117 1.695985 0.643381 0.384422
    20 1.263884 0.000001 0.000000 -0.009336 0.006472 0.475888
    21 1.188946 0.000000 0.000002 -0.011266 0.001942 0.214483
    22 3.773762 0.133217 -0.970574 0.032715 0.177469 0.050100
    23 1.433458 0.000004 0.000000 -0.035223 0.012955 0.451859
    24 1.019165 0.000011 0.000000 -0.035247 0.013003 0.452158
    25 3.799517 0.014957 -0.039958 -0.033200 -0.011856 0.276310
    26 1.774879 0.000004 0.000000 -0.022399 0.008917 0.454686
    27 1.008841 0.000004 0.000000 -0.022387 0.008929 0.454767
    28 3.632765 0.059053 0.757493 -0.281201 -0.185819 0.459243
    29 1.500135 0.000004 0.000000 -0.017006 0.006568 0.424967
    30 0.905668 0.000002 -0.000001 -0.016994 0.006556 0.425005
    31 3.323332 0.233744 1.479075 -0.398980 -0.449085 0.621371
    32 0.963099 0.000010 0.000000 -0.017941 0.008941 0.549223
    33 0.682898 -0.000002 0.000000 -0.017989 0.008941 0.549349
    34 16.606363 -6.946836 -10.581123 0.338226 0.237124 -2.220825
    35 -6.749802 -3.596407 -11.061597 0.240268 -2.624108 -4.664585
    36 0.000000 3.992340 0.007782 1.570796 0.000000 -1.570796
    37 19.500595 -7.480697 3.214942 -1.369586 -0.746506 0.424477
    38 -0.021929 2.029111 -0.137266 -1.570805 0.000001 0.000000
    39 0.019532 0.000000 0.007813 -3.116305 0.000000 0.000001
    40 0.002397 -0.669111 0.409449 -1.244365 0.000000 0.000000
    41 -0.002402 -6.221447 0.929182 -0.890280 0.000000 0.000000
  time 4
    0 -6.781053 -4.463621 -10.377982 -1.916222 -0.593373 -1.502399
    1 10.295578 0.000000 0.000002 1.294661 -0.574259 0.587532
    2 16.543861 -7.099184 -10.557685 -0.749426 0.188547 -2.262147
    3 10.295582 0.000001 -0.000006 -0.850969 0.171745 0.072673
    4 1.149520 0.416502 1.414117 -1.836023 -0.157895 0.600828
    5 1.263885 0.000000 -0.000008 0.117545 0.079710 0.537695
    6 1.188939 -0.000002 0.000010 0.005825 0.002013 -0.266032
    7 3.773755 0.133215 0.970575 0.083128 -0.132754 0.205138
    8 1.433456 0.000000 0.000000 0.096176 -0.027553 0.659107
    9 1.019165 -0.000006 0.000001 0.111421 0.004267 1.065891
    10 3.799514 0.014957 0.039959 -0.022568 0.068472 0.345263
    11 1.774878 0.000000 0.000000 0.094139 -0.003895 0.179706
    12 1.008844 -0.000004 0.000000 0.107502 -0.013650 0.214340
    13 3.632766 0.059052 -0.757493 0.046991 0.107236 0.477229
    14 1.500137 0.000002 0.000000 0.121716 -0.007191 0.649149
    15 0.905666 -0.000002 -0.000001 0.120948 -0.015340 0.717540
    16 3.323331 0.233744 -1.479075 0.165717 0.227468 0.175299
    17 0.963100 0.000011 0.000000 0.080728 0.011445 0.732291
    18 0.682894 -0.000006 -0.000001 0.075119 0.031579 0.476339
    19 1.149529 0.416498 -1.414117 1.695985 0.643381 0.384422
    20 1.263884 0.000001 0.000000 -0.009336 0.006472 0.475888
    21 1.188946 0.000000 0.000002 -0.011266 0.001942 0.214483
    22 3.773762 0.133217 -0.970574 0.032715 0.177469 0.050100
    23 1.433458 0.000004 0.000000 -0.035223 0.012955 0.451859
    24 1.019165 0.000011 0.000000 -0.035247 0.013003 0.452158
    25 3.799517 0.014957 -0.039958 -0.033200 -0.011856 0.276310
    26 1.774879 0.000004 0.000000 -0.022399 0.008917 0.454686
    27 1.008841 0.000004 0.000000 -0.022387 0.008929 0.454767
    28 3.632765 0.059053 0.757493 -0.281201 -0.185819 0.459243
    29 1.500135 0.000004 0.000000 -0.017006 0.006568 0.424967
    30 0.905668 0.000002 -0.000001 -0.016994 0.006556 0.425005
    31 3.323332 0.233744 1.479075 -0.398980 -0.449085 0.621371
    32 0.963099 0.000010 0.000000 -0.017941 0.008941 0.549223
    33 0.682898 -0.000002 0.000000 -0.017989 0.008941 0.549349
    34 16.543861 -7.099184 -10.557685 0.335038 0.188508 -2.262287
    35 -6.781053 -4.463621 -10.377982 -2.513595 -0.593957 -1.499334
    36 0.000000 3.992340 0.007782 1.570796 0.000000 -1.570796
    37 19.813105 -5.140782 2.718833 -1.213982 -0.669067 0.477205
    38 -0.021929 2.029111 -0.137266 -1.570805 0.000001 0.000000
    39 0.019532 0.000000 0.007813 3.117371 0.000000 0.000001
    40 0.002397 -0.669111 0.409449 -1.342181 0.000000 0.000000
    41 -0.002402 -6.221447 0.929182 -0.890280 0.000000 0.000000
  time 5
    0 -6.812304 -5.053483 -9.846716 -1.934927 -0.651874 -1.484514
    1 10.295578 0.000000 0.000002 2.356128 -0.507634 -0.062825
    2 16.418858 -7.306222 -10.522528 -0.748379 0.136343 -2.303108
    3 10.295582 0.000001 -0.000006 -0.872726 0.209007 0.104219
    4 1.149520 0.416502 1.414117 -1.772746 -0.257508 0.569185
    5 1.263885 0.000000 -0.000008 0.116095 0.081735 0.519734
    6 1.188939 -0.000002 0.000010 0.005825 0.002013 -0.266307
    7 3.773755 0.133215 0.970575 0.089842 0.050034 0.172194
    8 1.433456 0.000000 0.000000 0.096176 -0.027541 0.658881
    9 1.019165 -0.000006 0.000001 0.111421 0.004267 1.065405
    10 3.799514 0.014957 0.039959 -0.022568 0.068472 0.345009
    11 1.774878 0.000000 0.000000 0.094139 -0.003715 0.179469
    12 1.008844 -0.000004 0.000000 0.107502 -0.013650 0.214221
    13 3.632766 0.059052 -0.757493 0.051936 0.105210 0.523602
    14 1.500137 0.000002 0.000000 0.116742 -0.035786 0.886648
    15 0.905666 -0.000002 -0.000001 0.114105 -0.043085 0.949571
    16 3.323331 0.233744 -1.479075 0.183682 0.215669 0.253925
    17 0.963100 0.000011 0.000000 0.081387 0.005141 0.809899
    18 0.682894 -0.000006 -0.000001 0.078164 0.023478 0.583763
    19 1.149529 0.416498 -1.414117 1.695985 0.643381 0.384422
    20 1.263884 0.000001 0.000000 -0.009336 0.006472 0.475888
    21 1.188946 0.000000 0.000002 -0.011266 0.001942 0.214483
    22 3.773762 0.133217 -0.970574 0.032715 0.177469 0.050100
    23 1.433458 0.000004 0.000000 -0.035223 0.012955 0.451859
    24 1.019165 0.000011 0.000000 -0.035247 0.013003 0.452158
    25 3.799517 0.014957 -0.039958 -0.033200 -0.011856 0.276310
    26 1.774879 0.000004 0.000000 -0.022399 0.008917 0.454686
    27 1.008841 0.000004 0.000000 -0.022387 0.008929 0.454767
    28 3.632765 0.059053 0.757493 -0.281201 -0.185819 0.459243
    29 1.500135 0.000004 0.000000 -0.017006 0.006568 0.424967
    30 0.905668 0.000002 -0.000001 -0.016994 0.006556 0.425005
    31 3.323332 0.233744 1.479075 -0.398980 -0.449085 0.621371
    32 0.963099 0.000010 0.000000 -0.017941 0.008941 0.549223
    33 0.682898 -0.000002 0.000000 -0.017989 0.008941 0.549349
    34 16.418858 -7.306222 -10.522528 0.335601 0.136346 -2.303178
    35 -6.812304 -5.053483 -9.846716 -1.766290 -0.651428 -1.479536
    36 0.000000 3.992340 0.007782 1.570796 0.000000 -1.570796
    37 18.922452 -0.929716 3.328227 -0.137879 -0.392923 -0.052539
    38 -0.021929 2.029111 -0.137266 -1.570805 0.000001 0.000000
    39 0.019532 0.000000 0.007813 3.030491 0.000000 0.000001
    40 0.002397 -0.669111 0.409449 -1.415448 0.000000 0.000000
    41 -0.002402 -6.221447 0.929182 -0.890280 0.000000 0.000000
  time 6
    0 -6.894338 -5.487090 -9.354513 -1.953706 -0.696455 -1.473898
    1 10.295578 0.000000 0.000002 2.767375 -0.211582 -0.233211
    2 16.293854 -7.591387 -10.491277 -0.742590 0.086238 -2.339360
    3 10.295582 0.000001 -0.000006 -0.886750 0.237425 0.125453
    4 1.149520 0.416502 1.414117 -1.738736 -0.268033 0.419579
    5 1.263885 0.000000 -0.000008 0.102181 0.098513 0.365381
    6 1.188939 -0.000002 0.000010 0.005825 0.002013 -0.266307
    7 3.773755 0.133215 0.970575 0.087062 0.096679 0.149195
    8 1.433456 0.000000 0.000000 0.098441 -0.017965 0.560764
    9 1.019165 -0.000006 0.000001 0.110450 0.015161 0.968106
    10 3.799514 0.014957 0.039959 -0.022568 0.068472 0.344806
    11 1.774878 0.000000 0.000000 0.094151 -0.003703 0.179184
    12 1.008844 -0.000004 0.000000 0.107502 -0.013650 0.214221
    13 3.632766 0.059052 -0.757493 0.050979 0.105750 0.513347
    14 1.500137 0.000002 0.000000 0.118456 -0.029638 0.834346
    15 0.905666 -0.000002 -0.000001 0.116263 -0.037020 0.898567
    16 3.323331 0.233744 -1.479075 0.184664 0.214852 0.259023
    17 0.963100 0.000011 0.000000 0.081447 0.004866 0.814780
    18 0.682894 -0.000006 -0.000001 0.078295 0.022915 0.590636
    19 1.149529 0.416498 -1.414117 1.695985 0.643381 0.384422
    20 1.263884 0.000001 0.000000 -0.009336 0.006472 0.475888
    21 1.188946 0.000000 0.000002 -0.011266 0.001942 0.214483
    22 3.773762 0.133217 -0.970574 0.032715 0.177469 0.050100
    23 1.433458 0.000004 0.000000 -0.035223 0.012955 0.451859
    24 1.019165 0.000011 0.000000 -0.035247 0.013003 0.452158
    25 3.799517 0.014957 -0.039958 -0.033200 -0.011856 0.276310
    26 1.774879 0.000004 0.000000 -0.022399 0.008917 0.454686
    27 1.008841 0.000004 0.000000 -0.022387 0.008929 0.454767
    28 3.632765 0.059053 0.757493 -0.281201 -0.185819 0.459243
    29 1.500135 0.000004 0.000000 -0.017006 0.006568 0.424967
    30 0.905668 0.000002 -0.000001 -0.016994 0.006556 0.425005
    31 3.323332 0.233744 1.479075 -0.398980 -0.449085 0.621371
    32 0.963099 0.000010 0.000000 -0.017941 0.008941 0.549223
    33 0.682898 -0.000002 0.000000 -0.017989 0.008941 0.549349
    34 16.293854 -7.591387 -10.491277 0.341226 0.086247 -2.339217
    35 -6.894338 -5.487090 -9.354513 -0.806736 -0.696255 -1.467868
    36 0.000000 3.992340 0.007782 1.570796 0.000000 -1.570796
    37 18.688070 1.351604 4.484512 0.478022 0.116588 0.010224
    38 -0.021929 2.029111 -0.137266 -1.570805 0.000001 0.000000
    39 0.019532 0.000000 0.007813 3.017095 0.000000 0.000001
    40 0.002397 -0.669111 0.409449 -1.305072 0.000000 0.000000
    41 -0.002402 -6.221447 0.929182 -0.890280 0.000000 0.000000
  time 7
    0 -6.988091 -5.741004 -9.038097 -1.958902 -0.696737 -1.484036
    1 10.295578 0.000000 0.000002 2.839258 -0.112251 -0.256593
    2 16.106348 -7.899990 -10.448307 -0.733722 0.043335 -2.368975
    3 10.295582 0.000001 -0.000006 -0.892023 0.254312 0.129551
    4 1.149520 0.416502 1.414117 -1.766062 -0.248826 0.369330
    5 1.263885 0.000000 -0.000008 0.134695 0.152648 0.224091
    6 1.188939 -0.000002 0.000010 0.005872 0.001942 -0.244630
    7 3.773755 0.133215 0.970575 0.089395 0.073237 0.145033
    8 1.433456 0.000000 0.000000 0.099868 -0.006568 0.448449
    9 1.019165 -0.000006 0.000001 0.103044 0.033976 0.877946
    10 3.799514 0.014957 0.039959 -0.022568 0.068472 0.344653
    11 1.774878 0.000000 0.000000 0.094151 -0.003691 0.179042
    12 1.008844 -0.000004 0.000000 0.107502 -0.013650 0.214221
    13 3.632766 0.059052 -0.757493 0.046021 0.107631 0.467141
    14 1.500137 0.000002 0.000000 0.121979 -0.001067 0.599008
    15 0.905666 -0.000002 -0.000001 0.121704 -0.009540 0.668682
    16 3.323331 0.233744 -1.479075 0.175125 0.221267 0.216370
    17 0.963100 0.000011 0.000000 0.081244 0.008162 0.773034
    18 0.682894 -0.000006 -0.000001 0.076797 0.027457 0.532415
    19 1.149529 0.416498 -1.414117 1.695985 0.643381 0.384422
    20 1.263884 0.000001 0.000000 -0.009336 0.006472 0.475888
    21 1.188946 0.000000 0.000002 -0.011266 0.001942 0.214483
    22 3.773762 0.133217 -0.970574 0.032715 0.177469 0.050100
    23 1.433458 0.000004 0.000000 -0.035223 0.012955 0.451859
    24 1.019165 0.000011 0.000000 -0.035247 0.013003 0.452158
    25 3.799517 0.014957 -0.039958 -0.033200 -0.011856 0.276310
    26 1.774879 0.000004 0.000000 -0.022399 0.008917 0.454686
    27 1.008841 0.000004 0.000000 -0.022387 0.008929 0.454767
    28 3.632765 0.059053 0.757493 -0.281201 -0.185819 0.459243
    29 1.500135 0.000004 0.000000 -0.017006 0.006568 0.424967
    30 0.905668 0.000002 -0.000001 -0.016994 0.006556 0.425005
    31 3.323332 0.233744 1.479075 -0.398980 -0.449085 0.621371
    32 0.963099 0.000010 0.000000 -0.017941 0.008941 0.549223
    33 0.682898 -0.000002 0.000000 -0.017989 0.008941 0.549349
    34 16.106348 -7.899990 -10.448307 0.350320 0.043349 -2.368761
    35 -6.988091 -5.741004 -9.038097 -0.442389 -0.698075 -1.484414
    36 0.000000 3.992340 0.007782 1.570796 0.000000 -1.570796
    37 18.938078 2.019593 5.152501 0.739310 0.423765 0.310879
    38 -0.021929 2.029111 -0.137266 -1.570805 0.000001 0.000000
    39 0.019532 0.000000 0.007813 3.033457 0.000000 0.000001
    40 0.002397 -0.669111 0.409449 -0.974324 0.000000 0.000000
    41 -0.002402 -6.221447 0.929182 -0.890280 0.000000 0.000000
  time 8
    0 -7.046686 -5.807412 -8.917000 -1.960535 -0.694668 -1.491305
    1 10.295578 0.000000 0.000002 2.854944 -0.091191 -0.254876
    2 15.907123 -8.239844 -10.393617 -0.723807 0.012465 -2.387743
    3 10.295582 0.000001 -0.000006 -0.886906 0.256771 0.109594
    4 1.149520 0.416502 1.414117 -1.814644 -0.235290 0.383644
    5 1.263885 0.000000 -0.000008 0.153786 0.179781 0.179021
    6 1.188939 -0.000002 0.000010 0.005944 0.001858 -0.212275
    7 3.773755 0.133215 0.970575 0.095141 0.036780 0.154934
    8 1.433456 0.000000 0.000000 0.099760 -0.008150 0.417567
    9 1.019165 -0.000006 0.000001 0.093708 0.035426 0.839669
    10 3.799514 0.014957 0.039959 -0.022568 0.068472 0.344551
    11 1.774878 0.000000 0.000000 0.094151 -0.003691 0.179042
    12 1.008844 -0.000004 0.000000 0.107502 -0.013650 0.214221
    13 3.632766 0.059052 -0.757493 0.040118 0.110016 0.413132
    14 1.500137 0.000002 0.000000 0.117785 0.032215 0.324620
    15 0.905666 -0.000002 -0.000001 0.119882 0.023022 0.400452
    16 3.323331 0.233744 -1.479075 0.150245 0.236843 0.110089
    17 0.963100 0.000011 0.000000 0.079841 0.016695 0.669063
    18 0.682894 -0.000006 -0.000001 0.072015 0.038279 0.388132
    19 1.149529 0.416498 -1.414117 1.695985 0.643381 0.384422
    20 1.263884 0.000001 0.000000 -0.009336 0.006472 0.475888
    21 1.188946 0.000000 0.000002 -0.011266 0.001942 0.214483
    22 3.773762 0.133217 -0.970574 0.032715 0.177469 0.050100
    23 1.433458 0.000004 0.000000 -0.035223 0.012955 0.451859
    24 1.019165 0.000011 0.000000 -0.035247 0.013003 0.452158
    25 3.799517 0.014957 -0.039958 -0.033200 -0.011856 0.276310
    26 1.774879 0.000004 0.000000 -0.022399 0.008917 0.454686
    27 1.008841 0.000004 0.000000 -0.022387 0.008929 0.454767
    28 3.632765 0.059053 0.757493 -0.281201 -0.185819 0.459243
    29 1.500135 0.000004 0.000000 -0.017006 0.006568 0.424967
    30 0.905668 0.000002 -0.000001 -0.016994 0.006556 0.425005
    31 3.323332 0.233744 1.479075 -0.398980 -0.449085 0.621371
    32 0.963099 0.000010 0.000000 -0.017941 0.008941 0.549223
    33 0.682898 -0.000002 0.000000 -0.017989 0.008941 0.549349
    34 15.907123 -8.239844 -10.393617 0.360726 0.012464 -2.387530
    35 -7.046686 -5.807412 -8.917000 -0.395798 -0.694914 -1.491587
    36 0.000000 3.992340 0.007782 1.570796 0.000000 -1.570796
    37 19.000580 2.250069 5.382977 0.922988 0.659423 0.637283
    38 -0.021929 2.029111 -0.137266 -1.570805 0.000001 0.000000
    39 0.019532 0.000000 0.007813 3.135264 0.000000 0.000001
    40 0.002397 -0.669111 0.409449 -0.527396 0.000000 0.000000
    41 -0.002402 -6.221447 0.929182 -0.890280 0.000000 0.000000
  time 9
    0 -7.077937 -5.807412 -8.909187 -1.962539 -0.696549 -1.493122
    1 10.295578 0.000000 0.000002 2.865856 -0.079618 -0.247571
    2 15.700086 -8.607043 -10.299865 -0.709766 -0.009267 -2.392524
    3 10.295582 0.000001 -0.000006 -0.863351 0.236396 0.055060
    4 1.149520 0.416502 1.414117 -1.861481 -0.225101 0.408551
    5 1.263885 0.000000 -0.000008 0.152828 0.177528 0.186536
    6 1.188939 -0.000002 0.000010 0.005980 0.001618 -0.177720
    7 3.773755 0.133215 0.970575 0.102413 -0.002086 0.178459
    8 1.433456 0.000000 0.000000 0.099137 -0.021117 0.425299
    9 1.019165 -0.000006 0.000001 0.084515 0.019679 0.823222
    10 3.799514 0.014957 0.039959 -0.022568 0.068472 0.344551
    11 1.774878 0.000000 0.000000 0.094151 -0.003691 0.179042
    12 1.008844 -0.000004 0.000000 0.107502 -0.013650 0.214221
    13 3.632766 0.059052 -0.757493 0.036338 0.111574 0.378408
    14 1.500137 0.000002 0.000000 0.110138 0.052469 0.147647
    15 0.905666 -0.000002 -0.000001 0.113961 0.043348 0.227578
    16 3.323331 0.233744 -1.479075 0.115022 0.256075 -0.033631
    17 0.963100 0.000011 0.000000 0.076701 0.027636 0.528314
    18 0.682894 -0.000006 -0.000001 0.063351 0.051570 0.192982
    19 1.149529 0.416498 -1.414117 1.695985 0.643381 0.384422
    20 1.263884 0.000001 0.000000 -0.009336 0.006472 0.475888
    21 1.188946 0.000000 0.000002 -0.011266 0.001942 0.214483
    22 3.773762 0.133217 -0.970574 0.032715 0.177469 0.050100
    23 1.433458 0.000004 0.000000 -0.035223 0.012955 0.451859
    24 1.019165 0.000011 0.000000 -0.035247 0.013003 0.452158
    25 3.799517 0.014957 -0.039958 -0.033200 -0.011856 0.276310
    26 1.774879 0.000004 0.000000 -0.022399 0.008917 0.454686
    27 1.008841 0.000004 0.000000 -0.022387 0.008929 0.454767
    28 3.632765 0.059053 0.757493 -0.281201 -0.185819 0.459243
    29 1.500135 0.000004 0.000000 -0.017006 0.006568 0.424967
    30 0.905668 0.000002 -0.000001 -0.016994 0.006556 0.425005
    31 3.323332 0.233744 1.479075 -0.398980 -0.449085 0.621371
    32 0.963099 0.000010 0.000000 -0.017941 0.008941 0.549223
    33 0.682898 -0.000002 0.000000 -0.017989 0.008941 0.549349
    34 15.700086 -8.607043 -10.299865 0.374039 -0.009302 -2.392311
    35 -7.077937 -5.807412 -8.909187 -0.390868 -0.697213 -1.493213
    36 0.000000 3.992340 0.007782 1.570796 0.000000 -1.570796
    37 18.938078 2.250069 5.406415 1.059525 0.782695 0.902723
    38 -0.021929 2.029111 -0.137266 -1.570805 0.000001 0.000000
    39 0.019532 0.000000 0.007813 -2.919197 0.000000 0.000001
    40 0.002397 -0.669111 0.409449 -0.330147 0.000000 0.000000
    41 -0.002402 -6.221447 0.929182 -0.890280 0.000000 0.000000
  time 10
    0 -7.093562 -5.799599 -8.909187 -1.963207 -0.698054 -1.493887
    1 10.295578 0.000000 0.000002 2.872949 -0.061712 -0.249569
    2 15.528205 -9.009399 -10.112359 -0.687288 -0.029660 -2.384175
    3 10.295582 0.000001 -0.000006 -0.815930 0.186593 -0.037253
    4 1.149520 0.416502 1.414117 -1.889028 -0.229389 0.425935
    5 1.263885 0.000000 -0.000008 0.144954 0.166118 0.209494
    6 1.188939 -0.000002 0.000010 0.006016 0.001246 -0.143486
    7 3.773755 0.133215 0.970575 0.109660 -0.040965 0.208380
    8 1.433456 0.000000 0.000000 0.098358 -0.037620 0.442481
    9 1.019165 -0.000006 0.000001 0.075563 -0.004998 0.812457
    10 3.799514 0.014957 0.039959 -0.022568 0.068472 0.344653
    11 1.774878 0.000000 0.000000 0.094151 -0.003691 0.179137
    12 1.008844 -0.000004 0.000000 0.107502 -0.013650 0.214221
    13 3.632766 0.059052 -0.757493 0.035198 0.112150 0.368933
    14 1.500137 0.000002 0.000000 0.107598 0.057826 0.098916
    15 0.905666 -0.000002 -0.000001 0.111792 0.048741 0.179946
    16 3.323331 0.233744 -1.479075 0.088104 0.268169 -0.138330
    17 0.963100 0.000011 0.000000 0.073490 0.035379 0.426696
    18 0.682894 -0.000006 -0.000001 0.055501 0.059995 0.051851
    19 1.149529 0.416498 -1.414117 1.695985 0.643381 0.384422
    20 1.263884 0.000001 0.000000 -0.009336 0.006472 0.475888
    21 1.188946 0.000000 0.000002 -0.011266 0.001942 0.214483
    22 3.773762 0.133217 -0.970574 0.033338 0.177193 0.053714
    23 1.433458 0.000004 0.000000 -0.034623 0.014190 0.482117
    24 1.019165 0.000011 0.000000 -0.035247 0.013003 0.452158
    25 3.799517 0.014957 -0.039958 -0.033259 -0.011712 0.284255
    26 1.774879 0.000004 0.000000 -0.022171 0.009132 0.472761
    27 1.008841 0.000004 0.000000 -0.022387 0.008929 0.454767
    28 3.632765 0.059053 0.757493 -0.283442 -0.182259 0.471244
    29 1.500135 0.000004 0.000000 -0.017006 0.006568 0.424967
    30 0.905668 0.000002 -0.000001 -0.016994 0.006556 0.425005
    31 3.323332 0.233744 1.479075 -0.402211 -0.445262 0.628404
    32 0.963099 0.000010 0.000000 -0.017929 0.008941 0.551644
    33 0.682898 -0.000002 0.000000 -0.017989 0.008941 0.549349
    34 15.528205 -9.009399 -10.112359 0.397008 -0.029656 -2.384175
    35 -7.093562 -5.799599 -8.909187 -0.386677 -0.698075 -1.493691
    36 0.000000 3.992340 0.007782 1.570796 0.000000 -1.570796
    37 18.871670 2.187567 5.308756 1.309028 0.941392 1.338654
    38 -0.021929 2.029111 -0.137266 -1.570805 0.000001 0.000000
    39 0.019532 0.000000 0.007813 -2.661809 0.000000 0.000001
    40 0.002397 -0.669111 0.409449 0.184910 0.000000 0.000000
    41 -0.002402 -6.221447 0.929182 -0.890280 0.000000 0.000000
  time 11
    0 -7.077937 -5.756629 -8.971689 -1.961871 -0.696455 -1.492548
    1 10.295578 0.000000 0.000002 2.873631 -0.036673 -0.260183
    2 15.379763 -9.446912 -9.835007 -0.658836 -0.049728 -2.365621
    3 10.295582 0.000001 -0.000006 -0.749094 0.110315 -0.160712
    4 1.149520 0.416502 1.414117 -1.857328 -0.278682 0.409692
    5 1.263885 0.000000 -0.000008 0.124052 0.134323 0.264519
    6 1.188939 -0.000002 0.000010 0.006124 0.001151 -0.110306
    7 3.773755 0.133215 0.970575 0.114438 -0.079087 0.233000
    8 1.433456 0.000000 0.000000 0.097662 -0.050156 0.472504
    9 1.019165 -0.000006 0.000001 0.065700 -0.031687 0.806215
    10 3.799514 0.014957 0.039959 -0.022568 0.068472 0.344907
    11 1.774878 0.000000 0.000000 0.094151 -0.003703 0.179279
    12 1.008844 -0.000004 0.000000 0.107502 -0.013650 0.214221
    13 3.632766 0.059052 -0.757493 0.035198 0.112102 0.368989
    14 1.500137 0.000002 0.000000 0.107598 0.057814 0.098963
    15 0.905666 -0.000002 -0.000001 0.111792 0.048729 0.180038
    16 3.323331 0.233744 -1.479075 0.079775 0.271624 -0.170261
    17 0.963100 0.000011 0.000000 0.072459 0.037704 0.395540
    18 0.682894 -0.000006 -0.000001 0.052696 0.062344 0.009257
    19 1.149529 0.416498 -1.414117 1.695985 0.643381 0.384422
    20 1.263884 0.000001 0.000000 -0.009336 0.006472 0.475888
    21 1.188946 0.000000 0.000002 -0.011266 0.001942 0.214483
    22 3.773762 0.133217 -0.970574 0.035196 0.177014 0.064305
    23 1.433458 0.000004 0.000000 -0.033233 0.017174 0.570308
    24 1.019165 0.000011 0.000000 -0.035247 0.013003 0.452158
    25 3.799517 0.014957 -0.039958 -0.033727 -0.010933 0.309393
    26 1.774879 0.000004 0.000000 -0.021824 0.010451 0.525887
    27 1.008841 0.000004 0.000000 -0.022387 0.008929 0.454767
    28 3.632765 0.059053 0.757493 -0.289662 -0.172060 0.506353
    29 1.500135 0.000004 0.000000 -0.017006 0.006568 0.424967
    30 0.905668 0.000002 -0.000001 -0.016994 0.006556 0.425005
    31 3.323332 0.233744 1.479075 -0.411539 -0.434045 0.648561
    32 0.963099 0.000010 0.000000 -0.017797 0.009036 0.558732
    33 0.682898 -0.000002 0.000000 -0.017989 0.008941 0.549349
    34 15.379763 -9.446912 -9.835007 0.425696 -0.049722 -2.365621
    35 -7.077937 -5.756629 -8.971689 -0.382425 -0.696734 -1.492352
    36 0.000000 3.992340 0.007782 1.570796 0.000000 -1.570796
    37 18.750572 2.175848 5.328288 -1.358375 2.127322 -1.205366
    38 -0.021929 2.029111 -0.137266 -1.570805 0.000001 0.000000
    39 0.019532 0.000000 0.007813 -2.432743 0.000000 0.000001
    40 0.002397 -0.669111 0.409449 0.811580 0.000000 0.000000
    41 -0.002402 -6.221447 0.929182 -0.890280 0.000000 0.000000
  time 12
    0 -6.999810 -5.639438 -9.131850 -1.957269 -0.691188 -1.487766
    1 10.295578 0.000000 0.000002 2.870562 -0.006636 -0.274106
    2 15.250853 -9.880519 -9.518591 -0.629399 -0.067189 -2.340502
    3 10.295582 0.000001 -0.000006 -0.671946 0.016388 -0.299515
    4 1.149520 0.416502 1.414117 -1.769576 -0.349131 0.363355
    5 1.263885 0.000000 -0.000008 0.093708 0.089513 0.339964
    6 1.188939 -0.000002 0.000010 0.006268 0.001031 -0.078180
    7 3.773755 0.133215 0.970575 0.114897 -0.110199 0.244653
    8 1.433456 0.000000 0.000000 0.097614 -0.049341 0.568722
    9 1.019165 -0.000006 0.000001 0.054051 -0.069607 0.875928
    10 3.799514 0.014957 0.039959 -0.022568 0.068472 0.345162
    11 1.774878 0.000000 0.000000 0.094139 -0.003919 0.179611
    12 1.008844 -0.000004 0.000000 0.107502 -0.013650 0.214340
    13 3.632766 0.059052 -0.757493 0.035328 0.112066 0.369212
    14 1.500137 0.000002 0.000000 0.107598 0.057814 0.099151
    15 0.905666 -0.000002 -0.000001 0.111792 0.048729 0.180130
    16 3.323331 0.233744 -1.479075 0.079883 0.271544 -0.169851
    17 0.963100 0.000011 0.000000 0.072447 0.037704 0.395496
    18 0.682894 -0.000006 -0.000001 0.052708 0.062296 0.009476
    19 1.149529 0.416498 -1.414117 1.695985 0.643381 0.384422
    20 1.263884 0.000001 0.000000 -0.009336 0.006472 0.475888
    21 1.188946 0.000000 0.000002 -0.011266 0.001942 0.214483
    22 3.773762 0.133217 -0.970574 0.037772 0.176318 0.079926
    23 1.433458 0.000004 0.000000 -0.030728 0.021345 0.700163
    24 1.019165 0.000011 0.000000 -0.035247 0.013003 0.452158
    25 3.799517 0.014957 -0.039958 -0.033979 -0.009543 0.345174
    26 1.774879 0.000004 0.000000 -0.020745 0.012033 0.603765
    27 1.008841 0.000004 0.000000 -0.022387 0.008929 0.454767
    28 3.632765 0.059053 0.757493 -0.298075 -0.156996 0.557750
    29 1.500135 0.000004 0.000000 -0.017006 0.006568 0.424967
    30 0.905668 0.000002 -0.000001 -0.016994 0.006556 0.425005
    31 3.323332 0.233744 1.479075 -0.424855 -0.417087 0.677880
    32 0.963099 0.000010 0.000000 -0.017641 0.009396 0.569225
    33 0.682898 -0.000002 0.000000 -0.017989 0.008941 0.549349
    34 15.250853 -9.880519 -9.518591 0.455134 -0.067163 -2.340430
    35 -6.999810 -5.639438 -9.131850 -0.378419 -0.692232 -1.487857
    36 0.000000 3.992340 0.007782 1.570796 0.000000 -1.570796
    37 18.598224 1.988342 5.468917 -0.851704 2.324977 -0.608789
    38 -0.021929 2.029111 -0.137266 -1.570805 0.000001 0.000000
    39 0.019532 0.000000 0.007813 -2.160141 0.000000 0.000001
    40 0.002397 -0.669111 0.409449 1.182767 0.000000 0.000000
    41 -0.002402 -6.221447 0.929182 -0.890280 0.000000 0.000000
  time 13
    0 -6.894338 -5.502715 -9.346700 -1.950366 -0.684134 -1.481071
    1 10.295578 0.000000 0.000002 2.877041 0.033931 -0.285875
    2 15.137568 -10.259437 -9.182643 -0.603164 -0.080525 -2.312956
    3 10.295582 0.000001 -0.000006 -0.591321 -0.084400 -0.436679
    4 1.149520 0.416502 1.414117 -1.714998 -0.338606 0.354038
    5 1.263885 0.000000 -0.000008 0.072711 0.062751 0.381985
    6 1.188939 -0.000002 0.000010 0.006328 0.000851 -0.047979
    7 3.773755 0.133215 0.970575 0.097151 -0.090748 0.245792
    8 1.433456 0.000000 0.000000 0.098034 -0.040784 0.708980
    9 1.019165 -0.000006 0.000001 0.075815 -0.092581 1.056210
    10 3.799514 0.014957 0.039959 -0.022568 0.068472 0.345518
    11 1.774878 0.000000 0.000000 0.094139 -0.003979 0.179943
    12 1.008844 -0.000004 0.000000 0.107502 -0.013650 0.214340
    13 3.632766 0.059052 -0.757493 0.035341 0.112018 0.369658
    14 1.500137 0.000002 0.000000 0.107610 0.057802 0.099292
    15 0.905666 -0.000002 -0.000001 0.111804 0.048705 0.180375
    16 3.323331 0.233744 -1.479075 0.079979 0.271450 -0.169265
    17 0.963100 0.000011 0.000000 0.072447 0.037716 0.395496
    18 0.682894 -0.000006 -0.000001 0.052912 0.062236 0.010045
    19 1.149529 0.416498 -1.414117 1.695985 0.643381 0.384422
    20 1.263884 0.000001 0.000000 -0.009336 0.006472 0.475888
    21 1.188946 0.000000 0.000002 -0.011266 0.001942 0.214483
    22 3.773762 0.133217 -0.970574 0.040685 0.175707 0.095514
    23 1.433458 0.000004 0.000000 -0.027708 0.025204 0.829889
    24 1.019165 0.000011 0.000000 -0.035247 0.013003 0.452158
    25 3.799517 0.014957 -0.039958 -0.034398 -0.008477 0.381706
    26 1.774879 0.000004 0.000000 -0.019823 0.013603 0.681643
    27 1.008841 0.000004 0.000000 -0.022387 0.008929 0.454767
    28 3.632765 0.059053 0.757493 -0.305505 -0.141176 0.608848
    29 1.500135 0.000004 0.000000 -0.017006 0.006568 0.424967
    30 0.905668 0.000002 -0.000001 -0.016994 0.006556 0.425005
    31 3.323332 0.233744 1.479075 -0.437574 -0.399817 0.706633
    32 0.963099 0.000010 0.000000 -0.017521 0.009600 0.579718
    33 0.682898 -0.000002 0.000000 -0.017989 0.008941 0.549349
    34 15.137568 -10.259437 -9.182643 0.481197 -0.080480 -2.313169
    35 -6.894338 -5.502715 -9.346700 -0.375584 -0.684761 -1.480875
    36 0.000000 3.992340 0.007782 1.570796 0.000000 -1.570796
    37 18.438063 1.628956 5.425947 -0.658636 2.643707 -0.297910
    38 -0.021929 2.029111 -0.137266 -1.570805 0.000001 0.000000
    39 0.019532 0.000000 0.007813 -1.826493 0.000000 0.000001
    40 0.002397 -0.669111 0.409449 1.478023 0.000000 0.000000
    41 -0.002402 -6.221447 0.929182 -0.890280 0.000000 0.000000
  time 14
    0 -6.781053 -5.354273 -9.565457 -1.942275 -0.675293 -1.473420
    1 10.295578 0.000000 0.000002 2.870221 0.058558 -0.301765
    2 15.039909 -10.552414 -8.901384 -0.583519 -0.088795 -2.286481
    3 10.295582 0.000001 -0.000006 -0.514329 -0.180195 -0.553238
    4 1.149520 0.416502 1.414117 -1.716227 -0.288161 0.375740
    5 1.263885 0.000000 -0.000008 0.051749 0.049257 0.382418
    6 1.188939 -0.000002 0.000010 0.006340 0.000539 -0.023094
    7 3.773755 0.133215 0.970575 0.076278 -0.008546 0.114981
    8 1.433456 0.000000 0.000000 0.092845 -0.046476 0.881612
    9 1.019165 -0.000006 0.000001 0.110810 -0.081927 1.211335
    10 3.799514 0.014957 0.039959 -0.022568 0.068472 0.346128
    11 1.774878 0.000000 0.000000 0.094139 -0.004003 0.180559
    12 1.008844 -0.000004 0.000000 0.107502 -0.013662 0.214459
    13 3.632766 0.059052 -0.757493 0.035367 0.111862 0.370326
    14 1.500137 0.000002 0.000000 0.107622 0.057778 0.099668
    15 0.905666 -0.000002 -0.000001 0.111876 0.048693 0.180743
    16 3.323331 0.233744 -1.479075 0.080087 0.271383 -0.168269
    17 0.963100 0.000011 0.000000 0.072447 0.037716 0.395322
    18 0.682894 -0.000006 -0.000001 0.052984 0.062224 0.010789
    19 1.149529 0.416498 -1.414117 1.695985 0.643381 0.384422
    20 1.263884 0.000001 0.000000 -0.009336 0.006472 0.475888
    21 1.188946 0.000000 0.000002 -0.011266 0.001942 0.214483
    22 3.773762 0.133217 -0.970574 0.042362 0.175420 0.106075
    23 1.433458 0.000004 0.000000 -0.025371 0.027565 0.918080
    24 1.019165 0.000011 0.000000 -0.035247 0.013003 0.452158
    25 3.799517 0.014957 -0.039958 -0.034590 -0.007566 0.406143
    26 1.774879 0.000004 0.000000 -0.019044 0.014573 0.734647
    27 1.008841 0.000004 0.000000 -0.022387 0.008929 0.454767
    28 3.632765 0.059053 0.757493 -0.310227 -0.130246 0.643472
    29 1.500135 0.000004 0.000000 -0.017006 0.006568 0.424967
    30 0.905668 0.000002 -0.000001 -0.016994 0.006556 0.425005
    31 3.323332 0.233744 1.479075 -0.446000 -0.387712 0.726116
    32 0.963099 0.000010 0.000000 -0.017498 0.009684 0.586831
    33 0.682898 -0.000002 0.000000 -0.017989 0.008941 0.549349
    34 15.039909 -10.552414 -8.901384 0.500885 -0.088748 -2.286479
    35 -6.781053 -5.354273 -9.565457 -0.376570 -0.676332 -1.473224
    36 0.000000 3.992340 0.007782 1.570796 0.000000 -1.570796
    37 18.227119 1.296915 5.234535 -0.610441 2.727544 -0.227669
    38 -0.021929 2.029111 -0.137266 -1.570805 0.000001 0.000000
    39 0.019532 0.000000 0.007813 -1.465097 0.000000 0.000001
    40 0.002397 -0.669111 0.409449 1.696111 0.000000 0.000000
    41 -0.002402 -6.221447 0.929182 -0.890280 0.000000 0.000000
  time 15
    0 -6.628705 -5.272240 -9.721712 -1.934259 -0.668051 -1.463473
    1 10.295578 0.000000 0.000002 2.718339 -0.031748 -0.351651
    2 14.965688 -10.739920 -8.741223 -0.572680 -0.091292 -2.266714
    3 10.295582 0.000001 -0.000006 -0.449954 -0.256873 -0.627157
    4 1.149520 0.416502 1.414117 -1.722100 -0.292449 0.371584
    5 1.263885 0.000000 -0.000008 0.007466 0.022052 0.371460
    6 1.188939 -0.000002 0.000010 0.006352 0.000395 -0.004487
    7 3.773755 0.133215 0.970575 0.053816 0.078798 -0.147606
    8 1.433456 0.000000 0.000000 0.083616 -0.058413 1.018795
    9 1.019165 -0.000006 0.000001 0.113147 -0.033892 1.091608
    10 3.799514 0.014957 0.039959 -0.021604 0.068484 0.361842
    11 1.774878 0.000000 0.000000 0.093863 -0.005453 0.196106
    12 1.008844 -0.000004 0.000000 0.107466 -0.014070 0.216885
    13 3.632766 0.059052 -0.757493 0.035393 0.109393 0.385710
    14 1.500137 0.000002 0.000000 0.108113 0.056495 0.109771
    15 0.905666 -0.000002 -0.000001 0.112368 0.047747 0.190582
    16 3.323331 0.233744 -1.479075 0.082028 0.268169 -0.147587
    17 0.963100 0.000011 0.000000 0.072399 0.037716 0.394146
    18 0.682894 -0.000006 -0.000001 0.053835 0.061493 0.024841
    19 1.149529 0.416498 -1.414117 1.695985 0.643381 0.384422
    20 1.263884 0.000001 0.000000 -0.009336 0.006472 0.475888
    21 1.188946 0.000000 0.000002 -0.011266 0.001942 0.214483
    22 3.773762 0.133217 -0.970574 0.042446 0.175396 0.106609
    23 1.433458 0.000004 0.000000 -0.024892 0.028092 0.940203
    24 1.019165 0.000011 0.000000 -0.035247 0.013003 0.452158
    25 3.799517 0.014957 -0.039958 -0.034650 -0.007266 0.412590
    26 1.774879 0.000004 0.000000 -0.018960 0.014993 0.747959
    27 1.008841 0.000004 0.000000 -0.022387 0.008929 0.454767
    28 3.632765 0.059053 0.757493 -0.311557 -0.126998 0.653163
    29 1.500135 0.000004 0.000000 -0.017006 0.006568 0.424967
    30 0.905668 0.000002 -0.000001 -0.016994 0.006556 0.425005
    31 3.323332 0.233744 1.479075 -0.448052 -0.384680 0.730805
    32 0.963099 0.000010 0.000000 -0.017498 0.009684 0.588647
    33 0.682898 -0.000002 0.000000 -0.017989 0.008941 0.549349
    34 14.965688 -10.739920 -8.741223 0.511479 -0.091245 -2.266640
    35 -6.628705 -5.272240 -9.721712 -0.443437 -0.668765 -1.463277
    36 0.000000 3.992340 0.007782 1.570796 0.000000 -1.570796
    37 17.938047 0.843776 4.535295 -0.395718 2.637883 -0.175130
    38 -0.021929 2.029111 -0.137266 -1.570805 0.000001 0.000000
    39 0.019532 0.000000 0.007813 -1.072508 0.000000 0.000001
    40 0.002397 -0.669111 0.409449 1.755676 0.000000 0.000000
    41 -0.002402 -6.221447 0.929182 -0.890280 0.000000 0.000000
  time 16
    0 -6.452918 -5.268333 -9.788120 -1.925129 -0.657423 -1.453909
    1 10.295578 0.000000 0.000002 2.368745 -0.258700 -0.375751
    2 14.918812 -10.818048 -8.682628 -0.570894 -0.088035 -2.256224
    3 10.295582 0.000001 -0.000006 -0.403196 -0.306981 -0.646275
    4 1.149520 0.416502 1.414117 -1.731954 -0.301379 0.363219
    5 1.263885 0.000000 -0.000008 -0.055585 -0.018804 0.358791
    6 1.188939 -0.000002 0.000010 0.006352 0.000348 0.015861
    7 3.773755 0.133215 0.970575 0.040240 0.119030 -0.111508
    8 1.433456 0.000000 0.000000 0.091383 -0.042162 0.835537
    9 1.019165 -0.000006 0.000001 0.107706 0.018277 0.851108
    10 3.799514 0.014957 0.039959 -0.017919 0.068460 0.423479
    11 1.774878 0.000000 0.000000 0.093564 -0.011206 0.257346
    12 1.008844 -0.000004 0.000000 0.107334 -0.015125 0.226541
    13 3.632766 0.059052 -0.757493 0.035638 0.100057 0.446351
    14 1.500137 0.000002 0.000000 0.109959 0.052217 0.150185
    15 0.905666 -0.000002 -0.000001 0.113973 0.043228 0.228835
    16 3.323331 0.233744 -1.479075 0.090238 0.255258 -0.065855
    17 0.963100 0.000011 0.000000 0.072087 0.038183 0.389309
    18 0.682894 -0.000006 -0.000001 0.057131 0.058449 0.079473
    19 1.149529 0.416498 -1.414117 1.695985 0.643381 0.384422
    20 1.263884 0.000001 0.000000 -0.009336 0.006472 0.475888
    21 1.188946 0.000000 0.000002 -0.011266 0.001942 0.214483
    22 3.773762 0.133217 -0.970574 0.040469 0.175707 0.094289
    23 1.433458 0.000004 0.000000 -0.025779 0.027289 0.908267
    24 1.019165 0.000011 0.000000 -0.035247 0.013003 0.452158
    25 3.799517 0.014957 -0.039958 -0.034614 -0.007734 0.403595
    26 1.774879 0.000004 0.000000 -0.019067 0.014489 0.728744
    27 1.008841 0.000004 0.000000 -0.022387 0.008929 0.454767
    28 3.632765 0.059053 0.757493 -0.310862 -0.129096 0.644590
    29 1.500135 0.000004 0.000000 -0.017006 0.006568 0.424967
    30 0.905668 0.000002 -0.000001 -0.016994 0.006556 0.425005
    31 3.323332 0.233744 1.479075 -0.445025 -0.389139 0.723960
    32 0.963099 0.000010 0.000000 -0.017498 0.009684 0.586049
    33 0.682898 -0.000002 0.000000 -0.017989 0.008941 0.549349
    34 14.918812 -10.818048 -8.682628 0.513354 -0.088024 -2.256435
    35 -6.452918 -5.268333 -9.788120 -0.801559 -0.658516 -1.451800
    36 0.000000 3.992340 0.007782 1.570796 0.000000 -1.570796
    37 18.035707 0.000000 3.043062 0.116319 2.486634 0.093813
    38 -0.021929 2.029111 -0.137266 -1.570805 0.000001 0.000000
    39 0.019532 0.000000 0.007813 -0.647004 0.000000 0.000001
    40 0.002397 -0.669111 0.409449 1.754534 0.000000 0.000000
    41 -0.002402 -6.221447 0.929182 -0.890280 0.000000 0.000000
  time 17
    0 -6.327914 -5.237082 -9.854528 -1.915628 -0.639647 -1.451901
    1 10.295578 0.000000 0.000002 1.937993 -0.425384 -0.276260
    2 14.887561 -10.798516 -8.713879 -0.574466 -0.080706 -2.251300
    3 10.295582 0.000001 -0.000006 -0.368509 -0.335952 -0.624641
    4 1.149520 0.416502 1.414117 -1.731954 -0.343160 0.333884
    5 1.263885 0.000000 -0.000008 -0.135630 -0.089944 0.396897
    6 1.188939 -0.000002 0.000010 0.006364 0.000192 0.047529
    7 3.773755 0.133215 0.970575 0.059351 0.106806 0.257007
    8 1.433456 0.000000 0.000000 0.100107 -0.007946 0.491313
    9 1.019165 -0.000006 0.000001 0.109132 0.022795 0.900299
    10 3.799514 0.014957 0.039959 -0.010339 0.067537 0.542429
    11 1.774878 0.000000 0.000000 0.091383 -0.022148 0.375417
    12 1.008844 -0.000004 0.000000 0.106939 -0.017150 0.245164
    13 3.632766 0.059052 -0.757493 0.035587 0.082440 0.563733
    14 1.500137 0.000002 0.000000 0.112979 0.043324 0.227158
    15 0.905666 -0.000002 -0.000001 0.117042 0.034635 0.302827
    16 3.323331 0.233744 -1.479075 0.104224 0.228151 0.092102
    17 0.963100 0.000011 0.000000 0.071896 0.038698 0.380071
    18 0.682894 -0.000006 -0.000001 0.063087 0.051833 0.187116
    19 1.149529 0.416498 -1.414117 1.695985 0.643381 0.384422
    20 1.263884 0.000001 0.000000 -0.009336 0.006472 0.475888
    21 1.188946 0.000000 0.000002 -0.011266 0.001942 0.214483
    22 3.773762 0.133217 -0.970574 0.036190 0.176786 0.070780
    23 1.433458 0.000004 0.000000 -0.027397 0.025479 0.847622
    24 1.019165 0.000011 0.000000 -0.035247 0.013003 0.452158
    25 3.799517 0.014957 -0.039958 -0.034494 -0.008153 0.386453
    26 1.774879 0.000004 0.000000 -0.019775 0.013758 0.692268
    27 1.008841 0.000004 0.000000 -0.022387 0.008929 0.454767
    28 3.632765 0.059053 0.757493 -0.309400 -0.132979 0.627968
    29 1.500135 0.000004 0.000000 -0.017006 0.006568 0.424967
    30 0.905668 0.000002 -0.000001 -0.016994 0.006556 0.425005
    31 3.323332 0.233744 1.479075 -0.439335 -0.397444 0.710648
    32 0.963099 0.000010 0.000000 -0.017498 0.009636 0.581080
    33 0.682898 -0.000002 0.000000 -0.017989 0.008941 0.549349
    34 14.887561 -10.798516 -8.713879 0.509979 -0.080733 -2.251297
    35 -6.327914 -5.237082 -9.854528 -1.524213 -0.640796 -1.450557
    36 0.000000 3.992340 0.007782 1.570796 0.000000 -1.570796
    37 18.563066 -1.191443 2.000061 0.750521 2.300723 0.590424
    38 -0.021929 2.029111 -0.137266 -1.570805 0.000001 0.000000
    39 0.019532 0.000000 0.007813 -0.230973 0.000000 0.000001
    40 0.002397 -0.669111 0.409449 1.671847 0.000000 0.000000
    41 -0.002402 -6.221447 0.929182 -0.890280 0.000000 0.000000
  time 18
    0 -6.269319 -5.166768 -9.963907 -1.907760 -0.621871 -1.453622
    1 10.295578 0.000000 0.000002 1.502876 -0.450059 -0.113741
    2 14.856310 -10.786797 -8.776381 -0.579639 -0.071731 -2.247161
    3 10.295582 0.000001 -0.000006 -0.339134 -0.353011 -0.584479
    4 1.149520 0.416502 1.414117 -1.724975 -0.487406 0.309004
    5 1.263885 0.000000 -0.000008 -0.236049 -0.184790 0.541610
    6 1.188939 -0.000002 0.000010 0.006352 -0.000096 0.103990
    7 3.773755 0.133215 0.970575 0.059897 0.107716 0.348128
    8 1.433456 0.000000 0.000000 0.101174 -0.008701 0.560990
    9 1.019165 -0.000006 0.000001 0.109383 0.020530 0.920895
    10 3.799514 0.014957 0.039959 0.000159 0.065152 0.703741
    11 1.774878 0.000000 0.000000 0.086709 -0.036313 0.535342
    12 1.008844 -0.000004 0.000000 0.106555 -0.019799 0.270447
    13 3.632766 0.059052 -0.757493 0.034163 0.058830 0.725927
    14 1.500137 0.000002 0.000000 0.116011 0.031472 0.328990
    15 0.905666 -0.000002 -0.000001 0.119990 0.022819 0.403180
    16 3.323331 0.233744 -1.479075 0.119444 0.187370 0.310816
    17 0.963100 0.000011 0.000000 0.071165 0.039969 0.364688
    18 0.682894 -0.000006 -0.000001 0.070098 0.041886 0.336302
    19 1.149529 0.416498 -1.414117 1.695985 0.643381 0.384422
    20 1.263884 0.000001 0.000000 -0.009336 0.006472 0.475888
    21 1.188946 0.000000 0.000002 -0.011266 0.001942 0.214483
    22 3.773762 0.133217 -0.970574 0.031349 0.177781 0.042462
    23 1.433458 0.000004 0.000000 -0.029182 0.023442 0.768211
    24 1.019165 0.000011 0.000000 -0.035247 0.013003 0.452158
    25 3.799517 0.014957 -0.039958 -0.034122 -0.008908 0.364465
    26 1.774879 0.000004 0.000000 -0.020422 0.012824 0.644719
    27 1.008841 0.000004 0.000000 -0.022387 0.008929 0.454767
    28 3.632765 0.059053 0.757493 -0.307123 -0.138444 0.605344
    29 1.500135 0.000004 0.000000 -0.017006 0.006568 0.424967
    30 0.905668 0.000002 -0.000001 -0.016994 0.006556 0.425005
    31 3.323332 0.233744 1.479075 -0.431622 -0.407894 0.693159
    32 0.963099 0.000010 0.000000 -0.017605 0.009516 0.574648
    33 0.682898 -0.000002 0.000000 -0.017989 0.008941 0.549349
    34 14.856310 -10.786797 -8.776381 0.504635 -0.071741 -2.247158
    35 -6.269319 -5.166768 -9.963907 -2.193744 -0.621926 -1.451609
    36 0.000000 3.992340 0.007782 1.570796 0.000000 -1.570796
    37 19.313089 -2.347728 1.773492 1.300884 2.320393 1.085331
    38 -0.021929 2.029111 -0.137266 -1.570805 0.000001 0.000000
    39 0.019532 0.000000 0.007813 0.000007 0.000000 0.000001
    40 0.002397 -0.669111 0.409449 1.567941 0.000000 0.000000
    41 -0.002402 -6.221447 0.929182 -0.890280 0.000000 0.000000
  time 19
    0 -6.230255 -4.963636 -10.155319 -1.898482 -0.593373 -1.459743
    1 10.295578 0.000000 0.000002 1.174697 -0.403863 -0.016404
    2 14.840684 -10.755546 -8.838882 -0.585305 -0.062720 -2.244164
    3 10.295582 0.000001 -0.000006 -0.315774 -0.360520 -0.535130
    4 1.149520 0.416502 1.414117 -1.815627 -0.677206 0.448397
    5 1.263885 0.000000 -0.000008 -0.289452 -0.208784 0.636098
    6 1.188939 -0.000002 0.000010 0.006316 -0.000515 0.197618
    7 3.773755 0.133215 0.970575 0.061560 0.107596 0.526032
    8 1.433456 0.000000 0.000000 0.101977 -0.010546 0.697269
    9 1.019165 -0.000006 0.000001 0.110174 0.015940 0.961378
    10 3.799514 0.014957 0.039959 0.013031 0.061700 0.894448
    11 1.774878 0.000000 0.000000 0.078283 -0.052133 0.723754
    12 1.008844 -0.000004 0.000000 0.105920 -0.022939 0.300415
    13 3.632766 0.059052 -0.757493 0.029723 0.032620 0.925854
    14 1.500137 0.000002 0.000000 0.118480 0.017486 0.444779
    15 0.905666 -0.000002 -0.000001 0.121716 0.008173 0.522536
    16 3.323331 0.233744 -1.479075 0.131249 0.134589 0.577397
    17 0.963100 0.000011 0.000000 0.070230 0.041694 0.338195
    18 0.682894 -0.000006 -0.000001 0.076558 0.028380 0.518976
    19 1.149529 0.416498 -1.414117 1.695985 0.643381 0.384422
    20 1.263884 0.000001 0.000000 -0.009336 0.006472 0.475888
    21 1.188946 0.000000 0.000002 -0.011266 0.001942 0.214483
    22 3.773762 0.133217 -0.970574 0.027454 0.178404 0.020651
    23 1.433458 0.000004 0.000000 -0.031268 0.020602 0.681225
    24 1.019165 0.000011 0.000000 -0.035247 0.013003 0.452158
    25 3.799517 0.014957 -0.039958 -0.033955 -0.009759 0.340177
    26 1.774879 0.000004 0.000000 -0.021081 0.011877 0.592407
    27 1.008841 0.000004 0.000000 -0.022387 0.008929 0.454767
    28 3.632765 0.059053 0.757493 -0.303744 -0.145850 0.577876
    29 1.500135 0.000004 0.000000 -0.017006 0.006568 0.424967
    30 0.905668 0.000002 -0.000001 -0.016994 0.006556 0.425005
    31 3.323332 0.233744 1.479075 -0.422963 -0.419484 0.673676
    32 0.963099 0.000010 0.000000 -0.017653 0.009372 0.567661
    33 0.682898 -0.000002 0.000000 -0.017989 0.008941 0.549349
    34 14.840684 -10.755546 -8.838882 0.499010 -0.062748 -2.244161
    35 -6.230255 -4.963636 -10.155319 -2.651581 -0.593478 -1.458782
    36 0.000000 3.992340 0.007782 1.570796 0.000000 -1.570796
    37 19.875607 -3.351665 2.015687 4.710282 0.693034 -1.763793
    38 -0.021929 2.029111 -0.137266 -1.570805 0.000001 0.000000
    39 0.019532 0.000000 0.007813 0.000007 0.000000 0.000001
    40 0.002397 -0.669111 0.409449 1.561471 0.000000 0.000000
    41 -0.002402 -6.221447 0.929182 -0.890280 0.000000 0.000000
  time 20
    0 -6.199004 -4.737067 -10.374076 -1.888981 -0.559796 -1.467012
    1 10.295578 0.000000 0.000002 0.906534 -0.241425 -0.044625
    2 14.825059 -10.724295 -8.901384 -0.589985 -0.055120 -2.242166
    3 10.295582 0.000001 -0.000006 -0.299134 -0.361073 -0.484427
    4 1.149520 0.416502 1.414117 -1.919868 -0.674371 0.587193
    5 1.263885 0.000000 -0.000008 -0.250945 -0.183101 0.587959
    6 1.188939 -0.000002 0.000010 0.006100 -0.001282 0.327130
    7 3.773755 0.133215 0.970575 0.064141 0.103570 0.755281
    8 1.433456 0.000000 0.000000 0.100790 -0.014058 0.872885
    9 1.019165 -0.000006 0.000001 0.110833 0.010223 1.013560
    10 3.799514 0.014957 0.039959 0.027396 0.057601 1.101073
    11 1.774878 0.000000 0.000000 0.066311 -0.066790 0.927239
    12 1.008844 -0.000004 0.000000 0.105141 -0.026498 0.333142
    13 3.632766 0.059052 -0.757493 0.021930 0.006374 1.152814
    14 1.500137 0.000002 0.000000 0.119954 0.002900 0.563623
    15 0.905666 -0.000002 -0.000001 0.121716 -0.007490 0.652682
    16 3.323331 0.233744 -1.479075 0.134365 0.073464 0.878839
    17 0.963100 0.000011 0.000000 0.068480 0.044583 0.298759
    18 0.682894 -0.000006 -0.000001 0.080692 0.012021 0.726383
    19 1.149529 0.416498 -1.414117 1.695985 0.643381 0.384422
    20 1.263884 0.000001 0.000000 -0.009336 0.006472 0.475888
    21 1.188946 0.000000 0.000002 -0.011266 0.001942 0.214483
    22 3.773762 0.133217 -0.970574 0.025788 0.178596 0.011191
    23 1.433458 0.000004 0.000000 -0.032970 0.017989 0.595918
    24 1.019165 0.000011 0.000000 -0.035247 0.013003 0.452158
    25 3.799517 0.014957 -0.039958 -0.033787 -0.010514 0.316039
    26 1.774879 0.000004 0.000000 -0.021452 0.010630 0.541072
    27 1.008841 0.000004 0.000000 -0.022387 0.008929 0.454767
    28 3.632765 0.059053 0.757493 -0.299022 -0.155294 0.547314
    29 1.500135 0.000004 0.000000 -0.017006 0.006568 0.424967
    30 0.905668 0.000002 -0.000001 -0.016994 0.006556 0.425005
    31 3.323332 0.233744 1.479075 -0.414217 -0.430701 0.654327
    32 0.963099 0.000010 0.000000 -0.017773 0.009084 0.560775
    33 0.682898 -0.000002 0.000000 -0.017989 0.008941 0.549349
    34 14.825059 -10.724295 -8.901384 0.494041 -0.055113 -2.242448
    35 -6.199004 -4.737067 -10.374076 0.286181 -2.579760 -4.607487
    36 0.000000 3.992340 0.007782 1.570796 0.000000 -1.570796
    37 20.184210 -3.828242 2.808679 -1.458694 0.592870 -1.493336
    38 -0.021929 2.029111 -0.137266 -1.570805 0.000001 0.000000
    39 0.019532 0.000000 0.007813 0.000007 0.000000 0.000001
    40 0.002397 -0.669111 0.409449 1.570796 0.000000 0.000000
    41 -0.002402 -6.221447 0.929182 -0.890280 0.000000 0.000000
  time 21
    0 -6.175566 -4.463621 -10.600645 -1.879777 -0.525937 -1.473611
    1 10.295578 0.000000 0.000002 0.646555 -0.049338 -0.127945
    2 14.821153 -10.693044 -8.948261 -0.593249 -0.050198 -2.241381
    3 10.295582 0.000001 -0.000006 -0.291321 -0.356632 -0.439119
    4 1.149520 0.416502 1.414117 -1.981105 -0.568450 0.679243
    5 1.263885 0.000000 -0.000008 -0.190843 -0.142173 0.512573
    6 1.188939 -0.000002 0.000010 0.005825 -0.002361 0.477219
    7 3.773755 0.133215 0.970575 0.066164 0.094018 0.998460
    8 1.433456 0.000000 0.000000 0.096919 -0.018265 1.059670
    9 1.019165 -0.000006 0.000001 0.111445 0.004075 1.068582
    10 3.799514 0.014957 0.039959 0.040672 0.052232 1.303832
    11 1.774878 0.000000 0.000000 0.051702 -0.078727 1.126316
    12 1.008844 -0.000004 0.000000 0.104134 -0.029902 0.365441
    13 3.632766 0.059052 -0.757493 0.012130 -0.016781 1.383899
    14 1.500137 0.000002 0.000000 0.120074 -0.010439 0.674572
    15 0.905666 -0.000002 -0.000001 0.119894 -0.023106 0.781203
    16 3.323331 0.233744 -1.479075 0.125353 0.011281 1.191061
    17 0.963100 0.000011 0.000000 0.066383 0.047675 0.253179
    18 0.682894 -0.000006 -0.000001 0.081363 -0.005225 0.941144
    19 1.149529 0.416498 -1.414117 1.695985 0.643381 0.384422
    20 1.263884 0.000001 0.000000 -0.009336 0.006472 0.475888
    21 1.188946 0.000000 0.000002 -0.011266 0.001942 0.214483
    22 3.773762 0.133217 -0.970574 0.025908 0.178584 0.012071
    23 1.433458 0.000004 0.000000 -0.034012 0.015328 0.522619
    24 1.019165 0.000011 0.000000 -0.035247 0.013003 0.452158
    25 3.799517 0.014957 -0.039958 -0.033463 -0.011197 0.295900
    26 1.774879 0.000004 0.000000 -0.022136 0.009720 0.497024
    27 1.008841 0.000004 0.000000 -0.022387 0.008929 0.454767
    28 3.632765 0.059053 0.757493 -0.293569 -0.165026 0.517013
    29 1.500135 0.000004 0.000000 -0.017006 0.006568 0.424967
    30 0.905668 0.000002 -0.000001 -0.016994 0.006556 0.425005
    31 3.323332 0.233744 1.479075 -0.406431 -0.440229 0.637647
    32 0.963099 0.000010 0.000000 -0.017917 0.008964 0.554898
    33 0.682898 -0.000002 0.000000 -0.017989 0.008941 0.549349
    34 14.821153 -10.693044 -8.948261 0.491041 -0.050210 -2.241449
    35 -6.175566 -4.463621 -10.600645 0.170320 -2.613955 -4.614469
    36 0.000000 3.992340 0.007782 1.570796 0.000000 -1.570796
    37 20.059206 -4.152470 3.796991 -1.388653 0.477428 -1.260177
    38 -0.021929 2.029111 -0.137266 -1.570805 0.000001 0.000000
    39 0.019532 0.000000 0.007813 0.000007 0.000000 0.000001
    40 0.002397 -0.669111 0.409449 1.570796 0.000000 0.000000
    41 -0.002402 -6.221447 0.929182 -0.890280 0.000000 0.000000
  time 22
    0 -6.144315 -4.221426 -10.811589 -1.872948 -0.498944 -1.478489
    1 10.295578 0.000000 0.000002 0.428110 0.121495 -0.226749
    2 14.793808 -10.673512 -8.959980 -0.594173 -0.049004 -2.241595
    3 10.295582 0.000001 -0.000006 -0.294017 -0.349808 -0.405095
    4 1.149520 0.416502 1.414117 -2.016491 -0.443411 0.756463
    5 1.263885 0.000000 -0.000008 -0.120038 -0.093743 0.424183
    6 1.188939 -0.000002 0.000010 0.005345 -0.003224 0.630241
    7 3.773755 0.133215 0.970575 0.066524 0.081123 1.217457
    8 1.433456 0.000000 0.000000 0.090831 -0.022160 1.228142
    9 1.019165 -0.000006 0.000001 0.111457 -0.001306 1.118634
    10 3.799514 0.014957 0.039959 0.051156 0.046408 1.481876
    11 1.774878 0.000000 0.000000 0.037344 -0.086517 1.300461
    12 1.008844 -0.000004 0.000000 0.103151 -0.032874 0.394006
    13 3.632766 0.059052 -0.757493 0.002098 -0.034110 1.595197
    14 1.500137 0.000002 0.000000 0.119343 -0.021428 0.766677
    15 0.905666 -0.000002 -0.000001 0.116322 -0.036697 0.894705
    16 3.323331 0.233744 -1.479075 0.105914 -0.043683 1.488988
    17 0.963100 0.000011 0.000000 0.064106 0.050623 0.207512
    18 0.682894 -0.000006 -0.000001 0.078727 -0.021884 1.145180
    19 1.149529 0.416498 -1.414117 1.695985 0.643381 0.384422
    20 1.263884 0.000001 0.000000 -0.009336 0.006472 0.475888
    21 1.188946 0.000000 0.000002 -0.011266 0.001942 0.214483
    22 3.773762 0.133217 -0.970574 0.027478 0.178368 0.020996
    23 1.433458 0.000004 0.000000 -0.034767 0.013603 0.471658
    24 1.019165 0.000011 0.000000 -0.035247 0.013003 0.452158
    25 3.799517 0.014957 -0.039958 -0.033271 -0.011724 0.281857
    26 1.774879 0.000004 0.000000 -0.022207 0.008941 0.466451
    27 1.008841 0.000004 0.000000 -0.022387 0.008929 0.454767
    28 3.632765 0.059053 0.757493 -0.288200 -0.174098 0.490550
    29 1.500135 0.000004 0.000000 -0.017006 0.006568 0.424967
    30 0.905668 0.000002 -0.000001 -0.016994 0.006556 0.425005
    31 3.323332 0.233744 1.479075 -0.401105 -0.446689 0.625925
    32 0.963099 0.000010 0.000000 -0.017929 0.008941 0.550736
    33 0.682898 -0.000002 0.000000 -0.017989 0.008941 0.549349
    34 14.793808 -10.673512 -8.959980 0.489916 -0.048962 -2.241663
    35 -6.144315 -4.221426 -10.811589 0.116210 -2.642307 -4.618964
    36 0.000000 3.992340 0.007782 1.570796 0.000000 -1.570796
    37 19.813105 -4.375134 4.492325 -1.303473 0.351005 -1.081923
    38 -0.021929 2.029111 -0.137266 -1.570805 0.000001 0.000000
    39 0.019532 0.000000 0.007813 0.000007 0.000000 0.000001
    40 0.002397 -0.669111 0.409449 1.570796 0.000000 0.000000
    41 -0.002402 -6.221447 0.929182 -0.890280 0.000000 0.000000
  time 23
    0 -6.144315 -4.030014 -10.971750 -1.868643 -0.481450 -1.481071
    1 10.295578 0.000000 0.000002 0.280184 0.228299 -0.295896
    2 14.821153 -10.673512 -8.952167 -0.593865 -0.049818 -2.242023
    3 10.295582 0.000001 -0.000006 -0.300696 -0.343862 -0.384337
    4 1.149520 0.416502 1.414117 -2.026394 -0.318017 0.816518
    5 1.263885 0.000000 -0.000008 -0.049209 -0.045254 0.335695
    6 1.188939 -0.000002 0.000010 0.004950 -0.003955 0.771302
    7 3.773755 0.133215 0.970575 0.065295 0.069426 1.377313
    8 1.433456 0.000000 0.000000 0.084995 -0.024916 1.351444
    9 1.019165 -0.000006 0.000001 0.111361 -0.005525 1.155042
    10 3.799514 0.014957 0.039959 0.058191 0.041015 1.617049
    11 1.774878 0.000000 0.000000 0.025683 -0.090592 1.431567
    12 1.008844 -0.000004 0.000000 0.102396 -0.035079 0.415816
    13 3.632766 0.059052 -0.757493 -0.006395 -0.045004 1.764748
    14 1.500137 0.000002 0.000000 0.118324 -0.029159 0.830351
    15 0.905666 -0.000002 -0.000001 0.112835 -0.046752 0.981816
    16 3.323331 0.233744 -1.479075 0.081477 -0.086299 1.751116
    17 0.963100 0.000011 0.000000 0.061912 0.053200 0.167902
    18 0.682894 -0.000006 -0.000001 0.073490 -0.035379 1.323783
    19 1.149529 0.416498 -1.414117 1.695985 0.643381 0.384422
    20 1.263884 0.000001 0.000000 -0.009336 0.006472 0.475888
    21 1.188946 0.000000 0.000002 -0.011266 0.001942 0.214483
    22 3.773762 0.133217 -0.970574 0.029922 0.177841 0.035611
    23 1.433458 0.000004 0.000000 -0.035223 0.012955 0.451859
    24 1.019165 0.000011 0.000000 -0.035247 0.013003 0.452158
    25 3.799517 0.014957 -0.039958 -0.033200 -0.011856 0.276310
    26 1.774879 0.000004 0.000000 -0.022399 0.008917 0.454686
    27 1.008841 0.000004 0.000000 -0.022387 0.008929 0.454767
    28 3.632765 0.059053 0.757493 -0.284101 -0.181133 0.471244
    29 1.500135 0.000004 0.000000 -0.017006 0.006568 0.424967
    30 0.905668 0.000002 -0.000001 -0.016994 0.006556 0.425005
    31 3.323332 0.233744 1.479075 -0.398980 -0.449085 0.621371
    32 0.963099 0.000010 0.000000 -0.017941 0.008941 0.549223
    33 0.682898 -0.000002 0.000000 -0.017989 0.008941 0.549349
    34 14.821153 -10.673512 -8.952167 0.490291 -0.049848 -2.242020
    35 -6.144315 -4.030014 -10.971750 0.098646 -2.659261 -4.621642
    36 0.000000 3.992340 0.007782 1.570796 0.000000 -1.570796
    37 19.688101 -4.527482 4.863430 -1.213982 0.240433 -0.983756
    38 -0.021929 2.029111 -0.137266 -1.570805 0.000001 0.000000
    39 0.019532 0.000000 0.007813 0.000007 0.000000 0.000001
    40 0.002397 -0.669111 0.409449 1.570796 0.000000 0.000000
    41 -0.002402 -6.221447 0.929182 -0.890280 0.000000 0.000000
  time 24
    0 -6.156034 -3.881572 -11.065503 -1.867233 -0.474302 -1.482219
    1 10.295578 0.000000 0.000002 0.239605 0.262412 -0.332608
    2 14.825059 -10.665699 -8.959980 -0.593434 -0.050669 -2.242594
    3 10.295582 0.000001 -0.000006 -0.305149 -0.340031 -0.371547
    4 1.149520 0.416502 1.414117 -2.019538 -0.212592 0.859514
    5 1.263885 0.000000 -0.000008 0.010499 -0.004219 0.261076
    6 1.188939 -0.000002 0.000010 0.004326 -0.004386 0.883994
    7 3.773755 0.133215 0.970575 0.064352 0.064068 1.441404
    8 1.433456 0.000000 0.000000 0.082047 -0.025959 1.400638
    9 1.019165 -0.000006 0.000001 0.111253 -0.007191 1.169694
    10 3.799514 0.014957 0.039959 0.061640 0.037503 1.689009
    11 1.774878 0.000000 0.000000 0.019487 -0.092150 1.499775
    12 1.008844 -0.000004 0.000000 0.102193 -0.036229 0.427732
    13 3.632766 0.059052 -0.757493 -0.011599 -0.048840 1.869198
    14 1.500137 0.000002 0.000000 0.117797 -0.032107 0.854928
    15 0.905666 -0.000002 -0.000001 0.110558 -0.051989 1.029632
    16 3.323331 0.233744 -1.479075 0.058982 -0.114638 1.951257
    17 0.963100 0.000011 0.000000 0.060570 0.054818 0.140405
    18 0.682894 -0.000006 -0.000001 0.068049 -0.045158 1.459661
    19 1.149529 0.416498 -1.414117 1.695985 0.643369 0.384411
    20 1.263884 0.000001 0.000000 -0.009336 0.006472 0.475871
    21 1.188946 0.000000 0.000002 -0.011266 0.001930 0.214506
    22 3.773762 0.133217 -0.970574 0.032751 0.177553 0.050162
    23 1.433458 0.000004 0.000000 -0.035247 0.012967 0.451988
    24 1.019165 0.000011 0.000000 -0.035247 0.012979 0.452158
    25 3.799517 0.014957 -0.039958 -0.033223 -0.011916 0.276310
    26 1.774879 0.000004 0.000000 -0.022483 0.008929 0.454808
    27 1.008841 0.000004 0.000000 -0.022447 0.008929 0.454767
    28 3.632765 0.059053 0.757493 -0.281213 -0.185831 0.459280
    29 1.500135 0.000004 0.000000 -0.017030 0.006580 0.424967
    30 0.905668 0.000002 -0.000001 -0.017030 0.006568 0.424967
    31 3.323332 0.233744 1.479075 -0.399082 -0.449109 0.621478
    32 0.963099 0.000010 0.000000 -0.018001 0.008941 0.549273
    33 0.682898 -0.000002 0.000000 -0.018001 0.008941 0.549349
    34 14.825059 -10.665699 -8.959980 0.490666 -0.050554 -2.242448
    35 -6.156034 -3.881572 -11.065503 -3.043722 -0.474610 -1.482214
    36 0.000000 3.992340 0.007782 1.570796 0.000000 -1.570796
    37 19.563097 -4.601703 4.984527 -1.174985 0.212742 -0.943618
    38 -0.021929 2.029111 -0.137266 -1.570805 0.000001 0.000000
    39 0.019532 0.000000 0.007813 0.000007 0.000000 0.000001
    40 0.002397 -0.669111 0.409449 1.570796 0.000000 0.000000
    41 -0.002402 -6.221447 0.929182 -0.816043 0.000000 0.000000
  time 25
    0 -6.156034 -3.881572 -11.065503 -1.867307 -0.474302 -1.482123
    1 10.295578 0.000000 0.000002 0.239946 0.262315 -0.331890
    2 14.825059 -10.665699 -8.959980 -0.593434 -0.050759 -2.242594
    3 10.295582 0.000001 -0.000006 -0.305149 -0.340107 -0.371547
    4 1.149520 0.416502 1.414117 -2.019538 -0.212592 0.859514
    5 1.263885 0.000000 -0.000008 0.010499 -0.004219 0.261076
    6 1.188939 -0.000002 0.000010 0.004326 -0.004386 0.883994
    7 3.773755 0.133215 0.970575 0.064352 0.064068 1.441404
    8 1.433456 0.000000 0.000000 0.082047 -0.025959 1.400638
    9 1.019165 -0.000006 0.000001 0.111253 -0.007191 1.169694
    10 3.799514 0.014957 0.039959 0.061640 0.037503 1.689009
    11 1.774878 0.000000 0.000000 0.019487 -0.092150 1.499775
    12 1.008844 -0.000004 0.000000 0.102193 -0.036229 0.427732
    13 3.632766 0.059052 -0.757493 -0.011599 -0.048840 1.869198
    14 1.500137 0.000002 0.000000 0.117797 -0.032107 0.854928
    15 0.905666 -0.000002 -0.000001 0.110558 -0.051989 1.029632
    16 3.323331 0.233744 -1.479075 0.058982 -0.114638 1.951257
    17 0.963100 0.000011 0.000000 0.060570 0.054818 0.140405
    18 0.682894 -0.000006 -0.000001 0.068049 -0.045158 1.459661
    19 1.149529 0.416498 -1.414117 1.695985 0.643369 0.384411
    20 1.263884 0.000001 0.000000 -0.009336 0.006472 0.475871
    21 1.188946 0.000000 0.000002 -0.011266 0.001930 0.214506
    22 3.773762 0.133217 -0.970574 0.032751 0.177553 0.050162
    23 1.433458 0.000004 0.000000 -0.035247 0.012967 0.451988
    24 1.019165 0.000011 0.000000 -0.035247 0.012979 0.452158
    25 3.799517 0.014957 -0.039958 -0.033223 -0.011916 0.276310
    26 1.774879 0.000004 0.000000 -0.022483 0.008929 0.454808
    27 1.008841 0.000004 0.000000 -0.022447 0.008929 0.454767
    28 3.632765 0.059053 0.757493 -0.281213 -0.185831 0.459280
    29 1.500135 0.000004 0.000000 -0.017030 0.006580 0.424967
    30 0.905668 0.000002 -0.000001 -0.017030 0.006568 0.424967
    31 3.323332 0.233744 1.479075 -0.399082 -0.449109 0.621478
    32 0.963099 0.000010 0.000000 -0.018001 0.008941 0.549273
    33 0.682898 -0.000002 0.000000 -0.018001 0.008941 0.549349
    34 14.825059 -10.665699 -8.959980 0.491041 -0.050680 -2.242448
    35 -6.156034 -3.881572 -11.065503 -3.043907 -0.474993 -1.482214
    36 0.000000 3.992340 0.007782 1.570796 0.000000 -1.570796
    37 19.594348 -4.593890 4.984527 -1.174985 0.212742 -0.943618
    38 -0.021929 2.029111 -0.137266 -1.570805 0.000001 0.000000
    39 0.019532 0.000000 0.007813 0.000007 0.000000 0.000001
    40 0.002397 -0.669111 0.409449 1.570796 0.000000 0.000000
    41 -0.002402 -6.221447 0.929182 -0.816043 0.000000 0.000000
  time 26
    0 -6.156034 -3.881572 -11.065503 -1.867233 -0.474302 -1.482219
    1 10.295578 0.000000 0.000002 0.239605 0.262412 -0.332608
    2 14.825059 -10.665699 -8.959980 -0.593434 -0.050669 -2.242594
    3 10.295582 0.000001 -0.000006 -0.305149 -0.340031 -0.371547
    4 1.149520 0.416502 1.414117 -2.019538 -0.212592 0.859514
    5 1.263885 0.000000 -0.000008 0.010499 -0.004219 0.261076
    6 1.188939 -0.000002 0.000010 0.004326 -0.004386 0.883994
    7 3.773755 0.133215 0.970575 0.064352 0.064068 1.441404
    8 1.433456 0.000000 0.000000 0.082047 -0.025959 1.400638
    9 1.019165 -0.000006 0.000001 0.111253 -0.007191 1.169694
    10 3.799514 0.014957 0.039959 0.061640 0.037503 1.689009
    11 1.774878 0.000000 0.000000 0.019487 -0.092150 1.499775
    12 1.008844 -0.000004 0.000000 0.102193 -0.036229 0.427732
    13 3.632766 0.059052 -0.757493 -0.011599 -0.048840 1.869198
    14 1.500137 0.000002 0.000000 0.117797 -0.032107 0.854928
    15 0.905666 -0.000002 -0.000001 0.110558 -0.051989 1.029632
    16 3.323331 0.233744 -1.479075 0.058982 -0.114638 1.951257
    17 0.963100 0.000011 0.000000 0.060570 0.054818 0.140405
    18 0.682894 -0.000006 -0.000001 0.068049 -0.045158 1.459661
    19 1.149529 0.416498 -1.414117 1.695985 0.643369 0.384411
    20 1.263884 0.000001 0.000000 -0.009336 0.006472 0.475871
    21 1.188946 0.000000 0.000002 -0.011266 0.001930 0.214506
    22 3.773762 0.133217 -0.970574 0.032751 0.177553 0.050162
    23 1.433458 0.000004 0.000000 -0.035247 0.012967 0.451988
    24 1.019165 0.000011 0.000000 -0.035247 0.012979 0.452158
    25 3.799517 0.014957 -0.039958 -0.033223 -0.011916 0.276310
    26 1.774879 0.000004 0.000000 -0.022483 0.008929 0.454808
    27 1.008841 0.000004 0.000000 -0.022447 0.008929 0.454767
    28 3.632765 0.059053 0.757493 -0.281213 -0.185831 0.459280
    29 1.500135 0.000004 0.000000 -0.017030 0.006580 0.424967
    30 0.905668 0.000002 -0.000001 -0.017030 0.006568 0.424967
    31 3.323332 0.233744 1.479075 -0.399082 -0.449109 0.621478
    32 0.963099 0.000010 0.000000 -0.018001 0.008941 0.549273
    33 0.682898 -0.000002 0.000000 -0.018001 0.008941 0.549349
    34 14.825059 -10.665699 -8.959980 0.490666 -0.050554 -2.242448
    35 -6.156034 -3.881572 -11.065503 -3.043722 -0.474610 -1.482214
    36 0.000000 3.992340 0.007782 1.570796 0.000000 -1.570796
    37 19.563097 -4.601703 4.984527 -1.174985 0.212742 -0.943618
    38 -0.021929 2.029111 -0.137266 -1.570805 0.000001 0.000000
    39 0.019532 0.000000 0.007813 0.000007 0.000000 0.000001
    40 0.002397 -0.669111 0.409449 1.570796 0.000000 0.000000
    41 -0.002402 -6.221447 0.929182 -0.816043 0.000000 0.000000
  time 27
    0 -6.156034 -3.881572 -11.065503 -1.867307 -0.474302 -1.482123
    1 10.295578 0.000000 0.000002 0.239946 0.262315 -0.331890
    2 14.825059 -10.665699 -8.959980 -0.593434 -0.050759 -2.242594
    3 10.295582 0.000001 -0.000006 -0.305149 -0.340107 -0.371547
    4 1.149520 0.416502 1.414117 -2.019538 -0.212592 0.859514
    5 1.263885 0.000000 -0.000008 0.010499 -0.004219 0.261076
    6 1.188939 -0.000002 0.000010 0.004326 -0.004386 0.883994
    7 3.773755 0.133215 0.970575 0.064352 0.064068 1.441404
    8 1.433456 0.000000 0.000000 0.082047 -0.025959 1.400638
    9 1.019165 -0.000006 0.000001 0.111253 -0.007191 1.169694
    10 3.799514 0.014957 0.039959 0.061640 0.037503 1.689009
    11 1.774878 0.000000 0.000000 0.019487 -0.092150 1.499775
    12 1.008844 -0.000004 0.000000 0.102193 -0.036229 0.427732
    13 3.632766 0.059052 -0.757493 -0.011599 -0.048840 1.869198
    14 1.500137 0.000002 0.000000 0.117797 -0.032107 0.854928
    15 0.905666 -0.000002 -0.000001 0.110558 -0.051989 1.029632
    16 3.323331 0.233744 -1.479075 0.058982 -0.114638 1.951257
    17 0.963100 0.000011 0.000000 0.060570 0.054818 0.140405
    18 0.682894 -0.000006 -0.000001 0.068049 -0.045158 1.459661
    19 1.149529 0.416498 -1.414117 1.695985 0.643369 0.384411
    20 1.263884 0.000001 0.000000 -0.009336 0.006472 0.475871
    21 1.188946 0.000000 0.000002 -0.011266 0.001930 0.214506
    22 3.773762 0.133217 -0.970574 0.032751 0.177553 0.050162
    23 1.433458 0.000004 0.000000 -0.035247 0.012967 0.451988
    24 1.019165 0.000011 0.000000 -0.035247 0.012979 0.452158
    25 3.799517 0.014957 -0.039958 -0.033223 -0.011916 0.276310
    26 1.774879 0.000004 0.000000 -0.022483 0.008929 0.454808
    27 1.008841 0.000004 0.000000 -0.022447 0.008929 0.454767
    28 3.632765 0.059053 0.757493 -0.281213 -0.185831 0.459280
    29 1.500135 0.000004 0.000000 -0.017030 0.006580 0.424967
    30 0.905668 0.000002 -0.000001 -0.017030 0.006568 0.424967
    31 3.323332 0.233744 1.479075 -0.399082 -0.449109 0.621478
    32 0.963099 0.000010 0.000000 -0.018001 0.008941 0.549273
    33 0.682898 -0.000002 0.000000 -0.018001 0.008941 0.549349
    34 14.825059 -10.665699 -8.959980 0.491041 -0.050680 -2.242448
    35 -6.156034 -3.881572 -11.065503 -3.043907 -0.474993 -1.482214
    36 0.000000 3.992340 0.007782 1.570796 0.000000 -1.570796
    37 19.594348 -4.593890 4.984527 -1.174985 0.212742 -0.943618
    38 -0.021929 2.029111 -0.137266 -1.570805 0.000001 0.000000
    39 0.019532 0.000000 0.007813 0.000007 0.000000 0.000001
    40 0.002397 -0.669111 0.409449 1.570796 0.000000 0.000000
    41 -0.002402 -6.221447 0.929182 -0.816043 0.000000 0.000000
  time 28
    0 -6.156034 -3.881572 -11.065503 -1.867307 -0.475619 -1.482219
    1 10.295578 0.000000 0.000002 0.240287 0.261854 -0.330610
    2 14.825059 -10.665699 -8.959980 -0.593434 -0.050994 -2.242594
    3 10.295582 0.000001 -0.000006 -0.305306 -0.340088 -0.371547
    4 1.149520 0.416502 1.414117 -2.019538 -0.212592 0.859514
    5 1.263885 0.000000 -0.000008 0.010499 -0.004219 0.261076
    6 1.188939 -0.000002 0.000010 0.004326 -0.004386 0.883994
    7 3.773755 0.133215 0.970575 0.064352 0.064068 1.441404
    8 1.433456 0.000000 0.000000 0.082047 -0.025959 1.400638
    9 1.019165 -0.000006 0.000001 0.111253 -0.007191 1.169694
    10 3.799514 0.014957 0.039959 0.061640 0.037503 1.689009
    11 1.774878 0.000000 0.000000 0.019487 -0.092150 1.499775
    12 1.008844 -0.000004 0.000000 0.102193 -0.036229 0.427732
    13 3.632766 0.059052 -0.757493 -0.011599 -0.048840 1.869198
    14 1.500137 0.000002 0.000000 0.117797 -0.032107 0.854928
    15 0.905666 -0.000002 -0.000001 0.110558 -0.051989 1.029632
    16 3.323331 0.233744 -1.479075 0.058982 -0.114638 1.951257
    17 0.963100 0.000011 0.000000 0.060570 0.054818 0.140405
    18 0.682894 -0.000006 -0.000001 0.068049 -0.045158 1.459661
    19 1.149529 0.416498 -1.414117 1.695985 0.643369 0.384411
    20 1.263884 0.000001 0.000000 -0.009336 0.006472 0.475871
    21 1.188946 0.000000 0.000002 -0.011266 0.001930 0.214506
    22 3.773762 0.133217 -0.970574 0.032751 0.177553 0.050162
    23 1.433458 0.000004 0.000000 -0.035247 0.012967 0.451988
    24 1.019165 0.000011 0.000000 -0.035247 0.012979 0.452158
    25 3.799517 0.014957 -0.039958 -0.033223 -0.011916 0.276310
    26 1.774879 0.000004 0.000000 -0.022483 0.008929 0.454808
    27 1.008841 0.000004 0.000000 -0.022447 0.008929 0.454767
    28 3.632765 0.059053 0.757493 -0.281213 -0.185831 0.459280
    29 1.500135 0.000004 0.000000 -0.017030 0.006580 0.424967
    30 0.905668 0.000002 -0.000001 -0.017030 0.006568 0.424967
    31 3.323332 0.233744 1.479075 -0.399082 -0.449109 0.621478
    32 0.963099 0.000010 0.000000 -0.018001 0.008941 0.549273
    33 0.682898 -0.000002 0.000000 -0.018001 0.008941 0.549349
    34 14.825059 -10.665699 -8.959980 0.491041 -0.050952 -2.242591
    35 -6.156034 -3.881572 -11.065503 -3.044215 -0.475759 -1.482214
    36 0.000000 3.992340 0.007782 1.570796 0.000000 -1.570796
    37 19.598254 -4.586077 4.984527 -1.174985 0.212742 -0.944186
    38 -0.021929 2.029111 -0.137266 -1.570805 0.000001 0.000000
    39 0.019532 0.000000 0.007813 0.000007 0.000000 0.000001
    40 0.002397 -0.669111 0.409449 1.570796 0.000000 0.000000
    41 -0.002402 -6.221447 0.929182 -0.816043 0.000000 0.000000
  time 29
    0 -6.156034 -3.893291 -11.061597 -1.867678 -0.476089 -1.482410
    1 10.295578 0.000000 0.000002 0.240628 0.261296 -0.329018
    2 14.825059 -10.665699 -8.952167 -0.593126 -0.051338 -2.242808
    3 10.295582 0.000001 -0.000006 -0.305696 -0.339974 -0.371547
    4 1.149520 0.416502 1.414117 -2.019538 -0.212592 0.859514
    5 1.263885 0.000000 -0.000008 0.010499 -0.004219 0.261076
    6 1.188939 -0.000002 0.000010 0.004326 -0.004386 0.883994
    7 3.773755 0.133215 0.970575 0.064352 0.064068 1.441404
    8 1.433456 0.000000 0.000000 0.082047 -0.025959 1.400638
    9 1.019165 -0.000006 0.000001 0.111253 -0.007191 1.169694
    10 3.799514 0.014957 0.039959 0.061640 0.037503 1.689009
    11 1.774878 0.000000 0.000000 0.019487 -0.092150 1.499775
    12 1.008844 -0.000004 0.000000 0.102193 -0.036229 0.427732
    13 3.632766 0.059052 -0.757493 -0.011599 -0.048840 1.869198
    14 1.500137 0.000002 0.000000 0.117797 -0.032107 0.854928
    15 0.905666 -0.000002 -0.000001 0.110558 -0.051989 1.029632
    16 3.323331 0.233744 -1.479075 0.058982 -0.114638 1.951257
    17 0.963100 0.000011 0.000000 0.060570 0.054818 0.140405
    18 0.682894 -0.000006 -0.000001 0.068049 -0.045158 1.459661
    19 1.149529 0.416498 -1.414117 1.695985 0.643369 0.384411
    20 1.263884 0.000001 0.000000 -0.009336 0.006472 0.475871
    21 1.188946 0.000000 0.000002 -0.011266 0.001930 0.214506
    22 3.773762 0.133217 -0.970574 0.032751 0.177553 0.050162
    23 1.433458 0.000004 0.000000 -0.035247 0.012967 0.451988
    24 1.019165 0.000011 0.000000 -0.035247 0.012979 0.452158
    25 3.799517 0.014957 -0.039958 -0.033223 -0.011916 0.276310
    26 1.774879 0.000004 0.000000 -0.022483 0.008929 0.454808
    27 1.008841 0.000004 0.000000 -0.022447 0.008929 0.454767
    28 3.632765 0.059053 0.757493 -0.281213 -0.185831 0.459280
    29 1.500135 0.000004 0.000000 -0.017030 0.006580 0.424967
    30 0.905668 0.000002 -0.000001 -0.017030 0.006568 0.424967
    31 3.323332 0.233744 1.479075 -0.399082 -0.449109 0.621478
    32 0.963099 0.000010 0.000000 -0.018001 0.008941 0.549273
    33 0.682898 -0.000002 0.000000 -0.018001 0.008941 0.549349
    34 14.825059 -10.665699 -8.952167 0.491041 -0.051241 -2.242805
    35 -6.156034 -3.893291 -11.061597 -3.044400 -0.475951 -1.482501
    36 0.000000 3.992340 0.007782 1.570796 0.000000 -1.570796
    37 19.602161 -4.570452 4.992340 -1.174985 0.212742 -0.945322
    38 -0.021929 2.029111 -0.137266 -1.570805 0.000001 0.000000
    39 0.019532 0.000000 0.007813 0.000007 0.000000 0.000001
    40 0.002397 -0.669111 0.409449 1.570796 0.000000 0.000000
    41 -0.002402 -6.221447 0.929182 -0.816043 0.000000 0.000000
end
