version 1
nodes
  0 "v_weapon.Bip01_R_Forearm" -1
  1 "v_weapon.Bip01_R_Hand" 0
  2 "v_weapon.Bip01_L_Forearm" -1
  3 "v_weapon.Bip01_L_Hand" 2
  4 "v_weapon.Bip01_R_Finger0" 1
  5 "v_weapon.Bip01_R_Finger01" 4
  6 "v_weapon.Bip01_R_Finger02" 5
  7 "v_weapon.Bip01_R_Finger1" 1
  8 "v_weapon.Bip01_R_Finger11" 7
  9 "v_weapon.Bip01_R_Finger12" 8
  10 "v_weapon.Bip01_R_Finger2" 1
  11 "v_weapon.Bip01_R_Finger21" 10
  12 "v_weapon.Bip01_R_Finger22" 11
  13 "v_weapon.Bip01_R_Finger3" 1
  14 "v_weapon.Bip01_R_Finger31" 13
  15 "v_weapon.Bip01_R_Finger32" 14
  16 "v_weapon.Bip01_R_Finger4" 1
  17 "v_weapon.Bip01_R_Finger41" 16
  18 "v_weapon.Bip01_R_Finger42" 17
  19 "v_weapon.Bip01_L_Finger0" 3
  20 "v_weapon.Bip01_L_Finger01" 19
  21 "v_weapon.Bip01_L_Finger02" 20
  22 "v_weapon.Bip01_L_Finger1" 3
  23 "v_weapon.Bip01_L_Finger11" 22
  24 "v_weapon.Bip01_L_Finger12" 23
  25 "v_weapon.Bip01_L_Finger2" 3
  26 "v_weapon.Bip01_L_Finger21" 25
  27 "v_weapon.Bip01_L_Finger22" 26
  28 "v_weapon.Bip01_L_Finger3" 3
  29 "v_weapon.Bip01_L_Finger31" 28
  30 "v_weapon.Bip01_L_Finger32" 29
  31 "v_weapon.Bip01_L_Finger4" 3
  32 "v_weapon.Bip01_L_Finger41" 31
  33 "v_weapon.Bip01_L_Finger42" 32
  34 "v_weapon.Bip01_L_ForeTwist" -1
  35 "v_weapon.Bip01_R_ForeTwist" -1
  36 "v_weapon" -1
  37 "v_weapon.knife" 36
  38 "v_weapon.front" 37
  39 "v_weapon.blade1" 38
  40 "v_weapon.rear" 39
  41 "v_weapon.lock" 40
end
skeleton
  time 0
    0 -8.019372 -3.752662 -12.917122 -1.713288 -0.170417 -2.486547
    1 10.295578 0.000000 0.000002 0.279161 -0.278304 -0.154199
    2 19.543953 -2.087312 -7.952137 -0.465955 -0.071333 -1.504150
    3 10.295582 0.000001 -0.000006 -1.224444 -0.227673 -0.175084
    4 1.149520 0.416502 1.414117 -2.019538 -0.212592 0.859487
    5 1.263885 0.000000 -0.000008 0.010499 -0.004207 0.261076
    6 1.188939 -0.000002 0.000010 0.004290 -0.004350 0.883994
    7 3.773755 0.133215 0.970575 0.064315 0.064033 1.441404
    8 1.433456 0.000000 0.000000 0.082047 -0.025947 1.400638
    9 1.019165 -0.000006 0.000001 0.111253 -0.007179 1.169620
    10 3.799514 0.014957 0.039959 0.061640 0.037479 1.689009
    11 1.774878 0.000000 0.000000 0.019487 -0.092150 1.499632
    12 1.008844 -0.000004 0.000000 0.102193 -0.036193 0.427732
    13 3.632766 0.059052 -0.757493 -0.011599 -0.048840 1.869198
    14 1.500137 0.000002 0.000000 0.117785 -0.032095 0.854928
    15 0.905666 -0.000002 -0.000001 0.110558 -0.051989 1.029632
    16 3.323331 0.233744 -1.479075 0.058982 -0.114638 1.951023
    17 0.963100 0.000011 0.000000 0.060474 0.054818 0.140231
    18 0.682894 -0.000006 -0.000001 0.068049 -0.045158 1.459661
    19 1.149529 0.416498 -1.414117 1.695985 0.643333 0.384411
    20 1.263884 0.000001 0.000000 -0.009336 0.006472 0.475820
    21 1.188946 0.000000 0.000002 -0.011266 0.001906 0.214483
    22 3.773762 0.133217 -0.970574 0.032751 0.177541 0.050162
    23 1.433458 0.000004 0.000000 -0.035235 0.012931 0.451902
    24 1.019165 0.000011 0.000000 -0.035247 0.012955 0.452115
    25 3.799517 0.014957 -0.039958 -0.033200 -0.011916 0.276310
    26 1.774879 0.000004 0.000000 -0.022471 0.008917 0.454686
    27 1.008841 0.000004 0.000000 -0.022351 0.008929 0.454767
    28 3.632765 0.059053 0.757493 -0.281201 -0.185819 0.459243
    29 1.500135 0.000004 0.000000 -0.017006 0.006568 0.424929
    30 0.905668 0.000002 -0.000001 -0.016994 0.006556 0.424929
    31 3.323332 0.233744 1.479075 -0.399082 -0.449085 0.621478
    32 0.963099 0.000010 0.000000 -0.018001 0.008941 0.549273
    33 0.682898 -0.000002 0.000000 -0.017989 0.008941 0.549349
    34 19.543953 -2.087312 -7.952137 0.121003 -0.071415 -1.504196
    35 -8.019372 -3.752662 -12.917122 0.250868 -2.969794 -5.627024
    36 0.000000 3.992340 0.007782 1.570796 0.000000 -1.570796
    37 15.625477 -11.484725 18.125553 0.816058 0.150390 1.801091
    38 -0.021929 2.029111 -0.137266 -1.570805 0.000001 0.000000
    39 0.019532 0.000000 0.007813 0.000007 0.000000 0.000001
    40 0.002397 -0.669111 0.409449 1.570796 0.000000 0.000000
    41 -0.002402 -6.221447 0.929182 -0.816253 0.000000 0.000000
  time 1
    0 -4.718490 -9.424710 -10.940499 -1.561273 -0.420880 -1.798313
    1 10.295578 0.000000 0.000002 0.424359 0.172859 -0.032388
    2 18.579080 0.686210 -8.549811 -0.515407 -0.156398 -1.222488
    3 10.295582 0.000001 -0.000006 -1.215968 -0.127189 -0.138849
    4 1.149520 0.416502 1.414117 -2.019538 -0.212592 0.859487
    5 1.263885 0.000000 -0.000008 0.010499 -0.004207 0.261076
    6 1.188939 -0.000002 0.000010 0.004290 -0.004350 0.883994
    7 3.773755 0.133215 0.970575 0.064315 0.064033 1.441404
    8 1.433456 0.000000 0.000000 0.082047 -0.025947 1.400638
    9 1.019165 -0.000006 0.000001 0.111253 -0.007179 1.169620
    10 3.799514 0.014957 0.039959 0.061640 0.037479 1.689009
    11 1.774878 0.000000 0.000000 0.019487 -0.092150 1.499632
    12 1.008844 -0.000004 0.000000 0.102193 -0.036193 0.427732
    13 3.632766 0.059052 -0.757493 -0.011599 -0.048840 1.869198
    14 1.500137 0.000002 0.000000 0.117785 -0.032095 0.854928
    15 0.905666 -0.000002 -0.000001 0.110558 -0.051989 1.029632
    16 3.323331 0.233744 -1.479075 0.058982 -0.114638 1.951023
    17 0.963100 0.000011 0.000000 0.060474 0.054818 0.140231
    18 0.682894 -0.000006 -0.000001 0.068049 -0.045158 1.459661
    19 1.149529 0.416498 -1.414117 1.695985 0.643333 0.384411
    20 1.263884 0.000001 0.000000 -0.009336 0.006472 0.475820
    21 1.188946 0.000000 0.000002 -0.011266 0.001906 0.214483
    22 3.773762 0.133217 -0.970574 0.032751 0.177541 0.050162
    23 1.433458 0.000004 0.000000 -0.035235 0.012931 0.451902
    24 1.019165 0.000011 0.000000 -0.035247 0.012955 0.452115
    25 3.799517 0.014957 -0.039958 -0.033200 -0.011916 0.276310
    26 1.774879 0.000004 0.000000 -0.022471 0.008917 0.454686
    27 1.008841 0.000004 0.000000 -0.022351 0.008929 0.454767
    28 3.632765 0.059053 0.757493 -0.281201 -0.185819 0.459243
    29 1.500135 0.000004 0.000000 -0.017006 0.006568 0.424929
    30 0.905668 0.000002 -0.000001 -0.016994 0.006556 0.424929
    31 3.323332 0.233744 1.479075 -0.399082 -0.449085 0.621478
    32 0.963099 0.000010 0.000000 -0.018001 0.008941 0.549273
    33 0.682898 -0.000002 0.000000 -0.017989 0.008941 0.549349
    34 18.579080 0.686210 -8.549811 0.071596 -0.156325 -1.222668
    35 -4.718490 -9.424710 -10.940499 0.403953 -2.719701 -4.938693
    36 0.000000 3.992340 0.007782 1.570796 0.000000 -1.570796
    37 24.688253 -6.734581 8.211188 0.995521 -0.261344 2.185903
    38 -0.021929 2.029111 -0.137266 -1.570805 0.000001 0.000000
    39 0.019532 0.000000 0.007813 0.000007 0.000000 0.000001
    40 0.002397 -0.669111 0.409449 1.570796 0.000000 0.000000
    41 -0.014121 -6.221447 0.929182 -0.816253 0.000000 0.000000
  time 2
    0 0.113689 -11.682591 -7.510707 -1.609817 -0.422479 -1.272669
    1 10.295578 0.000000 0.000002 0.060375 0.057466 -0.477177
    2 16.793869 1.139349 -10.549872 -0.923339 -0.364255 -0.524006
    3 10.295582 0.000001 -0.000006 -0.933468 0.263480 -0.191534
    4 1.149520 0.416502 1.414117 -2.019538 -0.212592 0.859487
    5 1.263885 0.000000 -0.000008 0.010499 -0.004207 0.261076
    6 1.188939 -0.000002 0.000010 0.004290 -0.004350 0.883994
    7 3.773755 0.133215 0.970575 0.064315 0.064033 1.441404
    8 1.433456 0.000000 0.000000 0.082047 -0.025947 1.400638
    9 1.019165 -0.000006 0.000001 0.111253 -0.007179 1.169620
    10 3.799514 0.014957 0.039959 0.061640 0.037479 1.689009
    11 1.774878 0.000000 0.000000 0.019487 -0.092150 1.499632
    12 1.008844 -0.000004 0.000000 0.102193 -0.036193 0.427732
    13 3.632766 0.059052 -0.757493 -0.011599 -0.048840 1.869198
    14 1.500137 0.000002 0.000000 0.117785 -0.032095 0.854928
    15 0.905666 -0.000002 -0.000001 0.110558 -0.051989 1.029632
    16 3.323331 0.233744 -1.479075 0.058982 -0.114638 1.951023
    17 0.963100 0.000011 0.000000 0.060474 0.054818 0.140231
    18 0.682894 -0.000006 -0.000001 0.068049 -0.045158 1.459661
    19 1.149529 0.416498 -1.414117 1.695985 0.643333 0.384411
    20 1.263884 0.000001 0.000000 -0.009336 0.006472 0.475820
    21 1.188946 0.000000 0.000002 -0.011266 0.001906 0.214483
    22 3.773762 0.133217 -0.970574 0.032751 0.177541 0.050162
    23 1.433458 0.000004 0.000000 -0.035235 0.012931 0.451902
    24 1.019165 0.000011 0.000000 -0.035247 0.012955 0.452115
    25 3.799517 0.014957 -0.039958 -0.033200 -0.011916 0.276310
    26 1.774879 0.000004 0.000000 -0.022471 0.008917 0.454686
    27 1.008841 0.000004 0.000000 -0.022351 0.008929 0.454767
    28 3.632765 0.059053 0.757493 -0.281201 -0.185819 0.459243
    29 1.500135 0.000004 0.000000 -0.017006 0.006568 0.424929
    30 0.905668 0.000002 -0.000001 -0.016994 0.006556 0.424929
    31 3.323332 0.233744 1.479075 -0.399082 -0.449085 0.621478
    32 0.963099 0.000010 0.000000 -0.018001 0.008941 0.549273
    33 0.682898 -0.000002 0.000000 -0.017989 0.008941 0.549349
    34 16.793869 1.139349 -10.549872 -0.336411 -0.364213 -0.524094
    35 0.113689 -11.682591 -7.510707 -2.786732 -0.422599 -1.272664
    36 0.000000 3.992340 0.007782 1.570796 0.000000 -1.570796
    37 26.688314 -2.304758 -2.640706 1.548567 -0.256952 2.465732
    38 -0.021929 2.029111 -0.137266 -1.570805 0.000001 0.000000
    39 0.007813 0.000000 0.007813 0.000007 0.000000 0.000001
    40 0.014116 -0.669111 0.409449 1.570796 0.000000 0.000000
    41 -0.002402 -6.221447 0.929182 -0.816253 0.000000 0.000000
  time 3
    0 1.773896 -11.924786 -5.932534 -1.694880 -0.240957 -1.047434
    1 10.295578 0.000000 0.000002 -0.104533 -0.372516 -0.625305
    2 17.215757 -0.669300 -10.901445 -1.345805 -0.255124 -0.045816
    3 10.295582 0.000001 -0.000006 -0.471868 0.454231 -0.186940
    4 1.149520 0.416502 1.414117 -2.019538 -0.212592 0.859487
    5 1.263885 0.000000 -0.000008 0.010499 -0.004207 0.261076
    6 1.188939 -0.000002 0.000010 0.004290 -0.004350 0.883994
    7 3.773755 0.133215 0.970575 0.064315 0.064033 1.441404
    8 1.433456 0.000000 0.000000 0.082047 -0.025947 1.400638
    9 1.019165 -0.000006 0.000001 0.111253 -0.007179 1.169620
    10 3.799514 0.014957 0.039959 0.061640 0.037479 1.689009
    11 1.774878 0.000000 0.000000 0.019487 -0.092150 1.499632
    12 1.008844 -0.000004 0.000000 0.102193 -0.036193 0.427732
    13 3.632766 0.059052 -0.757493 -0.011599 -0.048840 1.869198
    14 1.500137 0.000002 0.000000 0.117785 -0.032095 0.854928
    15 0.905666 -0.000002 -0.000001 0.110558 -0.051989 1.029632
    16 3.323331 0.233744 -1.479075 0.058982 -0.114638 1.951023
    17 0.963100 0.000011 0.000000 0.060474 0.054818 0.140231
    18 0.682894 -0.000006 -0.000001 0.068049 -0.045158 1.459661
    19 1.149529 0.416498 -1.414117 1.695985 0.643333 0.384411
    20 1.263884 0.000001 0.000000 -0.009336 0.006472 0.475820
    21 1.188946 0.000000 0.000002 -0.011266 0.001906 0.214483
    22 3.773762 0.133217 -0.970574 0.032751 0.177541 0.050162
    23 1.433458 0.000004 0.000000 -0.035235 0.012931 0.451902
    24 1.019165 0.000011 0.000000 -0.035247 0.012955 0.452115
    25 3.799517 0.014957 -0.039958 -0.033200 -0.011916 0.276310
    26 1.774879 0.000004 0.000000 -0.022471 0.008917 0.454686
    27 1.008841 0.000004 0.000000 -0.022351 0.008929 0.454767
    28 3.632765 0.059053 0.757493 -0.281201 -0.185819 0.459243
    29 1.500135 0.000004 0.000000 -0.017006 0.006568 0.424929
    30 0.905668 0.000002 -0.000001 -0.016994 0.006556 0.424929
    31 3.323332 0.233744 1.479075 -0.399082 -0.449085 0.621478
    32 0.963099 0.000010 0.000000 -0.018001 0.008941 0.549273
    33 0.682898 -0.000002 0.000000 -0.017989 0.008941 0.549349
    34 17.215757 -0.669300 -10.901445 -0.758856 -0.255113 -0.045818
    35 1.773896 -11.924786 -5.932534 -2.871964 -0.240704 -1.047524
    36 0.000000 3.992340 0.007782 1.570796 0.000000 -1.570796
    37 26.547685 -2.101627 -8.062746 -0.976455 -2.940954 -0.619580
    38 -0.021929 2.029111 -0.137266 -1.570805 0.000001 0.000000
    39 0.019532 0.000000 0.007813 0.000007 0.000000 0.000001
    40 0.014116 -0.669111 0.409449 1.570796 0.000000 0.000000
    41 -0.002402 -6.221447 0.929182 -0.816253 0.000000 0.000000
  time 4
    0 2.027810 -11.831033 -5.932534 -1.684043 -0.239734 -1.023428
    1 10.295578 0.000000 0.000002 -0.184259 -0.527505 -0.531121
    2 18.016563 -0.997435 -10.143610 -1.392116 -0.114345 0.016625
    3 10.295582 0.000001 -0.000006 -0.283587 0.341721 -0.251500
    4 1.149520 0.416502 1.414117 -2.019538 -0.212592 0.859487
    5 1.263885 0.000000 -0.000008 0.010499 -0.004207 0.261076
    6 1.188939 -0.000002 0.000010 0.004290 -0.004350 0.883994
    7 3.773755 0.133215 0.970575 0.064315 0.064033 1.441404
    8 1.433456 0.000000 0.000000 0.082047 -0.025947 1.400638
    9 1.019165 -0.000006 0.000001 0.111253 -0.007179 1.169620
    10 3.799514 0.014957 0.039959 0.061640 0.037479 1.689009
    11 1.774878 0.000000 0.000000 0.019487 -0.092150 1.499632
    12 1.008844 -0.000004 0.000000 0.102193 -0.036193 0.427732
    13 3.632766 0.059052 -0.757493 -0.011599 -0.048840 1.869198
    14 1.500137 0.000002 0.000000 0.117785 -0.032095 0.854928
    15 0.905666 -0.000002 -0.000001 0.110558 -0.051989 1.029632
    16 3.323331 0.233744 -1.479075 0.058982 -0.114638 1.951023
    17 0.963100 0.000011 0.000000 0.060474 0.054818 0.140231
    18 0.682894 -0.000006 -0.000001 0.068049 -0.045158 1.459661
    19 1.149529 0.416498 -1.414117 1.695985 0.643333 0.384411
    20 1.263884 0.000001 0.000000 -0.009336 0.006472 0.475820
    21 1.188946 0.000000 0.000002 -0.011266 0.001906 0.214483
    22 3.773762 0.133217 -0.970574 0.032751 0.177541 0.050162
    23 1.433458 0.000004 0.000000 -0.035235 0.012931 0.451902
    24 1.019165 0.000011 0.000000 -0.035247 0.012955 0.452115
    25 3.799517 0.014957 -0.039958 -0.033200 -0.011916 0.276310
    26 1.774879 0.000004 0.000000 -0.022471 0.008917 0.454686
    27 1.008841 0.000004 0.000000 -0.022351 0.008929 0.454767
    28 3.632765 0.059053 0.757493 -0.281201 -0.185819 0.459243
    29 1.500135 0.000004 0.000000 -0.017006 0.006568 0.424929
    30 0.905668 0.000002 -0.000001 -0.016994 0.006556 0.424929
    31 3.323332 0.233744 1.479075 -0.399082 -0.449085 0.621478
    32 0.963099 0.000010 0.000000 -0.018001 0.008941 0.549273
    33 0.682898 -0.000002 0.000000 -0.017989 0.008941 0.549349
    34 18.016563 -0.997435 -10.143610 -0.805544 -0.114259 0.016696
    35 2.027810 -11.831033 -5.932534 -2.861179 -0.239555 -1.023614
    36 0.000000 3.992340 0.007782 1.570796 0.000000 -1.570796
    37 26.188299 -2.304758 -8.906522 -0.796897 -2.980294 -0.638135
    38 -0.021929 2.029111 -0.137266 -1.570805 0.000001 0.000000
    39 0.007813 0.000000 0.007813 0.000007 0.000000 0.000001
    40 0.002397 -0.669111 0.409449 1.570796 0.000000 0.000000
    41 -0.002402 -6.221447 0.929182 -0.816253 0.000000 0.000000
  time 5
    0 2.145001 -11.834940 -5.889564 -1.678773 -0.237477 -1.011569
    1 10.295578 0.000000 0.000002 -0.227566 -0.571566 -0.475772
    2 18.106409 -0.891963 -9.987355 -1.346236 -0.096612 -0.009493
    3 10.295582 0.000001 -0.000006 -0.311829 0.306841 -0.259601
    4 1.149520 0.416502 1.414117 -2.019538 -0.212592 0.859487
    5 1.263885 0.000000 -0.000008 0.010499 -0.004207 0.261076
    6 1.188939 -0.000002 0.000010 0.004290 -0.004350 0.883994
    7 3.773755 0.133215 0.970575 0.064315 0.064033 1.441404
    8 1.433456 0.000000 0.000000 0.082047 -0.025947 1.400638
    9 1.019165 -0.000006 0.000001 0.111253 -0.007179 1.169620
    10 3.799514 0.014957 0.039959 0.061640 0.037479 1.689009
    11 1.774878 0.000000 0.000000 0.019487 -0.092150 1.499632
    12 1.008844 -0.000004 0.000000 0.102193 -0.036193 0.427732
    13 3.632766 0.059052 -0.757493 -0.011599 -0.048840 1.869198
    14 1.500137 0.000002 0.000000 0.117785 -0.032095 0.854928
    15 0.905666 -0.000002 -0.000001 0.110558 -0.051989 1.029632
    16 3.323331 0.233744 -1.479075 0.058982 -0.114638 1.951023
    17 0.963100 0.000011 0.000000 0.060474 0.054818 0.140231
    18 0.682894 -0.000006 -0.000001 0.068049 -0.045158 1.459661
    19 1.149529 0.416498 -1.414117 1.695985 0.643333 0.384411
    20 1.263884 0.000001 0.000000 -0.009336 0.006472 0.475820
    21 1.188946 0.000000 0.000002 -0.011266 0.001906 0.214483
    22 3.773762 0.133217 -0.970574 0.032751 0.177541 0.050162
    23 1.433458 0.000004 0.000000 -0.035235 0.012931 0.451902
    24 1.019165 0.000011 0.000000 -0.035247 0.012955 0.452115
    25 3.799517 0.014957 -0.039958 -0.033200 -0.011916 0.276310
    26 1.774879 0.000004 0.000000 -0.022471 0.008917 0.454686
    27 1.008841 0.000004 0.000000 -0.022351 0.008929 0.454767
    28 3.632765 0.059053 0.757493 -0.281201 -0.185819 0.459243
    29 1.500135 0.000004 0.000000 -0.017006 0.006568 0.424929
    30 0.905668 0.000002 -0.000001 -0.016994 0.006556 0.424929
    31 3.323332 0.233744 1.479075 -0.399082 -0.449085 0.621478
    32 0.963099 0.000010 0.000000 -0.018001 0.008941 0.549273
    33 0.682898 -0.000002 0.000000 -0.017989 0.008941 0.549349
    34 18.106409 -0.891963 -9.987355 -0.759512 -0.096456 -0.009280
    35 2.145001 -11.834940 -5.889564 -2.855879 -0.237352 -1.011850
    36 0.000000 3.992340 0.007782 1.570796 0.000000 -1.570796
    37 26.125797 -2.410230 -9.219031 -0.735959 -3.004643 -0.652334
    38 -0.021929 2.029111 -0.137266 -1.570805 0.000001 0.000000
    39 0.019532 0.000000 0.007813 0.000007 0.000000 0.000001
    40 0.002397 -0.669111 0.409449 1.570796 0.000000 0.000000
    41 -0.002402 -6.221447 0.929182 -0.816253 0.000000 0.000000
  time 6
    0 2.207503 -11.862284 -5.846594 -1.673874 -0.230893 -1.001335
    1 10.295578 0.000000 0.000002 -0.266440 -0.591534 -0.430881
    2 18.168911 -0.829461 -9.893602 -1.316922 -0.088342 -0.025906
    3 10.295582 0.000001 -0.000006 -0.320696 0.295939 -0.231429
    4 1.149520 0.416502 1.414117 -2.019538 -0.212592 0.859487
    5 1.263885 0.000000 -0.000008 0.010499 -0.004207 0.261076
    6 1.188939 -0.000002 0.000010 0.004290 -0.004350 0.883994
    7 3.773755 0.133215 0.970575 0.064315 0.064033 1.441404
    8 1.433456 0.000000 0.000000 0.082047 -0.025947 1.400638
    9 1.019165 -0.000006 0.000001 0.111253 -0.007179 1.169620
    10 3.799514 0.014957 0.039959 0.061640 0.037479 1.689009
    11 1.774878 0.000000 0.000000 0.019487 -0.092150 1.499632
    12 1.008844 -0.000004 0.000000 0.102193 -0.036193 0.427732
    13 3.632766 0.059052 -0.757493 -0.011599 -0.048840 1.869198
    14 1.500137 0.000002 0.000000 0.117785 -0.032095 0.854928
    15 0.905666 -0.000002 -0.000001 0.110558 -0.051989 1.029632
    16 3.323331 0.233744 -1.479075 0.058982 -0.114638 1.951023
    17 0.963100 0.000011 0.000000 0.060474 0.054818 0.140231
    18 0.682894 -0.000006 -0.000001 0.068049 -0.045158 1.459661
    19 1.149529 0.416498 -1.414117 1.695985 0.643333 0.384411
    20 1.263884 0.000001 0.000000 -0.009336 0.006472 0.475820
    21 1.188946 0.000000 0.000002 -0.011266 0.001906 0.214483
    22 3.773762 0.133217 -0.970574 0.032751 0.177541 0.050162
    23 1.433458 0.000004 0.000000 -0.035235 0.012931 0.451902
    24 1.019165 0.000011 0.000000 -0.035247 0.012955 0.452115
    25 3.799517 0.014957 -0.039958 -0.033200 -0.011916 0.276310
    26 1.774879 0.000004 0.000000 -0.022471 0.008917 0.454686
    27 1.008841 0.000004 0.000000 -0.022351 0.008929 0.454767
    28 3.632765 0.059053 0.757493 -0.281201 -0.185819 0.459243
    29 1.500135 0.000004 0.000000 -0.017006 0.006568 0.424929
    30 0.905668 0.000002 -0.000001 -0.016994 0.006556 0.424929
    31 3.323332 0.233744 1.479075 -0.399082 -0.449085 0.621478
    32 0.963099 0.000010 0.000000 -0.018001 0.008941 0.549273
    33 0.682898 -0.000002 0.000000 -0.017989 0.008941 0.549349
    34 18.168911 -0.829461 -9.893602 -0.730449 -0.088296 -0.025979
    35 2.207503 -11.862284 -5.846594 -2.850764 -0.231126 -1.001234
    36 0.000000 3.992340 0.007782 1.570796 0.000000 -1.570796
    37 26.125797 -2.507889 -9.445601 -0.698878 -3.028037 -0.664641
    38 -0.021929 2.029111 -0.137266 -1.570805 0.000001 0.000000
    39 0.019532 0.000000 0.000000 0.000007 0.000000 0.000001
    40 0.014116 -0.669111 0.409449 1.570796 0.000000 0.000000
    41 -0.002402 -6.221447 0.929182 -0.816253 0.000000 0.000000
  time 7
    0 2.312975 -11.838846 -5.713777 -1.667936 -0.214904 -0.989571
    1 10.295578 0.000000 0.000002 -0.309338 -0.602258 -0.393139
    2 18.168911 -0.731802 -9.838913 -1.276523 -0.082190 -0.050240
    3 10.295582 0.000001 -0.000006 -0.341790 0.291289 -0.180383
    4 1.149520 0.416502 1.414117 -2.019538 -0.212592 0.859487
    5 1.263885 0.000000 -0.000008 0.010499 -0.004207 0.261076
    6 1.188939 -0.000002 0.000010 0.004290 -0.004350 0.883994
    7 3.773755 0.133215 0.970575 0.064315 0.064033 1.441404
    8 1.433456 0.000000 0.000000 0.082047 -0.025947 1.400638
    9 1.019165 -0.000006 0.000001 0.111253 -0.007179 1.169620
    10 3.799514 0.014957 0.039959 0.061640 0.037479 1.689009
    11 1.774878 0.000000 0.000000 0.019487 -0.092150 1.499632
    12 1.008844 -0.000004 0.000000 0.102193 -0.036193 0.427732
    13 3.632766 0.059052 -0.757493 -0.011599 -0.048840 1.869198
    14 1.500137 0.000002 0.000000 0.117785 -0.032095 0.854928
    15 0.905666 -0.000002 -0.000001 0.110558 -0.051989 1.029632
    16 3.323331 0.233744 -1.479075 0.058982 -0.114638 1.951023
    17 0.963100 0.000011 0.000000 0.060474 0.054818 0.140231
    18 0.682894 -0.000006 -0.000001 0.068049 -0.045158 1.459661
    19 1.149529 0.416498 -1.414117 1.695985 0.643333 0.384411
    20 1.263884 0.000001 0.000000 -0.009336 0.006472 0.475820
    21 1.188946 0.000000 0.000002 -0.011266 0.001906 0.214483
    22 3.773762 0.133217 -0.970574 0.032751 0.177541 0.050162
    23 1.433458 0.000004 0.000000 -0.035235 0.012931 0.451902
    24 1.019165 0.000011 0.000000 -0.035247 0.012955 0.452115
    25 3.799517 0.014957 -0.039958 -0.033200 -0.011916 0.276310
    26 1.774879 0.000004 0.000000 -0.022471 0.008917 0.454686
    27 1.008841 0.000004 0.000000 -0.022351 0.008929 0.454767
    28 3.632765 0.059053 0.757493 -0.281201 -0.185819 0.459243
    29 1.500135 0.000004 0.000000 -0.017006 0.006568 0.424929
    30 0.905668 0.000002 -0.000001 -0.016994 0.006556 0.424929
    31 3.323332 0.233744 1.479075 -0.399082 -0.449085 0.621478
    32 0.963099 0.000010 0.000000 -0.018001 0.008941 0.549273
    33 0.682898 -0.000002 0.000000 -0.017989 0.008941 0.549349
    34 18.168911 -0.731802 -9.838913 -0.690042 -0.082090 -0.050171
    35 2.312975 -11.838846 -5.713777 -2.844909 -0.215130 -0.989661
    36 0.000000 3.992340 0.007782 1.570796 0.000000 -1.570796
    37 26.063295 -2.625080 -9.687796 -0.668217 -3.053245 -0.676285
    38 -0.021929 2.029111 -0.137266 -1.570805 0.000001 0.000000
    39 0.007813 0.000000 0.007813 0.000007 0.000000 0.000001
    40 0.002397 -0.669111 0.409449 1.570796 0.000000 0.000000
    41 -0.002402 -6.221447 0.929182 -0.816253 0.000000 0.000000
  time 8
    0 2.473136 -11.682591 -5.530178 -1.658138 -0.181139 -0.970252
    1 10.295578 0.000000 0.000002 -0.370718 -0.615190 -0.355522
    2 18.168911 -0.520858 -9.795943 -1.194678 -0.067425 -0.099265
    3 10.295582 0.000001 -0.000006 -0.412415 0.281244 -0.123581
    4 1.149520 0.416502 1.414117 -2.019538 -0.212592 0.859487
    5 1.263885 0.000000 -0.000008 0.010499 -0.004207 0.261076
    6 1.188939 -0.000002 0.000010 0.004290 -0.004350 0.883994
    7 3.773755 0.133215 0.970575 0.064315 0.064033 1.441404
    8 1.433456 0.000000 0.000000 0.082047 -0.025947 1.400638
    9 1.019165 -0.000006 0.000001 0.111253 -0.007179 1.169620
    10 3.799514 0.014957 0.039959 0.061640 0.037479 1.689009
    11 1.774878 0.000000 0.000000 0.019487 -0.092150 1.499632
    12 1.008844 -0.000004 0.000000 0.102193 -0.036193 0.427732
    13 3.632766 0.059052 -0.757493 -0.011599 -0.048840 1.869198
    14 1.500137 0.000002 0.000000 0.117785 -0.032095 0.854928
    15 0.905666 -0.000002 -0.000001 0.110558 -0.051989 1.029632
    16 3.323331 0.233744 -1.479075 0.058982 -0.114638 1.951023
    17 0.963100 0.000011 0.000000 0.060474 0.054818 0.140231
    18 0.682894 -0.000006 -0.000001 0.068049 -0.045158 1.459661
    19 1.149529 0.416498 -1.414117 1.695985 0.643333 0.384411
    20 1.263884 0.000001 0.000000 -0.009336 0.006472 0.475820
    21 1.188946 0.000000 0.000002 -0.011266 0.001906 0.214483
    22 3.773762 0.133217 -0.970574 0.032751 0.177541 0.050162
    23 1.433458 0.000004 0.000000 -0.035235 0.012931 0.451902
    24 1.019165 0.000011 0.000000 -0.035247 0.012955 0.452115
    25 3.799517 0.014957 -0.039958 -0.033200 -0.011916 0.276310
    26 1.774879 0.000004 0.000000 -0.022471 0.008917 0.454686
    27 1.008841 0.000004 0.000000 -0.022351 0.008929 0.454767
    28 3.632765 0.059053 0.757493 -0.281201 -0.185819 0.459243
    29 1.500135 0.000004 0.000000 -0.017006 0.006568 0.424929
    30 0.905668 0.000002 -0.000001 -0.016994 0.006556 0.424929
    31 3.323332 0.233744 1.479075 -0.399082 -0.449085 0.621478
    32 0.963099 0.000010 0.000000 -0.018001 0.008941 0.549273
    33 0.682898 -0.000002 0.000000 -0.017989 0.008941 0.549349
    34 18.168911 -0.520858 -9.795943 -0.608103 -0.067398 -0.099483
    35 2.473136 -11.682591 -5.530178 -2.834802 -0.181797 -0.970533
    36 0.000000 3.992340 0.007782 1.570796 0.000000 -1.570796
    37 25.871883 -2.898526 -10.121403 -0.624430 -3.083132 -0.686982
    38 -0.021929 2.029111 -0.137266 -1.570805 0.000001 0.000000
    39 0.019532 0.000000 0.000000 0.000007 0.000000 0.000001
    40 0.002397 -0.669111 0.409449 1.570796 0.000000 0.000000
    41 -0.002402 -6.221447 0.929182 -0.816253 0.000000 0.000000
  time 9
    0 2.937994 -9.264549 -7.409141 -1.593265 -0.070815 -7.095495
    1 10.295578 0.000000 0.000002 -0.504936 -0.483711 -0.232087
    2 18.165005 -0.024749 -9.651407 -1.026184 -0.030800 -0.203595
    3 10.295582 0.000001 -0.000006 -0.591164 0.255380 -0.077796
    4 1.149520 0.416502 1.414117 -2.019538 -0.212592 0.859487
    5 1.263885 0.000000 -0.000008 0.010499 -0.004207 0.261076
    6 1.188939 -0.000002 0.000010 0.004290 -0.004350 0.883994
    7 3.773755 0.133215 0.970575 0.064315 0.064033 1.441404
    8 1.433456 0.000000 0.000000 0.082047 -0.025947 1.400638
    9 1.019165 -0.000006 0.000001 0.111253 -0.007179 1.169620
    10 3.799514 0.014957 0.039959 0.061640 0.037479 1.689009
    11 1.774878 0.000000 0.000000 0.019487 -0.092150 1.499632
    12 1.008844 -0.000004 0.000000 0.102193 -0.036193 0.427732
    13 3.632766 0.059052 -0.757493 -0.011599 -0.048840 1.869198
    14 1.500137 0.000002 0.000000 0.117785 -0.032095 0.854928
    15 0.905666 -0.000002 -0.000001 0.110558 -0.051989 1.029632
    16 3.323331 0.233744 -1.479075 0.058982 -0.114638 1.951023
    17 0.963100 0.000011 0.000000 0.060474 0.054818 0.140231
    18 0.682894 -0.000006 -0.000001 0.068049 -0.045158 1.459661
    19 1.149529 0.416498 -1.414117 1.695985 0.643333 0.384411
    20 1.263884 0.000001 0.000000 -0.009336 0.006472 0.475820
    21 1.188946 0.000000 0.000002 -0.011266 0.001906 0.214483
    22 3.773762 0.133217 -0.970574 0.032751 0.177541 0.050162
    23 1.433458 0.000004 0.000000 -0.035235 0.012931 0.451902
    24 1.019165 0.000011 0.000000 -0.035247 0.012955 0.452115
    25 3.799517 0.014957 -0.039958 -0.033200 -0.011916 0.276310
    26 1.774879 0.000004 0.000000 -0.022471 0.008917 0.454686
    27 1.008841 0.000004 0.000000 -0.022351 0.008929 0.454767
    28 3.632765 0.059053 0.757493 -0.281201 -0.185819 0.459243
    29 1.500135 0.000004 0.000000 -0.017006 0.006568 0.424929
    30 0.905668 0.000002 -0.000001 -0.016994 0.006556 0.424929
    31 3.323332 0.233744 1.479075 -0.399082 -0.449085 0.621478
    32 0.963099 0.000010 0.000000 -0.018001 0.008941 0.549273
    33 0.682898 -0.000002 0.000000 -0.017989 0.008941 0.549349
    34 18.165005 -0.024749 -9.651407 -0.439444 -0.030688 -0.203459
    35 2.937994 -9.264549 -7.409141 -2.769784 -0.071549 -7.095501
    36 0.000000 3.992340 0.007782 1.570796 0.000000 -1.570796
    37 22.500687 -6.312693 -11.906613 -0.559179 3.128774 -0.816294
    38 -0.021929 2.029111 -0.137266 -1.570805 0.000001 0.000000
    39 0.019532 0.000000 0.007813 0.000007 0.000000 0.000001
    40 0.002397 -0.669111 0.409449 1.570796 0.000000 0.000000
    41 -0.002402 -6.221447 0.929182 -0.816253 0.000000 0.000000
  time 10
    0 3.516136 -5.694127 -8.784183 -1.493282 0.284799 -6.820049
    1 10.295578 0.000000 0.000002 -0.471927 -0.106719 -0.160911
    2 17.918903 1.233101 -9.319366 -0.735816 0.043407 -0.426170
    3 10.295582 0.000001 -0.000006 -0.921945 0.182533 -0.011177
    4 1.149520 0.416502 1.414117 -2.019538 -0.212592 0.859487
    5 1.263885 0.000000 -0.000008 0.010499 -0.004207 0.261076
    6 1.188939 -0.000002 0.000010 0.004290 -0.004350 0.883994
    7 3.773755 0.133215 0.970575 0.064315 0.064033 1.441404
    8 1.433456 0.000000 0.000000 0.082047 -0.025947 1.400638
    9 1.019165 -0.000006 0.000001 0.111253 -0.007179 1.169620
    10 3.799514 0.014957 0.039959 0.061640 0.037479 1.689009
    11 1.774878 0.000000 0.000000 0.019487 -0.092150 1.499632
    12 1.008844 -0.000004 0.000000 0.102193 -0.036193 0.427732
    13 3.632766 0.059052 -0.757493 -0.011599 -0.048840 1.869198
    14 1.500137 0.000002 0.000000 0.117785 -0.032095 0.854928
    15 0.905666 -0.000002 -0.000001 0.110558 -0.051989 1.029632
    16 3.323331 0.233744 -1.479075 0.058982 -0.114638 1.951023
    17 0.963100 0.000011 0.000000 0.060474 0.054818 0.140231
    18 0.682894 -0.000006 -0.000001 0.068049 -0.045158 1.459661
    19 1.149529 0.416498 -1.414117 1.695985 0.643333 0.384411
    20 1.263884 0.000001 0.000000 -0.009336 0.006472 0.475820
    21 1.188946 0.000000 0.000002 -0.011266 0.001906 0.214483
    22 3.773762 0.133217 -0.970574 0.032751 0.177541 0.050162
    23 1.433458 0.000004 0.000000 -0.035235 0.012931 0.451902
    24 1.019165 0.000011 0.000000 -0.035247 0.012955 0.452115
    25 3.799517 0.014957 -0.039958 -0.033200 -0.011916 0.276310
    26 1.774879 0.000004 0.000000 -0.022471 0.008917 0.454686
    27 1.008841 0.000004 0.000000 -0.022351 0.008929 0.454767
    28 3.632765 0.059053 0.757493 -0.281201 -0.185819 0.459243
    29 1.500135 0.000004 0.000000 -0.017006 0.006568 0.424929
    30 0.905668 0.000002 -0.000001 -0.016994 0.006556 0.424929
    31 3.323332 0.233744 1.479075 -0.399082 -0.449085 0.621478
    32 0.963099 0.000010 0.000000 -0.018001 0.008941 0.549273
    33 0.682898 -0.000002 0.000000 -0.017989 0.008941 0.549349
    34 17.918903 1.233101 -9.319366 -0.149095 0.043421 -0.426612
    35 3.516136 -5.694127 -8.784183 -2.668960 0.285153 -6.820150
    36 0.000000 3.992340 0.007782 1.570796 0.000000 -1.570796
    37 16.563005 -12.465224 -13.375408 -0.525069 2.867239 -1.199970
    38 -0.021929 2.029111 -0.137266 -1.570805 0.000001 0.000000
    39 0.007813 0.000000 0.000000 0.000007 0.000000 0.000001
    40 0.014116 -0.669111 0.409449 1.570796 0.000000 0.000000
    41 -0.002402 -6.221447 0.929182 -0.816253 0.000000 0.000000
  time 11
    0 -1.034784 -2.365901 -10.213914 -1.495954 0.298531 -6.867965
    1 10.295578 0.000000 0.000002 -0.521304 -0.006636 0.063357
    2 18.106409 2.662833 -7.897447 -0.416503 0.247681 -0.758641
    3 10.295582 0.000001 -0.000006 -1.352217 0.045779 0.076085
    4 1.149520 0.416502 1.414117 -2.019538 -0.212592 0.859487
    5 1.263885 0.000000 -0.000008 0.010499 -0.004207 0.261076
    6 1.188939 -0.000002 0.000010 0.004290 -0.004350 0.883994
    7 3.773755 0.133215 0.970575 0.064315 0.064033 1.441404
    8 1.433456 0.000000 0.000000 0.082047 -0.025947 1.400638
    9 1.019165 -0.000006 0.000001 0.111253 -0.007179 1.169620
    10 3.799514 0.014957 0.039959 0.061640 0.037479 1.689009
    11 1.774878 0.000000 0.000000 0.019487 -0.092150 1.499632
    12 1.008844 -0.000004 0.000000 0.102193 -0.036193 0.427732
    13 3.632766 0.059052 -0.757493 -0.011599 -0.048840 1.869198
    14 1.500137 0.000002 0.000000 0.117785 -0.032095 0.854928
    15 0.905666 -0.000002 -0.000001 0.110558 -0.051989 1.029632
    16 3.323331 0.233744 -1.479075 0.058982 -0.114638 1.951023
    17 0.963100 0.000011 0.000000 0.060474 0.054818 0.140231
    18 0.682894 -0.000006 -0.000001 0.068049 -0.045158 1.459661
    19 1.149529 0.416498 -1.414117 1.695985 0.643333 0.384411
    20 1.263884 0.000001 0.000000 -0.009336 0.006472 0.475820
    21 1.188946 0.000000 0.000002 -0.011266 0.001906 0.214483
    22 3.773762 0.133217 -0.970574 0.032751 0.177541 0.050162
    23 1.433458 0.000004 0.000000 -0.035235 0.012931 0.451902
    24 1.019165 0.000011 0.000000 -0.035247 0.012955 0.452115
    25 3.799517 0.014957 -0.039958 -0.033200 -0.011916 0.276310
    26 1.774879 0.000004 0.000000 -0.022471 0.008917 0.454686
    27 1.008841 0.000004 0.000000 -0.022351 0.008929 0.454767
    28 3.632765 0.059053 0.757493 -0.281201 -0.185819 0.459243
    29 1.500135 0.000004 0.000000 -0.017006 0.006568 0.424929
    30 0.905668 0.000002 -0.000001 -0.016994 0.006556 0.424929
    31 3.323332 0.233744 1.479075 -0.399082 -0.449085 0.621478
    32 0.963099 0.000010 0.000000 -0.018001 0.008941 0.549273
    33 0.682898 -0.000002 0.000000 -0.017989 0.008941 0.549349
    34 18.106409 2.662833 -7.897447 0.169848 0.247763 -0.758950
    35 -1.034784 -2.365901 -10.213914 -2.671795 0.298467 -6.867875
    36 0.000000 3.992340 0.007782 1.570796 0.000000 -1.570796
    37 13.875423 -14.617634 -8.261971 -0.571731 2.604845 -1.300788
    38 -0.021929 2.029111 -0.137266 -1.570805 0.000001 0.000000
    39 0.019532 0.000000 0.007813 0.000007 0.000000 0.000001
    40 0.002397 -0.669111 0.409449 1.570796 0.000000 0.000000
    41 -0.014121 -6.221447 0.929182 -0.816253 0.000000 0.000000
  time 12
    0 -3.058283 -1.182271 -10.221727 -1.535665 0.326559 -7.003967
    1 10.295578 0.000000 0.000002 -0.555950 -0.038784 0.069101
    2 18.848619 2.768305 -6.291930 -0.306391 0.493103 -1.126579
    3 10.295582 0.000001 -0.000006 -1.666435 -0.085448 0.176804
    4 1.149520 0.416502 1.414117 -2.019538 -0.212592 0.859487
    5 1.263885 0.000000 -0.000008 0.010499 -0.004207 0.261076
    6 1.188939 -0.000002 0.000010 0.004290 -0.004350 0.883994
    7 3.773755 0.133215 0.970575 0.064315 0.064033 1.441404
    8 1.433456 0.000000 0.000000 0.082047 -0.025947 1.400638
    9 1.019165 -0.000006 0.000001 0.111253 -0.007179 1.169620
    10 3.799514 0.014957 0.039959 0.061640 0.037479 1.689009
    11 1.774878 0.000000 0.000000 0.019487 -0.092150 1.499632
    12 1.008844 -0.000004 0.000000 0.102193 -0.036193 0.427732
    13 3.632766 0.059052 -0.757493 -0.011599 -0.048840 1.869198
    14 1.500137 0.000002 0.000000 0.117785 -0.032095 0.854928
    15 0.905666 -0.000002 -0.000001 0.110558 -0.051989 1.029632
    16 3.323331 0.233744 -1.479075 0.058982 -0.114638 1.951023
    17 0.963100 0.000011 0.000000 0.060474 0.054818 0.140231
    18 0.682894 -0.000006 -0.000001 0.068049 -0.045158 1.459661
    19 1.149529 0.416498 -1.414117 1.695985 0.643333 0.384411
    20 1.263884 0.000001 0.000000 -0.009336 0.006472 0.475820
    21 1.188946 0.000000 0.000002 -0.011266 0.001906 0.214483
    22 3.773762 0.133217 -0.970574 0.032751 0.177541 0.050162
    23 1.433458 0.000004 0.000000 -0.035235 0.012931 0.451902
    24 1.019165 0.000011 0.000000 -0.035247 0.012955 0.452115
    25 3.799517 0.014957 -0.039958 -0.033200 -0.011916 0.276310
    26 1.774879 0.000004 0.000000 -0.022471 0.008917 0.454686
    27 1.008841 0.000004 0.000000 -0.022351 0.008929 0.454767
    28 3.632765 0.059053 0.757493 -0.281201 -0.185819 0.459243
    29 1.500135 0.000004 0.000000 -0.017006 0.006568 0.424929
    30 0.905668 0.000002 -0.000001 -0.016994 0.006556 0.424929
    31 3.323332 0.233744 1.479075 -0.399082 -0.449085 0.621478
    32 0.963099 0.000010 0.000000 -0.018001 0.008941 0.549273
    33 0.682898 -0.000002 0.000000 -0.017989 0.008941 0.549349
    34 18.848619 2.768305 -6.291930 0.280475 0.493194 -1.126613
    35 -3.058283 -1.182271 -10.221727 -2.711607 0.326436 -7.003877
    36 0.000000 3.992340 0.007782 1.570796 0.000000 -1.570796
    37 12.957427 -15.594226 -6.175970 4.191729 -0.705638 -1.721762
    38 -0.021929 2.029111 -0.137266 -1.570805 0.000001 0.000000
    39 0.019532 0.000000 0.007813 0.000007 0.000000 0.000001
    40 0.002397 -0.669111 0.409449 1.570796 0.000000 0.000000
    41 -0.014121 -6.221447 0.929182 -0.816253 0.000000 0.000000
  time 13
    0 -2.972343 -1.233054 -9.776401 -1.574188 0.431992 -0.841901
    1 10.295578 0.000000 0.000002 -0.600007 -0.046475 -0.044469
    2 19.461919 1.604207 -6.116143 -0.444031 0.593476 -1.531838
    3 10.295582 0.000001 -0.000006 -1.763935 -0.154178 0.266162
    4 1.149520 0.416502 1.414117 -2.019538 -0.212592 0.859487
    5 1.263885 0.000000 -0.000008 0.010499 -0.004207 0.261076
    6 1.188939 -0.000002 0.000010 0.004290 -0.004350 0.883994
    7 3.773755 0.133215 0.970575 0.064315 0.064033 1.441404
    8 1.433456 0.000000 0.000000 0.082047 -0.025947 1.400638
    9 1.019165 -0.000006 0.000001 0.111253 -0.007179 1.169620
    10 3.799514 0.014957 0.039959 0.061640 0.037479 1.689009
    11 1.774878 0.000000 0.000000 0.019487 -0.092150 1.499632
    12 1.008844 -0.000004 0.000000 0.102193 -0.036193 0.427732
    13 3.632766 0.059052 -0.757493 -0.011599 -0.048840 1.869198
    14 1.500137 0.000002 0.000000 0.117785 -0.032095 0.854928
    15 0.905666 -0.000002 -0.000001 0.110558 -0.051989 1.029632
    16 3.323331 0.233744 -1.479075 0.058982 -0.114638 1.951023
    17 0.963100 0.000011 0.000000 0.060474 0.054818 0.140231
    18 0.682894 -0.000006 -0.000001 0.068049 -0.045158 1.459661
    19 1.149529 0.416498 -1.414117 1.695985 0.643333 0.384411
    20 1.263884 0.000001 0.000000 -0.009336 0.006472 0.475820
    21 1.188946 0.000000 0.000002 -0.011266 0.001906 0.214483
    22 3.773762 0.133217 -0.970574 0.032751 0.177541 0.050162
    23 1.433458 0.000004 0.000000 -0.035235 0.012931 0.451902
    24 1.019165 0.000011 0.000000 -0.035247 0.012955 0.452115
    25 3.799517 0.014957 -0.039958 -0.033200 -0.011916 0.276310
    26 1.774879 0.000004 0.000000 -0.022471 0.008917 0.454686
    27 1.008841 0.000004 0.000000 -0.022351 0.008929 0.454767
    28 3.632765 0.059053 0.757493 -0.281201 -0.185819 0.459243
    29 1.500135 0.000004 0.000000 -0.017006 0.006568 0.424929
    30 0.905668 0.000002 -0.000001 -0.016994 0.006556 0.424929
    31 3.323332 0.233744 1.479075 -0.399082 -0.449085 0.621478
    32 0.963099 0.000010 0.000000 -0.018001 0.008941 0.549273
    33 0.682898 -0.000002 0.000000 -0.017989 0.008941 0.549349
    34 19.461919 1.604207 -6.116143 0.142566 0.593501 -1.532099
    35 -2.972343 -1.233054 -9.776401 -2.749878 0.432661 -0.841991
    36 0.000000 3.992340 0.007782 1.570796 0.000000 -1.570796
    37 13.812922 -16.125492 -4.929838 4.311307 -0.737626 -1.740979
    38 -0.021929 2.029111 -0.137266 -1.570805 0.000001 0.000000
    39 0.019532 0.000000 0.007813 0.000007 0.000000 0.000001
    40 0.002397 -0.669111 0.409449 1.570796 0.000000 0.000000
    41 -0.002402 -6.221447 0.929182 -0.816253 0.000000 0.000000
  time 14
    0 -2.527017 -1.807290 -9.354513 -1.612118 0.542222 -0.959253
    1 10.295578 0.000000 0.000002 -0.641132 -0.040434 -0.195906
    2 19.637706 -0.056000 -7.073204 -0.636604 0.546827 -1.897278
    3 10.295582 0.000001 -0.000006 -1.738506 -0.177107 0.335049
    4 1.149520 0.416502 1.414117 -2.019538 -0.212592 0.859487
    5 1.263885 0.000000 -0.000008 0.010499 -0.004207 0.261076
    6 1.188939 -0.000002 0.000010 0.004290 -0.004350 0.883994
    7 3.773755 0.133215 0.970575 0.064315 0.064033 1.441404
    8 1.433456 0.000000 0.000000 0.082047 -0.025947 1.400638
    9 1.019165 -0.000006 0.000001 0.111253 -0.007179 1.169620
    10 3.799514 0.014957 0.039959 0.061640 0.037479 1.689009
    11 1.774878 0.000000 0.000000 0.019487 -0.092150 1.499632
    12 1.008844 -0.000004 0.000000 0.102193 -0.036193 0.427732
    13 3.632766 0.059052 -0.757493 -0.011599 -0.048840 1.869198
    14 1.500137 0.000002 0.000000 0.117785 -0.032095 0.854928
    15 0.905666 -0.000002 -0.000001 0.110558 -0.051989 1.029632
    16 3.323331 0.233744 -1.479075 0.058982 -0.114638 1.951023
    17 0.963100 0.000011 0.000000 0.060474 0.054818 0.140231
    18 0.682894 -0.000006 -0.000001 0.068049 -0.045158 1.459661
    19 1.149529 0.416498 -1.414117 1.695985 0.643333 0.384411
    20 1.263884 0.000001 0.000000 -0.009336 0.006472 0.475820
    21 1.188946 0.000000 0.000002 -0.011266 0.001906 0.214483
    22 3.773762 0.133217 -0.970574 0.032751 0.177541 0.050162
    23 1.433458 0.000004 0.000000 -0.035235 0.012931 0.451902
    24 1.019165 0.000011 0.000000 -0.035247 0.012955 0.452115
    25 3.799517 0.014957 -0.039958 -0.033200 -0.011916 0.276310
    26 1.774879 0.000004 0.000000 -0.022471 0.008917 0.454686
    27 1.008841 0.000004 0.000000 -0.022351 0.008929 0.454767
    28 3.632765 0.059053 0.757493 -0.281201 -0.185819 0.459243
    29 1.500135 0.000004 0.000000 -0.017006 0.006568 0.424929
    30 0.905668 0.000002 -0.000001 -0.016994 0.006556 0.424929
    31 3.323332 0.233744 1.479075 -0.399082 -0.449085 0.621478
    32 0.963099 0.000010 0.000000 -0.018001 0.008941 0.549273
    33 0.682898 -0.000002 0.000000 -0.017989 0.008941 0.549349
    34 19.637706 -0.056000 -7.073204 -0.050000 0.546803 -1.897264
    35 -2.527017 -1.807290 -9.354513 -2.788889 0.542429 -0.959247
    36 0.000000 3.992340 0.007782 1.570796 0.000000 -1.570796
    37 14.930143 -16.625507 -4.000122 4.434621 -0.752426 -1.744387
    38 -0.021929 2.029111 -0.137266 -1.570805 0.000001 0.000000
    39 0.019532 0.000000 0.007813 0.000007 0.000000 0.000001
    40 0.002397 -0.669111 0.409449 1.570796 0.000000 0.000000
    41 -0.002402 -6.221447 0.929182 -0.816253 0.000000 0.000000
  time 15
    0 -2.155912 -2.588564 -8.944344 -1.655466 0.645210 -1.082726
    1 10.295578 0.000000 0.000002 -0.670185 -0.032767 -0.370444
    2 19.231443 -1.938870 -8.456058 -0.763652 0.426677 -2.146114
    3 10.295582 0.000001 -0.000006 -1.647881 -0.172457 0.369683
    4 1.149520 0.416502 1.414117 -2.019538 -0.212592 0.859487
    5 1.263885 0.000000 -0.000008 0.010499 -0.004207 0.261076
    6 1.188939 -0.000002 0.000010 0.004290 -0.004350 0.883994
    7 3.773755 0.133215 0.970575 0.064315 0.064033 1.441404
    8 1.433456 0.000000 0.000000 0.082047 -0.025947 1.400638
    9 1.019165 -0.000006 0.000001 0.111253 -0.007179 1.169620
    10 3.799514 0.014957 0.039959 0.061640 0.037479 1.689009
    11 1.774878 0.000000 0.000000 0.019487 -0.092150 1.499632
    12 1.008844 -0.000004 0.000000 0.102193 -0.036193 0.427732
    13 3.632766 0.059052 -0.757493 -0.011599 -0.048840 1.869198
    14 1.500137 0.000002 0.000000 0.117785 -0.032095 0.854928
    15 0.905666 -0.000002 -0.000001 0.110558 -0.051989 1.029632
    16 3.323331 0.233744 -1.479075 0.058982 -0.114638 1.951023
    17 0.963100 0.000011 0.000000 0.060474 0.054818 0.140231
    18 0.682894 -0.000006 -0.000001 0.068049 -0.045158 1.459661
    19 1.149529 0.416498 -1.414117 1.695985 0.643333 0.384411
    20 1.263884 0.000001 0.000000 -0.009336 0.006472 0.475820
    21 1.188946 0.000000 0.000002 -0.011266 0.001906 0.214483
    22 3.773762 0.133217 -0.970574 0.032751 0.177541 0.050162
    23 1.433458 0.000004 0.000000 -0.035235 0.012931 0.451902
    24 1.019165 0.000011 0.000000 -0.035247 0.012955 0.452115
    25 3.799517 0.014957 -0.039958 -0.033200 -0.011916 0.276310
    26 1.774879 0.000004 0.000000 -0.022471 0.008917 0.454686
    27 1.008841 0.000004 0.000000 -0.022351 0.008929 0.454767
    28 3.632765 0.059053 0.757493 -0.281201 -0.185819 0.459243
    29 1.500135 0.000004 0.000000 -0.017006 0.006568 0.424929
    30 0.905668 0.000002 -0.000001 -0.016994 0.006556 0.424929
    31 3.323332 0.233744 1.479075 -0.399082 -0.449085 0.621478
    32 0.963099 0.000010 0.000000 -0.018001 0.008941 0.549273
    33 0.682898 -0.000002 0.000000 -0.017989 0.008941 0.549349
    34 19.231443 -1.938870 -8.456058 -0.177033 0.426684 -2.146322
    35 -2.155912 -2.588564 -8.944344 -2.832337 0.645015 -1.082816
    36 0.000000 3.992340 0.007782 1.570796 0.000000 -1.570796
    37 16.062990 -16.918485 -2.968841 4.557361 -0.749275 -1.734163
    38 -0.021929 2.029111 -0.137266 -1.570805 0.000001 0.000000
    39 0.007813 0.000000 0.000000 0.000007 0.000000 0.000001
    40 0.014116 -0.669111 0.409449 1.570796 0.000000 0.000000
    41 -0.014121 -6.221447 0.929182 -0.816253 0.000000 0.000000
  time 16
    0 -2.589519 -3.022171 -8.659179 -1.709354 0.590095 -1.240725
    1 10.295578 0.000000 0.000002 -0.671276 -0.067074 -0.416521
    2 18.481421 -3.665486 -9.643595 -0.813042 0.306146 -2.279773
    3 10.295582 0.000001 -0.000006 -1.530459 -0.157800 0.360305
    4 1.149520 0.416502 1.414117 -2.019538 -0.212592 0.859487
    5 1.263885 0.000000 -0.000008 0.010499 -0.004207 0.261076
    6 1.188939 -0.000002 0.000010 0.004290 -0.004350 0.883994
    7 3.773755 0.133215 0.970575 0.064315 0.064033 1.441404
    8 1.433456 0.000000 0.000000 0.082047 -0.025947 1.400638
    9 1.019165 -0.000006 0.000001 0.111253 -0.007179 1.169620
    10 3.799514 0.014957 0.039959 0.061640 0.037479 1.689009
    11 1.774878 0.000000 0.000000 0.019487 -0.092150 1.499632
    12 1.008844 -0.000004 0.000000 0.102193 -0.036193 0.427732
    13 3.632766 0.059052 -0.757493 -0.011599 -0.048840 1.869198
    14 1.500137 0.000002 0.000000 0.117785 -0.032095 0.854928
    15 0.905666 -0.000002 -0.000001 0.110558 -0.051989 1.029632
    16 3.323331 0.233744 -1.479075 0.058982 -0.114638 1.951023
    17 0.963100 0.000011 0.000000 0.060474 0.054818 0.140231
    18 0.682894 -0.000006 -0.000001 0.068049 -0.045158 1.459661
    19 1.149529 0.416498 -1.414117 1.695985 0.643333 0.384411
    20 1.263884 0.000001 0.000000 -0.009336 0.006472 0.475820
    21 1.188946 0.000000 0.000002 -0.011266 0.001906 0.214483
    22 3.773762 0.133217 -0.970574 0.032751 0.177541 0.050162
    23 1.433458 0.000004 0.000000 -0.035235 0.012931 0.451902
    24 1.019165 0.000011 0.000000 -0.035247 0.012955 0.452115
    25 3.799517 0.014957 -0.039958 -0.033200 -0.011916 0.276310
    26 1.774879 0.000004 0.000000 -0.022471 0.008917 0.454686
    27 1.008841 0.000004 0.000000 -0.022351 0.008929 0.454767
    28 3.632765 0.059053 0.757493 -0.281201 -0.185819 0.459243
    29 1.500135 0.000004 0.000000 -0.017006 0.006568 0.424929
    30 0.905668 0.000002 -0.000001 -0.016994 0.006556 0.424929
    31 3.323332 0.233744 1.479075 -0.399082 -0.449085 0.621478
    32 0.963099 0.000010 0.000000 -0.018001 0.008941 0.549273
    33 0.682898 -0.000002 0.000000 -0.017989 0.008941 0.549349
    34 18.481421 -3.665486 -9.643595 -0.226534 0.306077 -2.279985
    35 -2.589519 -3.022171 -8.659179 0.254689 2.550263 -4.381582
    36 0.000000 3.992340 0.007782 1.570796 0.000000 -1.570796
    37 17.598193 -15.937986 -1.265664 4.674543 -0.727600 -1.710497
    38 -0.021929 2.029111 -0.137266 -1.570805 0.000001 0.000000
    39 0.019532 0.000000 0.007813 0.000007 0.000000 0.000001
    40 0.002397 -0.669111 0.409449 1.570796 0.000000 0.000000
    41 -0.002402 -6.221447 0.929182 -0.816253 0.000000 0.000000
  time 17
    0 -3.487984 -3.510467 -8.377921 -1.757304 0.407068 -1.395281
    1 10.295578 0.000000 0.000002 -0.625855 -0.128701 -0.357707
    2 17.848589 -4.923336 -10.167048 -0.803866 0.215689 -2.323304
    3 10.295582 0.000001 -0.000006 -1.410303 -0.153949 0.310403
    4 1.149520 0.416502 1.414117 -2.019538 -0.212592 0.859487
    5 1.263885 0.000000 -0.000008 0.010499 -0.004207 0.261076
    6 1.188939 -0.000002 0.000010 0.004290 -0.004350 0.883994
    7 3.773755 0.133215 0.970575 0.064315 0.064033 1.441404
    8 1.433456 0.000000 0.000000 0.082047 -0.025947 1.400638
    9 1.019165 -0.000006 0.000001 0.111253 -0.007179 1.169620
    10 3.799514 0.014957 0.039959 0.061640 0.037479 1.689009
    11 1.774878 0.000000 0.000000 0.019487 -0.092150 1.499632
    12 1.008844 -0.000004 0.000000 0.102193 -0.036193 0.427732
    13 3.632766 0.059052 -0.757493 -0.011599 -0.048840 1.869198
    14 1.500137 0.000002 0.000000 0.117785 -0.032095 0.854928
    15 0.905666 -0.000002 -0.000001 0.110558 -0.051989 1.029632
    16 3.323331 0.233744 -1.479075 0.058982 -0.114638 1.951023
    17 0.963100 0.000011 0.000000 0.060474 0.054818 0.140231
    18 0.682894 -0.000006 -0.000001 0.068049 -0.045158 1.459661
    19 1.149529 0.416498 -1.414117 1.695985 0.643333 0.384411
    20 1.263884 0.000001 0.000000 -0.009336 0.006472 0.475820
    21 1.188946 0.000000 0.000002 -0.011266 0.001906 0.214483
    22 3.773762 0.133217 -0.970574 0.032751 0.177541 0.050162
    23 1.433458 0.000004 0.000000 -0.035235 0.012931 0.451902
    24 1.019165 0.000011 0.000000 -0.035247 0.012955 0.452115
    25 3.799517 0.014957 -0.039958 -0.033200 -0.011916 0.276310
    26 1.774879 0.000004 0.000000 -0.022471 0.008917 0.454686
    27 1.008841 0.000004 0.000000 -0.022351 0.008929 0.454767
    28 3.632765 0.059053 0.757493 -0.281201 -0.185819 0.459243
    29 1.500135 0.000004 0.000000 -0.017006 0.006568 0.424929
    30 0.905668 0.000002 -0.000001 -0.016994 0.006556 0.424929
    31 3.323332 0.233744 1.479075 -0.399082 -0.449085 0.621478
    32 0.963099 0.000010 0.000000 -0.018001 0.008941 0.549273
    33 0.682898 -0.000002 0.000000 -0.017989 0.008941 0.549349
    34 17.848589 -4.923336 -10.167048 -0.215190 0.215539 -2.322946
    35 -3.487984 -3.510467 -8.377921 0.206927 2.732923 -4.536234
    36 0.000000 3.992340 0.007782 1.570796 0.000000 -1.570796
    37 19.500595 -13.687918 0.937529 -1.501044 -0.685968 -1.675660
    38 -0.021929 2.029111 -0.137266 -1.570805 0.000001 0.000000
    39 0.019532 0.000000 0.007813 0.000007 0.000000 0.000001
    40 0.002397 -0.669111 0.409449 1.570796 0.000000 0.000000
    41 -0.002402 -6.221447 0.929182 -0.816253 0.000000 0.000000
  time 18
    0 -4.343479 -4.057359 -8.038067 -1.789147 0.214448 -1.500008
    1 10.295578 0.000000 0.000002 -0.549539 -0.160121 -0.288716
    2 17.356386 -5.903835 -10.338928 -0.778247 0.145173 -2.339717
    3 10.295582 0.000001 -0.000006 -1.279991 -0.165652 0.228707
    4 1.149520 0.416502 1.414117 -2.019538 -0.212592 0.859487
    5 1.263885 0.000000 -0.000008 0.010499 -0.004207 0.261076
    6 1.188939 -0.000002 0.000010 0.004290 -0.004350 0.883994
    7 3.773755 0.133215 0.970575 0.064315 0.064033 1.441404
    8 1.433456 0.000000 0.000000 0.082047 -0.025947 1.400638
    9 1.019165 -0.000006 0.000001 0.111253 -0.007179 1.169620
    10 3.799514 0.014957 0.039959 0.061640 0.037479 1.689009
    11 1.774878 0.000000 0.000000 0.019487 -0.092150 1.499632
    12 1.008844 -0.000004 0.000000 0.102193 -0.036193 0.427732
    13 3.632766 0.059052 -0.757493 -0.011599 -0.048840 1.869198
    14 1.500137 0.000002 0.000000 0.117785 -0.032095 0.854928
    15 0.905666 -0.000002 -0.000001 0.110558 -0.051989 1.029632
    16 3.323331 0.233744 -1.479075 0.058982 -0.114638 1.951023
    17 0.963100 0.000011 0.000000 0.060474 0.054818 0.140231
    18 0.682894 -0.000006 -0.000001 0.068049 -0.045158 1.459661
    19 1.149529 0.416498 -1.414117 1.695985 0.643333 0.384411
    20 1.263884 0.000001 0.000000 -0.009336 0.006472 0.475820
    21 1.188946 0.000000 0.000002 -0.011266 0.001906 0.214483
    22 3.773762 0.133217 -0.970574 0.032751 0.177541 0.050162
    23 1.433458 0.000004 0.000000 -0.035235 0.012931 0.451902
    24 1.019165 0.000011 0.000000 -0.035247 0.012955 0.452115
    25 3.799517 0.014957 -0.039958 -0.033200 -0.011916 0.276310
    26 1.774879 0.000004 0.000000 -0.022471 0.008917 0.454686
    27 1.008841 0.000004 0.000000 -0.022351 0.008929 0.454767
    28 3.632765 0.059053 0.757493 -0.281201 -0.185819 0.459243
    29 1.500135 0.000004 0.000000 -0.017006 0.006568 0.424929
    30 0.905668 0.000002 -0.000001 -0.016994 0.006556 0.424929
    31 3.323332 0.233744 1.479075 -0.399082 -0.449085 0.621478
    32 0.963099 0.000010 0.000000 -0.018001 0.008941 0.549273
    33 0.682898 -0.000002 0.000000 -0.017989 0.008941 0.549349
    34 17.356386 -5.903835 -10.338928 -0.173283 0.144977 -2.339431
    35 -4.343479 -4.057359 -8.038067 -2.966132 0.214464 -1.500386
    36 0.000000 3.992340 0.007782 1.570796 0.000000 -1.570796
    37 20.938139 -11.156590 2.886807 -1.408295 -0.627340 -1.633913
    38 -0.021929 2.029111 -0.137266 -1.570805 0.000001 0.000000
    39 0.019532 0.000000 0.007813 0.000007 0.000000 0.000001
    40 0.002397 -0.669111 0.409449 1.570796 0.000000 0.000000
    41 -0.002402 -6.221447 0.929182 -0.816253 0.000000 0.000000
  time 19
    0 -4.780992 -3.979231 -8.221666 -1.800652 0.076378 -1.524875
    1 10.295578 0.000000 0.000002 -0.465107 -0.110941 -0.263211
    2 16.918873 -6.739798 -10.389711 -0.752197 0.088717 -2.351206
    3 10.295582 0.000001 -0.000006 -1.135069 -0.185913 0.122994
    4 1.149520 0.416502 1.414117 -2.019538 -0.212592 0.859487
    5 1.263885 0.000000 -0.000008 0.010499 -0.004207 0.261076
    6 1.188939 -0.000002 0.000010 0.004290 -0.004350 0.883994
    7 3.773755 0.133215 0.970575 0.064315 0.064033 1.441404
    8 1.433456 0.000000 0.000000 0.082047 -0.025947 1.400638
    9 1.019165 -0.000006 0.000001 0.111253 -0.007179 1.169620
    10 3.799514 0.014957 0.039959 0.061640 0.037479 1.689009
    11 1.774878 0.000000 0.000000 0.019487 -0.092150 1.499632
    12 1.008844 -0.000004 0.000000 0.102193 -0.036193 0.427732
    13 3.632766 0.059052 -0.757493 -0.011599 -0.048840 1.869198
    14 1.500137 0.000002 0.000000 0.117785 -0.032095 0.854928
    15 0.905666 -0.000002 -0.000001 0.110558 -0.051989 1.029632
    16 3.323331 0.233744 -1.479075 0.058982 -0.114638 1.951023
    17 0.963100 0.000011 0.000000 0.060474 0.054818 0.140231
    18 0.682894 -0.000006 -0.000001 0.068049 -0.045158 1.459661
    19 1.149529 0.416498 -1.414117 1.695985 0.643333 0.384411
    20 1.263884 0.000001 0.000000 -0.009336 0.006472 0.475820
    21 1.188946 0.000000 0.000002 -0.011266 0.001906 0.214483
    22 3.773762 0.133217 -0.970574 0.032751 0.177541 0.050162
    23 1.433458 0.000004 0.000000 -0.035235 0.012931 0.451902
    24 1.019165 0.000011 0.000000 -0.035247 0.012955 0.452115
    25 3.799517 0.014957 -0.039958 -0.033200 -0.011916 0.276310
    26 1.774879 0.000004 0.000000 -0.022471 0.008917 0.454686
    27 1.008841 0.000004 0.000000 -0.022351 0.008929 0.454767
    28 3.632765 0.059053 0.757493 -0.281201 -0.185819 0.459243
    29 1.500135 0.000004 0.000000 -0.017006 0.006568 0.424929
    30 0.905668 0.000002 -0.000001 -0.016994 0.006556 0.424929
    31 3.323332 0.233744 1.479075 -0.399082 -0.449085 0.621478
    32 0.963099 0.000010 0.000000 -0.018001 0.008941 0.549273
    33 0.682898 -0.000002 0.000000 -0.017989 0.008941 0.549349
    34 16.918873 -6.739798 -10.389711 -0.113282 0.088545 -2.350849
    35 -4.780992 -3.979231 -8.221666 -2.977225 0.076247 -1.525157
    36 0.000000 3.992340 0.007782 1.570796 0.000000 -1.570796
    37 21.242836 -9.586230 3.711051 -1.328768 -0.541594 -1.575505
    38 -0.021929 2.029111 -0.137266 -1.570805 0.000001 0.000000
    39 0.007813 0.000000 0.007813 0.000007 0.000000 0.000001
    40 0.002397 -0.669111 0.409449 1.570796 0.000000 0.000000
    41 -0.002402 -6.221447 0.929182 -0.816253 0.000000 0.000000
  time 20
    0 -5.093501 -3.584688 -8.760745 -1.807926 -0.040436 -1.523249
    1 10.295578 0.000000 0.000002 -0.350531 -0.025367 -0.278976
    2 16.543861 -7.482008 -10.331115 -0.726024 0.042792 -2.358271
    3 10.295582 0.000001 -0.000006 -0.981984 -0.210309 0.006092
    4 1.149520 0.416502 1.414117 -2.019538 -0.212592 0.859487
    5 1.263885 0.000000 -0.000008 0.010499 -0.004207 0.261076
    6 1.188939 -0.000002 0.000010 0.004290 -0.004350 0.883994
    7 3.773755 0.133215 0.970575 0.064315 0.064033 1.441404
    8 1.433456 0.000000 0.000000 0.082047 -0.025947 1.400638
    9 1.019165 -0.000006 0.000001 0.111253 -0.007179 1.169620
    10 3.799514 0.014957 0.039959 0.061640 0.037479 1.689009
    11 1.774878 0.000000 0.000000 0.019487 -0.092150 1.499632
    12 1.008844 -0.000004 0.000000 0.102193 -0.036193 0.427732
    13 3.632766 0.059052 -0.757493 -0.011599 -0.048840 1.869198
    14 1.500137 0.000002 0.000000 0.117785 -0.032095 0.854928
    15 0.905666 -0.000002 -0.000001 0.110558 -0.051989 1.029632
    16 3.323331 0.233744 -1.479075 0.058982 -0.114638 1.951023
    17 0.963100 0.000011 0.000000 0.060474 0.054818 0.140231
    18 0.682894 -0.000006 -0.000001 0.068049 -0.045158 1.459661
    19 1.149529 0.416498 -1.414117 1.695985 0.643333 0.384411
    20 1.263884 0.000001 0.000000 -0.009336 0.006472 0.475820
    21 1.188946 0.000000 0.000002 -0.011266 0.001906 0.214483
    22 3.773762 0.133217 -0.970574 0.032751 0.177541 0.050162
    23 1.433458 0.000004 0.000000 -0.035235 0.012931 0.451902
    24 1.019165 0.000011 0.000000 -0.035247 0.012955 0.452115
    25 3.799517 0.014957 -0.039958 -0.033200 -0.011916 0.276310
    26 1.774879 0.000004 0.000000 -0.022471 0.008917 0.454686
    27 1.008841 0.000004 0.000000 -0.022351 0.008929 0.454767
    28 3.632765 0.059053 0.757493 -0.281201 -0.185819 0.459243
    29 1.500135 0.000004 0.000000 -0.017006 0.006568 0.424929
    30 0.905668 0.000002 -0.000001 -0.016994 0.006556 0.424929
    31 3.323332 0.233744 1.479075 -0.399082 -0.449085 0.621478
    32 0.963099 0.000010 0.000000 -0.018001 0.008941 0.549273
    33 0.682898 -0.000002 0.000000 -0.017989 0.008941 0.549349
    34 16.543861 -7.482008 -10.331115 -0.038656 0.042643 -2.358057
    35 -5.093501 -3.584688 -8.760745 -2.984682 -0.040898 -1.523340
    36 0.000000 3.992340 0.007782 1.570796 0.000000 -1.570796
    37 20.934233 -8.433851 4.105594 -1.266393 -0.413357 -1.472131
    38 -0.021929 2.029111 -0.137266 -1.570805 0.000001 0.000000
    39 0.019532 0.000000 0.007813 0.000007 0.000000 0.000001
    40 0.002397 -0.669111 0.409449 1.570796 0.000000 0.000000
    41 -0.014121 -6.221447 0.929182 -0.816253 0.000000 0.000000
  time 21
    0 -5.394292 -3.256553 -9.374045 -1.818689 -0.161482 -1.517128
    1 10.295578 0.000000 0.000002 -0.209152 0.063265 -0.315407
    2 16.231352 -8.110934 -10.182673 -0.700590 0.005589 -2.361054
    3 10.295582 0.000001 -0.000006 -0.830109 -0.236536 -0.106655
    4 1.149520 0.416502 1.414117 -2.019538 -0.212592 0.859487
    5 1.263885 0.000000 -0.000008 0.010499 -0.004207 0.261076
    6 1.188939 -0.000002 0.000010 0.004290 -0.004350 0.883994
    7 3.773755 0.133215 0.970575 0.064315 0.064033 1.441404
    8 1.433456 0.000000 0.000000 0.082047 -0.025947 1.400638
    9 1.019165 -0.000006 0.000001 0.111253 -0.007179 1.169620
    10 3.799514 0.014957 0.039959 0.061640 0.037479 1.689009
    11 1.774878 0.000000 0.000000 0.019487 -0.092150 1.499632
    12 1.008844 -0.000004 0.000000 0.102193 -0.036193 0.427732
    13 3.632766 0.059052 -0.757493 -0.011599 -0.048840 1.869198
    14 1.500137 0.000002 0.000000 0.117785 -0.032095 0.854928
    15 0.905666 -0.000002 -0.000001 0.110558 -0.051989 1.029632
    16 3.323331 0.233744 -1.479075 0.058982 -0.114638 1.951023
    17 0.963100 0.000011 0.000000 0.060474 0.054818 0.140231
    18 0.682894 -0.000006 -0.000001 0.068049 -0.045158 1.459661
    19 1.149529 0.416498 -1.414117 1.695985 0.643333 0.384411
    20 1.263884 0.000001 0.000000 -0.009336 0.006472 0.475820
    21 1.188946 0.000000 0.000002 -0.011266 0.001906 0.214483
    22 3.773762 0.133217 -0.970574 0.032751 0.177541 0.050162
    23 1.433458 0.000004 0.000000 -0.035235 0.012931 0.451902
    24 1.019165 0.000011 0.000000 -0.035247 0.012955 0.452115
    25 3.799517 0.014957 -0.039958 -0.033200 -0.011916 0.276310
    26 1.774879 0.000004 0.000000 -0.022471 0.008917 0.454686
    27 1.008841 0.000004 0.000000 -0.022351 0.008929 0.454767
    28 3.632765 0.059053 0.757493 -0.281201 -0.185819 0.459243
    29 1.500135 0.000004 0.000000 -0.017006 0.006568 0.424929
    30 0.905668 0.000002 -0.000001 -0.016994 0.006556 0.424929
    31 3.323332 0.233744 1.479075 -0.399082 -0.449085 0.621478
    32 0.963099 0.000010 0.000000 -0.018001 0.008941 0.549273
    33 0.682898 -0.000002 0.000000 -0.017989 0.008941 0.549349
    34 16.231352 -8.110934 -10.182673 0.046002 0.005589 -2.360840
    35 -5.394292 -3.256553 -9.374045 -2.995344 -0.161299 -1.517123
    36 0.000000 3.992340 0.007782 1.570796 0.000000 -1.570796
    37 20.438124 -7.242409 4.422010 -1.226821 -0.256188 -1.324549
    38 -0.021929 2.029111 -0.137266 -1.570805 0.000001 0.000000
    39 0.019532 0.000000 0.007813 0.000007 0.000000 0.000001
    40 0.002397 -0.669111 0.409449 1.570796 0.000000 0.000000
    41 -0.002402 -6.221447 0.929182 -0.816253 0.000000 0.000000
  time 22
    0 -5.667738 -3.057328 -9.936562 -1.832124 -0.271712 -1.508520
    1 10.295578 0.000000 0.000002 -0.066409 0.145248 -0.358113
    2 15.946187 -8.673451 -10.018606 -0.676449 -0.024286 -2.360269
    3 10.295582 0.000001 -0.000006 -0.689055 -0.259465 -0.203161
    4 1.149520 0.416502 1.414117 -2.019538 -0.212592 0.859487
    5 1.263885 0.000000 -0.000008 0.010499 -0.004207 0.261076
    6 1.188939 -0.000002 0.000010 0.004290 -0.004350 0.883994
    7 3.773755 0.133215 0.970575 0.064315 0.064033 1.441404
    8 1.433456 0.000000 0.000000 0.082047 -0.025947 1.400638
    9 1.019165 -0.000006 0.000001 0.111253 -0.007179 1.169620
    10 3.799514 0.014957 0.039959 0.061640 0.037479 1.689009
    11 1.774878 0.000000 0.000000 0.019487 -0.092150 1.499632
    12 1.008844 -0.000004 0.000000 0.102193 -0.036193 0.427732
    13 3.632766 0.059052 -0.757493 -0.011599 -0.048840 1.869198
    14 1.500137 0.000002 0.000000 0.117785 -0.032095 0.854928
    15 0.905666 -0.000002 -0.000001 0.110558 -0.051989 1.029632
    16 3.323331 0.233744 -1.479075 0.058982 -0.114638 1.951023
    17 0.963100 0.000011 0.000000 0.060474 0.054818 0.140231
    18 0.682894 -0.000006 -0.000001 0.068049 -0.045158 1.459661
    19 1.149529 0.416498 -1.414117 1.695985 0.643333 0.384411
    20 1.263884 0.000001 0.000000 -0.009336 0.006472 0.475820
    21 1.188946 0.000000 0.000002 -0.011266 0.001906 0.214483
    22 3.773762 0.133217 -0.970574 0.032751 0.177541 0.050162
    23 1.433458 0.000004 0.000000 -0.035235 0.012931 0.451902
    24 1.019165 0.000011 0.000000 -0.035247 0.012955 0.452115
    25 3.799517 0.014957 -0.039958 -0.033200 -0.011916 0.276310
    26 1.774879 0.000004 0.000000 -0.022471 0.008917 0.454686
    27 1.008841 0.000004 0.000000 -0.022351 0.008929 0.454767
    28 3.632765 0.059053 0.757493 -0.281201 -0.185819 0.459243
    29 1.500135 0.000004 0.000000 -0.017006 0.006568 0.424929
    30 0.905668 0.000002 -0.000001 -0.016994 0.006556 0.424929
    31 3.323332 0.233744 1.479075 -0.399082 -0.449085 0.621478
    32 0.963099 0.000010 0.000000 -0.018001 0.008941 0.549273
    33 0.682898 -0.000002 0.000000 -0.017989 0.008941 0.549349
    34 15.946187 -8.673451 -10.018606 0.134691 -0.024355 -2.359841
    35 -5.667738 -3.057328 -9.936562 0.132295 -2.868550 -4.649665
    36 0.000000 3.992340 0.007782 1.570796 0.000000 -1.570796
    37 19.852168 -6.125187 4.672018 -1.200184 -0.098255 -1.163808
    38 -0.021929 2.029111 -0.137266 -1.570805 0.000001 0.000000
    39 0.019532 0.000000 0.000000 0.000007 0.000000 0.000001
    40 0.014116 -0.669111 0.409449 1.570796 0.000000 0.000000
    41 -0.014121 -6.221447 0.929182 -0.816253 0.000000 0.000000
  time 23
    0 -5.909933 -2.983107 -10.405326 -1.846672 -0.367740 -1.498478
    1 10.295578 0.000000 0.000002 0.062080 0.212868 -0.394856
    2 15.657116 -9.204717 -9.807662 -0.654094 -0.048045 -2.355773
    3 10.295582 0.000001 -0.000006 -0.566907 -0.277362 -0.272372
    4 1.149520 0.416502 1.414117 -2.019538 -0.212592 0.859487
    5 1.263885 0.000000 -0.000008 0.010499 -0.004207 0.261076
    6 1.188939 -0.000002 0.000010 0.004290 -0.004350 0.883994
    7 3.773755 0.133215 0.970575 0.064315 0.064033 1.441404
    8 1.433456 0.000000 0.000000 0.082047 -0.025947 1.400638
    9 1.019165 -0.000006 0.000001 0.111253 -0.007179 1.169620
    10 3.799514 0.014957 0.039959 0.061640 0.037479 1.689009
    11 1.774878 0.000000 0.000000 0.019487 -0.092150 1.499632
    12 1.008844 -0.000004 0.000000 0.102193 -0.036193 0.427732
    13 3.632766 0.059052 -0.757493 -0.011599 -0.048840 1.869198
    14 1.500137 0.000002 0.000000 0.117785 -0.032095 0.854928
    15 0.905666 -0.000002 -0.000001 0.110558 -0.051989 1.029632
    16 3.323331 0.233744 -1.479075 0.058982 -0.114638 1.951023
    17 0.963100 0.000011 0.000000 0.060474 0.054818 0.140231
    18 0.682894 -0.000006 -0.000001 0.068049 -0.045158 1.459661
    19 1.149529 0.416498 -1.414117 1.695985 0.643333 0.384411
    20 1.263884 0.000001 0.000000 -0.009336 0.006472 0.475820
    21 1.188946 0.000000 0.000002 -0.011266 0.001906 0.214483
    22 3.773762 0.133217 -0.970574 0.032751 0.177541 0.050162
    23 1.433458 0.000004 0.000000 -0.035235 0.012931 0.451902
    24 1.019165 0.000011 0.000000 -0.035247 0.012955 0.452115
    25 3.799517 0.014957 -0.039958 -0.033200 -0.011916 0.276310
    26 1.774879 0.000004 0.000000 -0.022471 0.008917 0.454686
    27 1.008841 0.000004 0.000000 -0.022351 0.008929 0.454767
    28 3.632765 0.059053 0.757493 -0.281201 -0.185819 0.459243
    29 1.500135 0.000004 0.000000 -0.017006 0.006568 0.424929
    30 0.905668 0.000002 -0.000001 -0.016994 0.006556 0.424929
    31 3.323332 0.233744 1.479075 -0.399082 -0.449085 0.621478
    32 0.963099 0.000010 0.000000 -0.018001 0.008941 0.549273
    33 0.682898 -0.000002 0.000000 -0.017989 0.008941 0.549349
    34 15.657116 -9.204717 -9.807662 0.223380 -0.048093 -2.355487
    35 -5.909933 -2.983107 -10.405326 0.117381 -2.772957 -4.639814
    36 0.000000 3.992340 0.007782 1.570796 0.000000 -1.570796
    37 19.250587 -5.191565 4.855617 -1.183129 0.041059 -1.015658
    38 -0.021929 2.029111 -0.137266 -1.570805 0.000001 0.000000
    39 0.019532 0.000000 0.007813 0.000007 0.000000 0.000001
    40 0.014116 -0.669111 0.409449 1.570796 0.000000 0.000000
    41 -0.002402 -6.221447 0.929182 -0.816253 0.000000 0.000000
  time 24
    0 -6.077906 -3.065141 -10.752993 -1.860107 -0.440067 -1.488914
    1 10.295578 0.000000 0.000002 0.158515 0.257414 -0.410777
    2 15.344606 -9.728171 -9.581093 -0.634572 -0.064529 -2.345854
    3 10.295582 0.000001 -0.000006 -0.473821 -0.287940 -0.302832
    4 1.149520 0.416502 1.414117 -2.019538 -0.212592 0.859487
    5 1.263885 0.000000 -0.000008 0.010499 -0.004207 0.261076
    6 1.188939 -0.000002 0.000010 0.004290 -0.004350 0.883994
    7 3.773755 0.133215 0.970575 0.064315 0.064033 1.441404
    8 1.433456 0.000000 0.000000 0.082047 -0.025947 1.400638
    9 1.019165 -0.000006 0.000001 0.111253 -0.007179 1.169620
    10 3.799514 0.014957 0.039959 0.061640 0.037479 1.689009
    11 1.774878 0.000000 0.000000 0.019487 -0.092150 1.499632
    12 1.008844 -0.000004 0.000000 0.102193 -0.036193 0.427732
    13 3.632766 0.059052 -0.757493 -0.011599 -0.048840 1.869198
    14 1.500137 0.000002 0.000000 0.117785 -0.032095 0.854928
    15 0.905666 -0.000002 -0.000001 0.110558 -0.051989 1.029632
    16 3.323331 0.233744 -1.479075 0.058982 -0.114638 1.951023
    17 0.963100 0.000011 0.000000 0.060474 0.054818 0.140231
    18 0.682894 -0.000006 -0.000001 0.068049 -0.045158 1.459661
    19 1.149529 0.416498 -1.414117 1.695985 0.643333 0.384411
    20 1.263884 0.000001 0.000000 -0.009336 0.006472 0.475820
    21 1.188946 0.000000 0.000002 -0.011266 0.001906 0.214483
    22 3.773762 0.133217 -0.970574 0.032751 0.177541 0.050162
    23 1.433458 0.000004 0.000000 -0.035235 0.012931 0.451902
    24 1.019165 0.000011 0.000000 -0.035247 0.012955 0.452115
    25 3.799517 0.014957 -0.039958 -0.033200 -0.011916 0.276310
    26 1.774879 0.000004 0.000000 -0.022471 0.008917 0.454686
    27 1.008841 0.000004 0.000000 -0.022351 0.008929 0.454767
    28 3.632765 0.059053 0.757493 -0.281201 -0.185819 0.459243
    29 1.500135 0.000004 0.000000 -0.017006 0.006568 0.424929
    30 0.905668 0.000002 -0.000001 -0.016994 0.006556 0.424929
    31 3.323332 0.233744 1.479075 -0.399082 -0.449085 0.621478
    32 0.963099 0.000010 0.000000 -0.018001 0.008941 0.549273
    33 0.682898 -0.000002 0.000000 -0.017989 0.008941 0.549349
    34 15.344606 -9.728171 -9.581093 0.306725 -0.064576 -2.345711
    35 -6.077906 -3.065141 -10.752993 0.103946 -2.701023 -4.630058
    36 0.000000 3.992340 0.007782 1.570796 0.000000 -1.570796
    37 18.856044 -4.558733 4.968902 -1.174218 0.142560 -0.911148
    38 -0.021929 2.029111 -0.137266 -1.570805 0.000001 0.000000
    39 0.019532 0.000000 0.007813 0.000007 0.000000 0.000001
    40 0.002397 -0.669111 0.409449 1.570796 0.000000 0.000000
    41 -0.002402 -6.221447 0.929182 -0.816253 0.000000 0.000000
  time 25
    0 -6.144315 -3.276085 -10.940499 -1.868272 -0.477876 -1.482123
    1 10.295578 0.000000 0.000002 0.203868 0.270977 -0.390954
    2 15.071160 -10.142246 -9.362336 -0.618006 -0.068384 -2.321662
    3 10.295582 0.000001 -0.000006 -0.406009 -0.299814 -0.318119
    4 1.149520 0.416502 1.414117 -2.019538 -0.212592 0.859487
    5 1.263885 0.000000 -0.000008 0.010499 -0.004207 0.261076
    6 1.188939 -0.000002 0.000010 0.004290 -0.004350 0.883994
    7 3.773755 0.133215 0.970575 0.064315 0.064033 1.441404
    8 1.433456 0.000000 0.000000 0.082047 -0.025947 1.400638
    9 1.019165 -0.000006 0.000001 0.111253 -0.007179 1.169620
    10 3.799514 0.014957 0.039959 0.061640 0.037479 1.689009
    11 1.774878 0.000000 0.000000 0.019487 -0.092150 1.499632
    12 1.008844 -0.000004 0.000000 0.102193 -0.036193 0.427732
    13 3.632766 0.059052 -0.757493 -0.011599 -0.048840 1.869198
    14 1.500137 0.000002 0.000000 0.117785 -0.032095 0.854928
    15 0.905666 -0.000002 -0.000001 0.110558 -0.051989 1.029632
    16 3.323331 0.233744 -1.479075 0.058982 -0.114638 1.951023
    17 0.963100 0.000011 0.000000 0.060474 0.054818 0.140231
    18 0.682894 -0.000006 -0.000001 0.068049 -0.045158 1.459661
    19 1.149529 0.416498 -1.414117 1.695985 0.643333 0.384411
    20 1.263884 0.000001 0.000000 -0.009336 0.006472 0.475820
    21 1.188946 0.000000 0.000002 -0.011266 0.001906 0.214483
    22 3.773762 0.133217 -0.970574 0.032751 0.177541 0.050162
    23 1.433458 0.000004 0.000000 -0.035235 0.012931 0.451902
    24 1.019165 0.000011 0.000000 -0.035247 0.012955 0.452115
    25 3.799517 0.014957 -0.039958 -0.033200 -0.011916 0.276310
    26 1.774879 0.000004 0.000000 -0.022471 0.008917 0.454686
    27 1.008841 0.000004 0.000000 -0.022351 0.008929 0.454767
    28 3.632765 0.059053 0.757493 -0.281201 -0.185819 0.459243
    29 1.500135 0.000004 0.000000 -0.017006 0.006568 0.424929
    30 0.905668 0.000002 -0.000001 -0.016994 0.006556 0.424929
    31 3.323332 0.233744 1.479075 -0.399082 -0.449085 0.621478
    32 0.963099 0.000010 0.000000 -0.018001 0.008941 0.549273
    33 0.682898 -0.000002 0.000000 -0.017989 0.008941 0.549349
    34 15.071160 -10.142246 -9.362336 0.379008 -0.068267 -2.321661
    35 -6.144315 -3.276085 -10.940499 0.096119 -2.662326 -4.623172
    36 0.000000 3.992340 0.007782 1.570796 0.000000 -1.570796
    37 18.844325 -4.312632 5.000153 -1.172398 0.186197 -0.883979
    38 -0.021929 2.029111 -0.137266 -1.570805 0.000001 0.000000
    39 0.019532 0.000000 0.007813 0.000007 0.000000 0.000001
    40 0.002397 -0.669111 0.409449 1.570796 0.000000 0.000000
    41 -0.002402 -6.221447 0.929182 -0.816253 0.000000 0.000000
  time 26
    0 -6.175566 -3.572969 -11.034252 -1.870276 -0.486811 -1.480019
    1 10.295578 0.000000 0.000002 0.224669 0.269497 -0.361266
    2 14.914905 -10.443036 -9.139673 -0.605073 -0.062828 -2.287266
    3 10.295582 0.000001 -0.000006 -0.352923 -0.317216 -0.341278
    4 1.149520 0.416502 1.414117 -2.019538 -0.212592 0.859487
    5 1.263885 0.000000 -0.000008 0.010499 -0.004207 0.261076
    6 1.188939 -0.000002 0.000010 0.004290 -0.004350 0.883994
    7 3.773755 0.133215 0.970575 0.064315 0.064033 1.441404
    8 1.433456 0.000000 0.000000 0.082047 -0.025947 1.400638
    9 1.019165 -0.000006 0.000001 0.111253 -0.007179 1.169620
    10 3.799514 0.014957 0.039959 0.061640 0.037479 1.689009
    11 1.774878 0.000000 0.000000 0.019487 -0.092150 1.499632
    12 1.008844 -0.000004 0.000000 0.102193 -0.036193 0.427732
    13 3.632766 0.059052 -0.757493 -0.011599 -0.048840 1.869198
    14 1.500137 0.000002 0.000000 0.117785 -0.032095 0.854928
    15 0.905666 -0.000002 -0.000001 0.110558 -0.051989 1.029632
    16 3.323331 0.233744 -1.479075 0.058982 -0.114638 1.951023
    17 0.963100 0.000011 0.000000 0.060474 0.054818 0.140231
    18 0.682894 -0.000006 -0.000001 0.068049 -0.045158 1.459661
    19 1.149529 0.416498 -1.414117 1.695985 0.643333 0.384411
    20 1.263884 0.000001 0.000000 -0.009336 0.006472 0.475820
    21 1.188946 0.000000 0.000002 -0.011266 0.001906 0.214483
    22 3.773762 0.133217 -0.970574 0.032751 0.177541 0.050162
    23 1.433458 0.000004 0.000000 -0.035235 0.012931 0.451902
    24 1.019165 0.000011 0.000000 -0.035247 0.012955 0.452115
    25 3.799517 0.014957 -0.039958 -0.033200 -0.011916 0.276310
    26 1.774879 0.000004 0.000000 -0.022471 0.008917 0.454686
    27 1.008841 0.000004 0.000000 -0.022351 0.008929 0.454767
    28 3.632765 0.059053 0.757493 -0.281201 -0.185819 0.459243
    29 1.500135 0.000004 0.000000 -0.017006 0.006568 0.424929
    30 0.905668 0.000002 -0.000001 -0.016994 0.006556 0.424929
    31 3.323332 0.233744 1.479075 -0.399082 -0.449085 0.621478
    32 0.963099 0.000010 0.000000 -0.018001 0.008941 0.549273
    33 0.682898 -0.000002 0.000000 -0.017989 0.008941 0.549349
    34 14.914905 -10.443036 -9.139673 0.437415 -0.062676 -2.287621
    35 -6.175566 -3.572969 -11.034252 0.093839 -2.652939 -4.620781
    36 0.000000 3.992340 0.007782 1.570796 0.000000 -1.570796
    37 19.109958 -4.359508 5.000153 -1.172781 0.202334 -0.901871
    38 -0.021929 2.029111 -0.137266 -1.570805 0.000001 0.000000
    39 0.007813 0.000000 0.007813 0.000007 0.000000 0.000001
    40 0.014116 -0.669111 0.409449 1.570796 0.000000 0.000000
    41 -0.014121 -6.221447 0.929182 -0.816253 0.000000 0.000000
  time 27
    0 -6.144315 -3.807351 -11.038158 -1.868272 -0.480980 -1.481071
    1 10.295578 0.000000 0.000002 0.236195 0.265081 -0.340600
    2 14.848497 -10.611010 -9.010763 -0.596698 -0.054650 -2.256224
    3 10.295582 0.000001 -0.000006 -0.318040 -0.332998 -0.362188
    4 1.149520 0.416502 1.414117 -2.019538 -0.212592 0.859487
    5 1.263885 0.000000 -0.000008 0.010499 -0.004207 0.261076
    6 1.188939 -0.000002 0.000010 0.004290 -0.004350 0.883994
    7 3.773755 0.133215 0.970575 0.064315 0.064033 1.441404
    8 1.433456 0.000000 0.000000 0.082047 -0.025947 1.400638
    9 1.019165 -0.000006 0.000001 0.111253 -0.007179 1.169620
    10 3.799514 0.014957 0.039959 0.061640 0.037479 1.689009
    11 1.774878 0.000000 0.000000 0.019487 -0.092150 1.499632
    12 1.008844 -0.000004 0.000000 0.102193 -0.036193 0.427732
    13 3.632766 0.059052 -0.757493 -0.011599 -0.048840 1.869198
    14 1.500137 0.000002 0.000000 0.117785 -0.032095 0.854928
    15 0.905666 -0.000002 -0.000001 0.110558 -0.051989 1.029632
    16 3.323331 0.233744 -1.479075 0.058982 -0.114638 1.951023
    17 0.963100 0.000011 0.000000 0.060474 0.054818 0.140231
    18 0.682894 -0.000006 -0.000001 0.068049 -0.045158 1.459661
    19 1.149529 0.416498 -1.414117 1.695985 0.643333 0.384411
    20 1.263884 0.000001 0.000000 -0.009336 0.006472 0.475820
    21 1.188946 0.000000 0.000002 -0.011266 0.001906 0.214483
    22 3.773762 0.133217 -0.970574 0.032751 0.177541 0.050162
    23 1.433458 0.000004 0.000000 -0.035235 0.012931 0.451902
    24 1.019165 0.000011 0.000000 -0.035247 0.012955 0.452115
    25 3.799517 0.014957 -0.039958 -0.033200 -0.011916 0.276310
    26 1.774879 0.000004 0.000000 -0.022471 0.008917 0.454686
    27 1.008841 0.000004 0.000000 -0.022351 0.008929 0.454767
    28 3.632765 0.059053 0.757493 -0.281201 -0.185819 0.459243
    29 1.500135 0.000004 0.000000 -0.017006 0.006568 0.424929
    30 0.905668 0.000002 -0.000001 -0.016994 0.006556 0.424929
    31 3.323332 0.233744 1.479075 -0.399082 -0.449085 0.621478
    32 0.963099 0.000010 0.000000 -0.018001 0.008941 0.549273
    33 0.682898 -0.000002 0.000000 -0.017989 0.008941 0.549349
    34 14.848497 -10.611010 -9.010763 0.475947 -0.054607 -2.256435
    35 -6.144315 -3.807351 -11.038158 0.095626 -2.660123 -4.621642
    36 0.000000 3.992340 0.007782 1.570796 0.000000 -1.570796
    37 19.430280 -4.504044 4.984527 -1.174218 0.210355 -0.928661
    38 -0.021929 2.029111 -0.137266 -1.570805 0.000001 0.000000
    39 0.019532 0.000000 0.000000 0.000007 0.000000 0.000001
    40 0.014116 -0.669111 0.409449 1.570796 0.000000 0.000000
    41 -0.014121 -6.221447 0.929182 -0.816253 0.000000 0.000000
end
