version 1
nodes
  0 "v_weapon.Bip01_R_Forearm" -1
  1 "v_weapon.Bip01_R_Hand" 0
  2 "v_weapon.Bip01_L_Forearm" -1
  3 "v_weapon.Bip01_L_Hand" 2
  4 "v_weapon.Bip01_R_Finger0" 1
  5 "v_weapon.Bip01_R_Finger01" 4
  6 "v_weapon.Bip01_R_Finger02" 5
  7 "v_weapon.Bip01_R_Finger1" 1
  8 "v_weapon.Bip01_R_Finger11" 7
  9 "v_weapon.Bip01_R_Finger12" 8
  10 "v_weapon.Bip01_R_Finger2" 1
  11 "v_weapon.Bip01_R_Finger21" 10
  12 "v_weapon.Bip01_R_Finger22" 11
  13 "v_weapon.Bip01_R_Finger3" 1
  14 "v_weapon.Bip01_R_Finger31" 13
  15 "v_weapon.Bip01_R_Finger32" 14
  16 "v_weapon.Bip01_R_Finger4" 1
  17 "v_weapon.Bip01_R_Finger41" 16
  18 "v_weapon.Bip01_R_Finger42" 17
  19 "v_weapon.Bip01_L_Finger0" 3
  20 "v_weapon.Bip01_L_Finger01" 19
  21 "v_weapon.Bip01_L_Finger02" 20
  22 "v_weapon.Bip01_L_Finger1" 3
  23 "v_weapon.Bip01_L_Finger11" 22
  24 "v_weapon.Bip01_L_Finger12" 23
  25 "v_weapon.Bip01_L_Finger2" 3
  26 "v_weapon.Bip01_L_Finger21" 25
  27 "v_weapon.Bip01_L_Finger22" 26
  28 "v_weapon.Bip01_L_Finger3" 3
  29 "v_weapon.Bip01_L_Finger31" 28
  30 "v_weapon.Bip01_L_Finger32" 29
  31 "v_weapon.Bip01_L_Finger4" 3
  32 "v_weapon.Bip01_L_Finger41" 31
  33 "v_weapon.Bip01_L_Finger42" 32
  34 "v_weapon.Bip01_L_ForeTwist" -1
  35 "v_weapon.Bip01_R_ForeTwist" -1
  36 "v_weapon" -1
  37 "v_weapon.knife" 36
  38 "v_weapon.front" 37
  39 "v_weapon.blade1" 38
  40 "v_weapon.rear" 39
  41 "v_weapon.lock" 40
end
skeleton
  time 0
    0 1.676236 -7.666844 -12.378043 -2.015388 -0.216597 -6.738371
    1 10.295578 0.000000 0.000002 0.308078 -0.061979 0.047998
    2 16.231352 5.229317 -7.584938 -0.471436 0.088952 -1.040089
    3 10.295582 0.000001 -0.000006 -0.813781 0.213486 -0.511589
    4 1.149520 0.416502 1.414117 -2.019538 -0.212592 0.859487
    5 1.263885 0.000000 -0.000008 0.010499 -0.004207 0.261076
    6 1.188939 -0.000002 0.000010 0.004290 -0.004350 0.883994
    7 3.773755 0.133215 0.970575 0.064315 0.064033 1.441404
    8 1.433456 0.000000 0.000000 0.082047 -0.025947 1.400638
    9 1.019165 -0.000006 0.000001 0.111253 -0.007179 1.169620
    10 3.799514 0.014957 0.039959 0.061612 0.037515 1.689009
    11 1.774878 0.000000 0.000000 0.019487 -0.092150 1.499632
    12 1.008844 -0.000004 0.000000 0.102121 -0.036158 0.427613
    13 3.632766 0.059052 -0.757493 -0.011391 -0.048828 1.869198
    14 1.500137 0.000002 0.000000 0.117785 -0.032107 0.854834
    15 0.905666 -0.000002 -0.000001 0.110474 -0.051989 1.029571
    16 3.323331 0.233744 -1.479075 0.059018 -0.114558 1.951023
    17 0.963100 0.000011 0.000000 0.060438 0.054818 0.140188
    18 0.682894 -0.000006 -0.000001 0.068025 -0.045158 1.459530
    19 1.149529 0.416498 -1.414117 1.745205 0.549542 0.478514
    20 1.263884 0.000001 0.000000 -0.008773 0.098142 0.556209
    21 1.188946 0.000000 0.000002 0.031112 0.089129 0.748515
    22 3.773762 0.133217 -0.970574 0.165900 0.071297 1.035742
    23 1.433458 0.000004 0.000000 -0.008581 0.036601 1.435606
    24 1.019165 0.000011 0.000000 -0.028895 0.023765 0.786988
    25 3.799517 0.014957 -0.039958 -0.017644 0.030317 1.660203
    26 1.774879 0.000004 0.000000 -0.006615 0.022962 1.359216
    27 1.008841 0.000004 0.000000 -0.006639 0.022962 1.359215
    28 3.632765 0.059053 0.757493 -0.329450 0.079029 1.264142
    29 1.500135 0.000004 0.000000 -0.009767 0.014429 1.269374
    30 0.905668 0.000002 -0.000001 -0.009767 0.014429 1.269374
    31 3.323332 0.233744 1.479075 -0.509290 -0.315757 0.914452
    32 0.963099 0.000010 0.000000 -0.014358 0.014010 0.851779
    33 0.682898 -0.000002 0.000000 -0.014358 0.014010 0.851779
    34 16.231352 5.229317 -7.584938 0.612637 0.088961 -1.040335
    35 1.676236 -7.666844 -12.378043 -2.435142 -0.217141 -6.738185
    36 0.000000 3.992340 0.007782 1.570796 0.000000 -1.570796
    37 16.859890 -10.590167 -13.625416 3.902175 -0.078967 -1.635901
    38 -0.021929 2.029111 -0.137266 -1.570805 0.000001 0.000000
    39 0.007813 0.000000 0.000000 0.000007 0.000000 0.000001
    40 0.014116 -0.669111 0.409449 1.570796 0.000000 0.000000
    41 -0.002402 -6.221447 0.929182 -0.816253 0.000000 0.000000
  time 1
    0 -0.691023 -10.448179 -10.409233 -2.205332 -0.348083 -7.027877
    1 10.295578 0.000000 0.000002 0.303372 0.306473 -0.093668
    2 15.977438 6.178565 -8.276365 -0.502844 -0.048371 -0.948176
    3 10.295582 0.000001 -0.000006 -0.857375 0.326321 -0.476631
    4 1.149520 0.416502 1.414117 -2.019538 -0.212592 0.859487
    5 1.263885 0.000000 -0.000008 0.010499 -0.004207 0.261076
    6 1.188939 -0.000002 0.000010 0.004290 -0.004350 0.883994
    7 3.773755 0.133215 0.970575 0.064315 0.064033 1.441404
    8 1.433456 0.000000 0.000000 0.082047 -0.025947 1.400638
    9 1.019165 -0.000006 0.000001 0.111253 -0.007179 1.169620
    10 3.799514 0.014957 0.039959 0.061598 0.037527 1.688653
    11 1.774878 0.000000 0.000000 0.019523 -0.092150 1.499301
    12 1.008844 -0.000004 0.000000 0.102121 -0.036158 0.427613
    13 3.632766 0.059052 -0.757493 -0.011586 -0.048792 1.869198
    14 1.500137 0.000002 0.000000 0.117785 -0.032095 0.854599
    15 0.905666 -0.000002 -0.000001 0.110486 -0.051905 1.029387
    16 3.323331 0.233744 -1.479075 0.059078 -0.114424 1.950320
    17 0.963100 0.000011 0.000000 0.060438 0.054818 0.140405
    18 0.682894 -0.000006 -0.000001 0.068025 -0.045146 1.459136
    19 1.149529 0.416498 -1.414117 1.745205 0.549542 0.478514
    20 1.263884 0.000001 0.000000 -0.008773 0.098142 0.556209
    21 1.188946 0.000000 0.000002 0.031112 0.089129 0.748515
    22 3.773762 0.133217 -0.970574 0.165900 0.071297 1.035742
    23 1.433458 0.000004 0.000000 -0.008581 0.036601 1.435606
    24 1.019165 0.000011 0.000000 -0.027708 0.025072 0.825596
    25 3.799517 0.014957 -0.039958 -0.017644 0.030317 1.660203
    26 1.774879 0.000004 0.000000 -0.006615 0.022962 1.359216
    27 1.008841 0.000004 0.000000 -0.006639 0.022962 1.359215
    28 3.632765 0.059053 0.757493 -0.329450 0.079029 1.264142
    29 1.500135 0.000004 0.000000 -0.009767 0.014429 1.269374
    30 0.905668 0.000002 -0.000001 -0.009767 0.014429 1.269374
    31 3.323332 0.233744 1.479075 -0.509290 -0.315757 0.914452
    32 0.963099 0.000010 0.000000 -0.014358 0.014010 0.851779
    33 0.682898 -0.000002 0.000000 -0.014358 0.014010 0.851779
    34 15.977438 6.178565 -8.276365 0.580949 -0.048419 -0.948134
    35 -0.691023 -10.448179 -10.409233 -2.624896 -0.348366 -7.027883
    36 0.000000 3.992340 0.007782 1.570796 0.000000 -1.570796
    37 23.094455 -5.953307 -8.344005 4.499967 0.156310 -1.250521
    38 -0.021929 2.029111 -0.137266 -1.570805 0.000001 0.000000
    39 0.019532 0.000000 0.007813 0.000007 0.000000 0.000001
    40 0.002397 -0.669111 0.409449 1.570796 0.000000 0.000000
    41 -0.002402 -6.221447 0.929182 -0.816253 0.000000 0.000000
  time 2
    0 -5.230224 -10.557557 -9.377951 -2.406633 -0.406866 -1.052312
    1 10.295578 0.000000 0.000002 0.611091 0.446905 -0.122919
    2 15.696179 7.643453 -9.706096 -0.604642 -0.339899 -0.711186
    3 10.295582 0.000001 -0.000006 -0.938937 0.580903 -0.424461
    4 1.149520 0.416502 1.414117 -2.019538 -0.212592 0.859487
    5 1.263885 0.000000 -0.000008 0.010499 -0.004207 0.261076
    6 1.188939 -0.000002 0.000010 0.004290 -0.004350 0.883994
    7 3.773755 0.133215 0.970575 0.064315 0.064033 1.441404
    8 1.433456 0.000000 0.000000 0.082047 -0.025947 1.400638
    9 1.019165 -0.000006 0.000001 0.111253 -0.007179 1.169620
    10 3.799514 0.014957 0.039959 0.061598 0.037539 1.688348
    11 1.774878 0.000000 0.000000 0.019583 -0.092102 1.498969
    12 1.008844 -0.000004 0.000000 0.102121 -0.036158 0.427494
    13 3.632766 0.059052 -0.757493 -0.011573 -0.048792 1.868529
    14 1.500137 0.000002 0.000000 0.117785 -0.032083 0.854411
    15 0.905666 -0.000002 -0.000001 0.110486 -0.051857 1.029111
    16 3.323331 0.233744 -1.479075 0.059138 -0.114397 1.949851
    17 0.963100 0.000011 0.000000 0.060438 0.054818 0.140405
    18 0.682894 -0.000006 -0.000001 0.068049 -0.045014 1.458742
    19 1.149529 0.416498 -1.414117 1.745205 0.549542 0.478514
    20 1.263884 0.000001 0.000000 -0.008773 0.098142 0.556209
    21 1.188946 0.000000 0.000002 0.031112 0.089129 0.748515
    22 3.773762 0.133217 -0.970574 0.165900 0.071297 1.035742
    23 1.433458 0.000004 0.000000 -0.008581 0.036601 1.435606
    24 1.019165 0.000011 0.000000 -0.026810 0.026043 0.864935
    25 3.799517 0.014957 -0.039958 -0.017644 0.030317 1.660203
    26 1.774879 0.000004 0.000000 -0.006615 0.022962 1.359216
    27 1.008841 0.000004 0.000000 -0.006639 0.022962 1.359215
    28 3.632765 0.059053 0.757493 -0.329450 0.079029 1.264142
    29 1.500135 0.000004 0.000000 -0.009767 0.014429 1.269374
    30 0.905668 0.000002 -0.000001 -0.009767 0.014429 1.269374
    31 3.323332 0.233744 1.479075 -0.509290 -0.315757 0.914452
    32 0.963099 0.000010 0.000000 -0.014358 0.014010 0.851779
    33 0.682898 -0.000002 0.000000 -0.014358 0.014010 0.851779
    34 15.696179 7.643453 -9.706096 0.476697 -0.339824 -0.711137
    35 -5.230224 -10.557557 -9.377951 -2.826359 -0.407082 -1.052402
    36 0.000000 3.992340 0.007782 1.570796 0.000000 -1.570796
    37 25.110141 -3.722770 -0.589862 -1.454191 0.259148 -1.048412
    38 -0.021929 2.029111 -0.137266 -1.570805 0.000001 0.000000
    39 0.007813 0.000000 0.007813 0.000007 0.000000 0.000001
    40 0.014116 -0.669111 0.409449 1.570796 0.000000 0.000000
    41 -0.014121 -6.221447 0.929182 -0.816253 0.000000 0.000000
  time 3
    0 -8.452979 -7.510589 -9.315449 -2.481304 -0.303408 -1.567148
    1 10.295578 0.000000 0.000002 0.883073 0.523356 -0.158507
    2 16.215726 11.151373 -7.331024 -0.409113 -0.291440 -0.606214
    3 10.295582 0.000001 -0.000006 -1.108741 0.367680 -0.451299
    4 1.149520 0.416502 1.414117 -2.019538 -0.212592 0.859487
    5 1.263885 0.000000 -0.000008 0.010499 -0.004207 0.261076
    6 1.188939 -0.000002 0.000010 0.004290 -0.004350 0.883994
    7 3.773755 0.133215 0.970575 0.064315 0.064033 1.441404
    8 1.433456 0.000000 0.000000 0.082047 -0.025947 1.400638
    9 1.019165 -0.000006 0.000001 0.111253 -0.007179 1.169620
    10 3.799514 0.014957 0.039959 0.061584 0.037647 1.688348
    11 1.774878 0.000000 0.000000 0.019595 -0.092102 1.498542
    12 1.008844 -0.000004 0.000000 0.102133 -0.036158 0.427494
    13 3.632766 0.059052 -0.757493 -0.011534 -0.048792 1.868195
    14 1.500137 0.000002 0.000000 0.117785 -0.032083 0.854317
    15 0.905666 -0.000002 -0.000001 0.110498 -0.051857 1.028866
    16 3.323331 0.233744 -1.479075 0.059198 -0.114357 1.949441
    17 0.963100 0.000011 0.000000 0.060438 0.054818 0.140405
    18 0.682894 -0.000006 -0.000001 0.068049 -0.044858 1.458348
    19 1.149529 0.416498 -1.414117 1.745205 0.549542 0.478514
    20 1.263884 0.000001 0.000000 -0.008773 0.098142 0.556209
    21 1.188946 0.000000 0.000002 0.031112 0.089129 0.748515
    22 3.773762 0.133217 -0.970574 0.165900 0.071297 1.035742
    23 1.433458 0.000004 0.000000 -0.008581 0.036601 1.435606
    24 1.019165 0.000011 0.000000 -0.025875 0.027109 0.904661
    25 3.799517 0.014957 -0.039958 -0.017644 0.030317 1.660203
    26 1.774879 0.000004 0.000000 -0.006615 0.022962 1.359216
    27 1.008841 0.000004 0.000000 -0.006639 0.022962 1.359215
    28 3.632765 0.059053 0.757493 -0.329450 0.079029 1.264142
    29 1.500135 0.000004 0.000000 -0.009767 0.014429 1.269374
    30 0.905668 0.000002 -0.000001 -0.009767 0.014429 1.269374
    31 3.323332 0.233744 1.479075 -0.509290 -0.315757 0.914452
    32 0.963099 0.000010 0.000000 -0.014358 0.014010 0.851779
    33 0.682898 -0.000002 0.000000 -0.014358 0.014010 0.851779
    34 16.215726 11.151373 -7.331024 0.669638 -0.291443 -0.606233
    35 -8.452979 -7.510589 -9.315449 0.240083 -2.837420 -4.708006
    36 0.000000 3.992340 0.007782 1.570796 0.000000 -1.570796
    37 23.723380 -4.625141 8.457289 -1.066618 0.174548 -0.973532
    38 -0.021929 2.029111 -0.137266 -1.570805 0.000001 0.000000
    39 0.019532 0.000000 0.007813 0.000007 0.000000 0.000001
    40 0.014116 -0.669111 0.409449 1.570796 0.000000 0.000000
    41 -0.014121 -6.221447 0.929182 -0.816253 0.000000 0.000000
  time 4
    0 -11.019464 -1.576814 -8.155258 -2.449090 -0.063855 -1.987874
    1 10.295578 0.000000 0.000002 1.073215 0.318022 -0.094823
    2 16.293854 13.901457 -3.647318 0.129377 -0.102475 -0.433663
    3 10.295582 0.000001 -0.000006 -1.517022 -0.137348 -0.518032
    4 1.149520 0.416502 1.414117 -2.019538 -0.212592 0.859487
    5 1.263885 0.000000 -0.000008 0.010499 -0.004207 0.261076
    6 1.188939 -0.000002 0.000010 0.004290 -0.004350 0.883994
    7 3.773755 0.133215 0.970575 0.064315 0.064033 1.441404
    8 1.433456 0.000000 0.000000 0.082047 -0.025947 1.400638
    9 1.019165 -0.000006 0.000001 0.111253 -0.007179 1.169620
    10 3.799514 0.014957 0.039959 0.061584 0.037647 1.687941
    11 1.774878 0.000000 0.000000 0.019607 -0.092102 1.498400
    12 1.008844 -0.000004 0.000000 0.102133 -0.036158 0.427494
    13 3.632766 0.059052 -0.757493 -0.011353 -0.048792 1.867916
    14 1.500137 0.000002 0.000000 0.117785 -0.032071 0.854129
    15 0.905666 -0.000002 -0.000001 0.110534 -0.051773 1.028774
    16 3.323331 0.233744 -1.479075 0.059222 -0.114357 1.949031
    17 0.963100 0.000011 0.000000 0.060438 0.054818 0.140449
    18 0.682894 -0.000006 -0.000001 0.068049 -0.044858 1.458173
    19 1.149529 0.416498 -1.414117 1.745205 0.549542 0.478514
    20 1.263884 0.000001 0.000000 -0.008773 0.098142 0.556209
    21 1.188946 0.000000 0.000002 0.031112 0.089129 0.748515
    22 3.773762 0.133217 -0.970574 0.165900 0.071297 1.035742
    23 1.433458 0.000004 0.000000 -0.008581 0.036601 1.435606
    24 1.019165 0.000011 0.000000 -0.024556 0.028212 0.944730
    25 3.799517 0.014957 -0.039958 -0.017644 0.030317 1.660203
    26 1.774879 0.000004 0.000000 -0.006615 0.022962 1.359216
    27 1.008841 0.000004 0.000000 -0.006639 0.022962 1.359215
    28 3.632765 0.059053 0.757493 -0.329450 0.079029 1.264142
    29 1.500135 0.000004 0.000000 -0.009767 0.014429 1.269374
    30 0.905668 0.000002 -0.000001 -0.009767 0.014429 1.269374
    31 3.323332 0.233744 1.479075 -0.509290 -0.315757 0.914452
    32 0.963099 0.000010 0.000000 -0.014358 0.014010 0.851779
    33 0.682898 -0.000002 0.000000 -0.014358 0.014010 0.851779
    34 16.293854 13.901457 -3.647318 1.205241 -0.102571 -0.433677
    35 -11.019464 -1.588533 -8.155258 0.271760 -3.076019 -5.129115
    36 0.000000 3.992340 0.007782 1.570796 0.000000 -1.570796
    37 17.875546 -7.011933 16.062990 -0.750714 0.284356 -1.271726
    38 -0.021929 2.029111 -0.137266 -1.570805 0.000001 0.000000
    39 0.019532 0.000000 0.007813 0.000007 0.000000 0.000001
    40 0.002397 -0.669111 0.409449 1.570796 0.000000 0.000000
    41 -0.014121 -6.221447 0.929182 -0.816253 0.000000 0.000000
  time 5
    0 -10.949149 2.341274 -9.971720 0.718429 3.087294 -5.545726
    1 10.295578 0.000000 0.000002 0.920856 0.099513 -0.180828
    2 16.168850 13.518633 -2.092583 0.441361 -0.061851 -0.137015
    3 10.295582 0.000001 -0.000006 -1.776006 -0.446328 -0.603597
    4 1.149520 0.416502 1.414117 -2.019538 -0.212592 0.859487
    5 1.263885 0.000000 -0.000008 0.010499 -0.004207 0.261076
    6 1.188939 -0.000002 0.000010 0.004290 -0.004350 0.883994
    7 3.773755 0.133215 0.970575 0.064315 0.064033 1.441404
    8 1.433456 0.000000 0.000000 0.082047 -0.025947 1.400638
    9 1.019165 -0.000006 0.000001 0.111253 -0.007179 1.169620
    10 3.799514 0.014957 0.039959 0.061584 0.037767 1.687941
    11 1.774878 0.000000 0.000000 0.019607 -0.092090 1.498211
    12 1.008844 -0.000004 0.000000 0.102133 -0.036158 0.427399
    13 3.632766 0.059052 -0.757493 -0.011353 -0.048792 1.867916
    14 1.500137 0.000002 0.000000 0.117785 -0.032059 0.854035
    15 0.905666 -0.000002 -0.000001 0.110546 -0.051761 1.028682
    16 3.323331 0.233744 -1.479075 0.059234 -0.114223 1.948855
    17 0.963100 0.000011 0.000000 0.060438 0.054818 0.140449
    18 0.682894 -0.000006 -0.000001 0.068049 -0.044846 1.457954
    19 1.149529 0.416498 -1.414117 1.745205 0.549542 0.478514
    20 1.263884 0.000001 0.000000 -0.008773 0.098142 0.556209
    21 1.188946 0.000000 0.000002 0.031112 0.089129 0.748515
    22 3.773762 0.133217 -0.970574 0.165900 0.071297 1.035742
    23 1.433458 0.000004 0.000000 -0.008581 0.036601 1.435606
    24 1.019165 0.000011 0.000000 -0.023634 0.029147 0.984628
    25 3.799517 0.014957 -0.039958 -0.017644 0.030317 1.660203
    26 1.774879 0.000004 0.000000 -0.006615 0.022962 1.359216
    27 1.008841 0.000004 0.000000 -0.006639 0.022962 1.359215
    28 3.632765 0.059053 0.757493 -0.329450 0.079029 1.264142
    29 1.500135 0.000004 0.000000 -0.009767 0.014429 1.269374
    30 0.905668 0.000002 -0.000001 -0.009767 0.014429 1.269374
    31 3.323332 0.233744 1.479075 -0.509290 -0.315757 0.914452
    32 0.963099 0.000010 0.000000 -0.014358 0.014010 0.851779
    33 0.682898 -0.000002 0.000000 -0.014358 0.014010 0.851779
    34 16.168850 13.518633 -2.092583 1.512934 -0.061880 -0.137020
    35 -10.949149 2.341274 -9.971720 0.299123 3.086847 -5.545920
    36 0.000000 3.992340 0.007782 1.570796 0.000000 -1.570796
    37 11.172216 -10.875332 20.094363 -0.496420 0.254851 -1.484911
    38 -0.021929 2.029111 -0.137266 -1.570805 0.000001 0.000000
    39 0.019532 0.000000 0.007813 0.000007 0.000000 0.000001
    40 0.002397 -0.669111 0.409449 1.570796 0.000000 0.000000
    41 -0.002402 -6.221447 0.929182 -0.816253 0.000000 0.000000
  time 6
    0 -9.984276 5.181204 -9.260760 0.752276 3.067825 -5.794488
    1 10.295578 0.000000 0.000002 0.771566 -0.017627 -0.298050
    2 16.293854 13.608479 -1.510534 0.449367 -0.022024 -0.095840
    3 10.295582 0.000001 -0.000006 -1.763115 -0.499123 -0.605446
    4 1.149520 0.416502 1.414117 -2.019538 -0.212592 0.859487
    5 1.263885 0.000000 -0.000008 0.010499 -0.004207 0.261076
    6 1.188939 -0.000002 0.000010 0.004290 -0.004350 0.883994
    7 3.773755 0.133215 0.970575 0.064315 0.064033 1.441404
    8 1.433456 0.000000 0.000000 0.082047 -0.025947 1.400638
    9 1.019165 -0.000006 0.000001 0.111253 -0.007179 1.169620
    10 3.799514 0.014957 0.039959 0.061570 0.037767 1.687941
    11 1.774878 0.000000 0.000000 0.019619 -0.092090 1.498163
    12 1.008844 -0.000004 0.000000 0.102133 -0.036158 0.427399
    13 3.632766 0.059052 -0.757493 -0.011353 -0.048780 1.867916
    14 1.500137 0.000002 0.000000 0.117785 -0.032059 0.853941
    15 0.905666 -0.000002 -0.000001 0.110546 -0.051761 1.028498
    16 3.323331 0.233744 -1.479075 0.059234 -0.114223 1.948562
    17 0.963100 0.000011 0.000000 0.060438 0.054818 0.140449
    18 0.682894 -0.000006 -0.000001 0.068049 -0.044846 1.457779
    19 1.149529 0.416498 -1.414117 1.745205 0.549542 0.478514
    20 1.263884 0.000001 0.000000 -0.008773 0.098142 0.556209
    21 1.188946 0.000000 0.000002 0.031112 0.089129 0.748515
    22 3.773762 0.133217 -0.970574 0.165900 0.071297 1.035742
    23 1.433458 0.000004 0.000000 -0.008581 0.036601 1.435606
    24 1.019165 0.000011 0.000000 -0.022243 0.029938 1.024439
    25 3.799517 0.014957 -0.039958 -0.017644 0.030317 1.660203
    26 1.774879 0.000004 0.000000 -0.006615 0.022962 1.359216
    27 1.008841 0.000004 0.000000 -0.006639 0.022962 1.359215
    28 3.632765 0.059053 0.757493 -0.329450 0.079029 1.264142
    29 1.500135 0.000004 0.000000 -0.009767 0.014429 1.269374
    30 0.905668 0.000002 -0.000001 -0.009767 0.014429 1.269374
    31 3.323332 0.233744 1.479075 -0.509290 -0.315757 0.914452
    32 0.963099 0.000010 0.000000 -0.014358 0.014010 0.851779
    33 0.682898 -0.000002 0.000000 -0.014358 0.014010 0.851779
    34 16.293854 13.608479 -1.510534 1.515840 -0.022003 -0.095986
    35 -9.984276 5.181204 -9.260760 0.332957 3.067403 -5.794492
    36 0.000000 3.992340 0.007782 1.570796 0.000000 -1.570796
    37 6.062685 -10.519852 20.918607 -0.393515 0.171874 -1.572097
    38 -0.021929 2.029111 -0.137266 -1.570805 0.000001 0.000000
    39 0.019532 0.000000 0.007813 0.000007 0.000000 0.000001
    40 0.014116 -0.669111 0.409449 1.570796 0.000000 0.000000
    41 -0.002402 -6.221447 0.929182 -0.816253 0.000000 0.000000
  time 7
    0 -9.359257 6.524995 -10.092817 0.780927 2.953833 -5.856846
    1 10.295578 0.000000 0.000002 0.532729 -0.152260 -0.188726
    2 16.418858 14.147558 -1.807418 0.254700 -0.001704 -0.220436
    3 10.295582 0.000001 -0.000006 -1.592842 -0.362731 -0.570812
    4 1.149520 0.416502 1.414117 -2.019538 -0.212592 0.859487
    5 1.263885 0.000000 -0.000008 0.010499 -0.004207 0.261076
    6 1.188939 -0.000002 0.000010 0.004290 -0.004350 0.883994
    7 3.773755 0.133215 0.970575 0.064315 0.064033 1.441404
    8 1.433456 0.000000 0.000000 0.082047 -0.025947 1.400638
    9 1.019165 -0.000006 0.000001 0.111253 -0.007179 1.169620
    10 3.799514 0.014957 0.039959 0.061570 0.037767 1.687534
    11 1.774878 0.000000 0.000000 0.019619 -0.092090 1.497974
    12 1.008844 -0.000004 0.000000 0.102133 -0.036158 0.427399
    13 3.632766 0.059052 -0.757493 -0.011391 -0.048768 1.867916
    14 1.500137 0.000002 0.000000 0.117785 -0.032059 0.853941
    15 0.905666 -0.000002 -0.000001 0.110546 -0.051749 1.028498
    16 3.323331 0.233744 -1.479075 0.059234 -0.114223 1.948562
    17 0.963100 0.000011 0.000000 0.060438 0.054818 0.140449
    18 0.682894 -0.000006 -0.000001 0.068049 -0.044834 1.457735
    19 1.149529 0.416498 -1.414117 1.745205 0.549542 0.478514
    20 1.263884 0.000001 0.000000 -0.008773 0.098142 0.556209
    21 1.188946 0.000000 0.000002 0.031112 0.089129 0.748515
    22 3.773762 0.133217 -0.970574 0.165900 0.071297 1.035742
    23 1.433458 0.000004 0.000000 -0.008581 0.036601 1.435606
    24 1.019165 0.000011 0.000000 -0.021261 0.030776 1.063649
    25 3.799517 0.014957 -0.039958 -0.017644 0.030317 1.660203
    26 1.774879 0.000004 0.000000 -0.006615 0.022962 1.359216
    27 1.008841 0.000004 0.000000 -0.006639 0.022962 1.359215
    28 3.632765 0.059053 0.757493 -0.329450 0.079029 1.264142
    29 1.500135 0.000004 0.000000 -0.009767 0.014429 1.269374
    30 0.905668 0.000002 -0.000001 -0.009767 0.014429 1.269374
    31 3.323332 0.233744 1.479075 -0.509290 -0.315757 0.914452
    32 0.963099 0.000010 0.000000 -0.014358 0.014010 0.851754
    33 0.682898 -0.000002 0.000000 -0.014358 0.014010 0.851779
    34 16.418858 14.147558 -1.807418 1.315024 -0.001576 -0.220943
    35 -9.359257 6.524995 -10.092817 0.361121 2.953707 -5.856659
    36 0.000000 3.992340 0.007782 1.570796 0.000000 -1.570796
    37 3.679800 -13.371502 20.430311 -0.367549 0.277099 -1.876728
    38 -0.021929 2.029111 -0.137266 -1.570805 0.000001 0.000000
    39 0.019532 0.000000 0.007813 0.000007 0.000000 0.000001
    40 0.002397 -0.669111 0.409449 1.570796 0.000000 0.000000
    41 -0.002402 -6.221447 0.929182 -0.816253 0.000000 0.000000
  time 8
    0 -6.749802 6.692969 -9.260760 0.853520 2.838148 -5.817442
    1 10.295578 0.000000 0.000002 0.730373 0.185985 0.026458
    2 16.723554 14.245217 -3.213711 -0.053712 -0.050252 -0.368653
    3 10.295582 0.000001 -0.000006 -1.349913 -0.124483 -0.520319
    4 1.149520 0.416502 1.414117 -2.019538 -0.212592 0.859487
    5 1.263885 0.000000 -0.000008 0.010499 -0.004207 0.261076
    6 1.188939 -0.000002 0.000010 0.004290 -0.004350 0.883994
    7 3.773755 0.133215 0.970575 0.064315 0.064033 1.441404
    8 1.433456 0.000000 0.000000 0.082047 -0.025947 1.400638
    9 1.019165 -0.000006 0.000001 0.111253 -0.007179 1.169620
    10 3.799514 0.014957 0.039959 0.061570 0.037767 1.687534
    11 1.774878 0.000000 0.000000 0.019619 -0.092090 1.497974
    12 1.008844 -0.000004 0.000000 0.102133 -0.036158 0.427399
    13 3.632766 0.059052 -0.757493 -0.011391 -0.048768 1.867470
    14 1.500137 0.000002 0.000000 0.117785 -0.032059 0.853941
    15 0.905666 -0.000002 -0.000001 0.110546 -0.051749 1.028498
    16 3.323331 0.233744 -1.479075 0.059234 -0.114223 1.948269
    17 0.963100 0.000011 0.000000 0.060438 0.054818 0.140449
    18 0.682894 -0.000006 -0.000001 0.068049 -0.044834 1.457735
    19 1.149529 0.416498 -1.414117 1.745205 0.549542 0.478514
    20 1.263884 0.000001 0.000000 -0.008773 0.098142 0.556209
    21 1.188946 0.000000 0.000002 0.031112 0.089129 0.748515
    22 3.773762 0.133217 -0.970574 0.165900 0.071297 1.035742
    23 1.433458 0.000004 0.000000 -0.008581 0.036601 1.435606
    24 1.019165 0.000011 0.000000 -0.019823 0.031579 1.102257
    25 3.799517 0.014957 -0.039958 -0.017644 0.030317 1.660203
    26 1.774879 0.000004 0.000000 -0.006615 0.022962 1.359216
    27 1.008841 0.000004 0.000000 -0.006639 0.022962 1.359215
    28 3.632765 0.059053 0.757493 -0.329450 0.079029 1.264142
    29 1.500135 0.000004 0.000000 -0.009767 0.014429 1.269374
    30 0.905668 0.000002 -0.000001 -0.009767 0.014429 1.269374
    31 3.323332 0.233744 1.479075 -0.509290 -0.315757 0.914452
    32 0.963099 0.000010 0.000000 -0.014358 0.014010 0.851779
    33 0.682898 -0.000002 0.000000 -0.014358 0.014010 0.851779
    34 16.723554 14.245217 -3.213711 0.999925 -0.050319 -0.369093
    35 -6.749802 6.685157 -9.260760 0.433904 2.838861 -5.817159
    36 0.000000 3.992340 0.007782 1.570796 0.000000 -1.570796
    37 3.109470 -13.719169 17.922422 0.039667 0.463296 -1.569257
    38 -0.021929 2.029111 -0.137266 -1.570805 0.000001 0.000000
    39 0.019532 0.000000 0.007813 0.000007 0.000000 0.000001
    40 0.014116 -0.669111 0.409449 1.570796 0.000000 0.000000
    41 -0.002402 -6.221447 0.929182 -0.816253 0.000000 0.000000
  time 9
    0 -8.702987 6.364834 -12.034282 0.762519 3.078453 -5.622621
    1 10.295578 0.000000 0.000002 0.526659 -0.175722 0.064793
    2 16.918873 13.272531 -5.170802 -0.345620 -0.117367 -0.470842
    3 10.295582 0.000001 -0.000006 -1.114171 0.098441 -0.450441
    4 1.149520 0.416502 1.414117 -2.019538 -0.212592 0.859487
    5 1.263885 0.000000 -0.000008 0.010499 -0.004207 0.261076
    6 1.188939 -0.000002 0.000010 0.004290 -0.004350 0.883994
    7 3.773755 0.133215 0.970575 0.064315 0.064033 1.441404
    8 1.433456 0.000000 0.000000 0.082047 -0.025947 1.400638
    9 1.019165 -0.000006 0.000001 0.111253 -0.007179 1.169620
    10 3.799514 0.014957 0.039959 0.061570 0.037767 1.687534
    11 1.774878 0.000000 0.000000 0.019631 -0.092090 1.497974
    12 1.008844 -0.000004 0.000000 0.102133 -0.036158 0.427399
    13 3.632766 0.059052 -0.757493 -0.011391 -0.048768 1.867470
    14 1.500137 0.000002 0.000000 0.117785 -0.032059 0.853941
    15 0.905666 -0.000002 -0.000001 0.110546 -0.051749 1.028406
    16 3.323331 0.233744 -1.479075 0.059234 -0.114223 1.948269
    17 0.963100 0.000011 0.000000 0.060438 0.054818 0.140449
    18 0.682894 -0.000006 -0.000001 0.068049 -0.044834 1.457735
    19 1.149529 0.416498 -1.414117 1.745205 0.549542 0.478514
    20 1.263884 0.000001 0.000000 -0.008773 0.098142 0.556209
    21 1.188946 0.000000 0.000002 0.031112 0.089129 0.748515
    22 3.773762 0.133217 -0.970574 0.165900 0.071297 1.035742
    23 1.433458 0.000004 0.000000 -0.008581 0.036601 1.435606
    24 1.019165 0.000011 0.000000 -0.018816 0.032298 1.139919
    25 3.799517 0.014957 -0.039958 -0.017644 0.030317 1.660203
    26 1.774879 0.000004 0.000000 -0.006615 0.022962 1.359216
    27 1.008841 0.000004 0.000000 -0.006639 0.022962 1.359215
    28 3.632765 0.059053 0.757493 -0.329450 0.079029 1.264142
    29 1.500135 0.000004 0.000000 -0.009767 0.014429 1.269374
    30 0.905668 0.000002 -0.000001 -0.009767 0.014429 1.269374
    31 3.323332 0.233744 1.479075 -0.509290 -0.315757 0.914452
    32 0.963099 0.000010 0.000000 -0.014358 0.014010 0.851779
    33 0.682898 -0.000002 0.000000 -0.014358 0.014010 0.851779
    34 16.918873 13.272531 -5.170802 0.700201 -0.117263 -0.471000
    35 -8.702987 6.364834 -12.034282 0.342941 3.078035 -5.622720
    36 0.000000 3.992340 0.007782 1.570796 0.000000 -1.570796
    37 6.015809 -14.281686 18.500565 -0.449183 0.284547 -1.974138
    38 -0.021929 2.029111 -0.137266 -1.570805 0.000001 0.000000
    39 0.019532 0.000000 0.007813 0.000007 0.000000 0.000001
    40 0.014116 -0.669111 0.409449 1.570796 0.000000 0.000000
    41 -0.014121 -6.221447 0.929182 -0.816253 0.000000 0.000000
  time 10
    0 -9.800676 3.395994 -12.010844 0.753909 3.030204 -5.467969
    1 10.295578 0.000000 0.000002 0.513360 0.035314 0.045438
    2 17.168880 12.206093 -6.354432 -0.464908 -0.097951 -0.597722
    3 10.295582 0.000001 -0.000006 -0.979445 0.146872 -0.366248
    4 1.149520 0.416502 1.414117 -2.019538 -0.212592 0.859487
    5 1.263885 0.000000 -0.000008 0.010499 -0.004207 0.261076
    6 1.188939 -0.000002 0.000010 0.004290 -0.004350 0.883994
    7 3.773755 0.133215 0.970575 0.064315 0.064033 1.441404
    8 1.433456 0.000000 0.000000 0.082047 -0.025947 1.400638
    9 1.019165 -0.000006 0.000001 0.111253 -0.007179 1.169620
    10 3.799514 0.014957 0.039959 0.061570 0.037767 1.687534
    11 1.774878 0.000000 0.000000 0.019631 -0.092090 1.497974
    12 1.008844 -0.000004 0.000000 0.102133 -0.036158 0.427399
    13 3.632766 0.059052 -0.757493 -0.011391 -0.048768 1.867470
    14 1.500137 0.000002 0.000000 0.117785 -0.032059 0.853941
    15 0.905666 -0.000002 -0.000001 0.110546 -0.051749 1.028406
    16 3.323331 0.233744 -1.479075 0.059234 -0.114223 1.948269
    17 0.963100 0.000011 0.000000 0.060438 0.054818 0.140449
    18 0.682894 -0.000006 -0.000001 0.068049 -0.044834 1.457735
    19 1.149529 0.416498 -1.414117 1.745205 0.549542 0.478514
    20 1.263884 0.000001 0.000000 -0.008773 0.098142 0.556209
    21 1.188946 0.000000 0.000002 0.031112 0.089129 0.748515
    22 3.773762 0.133217 -0.970574 0.165900 0.071297 1.035742
    23 1.433458 0.000004 0.000000 -0.008581 0.036601 1.435606
    24 1.019165 0.000011 0.000000 -0.017486 0.033054 1.176248
    25 3.799517 0.014957 -0.039958 -0.017644 0.030317 1.660203
    26 1.774879 0.000004 0.000000 -0.006615 0.022962 1.359216
    27 1.008841 0.000004 0.000000 -0.006639 0.022962 1.359215
    28 3.632765 0.059053 0.757493 -0.329450 0.079029 1.264142
    29 1.500135 0.000004 0.000000 -0.009767 0.014429 1.269374
    30 0.905668 0.000002 -0.000001 -0.009767 0.014429 1.269374
    31 3.323332 0.233744 1.479075 -0.509290 -0.315757 0.914452
    32 0.963099 0.000010 0.000000 -0.014358 0.014010 0.851779
    33 0.682898 -0.000002 0.000000 -0.014358 0.014010 0.851779
    34 17.168880 12.206093 -6.354432 0.573730 -0.097867 -0.597955
    35 -9.800676 3.395994 -12.010844 0.333265 3.029951 -5.468068
    36 0.000000 3.992340 0.007782 1.570796 0.000000 -1.570796
    37 10.176092 -14.457472 18.555254 -0.431937 0.165572 -1.922167
    38 -0.021929 2.029111 -0.137266 -1.570805 0.000001 0.000000
    39 0.007813 0.000000 0.000000 0.000007 0.000000 0.000001
    40 0.002397 -0.669111 0.409449 1.570796 0.000000 0.000000
    41 -0.002402 -6.221447 0.929182 -0.816253 0.000000 0.000000
  time 11
    0 -10.206939 -0.295525 -11.061597 0.729340 2.882635 -5.348705
    1 10.295578 0.000000 0.000002 0.585584 0.220268 0.063357
    2 17.899372 11.338879 -6.354432 -0.424201 0.039951 -0.791253
    3 10.295582 0.000001 -0.000006 -0.960890 0.008021 -0.293301
    4 1.149520 0.416502 1.414117 -2.019538 -0.212592 0.859487
    5 1.263885 0.000000 -0.000008 0.010499 -0.004207 0.261076
    6 1.188939 -0.000002 0.000010 0.004290 -0.004350 0.883994
    7 3.773755 0.133215 0.970575 0.064315 0.064033 1.441404
    8 1.433456 0.000000 0.000000 0.082047 -0.025947 1.400638
    9 1.019165 -0.000006 0.000001 0.111253 -0.007179 1.169620
    10 3.799514 0.014957 0.039959 0.061570 0.037767 1.687534
    11 1.774878 0.000000 0.000000 0.019619 -0.092090 1.497974
    12 1.008844 -0.000004 0.000000 0.102133 -0.036158 0.427399
    13 3.632766 0.059052 -0.757493 -0.011391 -0.048768 1.867470
    14 1.500137 0.000002 0.000000 0.117785 -0.032059 0.853941
    15 0.905666 -0.000002 -0.000001 0.110546 -0.051749 1.028498
    16 3.323331 0.233744 -1.479075 0.059234 -0.114223 1.948269
    17 0.963100 0.000011 0.000000 0.060438 0.054818 0.140449
    18 0.682894 -0.000006 -0.000001 0.068049 -0.044834 1.457735
    19 1.149529 0.416498 -1.414117 1.745205 0.549542 0.478514
    20 1.263884 0.000001 0.000000 -0.008773 0.098142 0.556209
    21 1.188946 0.000000 0.000002 0.031112 0.089129 0.748515
    22 3.773762 0.133217 -0.970574 0.165900 0.071297 1.035742
    23 1.433458 0.000004 0.000000 -0.008581 0.036601 1.435606
    24 1.019165 0.000011 0.000000 -0.016455 0.033761 1.211331
    25 3.799517 0.014957 -0.039958 -0.017644 0.030317 1.660203
    26 1.774879 0.000004 0.000000 -0.006615 0.022962 1.359216
    27 1.008841 0.000004 0.000000 -0.006639 0.022962 1.359215
    28 3.632765 0.059053 0.757493 -0.329450 0.079029 1.264142
    29 1.500135 0.000004 0.000000 -0.009767 0.014429 1.269374
    30 0.905668 0.000002 -0.000001 -0.009767 0.014429 1.269374
    31 3.323332 0.233744 1.479075 -0.509290 -0.315757 0.914452
    32 0.963099 0.000010 0.000000 -0.014358 0.014010 0.851779
    33 0.682898 -0.000002 0.000000 -0.014358 0.014010 0.851779
    34 17.899372 11.338879 -6.354432 0.605793 0.040001 -0.791349
    35 -10.206939 -0.295525 -11.061597 0.305286 2.883976 -5.351003
    36 0.000000 3.992340 0.007782 1.570796 0.000000 -1.570796
    37 14.437941 -15.019990 17.938047 -0.416510 0.188011 -1.924155
    38 -0.021929 2.029111 -0.137266 -1.570805 0.000001 0.000000
    39 0.019532 0.000000 0.000000 0.000007 0.000000 0.000001
    40 0.014116 -0.669111 0.409449 1.570796 0.000000 0.000000
    41 -0.014121 -6.221447 0.929182 -0.816253 0.000000 0.000000
  time 12
    0 -9.956931 -2.412777 -11.573331 0.741142 2.761213 -5.252203
    1 10.295578 0.000000 0.000002 0.792776 0.465320 -0.249850
    2 18.731428 10.081028 -6.409121 -0.412377 0.165259 -0.977434
    3 10.295582 0.000001 -0.000006 -0.952765 -0.108358 -0.226416
    4 1.149520 0.416502 1.414117 -2.019538 -0.212592 0.859487
    5 1.263885 0.000000 -0.000008 0.010499 -0.004207 0.261076
    6 1.188939 -0.000002 0.000010 0.004290 -0.004350 0.883994
    7 3.773755 0.133215 0.970575 0.064315 0.064033 1.441404
    8 1.433456 0.000000 0.000000 0.082047 -0.025947 1.400638
    9 1.019165 -0.000006 0.000001 0.111253 -0.007179 1.169620
    10 3.799514 0.014957 0.039959 0.061570 0.037767 1.687534
    11 1.774878 0.000000 0.000000 0.019619 -0.092090 1.498068
    12 1.008844 -0.000004 0.000000 0.102133 -0.036158 0.427399
    13 3.632766 0.059052 -0.757493 -0.011391 -0.048768 1.867916
    14 1.500137 0.000002 0.000000 0.117785 -0.032059 0.853941
    15 0.905666 -0.000002 -0.000001 0.110546 -0.051749 1.028498
    16 3.323331 0.233744 -1.479075 0.059234 -0.114223 1.948562
    17 0.963100 0.000011 0.000000 0.060438 0.054818 0.140449
    18 0.682894 -0.000006 -0.000001 0.068049 -0.044846 1.457779
    19 1.149529 0.416498 -1.414117 1.745205 0.549542 0.478514
    20 1.263884 0.000001 0.000000 -0.008773 0.098142 0.556209
    21 1.188946 0.000000 0.000002 0.031112 0.089129 0.748515
    22 3.773762 0.133217 -0.970574 0.165900 0.071297 1.035742
    23 1.433458 0.000004 0.000000 -0.008581 0.036601 1.435606
    24 1.019165 0.000011 0.000000 -0.015149 0.034276 1.244693
    25 3.799517 0.014957 -0.039958 -0.017644 0.030317 1.660203
    26 1.774879 0.000004 0.000000 -0.006615 0.022962 1.359216
    27 1.008841 0.000004 0.000000 -0.006639 0.022962 1.359215
    28 3.632765 0.059053 0.757493 -0.329450 0.079029 1.264142
    29 1.500135 0.000004 0.000000 -0.009767 0.014429 1.269374
    30 0.905668 0.000002 -0.000001 -0.009767 0.014429 1.269374
    31 3.323332 0.233744 1.479075 -0.509290 -0.315757 0.914452
    32 0.963099 0.000010 0.000000 -0.014358 0.014010 0.851779
    33 0.682898 -0.000002 0.000000 -0.014358 0.014010 0.851779
    34 18.731428 10.081028 -6.409121 0.608793 0.165277 -0.977464
    35 -9.956931 -2.412777 -11.573331 0.308429 2.761084 -5.252205
    36 0.000000 3.992340 0.007782 1.570796 0.000000 -1.570796
    37 17.355998 -15.832514 16.289560 -0.574702 0.209782 -1.559128
    38 -0.021929 2.029111 -0.137266 -1.570805 0.000001 0.000000
    39 0.007813 0.000000 0.000000 0.000007 0.000000 0.000001
    40 0.014116 -0.669111 0.409449 1.570796 0.000000 0.000000
    41 -0.002402 -6.221447 0.929182 -0.816253 0.000000 0.000000
  time 13
    0 -9.199095 -3.365931 -12.065533 0.741810 2.725378 -5.210312
    1 10.295578 0.000000 0.000002 0.557963 0.394134 -0.085208
    2 19.270507 8.483323 -6.948200 -0.462383 0.217445 -1.130218
    3 10.295582 0.000001 -0.000006 -0.916984 -0.134699 -0.174779
    4 1.149520 0.416502 1.414117 -2.019538 -0.212592 0.859487
    5 1.263885 0.000000 -0.000008 0.010499 -0.004207 0.261076
    6 1.188939 -0.000002 0.000010 0.004290 -0.004350 0.883994
    7 3.773755 0.133215 0.970575 0.064315 0.064033 1.441404
    8 1.433456 0.000000 0.000000 0.082047 -0.025947 1.400638
    9 1.019165 -0.000006 0.000001 0.111253 -0.007179 1.169620
    10 3.799514 0.014957 0.039959 0.061570 0.037767 1.687534
    11 1.774878 0.000000 0.000000 0.019619 -0.092090 1.498068
    12 1.008844 -0.000004 0.000000 0.102133 -0.036158 0.427399
    13 3.632766 0.059052 -0.757493 -0.011353 -0.048780 1.867916
    14 1.500137 0.000002 0.000000 0.117785 -0.032059 0.854035
    15 0.905666 -0.000002 -0.000001 0.110546 -0.051761 1.028498
    16 3.323331 0.233744 -1.479075 0.059234 -0.114223 1.948562
    17 0.963100 0.000011 0.000000 0.060438 0.054818 0.140449
    18 0.682894 -0.000006 -0.000001 0.068049 -0.044846 1.457779
    19 1.149529 0.416498 -1.414117 1.745205 0.549542 0.478514
    20 1.263884 0.000001 0.000000 -0.008773 0.098142 0.556209
    21 1.188946 0.000000 0.000002 0.031112 0.089129 0.748515
    22 3.773762 0.133217 -0.970574 0.165900 0.071297 1.035742
    23 1.433458 0.000004 0.000000 -0.008581 0.036601 1.435606
    24 1.019165 0.000011 0.000000 -0.014226 0.034600 1.275949
    25 3.799517 0.014957 -0.039958 -0.017644 0.030317 1.660203
    26 1.774879 0.000004 0.000000 -0.006615 0.022962 1.359216
    27 1.008841 0.000004 0.000000 -0.006639 0.022962 1.359215
    28 3.632765 0.059053 0.757493 -0.329450 0.079029 1.264142
    29 1.500135 0.000004 0.000000 -0.009767 0.014429 1.269374
    30 0.905668 0.000002 -0.000001 -0.009767 0.014429 1.269374
    31 3.323332 0.233744 1.479075 -0.509290 -0.315757 0.914452
    32 0.963099 0.000010 0.000000 -0.014358 0.014010 0.851779
    33 0.682898 -0.000002 0.000000 -0.014358 0.014010 0.851779
    34 19.270507 8.483323 -6.948200 0.549636 0.217421 -1.130467
    35 -9.199095 -3.365931 -12.065533 0.288831 2.725357 -5.210888
    36 0.000000 3.992340 0.007782 1.570796 0.000000 -1.570796
    37 18.051332 -17.355998 15.250465 -0.528614 0.099305 -1.894809
    38 -0.021929 2.029111 -0.137266 -1.570805 0.000001 0.000000
    39 0.019532 0.000000 0.007813 0.000007 0.000000 0.000001
    40 0.014116 -0.669111 0.409449 1.570796 0.000000 0.000000
    41 -0.002402 -6.221447 0.929182 -0.816253 0.000000 0.000000
  time 14
    0 -9.535043 -1.916668 -12.655395 -2.358163 0.206265 -1.935271
    1 10.295578 0.000000 0.000002 0.766928 0.283666 -0.094667
    2 19.731459 6.803584 -7.139612 -0.496131 0.268834 -1.304553
    3 10.295582 0.000001 -0.000006 -0.911672 -0.180214 -0.111744
    4 1.149520 0.416502 1.414117 -2.019538 -0.212592 0.859487
    5 1.263885 0.000000 -0.000008 0.010499 -0.004207 0.261076
    6 1.188939 -0.000002 0.000010 0.004290 -0.004350 0.883994
    7 3.773755 0.133215 0.970575 0.064315 0.064033 1.441404
    8 1.433456 0.000000 0.000000 0.082047 -0.025947 1.400638
    9 1.019165 -0.000006 0.000001 0.111253 -0.007179 1.169620
    10 3.799514 0.014957 0.039959 0.061584 0.037767 1.687941
    11 1.774878 0.000000 0.000000 0.019619 -0.092090 1.498211
    12 1.008844 -0.000004 0.000000 0.102133 -0.036158 0.427399
    13 3.632766 0.059052 -0.757493 -0.011353 -0.048792 1.867916
    14 1.500137 0.000002 0.000000 0.117785 -0.032071 0.854035
    15 0.905666 -0.000002 -0.000001 0.110546 -0.051761 1.028590
    16 3.323331 0.233744 -1.479075 0.059234 -0.114223 1.948738
    17 0.963100 0.000011 0.000000 0.060438 0.054818 0.140449
    18 0.682894 -0.000006 -0.000001 0.068049 -0.044846 1.457954
    19 1.149529 0.416498 -1.414117 1.745205 0.549542 0.478514
    20 1.263884 0.000001 0.000000 -0.008773 0.098142 0.556209
    21 1.188946 0.000000 0.000002 0.031112 0.089129 0.748515
    22 3.773762 0.133217 -0.970574 0.165900 0.071297 1.035742
    23 1.433458 0.000004 0.000000 -0.008581 0.036601 1.435606
    24 1.019165 0.000011 0.000000 -0.013243 0.035139 1.305228
    25 3.799517 0.014957 -0.039958 -0.017644 0.030317 1.660203
    26 1.774879 0.000004 0.000000 -0.006615 0.022962 1.359216
    27 1.008841 0.000004 0.000000 -0.006639 0.022962 1.359215
    28 3.632765 0.059053 0.757493 -0.329450 0.079029 1.264142
    29 1.500135 0.000004 0.000000 -0.009767 0.014429 1.269374
    30 0.905668 0.000002 -0.000001 -0.009767 0.014429 1.269374
    31 3.323332 0.233744 1.479075 -0.509290 -0.315757 0.914452
    32 0.963099 0.000010 0.000000 -0.014358 0.014010 0.851779
    33 0.682898 -0.000002 0.000000 -0.014358 0.014010 0.851779
    34 19.731459 6.803584 -7.139612 0.506510 0.268715 -1.304593
    35 -9.535043 -1.916668 -12.655395 0.300972 2.934071 -5.076321
    36 0.000000 3.992340 0.007782 1.570796 0.000000 -1.570796
    37 18.125553 -15.375469 13.969176 -0.767674 0.216275 -1.670359
    38 -0.021929 2.029111 -0.137266 -1.570805 0.000001 0.000000
    39 0.019532 0.000000 0.007813 0.000007 0.000000 0.000001
    40 0.002397 -0.669111 0.409449 1.570796 0.000000 0.000000
    41 -0.002402 -6.221447 0.929182 -0.816253 0.000000 0.000000
  time 15
    0 -9.488167 -1.037735 -13.214006 -2.363285 -0.007988 -1.847090
    1 10.295578 0.000000 0.000002 1.032977 0.097184 -0.199184
    2 20.012717 4.768366 -7.424777 -0.554944 0.273973 -1.533622
    3 10.295582 0.000001 -0.000006 -0.907297 -0.220697 0.008551
    4 1.149520 0.416502 1.414117 -2.019538 -0.212592 0.859487
    5 1.263885 0.000000 -0.000008 0.010499 -0.004207 0.261076
    6 1.188939 -0.000002 0.000010 0.004290 -0.004350 0.883994
    7 3.773755 0.133215 0.970575 0.064315 0.064033 1.441404
    8 1.433456 0.000000 0.000000 0.082047 -0.025947 1.400638
    9 1.019165 -0.000006 0.000001 0.111253 -0.007179 1.169620
    10 3.799514 0.014957 0.039959 0.061584 0.037767 1.687941
    11 1.774878 0.000000 0.000000 0.019607 -0.092090 1.498211
    12 1.008844 -0.000004 0.000000 0.102133 -0.036158 0.427399
    13 3.632766 0.059052 -0.757493 -0.011353 -0.048792 1.867916
    14 1.500137 0.000002 0.000000 0.117785 -0.032071 0.854129
    15 0.905666 -0.000002 -0.000001 0.110546 -0.051761 1.028682
    16 3.323331 0.233744 -1.479075 0.059234 -0.114223 1.949031
    17 0.963100 0.000011 0.000000 0.060438 0.054818 0.140449
    18 0.682894 -0.000006 -0.000001 0.068049 -0.044858 1.458173
    19 1.149529 0.416498 -1.414117 1.745205 0.549542 0.478514
    20 1.263884 0.000001 0.000000 -0.008773 0.098142 0.556209
    21 1.188946 0.000000 0.000002 0.031112 0.089129 0.748515
    22 3.773762 0.133217 -0.970574 0.165900 0.071297 1.035742
    23 1.433458 0.000004 0.000000 -0.008581 0.036601 1.435606
    24 1.019165 0.000011 0.000000 -0.012045 0.035379 1.332184
    25 3.799517 0.014957 -0.039958 -0.017644 0.030317 1.660203
    26 1.774879 0.000004 0.000000 -0.006615 0.022962 1.359216
    27 1.008841 0.000004 0.000000 -0.006639 0.022962 1.359215
    28 3.632765 0.059053 0.757493 -0.329450 0.079029 1.264142
    29 1.500135 0.000004 0.000000 -0.009767 0.014429 1.269374
    30 0.905668 0.000002 -0.000001 -0.009767 0.014429 1.269374
    31 3.323332 0.233744 1.479075 -0.509290 -0.315757 0.914452
    32 0.963099 0.000010 0.000000 -0.014358 0.014010 0.851779
    33 0.682898 -0.000002 0.000000 -0.014358 0.014010 0.851779
    34 20.012717 4.768366 -7.424777 0.438165 0.274124 -1.533669
    35 -9.488167 -1.037735 -13.214006 0.275889 -3.133202 -4.987757
    36 0.000000 3.992340 0.007782 1.570796 0.000000 -1.570796
    37 18.000549 -13.094150 12.109745 -1.113855 0.397984 -1.538017
    38 -0.021929 2.029111 -0.137266 -1.570805 0.000001 0.000000
    39 0.019532 0.000000 0.000000 0.000007 0.000000 0.000001
    40 0.014116 -0.669111 0.409449 1.570796 0.000000 0.000000
    41 -0.014121 -6.221447 0.929182 -0.816253 0.000000 0.000000
  time 16
    0 -8.855335 -1.111956 -13.104628 -2.340349 -0.106555 -1.781767
    1 10.295578 0.000000 0.000002 1.234031 -0.177857 -0.306073
    2 19.918964 2.190162 -8.143549 -0.632355 0.206823 -1.775536
    3 10.295582 0.000001 -0.000006 -0.887648 -0.229312 0.165729
    4 1.149520 0.416502 1.414117 -2.019538 -0.212592 0.859487
    5 1.263885 0.000000 -0.000008 0.010499 -0.004207 0.261076
    6 1.188939 -0.000002 0.000010 0.004290 -0.004350 0.883994
    7 3.773755 0.133215 0.970575 0.064315 0.064033 1.441404
    8 1.433456 0.000000 0.000000 0.082047 -0.025947 1.400638
    9 1.019165 -0.000006 0.000001 0.111253 -0.007179 1.169620
    10 3.799514 0.014957 0.039959 0.061584 0.037647 1.687941
    11 1.774878 0.000000 0.000000 0.019607 -0.092102 1.498400
    12 1.008844 -0.000004 0.000000 0.102133 -0.036158 0.427494
    13 3.632766 0.059052 -0.757493 -0.011353 -0.048792 1.868195
    14 1.500137 0.000002 0.000000 0.117785 -0.032071 0.854223
    15 0.905666 -0.000002 -0.000001 0.110534 -0.051773 1.028774
    16 3.323331 0.233744 -1.479075 0.059222 -0.114357 1.949031
    17 0.963100 0.000011 0.000000 0.060438 0.054818 0.140449
    18 0.682894 -0.000006 -0.000001 0.068049 -0.044858 1.458173
    19 1.149529 0.416498 -1.414117 1.745205 0.549542 0.478514
    20 1.263884 0.000001 0.000000 -0.008773 0.098142 0.556209
    21 1.188946 0.000000 0.000002 0.031112 0.089129 0.748515
    22 3.773762 0.133217 -0.970574 0.165900 0.071297 1.035742
    23 1.433458 0.000004 0.000000 -0.008581 0.036601 1.435606
    24 1.019165 0.000011 0.000000 -0.011254 0.035786 1.356647
    25 3.799517 0.014957 -0.039958 -0.017644 0.030317 1.660203
    26 1.774879 0.000004 0.000000 -0.006615 0.022962 1.359216
    27 1.008841 0.000004 0.000000 -0.006639 0.022962 1.359215
    28 3.632765 0.059053 0.757493 -0.329450 0.079029 1.264142
    29 1.500135 0.000004 0.000000 -0.009767 0.014429 1.269374
    30 0.905668 0.000002 -0.000001 -0.009767 0.014429 1.269374
    31 3.323332 0.233744 1.479075 -0.509290 -0.315757 0.914452
    32 0.963099 0.000010 0.000000 -0.014358 0.014010 0.851754
    33 0.682898 -0.000002 0.000000 -0.014358 0.014010 0.851779
    34 19.918964 2.190162 -8.143549 0.350695 0.206728 -1.775733
    35 -8.855335 -1.111956 -13.104628 0.306950 -3.033874 -4.922147
    36 0.000000 3.992340 0.007782 1.570796 0.000000 -1.570796
    37 17.969298 -11.957396 9.719047 -1.531514 0.517150 -1.745712
    38 -0.021929 2.029111 -0.137266 -1.570805 0.000001 0.000000
    39 0.007813 0.000000 0.007813 0.000007 0.000000 0.000001
    40 0.002397 -0.669111 0.409449 1.570796 0.000000 0.000000
    41 -0.002402 -6.221447 0.929182 -0.816253 0.000000 0.000000
  time 17
    0 -8.390477 -1.776039 -12.010844 -2.257884 -0.146810 -1.721322
    1 10.295578 0.000000 0.000002 1.443883 -0.482692 -0.381214
    2 19.391605 -0.606798 -9.014669 -0.683839 0.108332 -1.968282
    3 10.295582 0.000001 -0.000006 -0.866203 -0.212635 0.299157
    4 1.149520 0.416502 1.414117 -2.019538 -0.212592 0.859487
    5 1.263885 0.000000 -0.000008 0.010499 -0.004207 0.261076
    6 1.188939 -0.000002 0.000010 0.004290 -0.004350 0.883994
    7 3.773755 0.133215 0.970575 0.064315 0.064033 1.441404
    8 1.433456 0.000000 0.000000 0.082047 -0.025947 1.400638
    9 1.019165 -0.000006 0.000001 0.111253 -0.007179 1.169620
    10 3.799514 0.014957 0.039959 0.061584 0.037647 1.688348
    11 1.774878 0.000000 0.000000 0.019595 -0.092102 1.498542
    12 1.008844 -0.000004 0.000000 0.102133 -0.036158 0.427494
    13 3.632766 0.059052 -0.757493 -0.011534 -0.048792 1.868195
    14 1.500137 0.000002 0.000000 0.117785 -0.032071 0.854223
    15 0.905666 -0.000002 -0.000001 0.110498 -0.051845 1.028835
    16 3.323331 0.233744 -1.479075 0.059210 -0.114357 1.949441
    17 0.963100 0.000011 0.000000 0.060438 0.054818 0.140405
    18 0.682894 -0.000006 -0.000001 0.068049 -0.044858 1.458348
    19 1.149529 0.416498 -1.414117 1.745205 0.549542 0.478514
    20 1.263884 0.000001 0.000000 -0.008773 0.098142 0.556209
    21 1.188946 0.000000 0.000002 0.031112 0.089129 0.748515
    22 3.773762 0.133217 -0.970574 0.165900 0.071297 1.035742
    23 1.433458 0.000004 0.000000 -0.008581 0.036601 1.435606
    24 1.019165 0.000011 0.000000 -0.010487 0.036014 1.377929
    25 3.799517 0.014957 -0.039958 -0.017644 0.030317 1.660203
    26 1.774879 0.000004 0.000000 -0.006615 0.022962 1.359216
    27 1.008841 0.000004 0.000000 -0.006639 0.022962 1.359215
    28 3.632765 0.059053 0.757493 -0.329450 0.079029 1.264142
    29 1.500135 0.000004 0.000000 -0.009767 0.014429 1.269374
    30 0.905668 0.000002 -0.000001 -0.009767 0.014429 1.269374
    31 3.323332 0.233744 1.479075 -0.509290 -0.315757 0.914452
    32 0.963099 0.000010 0.000000 -0.014358 0.014010 0.851779
    33 0.682898 -0.000002 0.000000 -0.014358 0.014010 0.851779
    34 19.391605 -0.606798 -9.014669 0.289100 0.108375 -1.968556
    35 -8.390477 -1.776039 -12.010844 -2.723193 -0.146261 -1.721413
    36 0.000000 3.992340 0.007782 1.570796 0.000000 -1.570796
    37 18.063051 -10.582354 7.750237 4.306708 0.543122 -2.140937
    38 -0.021929 2.029111 -0.137266 -1.570805 0.000001 0.000000
    39 0.019532 0.000000 0.000000 0.000007 0.000000 0.000001
    40 0.014116 -0.669111 0.409449 1.570796 0.000000 0.000000
    41 -0.002402 -6.221447 0.929182 -0.816253 0.000000 0.000000
  time 18
    0 -8.269380 -2.518249 -10.811589 -2.168219 -0.184149 -1.646148
    1 10.295578 0.000000 0.000002 1.412238 -0.544319 -0.292462
    2 18.668926 -2.954526 -9.620156 -0.699666 0.030940 -2.088454
    3 10.295582 0.000001 -0.000006 -0.851672 -0.183264 0.363431
    4 1.149520 0.416502 1.414117 -2.019538 -0.212592 0.859487
    5 1.263885 0.000000 -0.000008 0.010499 -0.004207 0.261076
    6 1.188939 -0.000002 0.000010 0.004290 -0.004350 0.883994
    7 3.773755 0.133215 0.970575 0.064315 0.064033 1.441404
    8 1.433456 0.000000 0.000000 0.082047 -0.025947 1.400638
    9 1.019165 -0.000006 0.000001 0.111253 -0.007179 1.169620
    10 3.799514 0.014957 0.039959 0.061584 0.037647 1.688348
    11 1.774878 0.000000 0.000000 0.019595 -0.092102 1.498732
    12 1.008844 -0.000004 0.000000 0.102133 -0.036158 0.427494
    13 3.632766 0.059052 -0.757493 -0.011573 -0.048792 1.868195
    14 1.500137 0.000002 0.000000 0.117785 -0.032083 0.854364
    15 0.905666 -0.000002 -0.000001 0.110498 -0.051857 1.028958
    16 3.323331 0.233744 -1.479075 0.059198 -0.114384 1.949558
    17 0.963100 0.000011 0.000000 0.060438 0.054818 0.140405
    18 0.682894 -0.000006 -0.000001 0.068049 -0.044870 1.458567
    19 1.149529 0.416498 -1.414117 1.745205 0.549542 0.478514
    20 1.263884 0.000001 0.000000 -0.008773 0.098142 0.556209
    21 1.188946 0.000000 0.000002 0.031112 0.089129 0.748515
    22 3.773762 0.133217 -0.970574 0.165900 0.071297 1.035742
    23 1.433458 0.000004 0.000000 -0.008581 0.036601 1.435606
    24 1.019165 0.000011 0.000000 -0.009720 0.036146 1.396244
    25 3.799517 0.014957 -0.039958 -0.017644 0.030317 1.660203
    26 1.774879 0.000004 0.000000 -0.006615 0.022962 1.359216
    27 1.008841 0.000004 0.000000 -0.006639 0.022962 1.359215
    28 3.632765 0.059053 0.757493 -0.329450 0.079029 1.264142
    29 1.500135 0.000004 0.000000 -0.009767 0.014429 1.269374
    30 0.905668 0.000002 -0.000001 -0.009767 0.014429 1.269374
    31 3.323332 0.233744 1.479075 -0.509290 -0.315757 0.914452
    32 0.963099 0.000010 0.000000 -0.014358 0.014010 0.851779
    33 0.682898 -0.000002 0.000000 -0.014358 0.014010 0.851779
    34 18.668926 -2.954526 -9.620156 0.263037 0.030991 -2.088661
    35 -8.269380 -2.518249 -10.811589 -2.602525 -0.183521 -1.646048
    36 0.000000 3.992340 0.007782 1.570796 0.000000 -1.570796
    37 18.668538 -8.996368 6.711142 1.059525 2.601121 0.899031
    38 -0.021929 2.029111 -0.137266 -1.570805 0.000001 0.000000
    39 0.007813 0.000000 0.007813 0.000007 0.000000 0.000001
    40 0.014116 -0.669111 0.409449 1.570796 0.000000 0.000000
    41 -0.002402 -6.221447 0.929182 -0.816253 0.000000 0.000000
  time 19
    0 -8.300631 -3.057328 -10.311574 -2.110768 -0.255723 -1.576043
    1 10.295578 0.000000 0.000002 1.254491 -0.432323 -0.154324
    2 18.153286 -4.595201 -9.893602 -0.694616 -0.011439 -2.148326
    3 10.295582 0.000001 -0.000006 -0.844601 -0.155074 0.345647
    4 1.149520 0.416502 1.414117 -2.019538 -0.212592 0.859487
    5 1.263885 0.000000 -0.000008 0.010499 -0.004207 0.261076
    6 1.188939 -0.000002 0.000010 0.004290 -0.004350 0.883994
    7 3.773755 0.133215 0.970575 0.064315 0.064033 1.441404
    8 1.433456 0.000000 0.000000 0.082047 -0.025947 1.400638
    9 1.019165 -0.000006 0.000001 0.111253 -0.007179 1.169620
    10 3.799514 0.014957 0.039959 0.061598 0.037539 1.688348
    11 1.774878 0.000000 0.000000 0.019583 -0.092102 1.498969
    12 1.008844 -0.000004 0.000000 0.102133 -0.036158 0.427494
    13 3.632766 0.059052 -0.757493 -0.011573 -0.048792 1.868529
    14 1.500137 0.000002 0.000000 0.117785 -0.032083 0.854411
    15 0.905666 -0.000002 -0.000001 0.110486 -0.051857 1.029019
    16 3.323331 0.233744 -1.479075 0.059186 -0.114384 1.949734
    17 0.963100 0.000011 0.000000 0.060438 0.054818 0.140405
    18 0.682894 -0.000006 -0.000001 0.068049 -0.044870 1.458742
    19 1.149529 0.416498 -1.414117 1.745205 0.549542 0.478514
    20 1.263884 0.000001 0.000000 -0.008773 0.098142 0.556209
    21 1.188946 0.000000 0.000002 0.031112 0.089129 0.748515
    22 3.773762 0.133217 -0.970574 0.165900 0.071297 1.035742
    23 1.433458 0.000004 0.000000 -0.008581 0.036601 1.435606
    24 1.019165 0.000011 0.000000 -0.009420 0.036158 1.411335
    25 3.799517 0.014957 -0.039958 -0.017644 0.030317 1.660203
    26 1.774879 0.000004 0.000000 -0.006615 0.022962 1.359216
    27 1.008841 0.000004 0.000000 -0.006639 0.022962 1.359215
    28 3.632765 0.059053 0.757493 -0.329450 0.079029 1.264142
    29 1.500135 0.000004 0.000000 -0.009767 0.014429 1.269374
    30 0.905668 0.000002 -0.000001 -0.009767 0.014429 1.269374
    31 3.323332 0.233744 1.479075 -0.509290 -0.315757 0.914452
    32 0.963099 0.000010 0.000000 -0.014358 0.014010 0.851779
    33 0.682898 -0.000002 0.000000 -0.014358 0.014010 0.851779
    34 18.153286 -4.595201 -9.893602 0.257787 -0.011401 -2.148534
    35 -8.300631 -3.057328 -10.311574 -2.527215 -0.255551 -1.575943
    36 0.000000 3.992340 0.007782 1.570796 0.000000 -1.570796
    37 19.250587 -7.617420 6.215033 4.302492 0.571863 -2.095498
    38 -0.021929 2.029111 -0.137266 -1.570805 0.000001 0.000000
    39 0.007813 0.000000 0.007813 0.000007 0.000000 0.000001
    40 0.002397 -0.669111 0.409449 1.570796 0.000000 0.000000
    41 -0.002402 -6.221447 0.929182 -0.816253 0.000000 0.000000
  time 20
    0 -8.831897 -3.725317 -11.221758 -2.110768 -0.428122 -1.456300
    1 10.295578 0.000000 0.000002 1.112021 -0.299922 0.033513
    2 17.664989 -5.931180 -9.995168 -0.683839 -0.037857 -2.189002
    3 10.295582 0.000001 -0.000006 -0.834328 -0.146326 0.263189
    4 1.149520 0.416502 1.414117 -2.019538 -0.212592 0.859487
    5 1.263885 0.000000 -0.000008 0.010499 -0.004207 0.261076
    6 1.188939 -0.000002 0.000010 0.004290 -0.004350 0.883994
    7 3.773755 0.133215 0.970575 0.064315 0.064033 1.441404
    8 1.433456 0.000000 0.000000 0.082047 -0.025947 1.400638
    9 1.019165 -0.000006 0.000001 0.111253 -0.007179 1.169620
    10 3.799514 0.014957 0.039959 0.061598 0.037539 1.688653
    11 1.774878 0.000000 0.000000 0.019583 -0.092102 1.498969
    12 1.008844 -0.000004 0.000000 0.102121 -0.036158 0.427613
    13 3.632766 0.059052 -0.757493 -0.011573 -0.048792 1.868529
    14 1.500137 0.000002 0.000000 0.117785 -0.032095 0.854505
    15 0.905666 -0.000002 -0.000001 0.110486 -0.051857 1.029111
    16 3.323331 0.233744 -1.479075 0.059102 -0.114424 1.949851
    17 0.963100 0.000011 0.000000 0.060438 0.054818 0.140405
    18 0.682894 -0.000006 -0.000001 0.068025 -0.045134 1.458873
    19 1.149529 0.416498 -1.414117 1.745205 0.549542 0.478514
    20 1.263884 0.000001 0.000000 -0.008773 0.098142 0.556209
    21 1.188946 0.000000 0.000002 0.031112 0.089129 0.748515
    22 3.773762 0.133217 -0.970574 0.165900 0.071297 1.035742
    23 1.433458 0.000004 0.000000 -0.008581 0.036601 1.435606
    24 1.019165 0.000011 0.000000 -0.008929 0.036253 1.423072
    25 3.799517 0.014957 -0.039958 -0.017644 0.030317 1.660203
    26 1.774879 0.000004 0.000000 -0.006615 0.022962 1.359216
    27 1.008841 0.000004 0.000000 -0.006639 0.022962 1.359215
    28 3.632765 0.059053 0.757493 -0.329450 0.079029 1.264142
    29 1.500135 0.000004 0.000000 -0.009767 0.014429 1.269374
    30 0.905668 0.000002 -0.000001 -0.009767 0.014429 1.269374
    31 3.323332 0.233744 1.479075 -0.509290 -0.315757 0.914452
    32 0.963099 0.000010 0.000000 -0.014358 0.014010 0.851779
    33 0.682898 -0.000002 0.000000 -0.014358 0.014010 0.851779
    34 17.664989 -5.931180 -9.995168 0.258537 -0.037925 -2.189211
    35 -8.831897 -3.725317 -11.221758 -2.572019 -0.429208 -1.456678
    36 0.000000 3.992340 0.007782 1.570796 0.000000 -1.570796
    37 19.469344 -6.652547 5.867367 4.435580 0.570526 -1.892821
    38 -0.021929 2.029111 -0.137266 -1.570805 0.000001 0.000000
    39 0.019532 0.000000 0.007813 0.000007 0.000000 0.000001
    40 0.002397 -0.669111 0.409449 1.570796 0.000000 0.000000
    41 -0.002402 -6.221447 0.929182 -0.816253 0.000000 0.000000
  time 21
    0 -8.788927 -4.041733 -11.198319 -2.076550 -0.490291 -1.400159
    1 10.295578 0.000000 0.000002 0.954206 -0.165944 0.098633
    2 17.137630 -7.079652 -9.960010 -0.669921 -0.052496 -2.216119
    3 10.295582 0.000001 -0.000006 -0.807297 -0.156980 0.131972
    4 1.149520 0.416502 1.414117 -2.019538 -0.212592 0.859487
    5 1.263885 0.000000 -0.000008 0.010499 -0.004207 0.261076
    6 1.188939 -0.000002 0.000010 0.004290 -0.004350 0.883994
    7 3.773755 0.133215 0.970575 0.064315 0.064033 1.441404
    8 1.433456 0.000000 0.000000 0.082047 -0.025947 1.400638
    9 1.019165 -0.000006 0.000001 0.111253 -0.007179 1.169620
    10 3.799514 0.014957 0.039959 0.061598 0.037527 1.688653
    11 1.774878 0.000000 0.000000 0.019571 -0.092102 1.499111
    12 1.008844 -0.000004 0.000000 0.102121 -0.036158 0.427613
    13 3.632766 0.059052 -0.757493 -0.011573 -0.048792 1.868529
    14 1.500137 0.000002 0.000000 0.117785 -0.032095 0.854599
    15 0.905666 -0.000002 -0.000001 0.110486 -0.051869 1.029203
    16 3.323331 0.233744 -1.479075 0.059090 -0.114424 1.950144
    17 0.963100 0.000011 0.000000 0.060438 0.054818 0.140405
    18 0.682894 -0.000006 -0.000001 0.068025 -0.045146 1.458961
    19 1.149529 0.416498 -1.414117 1.745205 0.549542 0.478514
    20 1.263884 0.000001 0.000000 -0.008773 0.098142 0.556209
    21 1.188946 0.000000 0.000002 0.031112 0.089129 0.748515
    22 3.773762 0.133217 -0.970574 0.165900 0.071297 1.035742
    23 1.433458 0.000004 0.000000 -0.008581 0.036601 1.435606
    24 1.019165 0.000011 0.000000 -0.008701 0.036313 1.430767
    25 3.799517 0.014957 -0.039958 -0.017644 0.030317 1.660203
    26 1.774879 0.000004 0.000000 -0.006615 0.022962 1.359216
    27 1.008841 0.000004 0.000000 -0.006639 0.022962 1.359215
    28 3.632765 0.059053 0.757493 -0.329450 0.079029 1.264142
    29 1.500135 0.000004 0.000000 -0.009767 0.014429 1.269374
    30 0.905668 0.000002 -0.000001 -0.009767 0.014429 1.269374
    31 3.323332 0.233744 1.479075 -0.509290 -0.315757 0.914452
    32 0.963099 0.000010 0.000000 -0.014358 0.014010 0.851779
    33 0.682898 -0.000002 0.000000 -0.014358 0.014010 0.851779
    34 17.137630 -7.079652 -9.960010 0.262287 -0.052472 -2.216472
    35 -8.788927 -4.041733 -11.198319 -2.636297 -0.490606 -1.400345
    36 0.000000 3.992340 0.007782 1.570796 0.000000 -1.570796
    37 19.563097 -5.879086 5.586108 4.574129 0.550665 -1.713810
    38 -0.021929 2.029111 -0.137266 -1.570805 0.000001 0.000000
    39 0.019532 0.000000 0.007813 0.000007 0.000000 0.000001
    40 0.002397 -0.669111 0.409449 1.570796 0.000000 0.000000
    41 -0.002402 -6.221447 0.929182 -0.816253 0.000000 0.000000
  time 22
    0 -8.300631 -4.104235 -10.917061 -2.031569 -0.509478 -1.397385
    1 10.295578 0.000000 0.000002 0.810440 -0.058849 0.090610
    2 16.606363 -8.071870 -9.831100 -0.654833 -0.059445 -2.233103
    3 10.295582 0.000001 -0.000006 -0.755578 -0.177889 -0.017315
    4 1.149520 0.416502 1.414117 -2.019538 -0.212592 0.859487
    5 1.263885 0.000000 -0.000008 0.010499 -0.004207 0.261076
    6 1.188939 -0.000002 0.000010 0.004290 -0.004350 0.883994
    7 3.773755 0.133215 0.970575 0.064315 0.064033 1.441404
    8 1.433456 0.000000 0.000000 0.082047 -0.025947 1.400638
    9 1.019165 -0.000006 0.000001 0.111253 -0.007179 1.169620
    10 3.799514 0.014957 0.039959 0.061598 0.037527 1.688653
    11 1.774878 0.000000 0.000000 0.019535 -0.092138 1.499301
    12 1.008844 -0.000004 0.000000 0.102121 -0.036158 0.427613
    13 3.632766 0.059052 -0.757493 -0.011586 -0.048792 1.868975
    14 1.500137 0.000002 0.000000 0.117785 -0.032095 0.854599
    15 0.905666 -0.000002 -0.000001 0.110486 -0.051869 1.029295
    16 3.323331 0.233744 -1.479075 0.059078 -0.114424 1.950320
    17 0.963100 0.000011 0.000000 0.060438 0.054818 0.140405
    18 0.682894 -0.000006 -0.000001 0.068025 -0.045146 1.459136
    19 1.149529 0.416498 -1.414117 1.745205 0.549542 0.478514
    20 1.263884 0.000001 0.000000 -0.008773 0.098142 0.556209
    21 1.188946 0.000000 0.000002 0.031112 0.089129 0.748515
    22 3.773762 0.133217 -0.970574 0.165900 0.071297 1.035742
    23 1.433458 0.000004 0.000000 -0.008581 0.036601 1.435606
    24 1.019165 0.000011 0.000000 -0.008593 0.036601 1.433992
    25 3.799517 0.014957 -0.039958 -0.017644 0.030317 1.660203
    26 1.774879 0.000004 0.000000 -0.006615 0.022962 1.359216
    27 1.008841 0.000004 0.000000 -0.006639 0.022962 1.359215
    28 3.632765 0.059053 0.757493 -0.329450 0.079029 1.264142
    29 1.500135 0.000004 0.000000 -0.009767 0.014429 1.269374
    30 0.905668 0.000002 -0.000001 -0.009767 0.014429 1.269374
    31 3.323332 0.233744 1.479075 -0.509290 -0.315757 0.914452
    32 0.963099 0.000010 0.000000 -0.014358 0.014010 0.851779
    33 0.682898 -0.000002 0.000000 -0.014358 0.014010 0.851779
    34 16.606363 -8.071870 -9.831100 0.267631 -0.059401 -2.233385
    35 -8.300631 -4.104235 -10.917061 -2.689914 -0.509188 -1.397954
    36 0.000000 3.992340 0.007782 1.570796 0.000000 -1.570796
    37 19.672475 -5.257973 5.375164 4.705779 0.513426 -1.554016
    38 -0.021929 2.029111 -0.137266 -1.570805 0.000001 0.000000
    39 0.019532 0.000000 0.007813 0.000007 0.000000 0.000001
    40 0.002397 -0.669111 0.409449 1.570796 0.000000 0.000000
    41 -0.014121 -6.221447 0.929182 -0.816253 0.000000 0.000000
  time 23
    0 -7.890462 -4.307366 -11.003001 -1.998687 -0.551990 -1.392412
    1 10.295578 0.000000 0.000002 0.674790 0.032257 0.083149
    2 16.137599 -8.884395 -9.643595 -0.639437 -0.061091 -2.242594
    3 10.295582 0.000001 -0.000006 -0.675031 -0.203086 -0.163247
    4 1.149520 0.416502 1.414117 -2.019538 -0.212592 0.859487
    5 1.263885 0.000000 -0.000008 0.010499 -0.004207 0.261076
    6 1.188939 -0.000002 0.000010 0.004290 -0.004350 0.883994
    7 3.773755 0.133215 0.970575 0.064315 0.064033 1.441404
    8 1.433456 0.000000 0.000000 0.082047 -0.025947 1.400638
    9 1.019165 -0.000006 0.000001 0.111253 -0.007179 1.169620
    10 3.799514 0.014957 0.039959 0.061598 0.037527 1.689009
    11 1.774878 0.000000 0.000000 0.019499 -0.092150 1.499443
    12 1.008844 -0.000004 0.000000 0.102121 -0.036158 0.427613
    13 3.632766 0.059052 -0.757493 -0.011586 -0.048792 1.869198
    14 1.500137 0.000002 0.000000 0.117785 -0.032107 0.854646
    15 0.905666 -0.000002 -0.000001 0.110486 -0.051905 1.029387
    16 3.323331 0.233744 -1.479075 0.059066 -0.114464 1.950554
    17 0.963100 0.000011 0.000000 0.060438 0.054818 0.140405
    18 0.682894 -0.000006 -0.000001 0.068025 -0.045146 1.459136
    19 1.149529 0.416498 -1.414117 1.743516 0.553737 0.474607
    20 1.263884 0.000001 0.000000 -0.008809 0.093863 0.552557
    21 1.188946 0.000000 0.000002 0.029111 0.085270 0.724787
    22 3.773762 0.133217 -0.970574 0.162784 0.078320 0.992653
    23 1.433458 0.000004 0.000000 -0.010127 0.036146 1.391747
    24 1.019165 0.000011 0.000000 -0.010139 0.036146 1.391085
    25 3.799517 0.014957 -0.039958 -0.019717 0.029347 1.598135
    26 1.774879 0.000004 0.000000 -0.007778 0.022879 1.318995
    27 1.008841 0.000004 0.000000 -0.007778 0.022891 1.318994
    28 3.632765 0.059053 0.757493 -0.320019 -0.112881 0.710709
    29 1.500135 0.000004 0.000000 -0.016419 0.006604 0.683909
    30 0.905668 0.000002 -0.000001 -0.016419 0.006580 0.683643
    31 3.323332 0.233744 1.479075 -0.505419 -0.322288 0.901787
    32 0.963099 0.000010 0.000000 -0.014393 0.013603 0.838310
    33 0.682898 -0.000002 0.000000 -0.014382 0.013603 0.838310
    34 16.137599 -8.884395 -9.643595 0.272881 -0.061066 -2.242805
    35 -7.890462 -4.307366 -11.003001 -2.759184 -0.551908 -1.392885
    36 0.000000 3.992340 0.007782 1.570796 0.000000 -1.570796
    37 19.727165 -4.761864 5.215003 -1.458023 0.457949 -1.404635
    38 -0.021929 2.029111 -0.137266 -1.570805 0.000001 0.000000
    39 0.019532 0.000000 0.007813 0.000007 0.000000 0.000001
    40 0.002397 -0.669111 0.409449 1.570796 0.000000 0.000000
    41 -0.002402 -6.221447 0.929182 -0.816253 0.000000 0.000000
  time 24
    0 -7.488106 -4.432370 -11.096754 -1.963578 -0.575597 -1.396046
    1 10.295578 0.000000 0.000002 0.533752 0.113149 0.022181
    2 15.692273 -9.544571 -9.452182 -0.624965 -0.059463 -2.246162
    3 10.295582 0.000001 -0.000006 -0.566555 -0.227749 -0.282360
    4 1.149520 0.416502 1.414117 -2.019538 -0.212592 0.859487
    5 1.263885 0.000000 -0.000008 0.010499 -0.004207 0.261076
    6 1.188939 -0.000002 0.000010 0.004290 -0.004350 0.883994
    7 3.773755 0.133215 0.970575 0.064315 0.064033 1.441404
    8 1.433456 0.000000 0.000000 0.082047 -0.025947 1.400638
    9 1.019165 -0.000006 0.000001 0.111253 -0.007179 1.169620
    10 3.799514 0.014957 0.039959 0.061612 0.037527 1.689009
    11 1.774878 0.000000 0.000000 0.019499 -0.092150 1.499443
    12 1.008844 -0.000004 0.000000 0.102121 -0.036158 0.427613
    13 3.632766 0.059052 -0.757493 -0.011586 -0.048792 1.869198
    14 1.500137 0.000002 0.000000 0.117785 -0.032107 0.854787
    15 0.905666 -0.000002 -0.000001 0.110486 -0.051905 1.029387
    16 3.323331 0.233744 -1.479075 0.058982 -0.114491 1.950730
    17 0.963100 0.000011 0.000000 0.060474 0.054818 0.140231
    18 0.682894 -0.000006 -0.000001 0.068025 -0.045146 1.459355
    19 1.149529 0.416498 -1.414117 1.736636 0.569305 0.459925
    20 1.263884 0.000001 0.000000 -0.008929 0.078942 0.539507
    21 1.188946 0.000000 0.000002 0.022040 0.071176 0.637961
    22 3.773762 0.133217 -0.970574 0.148174 0.103212 0.834219
    23 1.433458 0.000004 0.000000 -0.015808 0.033844 1.231979
    24 1.019165 0.000011 0.000000 -0.015820 0.033868 1.231279
    25 3.799517 0.014957 -0.039958 -0.025553 0.024062 1.373150
    26 1.774879 0.000004 0.000000 -0.011086 0.021381 1.171992
    27 1.008841 0.000004 0.000000 -0.011074 0.021381 1.172032
    28 3.632765 0.059053 0.757493 -0.318077 -0.116740 0.697925
    29 1.500135 0.000004 0.000000 -0.016683 0.005046 0.572473
    30 0.905668 0.000002 -0.000001 -0.017162 0.003535 0.486323
    31 3.323332 0.233744 1.479075 -0.490357 -0.345551 0.856003
    32 0.963099 0.000010 0.000000 -0.015161 0.012847 0.789048
    33 0.682898 -0.000002 0.000000 -0.015149 0.012847 0.789149
    34 15.692273 -9.544571 -9.452182 0.231349 -0.059528 -2.246373
    35 -7.488106 -4.432370 -11.096754 0.321001 -2.564626 -4.537286
    36 0.000000 3.992340 0.007782 1.570796 0.000000 -1.570796
    37 19.731071 -4.386853 5.117344 -1.362112 0.385380 -1.254781
    38 -0.021929 2.029111 -0.137266 -1.570805 0.000001 0.000000
    39 0.019532 0.000000 0.007813 0.000007 0.000000 0.000001
    40 0.014116 -0.669111 0.409449 1.570796 0.000000 0.000000
    41 -0.002402 -6.221447 0.929182 -0.816253 0.000000 0.000000
  time 25
    0 -7.136533 -4.369868 -11.096754 -1.923125 -0.561395 -1.409914
    1 10.295578 0.000000 0.000002 0.398784 0.183219 -0.091795
    2 15.321168 -10.040680 -9.260770 -0.612525 -0.056405 -2.245948
    3 10.295582 0.000001 -0.000006 -0.457884 -0.252184 -0.347530
    4 1.149520 0.416502 1.414117 -2.019538 -0.212592 0.859487
    5 1.263885 0.000000 -0.000008 0.010499 -0.004207 0.261076
    6 1.188939 -0.000002 0.000010 0.004290 -0.004350 0.883994
    7 3.773755 0.133215 0.970575 0.064315 0.064033 1.441404
    8 1.433456 0.000000 0.000000 0.082047 -0.025947 1.400638
    9 1.019165 -0.000006 0.000001 0.111253 -0.007179 1.169620
    10 3.799514 0.014957 0.039959 0.061612 0.037515 1.689009
    11 1.774878 0.000000 0.000000 0.019499 -0.092150 1.499538
    12 1.008844 -0.000004 0.000000 0.102121 -0.036158 0.427613
    13 3.632766 0.059052 -0.757493 -0.011573 -0.048804 1.869198
    14 1.500137 0.000002 0.000000 0.117785 -0.032107 0.854787
    15 0.905666 -0.000002 -0.000001 0.110474 -0.051905 1.029479
    16 3.323331 0.233744 -1.479075 0.059030 -0.114558 1.950847
    17 0.963100 0.000011 0.000000 0.060474 0.054818 0.140231
    18 0.682894 -0.000006 -0.000001 0.068025 -0.045158 1.459486
    19 1.149529 0.416498 -1.414117 1.725455 0.592663 0.437143
    20 1.263884 0.000001 0.000000 -0.008929 0.056280 0.519478
    21 1.188946 0.000000 0.000002 0.011146 0.049652 0.504649
    22 3.773762 0.133217 -0.970574 0.119028 0.136026 0.589577
    23 1.433458 0.000004 0.000000 -0.023598 0.029159 0.986085
    24 1.019165 0.000011 0.000000 -0.023610 0.029147 0.986132
    25 3.799517 0.014957 -0.039958 -0.032397 0.013970 1.028276
    26 1.774879 0.000004 0.000000 -0.015640 0.018277 0.946297
    27 1.008841 0.000004 0.000000 -0.015640 0.018277 0.946337
    28 3.632765 0.059053 0.757493 -0.327904 -0.081097 0.801314
    29 1.500135 0.000004 0.000000 -0.016371 0.006592 0.599544
    30 0.905668 0.000002 -0.000001 -0.017114 0.004147 0.451849
    31 3.323332 0.233744 1.479075 -0.464948 -0.380270 0.784700
    32 0.963099 0.000010 0.000000 -0.016011 0.011877 0.713554
    33 0.682898 -0.000002 0.000000 -0.015999 0.011877 0.713428
    34 15.321168 -10.040680 -9.260770 0.283475 -0.056452 -2.246159
    35 -7.136533 -4.369868 -11.096754 0.259989 -2.579185 -4.550198
    36 0.000000 3.992340 0.007782 1.570796 0.000000 -1.570796
    37 19.676382 -4.250130 5.054842 -1.287185 0.313861 -1.120641
    38 -0.021929 2.029111 -0.137266 -1.570805 0.000001 0.000000
    39 0.019532 0.000000 0.007813 0.000007 0.000000 0.000001
    40 0.014116 -0.669111 0.409449 1.570796 0.000000 0.000000
    41 -0.014121 -6.221447 0.929182 -0.816253 0.000000 0.000000
  time 26
    0 -6.769334 -4.088610 -10.917061 -1.882449 -0.508067 -1.430764
    1 10.295578 0.000000 0.000002 0.289391 0.237373 -0.226780
    2 15.043816 -10.384441 -9.088890 -0.602610 -0.053383 -2.244378
    3 10.295582 0.000001 -0.000006 -0.375931 -0.286415 -0.371242
    4 1.149520 0.416502 1.414117 -2.019538 -0.212592 0.859487
    5 1.263885 0.000000 -0.000008 0.010499 -0.004207 0.261076
    6 1.188939 -0.000002 0.000010 0.004290 -0.004350 0.883994
    7 3.773755 0.133215 0.970575 0.064315 0.064033 1.441404
    8 1.433456 0.000000 0.000000 0.082047 -0.025947 1.400638
    9 1.019165 -0.000006 0.000001 0.111253 -0.007179 1.169620
    10 3.799514 0.014957 0.039959 0.061612 0.037515 1.689009
    11 1.774878 0.000000 0.000000 0.019487 -0.092150 1.499632
    12 1.008844 -0.000004 0.000000 0.102121 -0.036158 0.427613
    13 3.632766 0.059052 -0.757493 -0.011391 -0.048828 1.869198
    14 1.500137 0.000002 0.000000 0.117785 -0.032119 0.854834
    15 0.905666 -0.000002 -0.000001 0.110474 -0.051905 1.029479
    16 3.323331 0.233744 -1.479075 0.059018 -0.114558 1.951023
    17 0.963100 0.000011 0.000000 0.060474 0.054818 0.140231
    18 0.682894 -0.000006 -0.000001 0.068025 -0.045158 1.459530
    19 1.149529 0.416498 -1.414117 1.712380 0.616740 0.412694
    20 1.263884 0.000001 0.000000 -0.008941 0.032778 0.498832
    21 1.188946 0.000000 0.000002 0.000312 0.027277 0.367641
    22 3.773762 0.133217 -0.970574 0.081133 0.161302 0.335914
    23 1.433458 0.000004 0.000000 -0.029938 0.022207 0.734338
    24 1.019165 0.000011 0.000000 -0.029938 0.022219 0.733978
    25 3.799517 0.014957 -0.039958 -0.035369 0.001974 0.673207
    26 1.774879 0.000004 0.000000 -0.019487 0.014358 0.714170
    27 1.008841 0.000004 0.000000 -0.019475 0.014370 0.714251
    28 3.632765 0.059053 0.757493 -0.317574 -0.115194 0.695539
    29 1.500135 0.000004 0.000000 -0.016551 0.006675 0.545174
    30 0.905668 0.000002 -0.000001 -0.016994 0.005022 0.433244
    31 3.323332 0.233744 1.479075 -0.435595 -0.414019 0.708734
    32 0.963099 0.000010 0.000000 -0.017114 0.010463 0.636017
    33 0.682898 -0.000002 0.000000 -0.017030 0.010475 0.636017
    34 15.043816 -10.384441 -9.088890 0.370570 -0.053340 -2.244446
    35 -6.769334 -4.088610 -10.917061 0.197498 -2.632154 -4.571717
    36 0.000000 3.992340 0.007782 1.570796 0.000000 -1.570796
    37 19.625599 -4.336070 5.011872 -1.228546 0.259530 -1.023799
    38 -0.021929 2.029111 -0.137266 -1.570805 0.000001 0.000000
    39 0.019532 0.000000 0.007813 0.000007 0.000000 0.000001
    40 0.002397 -0.669111 0.409449 1.570796 0.000000 0.000000
    41 -0.014121 -6.221447 0.929182 -0.816253 0.000000 0.000000
  time 27
    0 -6.437292 -4.010482 -11.065503 -1.868049 -0.493395 -1.453622
    1 10.295578 0.000000 0.000002 0.239946 0.261490 -0.294741
    2 14.883654 -10.603197 -8.987324 -0.595959 -0.051248 -2.242808
    3 10.295582 0.000001 -0.000006 -0.323743 -0.322648 -0.374349
    4 1.149520 0.416502 1.414117 -2.019538 -0.212592 0.859487
    5 1.263885 0.000000 -0.000008 0.010499 -0.004207 0.261076
    6 1.188939 -0.000002 0.000010 0.004290 -0.004350 0.883994
    7 3.773755 0.133215 0.970575 0.064315 0.064033 1.441404
    8 1.433456 0.000000 0.000000 0.082047 -0.025947 1.400638
    9 1.019165 -0.000006 0.000001 0.111253 -0.007179 1.169620
    10 3.799514 0.014957 0.039959 0.061612 0.037515 1.689009
    11 1.774878 0.000000 0.000000 0.019487 -0.092150 1.499632
    12 1.008844 -0.000004 0.000000 0.102121 -0.036158 0.427613
    13 3.632766 0.059052 -0.757493 -0.011391 -0.048828 1.869198
    14 1.500137 0.000002 0.000000 0.117785 -0.032119 0.854834
    15 0.905666 -0.000002 -0.000001 0.110474 -0.051989 1.029571
    16 3.323331 0.233744 -1.479075 0.059018 -0.114598 1.951023
    17 0.963100 0.000011 0.000000 0.060474 0.054818 0.140231
    18 0.682894 -0.000006 -0.000001 0.068025 -0.045158 1.459530
    19 1.149529 0.416498 -1.414117 1.700862 0.635483 0.392944
    20 1.263884 0.000001 0.000000 -0.009000 0.014202 0.482593
    21 1.188946 0.000000 0.000002 -0.007910 0.009432 0.259698
    22 3.773762 0.133217 -0.970574 0.047528 0.173969 0.134675
    23 1.433458 0.000004 0.000000 -0.033832 0.015940 0.535531
    24 1.019165 0.000011 0.000000 -0.033821 0.015928 0.535350
    25 3.799517 0.014957 -0.039958 -0.034518 -0.007889 0.393350
    26 1.774879 0.000004 0.000000 -0.021788 0.010487 0.531424
    27 1.008841 0.000004 0.000000 -0.021680 0.010499 0.531464
    28 3.632765 0.059053 0.757493 -0.295810 -0.162281 0.541462
    29 1.500135 0.000004 0.000000 -0.016719 0.006604 0.466466
    30 0.905668 0.000002 -0.000001 -0.016862 0.005872 0.426106
    31 3.323332 0.233744 1.479075 -0.410215 -0.438935 0.647456
    32 0.963099 0.000010 0.000000 -0.017533 0.009528 0.574875
    33 0.682898 -0.000002 0.000000 -0.017509 0.009528 0.574951
    34 14.883654 -10.603197 -8.987324 0.452603 -0.051205 -2.243019
    35 -6.437292 -4.010482 -11.065503 0.130138 -2.647671 -4.594671
    36 0.000000 3.992340 0.007782 1.570796 0.000000 -1.570796
    37 19.609973 -4.496231 4.984527 -1.189740 0.224964 -0.964539
    38 -0.021929 2.029111 -0.137266 -1.570805 0.000001 0.000000
    39 0.019532 0.000000 0.007813 0.000007 0.000000 0.000001
    40 0.014116 -0.669111 0.409449 1.570796 0.000000 0.000000
    41 -0.002402 -6.221447 0.929182 -0.816253 0.000000 0.000000
end
